<svg width="921" height="679" viewBox="0 0 921 679" fill="none" xmlns="http://www.w3.org/2000/svg">
<path d="M828.715 632.42H767.745V632.972H828.715V632.42Z" fill="#EBEBEB"/>
<path d="M610.07 637.575H594.045V638.128H610.07V637.575Z" fill="#EBEBEB"/>
<path d="M765.903 615.482H730.537V616.034H765.903V615.482Z" fill="#EBEBEB"/>
<path d="M176.279 618.428H96.7051V618.98H176.279V618.428Z" fill="#EBEBEB"/>
<path d="M204.277 618.428H192.673V618.98H204.277V618.428Z" fill="#EBEBEB"/>
<path d="M414.819 626.344H242.223V626.897H414.819V626.344Z" fill="#EBEBEB"/>
<path d="M436.554 520.665H80.8641C75.1539 520.665 70.3647 515.878 70.3647 510.171V10.4943C70.3647 4.78688 75.1539 0 80.8641 0H436.554C442.265 0 447.054 4.78688 447.054 10.4943V510.171C447.054 516.062 442.449 520.665 436.554 520.665ZM80.8641 0.552332C75.3381 0.552332 70.7331 4.97099 70.7331 10.6784V510.355C70.7331 515.878 75.1539 520.481 80.8641 520.481H436.554C442.08 520.481 446.685 516.062 446.685 510.355V10.4943C446.685 4.97099 442.265 0.368221 436.554 0.368221H80.8641V0.552332Z" fill="#304F95"/>
<path d="M834.979 520.665H479.288C473.578 520.665 468.789 515.878 468.789 510.171V10.4943C468.789 4.78688 473.578 0 479.288 0H834.979C840.689 0 845.478 4.78688 845.478 10.4943V510.171C845.478 516.062 840.873 520.665 834.979 520.665ZM479.288 0.552332C473.762 0.552332 469.157 4.97099 469.157 10.6784V510.355C469.157 515.878 473.578 520.481 479.288 520.481H834.979C840.505 520.481 845.11 516.062 845.11 510.355V10.4943C845.11 4.97099 840.689 0.368221 834.979 0.368221H479.288V0.552332Z" fill="#304F95"/>
<path d="M921 602.778H0V603.331H921V602.778Z" fill="#EBEBEB"/>
<path d="M470.079 413.144C474.453 413.144 477.999 409.6 477.999 405.227C477.999 400.855 474.453 397.311 470.079 397.311C465.704 397.311 462.158 400.855 462.158 405.227C462.158 409.6 465.704 413.144 470.079 413.144Z" stroke="#343B43" stroke-width="3" stroke-miterlimit="10"/>
<path d="M475.604 410.935L488.314 423.639" stroke="#343B43" stroke-width="3" stroke-miterlimit="10"/>
<path d="M766.272 145.632C796.791 145.632 821.532 120.903 821.532 90.3983C821.532 59.8939 796.791 35.1652 766.272 35.1652C735.753 35.1652 711.012 59.8939 711.012 90.3983C711.012 120.903 735.753 145.632 766.272 145.632Z" fill="#E0E0E0"/>
<path d="M766.457 146.92C735.327 146.92 709.907 121.513 709.907 90.3984C709.907 59.2837 735.327 33.8764 766.457 33.8764V36.2698C736.616 36.2698 712.486 60.3883 712.486 90.2142C712.486 120.04 736.616 144.159 766.457 144.159V146.92Z" fill="white"/>
<path d="M766.457 146.92V144.527C796.297 144.527 820.427 120.408 820.427 90.5824C820.427 60.7565 796.297 36.638 766.457 36.638V34.2446C797.586 34.2446 823.006 59.6518 823.006 90.7665C823.006 121.513 797.586 146.92 766.457 146.92Z" fill="white"/>
<path d="M795.376 90.3983H792.982C792.982 72.1714 783.772 47.6846 765.904 36.2698L767.194 34.2446C785.614 46.0276 795.376 71.4349 795.376 90.3983Z" fill="white"/>
<path d="M767.194 145.079L765.904 143.054C783.588 131.639 792.982 107.152 792.982 88.9254H795.376C795.376 107.705 785.614 133.112 767.194 145.079Z" fill="white"/>
<path d="M740.116 90.3983H737.721C737.721 71.4349 747.484 46.0277 765.904 34.0605L767.193 36.0857C749.326 47.6847 740.116 72.1714 740.116 90.3983Z" fill="white"/>
<path d="M765.72 145.079C747.3 133.296 737.537 107.889 737.537 88.9254H739.932C739.932 107.152 749.142 131.639 767.009 143.054L765.72 145.079Z" fill="white"/>
<path d="M767.562 35.1652H765.167V145.632H767.562V35.1652Z" fill="white"/>
<path d="M813.243 59.836H719.67V62.2294H813.243V59.836Z" fill="white"/>
<path d="M821.533 90.2142H711.197V92.6077H821.533V90.2142Z" fill="white"/>
<path d="M811.954 120.408H720.959V122.802H811.954V120.408Z" fill="white"/>
<path d="M176.096 70.1462C176.096 66.2799 175.543 62.5976 174.438 59.0995L184.016 50.6305L177.938 40.1361L165.965 44.1866C160.991 38.8474 154.36 34.9811 146.992 33.1399L144.413 20.6204H132.256L129.677 33.1399C122.309 34.7969 115.678 38.6633 110.705 44.1866L98.5473 40.1361L92.4688 50.6305L102.047 59.0995C100.942 62.5976 100.389 66.2799 100.389 70.1462C100.389 74.0125 100.942 77.6947 102.047 81.1928L92.4688 89.6619L98.5473 100.156L110.705 96.1058C115.678 101.445 122.309 105.311 129.677 107.152L132.256 119.672H144.413L146.992 107.152C154.36 105.495 160.991 101.445 165.965 96.1058L178.122 100.156L184.2 89.6619L174.438 81.0087C175.543 77.5106 176.096 73.8284 176.096 70.1462ZM138.335 90.3984C127.467 90.3984 118.625 81.561 118.625 70.6985C118.625 59.836 127.467 50.9987 138.335 50.9987C149.202 50.9987 158.044 59.836 158.044 70.6985C158.044 81.7452 149.202 90.3984 138.335 90.3984Z" fill="#E0E0E0"/>
<path d="M228.04 122.25C228.04 119.304 227.672 116.542 226.751 113.965L234.119 107.521L229.514 99.6039L220.304 102.734C216.435 98.6834 211.462 95.7376 205.936 94.4488L204.094 84.8751H194.884L193.042 94.4488C187.332 95.7376 182.358 98.6834 178.49 102.734L169.28 99.6039L164.675 107.521L172.043 113.965C171.306 116.542 170.754 119.488 170.754 122.25C170.754 125.195 171.122 127.957 172.043 130.534L164.675 136.978L169.28 144.895L178.49 141.765C182.358 145.816 187.332 148.761 193.042 150.05L194.884 159.624H204.094L205.936 150.05C211.646 148.761 216.62 145.816 220.304 141.765L229.514 144.895L234.119 136.978L226.751 130.534C227.672 127.957 228.04 125.195 228.04 122.25ZM199.305 137.715C191.016 137.715 184.385 131.087 184.385 122.802C184.385 114.517 191.016 107.889 199.305 107.889C207.594 107.889 214.225 114.517 214.225 122.802C214.225 131.087 207.594 137.715 199.305 137.715Z" fill="#E0E0E0"/>
<path d="M365.821 74.749L370.795 64.807L375.584 74.749L386.636 76.406L378.715 83.9545L380.557 95.0011L370.795 89.846L361.032 95.0011L362.874 84.1386L354.954 76.406L365.821 74.749Z" fill="#EBEBEB"/>
<path d="M410.398 74.749L415.187 64.807L420.16 74.749L431.028 76.406L423.107 83.9545L425.134 95.0011L415.187 89.846L405.424 95.0011L407.266 84.1386L399.346 76.406L410.398 74.749Z" fill="#EBEBEB"/>
<path d="M454.79 74.749L459.763 64.807L464.736 74.749L475.604 76.406L467.684 83.9545L469.526 95.0011L459.763 89.846L450 95.0011L451.842 84.1386L443.922 76.406L454.79 74.749Z" fill="#EBEBEB"/>
<path d="M499.366 74.749L504.34 64.807L509.129 74.749L520.181 76.406L512.26 83.9545L514.102 95.0011L504.34 89.846L494.577 95.0011L496.419 84.1386L488.499 76.406L499.366 74.749Z" fill="#EBEBEB"/>
<path d="M543.943 74.749L548.732 64.807L553.705 74.749L564.573 76.406L556.652 83.9545L558.494 95.0011L548.732 89.846L538.969 95.0011L540.811 84.1386L532.891 76.406L543.943 74.749Z" fill="#EBEBEB"/>
<path d="M451.658 678.816C648.914 678.816 808.822 669.501 808.822 658.011C808.822 646.521 648.914 637.207 451.658 637.207C254.402 637.207 94.4946 646.521 94.4946 658.011C94.4946 669.501 254.402 678.816 451.658 678.816Z" fill="#F5F5F5"/>
<path d="M331.008 639.785L330.639 644.019C330.639 644.571 330.639 645.124 330.823 645.492C330.823 645.676 331.008 645.86 331.192 646.228C331.376 646.597 331.376 646.597 331.56 646.781C331.744 646.965 331.929 647.149 332.113 647.333C332.665 647.701 333.402 648.07 334.323 648.07H486.104C486.472 648.07 486.841 648.07 487.209 647.885C487.393 647.885 487.762 647.701 487.946 647.517C488.499 647.333 489.051 646.781 489.42 646.413C489.604 646.228 489.604 646.044 489.788 645.86C489.972 645.492 490.156 644.94 490.156 644.387L490.525 640.337C490.525 639.785 490.525 639.416 490.341 638.864C490.341 638.68 490.156 638.496 489.972 638.312C489.604 637.759 489.235 637.391 488.867 637.207C488.683 637.023 488.499 637.023 488.314 636.839C487.946 636.655 487.578 636.655 487.209 636.655H449.448C448.896 636.655 448.527 636.655 447.975 636.471C447.79 636.471 447.606 636.471 447.422 636.286C447.238 636.286 447.054 636.102 446.869 636.102C446.685 636.102 446.501 635.918 446.317 635.918C446.133 635.734 445.764 635.55 445.58 635.366C445.212 635.182 445.027 634.814 444.843 634.629C444.659 634.445 444.659 634.261 444.475 634.077C444.291 633.893 444.291 633.893 444.291 633.709V633.525C444.106 633.341 444.106 633.157 444.106 632.972C444.106 632.788 443.922 632.604 443.922 632.42C443.922 632.42 443.922 632.42 443.922 632.236V632.052C443.922 631.868 443.922 631.684 443.738 631.684C443.738 631.5 443.738 631.315 443.554 631.131C443.554 630.947 443.554 630.763 443.554 630.579C443.554 630.395 443.554 630.211 443.554 630.027V629.843C443.554 629.658 443.554 629.474 443.554 629.29C443.554 629.106 443.554 628.922 443.738 628.738L458.658 571.848L461.421 560.985L463.632 552.332H377.426L372.821 560.985L366.927 571.848L333.402 633.893C333.218 634.077 333.218 634.261 333.034 634.629C332.85 634.814 332.85 635.182 332.665 635.366C332.481 635.55 332.481 635.918 332.297 636.102C332.297 636.286 332.113 636.471 332.113 636.655C331.192 637.575 331.008 638.68 331.008 639.785Z" fill="#343B43"/>
<path opacity="0.2" d="M490.34 640.153L489.972 644.387C489.787 646.413 487.945 648.07 485.919 648.07H334.138C331.928 648.07 330.27 646.228 330.454 644.019L330.823 639.785C331.007 638.68 331.191 637.575 331.56 636.471C331.928 635.55 332.296 634.629 332.665 633.709L376.689 552.148H462.894L443.001 628.554C442.816 629.106 442.816 629.474 442.816 629.843C442.632 632.972 444.658 635.734 447.79 636.471C448.158 636.655 448.711 636.655 449.263 636.655H487.024C489.051 636.655 490.524 638.128 490.34 640.153Z" fill="white"/>
<path d="M327.876 633.709L371.9 552.148H376.689L332.665 633.709C331.56 635.55 331.007 637.759 330.823 639.785L330.455 644.019C330.27 646.228 331.928 648.07 334.139 648.07H329.349C327.139 648.07 325.481 646.228 325.665 644.019L326.034 639.785C326.218 637.575 326.955 635.55 327.876 633.709Z" fill="#343B43"/>
<path opacity="0.3" d="M376.873 551.964H463.079L457.921 571.479H366.374L376.873 551.964Z" fill="#343B43"/>
<path d="M230.619 281.505V518.456V547.177C230.619 554.541 236.697 560.617 244.065 560.617H611.913C619.281 560.617 625.359 554.541 625.359 547.177V518.456V281.505C625.359 274.141 619.281 268.065 611.913 268.065H244.065C240.934 268.065 238.171 269.17 235.96 270.827C235.592 271.011 235.224 271.379 235.039 271.563C234.118 272.3 233.382 273.404 232.645 274.325C232.276 275.061 231.908 275.798 231.54 276.534C230.987 278.191 230.619 279.848 230.619 281.505Z" fill="#343B43"/>
<path d="M625.175 518.456V547.177C625.175 554.541 619.096 560.617 611.728 560.617H244.065C236.697 560.617 230.619 554.541 230.619 547.177V518.456H625.175Z" fill="url(#paint0_linear_170_2272)"/>
<path opacity="0.6" d="M625.175 518.456V547.177C625.175 554.541 619.096 560.617 611.728 560.617H244.065C236.697 560.617 230.619 554.541 230.619 547.177V518.456H625.175Z" fill="white"/>
<path d="M244.249 510.355H611.544C615.596 510.355 618.912 507.041 618.912 502.99V283.53C618.912 279.48 615.596 276.166 611.544 276.166H244.249C240.196 276.166 236.881 279.48 236.881 283.53V502.99C237.065 507.041 240.196 510.355 244.249 510.355Z" fill="url(#paint1_linear_170_2272)"/>
<path d="M235.96 268.065H244.065C236.697 268.065 230.618 274.141 230.618 281.505V547.177C230.618 554.541 236.697 560.617 244.065 560.617H235.96C228.592 560.617 222.514 554.541 222.514 547.177V281.505C222.514 274.141 228.408 268.065 235.96 268.065Z" fill="#343B43"/>
<g opacity="0.2">
<path opacity="0.2" d="M235.96 268.065H244.065C236.697 268.065 230.618 274.141 230.618 281.505V547.177C230.618 554.541 236.697 560.617 244.065 560.617H235.96C228.592 560.617 222.514 554.541 222.514 547.177V281.505C222.514 274.141 228.408 268.065 235.96 268.065Z" fill="white"/>
</g>
<path opacity="0.5" d="M621.122 416.09C611.728 414.249 596.624 420.325 593.861 429.53C594.598 424.007 591.65 418.115 586.677 415.17C581.888 412.408 575.441 410.383 570.836 413.697C575.257 395.654 568.625 375.402 554.074 363.803C539.706 352.204 518.707 350.915 501.945 359.016C506.918 349.626 507.287 338.027 503.05 328.269C498.814 318.511 491.077 312.068 481.13 308.569C458.105 300.469 433.054 298.075 408.924 301.757C394.925 303.783 380.557 308.201 370.426 317.959C360.295 327.717 357.532 345.576 364.348 357.911C348.691 352.572 330.086 356.991 318.482 368.774C306.877 380.557 303.009 398.784 308.535 414.433C304.298 411.856 298.588 411.671 294.167 413.881C289.747 416.09 286.615 420.693 286.063 425.664C280.168 417.931 270.406 413.328 260.827 413.697C251.065 414.065 241.67 419.22 236.329 427.505V510.171H618.912L621.122 416.09Z" fill="white"/>
<path d="M535.838 416.09H338.929C328.982 416.09 320.877 407.989 320.877 398.047C320.877 388.105 328.982 380.004 338.929 380.004H535.838C545.785 380.004 553.89 388.105 553.89 398.047C554.074 407.805 545.969 416.09 535.838 416.09Z" fill="white"/>
<path d="M337.823 402.098C342.197 402.098 345.743 398.553 345.743 394.181C345.743 389.809 342.197 386.264 337.823 386.264C333.448 386.264 329.902 389.809 329.902 394.181C329.902 398.553 333.448 402.098 337.823 402.098Z" stroke="#343B43" stroke-width="3" stroke-miterlimit="10"/>
<path d="M343.349 399.888L356.058 412.592" stroke="#343B43" stroke-width="3" stroke-miterlimit="10"/>
<g opacity="0.1">
<path opacity="0.1" d="M494.577 276.166H508.576L537.864 510.355H523.865L494.577 276.166Z" fill="white"/>
<path opacity="0.1" d="M552.232 510.355L522.944 276.166H575.994L605.282 510.355H552.232Z" fill="white"/>
</g>
<path opacity="0.2" d="M357.164 640.153L356.795 644.019C356.611 646.044 358.085 647.885 360.295 647.885H485.919C487.946 647.885 489.788 646.228 489.972 644.203L490.34 640.153C490.524 638.128 489.051 636.471 487.025 636.471H449.264C448.711 636.471 448.343 636.471 447.79 636.286H361.216C359.19 636.471 357.348 638.128 357.164 640.153Z" fill="white"/>
<path opacity="0.2" d="M331.56 636.471H447.79C444.659 635.918 442.633 633.156 442.817 629.842H335.06L331.56 636.471Z" fill="#343B43"/>
<path d="M391.057 357.911L393.635 352.204C396.398 354.229 400.451 355.518 404.319 355.518C408.74 355.518 410.582 354.045 410.582 352.02C410.582 345.944 391.793 350.178 391.793 338.027C391.793 332.504 396.214 327.901 405.424 327.901C409.477 327.901 413.713 328.822 416.66 330.847L414.266 336.554C411.319 334.897 408.187 333.977 405.24 333.977C400.819 333.977 399.161 335.634 399.161 337.659C399.161 343.55 417.95 339.5 417.95 351.467C417.95 356.806 413.529 361.593 404.135 361.593C398.977 361.777 393.82 360.12 391.057 357.911Z" fill="#343B43"/>
<path d="M448.159 355.149V361.225H423.108V328.822H447.606V334.897H430.66V341.893H445.764V347.785H430.66V355.334H448.159V355.149Z" fill="#343B43"/>
<path d="M452.026 345.023C452.026 335.45 459.579 328.269 469.71 328.269C479.841 328.269 487.393 335.265 487.393 345.023C487.393 354.781 479.841 361.777 469.71 361.777C459.579 361.777 452.026 354.597 452.026 345.023ZM479.841 345.023C479.841 338.948 475.42 334.713 469.71 334.713C463.999 334.713 459.579 338.948 459.579 345.023C459.579 351.099 463.999 355.334 469.71 355.334C475.604 355.334 479.841 351.099 479.841 345.023Z" fill="#343B43"/>
<path opacity="0.8" d="M427.712 470.403H349.98C346.111 470.403 342.796 467.273 342.796 463.222V446.837C342.796 442.97 345.927 439.656 349.98 439.656H427.712C431.58 439.656 434.896 442.786 434.896 446.837V463.222C434.896 467.273 431.58 470.403 427.712 470.403Z" fill="white"/>
<path opacity="0.8" d="M540.443 470.403H462.71C458.842 470.403 455.526 467.273 455.526 463.222V446.836C455.526 442.97 458.658 439.656 462.71 439.656H540.443C544.311 439.656 547.626 442.786 547.626 446.836V463.222C547.626 467.273 544.311 470.403 540.443 470.403Z" fill="white"/>
<path d="M386.636 286.66L432.317 205.652C433.054 204.363 434.896 204.363 435.449 205.652L481.13 286.66C481.867 287.949 480.946 289.422 479.473 289.422H388.109C386.82 289.422 386.083 287.949 386.636 286.66Z" fill="url(#paint2_linear_170_2272)"/>
<path opacity="0.3" d="M386.636 286.66L432.317 205.652C433.054 204.363 434.896 204.363 435.449 205.652L481.13 286.66C481.867 287.949 480.946 289.422 479.473 289.422H388.109C386.82 289.422 386.083 287.949 386.636 286.66Z" fill="#343B43"/>
<path d="M412.24 301.573L410.029 292.552H402.109L399.898 301.573C403.582 303.046 408.003 303.23 412.24 301.573Z" fill="#343B43"/>
<path opacity="0.2" d="M402.109 292.368C402.109 292.368 401.741 293.656 401.557 294.577C404.504 295.498 407.635 295.498 410.582 294.577L410.03 292.368H402.109Z" fill="white"/>
<path opacity="0.4" d="M401.004 296.786C400.82 297.339 400.636 297.891 400.636 298.443C404.136 299.548 408.004 299.548 411.688 298.443L411.319 296.786C407.635 297.523 404.32 297.523 401.004 296.786Z" fill="white"/>
<path d="M414.45 291.815C408.74 294.209 402.846 294.025 397.504 291.815V224.247C397.504 216.33 400.819 209.15 405.977 203.81C411.135 208.966 414.45 216.146 414.45 224.247V291.815Z" fill="url(#paint3_linear_170_2272)"/>
<path d="M397.504 224.247C397.504 224.247 397.504 281.137 397.504 287.949C402.846 289.79 408.74 289.974 414.45 287.949C414.45 281.137 414.45 224.247 414.45 224.247C414.45 216.33 411.135 209.15 405.977 203.81C400.819 209.15 397.504 216.33 397.504 224.247Z" fill="url(#paint4_linear_170_2272)"/>
<path opacity="0.4" d="M397.504 224.247C397.504 224.247 397.504 281.137 397.504 287.949C402.846 289.79 408.74 289.974 414.45 287.949C414.45 281.137 414.45 224.247 414.45 224.247C414.45 216.33 411.135 209.15 405.977 203.81C400.819 209.15 397.504 216.33 397.504 224.247Z" fill="white"/>
<path d="M397.504 224.247C397.504 224.247 397.504 252.968 397.504 272.116C402.846 273.588 408.74 273.773 414.45 272.116C414.45 252.968 414.45 224.247 414.45 224.247C414.45 216.33 411.135 209.15 405.977 203.81C400.819 209.15 397.504 216.33 397.504 224.247Z" fill="url(#paint5_linear_170_2272)"/>
<path opacity="0.6" d="M397.504 224.247C397.504 224.247 397.504 252.968 397.504 272.116C402.846 273.588 408.74 273.773 414.45 272.116C414.45 252.968 414.45 224.247 414.45 224.247C414.45 216.33 411.135 209.15 405.977 203.81C400.819 209.15 397.504 216.33 397.504 224.247Z" fill="white"/>
<path d="M397.504 224.247C397.504 224.247 397.504 235.846 397.504 249.286C402.846 250.759 408.74 250.943 414.45 249.286C414.45 235.846 414.45 224.247 414.45 224.247C414.45 216.33 411.135 209.15 405.977 203.81C400.819 209.15 397.504 216.33 397.504 224.247Z" fill="url(#paint6_linear_170_2272)"/>
<path opacity="0.8" d="M397.504 224.247C397.504 224.247 397.504 235.846 397.504 249.286C402.846 250.759 408.74 250.943 414.45 249.286C414.45 235.846 414.45 224.247 414.45 224.247C414.45 216.33 411.135 209.15 405.977 203.81C400.819 209.15 397.504 216.33 397.504 224.247Z" fill="white"/>
<path d="M397.504 224.247C397.504 224.247 397.504 225.351 397.504 227.193C402.846 228.665 408.74 228.85 414.45 227.193C414.45 225.351 414.45 224.247 414.45 224.247C414.45 216.33 411.135 209.15 405.977 203.81C400.819 209.15 397.504 216.33 397.504 224.247Z" fill="url(#paint7_linear_170_2272)"/>
<path opacity="0.4" d="M397.504 224.247C397.504 224.247 397.504 225.351 397.504 227.193C402.846 228.665 408.74 228.85 414.45 227.193C414.45 225.351 414.45 224.247 414.45 224.247C414.45 216.33 411.135 209.15 405.977 203.81C400.819 209.15 397.504 216.33 397.504 224.247Z" fill="white"/>
<path d="M466.579 301.573L464.368 292.552H456.448L454.237 301.573C457.921 303.046 462.342 303.23 466.579 301.573Z" fill="#343B43"/>
<path opacity="0.2" d="M456.264 292.368C456.264 292.368 455.895 293.656 455.711 294.577C458.658 295.498 461.79 295.498 464.737 294.577L464.184 292.368H456.264Z" fill="white"/>
<path opacity="0.4" d="M455.158 296.786C454.974 297.339 454.79 297.891 454.79 298.443C458.289 299.548 462.158 299.548 465.842 298.443L465.473 296.786C461.973 297.523 458.474 297.523 455.158 296.786Z" fill="white"/>
<path d="M468.789 291.815C463.079 294.209 457.185 294.025 451.843 291.815V224.247C451.843 216.33 455.158 209.15 460.316 203.81C465.474 208.966 468.789 216.146 468.789 224.247V291.815Z" fill="url(#paint8_linear_170_2272)"/>
<path d="M451.843 224.247C451.843 224.247 451.843 281.137 451.843 287.949C457.185 289.79 463.079 289.974 468.789 287.949C468.789 281.137 468.789 224.247 468.789 224.247C468.789 216.33 465.474 209.15 460.316 203.81C455.158 209.15 451.843 216.33 451.843 224.247Z" fill="url(#paint9_linear_170_2272)"/>
<path opacity="0.4" d="M451.843 224.247C451.843 224.247 451.843 281.137 451.843 287.949C457.185 289.79 463.079 289.974 468.789 287.949C468.789 281.137 468.789 224.247 468.789 224.247C468.789 216.33 465.474 209.15 460.316 203.81C455.158 209.15 451.843 216.33 451.843 224.247Z" fill="white"/>
<path d="M451.843 224.247C451.843 224.247 451.843 252.968 451.843 272.116C457.185 273.588 463.079 273.773 468.789 272.116C468.789 252.968 468.789 224.247 468.789 224.247C468.789 216.33 465.474 209.15 460.316 203.81C455.158 209.15 451.843 216.33 451.843 224.247Z" fill="url(#paint10_linear_170_2272)"/>
<path opacity="0.6" d="M451.843 224.247C451.843 224.247 451.843 252.968 451.843 272.116C457.185 273.588 463.079 273.773 468.789 272.116C468.789 252.968 468.789 224.247 468.789 224.247C468.789 216.33 465.474 209.15 460.316 203.81C455.158 209.15 451.843 216.33 451.843 224.247Z" fill="white"/>
<path d="M451.843 224.247C451.843 224.247 451.843 235.846 451.843 249.286C457.185 250.759 463.079 250.943 468.789 249.286C468.789 235.846 468.789 224.247 468.789 224.247C468.789 216.33 465.474 209.15 460.316 203.81C455.158 209.15 451.843 216.33 451.843 224.247Z" fill="url(#paint11_linear_170_2272)"/>
<path opacity="0.8" d="M451.843 224.247C451.843 224.247 451.843 235.846 451.843 249.286C457.185 250.759 463.079 250.943 468.789 249.286C468.789 235.846 468.789 224.247 468.789 224.247C468.789 216.33 465.474 209.15 460.316 203.81C455.158 209.15 451.843 216.33 451.843 224.247Z" fill="white"/>
<path d="M451.843 224.247C451.843 224.247 451.843 225.351 451.843 227.193C457.185 228.665 463.079 228.85 468.789 227.193C468.789 225.351 468.789 224.247 468.789 224.247C468.789 216.33 465.474 209.15 460.316 203.81C455.158 209.15 451.843 216.33 451.843 224.247Z" fill="url(#paint12_linear_170_2272)"/>
<path opacity="0.4" d="M451.843 224.247C451.843 224.247 451.843 225.351 451.843 227.193C457.185 228.665 463.079 228.85 468.789 227.193C468.789 225.351 468.789 224.247 468.789 224.247C468.789 216.33 465.474 209.15 460.316 203.81C455.158 209.15 451.843 216.33 451.843 224.247Z" fill="white"/>
<path d="M443.186 306.728L439.686 291.999H426.792L423.292 306.728C429.371 309.306 436.554 309.49 443.186 306.728Z" fill="#343B43"/>
<path opacity="0.2" d="M426.792 291.999C426.792 291.999 426.239 294.209 425.871 295.498C430.476 296.786 435.634 296.97 440.423 295.498L439.502 291.999H426.792Z" fill="white"/>
<path opacity="0.4" d="M424.95 299.18C424.765 300.1 424.581 301.021 424.213 301.941C429.923 303.598 436.002 303.783 441.896 301.941L441.159 299.18C435.817 300.284 430.291 300.284 424.95 299.18Z" fill="white"/>
<path d="M446.87 291.079C437.844 294.761 428.081 294.577 419.608 291.079V181.901C419.608 169.014 424.766 157.415 433.239 148.945C441.712 157.415 446.87 169.014 446.87 181.901V291.079Z" fill="url(#paint13_linear_170_2272)"/>
<path d="M419.608 181.901C419.608 181.901 419.608 273.588 419.608 284.635C428.265 287.581 437.66 287.765 446.87 284.635C446.87 273.588 446.87 181.901 446.87 181.901C446.87 169.014 441.712 157.415 433.239 148.945C424.766 157.415 419.608 169.198 419.608 181.901Z" fill="url(#paint14_linear_170_2272)"/>
<path opacity="0.4" d="M419.608 181.901C419.608 181.901 419.608 273.588 419.608 284.635C428.265 287.581 437.66 287.765 446.87 284.635C446.87 273.588 446.87 181.901 446.87 181.901C446.87 169.014 441.712 157.415 433.239 148.945C424.766 157.415 419.608 169.198 419.608 181.901Z" fill="white"/>
<path d="M419.608 181.901C419.608 181.901 419.608 228.297 419.608 259.044C428.265 261.437 437.66 261.621 446.87 259.044C446.87 228.297 446.87 181.901 446.87 181.901C446.87 169.014 441.712 157.415 433.239 148.945C424.766 157.415 419.608 169.198 419.608 181.901Z" fill="url(#paint15_linear_170_2272)"/>
<path opacity="0.6" d="M419.608 181.901C419.608 181.901 419.608 228.297 419.608 259.044C428.265 261.437 437.66 261.621 446.87 259.044C446.87 228.297 446.87 181.901 446.87 181.901C446.87 169.014 441.712 157.415 433.239 148.945C424.766 157.415 419.608 169.198 419.608 181.901Z" fill="white"/>
<path d="M419.608 181.901C419.608 181.901 419.608 200.681 419.608 222.406C428.265 224.799 437.66 224.983 446.87 222.406C446.87 200.865 446.87 181.901 446.87 181.901C446.87 169.014 441.712 157.415 433.239 148.945C424.766 157.415 419.608 169.198 419.608 181.901Z" fill="url(#paint16_linear_170_2272)"/>
<path opacity="0.8" d="M419.608 181.901C419.608 181.901 419.608 200.681 419.608 222.406C428.265 224.799 437.66 224.983 446.87 222.406C446.87 200.865 446.87 181.901 446.87 181.901C446.87 169.014 441.712 157.415 433.239 148.945C424.766 157.415 419.608 169.198 419.608 181.901Z" fill="white"/>
<path d="M419.608 181.901C419.608 181.901 419.608 183.558 419.608 186.688C428.265 189.082 437.66 189.266 446.87 186.688C446.87 183.742 446.87 181.901 446.87 181.901C446.87 169.014 441.712 157.415 433.239 148.945C424.766 157.415 419.608 169.198 419.608 181.901Z" fill="url(#paint17_linear_170_2272)"/>
<path opacity="0.1" d="M419.608 181.901C419.608 181.901 419.608 183.558 419.608 186.688C428.265 189.082 437.66 189.266 446.87 186.688C446.87 183.742 446.87 181.901 446.87 181.901C446.87 169.014 441.712 157.415 433.239 148.945C424.766 157.415 419.608 169.198 419.608 181.901Z" fill="white"/>
<path d="M433.238 211.727C437.613 211.727 441.159 208.183 441.159 203.81C441.159 199.438 437.613 195.894 433.238 195.894C428.864 195.894 425.318 199.438 425.318 203.81C425.318 208.183 428.864 211.727 433.238 211.727Z" fill="url(#paint18_linear_170_2272)"/>
<path d="M433.238 211.727C429.002 211.727 425.686 208.413 425.318 204.363C425.318 204.547 425.318 204.731 425.318 204.915C425.318 209.334 428.818 212.832 433.238 212.832C437.659 212.832 441.159 209.334 441.159 204.915C441.159 204.731 441.159 204.547 441.159 204.363C440.791 208.413 437.291 211.727 433.238 211.727Z" fill="url(#paint19_linear_170_2272)"/>
<path opacity="0.3" d="M433.238 211.727C429.002 211.727 425.686 208.413 425.318 204.363C425.318 204.547 425.318 204.731 425.318 204.915C425.318 209.334 428.818 212.832 433.238 212.832C437.659 212.832 441.159 209.334 441.159 204.915C441.159 204.731 441.159 204.547 441.159 204.363C440.791 208.413 437.291 211.727 433.238 211.727Z" fill="#343B43"/>
<path d="M433.238 209.334C436.29 209.334 438.764 206.861 438.764 203.81C438.764 200.76 436.29 198.287 433.238 198.287C430.186 198.287 427.712 200.76 427.712 203.81C427.712 206.861 430.186 209.334 433.238 209.334Z" fill="white"/>
<path d="M432.87 209.334L435.08 198.471C434.528 198.287 433.791 198.103 433.238 198.103L431.028 208.966C431.58 209.15 432.133 209.334 432.87 209.334Z" fill="url(#paint20_linear_170_2272)"/>
<path d="M434.896 209.15L436.922 199.76C436.738 199.576 436.37 199.392 436.001 199.208L433.791 209.518C434.344 209.334 434.712 209.15 434.896 209.15Z" fill="url(#paint21_linear_170_2272)"/>
<g opacity="0.7">
<path opacity="0.7" d="M432.87 209.334L435.08 198.471C434.528 198.287 433.791 198.103 433.238 198.103L431.028 208.966C431.58 209.15 432.133 209.334 432.87 209.334Z" fill="white"/>
<path opacity="0.7" d="M434.896 209.15L436.922 199.76C436.738 199.576 436.37 199.392 436.001 199.208L433.791 209.518C434.344 209.334 434.712 209.15 434.896 209.15Z" fill="white"/>
</g>
<path d="M636.595 416.642L634.385 417.011C632.543 417.379 631.069 419.036 630.701 420.877L630.517 422.35C630.333 423.823 630.885 425.296 631.99 426.4C635.49 429.53 643.595 435.053 653.542 431.371L661.463 425.48L660.173 414.801L643.595 412.408C642.674 412.408 641.569 412.776 640.832 413.512L636.595 416.642Z" fill="#FAB27B"/>
<path d="M661.647 425.664L683.751 424.559L680.251 412.592L660.357 414.985L661.647 425.664Z" fill="#FAB27B"/>
<path d="M674.909 412.592C674.172 414.065 673.62 415.906 673.988 418.115C674.357 420.14 675.278 424.007 677.488 426.4C673.804 426.4 670.12 427.321 666.804 428.978H666.62C655.2 421.061 661.831 411.855 661.831 411.855L662.568 412.04C666.62 412.776 670.673 412.96 674.909 412.592Z" fill="url(#paint22_linear_170_2272)"/>
<path d="M720.038 422.534C699.592 427.321 674.173 426.768 674.173 426.768C673.252 425.296 673.067 423.639 673.067 422.166C673.252 418.668 673.804 414.433 674.909 412.776C676.199 410.935 685.04 410.198 685.04 410.198C685.04 410.198 702.171 402.282 705.302 399.704C708.434 397.127 708.434 384.975 707.881 377.059C704.566 334.161 712.118 331.031 718.933 329.006C733.117 324.771 738.09 418.299 720.038 422.534Z" fill="url(#paint23_linear_170_2272)"/>
<path d="M579.678 431.739H636.964C638.806 431.739 639.727 430.267 638.806 428.425L624.439 396.206C623.702 394.365 621.492 392.892 619.65 392.892H562.363C560.521 392.892 559.6 394.365 560.521 396.206L574.889 428.425C575.626 430.267 577.836 431.739 579.678 431.739Z" fill="url(#paint24_linear_170_2272)"/>
<path opacity="0.2" d="M579.678 431.739H636.964C638.806 431.739 639.727 430.267 638.806 428.425L624.439 396.206C623.702 394.365 621.492 392.892 619.65 392.892H562.363C560.521 392.892 559.6 394.365 560.521 396.206L574.889 428.425C575.626 430.267 577.836 431.739 579.678 431.739Z" fill="#343B43"/>
<path d="M559.784 392.708H562.179C560.337 392.708 559.416 394.181 560.337 396.022L574.705 428.241C575.441 430.082 577.652 431.555 579.494 431.555H577.099C575.257 431.555 573.047 430.082 572.31 428.241L557.942 396.022C557.021 394.181 557.942 392.708 559.784 392.708Z" fill="url(#paint25_linear_170_2272)"/>
<path opacity="0.4" d="M559.784 392.708H562.179C560.337 392.708 559.416 394.181 560.337 396.022L574.705 428.241C575.441 430.082 577.652 431.555 579.494 431.555H577.099C575.257 431.555 573.047 430.082 572.31 428.241L557.942 396.022C557.021 394.181 557.942 392.708 559.784 392.708Z" fill="#343B43"/>
<path d="M580.783 428.057H632.544L618.545 396.39H566.6L580.783 428.057Z" fill="#343B43"/>
<path opacity="0.8" d="M580.783 428.057H632.544L618.545 396.39H566.6L580.783 428.057Z" fill="white"/>
<path d="M751.167 429.162C751.167 429.162 752.641 448.125 752.825 454.753C754.115 498.94 718.011 502.438 691.487 497.467L595.15 470.587C591.282 483.475 546.705 553.805 546.705 553.805L523.312 540.365C523.312 540.365 547.626 482.186 563.283 441.681C572.309 418.483 645.068 434.501 671.777 439.288C679.882 441.497 678.408 428.794 678.408 428.794L751.167 429.162Z" fill="#343B43"/>
<path d="M540.812 552.516L531.786 567.429L515.208 559.144L523.865 542.206L540.812 552.516Z" fill="#FAB27B"/>
<path d="M506.366 556.014C504.155 555.094 502.129 553.621 501.761 552.332C501.577 551.596 501.945 550.859 502.682 550.491C503.234 550.123 503.787 549.939 504.524 550.123C507.839 550.675 512.444 556.935 512.629 557.303C512.813 557.487 512.813 557.671 512.629 557.855C512.444 558.039 512.26 558.039 512.076 558.039C510.05 557.487 508.208 556.935 506.366 556.014ZM505.076 551.227C504.892 551.043 504.524 551.043 504.155 551.043C503.787 550.859 503.419 551.043 503.05 551.227C502.498 551.596 502.498 551.964 502.498 552.148C502.866 553.621 507.287 555.83 510.787 556.751C509.313 554.725 507.287 552.7 505.076 551.227Z" fill="url(#paint26_linear_170_2272)"/>
<path d="M511.892 558.039C511.892 558.039 511.708 557.855 511.892 558.039C510.05 556.014 507.471 550.307 508.761 548.466C508.945 547.913 509.682 547.545 510.787 547.913C511.708 548.282 512.445 548.834 512.813 549.754C514.287 552.7 512.445 557.671 512.445 557.855C512.445 558.039 512.261 558.039 512.076 558.224C512.076 558.039 511.892 558.039 511.892 558.039ZM510.787 548.834L510.603 548.65C509.866 548.282 509.682 548.65 509.498 548.834C508.761 549.939 510.234 554.173 511.892 556.566C512.629 554.541 512.629 552.148 512.076 550.123C511.708 549.57 511.34 549.018 510.787 548.834Z" fill="url(#paint27_linear_170_2272)"/>
<path d="M514.839 556.382L534.18 565.22C534.917 565.588 535.285 566.324 535.101 567.061L531.417 584.367C531.049 585.84 529.575 586.945 528.102 586.576C527.917 586.576 527.733 586.392 527.549 586.392C520.549 583.078 514.655 579.948 505.998 575.898C495.682 571.295 497.709 573.689 485.736 568.35C478.368 565.22 480.946 556.198 484.078 557.303C498.998 561.906 502.314 558.408 510.05 555.83C511.708 555.462 513.366 555.646 514.839 556.382Z" fill="#343B43"/>
<path opacity="0.2" d="M536.206 560.065L540.811 552.516L523.865 542.206L519.628 550.307L536.206 560.065Z" fill="#343B43"/>
<path d="M550.39 552.332L521.286 534.289C521.286 534.289 516.681 536.867 517.602 541.838L545.417 559.696C545.601 559.696 549.469 559.512 550.39 552.332Z" fill="url(#paint28_linear_170_2272)"/>
<path d="M590.177 626.528L586.677 643.099L568.81 640.705L571.388 622.478L590.177 626.528Z" fill="#FAB27B"/>
<path d="M559.6 640.705C557.205 640.521 554.811 639.784 554.258 638.68C553.89 638.127 554.074 637.207 554.442 636.655C554.811 636.102 555.363 635.918 555.916 635.734C559.231 635.182 565.31 639.6 565.678 639.784C565.863 639.969 565.863 640.153 565.863 640.337C565.863 640.521 565.678 640.705 565.494 640.705C563.468 640.889 561.626 640.889 559.6 640.705ZM557.021 636.839C556.653 636.839 556.468 636.839 556.1 636.839C555.732 636.839 555.363 637.023 555.179 637.391C554.811 637.943 554.811 638.127 554.995 638.312C555.732 639.6 560.521 640.153 564.021 639.969C561.994 638.496 559.6 637.391 557.021 636.839Z" fill="url(#paint29_linear_170_2272)"/>
<path d="M565.31 640.705H565.126C562.915 639.416 558.863 634.998 559.415 632.972C559.6 632.42 559.968 631.868 561.257 631.868C562.178 631.868 563.099 632.236 563.652 632.788C565.862 634.998 565.862 640.153 565.862 640.337C565.862 640.521 565.678 640.705 565.678 640.705C565.494 640.889 565.494 640.889 565.31 640.705ZM561.442 632.604H561.257C560.521 632.604 560.336 632.972 560.336 632.972C560.152 634.261 562.731 637.759 564.941 639.416C564.941 637.207 564.205 635.182 563.099 633.341C562.547 632.972 561.994 632.788 561.442 632.604Z" fill="url(#paint30_linear_170_2272)"/>
<path d="M567.52 638.312L588.151 640.337C588.887 640.337 589.624 641.073 589.624 641.81L591.651 658.932C591.835 660.405 590.729 661.878 589.256 662.062C589.072 662.062 588.888 662.062 588.703 662.062C581.335 661.141 574.704 660.221 565.494 659.3C554.626 658.196 557.205 659.852 544.495 658.748C536.759 658.011 536.206 649.174 539.522 649.174C554.626 648.806 556.652 644.387 562.915 639.6C564.389 638.496 566.047 638.127 567.52 638.312Z" fill="#343B43"/>
<path opacity="0.2" d="M569.915 632.052L588.703 633.525L590.177 626.528L571.388 622.478L569.915 632.052Z" fill="#343B43"/>
<path d="M595.518 620.085L594.966 622.11L567.52 619.901L567.704 617.875L595.518 620.085Z" fill="#343B43"/>
<path d="M596.624 628.738L589.809 628.186L570.652 626.528L564.573 625.976C561.442 622.11 564.389 617.875 564.389 617.875L567.889 618.059L595.703 620.269L597.73 620.453C599.756 626.897 596.624 628.738 596.624 628.738Z" fill="url(#paint31_linear_170_2272)"/>
<path d="M708.249 513.853C683.382 516.062 625.912 516.983 618.175 515.878L595.519 620.085L567.705 617.875C567.705 617.875 570.652 527.845 582.809 490.471C592.572 460.461 750.063 466.72 750.063 466.72L750.615 475.19C751.72 504.279 736.8 511.459 708.249 513.853Z" fill="#343B43"/>
<path opacity="0.1" d="M708.249 513.853C683.382 516.062 625.912 516.983 618.175 515.878L595.519 620.085L567.705 617.875C567.705 617.875 570.652 527.845 582.809 490.471C592.572 460.461 750.063 466.72 750.063 466.72L750.615 475.19C751.72 504.279 736.8 511.459 708.249 513.853Z" fill="#343B43"/>
<path d="M584.282 487.893L584.098 489.918C584.098 489.918 584.098 489.182 584.282 487.893Z" fill="#343B43"/>
<path d="M672.514 325.139L680.066 336.37L697.196 321.641L686.513 308.569L672.514 325.139Z" fill="#FAB27B"/>
<path opacity="0.2" d="M676.198 330.479C679.513 325.692 678.04 317.959 678.04 317.959L675.093 321.825L672.514 325.139L676.198 330.479Z" fill="#343B43"/>
<path d="M643.042 300.653C643.41 301.757 644.331 302.494 645.068 302.126C645.805 301.941 646.173 300.653 645.805 299.732C645.437 298.627 644.516 297.891 643.779 298.259C643.042 298.443 642.674 299.548 643.042 300.653Z" fill="#343B43"/>
<path d="M647.095 301.021L644.7 311.515C644.7 311.515 648.2 312.436 651.7 309.674L647.095 301.021Z" fill="#ED893E"/>
<path d="M641.937 293.104C642.121 292.92 642.305 292.92 642.489 293.104C643.963 293.656 645.437 293.656 646.726 292.736C646.91 292.552 647.279 292.552 647.647 292.92C647.831 293.104 647.831 293.656 647.463 293.841C645.805 294.945 643.779 295.129 641.937 294.393C641.568 294.209 641.384 293.841 641.568 293.656C641.753 293.288 641.937 293.104 641.937 293.104Z" fill="#343B43"/>
<path d="M683.934 281.689C689.46 295.866 692.223 301.757 688.355 312.252C680.803 324.771 663.672 332.32 653.91 319.984C645.068 308.938 637.516 287.581 648.568 275.43C656.489 266.776 669.935 265.856 678.408 273.588C680.803 275.982 682.645 278.744 683.934 281.689Z" fill="#FAB27B"/>
<path d="M697.381 285.924C696.46 290.711 696.092 295.498 695.908 300.284C695.723 303.23 695.171 306.176 693.881 308.754C691.487 314.093 686.698 318.143 681.172 320.537C681.172 320.537 681.356 321.641 681.172 320.537C681.172 320.537 661.094 320.353 652.62 295.129C648.015 295.498 643.042 293.472 640.095 289.974C637.148 286.292 636.042 281.137 637.516 276.718C639.174 271.379 645.989 268.065 651.515 267.881C655.015 262.91 661.278 260.517 667.356 260.701C673.435 260.885 679.145 263.462 684.487 266.408C688.908 268.986 693.329 272.116 695.908 276.718C697.381 279.296 697.934 282.794 697.381 285.924Z" fill="#343B43"/>
<path d="M656.857 298.443C655.568 301.389 655.568 304.703 656.673 307.465C658.147 311.331 662.383 310.595 664.778 307.465C666.988 304.519 668.646 298.996 665.699 296.234C662.752 293.472 658.515 294.945 656.857 298.443Z" fill="#FAB27B"/>
<path d="M697.381 313.356C691.855 313.54 683.75 317.407 672.882 324.771C671.593 325.692 671.225 327.349 671.409 328.822C671.593 330.295 673.067 331.767 674.356 331.215C675.093 333.056 675.645 335.081 676.382 336.922C679.514 334.897 683.566 333.977 686.882 332.504C692.408 330.295 698.118 328.638 703.644 326.981C702.17 324.587 700.144 322.378 699.407 319.616C700.697 319.248 701.433 317.407 701.065 316.118C701.065 314.829 698.855 313.356 697.381 313.356Z" fill="url(#paint32_linear_170_2272)"/>
<path d="M697.381 313.356C691.855 313.54 683.75 317.407 672.882 324.771C671.593 325.692 671.225 327.349 671.409 328.822C671.593 330.295 673.067 331.767 674.356 331.215C675.093 333.056 675.645 335.081 676.382 336.922C679.514 334.897 683.566 333.977 686.882 332.504C692.408 330.295 698.118 328.638 703.644 326.981C702.17 324.587 700.144 322.378 699.407 319.616C700.697 319.248 701.433 317.407 701.065 316.118C701.065 314.829 698.855 313.356 697.381 313.356Z" fill="url(#paint33_linear_170_2272)"/>
<path d="M681.171 454.385C681.171 454.385 662.936 411.855 651.331 368.59C642.858 336.738 667.172 336.186 696.644 328.269C720.038 322.01 729.984 327.533 736.615 339.5C743.247 351.283 754.115 451.439 754.115 451.439L681.171 454.385Z" fill="url(#paint34_linear_170_2272)"/>
<path d="M681.171 454.385C681.171 454.385 662.936 411.855 651.331 368.59C642.858 336.738 667.172 336.186 696.644 328.269C720.038 322.01 729.984 327.533 736.615 339.5C743.247 351.283 754.115 451.439 754.115 451.439L681.171 454.385Z" fill="url(#paint35_linear_170_2272)"/>
<path opacity="0.3" d="M681.171 454.385C681.171 454.385 662.936 411.855 651.331 368.59C642.858 336.738 667.172 336.186 696.644 328.269C720.038 322.01 729.984 327.533 736.615 339.5C743.247 351.283 754.115 451.439 754.115 451.439L681.171 454.385Z" fill="#343B43"/>
<path d="M574.704 408.542H572.678C570.836 408.542 569.178 409.83 568.625 411.671L568.257 412.96C567.889 414.433 568.073 415.906 568.994 417.011C571.757 420.509 578.572 427.137 588.519 425.296L596.992 421.061L597.545 410.751L582.44 405.78C581.519 405.596 580.598 405.78 579.677 406.332L574.704 408.542Z" fill="#FAB27B"/>
<path d="M596.992 421.061L617.807 423.639L616.701 411.856L597.545 410.751L596.992 421.061Z" fill="#FAB27B"/>
<path d="M611.544 411.119C610.623 412.408 609.702 414.065 609.702 416.274C609.702 418.299 609.886 421.982 611.728 424.743C608.228 424.191 604.544 424.375 601.229 425.48H601.044C591.466 416.09 599.387 408.542 599.387 408.542L600.123 408.726C603.623 409.83 607.491 410.567 611.544 411.119Z" fill="url(#paint36_linear_170_2272)"/>
<path d="M652.252 427.873C632.175 428.978 608.229 424.191 608.229 424.191C607.676 422.534 607.676 421.061 608.044 419.588C608.781 416.458 609.886 412.408 611.36 410.935C613.018 409.462 621.307 410.199 621.307 410.199C621.307 410.199 638.806 405.596 642.121 403.755C645.621 401.914 647.463 390.499 648.2 382.766C652.252 341.893 659.989 340.052 666.62 339.5C680.803 338.027 670.12 426.953 652.252 427.873Z" fill="url(#paint37_linear_170_2272)"/>
<path d="M591.651 658.932L610.439 543.31C612.465 531.159 622.965 522.138 635.306 522.138H681.356C694.066 522.138 704.934 531.712 706.407 544.415L720.222 660.589" stroke="#343B43" stroke-width="2" stroke-miterlimit="10"/>
<path d="M655.937 658.932L674.725 543.31C676.752 531.159 687.251 522.138 699.592 522.138H745.642C758.352 522.138 769.22 531.712 770.693 544.415L784.508 660.589" stroke="#343B43" stroke-width="2" stroke-miterlimit="10"/>
<path d="M596.625 628.738H659.989" stroke="#343B43" stroke-width="2" stroke-miterlimit="10"/>
<path d="M706.407 544.231H771.798" stroke="#343B43" stroke-width="2" stroke-miterlimit="10"/>
<path d="M718.38 524.715H766.456C785.061 524.715 800.533 510.539 802.007 491.944L808.822 405.596C809.928 391.603 798.876 379.636 784.876 379.636H758.352C727.406 379.636 699.96 400.072 691.119 429.714L672.699 491.391C669.567 501.702 660.173 508.882 649.305 508.882H615.597C606.755 508.882 599.571 516.062 599.571 524.899H690.013H718.38V524.715Z" fill="url(#paint38_linear_170_2272)"/>
<path opacity="0.7" d="M718.38 524.715H766.456C785.061 524.715 800.533 510.539 802.007 491.944L808.822 405.596C809.928 391.603 798.876 379.636 784.876 379.636H758.352C727.406 379.636 699.96 400.072 691.119 429.714L672.699 491.391C669.567 501.702 660.173 508.882 649.305 508.882H615.597C606.755 508.882 599.571 516.062 599.571 524.899H690.013H718.38V524.715Z" fill="white"/>
<path d="M583.914 203.074C577.651 208.781 573.046 216.33 570.652 224.431H567.336C568.441 215.041 572.125 206.388 577.467 198.839L583.914 203.074Z" fill="url(#paint39_linear_170_2272)"/>
<path opacity="0.6" d="M583.914 203.074C577.651 208.781 573.046 216.33 570.652 224.431H567.336C568.441 215.041 572.125 206.388 577.467 198.839L583.914 203.074Z" fill="white"/>
<path d="M603.44 192.027C596.072 194.053 589.44 197.919 583.914 203.074L577.283 198.839C582.625 191.291 589.809 185.031 598.098 180.797L603.44 192.027Z" fill="url(#paint40_linear_170_2272)"/>
<path opacity="0.5" d="M603.44 192.027C596.072 194.053 589.44 197.919 583.914 203.074L577.283 198.839C582.625 191.291 589.809 185.031 598.098 180.797L603.44 192.027Z" fill="white"/>
<path d="M624.069 174.537L622.412 190.923C620.201 190.555 617.807 190.37 615.228 190.37C611.175 190.37 607.123 190.923 603.255 192.027L597.913 180.797C605.649 176.746 614.123 174.537 623.148 174.537C623.517 174.537 623.885 174.537 624.069 174.537Z" fill="url(#paint41_linear_170_2272)"/>
<path opacity="0.4" d="M624.069 174.537L622.412 190.923C620.201 190.555 617.807 190.37 615.228 190.37C611.175 190.37 607.123 190.923 603.255 192.027L597.913 180.797C605.649 176.746 614.123 174.537 623.148 174.537C623.517 174.537 623.885 174.537 624.069 174.537Z" fill="white"/>
<path d="M648.752 181.533L638.068 197.183C633.648 194.053 628.306 191.843 622.596 190.923L624.253 174.537C633.279 174.721 641.753 177.299 648.752 181.533Z" fill="url(#paint42_linear_170_2272)"/>
<path opacity="0.3" d="M648.752 181.533L638.068 197.183C633.648 194.053 628.306 191.843 622.596 190.923L624.253 174.537C633.279 174.721 641.753 177.299 648.752 181.533Z" fill="white"/>
<path d="M665.883 200.128L649.121 209.15C646.358 204.547 642.674 200.496 638.069 197.367L648.752 181.717C656.12 186.136 662.015 192.58 665.883 200.128Z" fill="url(#paint43_linear_170_2272)"/>
<path opacity="0.2" d="M665.883 200.128L649.121 209.15C646.358 204.547 642.674 200.496 638.069 197.367L648.752 181.717C656.12 186.136 662.015 192.58 665.883 200.128Z" fill="white"/>
<path d="M670.672 225.72L654.278 225.535C653.726 219.46 651.884 213.937 648.937 209.15L665.699 200.128C669.567 207.677 671.409 216.33 670.672 225.72Z" fill="url(#paint44_linear_170_2272)"/>
<path opacity="0.1" d="M670.672 225.72L654.278 225.535C653.726 219.46 651.884 213.937 648.937 209.15L665.699 200.128C669.567 207.677 671.409 216.33 670.672 225.72Z" fill="white"/>
<path d="M670.672 226.272V226.456C670.304 231.059 668.462 238.792 666.251 243.21L652.989 240.264L654.094 235.109C654.278 234.373 654.278 233.821 654.278 233.084V232.716C654.462 230.322 654.462 227.929 654.278 225.536L670.672 225.72C670.672 225.904 670.672 225.904 670.672 226.088C670.672 226.088 670.672 226.088 670.672 226.272Z" fill="url(#paint45_linear_170_2272)"/>
<path d="M569.178 242.105L568.257 242.29C567.888 241.001 567.704 239.712 567.52 238.423C566.967 234.557 566.783 230.507 567.152 226.272V226.088V225.904C567.152 225.351 567.336 224.799 567.336 224.431H570.651C569.915 227.008 569.362 229.77 568.994 232.532V232.716V232.9C568.809 234.557 568.809 236.214 568.809 237.871C568.809 239.344 568.994 240.817 569.178 242.105Z" fill="url(#paint46_linear_170_2272)"/>
<path opacity="0.7" d="M569.178 242.105L568.257 242.29C567.888 241.001 567.704 239.712 567.52 238.423C566.967 234.557 566.783 230.507 567.152 226.272V226.088V225.904C567.152 225.351 567.336 224.799 567.336 224.431H570.651C569.915 227.008 569.362 229.77 568.994 232.532V232.716V232.9C568.809 234.557 568.809 236.214 568.809 237.871C568.809 239.344 568.994 240.817 569.178 242.105Z" fill="white"/>
<path d="M669.567 239.528L668.093 243.026L665.33 242.474L638.805 236.582L627.385 234.005C628.122 232.9 628.858 231.795 629.411 230.691C629.964 229.218 630.332 227.745 630.516 226.272L655.752 234.925L669.567 239.528Z" fill="#343B43"/>
<path d="M630.516 226.088C630.332 228.849 629.227 231.427 627.569 233.82L617.254 231.427L620.57 222.59L630.516 226.088Z" fill="#343B43"/>
<path d="M630.516 226.088C630.332 228.85 629.227 231.427 627.569 233.82C626.28 235.477 624.806 236.766 622.964 237.687C616.333 241.185 608.596 238.976 605.649 232.716C602.702 226.456 605.649 218.539 612.096 215.041C618.727 211.543 626.464 213.752 629.411 220.012C630.332 221.853 630.7 224.063 630.516 226.088Z" fill="url(#paint47_linear_170_2272)"/>
<path d="M210.909 218.171H221.409V227.008H209.804L208.146 239.896H198.936L200.594 227.008H188.621L186.963 239.896H177.937L179.595 227.008H168.912V218.171H180.516L182.174 205.099H171.49V196.262H183.095L184.753 183.374H193.779L192.121 196.262H204.094L205.752 183.374H214.777L213.12 196.262H223.619V205.099H212.014L210.909 218.171ZM201.699 218.171L203.357 205.099H191.568L189.91 218.171H201.699Z" fill="url(#paint48_linear_170_2272)"/>
<path d="M250.881 183.374V240.08H237.803V193.868H226.382V183.374H250.881Z" fill="url(#paint49_linear_170_2272)"/>
<path d="M201.514 419.22H110.704V481.633H201.514V419.22Z" fill="#343B43"/>
<path d="M201.514 419.22H110.704V424.927H201.514V419.22Z" fill="url(#paint50_linear_170_2272)"/>
<path d="M127.465 453.833L142.386 462.118C143.122 462.486 143.675 462.854 143.859 463.222C144.043 463.591 144.228 463.959 144.228 464.511C144.228 465.063 144.043 465.616 143.491 466.168C142.938 466.72 142.57 466.905 141.833 466.905C141.465 466.905 140.912 466.72 139.991 466.168L120.834 455.49C119.545 454.753 119.545 452.912 120.834 452.176L139.991 441.497C140.728 441.129 141.465 440.761 141.833 440.761C142.386 440.761 142.938 440.945 143.491 441.497C144.043 442.05 144.228 442.602 144.228 443.154C144.228 443.707 144.043 444.075 143.859 444.443C143.675 444.811 143.122 445.18 142.386 445.548L127.465 453.833Z" fill="white"/>
<path d="M165.595 438.552L150.859 470.219C150.49 470.955 150.122 471.507 149.938 471.691C149.569 472.06 149.017 472.244 148.464 472.244C147.911 472.244 147.359 472.06 146.806 471.507C146.438 471.139 146.069 470.587 146.069 470.034C146.069 469.666 146.254 469.114 146.622 468.193L161.358 436.526C161.726 435.79 162.095 435.238 162.279 435.053C162.647 434.685 163.2 434.501 163.753 434.501C164.305 434.501 164.858 434.685 165.41 435.238C165.779 435.606 166.147 436.158 166.147 436.71C166.147 437.079 165.963 437.815 165.595 438.552Z" fill="white"/>
<path d="M184.199 453.833L169.279 445.548C168.542 445.18 167.99 444.811 167.805 444.443C167.621 444.075 167.437 443.707 167.437 443.154C167.437 442.602 167.621 442.05 168.174 441.497C168.726 440.945 169.095 440.761 169.832 440.761C170.2 440.761 170.753 440.945 171.674 441.497L190.83 452.176C192.12 452.912 192.12 454.753 190.83 455.49L171.674 466.168C170.937 466.536 170.2 466.905 169.832 466.905C169.279 466.905 168.726 466.72 168.174 466.168C167.805 465.8 167.437 465.063 167.437 464.511C167.437 463.959 167.621 463.591 167.805 463.222C167.99 462.854 168.542 462.486 169.279 462.118L184.199 453.833Z" fill="white"/>
<defs>
<linearGradient id="paint0_linear_170_2272" x1="230.619" y1="551.97" x2="244.642" y2="466.197" gradientUnits="userSpaceOnUse">
<stop stop-color="#234DAE"/>
<stop offset="1" stop-color="#347BCE"/>
</linearGradient>
<linearGradient id="paint1_linear_170_2272" x1="236.881" y1="462.323" x2="480.963" y2="202.084" gradientUnits="userSpaceOnUse">
<stop stop-color="#234DAE"/>
<stop offset="1" stop-color="#347BCE"/>
</linearGradient>
<linearGradient id="paint2_linear_170_2272" x1="386.45" y1="272.042" x2="470.819" y2="210.26" gradientUnits="userSpaceOnUse">
<stop stop-color="#234DAE"/>
<stop offset="1" stop-color="#347BCE"/>
</linearGradient>
<linearGradient id="paint3_linear_170_2272" x1="397.504" y1="275.138" x2="420.292" y2="272.325" gradientUnits="userSpaceOnUse">
<stop stop-color="#234DAE"/>
<stop offset="1" stop-color="#347BCE"/>
</linearGradient>
<linearGradient id="paint4_linear_170_2272" x1="397.504" y1="271.845" x2="420.258" y2="268.901" gradientUnits="userSpaceOnUse">
<stop stop-color="#234DAE"/>
<stop offset="1" stop-color="#347BCE"/>
</linearGradient>
<linearGradient id="paint5_linear_170_2272" x1="397.504" y1="259.04" x2="420.066" y2="255.443" gradientUnits="userSpaceOnUse">
<stop stop-color="#234DAE"/>
<stop offset="1" stop-color="#347BCE"/>
</linearGradient>
<linearGradient id="paint6_linear_170_2272" x1="397.504" y1="240.893" x2="419.405" y2="235.693" gradientUnits="userSpaceOnUse">
<stop stop-color="#234DAE"/>
<stop offset="1" stop-color="#347BCE"/>
</linearGradient>
<linearGradient id="paint7_linear_170_2272" x1="397.504" y1="223.331" x2="416.728" y2="214.66" gradientUnits="userSpaceOnUse">
<stop stop-color="#234DAE"/>
<stop offset="1" stop-color="#347BCE"/>
</linearGradient>
<linearGradient id="paint8_linear_170_2272" x1="451.843" y1="275.138" x2="474.631" y2="272.325" gradientUnits="userSpaceOnUse">
<stop stop-color="#234DAE"/>
<stop offset="1" stop-color="#347BCE"/>
</linearGradient>
<linearGradient id="paint9_linear_170_2272" x1="451.843" y1="271.845" x2="474.597" y2="268.901" gradientUnits="userSpaceOnUse">
<stop stop-color="#234DAE"/>
<stop offset="1" stop-color="#347BCE"/>
</linearGradient>
<linearGradient id="paint10_linear_170_2272" x1="451.843" y1="259.04" x2="474.405" y2="255.443" gradientUnits="userSpaceOnUse">
<stop stop-color="#234DAE"/>
<stop offset="1" stop-color="#347BCE"/>
</linearGradient>
<linearGradient id="paint11_linear_170_2272" x1="451.843" y1="240.893" x2="473.743" y2="235.693" gradientUnits="userSpaceOnUse">
<stop stop-color="#234DAE"/>
<stop offset="1" stop-color="#347BCE"/>
</linearGradient>
<linearGradient id="paint12_linear_170_2272" x1="451.843" y1="223.331" x2="471.067" y2="214.66" gradientUnits="userSpaceOnUse">
<stop stop-color="#234DAE"/>
<stop offset="1" stop-color="#347BCE"/>
</linearGradient>
<linearGradient id="paint13_linear_170_2272" x1="419.608" y1="264.068" x2="456.271" y2="259.558" gradientUnits="userSpaceOnUse">
<stop stop-color="#234DAE"/>
<stop offset="1" stop-color="#347BCE"/>
</linearGradient>
<linearGradient id="paint14_linear_170_2272" x1="419.608" y1="258.617" x2="456.215" y2="253.889" gradientUnits="userSpaceOnUse">
<stop stop-color="#234DAE"/>
<stop offset="1" stop-color="#347BCE"/>
</linearGradient>
<linearGradient id="paint15_linear_170_2272" x1="419.608" y1="237.945" x2="455.906" y2="232.168" gradientUnits="userSpaceOnUse">
<stop stop-color="#234DAE"/>
<stop offset="1" stop-color="#347BCE"/>
</linearGradient>
<linearGradient id="paint16_linear_170_2272" x1="419.608" y1="208.821" x2="454.853" y2="200.484" gradientUnits="userSpaceOnUse">
<stop stop-color="#234DAE"/>
<stop offset="1" stop-color="#347BCE"/>
</linearGradient>
<linearGradient id="paint17_linear_170_2272" x1="419.608" y1="180.429" x2="450.561" y2="166.505" gradientUnits="userSpaceOnUse">
<stop stop-color="#234DAE"/>
<stop offset="1" stop-color="#347BCE"/>
</linearGradient>
<linearGradient id="paint18_linear_170_2272" x1="425.318" y1="208.48" x2="440.467" y2="198.574" gradientUnits="userSpaceOnUse">
<stop stop-color="#234DAE"/>
<stop offset="1" stop-color="#347BCE"/>
</linearGradient>
<linearGradient id="paint19_linear_170_2272" x1="425.318" y1="211.095" x2="433.987" y2="200.496" gradientUnits="userSpaceOnUse">
<stop stop-color="#234DAE"/>
<stop offset="1" stop-color="#347BCE"/>
</linearGradient>
<linearGradient id="paint20_linear_170_2272" x1="431.028" y1="207.03" x2="436.269" y2="205.794" gradientUnits="userSpaceOnUse">
<stop stop-color="#234DAE"/>
<stop offset="1" stop-color="#347BCE"/>
</linearGradient>
<linearGradient id="paint21_linear_170_2272" x1="433.791" y1="207.403" x2="437.904" y2="206.587" gradientUnits="userSpaceOnUse">
<stop stop-color="#234DAE"/>
<stop offset="1" stop-color="#347BCE"/>
</linearGradient>
<linearGradient id="paint22_linear_170_2272" x1="659.917" y1="425.466" x2="676.462" y2="414.369" gradientUnits="userSpaceOnUse">
<stop stop-color="#234DAE"/>
<stop offset="1" stop-color="#347BCE"/>
</linearGradient>
<linearGradient id="paint23_linear_170_2272" x1="673.067" y1="406.704" x2="742.464" y2="379.555" gradientUnits="userSpaceOnUse">
<stop stop-color="#234DAE"/>
<stop offset="1" stop-color="#347BCE"/>
</linearGradient>
<linearGradient id="paint24_linear_170_2272" x1="560.16" y1="423.772" x2="599.142" y2="371.955" gradientUnits="userSpaceOnUse">
<stop stop-color="#234DAE"/>
<stop offset="1" stop-color="#347BCE"/>
</linearGradient>
<linearGradient id="paint25_linear_170_2272" x1="557.581" y1="423.588" x2="583.917" y2="413.879" gradientUnits="userSpaceOnUse">
<stop stop-color="#234DAE"/>
<stop offset="1" stop-color="#347BCE"/>
</linearGradient>
<linearGradient id="paint26_linear_170_2272" x1="501.714" y1="556.401" x2="510.015" y2="548.894" gradientUnits="userSpaceOnUse">
<stop stop-color="#234DAE"/>
<stop offset="1" stop-color="#347BCE"/>
</linearGradient>
<linearGradient id="paint27_linear_170_2272" x1="508.413" y1="556.079" x2="514.603" y2="554.155" gradientUnits="userSpaceOnUse">
<stop stop-color="#234DAE"/>
<stop offset="1" stop-color="#347BCE"/>
</linearGradient>
<linearGradient id="paint28_linear_170_2272" x1="517.48" y1="554.485" x2="543.652" y2="532.329" gradientUnits="userSpaceOnUse">
<stop stop-color="#234DAE"/>
<stop offset="1" stop-color="#347BCE"/>
</linearGradient>
<linearGradient id="paint29_linear_170_2272" x1="554.057" y1="639.785" x2="559.033" y2="632.34" gradientUnits="userSpaceOnUse">
<stop stop-color="#234DAE"/>
<stop offset="1" stop-color="#347BCE"/>
</linearGradient>
<linearGradient id="paint30_linear_170_2272" x1="559.364" y1="639.002" x2="566.613" y2="635.572" gradientUnits="userSpaceOnUse">
<stop stop-color="#234DAE"/>
<stop offset="1" stop-color="#347BCE"/>
</linearGradient>
<linearGradient id="paint31_linear_170_2272" x1="563.132" y1="626.51" x2="571.88" y2="607.941" gradientUnits="userSpaceOnUse">
<stop stop-color="#234DAE"/>
<stop offset="1" stop-color="#347BCE"/>
</linearGradient>
<linearGradient id="paint32_linear_170_2272" x1="671.364" y1="332.089" x2="695.826" y2="310.189" gradientUnits="userSpaceOnUse">
<stop stop-color="#234DAE"/>
<stop offset="1" stop-color="#347BCE"/>
</linearGradient>
<linearGradient id="paint33_linear_170_2272" x1="671.364" y1="332.089" x2="695.826" y2="310.189" gradientUnits="userSpaceOnUse">
<stop stop-color="#234DAE"/>
<stop offset="1" stop-color="#347BCE"/>
</linearGradient>
<linearGradient id="paint34_linear_170_2272" x1="649.624" y1="427.985" x2="760.939" y2="368.925" gradientUnits="userSpaceOnUse">
<stop stop-color="#234DAE"/>
<stop offset="1" stop-color="#347BCE"/>
</linearGradient>
<linearGradient id="paint35_linear_170_2272" x1="649.624" y1="427.985" x2="760.939" y2="368.925" gradientUnits="userSpaceOnUse">
<stop stop-color="#234DAE"/>
<stop offset="1" stop-color="#347BCE"/>
</linearGradient>
<linearGradient id="paint36_linear_170_2272" x1="596.311" y1="422.006" x2="611.856" y2="412.757" gradientUnits="userSpaceOnUse">
<stop stop-color="#234DAE"/>
<stop offset="1" stop-color="#347BCE"/>
</linearGradient>
<linearGradient id="paint37_linear_170_2272" x1="607.788" y1="409.876" x2="680.193" y2="374.933" gradientUnits="userSpaceOnUse">
<stop stop-color="#234DAE"/>
<stop offset="1" stop-color="#347BCE"/>
</linearGradient>
<linearGradient id="paint38_linear_170_2272" x1="599.571" y1="495.106" x2="751.01" y2="352.475" gradientUnits="userSpaceOnUse">
<stop stop-color="#234DAE"/>
<stop offset="1" stop-color="#347BCE"/>
</linearGradient>
<linearGradient id="paint39_linear_170_2272" x1="567.336" y1="219.182" x2="586.528" y2="211.056" gradientUnits="userSpaceOnUse">
<stop stop-color="#234DAE"/>
<stop offset="1" stop-color="#347BCE"/>
</linearGradient>
<linearGradient id="paint40_linear_170_2272" x1="577.283" y1="198.505" x2="599.757" y2="181.259" gradientUnits="userSpaceOnUse">
<stop stop-color="#234DAE"/>
<stop offset="1" stop-color="#347BCE"/>
</linearGradient>
<linearGradient id="paint41_linear_170_2272" x1="597.913" y1="188.44" x2="616.175" y2="170.591" gradientUnits="userSpaceOnUse">
<stop stop-color="#234DAE"/>
<stop offset="1" stop-color="#347BCE"/>
</linearGradient>
<linearGradient id="paint42_linear_170_2272" x1="622.596" y1="192.538" x2="645.342" y2="175.367" gradientUnits="userSpaceOnUse">
<stop stop-color="#234DAE"/>
<stop offset="1" stop-color="#347BCE"/>
</linearGradient>
<linearGradient id="paint43_linear_170_2272" x1="638.069" y1="203.523" x2="664.454" y2="186.038" gradientUnits="userSpaceOnUse">
<stop stop-color="#234DAE"/>
<stop offset="1" stop-color="#347BCE"/>
</linearGradient>
<linearGradient id="paint44_linear_170_2272" x1="648.937" y1="220.471" x2="671.707" y2="207.737" gradientUnits="userSpaceOnUse">
<stop stop-color="#234DAE"/>
<stop offset="1" stop-color="#347BCE"/>
</linearGradient>
<linearGradient id="paint45_linear_170_2272" x1="652.989" y1="239.585" x2="669.899" y2="228.527" gradientUnits="userSpaceOnUse">
<stop stop-color="#234DAE"/>
<stop offset="1" stop-color="#347BCE"/>
</linearGradient>
<linearGradient id="paint46_linear_170_2272" x1="566.96" y1="238.627" x2="571.909" y2="237.958" gradientUnits="userSpaceOnUse">
<stop stop-color="#234DAE"/>
<stop offset="1" stop-color="#347BCE"/>
</linearGradient>
<linearGradient id="paint47_linear_170_2272" x1="604.503" y1="234.021" x2="629.376" y2="217.705" gradientUnits="userSpaceOnUse">
<stop stop-color="#234DAE"/>
<stop offset="1" stop-color="#347BCE"/>
</linearGradient>
<linearGradient id="paint48_linear_170_2272" x1="168.912" y1="228.303" x2="222.252" y2="194.56" gradientUnits="userSpaceOnUse">
<stop stop-color="#234DAE"/>
<stop offset="1" stop-color="#347BCE"/>
</linearGradient>
<linearGradient id="paint49_linear_170_2272" x1="226.382" y1="228.45" x2="257.358" y2="219.703" gradientUnits="userSpaceOnUse">
<stop stop-color="#234DAE"/>
<stop offset="1" stop-color="#347BCE"/>
</linearGradient>
<linearGradient id="paint50_linear_170_2272" x1="110.704" y1="423.757" x2="111.839" y2="411.944" gradientUnits="userSpaceOnUse">
<stop stop-color="#234DAE"/>
<stop offset="1" stop-color="#347BCE"/>
</linearGradient>
</defs>
</svg>
