<svg width="24" height="24" viewBox="0 0 24 24" fill="none" xmlns="http://www.w3.org/2000/svg">
<path d="M20.7495 23.375H20.6008C3.40705 22.3862 0.965795 7.87875 0.624545 3.45125C0.597049 3.10701 0.637748 2.76072 0.744311 2.43223C0.850874 2.10375 1.02121 1.79952 1.24555 1.53697C1.46989 1.27443 1.74383 1.05873 2.05168 0.902234C2.35953 0.745742 2.69523 0.651532 3.03955 0.625001H7.8608C8.21128 0.624662 8.5538 0.729572 8.84397 0.926142C9.13415 1.12271 9.35861 1.40189 9.48829 1.7275L10.8183 5C10.9464 5.3181 10.9781 5.66682 10.9097 6.00283C10.8412 6.33884 10.6756 6.64734 10.4333 6.89L8.56954 8.77125C8.86067 10.4257 9.65296 11.9507 10.8392 13.1401C12.0255 14.3295 13.5484 15.1258 15.202 15.4212L17.1008 13.54C17.3471 13.3004 17.6585 13.1386 17.9962 13.0748C18.3338 13.011 18.6828 13.048 18.9995 13.1813L22.2983 14.5025C22.619 14.6363 22.8926 14.8625 23.0843 15.1523C23.276 15.4422 23.377 15.7825 23.3745 16.13V20.75C23.3745 21.4462 23.098 22.1139 22.6057 22.6062C22.1134 23.0984 21.4457 23.375 20.7495 23.375ZM3.24954 2.375C3.01748 2.375 2.79492 2.46719 2.63083 2.63128C2.46673 2.79538 2.37454 3.01794 2.37454 3.25V3.32C2.77705 8.5 5.35829 20.75 20.697 21.625C20.812 21.6321 20.9272 21.6164 21.0361 21.5789C21.145 21.5414 21.2454 21.4827 21.3316 21.4063C21.4177 21.3299 21.488 21.2372 21.5383 21.1336C21.5885 21.03 21.6179 20.9175 21.6245 20.8025V16.13L18.3258 14.8087L15.8145 17.3025L15.3945 17.25C7.78204 16.2963 6.74954 8.68375 6.74954 8.605L6.69704 8.185L9.18204 5.67375L7.86954 2.375H3.24954Z" fill="white"/>
</svg>
