<svg width="24" height="24" viewBox="0 0 24 24" fill="none" xmlns="http://www.w3.org/2000/svg">
<path opacity="0.5" d="M20.4853 3.51469C18.2188 1.24819 15.2053 0 12 0C8.79469 0 5.78123 1.24819 3.51469 3.51469C1.24814 5.78119 0 8.79469 0 12C0 15.2053 1.24819 18.2188 3.51469 20.4853C5.78119 22.7519 8.79469 24 12 24C15.2053 24 18.2188 22.7518 20.4853 20.4853C22.7519 18.2188 24 15.2053 24 12C24 8.79469 22.7518 5.78123 20.4853 3.51469ZM20.3854 18.3121C19.6677 17.8265 18.9165 17.4068 18.1376 17.0564C18.4816 15.715 18.6859 14.2585 18.7369 12.75H22.4729C22.3255 14.8282 21.5708 16.7413 20.3854 18.3121ZM1.52709 12.75H5.26312C5.31413 14.2586 5.51841 15.715 5.86238 17.0564C5.0835 17.4068 4.33228 17.8264 3.61462 18.3121C2.42916 16.7413 1.67447 14.8282 1.52709 12.75ZM3.61444 5.68809C4.33209 6.17381 5.08331 6.59348 5.86228 6.94388C5.51831 8.2852 5.31408 9.74152 5.26308 11.25H1.52709C1.67447 9.17184 2.42911 7.25897 3.61444 5.68809ZM16.9044 3.69211C16.6296 3.17686 16.3326 2.71191 16.0168 2.29931C17.2857 2.82666 18.4296 3.59578 19.3907 4.54917C18.8458 4.9072 18.2797 5.22272 17.696 5.49534C17.4669 4.85484 17.2025 4.25095 16.9044 3.69211ZM16.2967 6.0548C14.9274 6.5138 13.4823 6.75 12 6.75C10.5177 6.75 9.07261 6.5138 7.70334 6.0548C8.66255 3.32419 10.2474 1.5 12 1.5C13.7526 1.5 15.3375 3.32419 16.2967 6.0548ZM6.7642 11.25C6.8137 9.92147 6.99319 8.65214 7.27688 7.49456C8.78325 7.9935 10.3715 8.25 12 8.25C13.6285 8.25 15.2168 7.9935 16.7231 7.49456C17.0069 8.65214 17.1863 9.92142 17.2358 11.25H6.7642ZM17.2358 12.75C17.1862 14.0786 17.0068 15.348 16.7231 16.5056C15.2166 16.0066 13.6284 15.75 12 15.75C10.3716 15.75 8.78344 16.0066 7.27692 16.5056C6.99319 15.348 6.8137 14.0786 6.7642 12.75H17.2358ZM7.09561 3.69211C6.79758 4.25095 6.53311 4.85484 6.30403 5.4953C5.72034 5.22272 5.15419 4.90716 4.60927 4.54912C5.57034 3.59569 6.71428 2.82661 7.98319 2.29927C7.66739 2.71191 7.37039 3.17686 7.09561 3.69211ZM6.30408 18.505C6.53311 19.1453 6.79758 19.7491 7.09556 20.3079C7.37039 20.8231 7.66734 21.2881 7.98314 21.7007C6.71438 21.1733 5.57053 20.4044 4.6095 19.4511C5.15442 19.0931 5.72048 18.7776 6.30408 18.505ZM7.70344 17.9454C9.0728 17.4863 10.5178 17.25 12 17.25C13.4822 17.25 14.9272 17.4863 16.2966 17.9454C15.3374 20.6759 13.7526 22.5 12 22.5C10.2474 22.5 8.66264 20.6759 7.70344 17.9454ZM16.9044 20.3079C17.2024 19.7491 17.4668 19.1453 17.6959 18.505C18.2795 18.7776 18.8456 19.0931 19.3905 19.4511C18.4294 20.4044 17.2856 21.1734 16.0168 21.7007C16.3326 21.2881 16.6296 20.8231 16.9044 20.3079ZM18.7369 11.25C18.6859 9.74156 18.4816 8.2852 18.1377 6.94388C18.9166 6.59348 19.6679 6.17381 20.3855 5.68809C21.5708 7.25892 22.3255 9.1718 22.4729 11.25H18.7369Z" fill="url(#paint0_linear_138_4913)"/>
<defs>
<linearGradient id="paint0_linear_138_4913" x1="-1.08081e-06" y1="19.0776" x2="22.9577" y2="4.07269" gradientUnits="userSpaceOnUse">
<stop stop-color="#234DAE"/>
<stop offset="1" stop-color="#347BCE"/>
</linearGradient>
</defs>
</svg>
