<svg width="715" height="528" viewBox="0 0 715 528" fill="none" xmlns="http://www.w3.org/2000/svg">
<path d="M469.477 291.818H414.118C408.726 291.818 404.412 287.511 404.412 282.126V263.821C404.412 258.436 408.726 254.129 414.118 254.129H469.477C474.87 254.129 479.183 258.436 479.183 263.821V282.126C479.543 287.152 474.87 291.818 469.477 291.818Z" fill="white"/>
<path d="M287.223 247.668H81.9616C71.1773 247.668 62.5498 239.054 62.5498 228.285V23.6899C62.5498 12.9217 71.1773 4.30713 81.9616 4.30713H287.223C298.007 4.30713 306.635 12.9217 306.635 23.6899V228.285C306.635 238.695 298.007 247.668 287.223 247.668Z" fill="url(#paint0_linear_170_1828)"/>
<path d="M431.011 118.45C431.011 118.45 407.645 122.039 381.763 120.963C355.881 119.886 331.077 117.732 306.992 112.707C282.907 107.682 257.024 101.221 245.521 97.6315C234.377 93.6831 225.39 90.4527 225.39 90.4527L175.423 90.0938C175.423 90.0938 140.913 93.3242 121.861 109.476C102.809 125.629 99.2139 136.038 95.2596 166.548C91.3054 197.058 88.7891 272.794 88.7891 272.794C88.7891 272.794 93.8217 275.307 97.057 275.307C100.292 275.307 272.122 275.307 272.122 275.307C272.122 233.67 268.887 173.727 268.887 173.727C268.887 173.727 296.567 179.111 328.92 180.905C361.273 182.7 372.776 182.341 393.266 179.47C414.116 176.239 435.325 171.214 435.325 171.214C435.325 171.214 440.358 172.65 440.358 148.242C440.358 120.245 431.011 118.45 431.011 118.45Z" fill="#343B43"/>
<path d="M592.424 201.119H496.084C482.783 201.119 471.999 190.351 471.999 177.07V130.049C471.999 116.768 482.783 106 496.084 106H592.064C605.365 106 616.149 116.768 616.149 130.049V177.429C616.149 190.351 605.365 201.119 592.424 201.119Z" fill="#343B43"/>
<g clip-path="url(#clip0_170_1828)">
<path d="M518.202 179.65C513.252 176.872 511.532 170.654 514.396 165.838L534.946 131.199C537.801 126.382 544.191 124.717 549.141 127.495C554.091 130.273 555.802 136.49 552.947 141.307L532.397 175.946C529.542 180.771 523.152 182.436 518.202 179.65Z" fill="#FBBD04"/>
<path d="M569.805 179.505C564.855 182.283 558.465 180.618 555.61 175.802L535.06 141.162C532.205 136.346 533.916 130.128 538.866 127.351C543.816 124.565 550.206 126.229 553.061 131.046L573.611 165.685C576.475 170.501 574.764 176.719 569.805 179.505Z" fill="#438EDC"/>
<path d="M523.537 181C529.356 181 534.074 176.41 534.074 170.748C534.074 165.085 529.356 160.495 523.537 160.495C517.718 160.495 513 165.085 513 170.748C513 176.41 517.718 181 523.537 181Z" fill="#34A952"/>
</g>
<path d="M185.49 79.6845L187.287 55.9945C187.287 55.9945 173.987 59.5839 172.908 48.4568C171.47 37.3297 181.895 32.3045 190.523 38.7654C190.523 38.7654 197.353 32.3045 196.993 21.8953C196.993 21.8953 213.889 16.5112 231.144 24.7668L230.784 61.3786C230.784 61.3786 231.863 74.6594 218.921 75.7362V80.0435L225.751 90.0938L225.392 127.423L223.954 125.629C223.954 125.629 226.111 148.242 226.83 157.574C227.549 166.907 231.144 223.978 231.144 223.978C231.144 223.978 217.843 184.495 214.967 175.88C212.091 167.625 198.791 128.5 198.791 128.5L195.555 133.525L175.784 89.7348L185.49 79.6845Z" fill="#FEFEFE"/>
<path d="M461.569 121.322C461.569 121.322 472.353 128.859 479.543 124.911C486.732 121.322 474.15 111.989 471.634 110.194C469.118 108.4 461.928 104.81 461.928 104.81C461.928 104.81 455.098 104.451 450.065 109.835C445.033 115.579 436.405 126.347 429.575 126.347C429.575 126.347 429.575 130.295 429.575 142.499C429.575 154.703 431.732 155.78 431.732 155.78L462.288 157.215L461.569 121.322Z" fill="#FEFEFE"/>
<path d="M569.771 264.897C569.771 264.897 573.725 279.973 587.745 291.1C587.745 291.1 591.34 287.869 597.091 290.382C602.843 292.536 603.562 298.638 602.124 302.227C600.686 305.816 597.091 308.688 590.98 307.97C590.98 307.97 585.947 316.944 594.575 322.328L572.647 325.558L573.006 319.815C573.006 319.815 556.47 315.149 555.032 309.765C553.235 304.022 552.157 300.073 555.392 294.689C555.392 294.689 550.719 286.075 552.157 285.357C553.595 284.639 562.222 283.562 562.222 283.562L569.771 264.897Z" fill="#FEFEFE"/>
<path d="M475.227 329.147C475.227 329.147 483.855 305.816 484.574 302.227C484.933 298.638 485.652 294.689 481.698 293.971C478.103 293.254 474.149 298.279 473.43 301.868C472.352 305.816 471.273 311.918 466.241 311.918C463.724 311.918 461.208 309.765 459.051 302.586C456.894 295.048 452.94 286.434 451.861 282.485C450.783 278.537 447.907 275.665 445.031 276.383C443.593 276.742 440.358 281.409 440.358 281.409C440.358 281.409 436.044 279.255 434.966 279.614C432.809 279.973 431.012 284.998 431.371 288.587C431.371 288.587 425.62 289.664 426.339 298.997C427.417 308.329 439.999 333.096 439.999 333.096C439.999 333.096 443.953 329.147 454.018 328.071C463.724 326.635 475.227 329.147 475.227 329.147Z" fill="#FEFEFE"/>
<path d="M431.014 341.71C431.014 341.71 435.687 330.942 453.301 328.071C470.916 325.199 482.059 332.737 482.059 332.737L502.19 393.398C502.19 393.398 504.706 400.935 513.693 400.935C522.321 401.294 525.197 394.115 527.713 388.013C530.229 381.911 540.654 346.018 560.425 337.762C560.425 337.762 585.229 328.429 610.393 337.762C620.818 341.71 637.354 354.991 644.543 365.759C652.092 376.527 661.798 391.603 665.393 402.371C668.988 413.139 670.066 413.857 670.066 413.857L647.778 394.833C647.778 394.833 647.778 435.035 647.778 446.521C647.778 458.366 646.34 467.339 646.7 481.697C647.059 496.413 649.216 526.923 649.216 526.923H530.948C530.948 526.923 531.308 500.361 532.027 484.568C532.746 468.775 533.465 455.494 533.465 455.494C533.465 455.494 517.648 461.596 505.425 459.801C493.203 458.007 482.059 457.648 469.118 445.444C456.177 433.24 451.863 424.266 447.19 410.268C442.517 396.628 437.125 376.168 435.687 367.195C433.889 358.221 431.014 341.71 431.014 341.71Z" fill="url(#paint1_linear_170_1828)"/>
<path d="M559.346 338.121C559.346 338.121 562.222 326.276 572.646 325.199C583.071 324.122 604.64 322.328 604.64 322.328C604.64 322.328 615.784 329.506 618.3 341.351C618.3 341.351 611.47 335.967 598.169 334.532C584.869 333.455 566.535 334.173 559.346 338.121Z" fill="#FEFEFE"/>
<path d="M569.772 262.026C569.772 262.026 575.523 252.334 589.543 253.052C603.922 253.77 610.393 258.077 619.739 268.128C619.739 268.128 626.569 259.872 635.556 260.59C644.543 261.308 653.171 268.487 653.171 279.614C653.171 290.741 646.7 296.125 638.791 297.202C630.883 298.279 626.569 295.766 626.569 295.766C626.569 295.766 623.693 315.867 605.36 321.969L594.576 322.328C594.576 322.328 587.027 317.302 590.981 307.97C590.981 307.97 598.53 309.765 601.765 302.945C605.001 296.125 599.968 291.1 596.014 290.382C592.419 289.664 587.386 291.459 587.386 291.459C587.386 291.459 568.334 275.307 569.772 262.026Z" fill="#343B43"/>
<path d="M201.308 526.923H46.3732C40.2621 526.923 35.5889 521.898 35.5889 516.155V419.6C35.5889 413.498 40.6215 408.832 46.3732 408.832H201.308C207.419 408.832 212.092 413.857 212.092 419.6V516.155C212.092 522.257 207.419 526.923 201.308 526.923Z" fill="#343B43"/>
<path d="M145.949 484.568C153.295 484.568 159.25 478.622 159.25 471.287C159.25 463.953 153.295 458.007 145.949 458.007C138.603 458.007 132.648 463.953 132.648 471.287C132.648 478.622 138.603 484.568 145.949 484.568Z" fill="#FEFEFE"/>
<path d="M11.5033 319.815C17.8563 319.815 23.0065 314.673 23.0065 308.329C23.0065 301.985 17.8563 296.843 11.5033 296.843C5.15019 296.843 0 301.985 0 308.329C0 314.673 5.15019 319.815 11.5033 319.815Z" fill="url(#paint2_linear_170_1828)"/>
<path d="M175.426 38.4064C175.426 38.4064 168.236 22.6131 177.223 12.9217C186.21 3.23033 196.635 6.46079 196.635 6.46079C196.635 6.46079 201.308 1.43564 211.733 1.0767C222.158 0.717759 234.38 7.53761 235.099 21.1773C235.458 34.4581 231.504 36.6117 231.504 36.6117L231.145 25.1256C231.145 25.1256 213.53 16.5111 196.994 22.2541C196.994 22.2541 197.713 31.2276 190.883 38.4064C189.805 38.7653 184.413 32.6634 175.426 38.4064Z" fill="#343B43"/>
<path d="M202.024 123.475L209.214 133.166L208.136 153.985L231.142 224.337L226.109 145.37L219.279 132.808L220.358 120.604L211.371 108.041L202.024 123.475Z" fill="url(#paint3_linear_170_1828)"/>
<path d="M484.935 454.776C484.935 454.776 483.856 437.547 510.817 437.188C533.464 436.47 536.699 453.699 536.699 453.699C536.699 453.699 508.66 467.339 484.935 454.776Z" fill="#343B43"/>
<path d="M648.497 403.807L701.34 449.392C701.34 449.392 706.013 454.776 702.778 461.237L653.17 518.309L648.137 514.001C648.137 514.001 645.98 477.748 647.059 464.109C648.497 450.469 648.137 439.701 648.497 427.138C649.216 414.934 648.497 403.807 648.497 403.807Z" fill="#343B43"/>
<path d="M187.646 326.276H172.189C169.672 326.276 167.516 324.122 167.516 321.61V306.175C167.516 303.663 169.672 301.509 172.189 301.509H187.646C190.163 301.509 192.32 303.663 192.32 306.175V321.61C192.32 324.122 190.163 326.276 187.646 326.276Z" fill="url(#paint4_linear_170_1828)"/>
<path d="M197.355 379.399H181.898C179.381 379.399 177.225 377.245 177.225 374.733V359.298C177.225 356.786 179.381 354.632 181.898 354.632H197.355C199.872 354.632 202.029 356.786 202.029 359.298V374.733C202.029 377.245 199.872 379.399 197.355 379.399Z" fill="#343B43"/>
<path d="M441.077 249.104C444.055 249.104 446.469 246.693 446.469 243.72C446.469 240.746 444.055 238.336 441.077 238.336C438.099 238.336 435.685 240.746 435.685 243.72C435.685 246.693 438.099 249.104 441.077 249.104Z" fill="url(#paint5_linear_170_1828)"/>
<path d="M589.543 253.052C575.164 252.334 569.771 262.026 569.771 262.026L570.85 267.41C570.85 267.41 589.902 240.13 619.739 268.128C610.392 258.077 603.562 253.77 589.543 253.052Z" fill="white"/>
<path d="M635.554 260.59C626.567 259.872 619.737 268.128 619.737 268.128L617.221 272.794C617.221 272.794 643.103 253.77 653.168 279.255C653.168 268.487 644.541 261.308 635.554 260.59Z" fill="white"/>
<path d="M587.026 386.219C587.026 386.219 582.713 462.673 532.026 480.979L533.464 455.853C533.464 455.853 548.562 454.058 566.177 431.086C583.791 408.114 587.026 386.219 587.026 386.219Z" fill="#343B43"/>
<path d="M343.3 380.835C346.278 380.835 348.693 378.424 348.693 375.451C348.693 372.477 346.278 370.067 343.3 370.067C340.322 370.067 337.908 372.477 337.908 375.451C337.908 378.424 340.322 380.835 343.3 380.835Z" fill="url(#paint6_linear_170_1828)"/>
<path d="M208.855 111.989L216.764 122.398L214.967 133.525L230.065 198.135L226.11 145.37L219.28 132.808L220.359 120.604L211.372 108.041L208.855 111.989Z" fill="white"/>
<path d="M235.46 20.8185C235.1 7.53771 222.518 0.358916 212.094 0.717856C208.139 0.717856 204.904 1.79467 202.388 2.51255C205.623 2.15361 224.675 -2.28286e-05 228.989 20.1006C228.989 20.1006 224.675 18.3059 218.564 18.6648C209.577 19.3827 205.264 20.1006 205.264 20.1006C222.159 19.3827 230.427 24.7668 230.427 24.7668L231.146 35.8939C231.865 36.2529 235.819 34.0992 235.46 20.8185Z" fill="white"/>
<path d="M439.997 313.354C438.919 312.277 438.2 310.842 437.481 308.688C434.246 301.868 429.213 290.023 430.651 284.28C431.729 279.614 434.246 278.896 435.683 278.896C438.2 278.537 440.357 280.691 441.076 282.126C438.919 281.767 437.481 280.332 436.043 280.332C434.246 280.332 432.808 281.767 432.089 284.639C430.651 289.664 436.043 301.509 438.919 307.97C439.997 310.124 440.357 311.559 440.716 312.277C440.357 313.354 440.357 313.354 439.997 313.354Z" fill="#343B43"/>
<path d="M439.639 333.814C438.92 333.096 437.123 328.43 428.855 309.765C425.62 302.227 424.901 296.484 426.698 292.177C428.136 288.587 431.012 287.51 431.371 287.51C431.731 289.305 429.574 290.023 428.496 292.895C427.058 296.484 427.777 302.227 430.652 309.047C438.92 327.712 440.718 332.378 440.718 332.378C439.639 333.814 439.639 333.814 439.639 333.814Z" fill="#343B43"/>
<path d="M429.217 127.782C429.217 125.988 435.687 125.988 446.831 112.348C452.223 105.887 459.053 102.657 463.727 104.81C464.086 104.81 482.419 114.502 482.779 121.322C482.779 122.398 482.419 124.193 479.903 125.629C470.916 131.013 457.975 119.168 457.615 118.809C459.053 117.732 471.276 128.859 479.184 124.193C480.622 123.475 480.981 122.757 480.981 121.68C480.981 116.655 467.681 108.759 463.008 106.605C459.053 104.81 452.942 107.682 448.269 113.425C436.406 127.424 429.576 127.782 429.217 127.782Z" fill="#343B43"/>
<path d="M461.57 159.01C460.492 159.01 438.564 158.651 431.015 157.215C438.923 156.857 461.57 157.215 461.57 157.215C462.289 158.651 461.93 159.01 461.57 159.01Z" fill="#343B43"/>
<path d="M461.567 139.627C461.208 139.627 453.659 137.474 447.907 138.551C454.018 136.038 461.567 137.833 461.927 138.192C462.286 139.627 461.927 139.627 461.567 139.627Z" fill="#343B43"/>
<path d="M194.834 330.942H178.298C175.422 330.942 173.266 328.789 173.266 325.917V309.406C173.266 306.534 175.422 304.381 178.298 304.381H194.834C197.71 304.381 199.867 306.534 199.867 309.406V325.917C199.507 328.789 197.351 330.942 194.834 330.942ZM178.298 306.534C176.501 306.534 175.063 307.97 175.063 309.765V326.276C175.063 328.071 176.501 329.506 178.298 329.506H194.834C196.632 329.506 198.07 328.071 198.07 326.276V309.765C198.07 307.97 196.632 306.534 194.834 306.534H178.298Z" fill="#343B43"/>
<path d="M194.834 371.502H178.298C175.422 371.502 173.266 369.349 173.266 366.477V349.966C173.266 347.094 175.422 344.941 178.298 344.941H194.834C197.71 344.941 199.867 347.094 199.867 349.966V366.477C199.507 369.349 197.351 371.502 194.834 371.502ZM178.298 347.094C176.501 347.094 175.063 348.53 175.063 350.325V366.836C175.063 368.631 176.501 370.067 178.298 370.067H194.834C196.632 370.067 198.07 368.631 198.07 366.836V350.325C198.07 348.53 196.632 347.094 194.834 347.094H178.298Z" fill="#343B43"/>
<path d="M271.407 311.559H208.139C208.139 309.765 271.407 309.765 271.407 309.765C272.485 311.201 271.766 311.559 271.407 311.559Z" fill="#343B43"/>
<path d="M271.407 326.994H208.139C208.139 325.199 271.407 325.199 271.407 325.199C272.485 326.635 271.766 326.994 271.407 326.994Z" fill="#343B43"/>
<path d="M271.407 352.479H208.139C208.139 350.684 271.407 350.684 271.407 350.684C272.485 351.761 271.766 352.479 271.407 352.479Z" fill="#343B43"/>
<path d="M271.407 367.913H208.139C208.139 366.118 271.407 366.118 271.407 366.118C272.485 367.554 271.766 367.913 271.407 367.913Z" fill="#343B43"/>
<path d="M475.946 330.224C475.227 330.224 474.867 329.506 475.227 329.147C475.586 327.712 476.665 324.481 477.743 321.251C480.259 314.072 483.495 304.022 484.214 300.791C484.573 298.279 484.214 296.843 483.495 295.766C482.416 294.689 480.259 294.689 478.821 295.407C477.383 296.125 476.305 297.561 475.586 300.073C475.227 300.791 475.227 301.15 474.867 302.227C473.789 305.816 471.991 311.2 468.756 312.636C467.318 313.354 465.88 312.995 464.442 312.636C463.364 312.277 462.645 311.559 461.926 310.483C460.488 308.329 459.769 306.175 458.691 303.663C458.331 302.586 457.972 301.868 457.612 301.15C456.174 297.561 454.736 293.971 453.299 290.023C452.939 289.305 452.939 288.587 452.58 287.869C452.22 286.075 451.501 284.28 450.782 282.844C450.063 281.05 449.344 279.614 447.906 278.537C446.828 277.819 445.749 277.819 445.031 278.178C443.593 278.537 442.514 279.614 441.795 281.05C439.638 286.434 442.514 298.997 449.344 310.483C442.155 301.15 437.482 287.152 440.357 280.332C441.076 278.178 442.874 276.742 444.671 276.383C446.468 276.024 447.906 276.024 448.985 277.101C450.782 278.178 451.501 280.332 452.22 282.126C452.939 283.921 453.299 285.716 454.017 287.51C454.377 288.228 454.377 288.946 454.736 289.664C455.815 293.612 457.612 297.202 459.05 300.791C459.41 301.509 459.769 302.586 460.129 303.663C460.848 305.816 461.926 308.329 463.004 310.124C463.723 310.842 464.083 311.559 464.802 311.918C465.88 312.277 466.959 312.277 467.678 311.918C470.194 310.842 471.991 305.816 473.07 302.586C473.429 301.868 473.429 301.15 473.789 300.432C474.867 297.92 475.946 296.125 477.743 295.048C479.54 293.971 482.776 293.612 484.573 295.407C486.37 297.202 486.011 299.714 485.651 301.868C485.292 305.457 481.697 315.149 479.181 322.687C478.102 326.276 477.024 329.147 476.665 330.583C476.665 329.865 476.305 330.224 475.946 330.224Z" fill="#343B43"/>
<path d="M570.847 279.973C570.128 279.614 569.769 279.614 568.69 282.126C567.612 284.639 567.971 285.357 568.69 285.357C569.409 285.357 570.128 284.998 570.847 283.203C571.207 281.408 571.566 280.332 570.847 279.973Z" fill="#343B43"/>
<path d="M593.497 309.047C592.419 309.047 591.7 309.047 590.622 308.688C588.465 307.97 587.027 306.893 585.589 305.457C588.105 305.816 589.543 306.534 590.981 307.252C593.138 307.97 595.295 307.611 597.452 306.534C599.249 305.457 600.687 303.663 601.406 301.509C602.125 299.355 601.765 297.202 600.687 295.048C599.609 293.253 597.811 291.818 595.654 291.1C592.778 290.382 589.903 291.1 587.746 292.895C589.184 289.305 592.778 288.587 596.014 289.305C598.53 290.023 600.687 291.818 602.125 293.971C603.563 296.484 603.922 298.997 603.203 301.509C602.484 304.022 600.687 306.175 598.53 307.611C596.733 308.688 594.935 309.047 593.497 309.047Z" fill="#343B43"/>
<path d="M594.577 304.381C593.858 304.022 588.825 298.279 588.825 298.279C589.185 296.843 596.734 293.971 596.734 293.971C597.453 295.407 590.982 297.92 590.982 297.92L595.296 302.945C594.936 304.381 594.577 304.381 594.577 304.381Z" fill="#343B43"/>
<path d="M572.646 326.276C571.927 325.558 571.927 320.174 571.927 320.174C573.724 320.174 573.365 325.558 573.365 325.558C573.365 325.917 573.005 326.276 572.646 326.276Z" fill="#343B43"/>
<path d="M530.588 528C529.51 513.283 531.667 473.082 532.386 457.648C533.464 473.082 531.307 513.283 531.307 527.282C530.588 528 530.588 528 530.588 528Z" fill="#343B43"/>
<path d="M649.215 528C648.496 526.923 644.541 487.081 646.698 455.135C648.496 427.497 649.574 399.5 644.541 379.758C640.947 366.118 628.365 334.173 585.228 334.173C574.443 334.173 567.254 335.608 561.143 338.121C553.594 341.351 547.123 347.812 542.09 357.504C538.496 364.324 535.26 371.861 532.385 379.04C531.306 381.194 530.587 383.706 529.509 385.86C527.711 390.526 525.555 395.192 521.6 398.423C517.287 402.012 511.894 402.371 507.221 399.859C502.548 397.346 501.11 392.68 499.672 388.014L493.561 368.99L481.698 333.455C480.979 332.737 474.509 326.994 457.613 328.43C439.28 330.224 432.809 339.916 431.731 341.71C434.966 360.734 437.483 375.81 442.515 393.757C447.188 410.268 453.659 429.292 466.96 442.931C482.417 458.725 507.221 463.391 531.306 455.135L534.182 454.417C574.803 438.265 585.587 385.86 585.947 385.501C587.385 386.219 576.6 439.701 534.901 455.853L532.025 456.571C507.221 464.827 481.698 460.16 465.881 443.649C452.221 429.651 445.751 410.627 440.718 393.757C435.685 375.451 433.169 360.375 429.934 341.71C430.293 339.916 436.045 328.071 457.254 326.276C476.306 324.481 482.417 331.66 482.777 332.019C482.777 332.378 501.11 387.296 501.11 387.296C502.548 391.603 503.986 395.91 507.94 398.064C511.894 400.218 516.927 399.859 520.522 396.628C524.117 393.757 526.273 389.09 528.071 384.783C529.149 382.629 529.868 380.476 530.947 377.963C533.822 370.784 537.058 363.247 540.653 356.068C546.045 346.018 552.875 339.198 560.424 335.967C566.894 333.096 574.084 332.019 584.149 331.66C629.803 331.66 642.744 364.324 646.339 378.322C651.372 398.423 650.293 426.779 648.496 454.417C646.339 486.004 650.293 525.487 650.293 526.205C649.215 528 649.215 528 649.215 528Z" fill="#343B43"/>
<path d="M670.068 414.575C657.486 382.988 643.466 361.811 628.368 350.684C644.904 360.734 658.924 382.271 670.786 413.498C670.427 414.575 670.427 414.575 670.068 414.575Z" fill="#343B43"/>
<path d="M572.287 320.533C564.019 318.379 553.235 314.072 552.156 304.74C551.797 302.227 552.156 299.714 553.235 297.202C553.954 295.766 554.313 295.048 554.313 294.689C553.594 293.254 549.64 287.152 551.078 284.639C551.797 283.562 555.032 282.844 561.503 282.485L569.052 264.538C570.49 265.256 562.941 283.562 562.941 283.562C558.267 284.28 553.235 284.998 552.875 285.357C552.156 286.434 554.313 291.1 556.111 293.612C556.47 293.971 556.111 294.689 555.392 296.484C554.313 299.714 553.954 301.868 554.313 304.022C555.032 312.277 565.098 316.226 572.647 318.379C573.006 320.174 572.647 320.533 572.287 320.533Z" fill="#343B43"/>
<path d="M619.019 343.146C612.189 328.071 604.999 323.763 603.921 323.404C601.405 323.404 577.32 325.199 571.209 326.994C562.941 329.506 560.424 338.48 560.424 338.839C558.986 338.121 561.503 328.43 570.849 325.558C577.679 323.404 603.202 321.969 604.28 321.969C604.999 322.328 613.267 325.917 620.097 342.428C619.378 343.146 619.019 343.146 619.019 343.146Z" fill="#343B43"/>
<path d="M557.188 303.663C554.672 303.663 552.515 302.227 552.515 302.227C553.593 300.791 556.828 303.304 560.423 300.791C560.064 303.304 558.626 303.663 557.188 303.663Z" fill="#343B43"/>
<path d="M484.932 455.853C484.213 444.726 496.076 436.47 510.815 436.47C524.834 436.47 536.338 444.008 537.416 453.699C534.9 445.085 523.756 438.265 510.815 438.265C497.155 438.265 486.011 445.803 486.011 455.135C486.011 455.494 485.651 455.853 484.932 455.853Z" fill="#343B43"/>
<path d="M470.194 292.536H462.645C462.645 290.741 470.194 290.741 470.194 290.741C474.867 290.741 478.462 287.152 478.462 282.485V263.103C478.462 258.436 474.867 254.847 470.194 254.847H413.396C408.723 254.847 405.128 258.436 405.128 263.103V282.485C405.128 287.152 408.723 290.741 413.396 290.741H421.664C421.664 292.536 413.396 292.536 413.396 292.536C408.004 292.536 403.331 287.869 403.331 282.485V263.103C403.331 257.718 408.004 253.052 413.396 253.052H470.194C475.586 253.052 480.259 257.718 480.259 263.103V282.485C480.259 287.869 475.946 292.536 470.194 292.536Z" fill="#343B43"/>
<path d="M441.077 238.336C440.358 237.618 440.358 219.671 440.358 219.671H349.41C349.41 217.876 440.717 217.876 440.717 217.876C441.436 218.594 441.436 237.259 441.436 237.259C441.796 237.977 441.436 238.336 441.077 238.336Z" fill="#343B43"/>
<path d="M340.063 225.414C336.469 225.414 333.233 222.542 333.233 218.594C333.233 215.005 336.109 211.774 340.063 211.774C343.658 211.774 346.894 214.646 346.894 218.594C346.894 222.542 343.658 225.414 340.063 225.414ZM340.063 213.928C337.188 213.928 335.031 216.081 335.031 218.953C335.031 221.824 337.188 223.978 340.063 223.978C342.939 223.978 345.096 221.824 345.096 218.953C345.096 216.081 342.939 213.928 340.063 213.928Z" fill="#343B43"/>
<path d="M441.08 249.822C437.485 249.822 434.25 246.95 434.25 243.002C434.25 239.413 437.126 236.182 441.08 236.182C444.675 236.182 447.91 239.054 447.91 243.002C447.551 246.95 444.675 249.822 441.08 249.822ZM441.08 238.336C438.204 238.336 436.047 240.489 436.047 243.361C436.047 246.232 438.204 248.386 441.08 248.386C443.956 248.386 446.113 246.232 446.113 243.361C446.113 240.489 443.596 238.336 441.08 238.336Z" fill="#343B43"/>
<path d="M590.26 190.238C598.888 184.495 604.639 176.239 604.639 166.189V122.757C604.639 109.118 593.496 97.9904 579.836 97.9904H487.45C479.541 97.9904 472.352 101.58 467.679 107.682C471.273 100.144 479.182 96.1957 487.45 96.1957H579.836C594.574 96.1957 606.437 108.041 606.437 122.757V166.189C606.077 176.598 600.326 185.931 590.26 190.238Z" fill="#343B43"/>
<path d="M547.483 192.75H487.091C472.352 192.75 460.489 180.905 460.489 166.189V122.039C462.287 122.757 462.287 166.189 462.287 166.189C462.287 179.829 473.43 190.956 487.091 190.956H547.483C548.561 192.391 548.202 192.75 547.483 192.75Z" fill="#343B43"/>
<path d="M218.923 528C225.034 526.205 230.067 521.18 230.067 515.078V470.929C231.864 470.929 231.864 515.078 231.864 515.078C231.864 522.257 226.112 528 218.923 528Z" fill="#343B43"/>
<path d="M66.5047 528C59.3151 528 53.5635 522.257 53.5635 515.078V421.036C53.5635 413.857 59.3151 408.114 66.5047 408.114H218.923C226.113 408.114 231.864 413.857 231.864 421.036V435.752C230.067 435.752 230.067 421.036 230.067 421.036C230.067 414.934 225.034 409.909 218.923 409.909H66.5047C60.3935 409.909 55.3609 414.934 55.3609 421.036V515.078C55.3609 521.18 60.3935 526.205 66.5047 526.205C67.2236 527.641 66.8641 528 66.5047 528Z" fill="#343B43"/>
<path d="M142.713 482.056C135.523 482.056 129.412 475.954 129.412 468.775C129.412 461.596 135.523 455.494 142.713 455.494C149.902 455.494 156.013 461.596 156.013 468.775C156.013 475.954 150.262 482.056 142.713 482.056ZM142.713 457.289C136.242 457.289 131.209 462.673 131.209 468.775C131.209 475.236 136.602 480.261 142.713 480.261C149.183 480.261 154.216 475.236 154.216 468.775C154.576 462.314 149.183 457.289 142.713 457.289Z" fill="#343B43"/>
<path d="M23.3659 470.211H13.66C13.66 468.416 23.3659 468.416 23.3659 468.416C24.4443 469.852 24.0848 470.211 23.3659 470.211ZM11.5031 462.314C10.7842 461.596 10.7842 451.546 10.7842 451.546C12.5816 451.546 12.5816 461.237 12.5816 461.237C12.2221 461.955 11.8626 462.314 11.5031 462.314ZM11.5031 442.931C10.7842 442.213 10.7842 432.163 10.7842 432.163C12.5816 432.163 12.5816 441.854 12.5816 441.854C12.2221 442.572 11.8626 442.931 11.5031 442.931ZM11.5031 423.549C10.7842 422.472 10.7842 412.78 10.7842 412.78C12.5816 412.78 12.5816 422.472 12.5816 422.472C12.2221 422.831 11.8626 423.549 11.5031 423.549ZM11.5031 403.807C10.7842 403.089 10.7842 393.039 10.7842 393.039C12.5816 393.039 12.5816 402.73 12.5816 402.73C12.2221 403.448 11.8626 403.807 11.5031 403.807ZM11.5031 384.424C10.7842 383.706 10.7842 373.656 10.7842 373.656C12.5816 373.656 12.5816 383.347 12.5816 383.347C12.2221 384.065 11.8626 384.424 11.5031 384.424ZM11.5031 364.682C10.7842 363.965 10.7842 353.914 10.7842 353.914C12.5816 353.914 12.5816 363.606 12.5816 363.606C12.2221 364.324 11.8626 364.682 11.5031 364.682ZM11.5031 345.3C10.7842 344.582 10.7842 334.532 10.7842 334.532C12.5816 334.532 12.5816 344.223 12.5816 344.223C12.2221 344.941 11.8626 345.3 11.5031 345.3ZM11.5031 325.558C10.7842 324.84 10.7842 314.79 10.7842 314.79C12.5816 314.79 12.5816 324.481 12.5816 324.481C12.2221 325.199 11.8626 325.558 11.5031 325.558Z" fill="#343B43"/>
<path d="M91.6669 309.047H81.961C81.961 307.252 91.6669 307.252 91.6669 307.252C92.7453 308.688 92.0263 309.047 91.6669 309.047ZM72.2551 309.047H62.5492C62.5492 307.252 72.2551 307.252 72.2551 307.252C72.9741 308.688 72.6146 309.047 72.2551 309.047ZM52.4839 309.047H42.778C42.778 307.252 52.4839 307.252 52.4839 307.252C53.5623 308.688 53.2028 309.047 52.4839 309.047ZM33.0721 309.047H23.3662C23.3662 307.252 33.0721 307.252 33.0721 307.252C33.791 308.688 33.4316 309.047 33.0721 309.047Z" fill="#343B43"/>
<path d="M98.4992 315.867C94.1855 315.867 90.9502 312.636 90.9502 308.329C90.9502 304.022 94.1855 300.791 98.4992 300.791C102.813 300.791 106.048 304.022 106.048 308.329C106.048 312.277 102.453 315.867 98.4992 315.867ZM98.4992 302.586C95.2639 302.586 92.7476 305.099 92.7476 308.329C92.7476 311.559 95.2639 314.072 98.4992 314.072C101.735 314.072 104.251 311.559 104.251 308.329C104.251 305.099 101.735 302.586 98.4992 302.586Z" fill="#343B43"/>
<path d="M35.59 476.672C31.2763 476.672 28.041 473.441 28.041 469.134C28.041 464.827 31.2763 461.596 35.59 461.596C39.9038 461.596 43.1391 464.827 43.1391 469.134C43.1391 473.441 39.9038 476.672 35.59 476.672ZM35.59 463.391C32.3547 463.391 29.8384 465.903 29.8384 469.134C29.8384 472.364 32.3547 474.877 35.59 474.877C38.8253 474.877 41.3417 472.364 41.3417 469.134C41.3417 465.903 38.8253 463.391 35.59 463.391Z" fill="#343B43"/>
<path d="M11.5021 315.867C7.18842 315.867 3.95312 312.277 3.95312 308.329C3.95312 304.022 7.18842 300.791 11.5021 300.791C15.8159 300.791 19.0512 304.022 19.0512 308.329C19.0512 312.277 15.8159 315.867 11.5021 315.867ZM11.5021 302.586C8.26685 302.586 5.75051 305.099 5.75051 308.329C5.75051 311.559 8.26685 314.072 11.5021 314.072C14.7374 314.072 17.2538 311.559 17.2538 308.329C17.2538 305.099 14.7374 302.586 11.5021 302.586Z" fill="#343B43"/>
<path d="M689.477 528H10.7842C10.7842 526.205 689.836 526.205 689.836 526.205C690.555 527.641 690.196 528 689.477 528Z" fill="#343B43"/>
<path d="M436.764 171.214C434.967 171.214 433.17 168.702 431.732 163.317C430.294 158.651 429.215 152.19 428.496 145.012C427.418 135.679 427.059 118.45 431.732 117.732C433.17 117.732 435.686 119.168 436.764 123.116C434.248 120.245 432.81 119.168 432.091 119.168C430.653 119.168 428.856 128.5 430.294 144.653C431.013 151.472 432.091 157.933 433.529 162.6C435.326 167.984 436.405 169.06 436.764 169.06C437.483 169.06 439.64 165.112 439.64 157.215C441.078 165.112 439.281 170.855 436.764 171.214Z" fill="#343B43"/>
<path d="M205.621 36.6117C206.34 36.6117 206.7 36.9706 207.059 39.1243C207.419 41.9958 206.7 42.3547 205.981 42.3547C205.262 42.3547 204.902 41.6368 204.902 39.4832C204.902 37.3296 204.902 36.9706 205.621 36.6117Z" fill="#343B43"/>
<path d="M225.751 36.9707C226.47 36.9707 226.83 37.3296 226.83 39.4833C226.83 42.3548 226.111 42.7137 225.751 42.7137C225.032 42.7137 224.673 41.6369 224.673 39.8422C224.673 38.0475 224.673 37.3296 225.751 36.9707Z" fill="#343B43"/>
<path d="M185.851 81.1203C185.132 80.0435 186.57 55.6356 186.57 55.6356C188.367 55.6356 186.929 80.0435 186.929 80.0435C186.929 80.7614 186.57 81.1203 185.851 81.1203Z" fill="#343B43"/>
<path d="M217.123 76.813C216.404 76.813 215.325 76.813 214.606 76.813C213.887 76.813 213.528 76.813 212.809 76.813C208.495 76.813 204.9 76.4541 201.665 75.7362C205.26 74.6594 208.495 75.0184 212.809 75.3773C213.528 75.3773 213.887 75.3773 214.606 75.3773C219.639 75.3773 224.672 75.7362 227.548 71.429C230.423 67.1217 230.423 61.7376 230.423 56.7124C230.423 55.6356 230.423 54.5588 230.423 53.123C230.423 49.8926 230.064 29.433 230.064 26.2026C227.548 24.7668 214.606 19.0238 197.711 23.3311C197.711 25.4847 196.992 33.3814 190.881 40.2012C196.273 31.2277 195.914 22.6132 195.914 22.6132C216.404 16.1523 230.783 24.4079 231.142 24.7668C231.502 26.5615 231.861 49.5336 231.861 53.123C231.861 54.1999 231.861 55.2767 231.861 56.3535C231.861 61.7376 231.861 67.4806 228.626 72.1468C226.11 76.0952 221.436 76.813 217.123 76.813Z" fill="#343B43"/>
<path d="M183.334 57.4303C180.817 57.4303 178.301 56.7124 176.144 54.9177C173.987 53.123 172.549 50.2515 172.19 47.38C171.83 44.5084 172.909 41.6369 174.706 39.1243C176.504 36.9707 179.38 35.535 182.255 35.176C185.131 34.8171 188.007 35.8939 190.523 37.6886C191.961 38.7654 193.04 40.5601 193.759 42.3548C191.602 41.278 190.523 40.2012 189.445 39.1243C187.647 37.6886 185.131 36.6118 182.615 36.9707C180.098 37.3296 177.942 38.4065 176.144 40.2012C174.706 41.9959 173.628 44.5084 173.987 47.021C174.347 49.5336 175.425 51.6872 177.223 53.4819C180.458 56.3534 185.491 56.3534 189.085 53.8409C188.007 56.7124 185.491 57.4303 183.334 57.4303Z" fill="#343B43"/>
<path d="M230.786 34.0991C230.067 33.3812 228.629 30.5097 223.956 31.9455C229.708 28.715 231.505 33.0223 231.505 33.0223C231.146 34.0991 230.786 34.0991 230.786 34.0991Z" fill="#343B43"/>
<path d="M201.666 34.4581C205.98 26.9204 211.372 30.1509 211.372 30.1509C210.293 31.5866 206.339 29.074 202.385 34.0992C202.025 34.0992 201.666 34.4581 201.666 34.4581Z" fill="#343B43"/>
<path d="M218.919 81.1203C218.2 80.4024 218.2 75.7362 218.2 75.7362C219.998 75.7362 219.998 80.0435 219.998 80.0435C219.638 80.7614 219.279 81.1203 218.919 81.1203Z" fill="#343B43"/>
<path d="M175.786 40.2012C170.753 28.3562 171.113 19.3827 176.505 12.2039C178.662 9.33236 181.538 7.17872 184.413 5.74296C187.649 4.30721 191.603 4.30721 196.276 5.38403C191.603 6.1019 188.008 6.1019 185.132 7.53766C182.256 8.61448 179.74 10.7681 177.943 13.2807C172.91 20.1005 172.551 28.3561 176.505 39.1243C176.145 39.8422 175.786 40.2012 175.786 40.2012Z" fill="#343B43"/>
<path d="M179.738 52.4052C179.379 50.9694 186.209 47.38 186.209 47.38L179.738 40.9191C180.817 39.8423 188.006 47.0211 188.006 47.0211C187.647 48.4568 179.738 52.4052 179.738 52.4052C180.098 52.4052 180.098 52.4052 179.738 52.4052Z" fill="#343B43"/>
<path d="M200.588 12.2039C199.869 11.8449 195.915 6.81979 195.915 6.81979C196.993 5.38403 200.948 10.7681 200.948 10.7681C200.948 11.8449 200.588 12.2039 200.588 12.2039Z" fill="#343B43"/>
<path d="M272.485 275.665C271.766 197.058 268.171 164.753 263.857 131.013C269.969 164.753 273.563 196.699 273.563 274.589C273.563 275.306 273.204 275.665 272.485 275.665Z" fill="#343B43"/>
<path d="M195.554 134.961C194.835 134.602 175.063 90.4527 175.063 90.4527C175.063 89.3759 185.129 79.3256 185.129 79.3256C186.207 79.3256 211.371 106.246 211.371 106.246L218.56 80.0434C219.998 79.6845 226.828 90.0937 226.828 90.0937C226.828 90.4527 226.828 127.782 226.828 127.782C225.39 128.141 212.09 109.476 212.09 109.476L196.992 134.602C196.273 134.602 195.913 134.961 195.554 134.961ZM176.861 90.0937L195.913 132.09L210.652 108.041L185.848 81.1203L176.861 90.0937ZM212.449 107.682L224.671 124.911L225.031 90.4527L219.279 82.1971L212.449 107.682Z" fill="#343B43"/>
<path d="M231.144 226.132C225.033 207.826 198.072 129.936 197.713 129.218C199.51 129.577 226.471 207.467 231.863 225.055C231.504 226.132 231.144 226.132 231.144 226.132Z" fill="#343B43"/>
<path d="M232.58 275.665C231.861 274.948 230.423 225.414 230.423 225.414C230.063 203.878 223.593 127.064 223.593 125.988C225.39 126.706 231.861 203.878 232.22 225.414L233.658 274.948C232.58 275.665 232.58 275.665 232.58 275.665Z" fill="#343B43"/>
<path d="M209.576 134.961C208.857 134.602 201.308 123.834 201.308 123.834C202.746 122.757 209.935 133.167 209.935 133.167L218.563 132.449L219.641 120.604C221.438 120.604 220.36 133.167 220.36 133.167C219.641 134.243 209.935 134.961 209.576 134.961C209.935 134.961 209.576 134.961 209.576 134.961Z" fill="#343B43"/>
<path d="M208.137 155.78C207.418 154.703 208.856 133.884 208.856 133.884C210.653 133.884 208.856 154.703 208.856 154.703C208.856 155.421 208.496 155.78 208.137 155.78Z" fill="#343B43"/>
<path d="M225.754 146.806C225.035 146.447 218.564 133.525 218.564 133.525C220.002 132.808 226.473 145.729 226.473 145.729C225.754 146.806 225.754 146.806 225.754 146.806Z" fill="#343B43"/>
<path d="M212.811 63.5322C211.733 63.5322 210.655 63.1732 209.576 62.8143C206.7 61.0196 206.341 57.7891 206.341 57.7891C208.138 57.4302 208.498 60.3017 210.655 61.3785C211.733 62.0964 213.53 62.0964 215.328 61.3785C214.609 63.5322 213.53 63.5322 212.811 63.5322Z" fill="#343B43"/>
<path d="M231.504 37.6886C230.785 36.2528 235.098 30.1509 234.38 22.9721C233.661 10.0503 225.752 5.38404 220.719 3.58934C212.811 -5.64605e-05 202.746 1.4357 197.713 6.81979C202.027 -5.64605e-05 212.811 -1.43581 221.798 1.79464C226.831 3.58934 235.458 8.97343 236.536 22.9721C236.896 30.8687 232.582 37.3296 232.582 37.3296C231.863 37.3296 231.504 37.6886 231.504 37.6886Z" fill="#343B43"/>
<path d="M89.1523 273.512C89.1523 230.08 91.6687 173.009 98.4988 143.576C110.002 94.0421 175.067 89.3759 175.786 89.3759C175.427 91.1706 111.44 95.8368 100.296 143.935C93.4661 173.009 90.9497 229.721 89.8713 272.435C89.8713 273.153 89.5118 273.512 89.1523 273.512Z" fill="#343B43"/>
<path d="M147.388 275.665C145.231 200.647 152.421 151.472 152.421 150.755C153.859 151.472 147.029 200.647 148.466 274.589C147.388 275.665 147.388 275.665 147.388 275.665Z" fill="#343B43"/>
<path d="M115.751 409.55C115.032 408.832 115.032 274.948 115.032 274.948C116.83 274.948 116.83 408.832 116.83 408.832C116.83 409.191 116.47 409.55 115.751 409.55Z" fill="#343B43"/>
<path d="M470.557 447.956H231.146C231.146 446.162 470.557 446.162 470.557 446.162C471.276 447.597 470.917 447.956 470.557 447.956Z" fill="#343B43"/>
<path d="M588.822 249.463C588.104 248.745 588.104 205.313 588.104 205.313C589.901 205.313 589.901 248.386 589.901 248.386C589.901 249.104 589.541 249.463 588.822 249.463Z" fill="#343B43"/>
<path d="M322.094 107.682C321.375 106.964 321.375 51.6873 321.375 51.6873C321.375 40.9191 312.747 32.3046 301.963 32.3046H243.728C243.728 30.5099 301.603 30.5099 301.603 30.5099C313.466 30.5099 322.813 40.2013 322.813 51.6873V106.605C322.813 107.323 322.453 107.682 322.094 107.682Z" fill="#343B43"/>
<path d="M301.601 275.666H98.4963C86.6335 275.666 77.2871 265.974 77.2871 254.488V51.6873C77.2871 39.8423 86.993 30.5099 98.4963 30.5099H162.843C162.843 32.3046 98.4963 32.3046 98.4963 32.3046C87.7119 32.3046 79.0845 40.9191 79.0845 51.6873V254.488C79.0845 265.256 87.7119 273.871 98.4963 273.871H301.601C312.385 273.871 321.013 265.256 321.013 254.488V189.52C322.81 189.52 322.81 254.488 322.81 254.488C322.81 266.333 313.464 275.666 301.601 275.666Z" fill="#343B43"/>
<path d="M392.906 121.322C297.645 121.322 226.109 91.5296 225.39 91.1706C226.828 90.0938 318.135 127.782 431.73 117.732C418.429 120.604 405.488 121.322 392.906 121.322Z" fill="#343B43"/>
<path d="M349.772 181.982C303.759 181.982 269.609 174.444 269.249 174.444C270.327 173.009 353.367 191.315 436.406 170.137C406.569 179.47 376.014 181.982 349.772 181.982Z" fill="#343B43"/>
<path d="M594.577 323.045C584.871 315.149 590.263 307.252 590.263 307.252C591.342 308.329 587.028 314.79 594.936 321.61C594.936 323.045 594.577 323.045 594.577 323.045Z" fill="#343B43"/>
<path d="M603.922 323.046C618.66 316.944 624.412 301.15 625.49 295.407C627.288 296.125 623.334 317.302 603.922 323.046C604.281 323.046 604.281 323.046 603.922 323.046Z" fill="#343B43"/>
<path d="M587.743 292.177C570.128 277.819 568.69 262.744 568.69 262.026C573.004 255.206 579.834 251.975 588.462 251.617C601.043 251.617 613.266 258.077 620.096 267.41C612.187 259.513 599.965 253.411 588.821 253.411C580.553 253.411 574.083 256.642 570.488 262.026C570.847 264.179 573.004 278.178 588.462 290.382C588.462 292.177 588.102 292.177 587.743 292.177Z" fill="#343B43"/>
<path d="M574.806 277.101C573.008 274.589 570.852 274.948 570.852 274.948C570.852 273.153 573.727 272.794 575.525 275.666C575.165 277.101 574.806 277.101 574.806 277.101Z" fill="#343B43"/>
<path d="M635.554 297.92C627.286 297.92 620.816 293.971 620.456 293.612C621.535 292.177 631.241 298.279 642.025 295.048C647.058 293.612 651.012 288.228 651.731 282.126C652.809 274.589 649.214 267.769 642.384 263.462C638.79 261.308 634.835 260.59 631.241 261.667C622.254 264.179 616.502 274.948 616.143 274.948C615.064 273.512 621.175 262.744 630.522 259.872C634.835 258.795 639.149 259.513 643.103 262.026C650.652 266.692 654.247 274.23 653.169 282.485C652.09 289.305 647.777 295.407 642.025 296.843C640.228 297.92 637.711 297.92 635.554 297.92Z" fill="#343B43"/>
<path d="M658.202 520.462C655.686 520.462 653.17 519.744 651.013 517.95L647.778 515.078C648.856 513.642 652.091 516.514 652.091 516.514C656.046 519.744 661.797 519.385 665.032 515.437L710.686 462.314C713.921 458.366 713.562 452.623 709.608 449.392L647.059 395.551C648.137 394.116 711.046 448.315 711.046 448.315C715.719 452.264 716.078 459.084 712.124 463.75L666.47 516.873C664.313 519.026 661.438 520.462 658.202 520.462Z" fill="#343B43"/>
<path d="M221.437 58.507C222.875 55.2765 223.953 54.1997 223.953 53.1229C223.953 52.405 223.594 52.0461 222.515 50.9693C221.437 49.8925 219.999 48.0978 219.28 45.5852C217.483 39.1243 218.202 36.9706 218.202 36.6117C219.639 37.3296 219.28 39.1243 220.718 45.2262C221.077 47.3799 222.515 48.8156 223.594 49.8925C224.672 50.9693 225.391 52.0461 225.391 53.1229C225.391 54.5587 224.313 55.9944 221.796 58.1481L221.437 58.507Z" fill="#343B43"/>
<path d="M343.303 366.836C342.584 366.118 342.584 274.589 342.584 274.589C343.303 273.871 381.767 273.871 381.767 273.871C381.767 275.665 344.381 275.665 344.381 275.665V366.118C344.381 366.477 344.022 366.836 343.303 366.836Z" fill="#343B43"/>
<path d="M424.185 376.169H353.368C353.368 374.374 424.185 374.374 424.185 374.374C424.904 375.81 424.545 376.169 424.185 376.169Z" fill="#343B43"/>
<path d="M343.3 381.912C339.705 381.912 336.47 379.04 336.47 375.092C336.47 371.502 339.346 368.272 343.3 368.272C346.895 368.272 350.13 371.143 350.13 375.092C350.13 379.04 347.254 381.912 343.3 381.912ZM343.3 370.425C340.424 370.425 338.267 372.579 338.267 375.451C338.267 378.322 340.424 380.476 343.3 380.476C346.176 380.476 348.332 378.322 348.332 375.451C348.332 372.579 346.176 370.425 343.3 370.425Z" fill="#343B43"/>
<path d="M391.112 281.409C387.518 281.409 384.282 278.537 384.282 274.589C384.282 270.999 387.158 267.769 391.112 267.769C394.707 267.769 397.942 270.64 397.942 274.589C397.942 278.537 394.707 281.409 391.112 281.409ZM391.112 269.563C388.236 269.563 386.08 271.717 386.08 274.589C386.08 277.46 388.236 279.614 391.112 279.614C393.988 279.614 396.145 277.46 396.145 274.589C396.145 271.717 393.988 269.563 391.112 269.563Z" fill="#343B43"/>
<path d="M572.646 326.276C571.927 325.558 571.927 320.174 571.927 320.174C573.724 320.174 573.365 325.558 573.365 325.558C573.365 325.917 573.005 326.276 572.646 326.276Z" fill="#343B43"/>
<path d="M594.577 323.045C584.871 315.149 590.263 307.252 590.263 307.252C591.342 308.329 587.028 314.79 594.936 321.61C594.936 323.045 594.577 323.045 594.577 323.045Z" fill="#343B43"/>
<path d="M587.743 292.177C570.128 277.819 568.69 262.744 568.69 262.026C573.004 255.206 579.834 251.975 588.462 251.617C601.043 251.617 613.266 258.077 620.096 267.41C612.187 259.513 599.965 253.411 588.821 253.411C580.553 253.411 574.083 256.642 570.488 262.026C570.847 264.179 573.004 278.178 588.462 290.382C588.462 292.177 588.102 292.177 587.743 292.177Z" fill="#343B43"/>
<defs>
<linearGradient id="paint0_linear_170_1828" x1="62.5498" y1="197.755" x2="295.619" y2="44.9702" gradientUnits="userSpaceOnUse">
<stop stop-color="#234DAE"/>
<stop offset="1" stop-color="#347BCE"/>
</linearGradient>
<linearGradient id="paint1_linear_170_1828" x1="431.014" y1="486.005" x2="633.3" y2="327.584" gradientUnits="userSpaceOnUse">
<stop stop-color="#234DAE"/>
<stop offset="1" stop-color="#347BCE"/>
</linearGradient>
<linearGradient id="paint2_linear_170_1828" x1="-1.03607e-06" y1="315.103" x2="21.9877" y2="300.711" gradientUnits="userSpaceOnUse">
<stop stop-color="#234DAE"/>
<stop offset="1" stop-color="#347BCE"/>
</linearGradient>
<linearGradient id="paint3_linear_170_1828" x1="202.024" y1="200.485" x2="240.739" y2="194.149" gradientUnits="userSpaceOnUse">
<stop stop-color="#234DAE"/>
<stop offset="1" stop-color="#347BCE"/>
</linearGradient>
<linearGradient id="paint4_linear_170_1828" x1="167.516" y1="321.196" x2="191.221" y2="305.679" gradientUnits="userSpaceOnUse">
<stop stop-color="#234DAE"/>
<stop offset="1" stop-color="#347BCE"/>
</linearGradient>
<linearGradient id="paint5_linear_170_1828" x1="435.685" y1="246.895" x2="445.991" y2="240.149" gradientUnits="userSpaceOnUse">
<stop stop-color="#234DAE"/>
<stop offset="1" stop-color="#347BCE"/>
</linearGradient>
<linearGradient id="paint6_linear_170_1828" x1="337.908" y1="378.626" x2="348.215" y2="371.88" gradientUnits="userSpaceOnUse">
<stop stop-color="#234DAE"/>
<stop offset="1" stop-color="#347BCE"/>
</linearGradient>
<clipPath id="clip0_170_1828">
<rect width="62" height="55" fill="white" transform="translate(513 126)"/>
</clipPath>
</defs>
</svg>
