<svg width="90" height="90" viewBox="0 0 90 90" fill="none" xmlns="http://www.w3.org/2000/svg">
<path d="M40.3066 83.4231C41.2775 83.4231 42.0645 82.6361 42.0645 81.6653C42.0645 80.6945 41.2775 79.9075 40.3066 79.9075C39.3358 79.9075 38.5488 80.6945 38.5488 81.6653C38.5488 82.6361 39.3358 83.4231 40.3066 83.4231Z" fill="url(#paint0_linear_140_1572)"/>
<path d="M71.7196 41.0708C68.5645 34.9014 60.9787 32.449 54.8096 35.6041C51.8252 37.1303 49.6125 39.7317 48.5789 42.9284C47.5455 46.1255 47.8169 49.5297 49.3432 52.514C50.8693 55.4984 53.4705 57.7113 56.6675 58.7447C57.9435 59.1571 59.2518 59.3619 60.554 59.3619C62.5143 59.3619 64.4597 58.8978 66.2528 57.9806C72.4222 54.8257 74.8745 47.2402 71.7196 41.0708ZM57.751 55.3929C55.4493 54.6488 53.5772 53.057 52.4795 50.9101C51.3816 48.7637 51.1868 46.3138 51.9309 44.0121C52.675 41.7103 54.267 39.8382 56.4135 38.7404C57.7283 38.0681 59.1319 37.7497 60.5164 37.7497C63.8065 37.7497 66.9851 39.5497 68.5833 42.6748C70.8539 47.1147 69.0891 52.5739 64.6492 54.8443C62.5025 55.9421 60.0527 56.1368 57.751 55.3929Z" fill="url(#paint1_linear_140_1572)"/>
<path d="M87.167 82.0802L78.7068 65.5372C78.4941 65.1213 78.125 64.8069 77.6804 64.6631C77.2359 64.5195 76.7526 64.5581 76.3366 64.771L75.8546 65.0174L74.0465 61.4818C76.5558 59.1801 78.44 56.2577 79.5159 52.9297C81.1553 47.8584 80.7216 42.4522 78.2949 37.7072C75.8683 32.962 71.739 29.4458 66.6677 27.8061C65.1926 27.3292 63.6891 27.0292 62.1818 26.9012V1.76133C62.1818 0.788555 61.393 0 60.4204 0H4.40195C3.42918 0 2.64062 0.788731 2.64062 1.76133V67.1233C2.64062 67.586 2.82924 68.0416 3.15654 68.3687L17.6986 82.9106C18.0257 83.2377 18.4815 83.4265 18.944 83.4265H32.4111C33.3839 83.4265 34.1724 82.6378 34.1724 81.6652C34.1724 80.6926 33.3837 79.9038 32.4111 79.9038H20.7053V67.1233C20.7053 66.1505 19.9166 65.362 18.944 65.362H6.16328V3.52266H58.6589V26.9174C56.1752 27.1517 53.733 27.8569 51.4447 29.0271C41.6491 34.0367 37.7554 46.0816 42.765 55.8772C45.1916 60.6226 49.3209 64.1385 54.3922 65.778C55.7958 66.2317 57.2253 66.523 58.6589 66.6608V79.904H48.2293C47.2565 79.904 46.468 80.6927 46.468 81.6653C46.468 82.6379 47.2567 83.4267 48.2293 83.4267H60.4203C61.393 83.4267 62.1816 82.6379 62.1816 81.6653V66.6861C62.9686 66.6207 63.7515 66.5084 64.5271 66.3486L66.3357 69.8854L65.8533 70.132C64.9872 70.5749 64.6443 71.636 65.0873 72.502L73.5474 89.045C73.9837 89.8977 75.0629 90.2486 75.9175 89.8112L86.4006 84.4501C87.2668 84.0074 87.6099 82.9463 87.167 82.0802ZM17.1827 77.4128L8.65428 68.8846H17.1827V77.4128ZM45.9013 54.2732C41.7762 46.2069 44.9826 36.2886 53.0487 32.1634C55.3567 30.983 57.854 30.3769 60.3728 30.3553C60.3888 30.3557 60.4044 30.3578 60.4204 30.3578C60.4498 30.3578 60.4785 30.3548 60.5076 30.3534H60.5126C62.2122 30.3534 63.9204 30.6204 65.5842 31.1583C69.7602 32.5083 73.1605 35.4037 75.1588 39.3112V39.3114C77.1571 43.2186 77.5141 47.6703 76.1641 51.8463C75.1553 54.9666 73.2831 57.6534 70.7711 59.6463C70.7532 59.66 70.7356 59.6737 70.7186 59.6879C69.8835 60.345 68.9785 60.9261 68.0112 61.4208C67.0448 61.9151 66.0449 62.3085 65.0243 62.601C65.0004 62.6071 64.9765 62.614 64.9528 62.6212C61.8678 63.4899 58.595 63.4342 55.4762 62.4261C51.2999 61.0759 47.8996 58.1806 45.9013 54.2732ZM67.9544 65.3138C68.5155 65.0878 69.0696 64.8357 69.6147 64.5569C70.16 64.2781 70.6882 63.9756 71.2001 63.653L72.7181 66.6213L69.4719 68.2813L67.9544 65.3138ZM75.882 85.8732L69.0256 72.4663L76.3724 68.7092L83.2288 82.1159L75.882 85.8732Z" fill="url(#paint2_linear_140_1572)"/>
<path d="M34.4519 19.3477H26.4322C25.4595 19.3477 24.6709 20.1364 24.6709 21.109C24.6709 22.0817 25.4596 22.8703 26.4322 22.8703H34.4519C35.4247 22.8703 36.2132 22.0816 36.2132 21.109C36.2132 20.1364 35.4245 19.3477 34.4519 19.3477Z" fill="url(#paint3_linear_140_1572)"/>
<path d="M21.6566 14.2918C20.9213 13.6551 19.8089 13.7351 19.1721 14.4707L15.645 18.545L14.3843 17.3182C13.687 16.6395 12.572 16.655 11.8937 17.352C11.2152 18.0491 11.2303 19.1643 11.9274 19.8426L14.5262 22.3716C14.8558 22.6924 15.2968 22.8708 15.7547 22.8708C15.7797 22.8708 15.8048 22.8703 15.83 22.8692C16.3146 22.8485 16.7692 22.6289 17.0864 22.2622L21.8355 16.7763C22.4722 16.0406 22.3921 14.9283 21.6566 14.2918Z" fill="url(#paint4_linear_140_1572)"/>
<path d="M34.4519 30.1008H26.4322C25.4595 30.1008 24.6709 30.8896 24.6709 31.8622C24.6709 32.8349 25.4596 33.6235 26.4322 33.6235H34.4519C35.4247 33.6235 36.2132 32.8347 36.2132 31.8622C36.2132 30.8894 35.4245 30.1008 34.4519 30.1008Z" fill="url(#paint5_linear_140_1572)"/>
<path d="M21.6566 25.0447C20.9213 24.408 19.8089 24.488 19.1721 25.2237L15.645 29.2979L14.3843 28.0711C13.687 27.3926 12.572 27.4079 11.8937 28.1049C11.2152 28.802 11.2303 29.9172 11.9274 30.5955L14.5262 33.1245C14.8558 33.4453 15.2968 33.6237 15.7547 33.6237C15.7797 33.6237 15.8048 33.6232 15.83 33.6221C16.3146 33.6014 16.7692 33.3819 17.0864 33.0152L21.8355 27.5292C22.4722 26.7937 22.3921 25.6812 21.6566 25.0447Z" fill="url(#paint6_linear_140_1572)"/>
<path d="M34.4519 40.8538H26.4322C25.4595 40.8538 24.6709 41.6425 24.6709 42.6151C24.6709 43.5879 25.4596 44.3764 26.4322 44.3764H34.4519C35.4247 44.3764 36.2132 43.5877 36.2132 42.6151C36.2132 41.6425 35.4245 40.8538 34.4519 40.8538Z" fill="url(#paint7_linear_140_1572)"/>
<path d="M21.6566 35.7969C20.9213 35.1602 19.8089 35.2402 19.1721 35.9759L15.645 40.0501L14.3843 38.8233C13.687 38.1446 12.572 38.1603 11.8937 38.8571C11.2152 39.5542 11.2303 40.6694 11.9274 41.3477L14.5262 43.8767C14.8558 44.1975 15.2968 44.3759 15.7547 44.3759C15.7797 44.3759 15.8048 44.3754 15.83 44.3743C16.3146 44.3536 16.7692 44.134 17.0864 43.7674L21.8355 38.2814C22.4722 37.5459 22.3921 36.4336 21.6566 35.7969Z" fill="url(#paint8_linear_140_1572)"/>
<path d="M34.4519 51.6062H26.4322C25.4595 51.6062 24.6709 52.3949 24.6709 53.3675C24.6709 54.3403 25.4596 55.1289 26.4322 55.1289H34.4519C35.4247 55.1289 36.2132 54.3401 36.2132 53.3675C36.2132 52.3949 35.4245 51.6062 34.4519 51.6062Z" fill="url(#paint9_linear_140_1572)"/>
<path d="M21.6566 46.5503C20.9213 45.9136 19.8089 45.9936 19.1721 46.7293L15.645 50.8035L14.3843 49.5768C13.687 48.8981 12.572 48.9137 11.8937 49.6105C11.2152 50.3077 11.2303 51.4228 11.9274 52.1011L14.5262 54.6301C14.8558 54.9509 15.2968 55.1293 15.7547 55.1293C15.7797 55.1293 15.8048 55.1288 15.83 55.1278C16.3146 55.107 16.7692 54.8875 17.0864 54.5208L21.8355 49.0348C22.4722 48.2992 22.3921 47.1868 21.6566 46.5503Z" fill="url(#paint10_linear_140_1572)"/>
<defs>
<linearGradient id="paint0_linear_140_1572" x1="38.5488" y1="82.702" x2="41.9118" y2="80.5041" gradientUnits="userSpaceOnUse">
<stop stop-color="#234DAE"/>
<stop offset="1" stop-color="#347BCE"/>
</linearGradient>
<linearGradient id="paint1_linear_140_1572" x1="47.9619" y1="54.2068" x2="72.0049" y2="38.4927" gradientUnits="userSpaceOnUse">
<stop stop-color="#234DAE"/>
<stop offset="1" stop-color="#347BCE"/>
</linearGradient>
<linearGradient id="paint2_linear_140_1572" x1="2.64062" y1="71.5409" x2="86.5414" y2="19.9213" gradientUnits="userSpaceOnUse">
<stop stop-color="#234DAE"/>
<stop offset="1" stop-color="#347BCE"/>
</linearGradient>
<linearGradient id="paint3_linear_140_1572" x1="24.6709" y1="22.1478" x2="27.4917" y2="16.107" gradientUnits="userSpaceOnUse">
<stop stop-color="#234DAE"/>
<stop offset="1" stop-color="#347BCE"/>
</linearGradient>
<linearGradient id="paint4_linear_140_1572" x1="11.3945" y1="21.0231" x2="20.5441" y2="13.8071" gradientUnits="userSpaceOnUse">
<stop stop-color="#234DAE"/>
<stop offset="1" stop-color="#347BCE"/>
</linearGradient>
<linearGradient id="paint5_linear_140_1572" x1="24.6709" y1="32.901" x2="27.4917" y2="26.8601" gradientUnits="userSpaceOnUse">
<stop stop-color="#234DAE"/>
<stop offset="1" stop-color="#347BCE"/>
</linearGradient>
<linearGradient id="paint6_linear_140_1572" x1="11.3945" y1="31.776" x2="20.5441" y2="24.56" gradientUnits="userSpaceOnUse">
<stop stop-color="#234DAE"/>
<stop offset="1" stop-color="#347BCE"/>
</linearGradient>
<linearGradient id="paint7_linear_140_1572" x1="24.6709" y1="43.6539" x2="27.4917" y2="37.6131" gradientUnits="userSpaceOnUse">
<stop stop-color="#234DAE"/>
<stop offset="1" stop-color="#347BCE"/>
</linearGradient>
<linearGradient id="paint8_linear_140_1572" x1="11.3945" y1="42.5282" x2="20.5441" y2="35.3122" gradientUnits="userSpaceOnUse">
<stop stop-color="#234DAE"/>
<stop offset="1" stop-color="#347BCE"/>
</linearGradient>
<linearGradient id="paint9_linear_140_1572" x1="24.6709" y1="54.4064" x2="27.4917" y2="48.3655" gradientUnits="userSpaceOnUse">
<stop stop-color="#234DAE"/>
<stop offset="1" stop-color="#347BCE"/>
</linearGradient>
<linearGradient id="paint10_linear_140_1572" x1="11.3945" y1="53.2816" x2="20.5441" y2="46.0656" gradientUnits="userSpaceOnUse">
<stop stop-color="#234DAE"/>
<stop offset="1" stop-color="#347BCE"/>
</linearGradient>
</defs>
</svg>
