<svg width="90" height="90" viewBox="0 0 90 90" fill="none" xmlns="http://www.w3.org/2000/svg">
<g clip-path="url(#clip0_140_1455)">
<path d="M68.2513 0H8.25101C4.11099 0.00487502 0.755852 3.36001 0.750977 7.50003V55.5002C0.750602 58.9212 3.06511 61.9086 6.3775 62.7633L7.1275 59.8592C5.13943 59.3466 3.75024 57.5534 3.75099 55.5002V7.50003C3.75099 5.01471 5.76568 3.00001 8.25101 3.00001H68.2513C70.7366 3.00001 72.7513 5.01471 72.7513 7.50003V9.00004H75.7513V7.50003C75.7464 3.36001 72.3913 0.00487502 68.2513 0Z" fill="url(#paint0_linear_140_1455)"/>
<path d="M9.75001 6H6.75V9.00001H9.75001V6Z" fill="url(#paint1_linear_140_1455)"/>
<path d="M15.749 6H12.749V9.00001H15.749V6Z" fill="url(#paint2_linear_140_1455)"/>
<path d="M21.751 6H18.751V9.00001H21.751V6Z" fill="url(#paint3_linear_140_1455)"/>
<path d="M88.8108 82.94L74.5832 68.7124C75.3306 67.3784 75.9284 65.9657 76.3652 64.5004H78.7503V61.5004H77.0103C77.5752 57.8694 77.1396 54.1532 75.7502 50.7514V36.0003H72.7502V45.5523C71.8594 44.4144 70.8542 43.3709 69.7502 42.4383V30.0003H66.7502V40.3413C65.79 39.7848 64.7867 39.3057 63.7502 38.9088V24.0002H60.7502V37.9983C59.7617 37.7849 58.7591 37.6441 57.7502 37.5768V27.0003H54.7502V37.5768C53.7412 37.6441 52.7387 37.7849 51.7501 37.9983V33.0003H48.7501V38.9088C47.7136 39.3057 46.7105 39.7848 45.7501 40.3413V31.5003H42.7501V42.4383C41.6461 43.3709 40.6409 44.4144 39.7501 45.5523V34.5003H36.7501V50.7514C35.3607 54.1532 34.9251 57.8694 35.4901 61.5004H15.75V64.5004H36.1351C39.425 75.5971 51.0875 81.9256 62.184 78.6357C64.3706 77.9873 66.4369 76.9865 68.3012 75.6725L82.1898 89.561C82.7755 90.1466 83.725 90.1466 84.3108 89.561L88.8108 85.061C89.3964 84.4752 89.3964 83.5257 88.8108 82.94ZM56.2502 76.5005C46.3134 76.4898 38.2608 68.4372 38.2501 58.5004C38.2501 48.5593 46.3091 40.5003 56.2502 40.5003C66.1913 40.5003 74.2502 48.5593 74.2502 58.5004C74.2502 68.4415 66.1913 76.5005 56.2502 76.5005ZM83.2503 86.3795L70.6322 73.7614C71.4497 72.9889 72.2046 72.1529 72.8897 71.2609L85.6293 84.0005L83.2503 86.3795Z" fill="url(#paint4_linear_140_1455)"/>
<path d="M56.251 43.5002C47.9667 43.5002 41.251 50.216 41.251 58.5003C41.251 66.7847 47.9667 73.5004 56.251 73.5004C64.5354 73.5004 71.2511 66.7847 71.2511 58.5003C71.2421 50.2197 64.5316 43.5092 56.251 43.5002ZM56.251 70.5004C51.9693 70.4949 48.0149 68.2083 45.874 64.5003H66.6281C64.4872 68.2083 60.5328 70.4949 56.251 70.5004ZM44.6455 61.5003C43.4385 56.9328 45.0501 52.084 48.751 49.1478V58.5003H51.751V47.3838C52.7129 46.9945 53.7215 46.7324 54.751 46.6038V58.5003H57.751V46.6038C58.7806 46.7324 59.7892 46.9945 60.7511 47.3838V58.5003H63.7511V49.1478C67.452 52.084 69.0635 56.9328 67.8566 61.5003H44.6455Z" fill="url(#paint5_linear_140_1455)"/>
<path d="M77.2513 12H17.251C13.111 12.0049 9.75585 15.36 9.75098 19.5V67.5002C9.75585 71.6403 13.111 74.9954 17.251 75.0003H36.7511V72.0003H17.251C14.7657 72.0003 12.751 69.9856 12.751 67.5002V19.5C12.751 17.0147 14.7657 15 17.251 15H77.2513C79.7366 15 81.7513 17.0147 81.7513 19.5V67.5002C81.7511 68.5962 81.3512 69.6543 80.6263 70.4763L82.8763 72.4608C84.0853 71.0913 84.752 69.3271 84.7513 67.5002V19.5C84.7464 15.36 81.3913 12.0049 77.2513 12Z" fill="url(#paint6_linear_140_1455)"/>
<path d="M18.75 18H15.75V21H18.75V18Z" fill="url(#paint7_linear_140_1455)"/>
<path d="M24.749 18H21.749V21H24.749V18Z" fill="url(#paint8_linear_140_1455)"/>
<path d="M30.751 18H27.751V21H30.751V18Z" fill="url(#paint9_linear_140_1455)"/>
<path d="M21.751 49.5H18.751V58.5H21.751V49.5Z" fill="url(#paint10_linear_140_1455)"/>
<path d="M27.75 40.5H24.75V58.5001H27.75V40.5Z" fill="url(#paint11_linear_140_1455)"/>
<path d="M33.749 45H30.749V58.5001H33.749V45Z" fill="url(#paint12_linear_140_1455)"/>
</g>
<defs>
<linearGradient id="paint0_linear_140_1455" x1="0.750973" y1="49.8905" x2="64.3477" y2="0.220163" gradientUnits="userSpaceOnUse">
<stop stop-color="#234DAE"/>
<stop offset="1" stop-color="#347BCE"/>
</linearGradient>
<linearGradient id="paint1_linear_140_1455" x1="6.75" y1="8.38471" x2="9.61973" y2="6.50909" gradientUnits="userSpaceOnUse">
<stop stop-color="#234DAE"/>
<stop offset="1" stop-color="#347BCE"/>
</linearGradient>
<linearGradient id="paint2_linear_140_1455" x1="12.749" y1="8.38471" x2="15.6187" y2="6.50909" gradientUnits="userSpaceOnUse">
<stop stop-color="#234DAE"/>
<stop offset="1" stop-color="#347BCE"/>
</linearGradient>
<linearGradient id="paint3_linear_140_1455" x1="18.751" y1="8.38471" x2="21.6207" y2="6.50909" gradientUnits="userSpaceOnUse">
<stop stop-color="#234DAE"/>
<stop offset="1" stop-color="#347BCE"/>
</linearGradient>
<linearGradient id="paint4_linear_140_1455" x1="15.75" y1="76.4636" x2="81.3424" y2="28.7215" gradientUnits="userSpaceOnUse">
<stop stop-color="#234DAE"/>
<stop offset="1" stop-color="#347BCE"/>
</linearGradient>
<linearGradient id="paint5_linear_140_1455" x1="41.251" y1="67.3474" x2="69.9482" y2="48.5911" gradientUnits="userSpaceOnUse">
<stop stop-color="#234DAE"/>
<stop offset="1" stop-color="#347BCE"/>
</linearGradient>
<linearGradient id="paint6_linear_140_1455" x1="9.75097" y1="62.0789" x2="73.5292" y2="12.4542" gradientUnits="userSpaceOnUse">
<stop stop-color="#234DAE"/>
<stop offset="1" stop-color="#347BCE"/>
</linearGradient>
<linearGradient id="paint7_linear_140_1455" x1="15.75" y1="20.3847" x2="18.6197" y2="18.5091" gradientUnits="userSpaceOnUse">
<stop stop-color="#234DAE"/>
<stop offset="1" stop-color="#347BCE"/>
</linearGradient>
<linearGradient id="paint8_linear_140_1455" x1="21.749" y1="20.3847" x2="24.6188" y2="18.5091" gradientUnits="userSpaceOnUse">
<stop stop-color="#234DAE"/>
<stop offset="1" stop-color="#347BCE"/>
</linearGradient>
<linearGradient id="paint9_linear_140_1455" x1="27.751" y1="20.3847" x2="30.6207" y2="18.5091" gradientUnits="userSpaceOnUse">
<stop stop-color="#234DAE"/>
<stop offset="1" stop-color="#347BCE"/>
</linearGradient>
<linearGradient id="paint10_linear_140_1455" x1="18.751" y1="56.6541" x2="22.661" y2="55.8023" gradientUnits="userSpaceOnUse">
<stop stop-color="#234DAE"/>
<stop offset="1" stop-color="#347BCE"/>
</linearGradient>
<linearGradient id="paint11_linear_140_1455" x1="24.75" y1="54.8083" x2="28.7976" y2="54.3674" gradientUnits="userSpaceOnUse">
<stop stop-color="#234DAE"/>
<stop offset="1" stop-color="#347BCE"/>
</linearGradient>
<linearGradient id="paint12_linear_140_1455" x1="30.749" y1="55.7312" x2="34.76" y2="55.1486" gradientUnits="userSpaceOnUse">
<stop stop-color="#234DAE"/>
<stop offset="1" stop-color="#347BCE"/>
</linearGradient>
<clipPath id="clip0_140_1455">
<rect width="90" height="90" fill="white"/>
</clipPath>
</defs>
</svg>
