<svg width="840" height="596" viewBox="0 0 840 596" fill="none" xmlns="http://www.w3.org/2000/svg">
<path d="M333.598 307.78H264.398C257.598 307.78 252.398 302.191 252.398 295.804V272.651C252.398 265.865 257.998 260.675 264.398 260.675H333.598C340.398 260.675 345.598 266.264 345.598 272.651V295.405C345.598 302.192 340.398 307.78 333.598 307.78Z" fill="white"/>
<path d="M456.402 366.462H387.202C380.402 366.462 375.202 360.873 375.202 354.486V331.333C375.202 324.547 380.802 319.357 387.202 319.357H456.402C463.202 319.357 468.802 324.946 468.802 331.333V354.486C468.802 360.873 463.202 366.462 456.402 366.462Z" fill="white"/>
<path d="M375.203 112.573H284.803V217.961H375.203V112.573Z" fill="white"/>
<path d="M265.603 318.958H252.403C246.003 318.958 240.803 313.768 240.803 307.381V283.429C240.803 277.042 246.003 271.853 252.403 271.853H322.803C329.203 271.853 334.403 277.042 334.403 283.429V307.78C334.403 314.167 329.203 319.357 322.803 319.357H282.003H265.603V318.958Z" fill="#343B43"/>
<path d="M48.002 391.212C48.002 391.212 24.002 427.14 14.402 453.886C5.20196 480.632 -8.39804 513.766 10.002 528.935C28.402 544.104 48.402 530.532 48.402 530.532C48.402 530.532 48.802 549.294 48.402 564.064C48.002 578.835 46.802 594.004 46.802 594.004L196.802 595.202C196.802 595.202 190.402 564.064 188.802 545.701C187.202 526.939 186.402 515.762 186.402 515.762C186.402 515.762 211.202 520.552 218.802 517.758C226.402 515.362 296.402 417.16 296.402 417.16L305.202 370.853C305.202 370.853 296.802 355.285 274.802 353.688C252.802 352.091 243.202 359.277 243.202 359.277L220.002 426.741L198.002 443.507C198.002 443.507 188.402 441.511 178.802 414.366C169.602 387.22 157.202 365.664 127.202 360.873C98.002 356.083 48.002 391.212 48.002 391.212Z" fill="url(#paint0_linear_170_1628)"/>
<path d="M114.798 378.438C114.798 378.438 135.598 368.059 134.398 352.091C133.198 333.329 117.998 322.551 109.198 320.555L110.798 300.196C110.798 300.196 133.598 295.804 139.998 272.252L143.198 286.224C143.198 286.224 147.198 283.03 149.998 273.449C153.998 260.675 142.398 250.695 133.598 248.699C120.798 245.905 110.398 247.502 107.198 251.893L104.798 255.086C104.798 255.086 90.7978 244.707 68.7978 254.687C54.3978 261.074 53.9978 273.449 53.9978 273.449L57.9978 314.966C57.9978 314.966 39.9978 314.966 37.5978 329.337C35.1978 343.708 51.1978 353.688 51.1978 353.688C51.1978 353.688 31.9978 359.676 32.7978 375.244C33.1978 389.616 48.7978 394.406 57.5978 392.41C61.1978 391.612 64.7978 391.212 66.7978 389.216C66.7978 389.216 76.3978 405.983 97.9978 403.188C113.998 401.192 115.998 390.015 115.998 388.019C115.998 385.624 114.798 378.438 114.798 378.438Z" fill="white"/>
<path d="M608.401 358.877C608.401 358.877 619.201 356.881 630.401 364.865C641.601 372.849 643.601 385.624 641.601 396.801C641.601 396.801 656.401 398.797 666.001 405.583C675.601 412.769 682.801 421.152 696.801 454.285C710.801 487.019 716.801 506.979 721.201 525.342C725.601 543.705 726.801 559.274 724.401 573.246C722.001 587.218 716.801 594.403 716.801 594.403H488.401L485.601 429.934C485.601 429.934 501.601 399.595 546.801 393.607C546.801 393.607 540.801 376.043 557.601 364.865C573.601 353.289 608.401 358.877 608.401 358.877Z" fill="url(#paint1_linear_170_1628)"/>
<path d="M604.4 346.103C604.4 346.103 615.6 352.49 622.4 342.91C629.2 333.329 621.6 325.744 618 324.547C614.4 323.349 605.6 321.353 601.6 328.539L600 330.135C600 330.135 596 318.958 598.8 309.776V306.982C598.8 306.982 582 309.776 575.6 310.175C570 310.575 564 309.776 552.8 306.184C552.8 306.184 552 345.704 552.4 354.087C552.8 362.869 558 369.656 566.4 370.454V390.813L558.4 392.011C558.4 392.011 568.4 403.188 575.2 403.188C582 403.188 603.2 398.398 608 396.402C612.8 394.406 615.2 393.608 615.2 393.608L610 392.809L606.8 348.498L604.4 346.103Z" fill="white"/>
<path d="M619.603 512.568C619.603 512.568 602.803 490.213 597.203 485.423C591.603 480.632 584.003 475.043 575.203 474.245L562.003 489.015L554.803 490.612L566.403 526.939L577.203 525.342C577.203 525.342 583.603 526.939 589.203 540.512C589.203 540.512 598.003 537.717 608.003 526.54C618.403 515.362 619.603 512.568 619.603 512.568Z" fill="white"/>
<path d="M551.603 483.027L559.203 473.047C559.203 473.047 549.603 475.043 548.803 477.039L551.603 483.027Z" fill="white"/>
<path d="M299.603 362.869C299.603 362.869 305.603 350.494 305.603 342.51C306.003 334.526 302.403 330.534 298.003 330.534C298.003 330.534 296.003 322.551 287.203 323.748L295.603 298.998C295.603 298.998 296.803 291.014 290.803 290.216C284.803 289.417 281.603 299.397 281.603 299.397L270.403 333.329C270.403 333.329 268.803 340.115 264.003 339.716C259.203 339.716 257.203 335.724 256.803 333.329C256.803 330.934 253.203 323.349 247.203 324.147C241.203 324.946 242.403 330.135 245.603 340.914C248.403 351.692 250.003 354.885 250.003 354.885C250.003 354.885 262.803 350.494 276.803 353.688C291.203 356.881 299.603 362.869 299.603 362.869Z" fill="white"/>
<path d="M433.601 430.733H534.001L581.601 570.052H478.401C478.401 570.052 479.201 567.657 477.201 561.27C475.201 554.484 433.601 430.733 433.601 430.733Z" fill="white"/>
<path d="M572.803 458.676L576.403 454.285L585.603 461.87L581.603 465.862L572.803 458.676Z" fill="white"/>
<path d="M572.8 458.676L582 466.66L562.4 489.015L554.8 490.612L552 483.427L572.8 458.676Z" fill="url(#paint2_linear_170_1628)"/>
<path d="M586.802 345.305C586.802 345.305 581.202 349.297 581.602 353.688C582.002 358.079 582.402 359.277 582.402 359.277C582.402 359.277 569.602 362.071 569.202 356.083C569.202 352.091 572.802 351.692 574.802 351.692C577.202 351.692 580.402 351.692 580.402 349.297C580.402 346.502 583.202 340.115 586.802 345.305Z" fill="#343B43"/>
<path d="M619.998 324.946C619.998 324.946 628.799 311.772 628.399 300.595C627.599 289.417 620.798 283.429 608.798 282.232C608.798 282.232 597.998 269.457 587.598 270.655C577.199 271.453 569.199 277.441 569.199 277.441C569.199 277.441 549.599 273.05 541.199 287.82C532.799 302.99 546.799 315.365 551.599 316.962L551.999 305.385C551.999 305.385 563.999 310.575 577.599 309.377C591.198 308.179 599.199 306.183 599.199 306.183C599.199 306.183 595.199 320.555 599.999 328.139C599.999 328.139 603.999 322.551 611.199 322.551C617.999 322.95 619.998 324.946 619.998 324.946Z" fill="#343B43"/>
<path d="M488 136.126V79.44C488 65.4682 499.6 53.8915 513.2 53.8915H698.8C712.8 53.8915 724.4 65.4682 724.4 79.44V182.433C724.4 196.405 712.8 207.582 698.8 207.582H513.2C499.2 207.582 488 196.005 488 182.433V136.126Z" fill="url(#paint3_linear_170_1628)"/>
<path d="M216.803 425.543L230.803 417.958L413.203 417.559C413.203 417.559 427.603 419.156 434.803 434.725L476.803 560.871C476.803 560.871 484.003 587.617 456.003 594.403L446.003 594.004L216.803 425.543Z" fill="white"/>
<path d="M439.198 595.202H265.198C253.598 595.202 243.598 588.016 239.998 577.637L198.798 458.676C193.198 442.309 205.998 425.144 223.998 425.144H397.998C409.598 425.144 419.598 432.33 423.198 442.709L464.398 561.669C469.998 578.036 457.198 595.202 439.198 595.202Z" fill="#343B43"/>
<path d="M324.35 529.237C330.472 525.709 331.136 515.419 325.833 506.255C320.53 497.09 311.268 492.521 305.146 496.049C299.024 499.578 298.36 509.867 303.663 519.032C308.966 528.196 318.228 532.765 324.35 529.237Z" fill="white"/>
<path d="M111.202 425.144C111.202 425.144 122.802 507.378 187.602 530.931L186.802 515.362C186.802 515.362 131.602 506.181 111.202 425.144Z" fill="#343B43"/>
<path d="M139.6 273.05C139.6 273.05 142.8 287.421 144 300.196C144.4 301.393 153.2 302.591 154.4 306.183C155.6 309.776 148.8 316.563 148.8 316.563C148.8 316.563 152 330.534 144.4 336.123C136.8 341.712 132.4 341.313 132.4 341.313C132.4 341.313 127.6 321.752 106.4 319.756C106.4 319.756 93.5998 323.748 90.3998 312.571C87.1998 301.792 96.7998 297.401 100.4 297.8C104 298.2 108.4 299.796 108.4 299.796C108.4 299.796 122.4 291.014 127.6 285.824C133.2 281.034 139.6 273.05 139.6 273.05Z" fill="white"/>
<path d="M589.201 540.911L583.601 531.729C583.601 531.729 575.601 540.113 577.601 543.705C580.001 546.899 589.201 540.911 589.201 540.911Z" fill="#343B43"/>
<path d="M619.203 512.568L612.803 504.185C612.803 504.185 618.803 500.592 622.403 503.386C625.603 506.58 619.203 512.568 619.203 512.568Z" fill="#343B43"/>
<path d="M565.199 370.454L565.999 391.212L557.999 392.41C557.999 392.41 549.599 379.636 564.399 370.853H565.199V370.454Z" fill="#343B43"/>
<path d="M607.601 367.261C607.601 367.261 626.8 368.458 626.8 378.039C626.8 387.62 614.401 392.809 614.401 392.809H609.201L607.601 367.261Z" fill="#343B43"/>
<path d="M527.202 153.691C537.143 153.691 545.202 145.648 545.202 135.727C545.202 125.806 537.143 117.763 527.202 117.763C517.261 117.763 509.202 125.806 509.202 135.727C509.202 145.648 517.261 153.691 527.202 153.691Z" fill="#FEFEFE"/>
<path d="M330.801 135.727C334.777 135.727 338.001 132.51 338.001 128.541C338.001 124.573 334.777 121.356 330.801 121.356C326.824 121.356 323.601 124.573 323.601 128.541C323.601 132.51 326.824 135.727 330.801 135.727Z" fill="url(#paint4_linear_170_1628)"/>
<path d="M598.403 306.583C594.003 308.179 565.603 304.986 554.003 300.595C544.403 297.002 546.003 285.026 546.803 281.433C544.803 283.03 542.803 285.026 541.603 287.82C533.203 302.99 547.203 315.365 552.003 316.962L552.403 305.385C552.403 305.385 564.403 310.575 578.003 309.377C589.203 308.579 596.403 307.381 598.403 306.583C598.803 306.583 598.803 306.583 598.403 306.583Z" fill="white"/>
<path d="M600.003 306.184C600.003 306.184 599.603 306.982 598.403 308.18C597.603 312.171 596.003 322.551 599.603 328.539C599.603 328.539 600.803 326.543 603.203 324.946C600.003 322.95 600.003 306.184 600.003 306.184Z" fill="white"/>
<path d="M576.801 372.849C565.601 372.849 554.001 368.458 552.001 358.079C551.601 355.684 551.601 350.893 551.201 346.103V342.51C551.201 338.119 551.601 307.78 551.601 306.184C553.601 306.583 552.801 338.119 553.201 342.51V346.103C553.201 350.494 553.601 355.285 554.001 357.68C556.401 368.458 570.001 372.051 582.001 370.454C586.001 370.055 589.201 369.257 592.001 368.458C590.001 371.253 586.801 372.051 582.401 372.45C580.401 372.849 578.401 372.849 576.801 372.849Z" fill="#343B43"/>
<path d="M609.199 393.607C607.999 392.41 605.999 346.901 605.999 346.901C607.999 346.901 610.399 392.41 610.399 392.41C609.199 393.608 609.199 393.607 609.199 393.607Z" fill="#343B43"/>
<path d="M611.999 349.297C609.199 349.297 605.999 348.498 603.599 346.502C609.199 348.099 615.199 348.099 619.599 344.506C624.399 340.514 625.199 332.93 621.199 328.139C619.199 325.744 616.399 324.147 613.199 323.748C609.999 323.349 607.199 324.547 604.799 326.543C603.199 327.74 601.999 329.337 601.199 331.333C599.999 328.539 601.599 326.543 603.199 324.946C605.999 322.551 609.599 321.353 613.199 321.752C616.799 322.151 619.999 323.748 622.399 326.543C627.199 332.531 626.399 341.313 620.399 346.103C618.399 348.498 615.199 349.297 611.999 349.297Z" fill="#343B43"/>
<path d="M552.802 319.756C552.002 318.159 554.402 312.97 562.002 314.966C555.602 315.365 554.002 318.958 554.002 319.357C553.602 319.357 553.202 319.756 552.802 319.756Z" fill="#343B43"/>
<path d="M589.203 320.555C583.603 313.768 578.403 316.962 578.403 316.962C577.203 314.966 584.003 310.974 590.003 318.958C589.603 320.155 589.603 320.555 589.203 320.555Z" fill="#343B43"/>
<path d="M577.601 360.873C576.401 360.873 575.201 360.873 574.001 360.474C571.601 359.676 569.601 358.079 568.801 356.482C568.401 354.885 568.401 353.688 569.201 352.49C570.401 350.894 572.401 350.494 574.801 350.494C577.601 350.894 578.001 350.494 578.401 350.095C578.801 349.696 579.201 349.297 579.601 346.502C580.001 344.107 581.201 342.51 583.201 341.712C584.401 341.313 586.001 341.313 587.201 342.51C588.401 343.708 589.201 345.704 589.201 348.498C589.201 352.49 587.201 356.083 584.401 358.478C582.401 360.075 580.001 360.873 577.601 360.873ZM574.001 352.49C572.801 352.49 571.601 352.889 571.201 353.688C570.801 354.087 570.801 354.885 570.801 355.684C571.201 356.482 572.401 357.68 574.801 358.478C576.401 358.877 580.001 359.676 583.601 356.881C586.001 355.285 587.601 352.091 587.601 348.898C587.601 346.502 586.801 345.305 586.401 344.506C585.601 344.107 585.201 343.708 584.401 344.107C583.201 344.506 582.401 345.704 582.401 347.301C582.001 350.494 581.201 351.293 580.401 352.091C579.201 352.889 578.401 353.289 575.201 352.889C574.401 352.49 574.001 352.49 574.001 352.49Z" fill="#343B43"/>
<path d="M582.802 359.676C578.002 352.091 583.602 346.502 587.202 344.506C588.002 346.502 579.602 351.293 583.602 358.478C583.202 359.676 583.202 359.676 582.802 359.676Z" fill="#343B43"/>
<path d="M615.999 343.309C615.599 343.309 605.599 338.119 605.599 338.119C605.199 336.522 614.399 327.341 614.399 327.341C615.999 328.938 607.999 336.922 607.999 336.922L616.799 341.313C616.799 342.91 616.399 343.309 615.999 343.309Z" fill="#343B43"/>
<path d="M583.6 324.547C582.8 324.547 582 324.946 582 327.74C581.6 330.934 582.8 331.732 583.6 331.732C584.4 331.732 585.2 330.534 585.2 328.139C584.8 325.744 584.8 324.547 583.6 324.547Z" fill="#343B43"/>
<path d="M559.199 324.547C558.399 324.547 557.599 324.946 557.599 327.74C557.199 330.934 557.999 331.732 558.799 331.732C559.599 331.732 560.399 330.534 560.399 328.139C559.999 325.744 559.999 324.547 559.199 324.547Z" fill="#343B43"/>
<path d="M620 326.543C624.4 316.563 632 300.994 624 290.615C622 288.22 619.6 286.224 616.4 285.026C614.8 284.627 613.2 284.228 612 283.829C608.8 283.429 608.4 283.429 608 283.03C609.6 281.833 610.8 281.833 611.2 281.833C613.6 282.232 615.2 282.631 617.2 283.03C620.4 284.228 623.6 286.623 625.6 289.417C634.8 300.994 626.8 317.76 620.8 326.143C620.8 326.543 620.4 326.543 620 326.543Z" fill="#343B43"/>
<path d="M600.803 289.816C601.203 287.421 604.803 284.627 606.403 283.429C607.603 285.425 602.803 289.018 601.203 289.816H600.803Z" fill="#343B43"/>
<path d="M562.404 489.814C561.604 488.217 580.004 466.261 580.004 466.261L572.804 460.273L552.804 484.225C551.204 483.027 572.004 458.277 572.004 458.277C573.604 458.277 582.404 465.862 582.404 465.862C582.404 467.459 563.604 489.814 563.604 489.814C562.804 489.814 562.804 489.814 562.404 489.814Z" fill="#343B43"/>
<path d="M581.205 467.459C580.405 465.862 583.205 462.269 583.205 462.269L576.005 455.882L572.805 459.475C571.205 458.277 574.805 453.886 574.805 453.886C576.405 453.886 585.205 461.471 585.205 461.471C585.205 463.068 581.605 467.459 581.605 467.459C582.005 467.459 581.605 467.459 581.205 467.459Z" fill="#343B43"/>
<path d="M559.201 506.58C562.001 503.786 564.801 502.987 568.401 501.391C565.601 504.983 562.801 505.782 559.201 506.58C559.601 506.58 559.201 506.58 559.201 506.58Z" fill="#343B43"/>
<path d="M553.999 491.81C559.599 488.616 566.399 487.419 570.399 484.624C567.599 489.415 559.999 491.011 553.999 491.81C554.399 491.81 553.999 491.81 553.999 491.81Z" fill="#343B43"/>
<path d="M563.201 517.758C569.201 514.963 572.801 514.165 572.801 514.165C573.201 516.161 569.201 517.358 563.201 517.758Z" fill="#343B43"/>
<path d="M549.201 477.439C554.001 472.249 560.001 471.85 560.401 471.85C560.401 473.846 554.801 474.245 549.601 477.439H549.201Z" fill="#343B43"/>
<path d="M619.599 513.766C618.399 512.967 599.199 488.217 593.999 483.826C585.599 476.64 573.999 475.443 573.999 475.443C574.799 473.447 586.399 474.644 595.199 482.229C600.399 486.62 619.199 510.971 619.999 512.169C619.999 513.766 619.999 513.766 619.599 513.766Z" fill="#343B43"/>
<path d="M590.403 541.709C584.803 533.326 579.603 526.54 578.003 526.54C577.603 526.54 576.803 526.54 576.003 526.939C574.003 527.338 570.403 528.137 566.403 527.738C570.403 525.742 573.603 525.342 575.603 524.943C576.803 524.943 577.203 524.544 578.003 524.544C581.203 524.544 588.403 535.721 591.203 540.113C590.803 541.709 590.403 541.709 590.403 541.709Z" fill="#343B43"/>
<path d="M684.799 554.883C671.999 533.326 636.399 511.37 621.999 504.584C637.999 509.774 673.199 531.729 685.599 553.286C685.199 554.883 685.199 554.883 684.799 554.883Z" fill="#343B43"/>
<path d="M636.801 596C615.201 581.629 593.201 562.467 577.201 544.504C594.801 560.871 616.401 580.032 637.201 594.004C637.201 596 637.201 596 636.801 596Z" fill="#343B43"/>
<path d="M714.802 596C719.202 585.222 722.402 574.044 722.802 562.867C724.402 526.141 710.802 491.81 695.202 457.08C694.002 454.685 693.202 452.289 692.002 449.894C685.202 434.326 677.202 415.164 663.602 406.382C654.402 400.394 642.802 398.398 631.602 396.402L629.202 396.003C629.602 394.007 632.002 394.406 632.002 394.406C643.602 396.402 655.202 398.398 664.802 404.785C678.802 413.967 687.202 433.527 694.002 449.495C695.202 451.89 696.002 454.285 697.202 456.681C712.802 491.81 726.802 526.141 725.202 563.266C724.802 574.843 721.202 586.419 716.002 596C715.602 596 715.202 596 714.802 596Z" fill="#343B43"/>
<path d="M614.803 394.007C612.403 394.007 610.803 393.607 608.803 393.607C610.803 391.611 612.403 391.611 614.803 392.011C616.003 393.607 615.603 394.007 614.803 394.007Z" fill="#343B43"/>
<path d="M581.203 570.851H477.603C477.603 568.855 580.003 568.855 580.003 568.855L532.803 431.93H432.803C432.803 429.934 533.603 429.934 533.603 429.934C534.803 430.733 582.403 569.653 582.403 569.653C582.003 570.851 581.603 570.851 581.203 570.851Z" fill="#343B43"/>
<path d="M580 545.701C578.8 545.701 578 545.302 577.2 544.504C575.2 542.108 576.8 537.318 582.4 530.133C578.4 538.516 577.6 542.108 578.4 543.306C580 545.302 590.8 540.512 604.4 528.536C610.4 523.346 615.2 517.757 618.4 512.967C622 507.778 622.4 505.382 621.6 504.584C620.4 503.386 618 504.185 614 506.181C616.8 502.189 620.8 500.592 623.2 502.987C624.8 504.983 624 508.576 620.4 514.165C617.2 518.955 612 524.943 606 530.133C596.4 538.516 585.6 545.701 580 545.701Z" fill="#343B43"/>
<path d="M29.6007 536.919C22.0007 536.919 13.6007 534.524 6.00065 525.741C-13.1993 504.185 18.8007 432.729 46.4007 391.212C15.6007 441.112 -8.79935 505.782 7.60065 524.145C25.2007 543.705 47.6007 529.733 48.4007 529.334C49.2006 531.33 40.4007 536.919 29.6007 536.919Z" fill="#343B43"/>
<path d="M129.999 290.615C133.199 284.627 138.399 285.825 140.399 287.022C139.199 288.619 134.399 286.224 130.799 290.216C130.399 290.615 129.999 290.615 129.999 290.615Z" fill="#343B43"/>
<path d="M135.2 294.208C136 294.208 136.8 294.607 136.8 297.401C137.2 300.595 136.4 301.393 135.6 301.393C134.8 301.393 134 300.196 134 297.8C134 295.804 134 294.607 135.2 294.208Z" fill="#343B43"/>
<path d="M103.6 322.95C97.5998 322.95 91.9998 318.559 91.1998 312.171C89.9998 305.385 94.7998 298.998 101.6 297.8C106 297.002 110.4 298.599 113.2 302.192C109.2 300.994 105.6 299.397 102 300.196C96.3998 300.994 92.3998 306.583 93.1998 312.171C93.9998 317.76 99.5998 321.752 105.2 320.954C107.2 320.555 109.2 319.756 110.8 318.159C110.4 321.353 108 322.551 105.6 322.95C104.8 322.95 104 322.95 103.6 322.95Z" fill="#343B43"/>
<path d="M101.602 316.962C100.802 314.966 106.802 309.776 106.802 309.776L99.2021 305.784C100.002 303.788 108.802 308.579 108.802 308.579C109.202 310.175 102.002 316.563 102.002 316.563C102.002 316.962 101.602 316.962 101.602 316.962Z" fill="#343B43"/>
<path d="M133.202 342.51C139.202 339.317 144.002 336.522 146.402 332.531C150.402 325.744 148.002 316.962 148.002 316.962C150.802 313.369 154.402 308.579 153.602 306.583C153.202 304.587 148.002 302.99 144.402 302.591C143.602 301.393 141.202 278.639 139.602 274.248C143.202 277.841 145.202 296.603 145.602 300.595C148.402 300.994 155.202 302.591 156.002 306.184C156.802 309.776 152.002 315.365 150.402 317.361C150.802 319.756 152.402 327.341 148.402 334.127C145.202 338.119 140.402 341.313 133.202 342.51Z" fill="#343B43"/>
<path d="M249.999 356.083C247.999 353.289 246.799 349.297 245.999 345.704C245.199 343.309 244.799 340.914 244.399 339.716C243.199 336.123 241.599 331.333 242.799 327.74C243.199 325.744 244.399 324.147 245.999 323.349C247.999 322.551 250.399 322.551 252.799 324.147C254.399 325.345 255.599 326.543 256.799 328.938C257.199 329.736 257.599 330.934 257.999 332.131C258.799 334.926 259.599 338.119 261.999 338.918C265.999 339.716 269.199 336.123 271.199 327.74C272.399 323.349 273.199 320.155 273.999 316.962C276.399 308.579 278.799 302.192 281.999 296.204C283.199 293.808 283.999 292.212 285.599 290.615C286.799 289.816 288.399 289.417 289.599 289.417C291.599 289.417 293.599 290.615 294.799 292.212C296.399 294.208 296.799 297.8 295.999 300.994C294.799 305.385 290.399 318.159 288.399 322.95C289.999 322.95 292.399 322.95 294.399 324.547C296.399 325.744 297.599 327.74 297.999 330.135C299.199 330.534 301.999 331.333 303.999 333.728C305.999 336.123 306.799 338.918 306.399 342.91C304.799 339.716 303.999 336.922 302.399 335.325C300.399 332.93 296.799 332.53 296.799 332.53C295.599 329.337 294.399 327.74 293.199 326.543C290.399 324.946 287.199 325.744 287.199 325.744C285.999 324.147 292.399 306.184 293.999 300.994C294.799 298.599 294.399 295.804 293.199 294.208C292.399 293.01 291.199 292.611 289.599 292.212C288.399 292.212 287.599 292.611 286.799 293.01C285.599 293.808 284.799 295.405 283.999 297.002C280.799 303.389 278.399 310.175 275.999 318.159C275.199 321.353 273.999 324.547 273.199 328.938C270.799 338.518 266.799 342.91 261.199 341.712C257.599 340.914 256.399 336.522 255.599 333.329C255.199 332.131 255.199 330.934 254.799 330.535C253.599 328.539 252.799 327.341 251.199 326.543C249.599 325.744 247.999 325.345 246.399 326.143C245.199 326.543 244.399 327.74 243.999 328.938C243.199 332.131 244.399 336.522 245.599 339.716C245.999 341.313 246.799 343.708 247.599 346.103C248.399 349.696 249.599 353.688 250.399 355.684C250.399 356.083 250.399 356.083 249.999 356.083Z" fill="#343B43"/>
<path d="M292.398 345.704C296.798 336.123 296.798 330.534 296.798 330.534C298.798 330.934 298.798 336.922 293.198 345.305C292.798 345.305 292.798 345.704 292.398 345.704Z" fill="#343B43"/>
<path d="M282.797 337.321C285.997 326.543 286.397 323.748 286.397 323.748C288.397 324.147 287.997 326.942 283.597 336.922C283.597 336.922 283.197 337.321 282.797 337.321Z" fill="#343B43"/>
<path d="M299.601 364.466C305.201 352.889 305.201 340.514 305.201 340.514C307.201 340.914 307.201 353.289 300.401 364.067C300.001 364.067 299.601 364.466 299.601 364.466Z" fill="#343B43"/>
<path d="M197.201 596C191.201 580.431 186.801 535.721 185.601 515.362C188.801 535.721 193.201 580.032 198.401 594.802C197.601 596 197.201 596 197.201 596Z" fill="#343B43"/>
<path d="M47.2005 594.802C46.4005 594.802 46.0005 594.403 46.0005 593.605C46.0005 593.206 49.6005 556.08 46.8005 516.56C45.6005 498.596 46.0005 477.039 46.0005 459.874C46.0005 453.487 46.0005 447.499 46.0005 441.91C46.0005 422.749 48.0005 406.382 52.0005 392.41C50.0005 406.781 48.0005 423.148 48.0005 441.91C48.0005 447.1 48.0005 453.088 48.0005 459.874C47.6005 477.039 47.6005 498.197 48.8005 516.56C51.6005 556.08 48.0005 593.605 48.0005 593.605C48.4005 594.403 47.6005 594.802 47.2005 594.802Z" fill="#343B43"/>
<path d="M198.402 444.705C196.002 443.906 194.402 443.108 192.802 441.511C188.002 437.519 185.202 431.531 182.802 425.942C181.602 423.148 180.402 420.354 179.202 417.559C175.602 408.777 172.002 399.196 167.202 390.813C158.802 375.644 148.002 366.462 133.202 362.869C148.802 364.466 160.402 374.047 168.802 389.615C173.602 398.398 177.202 407.579 180.802 416.761C182.002 419.555 183.202 422.35 184.402 425.144C186.802 430.733 189.202 436.321 193.602 439.914C195.202 441.112 196.402 441.91 198.402 442.709C199.202 444.305 198.802 444.705 198.402 444.705Z" fill="#343B43"/>
<path d="M220 425.942C218.8 424.745 240.4 359.676 240.4 359.676C240.8 358.877 248.8 350.095 272.4 352.091C298.4 354.486 306 369.257 306.4 370.055C303.6 388.019 301.2 401.991 297.6 417.16C298.8 401.591 301.2 387.62 304 371.252C302.8 368.857 294.8 356.482 272 354.486C251.2 352.49 243.2 359.676 242.4 360.873L221.2 425.543C220.8 425.543 220.4 425.942 220 425.942Z" fill="#343B43"/>
<path d="M209.2 518.955C194.8 518.955 180.8 515.762 168.8 509.774C160 505.382 152 499.395 144.8 491.81C138.8 485.423 132.8 478.237 128 469.854C124 463.068 120.4 455.882 117.2 448.297C115.2 442.709 113.2 437.519 111.6 431.93C111.2 430.334 110.4 427.938 110 425.543C112.4 427.539 113.2 429.535 113.6 431.531C115.2 436.721 116.8 442.309 119.2 447.499C122.4 455.084 125.6 462.269 129.6 468.656C134.4 476.64 140 484.225 146 490.213C153.2 497.399 161.2 503.386 169.6 507.778C182 513.766 196.4 516.959 211.6 516.56C214 516.56 216 516.56 218.4 516.161C216 518.556 214 518.556 211.6 518.955C210.8 518.955 210 518.955 209.2 518.955Z" fill="#343B43"/>
<path d="M558.803 393.208C558.803 391.212 566.403 390.414 566.403 390.414C566.403 392.41 558.803 393.208 558.803 393.208Z" fill="#343B43"/>
<path d="M483.201 431.93C496.001 409.575 516.001 397.599 544.801 392.41C516.801 399.196 497.201 410.773 484.001 431.132C484.001 431.531 483.601 431.93 483.201 431.93Z" fill="#343B43"/>
<path d="M325.2 525.342C323.2 525.342 320.8 524.943 318.8 523.745C314.8 521.749 311.2 518.157 308.4 513.366C302.8 503.786 303.6 492.608 310 489.015C313.2 487.019 317.2 487.419 321.6 489.415C325.6 491.411 329.2 495.003 332 499.794C334.8 504.584 336 509.374 335.6 514.165C335.2 518.955 333.2 522.548 330 524.145C328.8 524.943 327.2 525.342 325.2 525.342ZM315.2 489.814C313.6 489.814 312.4 490.213 311.2 491.011C305.6 494.205 305.2 503.786 310.4 512.568C312.8 516.959 316.4 520.153 320 522.149C323.6 523.745 326.8 524.145 329.6 522.548C332.4 520.951 333.6 518.157 334 514.165C334.4 510.173 333.2 505.382 330.4 500.991C328 496.6 324.4 493.407 320.8 491.411C318.8 490.213 316.8 489.814 315.2 489.814Z" fill="#343B43"/>
<path d="M446.001 470.253C444.801 469.455 434.001 435.922 434.001 435.922C430.401 425.543 420.801 418.358 409.601 418.358H235.601C233.601 418.358 232.001 418.358 230.001 418.757L214.801 427.14C213.601 425.144 228.801 416.761 228.801 416.761C231.201 416.362 233.201 415.963 235.201 415.963H409.201C421.201 415.963 431.601 423.547 435.601 434.725L446.801 468.257C446.401 470.253 446.001 470.253 446.001 470.253Z" fill="#343B43"/>
<path d="M450.803 596C459.203 594.004 466.803 590.012 471.603 583.226C476.403 576.439 477.603 568.056 475.203 560.471L459.603 512.967C461.603 512.169 477.203 559.673 477.203 559.673C480.003 568.056 478.803 577.238 473.203 584.423C468.003 592.008 460.003 596 450.803 596Z" fill="#343B43"/>
<path d="M439.203 596H265.203C253.203 596 242.803 588.814 238.803 578.036L197.603 459.076C194.803 451.092 196.003 442.709 200.803 435.922C206.003 428.737 214.403 424.346 223.603 424.346H397.603C409.603 424.346 420.003 431.531 424.003 442.309L465.203 561.27C468.003 569.254 466.803 577.637 462.003 584.423C456.803 592.008 448.403 596 439.203 596ZM224.003 426.342C215.603 426.342 207.603 430.333 202.803 437.12C198.403 443.507 197.203 451.092 199.603 458.277L240.803 577.238C244.403 587.218 254.003 594.004 265.203 594.004H439.203C447.603 594.004 455.603 590.012 460.403 583.226C464.803 576.839 466.003 569.254 463.603 562.068L422.003 443.108C418.403 433.128 408.803 426.342 397.603 426.342H224.003Z" fill="#343B43"/>
<path d="M740.399 486.62C740.399 484.624 741.999 484.225 745.199 483.826C742.399 486.62 740.399 486.62 740.399 486.62ZM756.799 482.628C760.399 479.435 763.999 477.838 767.999 476.241C765.199 479.834 761.199 481.431 756.799 482.628C757.199 482.628 757.199 482.628 756.799 482.628ZM779.199 473.048C782.399 469.056 785.599 467.06 789.199 464.664C787.199 468.656 783.599 470.652 779.999 472.648C779.599 473.048 779.599 473.048 779.199 473.048ZM799.599 459.475C801.999 455.084 804.799 452.289 807.599 449.495C806.399 453.886 803.199 456.68 800.399 459.475C799.999 459.475 799.599 459.475 799.599 459.475ZM815.999 441.91C817.599 437.12 819.599 433.527 821.599 430.334C821.199 435.124 819.199 438.317 816.799 441.511C816.799 441.511 816.399 441.91 815.999 441.91ZM828.399 420.753C829.199 415.563 830.399 411.97 831.599 407.979C832.399 412.37 830.799 416.362 829.199 419.954C829.199 420.753 828.799 420.753 828.399 420.753ZM835.599 397.599C834.799 397.599 834.399 396.801 834.399 396.402C835.199 392.41 835.999 388.418 836.399 384.426C837.999 388.817 837.199 392.809 836.399 396.801C836.399 397.599 835.999 397.599 835.599 397.599ZM838.799 373.648C837.999 373.648 837.599 373.248 837.599 372.45C837.599 369.656 837.999 366.861 837.999 364.067C837.999 362.869 837.999 361.672 837.999 360.474C839.999 361.672 839.999 362.869 839.999 364.067C839.999 366.861 839.999 369.656 839.599 372.45C839.599 373.248 839.199 373.648 838.799 373.648ZM838.399 349.297C837.199 344.506 836.399 340.514 835.999 336.123C838.799 339.716 839.199 344.107 839.599 348.099C838.399 349.297 838.399 349.297 838.399 349.297ZM835.199 325.345C833.199 320.555 832.399 316.563 831.199 312.97C834.399 316.163 835.199 320.155 835.999 324.147C835.199 325.345 835.199 325.345 835.199 325.345ZM828.399 302.192C825.999 297.8 824.399 293.808 822.799 290.615C826.399 293.409 827.999 297.002 829.599 300.994C828.799 301.792 828.399 302.192 828.399 302.192ZM817.599 280.236C814.399 276.244 812.399 273.05 809.599 269.857C813.599 271.853 815.999 275.046 818.399 278.639C817.999 280.236 817.999 280.236 817.599 280.236ZM802.399 261.474C798.799 258.28 795.599 255.486 792.799 253.09C797.199 253.889 800.399 256.683 803.199 259.478C803.199 261.074 802.799 261.474 802.399 261.474ZM783.599 246.304C779.599 243.909 775.999 241.913 772.399 240.316C777.199 240.316 780.799 242.312 783.999 244.308C784.399 245.905 783.999 246.304 783.599 246.304ZM761.599 235.526C757.599 233.929 753.599 232.731 749.599 231.933C753.999 230.735 757.999 232.332 761.999 233.53C762.399 235.526 761.999 235.526 761.599 235.526ZM737.999 229.538C730.399 228.34 725.999 228.34 725.999 228.34C725.999 226.344 730.799 226.344 738.399 227.542C739.199 229.139 738.799 229.538 737.999 229.538Z" fill="#343B43"/>
<path d="M72.799 230.735C70.399 226.344 69.199 222.352 67.999 218.36C71.199 221.554 72.399 225.546 73.999 229.139C73.199 230.735 73.199 230.735 72.799 230.735ZM65.599 207.582C63.599 202.792 62.399 198.8 61.599 194.808C64.399 198.001 65.599 201.993 66.399 205.985C65.999 207.582 65.999 207.582 65.599 207.582ZM60.399 183.63C59.199 180.836 58.799 179.239 58.799 177.642C58.399 175.247 58.399 172.852 57.999 170.457C60.399 172.453 60.399 174.848 60.799 177.243C61.199 178.84 61.199 180.836 61.599 182.433C60.799 183.63 60.799 183.63 60.399 183.63ZM59.199 159.678C58.399 159.678 57.999 159.279 57.999 158.481C57.999 154.489 58.799 150.098 59.199 146.106C60.799 150.497 60.399 154.489 59.999 158.481C60.399 158.88 59.599 159.678 59.199 159.678ZM63.199 135.727C62.399 135.727 61.999 134.928 61.999 134.529C63.199 130.537 64.399 126.545 65.999 122.952C66.399 127.344 65.199 131.336 63.999 134.928C63.999 135.328 63.599 135.727 63.199 135.727ZM72.399 113.372C73.599 108.182 75.599 104.989 78.399 101.396C77.599 105.787 75.599 109.38 73.599 112.573C73.199 112.973 72.799 113.372 72.399 113.372ZM220.799 110.577C223.999 107.783 226.399 104.989 227.999 100.597C228.399 106.186 225.199 109.779 220.799 110.577C221.199 110.577 221.199 110.577 220.799 110.577ZM210.399 106.585C207.199 102.993 205.599 99.0007 204.799 94.6095C207.599 98.2023 208.799 102.194 211.199 104.989C210.799 106.585 210.399 106.585 210.399 106.585ZM87.199 93.8111C89.199 89.0208 92.399 86.2264 95.599 83.8312C93.599 87.8232 90.799 90.6175 87.999 93.4119C87.599 93.8111 87.199 93.8111 87.199 93.8111ZM227.999 90.6176C225.599 87.0248 223.199 84.2304 219.599 81.0368C224.799 82.6336 227.199 85.8272 228.799 89.0208C228.399 90.6175 227.999 90.6176 227.999 90.6176ZM206.399 83.432C205.599 83.432 205.199 82.6336 205.199 82.2344C205.599 79.0409 206.399 76.2465 207.599 73.0529C204.799 71.4561 201.999 70.2585 199.199 69.0609C202.799 68.2626 205.599 69.8593 208.399 71.0569C208.799 77.0449 207.999 79.8392 207.599 82.6336C207.199 83.0328 206.799 83.432 206.399 83.432ZM466.799 79.8392C464.799 77.0449 463.599 75.0489 462.399 73.0529C465.599 73.8513 466.799 75.8473 467.999 78.2425C467.199 79.8392 467.199 79.8392 466.799 79.8392ZM105.999 78.6417C106.799 75.8473 107.999 75.0489 109.199 74.2505C111.599 73.0529 113.999 71.8553 115.999 70.6577C114.799 73.8513 112.399 75.0489 109.999 76.2465C108.799 77.0449 107.599 77.8433 106.399 78.6417H105.999ZM127.599 67.8634C131.199 64.2706 135.199 63.4722 139.199 62.2746C135.599 65.4682 131.999 66.6658 127.599 67.8634C127.999 67.8634 127.999 67.8634 127.599 67.8634ZM187.599 65.069C183.599 63.8714 179.599 63.073 175.599 62.6738C179.999 61.077 183.999 61.8754 187.999 63.073C188.399 64.6698 187.999 65.069 187.599 65.069ZM456.399 63.8714C453.199 60.2786 450.399 57.0851 447.999 53.8915C452.399 55.4883 454.799 58.6818 457.199 61.8754C456.799 63.8714 456.799 63.8714 456.399 63.8714ZM151.599 62.6738C155.199 60.2786 159.199 59.8794 163.199 59.8794C159.199 61.8754 155.199 62.2746 151.599 62.6738ZM214.799 60.6778C215.999 55.8875 218.399 52.2947 221.199 49.1011C219.999 53.4923 217.999 57.0851 215.599 60.2786C215.599 60.6778 215.199 60.6778 214.799 60.6778ZM440.399 45.5084C436.799 42.3148 433.599 39.5204 430.799 37.1253C435.199 37.9236 438.399 40.718 441.199 43.5124C441.199 45.5084 440.799 45.5084 440.399 45.5084ZM230.399 41.9156C232.399 37.5244 235.599 34.7301 239.199 31.9357C237.199 35.9277 233.999 38.722 231.199 41.5164C230.799 41.9156 230.799 41.9156 230.399 41.9156ZM421.599 29.9397C417.599 27.5445 414.399 25.1494 410.799 23.1534C415.599 23.5526 418.799 25.5486 421.999 27.9437C422.399 29.9397 421.999 29.9397 421.599 29.9397ZM249.599 27.1453C252.399 23.1534 255.999 20.7582 259.599 19.1614C257.199 22.7542 253.599 25.1494 249.999 27.1453C249.999 27.1453 249.599 27.1453 249.599 27.1453ZM400.799 17.5646C396.799 15.5687 392.799 13.9719 389.199 12.7743C393.599 12.3751 397.599 13.9719 401.199 15.5687C401.599 17.5646 401.199 17.5646 400.799 17.5646ZM271.199 15.5687C274.399 11.9759 278.399 10.3791 281.999 8.78232C278.799 11.9759 275.199 13.5727 271.599 15.1695C271.199 15.5687 271.199 15.5687 271.199 15.5687ZM377.999 8.78232C373.999 7.58473 369.999 6.38714 365.999 5.58875C370.399 4.39116 374.399 5.58875 378.399 6.78634C378.799 8.78232 378.399 8.78232 377.999 8.78232ZM293.999 7.58473C297.599 4.39116 301.599 3.59277 305.599 2.79437C301.999 5.18955 297.999 6.38714 293.999 7.58473ZM354.399 3.59277C350.399 3.19357 346.399 2.79437 342.399 2.39518C346.799 0.399196 350.799 0.798392 354.799 1.59678C355.199 3.19357 354.799 3.59277 354.399 3.59277ZM317.999 2.79437C321.999 0.399196 326.399 0 329.999 0C325.999 1.99598 321.999 2.39518 317.999 2.79437Z" fill="#343B43"/>
<path d="M810.002 596H1.20215C1.20215 594.004 810.002 594.004 810.002 594.004C811.202 595.601 810.402 596 810.002 596Z" fill="#343B43"/>
<path d="M680.003 423.947C678.803 422.749 678.803 256.284 678.803 256.284C680.803 256.284 680.803 423.148 680.803 423.148C681.203 423.547 680.803 423.947 680.003 423.947Z" fill="#343B43"/>
<path d="M459.999 144.908H379.999C379.999 142.912 459.999 142.912 459.999 142.912C460.799 144.11 460.399 144.908 459.999 144.908Z" fill="#343B43"/>
<path d="M166.003 192.812C164.803 191.614 164.803 169.259 164.803 169.259C164.803 154.888 176.803 142.912 191.203 142.912H278.003C278.003 144.908 191.203 144.908 191.203 144.908C177.603 144.908 166.803 155.687 166.803 169.259V191.614C166.803 192.013 166.403 192.812 166.003 192.812Z" fill="#343B43"/>
<path d="M166.003 386.821C164.803 385.624 164.803 249.498 164.803 249.498C166.803 249.498 166.803 385.624 166.803 385.624C166.803 386.422 166.403 386.821 166.003 386.821Z" fill="#343B43"/>
<path d="M683.202 239.518H497.602C483.202 239.518 471.202 227.542 471.202 213.171V109.779C471.202 95.408 483.202 83.4321 497.602 83.4321H683.202C697.602 83.4321 709.602 95.408 709.602 109.779V212.772C709.602 227.542 697.602 239.518 683.202 239.518ZM497.602 85.8272C484.002 85.8272 473.202 96.6055 473.202 110.178V213.171C473.202 226.743 484.002 237.522 497.602 237.522H683.202C696.802 237.522 707.602 226.743 707.602 213.171V109.779C707.602 96.2063 696.802 85.428 683.202 85.428H497.602V85.8272Z" fill="#343B43"/>
<path d="M574.798 403.987C573.998 403.587 559.198 397.999 555.198 389.616C553.598 386.422 553.998 381.232 555.598 377.24C556.798 374.446 559.198 370.853 563.998 369.257C560.798 372.849 558.798 376.043 557.598 378.438C555.998 382.031 555.998 386.023 557.198 388.817C560.398 396.003 573.198 401.192 574.798 401.991C600.398 399.995 623.998 390.414 625.198 381.232C625.598 378.837 624.798 376.442 623.598 374.845C621.198 371.652 615.598 369.257 607.598 368.458C616.398 367.261 622.398 369.656 625.198 373.648C626.798 376.043 627.598 378.837 627.198 381.632C625.998 393.208 598.798 402.39 574.798 403.987Z" fill="#343B43"/>
<path d="M560.399 407.979C551.999 403.987 546.799 398.797 544.399 392.41C542.399 386.422 543.199 379.636 546.799 373.249C549.199 368.857 551.599 366.063 555.999 363.668C553.199 367.66 550.799 370.055 548.799 374.047C545.599 380.035 544.799 386.023 546.799 391.612C548.799 397.599 553.599 402.39 561.199 405.983C560.799 407.579 560.799 407.979 560.399 407.979Z" fill="#343B43"/>
<path d="M640.402 397.999C639.602 397.999 639.202 397.2 639.202 396.801C639.202 396.801 644.002 376.841 628.402 366.063C620.802 360.873 613.602 360.474 607.202 360.474C614.002 358.478 621.602 359.277 629.602 364.466C646.402 376.043 641.602 397.2 641.202 397.599C641.202 397.599 640.802 397.999 640.402 397.999Z" fill="#343B43"/>
<path d="M584.803 409.975C630.803 402.39 635.203 385.224 635.203 385.224C637.203 386.422 633.203 404.386 584.803 409.975C585.203 409.975 584.803 409.975 584.803 409.975Z" fill="#343B43"/>
<path d="M566.398 392.41C565.198 391.212 564.398 370.454 564.398 370.454C566.398 370.454 567.198 391.212 567.198 391.212C566.398 392.41 566.398 392.41 566.398 392.41Z" fill="#343B43"/>
<path d="M334.801 308.978H294.001C294.001 306.982 334.801 306.982 334.801 306.982C340.401 306.982 345.201 302.192 345.201 296.603V272.252C345.201 266.663 340.401 261.873 334.801 261.873H264.001C258.401 261.873 253.601 266.663 253.601 272.252V296.603C253.601 302.192 258.401 306.982 264.001 306.982H277.201C277.201 308.978 264.001 308.978 264.001 308.978C257.201 308.978 251.601 303.389 251.601 296.603V272.252C251.601 265.466 257.201 259.877 264.001 259.877H334.401C341.201 259.877 346.801 265.466 346.801 272.252V296.603C347.201 302.99 341.601 308.978 334.801 308.978Z" fill="#343B43"/>
<path d="M457.603 367.66C463.203 365.664 468.003 360.873 468.003 355.285V330.934C468.003 325.345 463.203 320.555 457.603 320.555H387.203C381.603 320.555 376.803 325.345 376.803 330.934V355.285C376.803 360.873 381.603 365.664 387.203 365.664H413.603C413.603 367.66 387.203 367.66 387.203 367.66C380.403 367.66 374.803 362.071 374.803 355.285V330.934C374.803 324.147 380.403 318.559 387.203 318.559H457.603C464.403 318.559 470.003 324.147 470.003 330.934V355.285C470.403 362.071 464.803 367.66 457.603 367.66Z" fill="#343B43"/>
<path d="M146.001 324.946C142.001 324.946 138.401 322.151 137.201 320.155C139.201 318.958 143.201 324.547 148.801 322.151C148.401 324.946 147.201 324.946 146.001 324.946Z" fill="#343B43"/>
<path d="M651.203 521.75C650.403 491.411 633.203 461.072 632.803 460.672C634.803 459.874 652.403 490.612 652.003 520.552C652.003 521.35 651.603 521.75 651.203 521.75Z" fill="#343B43"/>
<path d="M110.398 302.192C110.398 300.196 116.798 299.397 128.398 289.417C133.598 285.026 136.398 279.038 139.198 273.05C139.998 271.853 140.398 270.256 141.198 269.058C142.398 271.453 141.998 272.651 141.198 273.849C138.398 279.837 135.598 286.224 129.998 291.014C117.598 301.792 110.798 302.192 110.398 302.192Z" fill="#343B43"/>
<path d="M58.4 315.764C56 310.175 50.4 276.643 54.4 267.461C59.6 253.889 77.6 250.296 83.2 249.498C87.6 248.699 92 249.098 96.8 249.897C99.6 250.695 103.6 251.494 105.2 253.09C108.8 247.901 116.4 245.905 122.4 245.506C129.6 245.106 136.8 247.102 142.8 251.094C149.6 255.486 152.8 261.873 152.4 268.659C152 274.248 148.8 283.429 144.4 287.82C146.8 282.232 150 273.849 150.4 268.659C150.8 262.671 148 257.082 141.6 253.09C136 249.498 129.2 247.502 122.4 247.901C116.4 248.3 108.8 250.695 106 256.284C103.6 254.687 102 253.49 96.4 252.292C91.6 251.494 87.6 251.094 83.2 251.893C78 252.691 61.2 256.284 56 268.659C52.8 277.042 57.6 308.579 59.2 314.966C58.4 315.764 58.4 315.764 58.4 315.764Z" fill="#343B43"/>
<path d="M93.2027 403.987C82.8027 403.987 73.6027 399.196 66.4027 390.414C60.8027 393.608 54.0027 394.406 48.0027 392.809C41.6027 391.212 36.0027 386.821 33.2027 381.232C29.2027 372.051 33.2027 361.672 43.2027 356.482C44.0027 356.083 47.2027 354.087 49.2027 353.289C48.0027 352.49 46.8027 351.692 46.4027 351.293C44.8027 350.095 43.2027 348.898 42.0027 347.301C39.2027 343.708 37.2027 339.317 36.8027 334.127C36.4027 328.938 37.6027 323.748 40.4027 320.155C44.4027 314.966 50.8027 312.571 58.4027 313.369C51.6027 314.567 45.6027 316.962 42.4027 321.353C40.0027 324.547 38.8027 328.938 39.2027 333.728C39.6027 338.518 41.2027 342.51 44.0027 345.704C45.2027 346.902 46.4027 348.099 48.0027 349.297C48.8027 350.095 52.0027 352.091 52.0027 352.091C51.6027 354.087 45.6027 357.68 44.4027 358.079C35.2027 362.869 31.6027 371.652 35.6027 380.035C38.0027 385.224 42.8027 389.216 48.8027 390.414C54.8027 392.011 61.2027 390.813 66.4027 387.62C76.4027 398.797 88.0027 403.188 100.403 400.793C104.003 399.995 110.003 397.999 113.203 392.809C114.403 390.813 115.203 388.817 115.203 386.422C115.203 385.624 114.403 380.035 113.603 378.837C120.403 374.446 126.403 369.656 129.603 364.067C133.603 357.281 133.603 349.297 130.003 340.115C126.803 332.131 118.803 322.95 109.203 320.954C120.003 320.954 128.403 330.934 132.003 339.317C136.003 349.297 135.603 357.68 131.603 365.265C128.403 371.253 122.403 376.043 115.603 378.837C116.403 381.632 117.203 386.821 117.203 386.821C117.203 389.616 116.403 392.011 114.803 394.007C112.003 398.398 106.803 401.192 100.403 402.789C98.0027 403.587 95.6027 403.987 93.2027 403.987Z" fill="#343B43"/>
<path d="M552 318.159C551.2 317.76 531.6 306.583 540.4 288.22C543.6 281.833 548.8 277.841 555.2 276.244C565.2 274.248 576.4 278.24 582.4 283.429C575.6 280.635 565.2 276.244 555.6 278.24C549.6 279.437 545.2 283.03 542 289.018C534 305.385 551.6 315.764 552.4 316.163C552.8 318.159 552.4 318.159 552 318.159Z" fill="#343B43"/>
<path d="M608.801 283.429C601.201 275.445 593.601 271.853 586.401 271.853C576.801 271.853 570.401 278.24 570.401 278.24C569.201 276.643 576.001 269.857 586.401 269.857C594.401 269.857 602.401 273.849 609.601 281.833C609.201 283.429 609.201 283.429 608.801 283.429Z" fill="#343B43"/>
<path d="M564.802 347.7C562.802 347.7 560.402 347.301 559.202 346.103C558.802 345.305 558.402 344.107 559.202 342.51C562.002 337.321 566.002 319.357 566.002 319.357C568.002 320.555 563.602 338.119 560.802 343.708C561.202 346.103 565.202 346.103 568.402 345.704C568.402 347.301 566.802 347.7 564.802 347.7Z" fill="#343B43"/>
<path d="M600.798 330.934C595.598 322.551 597.198 312.171 597.998 308.179C567.598 315.764 547.598 305.784 546.398 304.188C548.398 302.99 568.398 313.768 599.198 305.784C600.398 307.78 597.198 320.555 601.598 329.337C601.198 330.535 600.798 330.934 600.798 330.934Z" fill="#343B43"/>
<path d="M520.8 149.699C510.4 149.699 502 141.315 502 130.936C502 120.557 510.4 112.174 520.8 112.174C531.2 112.174 539.6 120.557 539.6 130.936C540 141.315 531.2 149.699 520.8 149.699ZM520.8 114.17C511.6 114.17 504 121.755 504 130.936C504 140.118 511.6 147.703 520.8 147.703C530 147.703 537.6 140.118 537.6 130.936C537.6 121.755 530 114.17 520.8 114.17Z" fill="#343B43"/>
<path d="M678.399 124.948H564.398C564.398 122.952 678.399 122.952 678.399 122.952C679.199 124.549 678.799 124.948 678.399 124.948Z" fill="#343B43"/>
<path d="M678.401 172.054H583.601C583.601 170.058 678.401 170.058 678.401 170.058C679.201 171.654 678.801 172.054 678.401 172.054Z" fill="#343B43"/>
<path d="M552.803 172.054H502.803C502.803 170.058 552.803 170.058 552.803 170.058C554.003 171.654 553.603 172.054 552.803 172.054Z" fill="#343B43"/>
<path d="M375.599 219.558H285.199C283.999 218.36 283.999 112.973 283.999 112.973C285.199 111.775 375.599 111.775 375.599 111.775C376.799 112.973 376.799 218.36 376.799 218.36C376.799 219.159 376.399 219.558 375.599 219.558ZM286.399 217.562H374.799V114.17H286.399V217.562Z" fill="#343B43"/>
<path d="M354.001 154.888H307.601C307.601 152.892 354.001 152.892 354.001 152.892C355.201 154.09 354.401 154.888 354.001 154.888Z" fill="#343B43"/>
<path d="M354.001 170.856H307.601C307.601 168.86 354.001 168.86 354.001 168.86C355.201 170.457 354.401 170.856 354.001 170.856Z" fill="#343B43"/>
<path d="M354.001 187.223H307.601C307.601 185.227 354.001 185.227 354.001 185.227C355.201 186.824 354.401 187.223 354.001 187.223Z" fill="#343B43"/>
<path d="M483.201 332.53C482.001 331.333 482.001 285.026 482.001 285.026H369.601C369.601 283.03 483.201 283.03 483.201 283.03C484.401 284.228 484.401 331.732 484.401 331.732C484.401 332.131 484.001 332.53 483.201 332.53Z" fill="#343B43"/>
<path d="M330.798 136.924C325.998 136.924 322.398 133.332 322.398 128.541C322.398 123.751 325.998 120.158 330.798 120.158C335.598 120.158 339.198 123.751 339.198 128.541C339.198 132.932 335.198 136.924 330.798 136.924ZM330.798 122.154C327.198 122.154 324.398 124.948 324.398 128.541C324.398 132.134 327.198 134.928 330.798 134.928C334.398 134.928 337.198 132.134 337.198 128.541C337.198 124.948 334.398 122.154 330.798 122.154Z" fill="#343B43"/>
<path d="M358.001 292.611C353.201 292.611 349.601 289.018 349.601 284.228C349.601 279.437 353.201 275.845 358.001 275.845C362.801 275.845 366.401 279.437 366.401 284.228C366.401 288.619 362.401 292.611 358.001 292.611ZM358.001 277.841C354.401 277.841 351.601 280.635 351.601 284.228C351.601 287.82 354.401 290.615 358.001 290.615C361.601 290.615 364.401 287.82 364.401 284.228C364.001 280.635 361.201 277.841 358.001 277.841Z" fill="#343B43"/>
<path d="M483.203 351.692C478.403 351.692 474.803 348.099 474.803 343.309C474.803 338.518 478.403 334.926 483.203 334.926C488.003 334.926 491.603 338.518 491.603 343.309C491.603 348.099 488.003 351.692 483.203 351.692ZM483.203 336.922C479.603 336.922 476.803 339.716 476.803 343.309C476.803 346.902 479.603 349.696 483.203 349.696C486.803 349.696 489.603 346.902 489.603 343.309C489.603 339.716 486.803 336.922 483.203 336.922Z" fill="#343B43"/>
<defs>
<linearGradient id="paint0_linear_170_1628" x1="0.873033" y1="545.62" x2="248.621" y2="341.775" gradientUnits="userSpaceOnUse">
<stop stop-color="#234DAE"/>
<stop offset="1" stop-color="#347BCE"/>
</linearGradient>
<linearGradient id="paint1_linear_170_1628" x1="485.601" y1="545.82" x2="713.372" y2="394.977" gradientUnits="userSpaceOnUse">
<stop stop-color="#234DAE"/>
<stop offset="1" stop-color="#347BCE"/>
</linearGradient>
<linearGradient id="paint2_linear_170_1628" x1="552" y1="484.062" x2="581.744" y2="465.8" gradientUnits="userSpaceOnUse">
<stop stop-color="#234DAE"/>
<stop offset="1" stop-color="#347BCE"/>
</linearGradient>
<linearGradient id="paint3_linear_170_1628" x1="488" y1="176.06" x2="648.51" y2="14.696" gradientUnits="userSpaceOnUse">
<stop stop-color="#234DAE"/>
<stop offset="1" stop-color="#347BCE"/>
</linearGradient>
<linearGradient id="paint4_linear_170_1628" x1="323.601" y1="132.779" x2="337.359" y2="123.769" gradientUnits="userSpaceOnUse">
<stop stop-color="#234DAE"/>
<stop offset="1" stop-color="#347BCE"/>
</linearGradient>
</defs>
</svg>
