<svg width="90" height="90" viewBox="0 0 90 90" fill="none" xmlns="http://www.w3.org/2000/svg">
<g clip-path="url(#clip0_140_1602)">
<path d="M82.5026 12H63.0026C59.9749 4.73338 52.8748 0 45.0026 0C37.1305 0 30.0304 4.73338 27.0026 12H7.50262C4.94596 12.0816 2.9353 14.2129 3.00262 16.77V73.23C2.9353 75.7871 4.94596 77.9184 7.50262 78H30.0026L27.7526 81H22.5026C20.0173 81 18.0026 83.0147 18.0026 85.5C18.0026 87.9853 20.0173 90 22.5026 90H67.5026C69.9879 90 72.0026 87.9853 72.0026 85.5C72.0026 83.0147 69.9879 81 67.5026 81H62.2526L60.0026 78H82.5026C85.0593 77.9184 87.0699 75.7871 87.0026 73.23V16.77C87.0699 14.2129 85.0593 12.0816 82.5026 12ZM45.0026 3C54.1109 3.01075 61.4919 10.3918 61.5026 19.5C61.5026 26.6295 50.4221 39.054 45.0026 44.4105C39.5831 39.054 28.5026 26.6295 28.5026 19.5C28.5134 10.3918 35.8944 3.01075 45.0026 3ZM69.0026 85.5C69.0026 86.3284 68.3311 87 67.5026 87H22.5026C21.6742 87 21.0026 86.3284 21.0026 85.5C21.0026 84.6716 21.6742 84 22.5026 84H67.5026C68.3311 84 69.0026 84.6716 69.0026 85.5ZM58.5026 81H31.5026L33.7526 78H56.2526L58.5026 81ZM82.5026 75H7.50262C6.60854 74.9083 5.94639 74.127 6.00262 73.23V69H12.0026C12.831 69 13.5026 68.3284 13.5026 67.5C13.5026 66.6716 12.831 66 12.0026 66H6.00262V16.77C5.94639 15.873 6.60854 15.0917 7.50262 15H26.0471C25.6908 16.4736 25.508 17.9839 25.5026 19.5C25.5026 27.66 36.2726 39.7365 41.3741 45H37.5026C36.6742 45 36.0026 45.6716 36.0026 46.5C36.0026 47.3284 36.6742 48 37.5026 48H52.5026C53.3311 48 54.0026 47.3284 54.0026 46.5C54.0026 45.6716 53.3311 45 52.5026 45H48.6311C53.7326 39.7365 64.5026 27.66 64.5026 19.5C64.4972 17.9839 64.3145 16.4736 63.9581 15H82.5026C83.3967 15.0917 84.0589 15.873 84.0026 16.77V66H18.0026C17.1742 66 16.5026 66.6716 16.5026 67.5C16.5026 68.3284 17.1742 69 18.0026 69H84.0026V73.23C84.0589 74.127 83.3967 74.9083 82.5026 75Z" fill="url(#paint0_linear_140_1602)"/>
<path d="M54.0039 19.4998C54.0039 14.5292 49.9744 10.4998 45.0039 10.4998C40.0333 10.4998 36.0039 14.5292 36.0039 19.4998C36.0039 24.4703 40.0333 28.4998 45.0039 28.4998C49.9724 28.4948 53.9989 24.4683 54.0039 19.4998ZM39.0039 19.4998C39.0039 16.186 41.6902 13.4998 45.0039 13.4998C48.3176 13.4998 51.0039 16.186 51.0039 19.4998C51.0039 22.8135 48.3176 25.4998 45.0039 25.4998C41.6902 25.4998 39.0039 22.8135 39.0039 19.4998Z" fill="url(#paint1_linear_140_1602)"/>
<path d="M24 45.0003C24.8284 45.0003 25.5 44.3287 25.5 43.5003V36.0002C25.5 35.1718 24.8284 34.5002 24 34.5002C23.1716 34.5002 22.5 35.1718 22.5 36.0002V43.5003C22.5 44.3287 23.1716 45.0003 24 45.0003Z" fill="url(#paint2_linear_140_1602)"/>
<path d="M13.5049 52.5C14.3333 52.5 15.0049 51.8284 15.0049 51V21C15.0049 20.1716 14.3333 19.5 13.5049 19.5C12.6765 19.5 12.0049 20.1716 12.0049 21V51C12.0049 51.8284 12.6765 52.5 13.5049 52.5Z" fill="url(#paint3_linear_140_1602)"/>
<path d="M66.0019 45.0003C66.8304 45.0003 67.5019 44.3287 67.5019 43.5003V36.0002C67.5019 35.1718 66.8304 34.5002 66.0019 34.5002C65.1735 34.5002 64.502 35.1718 64.502 36.0002V43.5003C64.502 44.3287 65.1735 45.0003 66.0019 45.0003Z" fill="url(#paint4_linear_140_1602)"/>
<path d="M76.5019 52.5C77.3304 52.5 78.0019 51.8284 78.0019 51V21C78.0019 20.1716 77.3304 19.5 76.5019 19.5C75.6735 19.5 75.002 20.1716 75.002 21V51C75.002 51.8284 75.6735 52.5 76.5019 52.5Z" fill="url(#paint5_linear_140_1602)"/>
<path d="M79.5039 63C80.3323 63 81.0039 62.3284 81.0039 61.5C81.0039 60.6716 80.3323 60 79.5039 60H78.0039V57C78.0039 56.1716 77.3323 55.5 76.5039 55.5C75.6755 55.5 75.0039 56.1716 75.0039 57V60H67.5039V49.5C67.5039 48.6716 66.8323 48 66.0039 48C65.1755 48 64.5039 48.6716 64.5039 49.5V60H57.0039V52.5C57.0039 51.6716 56.3323 51 55.5039 51C54.6755 51 54.0039 51.6716 54.0039 52.5V60H46.5039V55.5C46.5039 54.6716 45.8323 54 45.0039 54C44.1755 54 43.5039 54.6716 43.5039 55.5V60H36.0039V52.5C36.0039 51.6716 35.3323 51 34.5039 51C33.6755 51 33.0039 51.6716 33.0039 52.5V60H25.5039V49.5C25.5039 48.6716 24.8323 48 24.0039 48C23.1755 48 22.5039 48.6716 22.5039 49.5V60H15.0039V57C15.0039 56.1716 14.3323 55.5 13.5039 55.5C12.6755 55.5 12.0039 56.1716 12.0039 57V60H10.5039C9.67548 60 9.00391 60.6716 9.00391 61.5C9.00391 62.3284 9.67548 63 10.5039 63H79.5039Z" fill="url(#paint6_linear_140_1602)"/>
</g>
<defs>
<linearGradient id="paint0_linear_140_1602" x1="3.00097" y1="71.541" x2="86.5787" y2="20.5552" gradientUnits="userSpaceOnUse">
<stop stop-color="#234DAE"/>
<stop offset="1" stop-color="#347BCE"/>
</linearGradient>
<linearGradient id="paint1_linear_140_1602" x1="36.0039" y1="24.808" x2="53.2222" y2="13.5543" gradientUnits="userSpaceOnUse">
<stop stop-color="#234DAE"/>
<stop offset="1" stop-color="#347BCE"/>
</linearGradient>
<linearGradient id="paint2_linear_140_1602" x1="22.5" y1="42.8467" x2="26.4576" y2="42.1077" gradientUnits="userSpaceOnUse">
<stop stop-color="#234DAE"/>
<stop offset="1" stop-color="#347BCE"/>
</linearGradient>
<linearGradient id="paint3_linear_140_1602" x1="12.0049" y1="45.7317" x2="16.0861" y2="45.4892" gradientUnits="userSpaceOnUse">
<stop stop-color="#234DAE"/>
<stop offset="1" stop-color="#347BCE"/>
</linearGradient>
<linearGradient id="paint4_linear_140_1602" x1="64.502" y1="42.8467" x2="68.4595" y2="42.1077" gradientUnits="userSpaceOnUse">
<stop stop-color="#234DAE"/>
<stop offset="1" stop-color="#347BCE"/>
</linearGradient>
<linearGradient id="paint5_linear_140_1602" x1="75.002" y1="45.7317" x2="79.0831" y2="45.4892" gradientUnits="userSpaceOnUse">
<stop stop-color="#234DAE"/>
<stop offset="1" stop-color="#347BCE"/>
</linearGradient>
<linearGradient id="paint6_linear_140_1602" x1="9.0039" y1="59.9235" x2="18.0698" y2="31.4817" gradientUnits="userSpaceOnUse">
<stop stop-color="#234DAE"/>
<stop offset="1" stop-color="#347BCE"/>
</linearGradient>
<clipPath id="clip0_140_1602">
<rect width="90" height="90" fill="white"/>
</clipPath>
</defs>
</svg>
