<svg width="90" height="90" viewBox="0 0 90 90" fill="none" xmlns="http://www.w3.org/2000/svg">
<g clip-path="url(#clip0_140_1426)">
<path d="M69.8947 11.0055C69.8947 10.0347 69.1078 9.24768 68.1369 9.24768H68.1269C67.1561 9.24768 66.374 10.0347 66.374 11.0055C66.374 11.9763 67.1659 12.7633 68.1368 12.7633C69.1076 12.7633 69.8947 11.9763 69.8947 11.0055Z" fill="url(#paint0_linear_140_1426)"/>
<path d="M79.3752 11.0055C79.3752 10.0347 78.5882 9.24768 77.6174 9.24768H77.6074C76.6365 9.24768 75.8545 10.0347 75.8545 11.0055C75.8545 11.9763 76.6464 12.7633 77.6172 12.7633C78.5881 12.7633 79.3752 11.9763 79.3752 11.0055Z" fill="url(#paint1_linear_140_1426)"/>
<path d="M60.4162 11.0055C60.4162 10.0347 59.6293 9.24768 58.6584 9.24768H58.6484C57.6776 9.24768 56.8955 10.0347 56.8955 11.0055C56.8955 11.9763 57.6874 12.7633 58.6582 12.7633C59.6291 12.7633 60.4162 11.9763 60.4162 11.0055Z" fill="url(#paint2_linear_140_1426)"/>
<path d="M10.625 11.0055C10.625 11.9763 11.412 12.7633 12.3828 12.7633H38.7704C39.7412 12.7633 40.5282 11.9763 40.5282 11.0055C40.5282 10.0347 39.7412 9.24768 38.7704 9.24768H12.3828C11.4121 9.24768 10.625 10.0347 10.625 11.0055Z" fill="url(#paint3_linear_140_1426)"/>
<path d="M84.3238 0H29.3664C28.3955 0 27.6086 0.786973 27.6086 1.75781C27.6086 2.72865 28.3955 3.51562 29.3664 3.51562H84.3238C85.4949 3.51562 86.4475 4.46607 86.4475 5.63432V18.4957H3.55078V5.63432C3.55078 4.46607 4.50123 3.51562 5.66947 3.51562H13.5817C14.5526 3.51562 15.3396 2.72865 15.3396 1.75781C15.3396 0.786973 14.5526 0 13.5817 0H5.66947C2.56271 0 0.0351562 2.52756 0.0351562 5.63432V84.3606C0.0351562 87.4702 2.56271 90 5.66947 90H84.3238C87.4332 90 89.9631 87.4702 89.9631 84.3606V5.63432C89.9631 2.52756 87.4332 0 84.3238 0ZM84.3238 86.4844H5.66947C4.50123 86.4844 3.55078 85.5316 3.55078 84.3606V22.0113H86.4475V84.3606C86.4475 85.5316 85.4947 86.4844 84.3238 86.4844Z" fill="url(#paint4_linear_140_1426)"/>
<path d="M16.464 67.2561C12.426 67.2561 9.14062 70.5413 9.14062 74.5795C9.14062 78.6149 12.4258 81.898 16.464 81.898C20.4994 81.898 23.7823 78.6149 23.7823 74.5795C23.7823 70.5415 20.4994 67.2561 16.464 67.2561ZM16.464 78.3825C14.3645 78.3825 12.6562 76.6766 12.6562 74.5797C12.6562 72.4801 14.3643 70.7719 16.464 70.7719C18.5607 70.7719 20.2667 72.4801 20.2667 74.5797C20.2667 76.6766 18.5609 78.3825 16.464 78.3825Z" fill="url(#paint5_linear_140_1426)"/>
<path d="M35.4833 67.2561C31.4479 67.2561 28.165 70.5413 28.165 74.5795C28.165 78.6149 31.4481 81.898 35.4833 81.898C39.5186 81.898 42.8016 78.6149 42.8016 74.5795C42.8016 70.5415 39.5187 67.2561 35.4833 67.2561ZM35.4833 78.3825C33.3864 78.3825 31.6807 76.6766 31.6807 74.5797C31.6807 72.4801 33.3866 70.7719 35.4833 70.7719C37.5801 70.7719 39.286 72.4801 39.286 74.5797C39.286 76.6766 37.5802 78.3825 35.4833 78.3825Z" fill="url(#paint6_linear_140_1426)"/>
<path d="M54.5068 67.2561C50.4714 67.2561 47.1885 70.5413 47.1885 74.5795C47.1885 78.6149 50.4715 81.898 54.5068 81.898C58.5448 81.898 61.8302 78.6149 61.8302 74.5795C61.83 70.5415 58.5448 67.2561 54.5068 67.2561ZM54.5068 78.3825C52.4099 78.3825 50.7041 76.6766 50.7041 74.5797C50.7041 72.4801 52.4101 70.7719 54.5068 70.7719C56.6063 70.7719 58.3146 72.4801 58.3146 74.5797C58.3144 76.6766 56.6063 78.3825 54.5068 78.3825Z" fill="url(#paint7_linear_140_1426)"/>
<path d="M73.5353 67.2561C69.4973 67.2561 66.2119 70.5413 66.2119 74.5795C66.2119 78.6149 69.4971 81.898 73.5353 81.898C77.5707 81.898 80.8536 78.6149 80.8536 74.5795C80.8536 70.5415 77.5705 67.2561 73.5353 67.2561ZM73.5353 78.3825C71.4358 78.3825 69.7275 76.6766 69.7275 74.5797C69.7275 72.4801 71.4356 70.7719 73.5353 70.7719C75.6322 70.7719 77.338 72.4801 77.338 74.5797C77.338 76.6766 75.632 78.3825 73.5353 78.3825Z" fill="url(#paint8_linear_140_1426)"/>
<path d="M9.14287 58.6889C9.20615 59.5977 9.98275 60.3233 10.897 60.3233H50.2391C51.1984 60.3233 51.9994 59.523 51.9994 58.5655V28.8138C51.9994 27.843 51.2124 27.056 50.2416 27.056H10.8945C9.92369 27.056 9.13672 27.843 9.13672 28.8138V58.5653C9.13883 58.6067 9.14076 58.6478 9.14287 58.6889ZM38.2834 56.8077L35.0084 51.6461L39.3894 44.7451L47.0443 56.8077H38.2834ZM34.1198 56.8077H14.0922L24.1078 41.0284L34.1198 56.8077ZM48.4838 30.5717V52.515L40.8738 40.5232C40.5515 40.015 39.9914 39.7072 39.3899 39.7072C38.7882 39.7072 38.2283 40.015 37.9058 40.523L32.927 48.3656L25.5925 36.8063C25.2701 36.2981 24.7101 35.9903 24.1084 35.9901C24.1084 35.9901 24.1084 35.9901 24.1082 35.9901C23.5065 35.9901 22.9466 36.2979 22.6241 36.8059L12.6522 52.516V30.5717H48.4838Z" fill="url(#paint9_linear_140_1426)"/>
<path d="M59.4219 30.5717H79.0282C79.999 30.5717 80.786 29.7847 80.786 28.8138C80.786 27.843 79.999 27.056 79.0282 27.056H59.4219C58.451 27.056 57.6641 27.843 57.6641 28.8138C57.6641 29.7847 58.451 30.5717 59.4219 30.5717Z" fill="url(#paint10_linear_140_1426)"/>
<path d="M59.4219 40.3126H79.0282C79.999 40.3126 80.786 39.5256 80.786 38.5548C80.786 37.584 79.999 36.797 79.0282 36.797H59.4219C58.451 36.797 57.6641 37.584 57.6641 38.5548C57.6641 39.5256 58.451 40.3126 59.4219 40.3126Z" fill="url(#paint11_linear_140_1426)"/>
<path d="M59.4219 50.0492H79.0282C79.999 50.0492 80.786 49.2622 80.786 48.2914C80.786 47.3205 79.999 46.5336 79.0282 46.5336H59.4219C58.451 46.5336 57.6641 47.3205 57.6641 48.2914C57.6641 49.2622 58.451 50.0492 59.4219 50.0492Z" fill="url(#paint12_linear_140_1426)"/>
<path d="M59.4219 59.7853H79.0282C79.999 59.7853 80.786 58.9983 80.786 58.0275C80.786 57.0566 79.999 56.2697 79.0282 56.2697H59.4219C58.451 56.2697 57.6641 57.0566 57.6641 58.0275C57.6641 58.9983 58.451 59.7853 59.4219 59.7853Z" fill="url(#paint13_linear_140_1426)"/>
<path d="M21.4715 3.51562H21.4815C22.4524 3.51562 23.2344 2.72865 23.2344 1.75781C23.2344 0.786973 22.4425 0 21.4717 0C20.5008 0 19.7139 0.786973 19.7139 1.75781C19.7139 2.72865 20.5008 3.51562 21.4715 3.51562Z" fill="url(#paint14_linear_140_1426)"/>
</g>
<defs>
<linearGradient id="paint0_linear_140_1426" x1="66.374" y1="12.0423" x2="69.7389" y2="9.8398" gradientUnits="userSpaceOnUse">
<stop stop-color="#234DAE"/>
<stop offset="1" stop-color="#347BCE"/>
</linearGradient>
<linearGradient id="paint1_linear_140_1426" x1="75.8545" y1="12.0423" x2="79.2194" y2="9.83979" gradientUnits="userSpaceOnUse">
<stop stop-color="#234DAE"/>
<stop offset="1" stop-color="#347BCE"/>
</linearGradient>
<linearGradient id="paint2_linear_140_1426" x1="56.8955" y1="12.0423" x2="60.2604" y2="9.83979" gradientUnits="userSpaceOnUse">
<stop stop-color="#234DAE"/>
<stop offset="1" stop-color="#347BCE"/>
</linearGradient>
<linearGradient id="paint3_linear_140_1426" x1="10.625" y1="12.0423" x2="11.9045" y2="4.92907" gradientUnits="userSpaceOnUse">
<stop stop-color="#234DAE"/>
<stop offset="1" stop-color="#347BCE"/>
</linearGradient>
<linearGradient id="paint4_linear_140_1426" x1="0.0351522" y1="71.541" x2="86.0989" y2="15.3357" gradientUnits="userSpaceOnUse">
<stop stop-color="#234DAE"/>
<stop offset="1" stop-color="#347BCE"/>
</linearGradient>
<linearGradient id="paint5_linear_140_1426" x1="9.14062" y1="78.8949" x2="23.1466" y2="69.7409" gradientUnits="userSpaceOnUse">
<stop stop-color="#234DAE"/>
<stop offset="1" stop-color="#347BCE"/>
</linearGradient>
<linearGradient id="paint6_linear_140_1426" x1="28.165" y1="78.8949" x2="42.169" y2="69.7454" gradientUnits="userSpaceOnUse">
<stop stop-color="#234DAE"/>
<stop offset="1" stop-color="#347BCE"/>
</linearGradient>
<linearGradient id="paint7_linear_140_1426" x1="47.1885" y1="78.8949" x2="61.1944" y2="69.7409" gradientUnits="userSpaceOnUse">
<stop stop-color="#234DAE"/>
<stop offset="1" stop-color="#347BCE"/>
</linearGradient>
<linearGradient id="paint8_linear_140_1426" x1="66.2119" y1="78.8949" x2="80.2178" y2="69.7409" gradientUnits="userSpaceOnUse">
<stop stop-color="#234DAE"/>
<stop offset="1" stop-color="#347BCE"/>
</linearGradient>
<linearGradient id="paint9_linear_140_1426" x1="9.13672" y1="53.5002" x2="43.3738" y2="24.669" gradientUnits="userSpaceOnUse">
<stop stop-color="#234DAE"/>
<stop offset="1" stop-color="#347BCE"/>
</linearGradient>
<linearGradient id="paint10_linear_140_1426" x1="57.6641" y1="29.8506" x2="59.2847" y2="22.8843" gradientUnits="userSpaceOnUse">
<stop stop-color="#234DAE"/>
<stop offset="1" stop-color="#347BCE"/>
</linearGradient>
<linearGradient id="paint11_linear_140_1426" x1="57.6641" y1="39.5916" x2="59.2847" y2="32.6252" gradientUnits="userSpaceOnUse">
<stop stop-color="#234DAE"/>
<stop offset="1" stop-color="#347BCE"/>
</linearGradient>
<linearGradient id="paint12_linear_140_1426" x1="57.6641" y1="49.3281" x2="59.2847" y2="42.3618" gradientUnits="userSpaceOnUse">
<stop stop-color="#234DAE"/>
<stop offset="1" stop-color="#347BCE"/>
</linearGradient>
<linearGradient id="paint13_linear_140_1426" x1="57.6641" y1="59.0642" x2="59.2847" y2="52.0979" gradientUnits="userSpaceOnUse">
<stop stop-color="#234DAE"/>
<stop offset="1" stop-color="#347BCE"/>
</linearGradient>
<linearGradient id="paint14_linear_140_1426" x1="19.7139" y1="2.79457" x2="23.0787" y2="0.592286" gradientUnits="userSpaceOnUse">
<stop stop-color="#234DAE"/>
<stop offset="1" stop-color="#347BCE"/>
</linearGradient>
<clipPath id="clip0_140_1426">
<rect width="90" height="90" fill="white"/>
</clipPath>
</defs>
</svg>
