<svg width="90" height="90" viewBox="0 0 90 90" fill="none" xmlns="http://www.w3.org/2000/svg">
<g clip-path="url(#clip0_140_1418)">
<path d="M80.1317 7.60537H66.4565C65.6438 7.60537 64.9853 8.26406 64.9853 9.07652C64.9853 9.88897 65.6438 10.5477 66.4565 10.5477H80.1317C84.0333 10.5477 87.2077 13.7221 87.2077 17.6236V58.7498H72.1485C71.3358 58.7498 70.6773 59.4085 70.6773 60.2209C70.6773 61.0334 71.3358 61.6921 72.1485 61.6921H87.0518C86.3726 64.8899 83.5287 67.2969 80.1319 67.2969H45.6195C44.8069 67.2969 44.1484 67.9556 44.1484 68.768C44.1484 69.5805 44.8069 70.2392 45.6195 70.2392H53.0295V75.2941C53.0295 75.6469 53.1562 75.9883 53.3869 76.2555L56.2801 79.6073H33.896L36.7893 76.2555C37.02 75.9883 37.1467 75.6469 37.1467 75.2941V70.2392H39.989C40.8016 70.2392 41.4601 69.5805 41.4601 68.768C41.4601 67.9556 40.8016 67.2969 39.989 67.2969H9.86826C6.47146 67.2969 3.62737 64.8899 2.94836 61.6921H66.5185C67.3311 61.6921 67.9896 61.0334 67.9896 60.2209C67.9896 59.4085 67.3311 58.7498 66.5185 58.7498H2.79229V17.6236C2.79229 13.7221 5.96653 10.5477 9.86826 10.5477H23.7197C24.5323 10.5477 25.1908 9.88897 25.1908 9.07652C25.1908 8.26406 24.5323 7.60537 23.7197 7.60537H9.86826C4.34405 7.60537 -0.15 12.0994 -0.15 17.6236V60.2209C-0.15 65.7451 4.34405 70.2392 9.86826 70.2392H34.2046V74.747L30.0091 79.6073H28.3169C26.1262 79.6073 24.3442 81.3893 24.3442 83.58V84.9195C24.3442 87.1102 26.1262 88.8922 28.3169 88.8922H61.6831C63.8738 88.8922 65.6558 87.1102 65.6558 84.9195V83.58C65.6558 81.3893 63.8738 79.6073 61.6831 79.6073H60.1671L55.9716 74.747V70.2392H80.1317C85.6559 70.2392 90.15 65.7451 90.15 60.2209V17.6236C90.15 12.0994 85.6559 7.60537 80.1317 7.60537ZM62.7135 83.58V84.9195C62.7135 85.4875 62.2511 85.9499 61.6831 85.9499H28.3169C27.7489 85.9499 27.2865 85.4875 27.2865 84.9195V83.58C27.2865 83.012 27.7489 82.5496 28.3169 82.5496H61.6831C62.2511 82.5496 62.7135 83.012 62.7135 83.58Z" fill="url(#paint0_linear_140_1418)" stroke="url(#paint1_linear_140_1418)" stroke-width="0.3"/>
<path d="M49.825 40.4947L43.4788 34.4942C42.7424 34.915 41.8904 35.1562 40.9833 35.1562C39.9173 35.1562 38.9278 34.823 38.1122 34.2565L37.0158 35.1236C36.7459 35.3372 36.4236 35.441 36.1041 35.441C35.6701 35.441 35.2396 35.2496 34.9493 34.8824C34.4451 34.2451 34.5532 33.3198 35.1905 32.8159L36.2849 31.9504C36.0606 31.3798 35.9372 30.7592 35.9372 30.1103C35.9372 27.3278 38.2008 25.0644 40.9832 25.0644C43.7656 25.0644 46.0292 27.3278 46.0292 30.1103C46.0292 30.9168 45.8381 31.6795 45.5 32.3564L52.9186 39.3707C58.8116 36.6113 63.0224 30.8397 63.5583 24.0508H45.0877C44.5946 24.0508 44.1346 23.8038 43.862 23.3931L43.8619 23.3931L33.6493 8.00252C33.2675 8.30244 32.8958 8.61793 32.536 8.94949C29.1271 12.091 27.0299 16.3534 26.6299 20.9519C26.5595 21.7613 25.8448 22.3621 25.0367 22.2901C24.2273 22.2197 23.6282 21.5064 23.6988 20.697C23.6988 20.6969 23.6988 20.6969 23.6988 20.6969L23.8483 20.71L49.825 40.4947ZM49.825 40.4947C48.3124 40.8952 46.7247 41.1092 45.0877 41.1092C36.2526 41.1092 28.6065 34.8266 26.9069 26.1714C26.7504 25.3742 25.979 24.855 25.1799 25.0111L25.1798 25.0111C24.3826 25.1677 23.8632 25.9409 24.0197 26.7381C24.8225 30.8265 26.7703 34.4572 29.4886 37.325L19.8288 44.9642C19.0133 44.3977 18.0238 44.0644 16.9575 44.0644C14.1751 44.0644 11.9115 46.3278 11.9115 49.1104C11.9115 51.8929 14.1751 54.1564 16.9575 54.1564C19.7399 54.1564 22.0035 51.8929 22.0035 49.1104C22.0035 48.4615 21.8801 47.8409 21.6559 47.2705L31.6824 39.3413C35.3882 42.3032 40.0722 44.0515 45.0877 44.0515C47.6079 44.0515 50.0278 43.6141 52.2765 42.8128L56.5615 46.8643C56.2234 47.5412 56.0323 48.3039 56.0323 49.1104C56.0323 51.8929 58.296 54.1564 61.0783 54.1564C63.8607 54.1564 66.1243 51.8929 66.1243 49.1104C66.1243 48.3146 65.9381 47.5617 65.6084 46.8915L75.0682 38.0542C75.8107 38.4845 76.6723 38.731 77.5902 38.731C80.3726 38.731 82.6362 36.4676 82.6362 33.685C82.6362 30.9026 80.3726 28.6392 77.5902 28.6392C74.8078 28.6392 72.5442 30.9026 72.5442 33.685C72.5442 34.4808 72.7304 35.2337 73.0602 35.9037L63.6003 44.7411C62.8579 44.3109 61.9962 44.0644 61.0783 44.0644C60.1713 44.0644 59.3193 44.3055 58.5829 44.7263L55.1922 41.5203C61.9506 37.9003 66.5596 30.7688 66.5596 22.5795L49.825 40.4947ZM62.6129 47.6773L62.613 47.6773C62.6081 47.6721 62.6042 47.6674 62.6026 47.6653C62.2184 47.2604 61.6779 47.0068 61.0783 47.0067C60.481 47.0067 59.9421 47.2584 59.5581 47.6609L62.6129 47.6773ZM62.6129 47.6773L62.6163 47.6807M62.6129 47.6773L62.6163 47.6807M62.6163 47.6807L62.6199 47.6842C62.9681 48.0601 63.182 48.5603 63.182 49.1105C63.182 50.2705 62.2382 51.2142 61.0783 51.2142C59.9184 51.2142 58.9746 50.2705 58.9746 49.1105C58.9746 48.5544 59.1931 48.0492 59.5479 47.6719M62.6163 47.6807L59.5479 47.6719M59.5479 47.6719C59.55 47.6698 59.5524 47.6673 59.5551 47.6643L59.5479 47.6719ZM38.8796 30.1103C38.8796 28.9504 39.8234 28.0066 40.9833 28.0066C42.1433 28.0066 43.087 28.9504 43.087 30.1103C43.087 31.2701 42.1433 32.2139 40.9833 32.2139C39.8234 32.2139 38.8796 31.2701 38.8796 30.1103ZM16.9577 51.2142C15.7978 51.2142 14.854 50.2705 14.854 49.1105C14.854 47.9506 15.7978 47.0068 16.9577 47.0068C18.1176 47.0068 19.0614 47.9506 19.0614 49.1105C19.0614 50.2705 18.1174 51.2142 16.9577 51.2142ZM77.5904 31.5815C78.7503 31.5815 79.6941 32.5253 79.6941 33.685C79.6941 34.8449 78.7503 35.7887 77.5904 35.7887C76.4305 35.7887 75.4867 34.8449 75.4867 33.685C75.4867 32.5253 76.4304 31.5815 77.5904 31.5815ZM45.877 21.1087L36.0993 6.37332C38.8255 4.85881 41.908 4.05004 45.0875 4.05004C54.8096 4.05004 62.806 11.5766 63.5583 21.1087H45.877Z" fill="url(#paint2_linear_140_1418)" stroke="url(#paint3_linear_140_1418)" stroke-width="0.3"/>
</g>
<defs>
<linearGradient id="paint0_linear_140_1418" x1="-4.05303e-06" y1="72.1318" x2="80.4344" y2="13.71" gradientUnits="userSpaceOnUse">
<stop stop-color="#234DAE"/>
<stop offset="1" stop-color="#347BCE"/>
</linearGradient>
<linearGradient id="paint1_linear_140_1418" x1="-4.05303e-06" y1="72.1318" x2="80.4344" y2="13.71" gradientUnits="userSpaceOnUse">
<stop stop-color="#234DAE"/>
<stop offset="1" stop-color="#347BCE"/>
</linearGradient>
<linearGradient id="paint2_linear_140_1418" x1="12.0615" y1="43.1876" x2="66.644" y2="-4.4413" gradientUnits="userSpaceOnUse">
<stop stop-color="#234DAE"/>
<stop offset="1" stop-color="#347BCE"/>
</linearGradient>
<linearGradient id="paint3_linear_140_1418" x1="12.0615" y1="43.1876" x2="66.644" y2="-4.4413" gradientUnits="userSpaceOnUse">
<stop stop-color="#234DAE"/>
<stop offset="1" stop-color="#347BCE"/>
</linearGradient>
<clipPath id="clip0_140_1418">
<rect width="90" height="90" fill="white"/>
</clipPath>
</defs>
</svg>
