<svg width="90" height="90" viewBox="0 0 90 90" fill="none" xmlns="http://www.w3.org/2000/svg">
<g clip-path="url(#clip0_140_1448)">
<mask id="path-1-outside-1_140_1448" maskUnits="userSpaceOnUse" x="-1" y="10.9395" width="92" height="68" fill="black">
<rect fill="white" x="-1" y="10.9395" width="92" height="68"/>
<path d="M9.38777 75.4255H80.6122C82.4658 75.4255 84.1553 74.6629 85.381 73.4372C86.6067 72.2164 87.364 70.5272 87.364 68.6736V66.7203C59.1214 66.7203 30.8786 66.7203 2.63584 66.7203V68.6736C2.63584 70.5272 3.3982 72.2163 4.6241 73.4372C5.8449 74.6629 7.53416 75.4255 9.38777 75.4255ZM62.4698 26.5739C61.7423 26.5739 61.1545 25.9858 61.1545 25.2535C61.1545 24.5259 61.7425 23.9379 62.4698 23.9379H64.6673C65.3948 23.9379 65.9827 24.5261 65.9827 25.2535V35.5179C65.9827 36.2454 65.3947 36.8383 64.6673 36.8383C63.9348 36.8383 63.3468 36.2454 63.3468 35.5179V26.5739H62.4698ZM63.566 18.0232C66.9841 18.0232 70.0738 19.4082 72.311 21.6456C74.5483 23.8827 75.9284 26.9724 75.9284 30.3854C75.9284 33.7987 74.5481 36.893 72.311 39.1304C69.8745 41.5669 66.5706 42.8625 63.1274 42.7428V53.7351C63.1274 54.4674 62.5345 55.0556 61.807 55.0556H26.1998C25.4723 55.0556 24.8794 54.4674 24.8794 53.7351V30.1664C24.8794 29.4388 25.4723 28.8508 26.1998 28.8508H41.0189C41.7463 28.8508 42.3343 29.439 42.3343 30.1664C42.3343 30.8987 41.7461 31.4869 41.0189 31.4869H29.8723C34.5809 35.3533 39.2948 39.2253 44.0037 43.0918C46.8636 40.7451 49.7188 38.3982 52.579 36.051C51.8614 34.6609 51.3979 33.1211 51.2536 31.4869H46.9881C46.2605 31.4869 45.6727 30.8987 45.6727 30.1664C45.6727 29.4388 46.2607 28.8508 46.9881 28.8508H51.3032C51.647 26.0506 52.9328 23.5442 54.8262 21.6457C57.0635 19.4082 60.1529 18.0232 63.566 18.0232ZM60.4916 42.3642C58.314 41.8063 56.3658 40.6702 54.8262 39.1305C54.547 38.8517 54.283 38.5575 54.0337 38.2537L49.5292 41.9509L60.4914 50.955V42.3642H60.4916ZM70.4475 23.5094C68.6835 21.7503 66.2518 20.6642 63.566 20.6642C60.8852 20.6642 58.4536 21.7505 56.6898 23.5094C54.9308 25.2682 53.8446 27.7 53.8446 30.3854C53.8446 33.0712 54.9308 35.5029 56.6898 37.2618C58.4536 39.0259 60.8852 40.1119 63.566 40.1119C66.2516 40.1119 68.6834 39.0259 70.4475 37.2618C72.2064 35.5029 73.2925 33.0712 73.2925 30.3854C73.2925 27.7 72.2062 25.2682 70.4475 23.5094ZM40.5454 43.6548L29.8721 52.4194H58.1347L47.4613 43.6548L44.8355 45.8074C44.3371 46.2159 43.6298 46.1961 43.1513 45.7926L40.5454 43.6548ZM27.5152 50.9548L38.4775 41.9508L27.5152 32.9518V50.9548ZM40.9839 72.3908C40.2564 72.3908 39.6684 71.7979 39.6684 71.0703C39.6684 70.3428 40.2565 69.7551 40.9839 69.7551H49.0161C49.7435 69.7551 50.3365 70.3429 50.3365 71.0703C50.3365 71.7979 49.7435 72.3908 49.0161 72.3908H40.9839ZM8.0724 60.2826C8.0724 59.5551 8.66039 58.9622 9.38777 58.9622C10.1153 58.9622 10.7082 59.5551 10.7082 60.2826V64.0795H79.2967V27.3412C79.2967 26.6137 79.8848 26.0257 80.612 26.0257C81.3396 26.0257 81.9327 26.6138 81.9327 27.3412V64.0795H87.5883C88.9088 64.0795 90 65.1757 90 66.4962V68.6737C90 71.2549 88.9436 73.6018 87.2445 75.3056C85.5453 77.0051 83.1983 78.0611 80.6122 78.0611H9.38777C6.80643 78.0611 4.45957 77.0051 2.75555 75.3056C1.05645 73.6018 0 71.2547 0 68.6737V66.4962C0 65.1757 1.09125 64.0795 2.41664 64.0795H8.0724V60.2826ZM81.9327 21.3717C81.9327 22.0993 81.3396 22.6871 80.612 22.6871C79.8847 22.6871 79.2967 22.0991 79.2967 21.3717V18.8106C79.2967 17.6494 78.8184 16.5882 78.0511 15.8209C77.2838 15.0536 76.2224 14.5749 75.0614 14.5749H14.9437C13.7776 14.5749 12.7213 15.0536 11.954 15.8209C11.1865 16.5882 10.7082 17.6494 10.7082 18.8106V54.3082C10.7082 55.0357 10.1153 55.6287 9.38777 55.6287C8.66021 55.6287 8.0724 55.0357 8.0724 54.3082V18.8106C8.0724 16.922 8.84461 15.2028 10.0904 13.9574C11.331 12.7115 13.05 11.9395 14.9435 11.9395H75.0614C76.9498 11.9395 78.6688 12.7117 79.9146 13.9574C81.1601 15.203 81.9325 16.922 81.9325 18.8106V21.3717H81.9327Z"/>
</mask>
<path d="M9.38777 75.4255H80.6122C82.4658 75.4255 84.1553 74.6629 85.381 73.4372C86.6067 72.2164 87.364 70.5272 87.364 68.6736V66.7203C59.1214 66.7203 30.8786 66.7203 2.63584 66.7203V68.6736C2.63584 70.5272 3.3982 72.2163 4.6241 73.4372C5.8449 74.6629 7.53416 75.4255 9.38777 75.4255ZM62.4698 26.5739C61.7423 26.5739 61.1545 25.9858 61.1545 25.2535C61.1545 24.5259 61.7425 23.9379 62.4698 23.9379H64.6673C65.3948 23.9379 65.9827 24.5261 65.9827 25.2535V35.5179C65.9827 36.2454 65.3947 36.8383 64.6673 36.8383C63.9348 36.8383 63.3468 36.2454 63.3468 35.5179V26.5739H62.4698ZM63.566 18.0232C66.9841 18.0232 70.0738 19.4082 72.311 21.6456C74.5483 23.8827 75.9284 26.9724 75.9284 30.3854C75.9284 33.7987 74.5481 36.893 72.311 39.1304C69.8745 41.5669 66.5706 42.8625 63.1274 42.7428V53.7351C63.1274 54.4674 62.5345 55.0556 61.807 55.0556H26.1998C25.4723 55.0556 24.8794 54.4674 24.8794 53.7351V30.1664C24.8794 29.4388 25.4723 28.8508 26.1998 28.8508H41.0189C41.7463 28.8508 42.3343 29.439 42.3343 30.1664C42.3343 30.8987 41.7461 31.4869 41.0189 31.4869H29.8723C34.5809 35.3533 39.2948 39.2253 44.0037 43.0918C46.8636 40.7451 49.7188 38.3982 52.579 36.051C51.8614 34.6609 51.3979 33.1211 51.2536 31.4869H46.9881C46.2605 31.4869 45.6727 30.8987 45.6727 30.1664C45.6727 29.4388 46.2607 28.8508 46.9881 28.8508H51.3032C51.647 26.0506 52.9328 23.5442 54.8262 21.6457C57.0635 19.4082 60.1529 18.0232 63.566 18.0232ZM60.4916 42.3642C58.314 41.8063 56.3658 40.6702 54.8262 39.1305C54.547 38.8517 54.283 38.5575 54.0337 38.2537L49.5292 41.9509L60.4914 50.955V42.3642H60.4916ZM70.4475 23.5094C68.6835 21.7503 66.2518 20.6642 63.566 20.6642C60.8852 20.6642 58.4536 21.7505 56.6898 23.5094C54.9308 25.2682 53.8446 27.7 53.8446 30.3854C53.8446 33.0712 54.9308 35.5029 56.6898 37.2618C58.4536 39.0259 60.8852 40.1119 63.566 40.1119C66.2516 40.1119 68.6834 39.0259 70.4475 37.2618C72.2064 35.5029 73.2925 33.0712 73.2925 30.3854C73.2925 27.7 72.2062 25.2682 70.4475 23.5094ZM40.5454 43.6548L29.8721 52.4194H58.1347L47.4613 43.6548L44.8355 45.8074C44.3371 46.2159 43.6298 46.1961 43.1513 45.7926L40.5454 43.6548ZM27.5152 50.9548L38.4775 41.9508L27.5152 32.9518V50.9548ZM40.9839 72.3908C40.2564 72.3908 39.6684 71.7979 39.6684 71.0703C39.6684 70.3428 40.2565 69.7551 40.9839 69.7551H49.0161C49.7435 69.7551 50.3365 70.3429 50.3365 71.0703C50.3365 71.7979 49.7435 72.3908 49.0161 72.3908H40.9839ZM8.0724 60.2826C8.0724 59.5551 8.66039 58.9622 9.38777 58.9622C10.1153 58.9622 10.7082 59.5551 10.7082 60.2826V64.0795H79.2967V27.3412C79.2967 26.6137 79.8848 26.0257 80.612 26.0257C81.3396 26.0257 81.9327 26.6138 81.9327 27.3412V64.0795H87.5883C88.9088 64.0795 90 65.1757 90 66.4962V68.6737C90 71.2549 88.9436 73.6018 87.2445 75.3056C85.5453 77.0051 83.1983 78.0611 80.6122 78.0611H9.38777C6.80643 78.0611 4.45957 77.0051 2.75555 75.3056C1.05645 73.6018 0 71.2547 0 68.6737V66.4962C0 65.1757 1.09125 64.0795 2.41664 64.0795H8.0724V60.2826ZM81.9327 21.3717C81.9327 22.0993 81.3396 22.6871 80.612 22.6871C79.8847 22.6871 79.2967 22.0991 79.2967 21.3717V18.8106C79.2967 17.6494 78.8184 16.5882 78.0511 15.8209C77.2838 15.0536 76.2224 14.5749 75.0614 14.5749H14.9437C13.7776 14.5749 12.7213 15.0536 11.954 15.8209C11.1865 16.5882 10.7082 17.6494 10.7082 18.8106V54.3082C10.7082 55.0357 10.1153 55.6287 9.38777 55.6287C8.66021 55.6287 8.0724 55.0357 8.0724 54.3082V18.8106C8.0724 16.922 8.84461 15.2028 10.0904 13.9574C11.331 12.7115 13.05 11.9395 14.9435 11.9395H75.0614C76.9498 11.9395 78.6688 12.7117 79.9146 13.9574C81.1601 15.203 81.9325 16.922 81.9325 18.8106V21.3717H81.9327Z" fill="url(#paint0_linear_140_1448)"/>
<path d="M9.38777 75.4255H80.6122C82.4658 75.4255 84.1553 74.6629 85.381 73.4372C86.6067 72.2164 87.364 70.5272 87.364 68.6736V66.7203C59.1214 66.7203 30.8786 66.7203 2.63584 66.7203V68.6736C2.63584 70.5272 3.3982 72.2163 4.6241 73.4372C5.8449 74.6629 7.53416 75.4255 9.38777 75.4255ZM62.4698 26.5739C61.7423 26.5739 61.1545 25.9858 61.1545 25.2535C61.1545 24.5259 61.7425 23.9379 62.4698 23.9379H64.6673C65.3948 23.9379 65.9827 24.5261 65.9827 25.2535V35.5179C65.9827 36.2454 65.3947 36.8383 64.6673 36.8383C63.9348 36.8383 63.3468 36.2454 63.3468 35.5179V26.5739H62.4698ZM63.566 18.0232C66.9841 18.0232 70.0738 19.4082 72.311 21.6456C74.5483 23.8827 75.9284 26.9724 75.9284 30.3854C75.9284 33.7987 74.5481 36.893 72.311 39.1304C69.8745 41.5669 66.5706 42.8625 63.1274 42.7428V53.7351C63.1274 54.4674 62.5345 55.0556 61.807 55.0556H26.1998C25.4723 55.0556 24.8794 54.4674 24.8794 53.7351V30.1664C24.8794 29.4388 25.4723 28.8508 26.1998 28.8508H41.0189C41.7463 28.8508 42.3343 29.439 42.3343 30.1664C42.3343 30.8987 41.7461 31.4869 41.0189 31.4869H29.8723C34.5809 35.3533 39.2948 39.2253 44.0037 43.0918C46.8636 40.7451 49.7188 38.3982 52.579 36.051C51.8614 34.6609 51.3979 33.1211 51.2536 31.4869H46.9881C46.2605 31.4869 45.6727 30.8987 45.6727 30.1664C45.6727 29.4388 46.2607 28.8508 46.9881 28.8508H51.3032C51.647 26.0506 52.9328 23.5442 54.8262 21.6457C57.0635 19.4082 60.1529 18.0232 63.566 18.0232ZM60.4916 42.3642C58.314 41.8063 56.3658 40.6702 54.8262 39.1305C54.547 38.8517 54.283 38.5575 54.0337 38.2537L49.5292 41.9509L60.4914 50.955V42.3642H60.4916ZM70.4475 23.5094C68.6835 21.7503 66.2518 20.6642 63.566 20.6642C60.8852 20.6642 58.4536 21.7505 56.6898 23.5094C54.9308 25.2682 53.8446 27.7 53.8446 30.3854C53.8446 33.0712 54.9308 35.5029 56.6898 37.2618C58.4536 39.0259 60.8852 40.1119 63.566 40.1119C66.2516 40.1119 68.6834 39.0259 70.4475 37.2618C72.2064 35.5029 73.2925 33.0712 73.2925 30.3854C73.2925 27.7 72.2062 25.2682 70.4475 23.5094ZM40.5454 43.6548L29.8721 52.4194H58.1347L47.4613 43.6548L44.8355 45.8074C44.3371 46.2159 43.6298 46.1961 43.1513 45.7926L40.5454 43.6548ZM27.5152 50.9548L38.4775 41.9508L27.5152 32.9518V50.9548ZM40.9839 72.3908C40.2564 72.3908 39.6684 71.7979 39.6684 71.0703C39.6684 70.3428 40.2565 69.7551 40.9839 69.7551H49.0161C49.7435 69.7551 50.3365 70.3429 50.3365 71.0703C50.3365 71.7979 49.7435 72.3908 49.0161 72.3908H40.9839ZM8.0724 60.2826C8.0724 59.5551 8.66039 58.9622 9.38777 58.9622C10.1153 58.9622 10.7082 59.5551 10.7082 60.2826V64.0795H79.2967V27.3412C79.2967 26.6137 79.8848 26.0257 80.612 26.0257C81.3396 26.0257 81.9327 26.6138 81.9327 27.3412V64.0795H87.5883C88.9088 64.0795 90 65.1757 90 66.4962V68.6737C90 71.2549 88.9436 73.6018 87.2445 75.3056C85.5453 77.0051 83.1983 78.0611 80.6122 78.0611H9.38777C6.80643 78.0611 4.45957 77.0051 2.75555 75.3056C1.05645 73.6018 0 71.2547 0 68.6737V66.4962C0 65.1757 1.09125 64.0795 2.41664 64.0795H8.0724V60.2826ZM81.9327 21.3717C81.9327 22.0993 81.3396 22.6871 80.612 22.6871C79.8847 22.6871 79.2967 22.0991 79.2967 21.3717V18.8106C79.2967 17.6494 78.8184 16.5882 78.0511 15.8209C77.2838 15.0536 76.2224 14.5749 75.0614 14.5749H14.9437C13.7776 14.5749 12.7213 15.0536 11.954 15.8209C11.1865 16.5882 10.7082 17.6494 10.7082 18.8106V54.3082C10.7082 55.0357 10.1153 55.6287 9.38777 55.6287C8.66021 55.6287 8.0724 55.0357 8.0724 54.3082V18.8106C8.0724 16.922 8.84461 15.2028 10.0904 13.9574C11.331 12.7115 13.05 11.9395 14.9435 11.9395H75.0614C76.9498 11.9395 78.6688 12.7117 79.9146 13.9574C81.1601 15.203 81.9325 16.922 81.9325 18.8106V21.3717H81.9327Z" stroke="url(#paint1_linear_140_1448)" stroke-width="0.6" mask="url(#path-1-outside-1_140_1448)"/>
</g>
<defs>
<linearGradient id="paint0_linear_140_1448" x1="-4.05303e-06" y1="64.4996" x2="68.5869" y2="3.48351" gradientUnits="userSpaceOnUse">
<stop stop-color="#234DAE"/>
<stop offset="1" stop-color="#347BCE"/>
</linearGradient>
<linearGradient id="paint1_linear_140_1448" x1="-4.05303e-06" y1="64.4996" x2="68.5869" y2="3.48351" gradientUnits="userSpaceOnUse">
<stop stop-color="#234DAE"/>
<stop offset="1" stop-color="#347BCE"/>
</linearGradient>
<clipPath id="clip0_140_1448">
<rect width="90" height="90" fill="white"/>
</clipPath>
</defs>
</svg>
