<svg width="97" height="97" viewBox="0 0 97 97" fill="none" xmlns="http://www.w3.org/2000/svg">
<path d="M79.158 74.0854C81.8278 74.0854 84 71.9132 84 69.2432V19.9337C84 16.1105 80.8896 13.0001 77.0664 13.0001H19.9336C16.1104 13.0001 13 16.1105 13 19.9337V69.2432C13 71.9132 15.1722 74.0854 17.842 74.0854H19.3789V81.2267H14.3867C13.6208 81.2267 13 81.8477 13 82.6134C13 83.3792 13.6208 84.0001 14.3867 84.0001H82.6133C83.3792 84.0001 84 83.3792 84 82.6134C84 81.8477 83.3792 81.2267 82.6133 81.2267H77.6211V74.0854H79.158ZM15.7734 19.9337C15.7734 17.6398 17.6397 15.7736 19.9336 15.7736H77.0664C79.3603 15.7736 81.2266 17.6398 81.2266 19.9337V22.9845H15.9127C15.8657 22.9845 15.8192 22.987 15.7734 22.9916V19.9337ZM28.2539 81.2267H22.1523V68.7462H28.2539V81.2267ZM43.7852 81.2267H37.6836V53.4135H43.7852V81.2267ZM59.3164 81.2267H53.2148V65.1407H59.3164V81.2267ZM76.2344 48.5695H67.3594C66.5935 48.5695 65.9727 49.1904 65.9727 49.9562V56.959C65.9727 57.7247 66.5935 58.3457 67.3594 58.3457C68.1253 58.3457 68.7461 57.7247 68.7461 56.959V51.3429H74.8477V81.2267H68.7461V66.2848C68.7461 65.519 68.1253 64.8981 67.3594 64.8981C66.5935 64.8981 65.9727 65.519 65.9727 66.2848V81.2267H62.0898V63.754C62.0898 62.9883 61.469 62.3673 60.7031 62.3673H51.8281C51.0622 62.3673 50.4414 62.9883 50.4414 63.754V81.2267H46.5586V52.0268C46.5586 51.2611 45.9378 50.6401 45.1719 50.6401H36.2969C35.531 50.6401 34.9102 51.2611 34.9102 52.0268V81.2267H31.0273V67.3595C31.0273 66.5938 30.4065 65.9728 29.6406 65.9728H20.7656C19.9997 65.9728 19.3789 66.5938 19.3789 67.3595V71.3119H17.842C16.7013 71.3119 15.7734 70.3839 15.7734 69.2432V25.7509C15.8192 25.7554 15.8657 25.7579 15.9127 25.7579H81.2266V69.2432C81.2266 70.3839 80.2986 71.3119 79.158 71.3119H77.6211V49.9562C77.6211 49.1904 77.0003 48.5695 76.2344 48.5695Z" fill="url(#paint0_linear_509_3574)"/>
<path d="M75.1258 17.9923H43.7949C43.029 17.9923 42.4082 18.6133 42.4082 19.379C42.4082 20.1448 43.029 20.7657 43.7949 20.7657H75.1258C75.8916 20.7657 76.5125 20.1448 76.5125 19.379C76.5125 18.6133 75.8916 17.9923 75.1258 17.9923Z" fill="url(#paint1_linear_509_3574)"/>
<path d="M28.4023 18.3986C28.1444 18.1407 27.7866 17.9923 27.4219 17.9923C27.0572 17.9923 26.6994 18.1405 26.4415 18.3986C26.1835 18.6565 26.0352 19.0143 26.0352 19.379C26.0352 19.7437 26.1835 20.1015 26.4415 20.3593C26.6994 20.6174 27.0572 20.7657 27.4219 20.7657C27.7866 20.7657 28.1444 20.6174 28.4023 20.3593C28.6602 20.1015 28.8086 19.7437 28.8086 19.379C28.8086 19.0143 28.6602 18.6565 28.4023 18.3986Z" fill="url(#paint2_linear_509_3574)"/>
<path d="M22.8554 18.3986C22.5975 18.1407 22.2397 17.9923 21.875 17.9923C21.5103 17.9923 21.1525 18.1405 20.8946 18.3986C20.6367 18.6565 20.4883 19.0143 20.4883 19.379C20.4883 19.7437 20.6367 20.1015 20.8946 20.3593C21.1525 20.6174 21.5103 20.7657 21.875 20.7657C22.2397 20.7657 22.5975 20.6174 22.8554 20.3593C23.1133 20.1015 23.2617 19.7437 23.2617 19.379C23.2617 19.0143 23.1133 18.6565 22.8554 18.3986Z" fill="url(#paint3_linear_509_3574)"/>
<path d="M33.9492 18.3986C33.6912 18.1407 33.3348 17.9923 32.9688 17.9923C32.604 17.9923 32.2463 18.1405 31.9883 18.3986C31.7304 18.6565 31.582 19.0143 31.582 19.379C31.582 19.7437 31.7304 20.1015 31.9883 20.3593C32.2463 20.6174 32.604 20.7657 32.9688 20.7657C33.3335 20.7657 33.6912 20.6174 33.9492 20.3593C34.2071 20.1015 34.3555 19.7437 34.3555 19.379C34.3555 19.0143 34.2071 18.6565 33.9492 18.3986Z" fill="url(#paint4_linear_509_3574)"/>
<path d="M68.3398 60.921C68.0819 60.6616 67.7241 60.5146 67.3594 60.5146C66.9947 60.5146 66.6369 60.6618 66.379 60.921C66.121 61.1789 65.9727 61.5367 65.9727 61.9014C65.9727 62.2661 66.121 62.6238 66.379 62.8818C66.6369 63.1396 66.9947 63.2881 67.3594 63.2881C67.7241 63.2881 68.0819 63.1397 68.3398 62.8818C68.5977 62.6238 68.7461 62.2661 68.7461 61.9014C68.7461 61.5353 68.5977 61.1789 68.3398 60.921Z" fill="url(#paint5_linear_509_3574)"/>
<path d="M71.7972 31.8511C69.0444 31.8511 66.805 34.0905 66.805 36.8433C66.805 37.9367 67.1593 38.9484 67.7578 39.7717L58.5465 48.983C57.8317 48.5874 57.0104 48.3613 56.1371 48.3613C55.3501 48.3613 54.6054 48.5451 53.9427 48.8708L44.3246 39.2527C44.7202 38.5378 44.9463 37.7166 44.9463 36.8433C44.9463 34.0905 42.7068 31.8511 39.9541 31.8511C37.2013 31.8511 34.9619 34.0905 34.9619 36.8433C34.9619 37.8054 35.2362 38.7042 35.7096 39.4672L27.5206 47.6561C26.8058 47.2604 25.9845 47.0344 25.1113 47.0344C22.3586 47.0344 20.1191 49.2738 20.1191 52.0266C20.1191 54.7794 22.3586 57.0188 25.1113 57.0188C27.8641 57.0188 30.1035 54.7794 30.1035 52.0266C30.1035 51.1532 29.8775 50.332 29.4818 49.6172L37.7686 41.3304C38.4291 41.6534 39.1707 41.8353 39.9541 41.8353C40.8273 41.8353 41.6485 41.6093 42.3634 41.2136L51.8873 50.7375C51.4171 51.4988 51.1449 52.3946 51.1449 53.3533C51.1449 56.106 53.3843 58.3454 56.1371 58.3454C58.8899 58.3454 61.1293 56.106 61.1293 53.3533C61.1293 52.4799 60.9032 51.6587 60.5076 50.9438L69.9657 41.4857C70.5333 41.7106 71.1508 41.8354 71.7972 41.8354C74.5499 41.8354 76.7893 39.596 76.7893 36.8433C76.7893 34.0905 74.5499 31.8511 71.7972 31.8511ZM25.1115 54.2456C23.8881 54.2456 22.8927 53.2502 22.8927 52.0269C22.8927 50.8035 23.8881 49.8081 25.1115 49.8081C26.3348 49.8081 27.3302 50.8035 27.3302 52.0269C27.3302 53.2502 26.3348 54.2456 25.1115 54.2456ZM39.9542 39.062C38.7308 39.062 37.7355 38.0666 37.7355 36.8433C37.7355 35.6199 38.7308 34.6245 39.9542 34.6245C41.1776 34.6245 42.173 35.6199 42.173 36.8433C42.173 38.0666 41.1776 39.062 39.9542 39.062ZM56.1372 55.5723C54.9139 55.5723 53.9185 54.5769 53.9185 53.3535C53.9185 52.1302 54.9139 51.1348 56.1372 51.1348C57.3606 51.1348 58.356 52.1302 58.356 53.3535C58.356 54.5769 57.3606 55.5723 56.1372 55.5723ZM71.7972 39.062C70.5738 39.062 69.5784 38.0666 69.5784 36.8433C69.5784 35.6199 70.5738 34.6245 71.7972 34.6245C73.0205 34.6245 74.0159 35.6199 74.0159 36.8433C74.0159 38.0666 73.0205 39.062 71.7972 39.062Z" fill="url(#paint6_linear_509_3574)"/>
<path d="M33.5683 30.882C33.309 30.6241 32.9526 30.4756 32.5879 30.4756C32.2218 30.4756 31.864 30.624 31.6061 30.882C31.3482 31.1398 31.2012 31.4976 31.2012 31.8623C31.2012 32.227 31.3482 32.5848 31.6061 32.8427C31.8654 33.1006 32.2218 33.249 32.5879 33.249C32.9526 33.249 33.309 33.1008 33.5683 32.8427C33.8262 32.5848 33.9746 32.227 33.9746 31.8623C33.9746 31.4976 33.8262 31.1398 33.5683 30.882Z" fill="url(#paint7_linear_509_3574)"/>
<path d="M27.4219 30.4757H20.7656C19.9997 30.4757 19.3789 31.0967 19.3789 31.8624C19.3789 32.6282 19.9997 33.2491 20.7656 33.2491H27.4219C28.1878 33.2491 28.8086 32.6282 28.8086 31.8624C28.8086 31.0967 28.1878 30.4757 27.4219 30.4757Z" fill="url(#paint8_linear_509_3574)"/>
<path d="M27.4219 37.132H20.7656C19.9997 37.132 19.3789 37.7529 19.3789 38.5187C19.3789 39.2844 19.9997 39.9054 20.7656 39.9054H27.4219C28.1878 39.9054 28.8086 39.2844 28.8086 38.5187C28.8086 37.7529 28.1878 37.132 27.4219 37.132Z" fill="url(#paint9_linear_509_3574)"/>
<defs>
<linearGradient id="paint0_linear_509_3574" x1="13" y1="69.438" x2="80.9166" y2="25.0485" gradientUnits="userSpaceOnUse">
<stop stop-color="#234DAE"/>
<stop offset="1" stop-color="#347BCE"/>
</linearGradient>
<linearGradient id="paint1_linear_509_3574" x1="42.4082" y1="20.1969" x2="43.118" y2="14.4922" gradientUnits="userSpaceOnUse">
<stop stop-color="#234DAE"/>
<stop offset="1" stop-color="#347BCE"/>
</linearGradient>
<linearGradient id="paint2_linear_509_3574" x1="26.0352" y1="20.1969" x2="28.6881" y2="18.4629" gradientUnits="userSpaceOnUse">
<stop stop-color="#234DAE"/>
<stop offset="1" stop-color="#347BCE"/>
</linearGradient>
<linearGradient id="paint3_linear_509_3574" x1="20.4883" y1="20.1969" x2="23.1413" y2="18.4629" gradientUnits="userSpaceOnUse">
<stop stop-color="#234DAE"/>
<stop offset="1" stop-color="#347BCE"/>
</linearGradient>
<linearGradient id="paint4_linear_509_3574" x1="31.582" y1="20.1969" x2="34.235" y2="18.4629" gradientUnits="userSpaceOnUse">
<stop stop-color="#234DAE"/>
<stop offset="1" stop-color="#347BCE"/>
</linearGradient>
<linearGradient id="paint5_linear_509_3574" x1="65.9727" y1="62.7193" x2="68.6256" y2="60.9853" gradientUnits="userSpaceOnUse">
<stop stop-color="#234DAE"/>
<stop offset="1" stop-color="#347BCE"/>
</linearGradient>
<linearGradient id="paint6_linear_509_3574" x1="20.1191" y1="52.9115" x2="46.3059" y2="16.3024" gradientUnits="userSpaceOnUse">
<stop stop-color="#234DAE"/>
<stop offset="1" stop-color="#347BCE"/>
</linearGradient>
<linearGradient id="paint7_linear_509_3574" x1="31.2012" y1="32.6802" x2="33.8542" y2="30.9462" gradientUnits="userSpaceOnUse">
<stop stop-color="#234DAE"/>
<stop offset="1" stop-color="#347BCE"/>
</linearGradient>
<linearGradient id="paint8_linear_509_3574" x1="19.3789" y1="32.6803" x2="21.5468" y2="27.8628" gradientUnits="userSpaceOnUse">
<stop stop-color="#234DAE"/>
<stop offset="1" stop-color="#347BCE"/>
</linearGradient>
<linearGradient id="paint9_linear_509_3574" x1="19.3789" y1="39.3366" x2="21.5468" y2="34.5191" gradientUnits="userSpaceOnUse">
<stop stop-color="#234DAE"/>
<stop offset="1" stop-color="#347BCE"/>
</linearGradient>
</defs>
</svg>
