<svg width="97" height="97" viewBox="0 0 97 97" fill="none" xmlns="http://www.w3.org/2000/svg">
<g clip-path="url(#clip0_509_3547)">
<path d="M91.6555 35.7149C88.4926 32.4358 84.3349 30.4248 79.8445 29.9779C78.9953 25.3397 76.6732 21.5559 73.0829 18.9856C72.4448 18.5294 71.5574 18.6759 71.1002 19.3137C70.6435 19.9518 70.7905 20.8396 71.4284 21.2964C74.6536 23.6054 76.651 27.1323 77.2044 31.4956C77.2919 32.1852 77.8652 32.7102 78.5598 32.7367C87.3066 33.0703 94.1582 40.1938 94.1582 48.9535C94.1582 55.9621 89.7722 62.0258 83.2948 64.2734V58.3142C83.2948 53.77 79.5978 50.0728 75.0536 50.0728H52.0738C51.2889 50.0728 50.6529 50.7088 50.6529 51.4937C50.6529 52.2786 51.2889 52.9146 52.0738 52.9146H75.0536C78.0308 52.9146 80.453 55.3367 80.453 58.3142V73.0402C80.453 76.0176 78.0308 78.4398 75.0536 78.4398H21.9409C18.9637 78.4398 16.5415 76.0176 16.5415 73.0402V58.3142C16.5415 55.3367 18.9637 52.9146 21.9409 52.9146H45.5167C46.3016 52.9146 46.9376 52.2786 46.9376 51.4937C46.9376 50.7088 46.3016 50.0728 45.5167 50.0728H21.9409C17.3967 50.0728 13.6997 53.77 13.6997 58.3142V65.042C7.76796 64.13 2.8418 58.6438 2.8418 52.584C2.8418 45.9887 8.84519 39.9825 15.4374 39.9825C16.1765 39.9825 16.7922 39.4159 16.8536 38.6793C17.1317 35.3337 18.9923 32.5743 21.9586 31.1089C25.2694 29.4734 29.329 29.7416 32.5539 31.8093C32.944 32.0596 33.432 32.1039 33.8604 31.9275C34.2893 31.7515 34.6051 31.3776 34.7071 30.9251C35.4469 27.6377 37.4649 24.981 40.2434 23.6361C43.0222 22.291 46.2705 22.3764 49.391 23.8758C49.9654 24.1512 50.6526 24.0116 51.073 23.5336C54.5345 19.6002 60.3024 17.7724 65.7664 18.875C66.535 19.0309 67.285 18.5324 67.4404 17.7635C67.5956 16.9941 67.0979 16.2446 66.3289 16.0894C60.2489 14.8616 53.8272 16.7391 49.6604 20.8898C46.0362 19.4308 42.2884 19.4896 39.0057 21.0781C35.9705 22.5471 33.6507 25.2046 32.4545 28.5174C28.7107 26.7701 24.3533 26.7566 20.7002 28.561C17.1951 30.2927 14.8704 33.3975 14.1851 37.1962C6.49521 37.8815 0 44.778 0 52.584C0 56.3484 1.60126 60.1917 4.39342 63.1286C6.95994 65.8279 10.2231 67.4951 13.6997 67.914V73.0402C13.6997 77.5844 17.3967 81.2816 21.9409 81.2816H75.0536C79.5978 81.2816 83.2948 77.5844 83.2948 73.0402V67.2533C86.9967 66.1649 90.3314 63.9485 92.7742 60.9228C95.4993 57.5477 97 53.2969 97 48.9535C97 43.9891 95.1019 39.2874 91.6555 35.7149Z" fill="url(#paint0_linear_509_3547)"/>
<path d="M28.187 69.9651C27.0376 69.9651 25.9336 69.5034 25.2345 68.7305C24.7082 68.1481 23.8096 68.1034 23.2276 68.6297C22.6456 69.156 22.6004 70.0546 23.1269 70.6366C24.3558 71.9957 26.2475 72.8069 28.187 72.8069C30.6017 72.8069 32.6296 71.2676 33.0087 69.1471C33.294 67.5511 32.5688 65.4654 29.6776 64.3979C28.2597 63.8748 26.9424 63.3047 26.5431 63.1295C26.2214 62.873 26.232 62.5138 26.2536 62.3643C26.2831 62.1584 26.4324 61.6554 27.1806 61.4305C28.8078 60.9383 30.3132 62.1279 30.3568 62.1627C30.9573 62.661 31.8483 62.5822 32.3515 61.9841C32.8568 61.3835 32.7795 60.4872 32.1789 59.9821C32.0708 59.891 29.4906 57.7623 26.3604 58.7097C24.7791 59.1851 23.6604 60.4305 23.4408 61.9604C23.2347 63.3959 23.857 64.7764 25.0648 65.563C25.1269 65.6034 25.1921 65.6388 25.2597 65.6693C25.3262 65.699 26.9082 66.4055 28.6936 67.0639C29.2017 67.2514 30.3661 67.7811 30.2113 68.6471C30.0955 69.2949 29.3066 69.9651 28.187 69.9651Z" fill="url(#paint1_linear_509_3547)"/>
<path d="M44.8368 62.2401C44.0726 61.8237 43.1969 61.5869 42.2671 61.5869C39.2982 61.5869 36.8828 64.0049 36.8828 66.9767C36.8828 69.9456 39.2982 72.3609 42.2671 72.3609C43.1967 72.3609 44.072 72.1245 44.8362 71.7088C44.9493 72.3804 45.5319 72.8927 46.2357 72.8927C47.0206 72.8927 47.6566 72.2567 47.6566 71.4718V62.4817C47.6566 61.6968 47.0206 61.0608 46.2357 61.0608C45.5334 61.0608 44.9516 61.5706 44.8368 62.2401ZM42.2671 69.5193C40.8653 69.5193 39.7246 68.3786 39.7246 66.9768C39.7246 65.5719 40.8653 64.4289 42.2671 64.4289C43.6719 64.4289 44.8148 65.5719 44.8148 66.9768C44.8148 68.3786 43.6719 69.5193 42.2671 69.5193Z" fill="url(#paint2_linear_509_3547)"/>
<path d="M59.1917 71.709C59.3048 72.3806 59.8874 72.8929 60.5912 72.8929C61.3761 72.8929 62.0121 72.2569 62.0121 71.472V62.4817C62.0121 61.6968 61.3761 61.0608 60.5912 61.0608C59.8889 61.0608 59.3071 61.5706 59.1923 62.2401C58.428 61.8237 57.5524 61.5869 56.6225 61.5869C53.6536 61.5869 51.2383 64.0049 51.2383 66.9767C51.2383 69.9456 53.6536 72.3609 56.6225 72.3609C57.5522 72.3611 58.4275 72.1247 59.1917 71.709ZM54.0801 66.9768C54.0801 65.5719 55.2208 64.4289 56.6225 64.4289C58.0273 64.4289 59.1703 65.5719 59.1703 66.9768C59.1703 68.3786 58.0273 69.5193 56.6225 69.5193C55.2208 69.5193 54.0801 68.3786 54.0801 66.9768Z" fill="url(#paint3_linear_509_3547)"/>
<path d="M71.2515 69.9651C70.1022 69.9651 68.9983 69.5034 68.2988 68.7303C67.7725 68.1485 66.874 68.1032 66.292 68.6299C65.71 69.1562 65.6649 70.0547 66.1916 70.6367C67.4207 71.9957 69.3124 72.8069 71.2515 72.8069C73.6679 72.8069 75.6968 71.2669 76.0757 69.1452C76.3606 67.5496 75.6345 65.4645 72.7434 64.3981C71.3295 63.8748 70.0088 63.3047 69.6074 63.1289C69.2859 62.8724 69.2965 62.5134 69.3181 62.3639C69.3477 62.1582 69.4969 61.6552 70.2443 61.4305C71.8786 60.9383 73.3866 62.1301 73.427 62.1627C74.0277 62.661 74.9185 62.5816 75.4215 61.9839C75.9268 61.3833 75.8495 60.487 75.2489 59.9819C75.1407 59.891 72.5613 57.7636 69.425 58.7095C67.8436 59.1849 66.7249 60.4303 66.5053 61.9602C66.2992 63.3959 66.9215 64.7762 68.1297 65.5628C68.1922 65.6035 68.2579 65.6394 68.3261 65.6697C68.3928 65.6994 69.9785 66.4051 71.7586 67.0639C72.2671 67.2512 73.4326 67.7806 73.2782 68.6456C73.1623 69.2943 72.3726 69.9651 71.2515 69.9651Z" fill="url(#paint4_linear_509_3547)"/>
<path d="M50.0599 33.1002C50.7963 33.3726 51.6134 32.9975 51.8862 32.2619C52.1588 31.526 51.7837 30.7084 51.0479 30.4356C48.9548 29.6597 46.7179 29.7357 44.9098 30.6447C43.4476 31.3794 42.4083 32.5845 41.9833 34.0382C41.763 34.7915 42.1949 35.5805 42.9484 35.8007C43.0814 35.8397 43.2157 35.8583 43.3476 35.8583C43.9625 35.8583 44.5294 35.4559 44.7107 34.8358C44.9119 34.1475 45.4359 33.561 46.1858 33.184C47.2916 32.6281 48.7043 32.5976 50.0599 33.1002Z" fill="url(#paint5_linear_509_3547)"/>
<path d="M33.2865 38.2334C31.4217 37.5432 29.4266 37.6129 27.8122 38.4241C26.4978 39.0849 25.5623 40.1709 25.1787 41.4815C24.9583 42.2348 25.3899 43.0241 26.1432 43.2446C26.2765 43.2836 26.4109 43.3022 26.5429 43.3022C27.1577 43.3022 27.7245 42.9 27.906 42.2801C28.0659 41.7339 28.4859 41.2663 29.0886 40.9634C30.0008 40.5047 31.1718 40.481 32.3002 40.8988C33.0358 41.1712 33.8535 40.7951 34.126 40.0591C34.3984 39.3233 34.0225 38.5058 33.2865 38.2334Z" fill="url(#paint6_linear_509_3547)"/>
</g>
<defs>
<linearGradient id="paint0_linear_509_3547" x1="-4.36827e-06" y1="67.8346" x2="68.4344" y2="1.65981" gradientUnits="userSpaceOnUse">
<stop stop-color="#234DAE"/>
<stop offset="1" stop-color="#347BCE"/>
</linearGradient>
<linearGradient id="paint1_linear_509_3547" x1="22.7598" y1="69.8659" x2="34.2865" y2="64.4511" gradientUnits="userSpaceOnUse">
<stop stop-color="#234DAE"/>
<stop offset="1" stop-color="#347BCE"/>
</linearGradient>
<linearGradient id="paint2_linear_509_3547" x1="36.8828" y1="70.466" x2="47.7442" y2="64.0019" gradientUnits="userSpaceOnUse">
<stop stop-color="#234DAE"/>
<stop offset="1" stop-color="#347BCE"/>
</linearGradient>
<linearGradient id="paint3_linear_509_3547" x1="51.2383" y1="70.4661" x2="62.0998" y2="64.0021" gradientUnits="userSpaceOnUse">
<stop stop-color="#234DAE"/>
<stop offset="1" stop-color="#347BCE"/>
</linearGradient>
<linearGradient id="paint4_linear_509_3547" x1="65.8242" y1="69.8659" x2="77.3525" y2="64.449" gradientUnits="userSpaceOnUse">
<stop stop-color="#234DAE"/>
<stop offset="1" stop-color="#347BCE"/>
</linearGradient>
<linearGradient id="paint5_linear_509_3547" x1="41.9258" y1="34.637" x2="48.1147" y2="27.8102" gradientUnits="userSpaceOnUse">
<stop stop-color="#234DAE"/>
<stop offset="1" stop-color="#347BCE"/>
</linearGradient>
<linearGradient id="paint6_linear_509_3547" x1="25.1211" y1="42.1658" x2="30.8935" y2="35.9737" gradientUnits="userSpaceOnUse">
<stop stop-color="#234DAE"/>
<stop offset="1" stop-color="#347BCE"/>
</linearGradient>
<clipPath id="clip0_509_3547">
<rect width="97" height="97" fill="white" transform="translate(0 0.00012207)"/>
</clipPath>
</defs>
</svg>
