<svg width="648" height="369" viewBox="0 0 648 369" fill="none" xmlns="http://www.w3.org/2000/svg">
<g clip-path="url(#clip0_509_5151)">
<path d="M567.034 140.702C567.034 140.702 565.119 148.093 567.307 149.188C567.307 149.188 570.316 152.473 570.042 154.936C569.769 157.126 569.769 160.137 567.034 161.232C564.572 162.327 561.563 163.97 558.281 162.053L559.101 168.349L560.469 188.059L573.051 197.639L567.307 228.846L560.195 255.125C560.195 255.125 551.169 267.169 550.622 267.443C550.348 267.99 540.227 273.191 540.227 273.191C540.227 273.191 522.174 252.935 521.627 251.84C520.806 250.745 515.609 235.689 515.609 235.142C515.609 234.594 523.268 197.639 523.268 197.639L532.021 190.248C532.021 190.248 534.21 188.88 534.483 186.964C534.757 185.321 534.483 177.93 534.483 177.93C534.483 177.93 530.107 178.204 527.371 174.919C524.636 171.634 524.909 162.601 524.909 162.601L525.457 139.059H533.936L539.954 137.143L544.604 134.132L545.972 133.037L549.527 130.847L559.648 133.037L567.034 140.702Z" fill="white"/>
<path d="M535.031 177.656C535.031 177.656 550.349 178.478 553.631 174.645C556.914 170.813 556.093 161.78 555.546 159.316C554.999 156.852 554.999 151.925 554.999 151.925C554.999 151.925 559.102 144.26 566.214 147.819C566.214 147.819 568.402 139.881 566.761 133.037C565.12 126.194 560.47 121.266 551.443 124.004C550.896 123.73 545.152 120.171 537.219 120.719C529.287 121.266 521.081 130.573 521.354 138.786C521.354 138.786 525.184 148.64 525.184 148.366C525.184 148.093 525.457 138.512 525.457 138.512C525.457 138.512 530.381 139.607 535.578 138.238C540.775 136.869 547.066 131.668 547.066 131.668C547.066 131.668 547.613 142.344 553.358 146.45C553.358 146.45 552.811 148.366 552.811 148.914C552.811 149.188 552.537 157.4 550.622 158.221C548.708 158.768 542.416 157.4 539.681 159.042C536.946 160.685 536.672 162.053 534.757 161.506C532.843 160.958 531.201 160.685 529.287 160.411C527.372 160.137 525.731 161.506 525.731 161.506C525.731 161.506 523.269 178.478 535.031 177.656Z" fill="url(#paint0_linear_509_5151)"/>
<path d="M475.947 217.075C475.947 217.075 496.189 195.997 523.268 196.544L531.201 235.415L533.389 231.309L540.228 263.884L545.151 268.812L563.204 226.93L564.846 227.751L571.41 195.997C571.41 195.997 587.275 196.818 598.49 201.198C609.705 205.852 617.364 214.064 625.843 238.153C634.323 262.242 643.35 286.057 646.358 294.543C649.367 302.755 649.914 330.95 632.955 340.531C615.996 350.112 609.705 343.542 609.705 343.542V367.631H500.565L475.947 217.075Z" fill="#343B43"/>
<path d="M56.0742 139.607V235.415C56.0742 235.415 77.6833 218.991 109.96 209.41C141.964 199.829 155.64 199.282 155.64 199.282V103.747C155.64 103.747 131.022 106.484 103.122 116.065C75.4951 125.92 56.0742 139.607 56.0742 139.607Z" fill="white"/>
<path d="M220.469 240.069C220.469 240.069 198.586 237.605 186.003 225.013L170.959 257.314C170.959 257.314 166.583 236.237 165.215 231.036C164.121 225.835 163.847 215.706 136.22 215.98H114.338C114.338 215.98 88.0786 214.885 79.3255 229.667C70.2989 244.449 70.0254 251.84 70.0254 251.84L48.1427 338.067L42.125 367.631H178.345L176.977 326.57C176.977 326.57 188.192 327.665 196.398 316.442C204.604 305.219 210.348 291.806 212.81 284.141C215.271 276.476 220.469 257.314 220.469 257.314V240.069Z" fill="#343B43"/>
<path d="M451.329 165.886L448.594 156.579L444.218 151.651L439.567 150.009H295.689L291.86 151.378L286.936 156.031L285.568 160.411L286.662 165.886L311.28 255.125L313.195 259.504L316.478 262.516L319.76 264.158L409.752 263.884L467.194 229.941L451.329 165.886Z" fill="white"/>
<path d="M439.569 163.696L436.834 160.411L433.278 159.316H302.256L298.973 160.958L297.605 164.791L320.856 248.829L323.318 252.114L327.968 254.303H415.772C415.772 254.303 461.178 220.634 461.178 220.36L439.569 163.696Z" fill="white"/>
<path d="M439.84 226.656C439.84 226.656 425.89 229.393 419.599 241.711C413.581 254.03 406.743 269.359 404.281 273.739C401.819 278.119 392.792 279.761 390.057 275.381C387.322 271.001 373.098 226.108 373.098 226.108C373.098 226.108 368.448 220.633 351.762 221.728C335.077 222.823 332.889 232.404 332.889 232.404C332.889 232.404 338.086 266.622 343.556 280.309C348.754 293.995 359.148 323.833 388.689 323.559C388.689 323.559 401.272 324.107 406.196 322.191C406.196 322.191 403.734 360.788 400.998 367.905H500.017C500.017 367.905 498.65 333.414 498.923 323.012C498.923 312.61 500.565 294.543 499.47 283.867C498.376 273.191 499.47 264.432 499.47 264.432L457.073 222.55L439.84 226.656Z" fill="url(#paint1_linear_509_5151)"/>
<path d="M403.462 92.5237C404.973 92.5237 406.197 91.2982 406.197 89.7863C406.197 88.2745 404.973 87.049 403.462 87.049C401.951 87.049 400.727 88.2745 400.727 89.7863C400.727 91.2982 401.951 92.5237 403.462 92.5237Z" fill="#343B43"/>
<path d="M425.618 92.7975C427.28 92.7975 428.627 91.4494 428.627 89.7864C428.627 88.1234 427.28 86.7753 425.618 86.7753C423.956 86.7753 422.609 88.1234 422.609 89.7864C422.609 91.4494 423.956 92.7975 425.618 92.7975Z" fill="#343B43"/>
<path d="M447.776 92.5237C449.287 92.5237 450.512 91.2982 450.512 89.7863C450.512 88.2745 449.287 87.049 447.776 87.049C446.266 87.049 445.041 88.2745 445.041 89.7863C445.041 91.2982 446.266 92.5237 447.776 92.5237Z" fill="#343B43"/>
<path d="M403.462 114.97C405.124 114.97 406.471 113.622 406.471 111.959C406.471 110.296 405.124 108.948 403.462 108.948C401.8 108.948 400.453 110.296 400.453 111.959C400.453 113.622 401.8 114.97 403.462 114.97Z" fill="#343B43"/>
<path d="M425.618 115.244C427.431 115.244 428.901 113.773 428.901 111.959C428.901 110.145 427.431 108.674 425.618 108.674C423.806 108.674 422.336 110.145 422.336 111.959C422.336 113.773 423.806 115.244 425.618 115.244Z" fill="#343B43"/>
<path d="M447.773 114.97C449.434 114.97 450.781 113.622 450.781 111.959C450.781 110.296 449.434 108.948 447.773 108.948C446.111 108.948 444.764 110.296 444.764 111.959C444.764 113.622 446.111 114.97 447.773 114.97Z" fill="#343B43"/>
<path d="M403.462 136.869C404.973 136.869 406.197 135.644 406.197 134.132C406.197 132.62 404.973 131.395 403.462 131.395C401.951 131.395 400.727 132.62 400.727 134.132C400.727 135.644 401.951 136.869 403.462 136.869Z" fill="#343B43"/>
<path d="M425.618 137.143C427.28 137.143 428.627 135.795 428.627 134.132C428.627 132.469 427.28 131.121 425.618 131.121C423.956 131.121 422.609 132.469 422.609 134.132C422.609 135.795 423.956 137.143 425.618 137.143Z" fill="#343B43"/>
<path d="M447.776 136.869C449.287 136.869 450.512 135.644 450.512 134.132C450.512 132.62 449.287 131.395 447.776 131.395C446.266 131.395 445.041 132.62 445.041 134.132C445.041 135.644 446.266 136.869 447.776 136.869Z" fill="#343B43"/>
<path d="M367.63 222.002L370.913 211.326C370.913 211.326 373.375 204.209 369.819 203.114C366.263 202.019 364.075 206.125 363.254 208.315C362.707 210.505 361.613 214.064 357.236 212.421C357.236 212.421 354.774 210.779 353.133 203.114C351.218 195.45 347.115 186.142 347.115 186.142C347.115 186.142 345.474 181.215 341.918 182.584C338.362 183.953 339.183 188.059 340.277 191.343C341.371 194.628 344.107 203.114 344.107 203.114C344.107 203.114 338.636 202.567 338.089 207.22C338.089 207.22 333.439 208.589 332.892 212.148C332.618 215.706 334.259 222.002 335.08 223.918C335.901 225.835 336.995 227.203 336.995 227.203C336.995 227.203 342.465 222.276 350.398 221.181C358.057 220.634 367.63 222.002 367.63 222.002Z" fill="white"/>
<path d="M115.43 215.98L115.157 197.639C115.157 197.639 109.413 199.556 106.951 192.438C104.489 185.321 116.251 183.953 117.619 184.774C117.619 184.774 125.278 181.215 128.287 179.299C134.031 175.74 138.681 165.612 138.681 165.612L142.237 170.539L145.246 188.88C145.246 188.88 146.34 201.198 143.604 203.935C140.869 206.947 137.313 207.494 135.398 207.22L135.945 215.98C135.945 215.98 138.134 223.097 138.407 224.192C138.681 225.287 140.322 231.036 135.125 232.678C129.928 234.32 125.551 231.036 123.089 228.024C120.354 224.74 115.43 215.98 115.43 215.98Z" fill="white"/>
<path d="M191.746 229.119L196.123 221.728C196.123 221.728 198.584 208.315 199.679 207.22C200.773 206.125 201.867 203.388 207.611 203.388C207.611 203.388 208.705 202.84 208.979 202.567C209.252 202.293 219.373 190.796 219.373 190.796C219.373 190.796 221.561 189.975 223.476 191.343C225.391 192.712 224.844 195.723 223.749 197.366C222.929 199.008 217.458 205.852 217.458 205.852C217.458 205.852 222.655 205.852 223.202 208.315L221.561 210.505L221.014 231.583C221.014 231.583 215.817 237.879 213.355 238.427C213.082 238.427 196.396 233.499 191.746 229.119Z" fill="white"/>
<path d="M141.691 170.266C141.691 170.266 143.605 163.696 138.135 157.4C132.664 151.104 115.978 157.126 115.978 157.126C115.978 157.126 118.44 149.735 114.884 143.987C111.328 138.238 103.669 135.774 96.8311 139.333C89.9928 142.892 87.2575 151.925 88.6251 157.947C89.9928 163.97 94.0958 167.802 98.1988 168.076C98.1988 168.076 96.284 175.74 98.4723 184.5C100.661 193.26 106.131 200.103 115.158 200.924V197.913C115.158 197.913 108.32 199.008 107.225 193.26C106.131 187.511 110.781 185.047 112.149 184.774C113.517 184.5 116.525 185.047 116.525 185.047C116.525 185.047 120.629 183.953 124.458 182.036C128.287 179.846 132.39 175.74 133.485 174.372C134.579 173.003 138.408 166.433 138.408 166.433C138.408 166.433 141.143 168.349 141.691 170.266Z" fill="url(#paint2_linear_509_5151)"/>
<path d="M431.364 179.846C431.364 179.846 430.27 169.718 434.646 165.612C434.646 165.612 442.579 163.148 449.69 166.433C449.69 166.433 459.538 164.791 463.094 165.065C466.65 165.338 474.856 170.813 475.95 177.657C477.044 184.5 476.497 190.522 475.403 194.902C474.308 199.282 472.12 206.125 472.941 210.505C473.761 214.885 476.497 220.086 483.062 222.824C489.626 225.561 495.644 230.488 498.106 234.321C500.568 238.153 505.491 247.186 506.038 254.03C506.585 260.873 503.85 271.823 497.832 275.655C491.541 279.214 483.062 281.677 473.214 277.845C463.367 273.739 461.179 268.538 460.905 265.253C460.632 261.968 463.914 245.27 463.367 241.712C462.82 238.153 459.264 233.499 453.246 232.952C447.229 232.131 438.202 230.214 436.561 222.276C434.92 214.338 434.373 210.232 434.373 210.232L431.364 179.846Z" fill="white"/>
<path d="M441.481 190.522C441.481 190.522 444.763 189.154 448.046 190.522C451.328 191.891 452.969 196.545 451.875 199.556C450.781 202.567 447.499 204.757 443.122 203.936C443.122 203.936 435.737 208.863 435.19 214.338C434.916 214.885 428.351 214.338 426.71 210.232C425.069 206.125 425.069 203.388 425.616 201.198C426.163 199.008 426.437 196.545 426.437 196.545L423.975 195.997L423.154 194.355L426.984 181.763L428.351 180.394L430.54 181.489L431.087 180.394C431.087 180.394 435.737 189.701 441.481 190.522Z" fill="white"/>
<path d="M221.562 210.505L218.826 307.956C218.826 307.956 256.3 284.962 261.771 252.114V157.947C261.771 157.947 264.506 144.808 256.3 131.668C248.094 118.529 228.947 110.864 228.947 110.864L228.4 205.03L221.562 210.505Z" fill="white"/>
<path d="M156.734 240.617L155.64 336.699C155.64 336.699 118.713 347.375 88.0777 345.185C57.442 342.995 36.3799 335.33 25.1651 324.381C13.6767 313.157 12.8561 300.565 12.8561 300.565L12.5825 200.924C12.5825 200.924 10.1207 227.477 44.0388 240.617C78.2305 253.756 116.252 248.555 119.808 248.281C126.372 247.734 156.734 240.617 156.734 240.617Z" fill="white"/>
<path d="M123.635 291.532C123.635 291.532 168.494 287.426 182.171 278.392V311.515C182.171 311.515 158.1 323.012 123.635 324.654V291.532Z" fill="url(#paint3_linear_509_5151)"/>
<path d="M191.748 229.119L194.483 224.74C194.483 224.74 187.098 222.823 186.277 224.192C185.73 225.835 191.748 229.119 191.748 229.119Z" fill="#343B43"/>
<path d="M220.467 232.131C220.467 232.131 215.544 238.153 213.629 238.427C213.629 238.427 218.279 239.795 220.467 239.795V232.131Z" fill="#343B43"/>
<path d="M603.962 291.806L620.921 251.84L563.206 226.93L527.373 310.42L584.815 335.33L586.456 333.414C586.456 333.414 565.394 320.548 560.197 314.252C555.273 307.956 549.256 303.303 549.256 303.303C549.256 303.303 552.538 294.269 559.65 284.962C566.762 275.929 570.865 272.096 570.865 272.096L603.962 291.806Z" fill="white"/>
<path d="M555.547 222.002C555.273 222.276 552.812 229.667 552.812 229.667L554.726 246.091L544.606 268.812L540.229 264.158L538.588 256.767L542.691 230.488L538.861 221.455L547.067 206.947L555.547 222.002Z" fill="url(#paint4_linear_509_5151)"/>
<path d="M541.868 171.36C541.868 171.36 541.594 167.802 543.509 166.159C545.424 164.517 547.065 164.243 547.065 164.243C547.065 164.243 546.244 162.327 544.603 162.601C542.962 162.601 543.236 165.612 541.047 166.159C538.859 166.707 537.491 165.065 535.85 166.159C534.209 166.981 533.662 167.254 534.482 168.623C535.303 169.992 536.671 171.908 538.859 171.908C541.321 171.634 541.868 171.36 541.868 171.36Z" fill="#343B43"/>
<path d="M385.729 67.3398C385.729 104.255 355.826 134.18 318.94 134.18C282.053 134.18 252.15 104.255 252.15 67.3398C252.15 30.4248 282.053 0.5 318.94 0.5C355.826 0.5 385.729 30.4248 385.729 67.3398Z" stroke="url(#paint5_linear_509_5151)"/>
<path d="M343.635 89.9077C342.436 99.0317 335.248 105.515 324.704 107.435C323.506 107.675 322.548 107.916 321.11 108.156C321.11 111.517 321.11 114.639 321.11 118C317.995 118 315.359 118 312.004 118C312.004 114.879 312.004 111.757 312.004 108.156C299.064 106.715 291.636 99.9921 289 88.2269C293.793 87.0264 298.345 86.066 303.138 84.8654C303.617 85.8259 303.857 86.7863 304.096 87.5066C306.493 94.4697 314.4 98.0712 321.829 95.19C325.183 93.9894 326.861 91.3483 327.1 87.9868C327.34 85.1055 325.902 82.7045 323.027 81.2639C319.193 79.5831 315.119 78.3826 311.285 76.7018C309.129 75.9815 307.212 75.2612 305.055 74.3008C294.991 69.9789 290.438 62.5356 291.636 52.6913C293.074 43.3272 299.304 37.3245 310.327 35.1636C310.806 35.1636 311.285 34.9235 312.004 34.6834C312.004 32.2823 312.004 29.6412 312.004 27C315.119 27 320.87 27 320.87 27L321.11 34.4433C321.11 34.4433 323.027 34.6834 328.299 36.3641C335.487 39.0053 339.561 44.0475 341.957 51.0106C337.884 52.6913 333.57 54.1319 329.497 55.8127C327.819 53.4116 326.621 51.2507 324.944 49.0897C322.308 45.9683 318.474 45.248 314.4 46.2084C311.285 46.9288 309.129 49.0897 308.649 52.2111C308.17 55.3325 309.129 57.9736 312.483 59.4142C315.838 60.8549 319.193 62.0554 322.548 63.496C325.423 64.6966 328.299 65.657 330.934 66.8575C341.238 71.6596 345.312 79.1029 343.635 89.9077Z" fill="url(#paint6_linear_509_5151)"/>
<path d="M324.441 115.346H315.303C314.822 115.346 314.582 115.105 314.582 114.624V105.245C301.837 103.562 294.382 97.069 291.496 84.8043C291.496 84.3234 291.737 84.0829 291.977 83.8424L306.165 80.4756C306.406 80.4756 306.886 80.4756 306.886 80.9566C307.608 82.3995 307.848 83.1209 307.848 83.6019C309.532 88.6521 314.341 91.7784 319.632 91.7784C321.315 91.7784 322.998 91.5379 324.682 90.8164C327.567 89.614 329.251 87.4497 329.491 84.3234C329.732 81.6781 328.529 79.5137 325.884 78.3113C323.239 77.1089 320.353 76.1469 317.467 75.185C316.265 74.704 315.303 74.4635 314.101 73.9826C313.379 73.7421 312.658 73.5016 311.936 73.2611C310.494 72.7801 309.291 72.2992 307.848 71.8182C297.267 67.249 292.698 59.794 293.901 49.4532C295.103 39.3529 301.596 33.1003 312.898 30.936C313.86 30.6955 313.86 23.7215 313.86 23.7215C313.86 23.2405 314.101 23 314.582 23H323.479C323.96 23 324.201 23.2405 324.201 23.7215L324.441 30.6955C325.403 30.936 327.567 31.4169 331.174 32.6194C338.148 35.0242 342.717 39.8339 345.363 47.7698C345.603 48.2508 345.363 48.4913 344.882 48.7318L332.377 53.5414C330.934 52.5795 330.453 51.8581 330.213 51.1366C329.251 49.6937 328.289 48.0103 327.086 46.8079C324.682 44.1626 321.315 43.2006 317.227 44.1626C314.341 44.884 312.417 46.8079 311.936 49.4532C311.456 52.5795 312.417 54.7439 315.303 55.9463C317.708 56.9082 320.113 57.8702 322.517 58.8321C323.479 59.0726 324.441 59.5535 325.403 59.794C326.365 60.275 327.327 60.5155 328.289 60.756C330.213 61.4774 332.136 62.1989 333.82 62.9203C344.641 67.73 348.97 75.185 347.527 86.4877C346.324 95.8666 338.629 102.841 327.808 104.764C327.086 105.005 326.365 105.005 325.403 105.245C324.682 105.486 324.682 114.624 324.682 114.624C325.163 114.865 324.922 115.346 324.441 115.346ZM316.025 113.903H323.72V104.524C324.201 103.803 325.644 103.562 325.644 103.562C326.605 103.322 327.327 103.081 328.048 103.081C338.389 101.157 345.363 94.9047 346.565 86.0068C348.008 75.4255 343.92 68.4514 333.82 63.8822C331.896 63.1608 330.213 62.4393 328.289 61.7179C327.327 61.4774 326.365 60.9964 325.403 60.5155C324.441 60.0345 323.479 59.794 322.517 59.5535C320.113 58.5916 317.708 57.6297 315.303 56.6677C311.936 55.2248 310.494 52.339 310.975 48.4913C311.456 45.1245 313.86 42.7197 317.227 41.9982C321.796 40.7958 325.884 41.9982 328.529 45.1245C329.732 46.5674 330.694 48.0103 331.655 49.6937C331.896 50.1747 332.377 50.8961 332.858 51.3771L344.16 47.0484C341.755 40.0744 337.427 35.7456 331.174 33.5813C326.125 31.8979 324.201 31.6574 324.201 31.6574C323.96 31.6574 323.479 31.4169 323.479 30.936L323.239 24.2024H315.784V31.1764C314.341 32.1384 313.86 32.1384 313.62 32.3789C303.039 34.5432 297.027 40.3148 295.825 49.6937C294.622 59.3131 298.951 66.5276 308.81 70.6158C310.013 71.0968 311.456 71.5777 312.898 72.0587C313.62 72.2992 314.341 72.5397 315.063 72.7801C316.265 73.2611 317.227 73.5016 318.429 73.9826C321.315 74.9445 324.201 76.1469 326.846 77.1089C329.972 78.5518 331.655 81.1971 331.415 84.5639C331.174 88.4116 329.251 91.0569 325.644 92.2593C323.72 92.9808 322.036 93.2213 320.113 93.2213C314.101 93.2213 308.81 89.614 306.886 84.0829C306.646 83.6019 306.406 82.8805 306.165 82.3995C305.925 82.159 293.179 85.2853 293.179 85.2853C296.065 96.588 303.279 102.6 315.544 104.043C316.025 104.043 316.265 104.284 316.265 104.764V113.903H316.025Z" fill="#343B43"/>
<path d="M56.3493 182.31V211.053L40.4844 218.717V189.975L56.3493 182.31Z" fill="url(#paint7_linear_509_5151)"/>
<path d="M228.672 120.171V144.534C228.672 144.534 219.645 139.881 210.892 138.786C202.412 137.417 196.121 136.869 196.121 136.869V112.507C196.121 112.507 205.968 112.233 215.268 114.97C224.295 117.981 228.672 120.171 228.672 120.171Z" fill="#343B43"/>
<path d="M229.221 110.864L228.674 205.03C228.674 205.03 243.171 194.902 250.556 183.131C257.942 171.634 261.498 161.232 262.045 157.947C262.592 154.389 263.413 141.249 257.668 133.585C251.924 125.646 249.736 120.719 229.221 110.864Z" fill="url(#paint8_linear_509_5151)"/>
<path d="M449.142 279.761C449.142 279.761 439.295 317.537 406.197 333.414L406.471 321.917C406.471 321.917 420.968 316.99 430.268 308.777C443.671 296.733 449.142 279.761 449.142 279.761Z" fill="#343B43"/>
<path d="M545.973 281.951C545.973 281.951 542.417 282.499 538.861 283.32L533.391 296.185C533.391 296.185 553.359 320.548 572.779 330.677L584.268 335.604L585.909 333.688C585.909 333.688 564.847 320.822 559.65 314.526C554.726 308.23 548.709 303.576 548.709 303.576C548.709 303.576 550.35 298.375 554.453 292.079L545.973 281.951Z" fill="#343B43"/>
<path d="M568.401 274.286C568.401 274.286 565.939 268.812 565.392 266.622C564.845 264.432 563.203 258.136 560.195 258.41C557.186 258.683 556.092 261.694 556.912 264.705C557.733 267.717 560.468 274.834 557.459 275.381C554.45 275.929 549.527 272.918 545.971 269.907C542.415 266.895 533.935 260.052 533.935 260.052C533.935 260.052 531.2 261.147 530.653 262.516C530.106 263.884 531.2 266.074 531.2 266.074C531.2 266.074 529.012 265.253 527.644 266.895C526.55 268.264 526.003 271.001 526.824 271.823C526.824 271.823 522.721 274.834 525.456 278.392C528.191 281.951 532.021 287.152 536.671 290.984C541.594 295.091 544.877 298.375 550.621 299.744C550.621 299.744 555.545 289.889 558.28 286.331C560.742 283.046 568.401 274.286 568.401 274.286Z" fill="white"/>
<path d="M300.885 217.622L311.28 255.125L313.194 259.504L317.571 263.063L319.759 264.158H339.18L346.565 286.878H290.491L271.344 217.896L300.885 217.622Z" fill="#343B43"/>
<path d="M109.958 148.093C111.873 157.4 110.505 157.674 110.505 157.674H114.335L115.976 156.852C116.25 156.031 118.164 149.188 114.882 143.713C111.326 137.964 103.667 135.501 96.8288 139.059C96.2817 139.333 95.7347 139.881 94.9141 140.154C97.3759 140.154 108.317 139.881 109.958 148.093Z" fill="white"/>
<path d="M121.447 155.484C124.183 155.757 135.398 156.852 134.851 163.422C134.304 170.813 121.174 182.858 120.9 182.858C121.995 182.31 123.089 182.036 124.183 181.215C128.012 179.025 132.115 174.919 133.209 173.55C134.304 172.182 138.133 165.612 138.133 165.612C138.133 165.612 140.868 168.349 141.142 170.266C141.142 170.266 143.057 163.696 137.586 157.4C134.851 153.294 126.918 154.115 121.447 155.484Z" fill="white"/>
<path d="M547.067 164.243C547.067 164.243 539.408 166.981 542.143 171.087C542.143 171.087 544.331 170.813 545.699 168.897C547.34 167.254 547.067 164.243 547.067 164.243Z" fill="white"/>
<path d="M524.912 138.512C524.912 138.512 529.836 139.607 535.033 138.238C536.401 137.964 537.768 137.417 538.863 136.596C534.213 138.238 526.007 133.858 526.007 133.858C526.554 127.015 536.674 121.266 538.042 120.445C537.495 120.445 537.221 120.445 536.674 120.445C528.742 120.993 520.536 130.3 520.809 138.512C520.809 138.512 524.639 148.366 524.639 148.093L524.912 138.512Z" fill="white"/>
<path d="M542.141 177.109C525.729 178.204 528.191 160.685 528.191 160.685C528.191 160.685 527.37 160.685 526.549 160.958C525.729 161.232 525.182 161.78 525.182 161.78C525.182 161.78 523.54 178.478 535.302 177.657C535.302 177.657 541.594 177.93 546.791 177.109C545.97 176.835 544.602 176.835 542.141 177.109Z" fill="white"/>
<path d="M549.527 211.326L543.783 221.455L547.065 229.667L542.142 266.074L540.774 264.979L538.859 256.493L542.962 229.941L539.68 221.455L547.339 206.947L549.527 211.326Z" fill="white"/>
<path d="M414.404 319.179C414.404 319.179 409.754 302.755 392.521 303.576C375.289 304.398 370.092 317.263 370.092 317.263C370.092 317.263 378.298 323.286 392.795 323.286C407.566 323.559 414.404 319.179 414.404 319.179Z" fill="#343B43"/>
<path d="M191.746 230.488C192.293 227.477 195.576 221.181 195.576 221.181L197.764 212.695C197.764 212.421 198.037 211.874 198.037 211.326C198.858 208.589 199.679 205.304 202.14 203.662C203.508 202.841 205.149 202.841 206.517 202.841C208.432 202.841 210.346 203.114 212.535 203.388C213.355 203.662 214.449 203.935 215.27 204.209C217.185 205.304 218.826 207.494 217.732 209.958C217.185 211.326 216.091 212.148 214.449 212.969C212.808 213.516 210.62 213.79 209.252 213.79C206.517 213.79 203.782 213.243 201.593 212.148C204.055 212.148 206.517 212.421 208.979 212.421C210.62 212.421 212.535 212.148 214.176 211.6C215.27 211.053 216.364 210.231 216.638 209.41C217.458 207.768 216.364 205.852 214.996 205.304C214.176 205.03 213.355 204.757 212.535 204.483C210.62 204.209 208.705 203.935 206.79 203.935C205.423 203.935 204.055 203.935 202.961 204.757C200.773 206.125 199.952 208.863 199.405 211.6C199.405 212.148 199.132 212.421 199.132 212.969L196.943 221.455C196.67 221.729 193.387 228.025 192.293 229.941C192.293 230.214 192.02 230.488 191.746 230.488Z" fill="#343B43"/>
<path d="M221.014 228.298C219.1 228.024 218.005 226.929 217.458 225.013C216.911 223.645 217.185 222.002 217.732 220.633C218.552 218.991 219.373 217.622 220.741 216.254C220.467 218.444 219.647 219.812 219.1 221.181C218.552 222.55 218.552 223.645 218.826 224.74C219.373 226.382 220.194 226.929 221.288 227.203C221.561 228.024 221.288 228.298 221.014 228.298Z" fill="#343B43"/>
<path d="M217.458 206.947C218.279 204.209 219.373 202.841 220.74 201.198C222.929 198.461 224.843 196.271 224.023 193.26C223.749 192.165 222.929 190.796 221.287 191.07C220.467 191.343 219.92 191.617 219.099 192.438C215.27 195.723 211.987 200.103 209.252 203.935C210.893 199.282 214.176 194.902 218.279 191.617C219.099 190.796 219.92 190.249 221.014 189.975C223.202 189.427 224.843 191.07 225.39 192.986C226.211 196.545 224.296 199.282 222.382 201.472C220.74 203.662 219.646 205.03 218.279 206.673C217.732 206.947 217.731 206.947 217.458 206.947Z" fill="#343B43"/>
<path d="M223.749 209.136C222.655 207.494 222.108 206.947 220.74 206.399C219.919 206.125 218.552 206.125 217.731 207.22C217.458 205.304 219.099 204.757 221.014 205.304C222.655 205.852 223.749 206.673 224.296 208.315C224.022 209.136 224.022 209.136 223.749 209.136Z" fill="#343B43"/>
<path d="M214.725 221.729C213.083 221.729 210.622 220.907 209.801 218.991C209.254 217.896 208.707 215.706 210.622 212.969C210.622 215.433 210.348 217.075 210.895 218.444C211.716 219.812 213.357 220.36 214.725 220.36C216.092 220.36 217.186 219.539 218.007 218.717C218.554 218.17 219.101 217.349 219.648 216.801C219.922 216.527 220.195 215.98 220.742 215.433C221.289 216.801 221.016 217.075 220.742 217.622C220.195 218.17 219.648 218.991 218.828 219.539C218.007 220.634 216.639 221.729 214.725 221.729Z" fill="#343B43"/>
<path d="M209.525 228.846C211.714 224.466 211.44 220.36 211.44 220.36C212.808 220.36 213.081 224.74 210.072 228.572C209.799 228.572 209.525 228.846 209.525 228.846Z" fill="#343B43"/>
<path d="M618.458 345.185C595.481 345.185 565.119 321.917 548.434 303.85C548.434 303.029 551.99 293.448 558.281 285.236C564.846 276.476 569.769 271.823 569.769 271.823C570.863 271.823 603.414 287.426 623.929 304.945C603.687 289.616 574.146 274.834 570.316 273.191C569.222 274.286 564.846 278.94 559.375 286.057C553.904 293.174 550.622 301.386 549.801 303.303C574.693 330.129 611.62 352.302 631.314 340.531C659.214 323.559 642.802 283.046 629.673 250.745C627.485 244.996 625.296 239.795 623.382 234.868C623.108 234.32 623.108 233.773 622.835 233.225C620.099 225.835 615.176 211.874 603.414 204.757C595.208 199.829 583.446 196.818 571.41 196.818C583.719 195.45 595.755 198.461 604.234 203.662C616.27 211.053 621.467 225.287 624.202 232.678C624.476 233.225 624.749 233.773 624.749 234.32C626.664 239.248 628.852 244.722 631.041 250.197C644.444 283.046 661.129 324.107 632.135 341.626C628.032 344.09 623.382 345.185 618.458 345.185Z" fill="#343B43"/>
<path d="M550.622 300.565C541.322 299.197 525.731 282.772 524.09 277.297C523.269 274.56 524.637 272.644 526.004 271.549C525.184 269.907 525.184 268.264 526.551 266.895C527.098 266.348 527.645 265.8 528.193 265.8C529.287 265.253 530.381 265.527 531.748 266.348C530.107 266.895 529.287 266.895 528.74 267.169C528.193 267.443 527.919 267.717 527.645 267.99C526.551 269.085 526.551 270.454 527.372 271.549C527.098 272.644 524.363 274.013 525.184 277.024C526.825 282.225 541.869 298.102 550.349 299.47C551.169 300.292 550.896 300.565 550.622 300.565Z" fill="#343B43"/>
<path d="M545.697 279.487C542.688 277.845 535.85 271.823 533.935 269.906C531.747 267.717 529.559 266.074 529.559 263.884C529.559 262.789 530.106 261.694 530.926 260.873C534.209 257.862 537.491 260.873 539.406 262.516C539.679 262.789 540.226 263.337 541.047 264.158C543.235 266.348 546.244 269.359 548.159 270.728C549.8 272.096 554.997 275.929 557.185 275.108C558.553 274.286 559.1 273.191 557.185 267.99C555.818 264.432 555.818 260.873 556.912 258.957C557.459 258.136 558.006 257.588 559.1 257.588C563.203 257.041 564.024 260.052 564.844 262.516C565.118 263.063 565.118 263.61 565.391 264.158C565.939 265.253 566.212 266.622 566.486 267.717C567.033 269.907 567.58 272.096 569.221 274.013C566.486 272.644 565.939 270.454 565.391 267.99C565.118 266.895 564.844 265.527 564.297 264.432C564.024 263.884 563.75 263.337 563.75 262.789C562.93 260.052 562.109 258.409 559.374 258.683C558.827 258.683 558.553 258.957 558.28 259.504C557.459 260.873 557.459 264.158 558.827 267.443C560.468 272.096 560.741 274.834 558.006 276.203C555.544 277.297 551.441 274.56 547.612 271.823C545.697 270.18 542.415 267.169 540.5 264.979C539.953 264.432 539.406 263.884 538.859 263.337C536.123 260.599 534.482 259.778 532.294 261.694C531.473 262.242 531.2 263.063 531.2 263.61C531.2 265.253 533.115 266.895 534.209 267.99C536.944 270.728 543.782 276.476 546.244 278.119C545.971 279.214 545.971 279.487 545.697 279.487Z" fill="#343B43"/>
<path d="M541.321 285.783C540.774 285.51 537.492 282.772 533.663 279.761C530.927 277.571 527.918 274.013 526.824 272.644C527.645 271.549 531.201 276.202 534.483 278.666C538.313 281.677 541.595 284.415 541.595 284.415C541.595 285.51 541.321 285.783 541.321 285.783Z" fill="#343B43"/>
<path d="M220.469 240.616C216.913 240.616 210.622 238.974 202.963 235.963C196.398 233.225 184.089 227.477 185.457 223.918C186.004 222.55 187.645 222.55 188.739 222.55C190.654 222.55 192.569 223.097 194.21 223.645C192.295 224.192 190.654 223.918 188.739 223.918C187.645 223.918 186.824 223.918 186.551 224.466C186.004 225.561 191.748 229.941 203.236 234.594C210.348 237.605 216.639 239.248 220.195 239.248C221.29 240.343 221.016 240.616 220.469 240.616Z" fill="#343B43"/>
<path d="M367.356 223.097C367.356 220.907 367.903 218.444 368.724 216.254C368.997 214.885 369.545 213.243 369.818 212.421C370.639 210.231 371.459 207.768 370.912 205.578C370.639 204.757 370.092 204.209 369.545 203.662C368.724 203.388 367.63 203.388 366.809 203.935C365.989 204.483 365.442 205.304 364.621 206.399C364.347 206.673 364.347 207.494 364.074 208.042C363.527 209.958 362.98 212.695 360.518 213.243C357.236 214.064 354.774 211.326 353.133 205.304C352.585 202.84 351.765 200.651 351.218 198.734C349.577 193.807 348.209 189.701 346.294 185.869C345.747 184.5 345.2 183.679 344.379 182.858C343.832 182.584 343.285 182.31 342.738 182.31C341.918 182.31 341.097 182.858 340.55 183.405C339.729 184.5 339.456 186.142 340.003 187.785C340.824 191.07 344.927 202.293 344.927 202.293C344.106 203.114 341.918 202.567 340.276 203.662C339.456 204.209 338.909 205.304 338.635 206.673C338.088 207.22 335.9 207.494 334.532 208.863C333.712 209.958 333.165 211.6 333.438 213.516C331.797 211.326 332.344 209.41 333.438 208.042C334.806 206.673 336.447 206.125 337.268 205.852C337.541 204.209 338.362 203.114 339.456 202.293C340.824 201.472 342.191 201.472 343.285 201.472C342.191 198.734 339.456 190.522 338.635 187.785C338.088 185.869 338.362 183.679 339.456 182.31C340.276 181.215 341.371 180.668 342.738 180.668C343.559 180.668 344.653 180.941 345.2 181.489C346.294 182.31 346.841 183.405 347.388 184.5C349.303 188.606 350.944 192.712 352.585 197.913C353.133 199.829 353.68 202.019 354.5 204.483C355.868 209.684 357.783 212.148 360.244 211.6C361.886 211.326 362.433 209.136 362.706 207.494C362.98 206.673 362.98 205.852 363.527 205.578C364.347 204.209 365.168 203.114 365.989 202.567C367.356 201.746 368.997 201.472 370.092 202.293C371.186 202.84 371.733 203.662 372.28 205.03C373.1 207.494 372.006 210.231 371.186 212.421C370.912 213.516 370.365 214.885 370.092 216.254C369.545 218.444 368.724 220.907 368.177 222.276C367.903 222.823 367.63 223.097 367.356 223.097Z" fill="#343B43"/>
<path d="M341.372 216.527C337.27 211.053 337.27 207.22 337.27 206.947C338.637 206.947 338.637 210.505 341.92 215.432C341.646 216.527 341.372 216.527 341.372 216.527Z" fill="#343B43"/>
<path d="M347.115 211.326C343.832 205.03 343.559 203.114 343.559 203.114C344.926 203.114 345.2 204.757 347.662 210.505C347.388 211.326 347.115 211.326 347.115 211.326Z" fill="#343B43"/>
<path d="M336.994 228.298C332.344 221.455 332.344 213.79 332.344 213.243C333.711 213.243 333.711 220.907 337.541 227.203C336.994 228.298 336.994 228.298 336.994 228.298Z" fill="#343B43"/>
<path d="M540.227 172.182C538.859 172.182 537.492 171.908 536.397 171.087C535.03 170.266 533.936 168.897 533.936 167.802C533.936 166.707 534.209 165.886 535.03 165.338C535.85 164.791 537.218 164.517 538.586 165.065C540.227 165.612 540.5 165.612 540.774 165.612C541.321 165.338 541.321 165.338 542.142 163.696C542.689 162.327 543.783 161.506 544.877 161.506C545.698 161.506 546.518 161.78 547.339 162.601C547.886 163.422 548.159 164.791 547.612 166.433C547.065 168.897 545.424 170.813 543.236 171.634C542.142 172.182 541.047 172.182 540.227 172.182ZM536.671 166.159C536.124 166.159 535.85 166.159 535.577 166.433C535.303 166.707 535.03 166.981 535.03 167.528C535.03 168.076 535.577 169.171 536.944 169.718C537.765 170.266 539.953 171.087 542.415 170.266C544.056 169.718 545.424 168.076 545.971 165.886C546.245 164.517 546.245 163.422 545.971 163.148C545.698 162.601 545.424 162.601 544.877 162.601C544.33 162.601 543.509 163.148 543.236 163.97C542.415 165.886 541.868 166.159 541.047 166.433C540.227 166.707 539.68 166.707 537.765 165.886C537.492 166.433 537.218 166.159 536.671 166.159Z" fill="#343B43"/>
<path d="M541.87 171.908C539.955 166.433 544.332 163.97 546.793 163.422C546.793 164.791 541.323 166.16 542.417 171.087C542.143 171.908 541.87 171.908 541.87 171.908Z" fill="#343B43"/>
<path d="M528.19 154.115C527.096 153.841 526.002 153.294 525.729 150.556C525.729 149.188 525.729 147.819 525.729 147.819C526.823 150.009 526.823 152.746 527.917 153.02C529.284 152.199 529.832 149.735 529.832 148.366C531.199 148.914 530.652 152.746 529.011 154.115C529.011 153.841 528.737 154.115 528.19 154.115Z" fill="#343B43"/>
<path d="M543.785 154.115C540.776 153.568 541.596 148.367 541.596 147.545C542.691 149.735 542.69 152.473 543.511 152.746C544.879 151.925 545.426 149.461 545.699 147.819C547.067 148.367 546.52 152.473 544.879 153.568C544.605 153.841 544.058 154.115 543.785 154.115Z" fill="#343B43"/>
<path d="M131.294 208.041C129.927 208.041 128.833 208.041 127.465 208.041C129.653 206.947 131.841 206.947 133.483 206.947C137.039 206.947 140.047 206.947 141.962 204.757C142.509 204.209 143.33 203.388 143.603 202.567C144.15 201.472 144.424 199.829 144.424 198.734C144.697 197.092 144.697 195.723 144.697 193.807C144.697 190.796 144.15 187.785 143.877 184.774C143.33 180.394 141.415 171.908 141.142 171.908C142.509 171.908 144.424 180.12 144.971 183.679C145.518 187.511 146.065 190.522 146.065 193.533C146.065 195.449 146.065 197.092 145.792 198.734C145.518 200.103 145.518 201.472 144.697 202.84C144.15 203.935 143.603 204.757 142.783 205.578C140.321 208.041 137.039 208.041 134.03 208.041C132.662 207.768 132.115 208.041 131.294 208.041Z" fill="#343B43"/>
<path d="M126.647 180.668C127.194 180.394 127.467 180.668 128.014 182.584C128.561 184.774 128.014 185.047 127.467 185.047C126.92 185.047 126.373 184.5 126.373 183.131C126.099 181.489 126.099 180.668 126.647 180.668Z" fill="#343B43"/>
<path d="M140.05 177.657C140.597 177.383 140.87 177.657 141.417 179.573C141.965 181.489 141.417 182.036 140.87 182.036C140.323 182.036 139.776 181.489 139.503 180.12C139.503 178.752 139.229 177.93 140.05 177.657Z" fill="#343B43"/>
<path d="M142.509 174.372C141.415 173.824 140.595 173.277 138.406 174.098C140.321 171.908 141.689 172.456 142.783 173.003C142.783 174.372 142.509 174.372 142.509 174.372Z" fill="#343B43"/>
<path d="M113.791 198.187C110.235 198.187 107.227 195.723 106.406 192.165C105.859 190.248 106.406 188.332 107.5 186.416C108.594 184.774 110.235 183.679 112.15 183.131C113.518 182.857 115.159 182.857 116.527 183.405C116.8 183.405 117.894 183.679 118.989 185.047C117.074 184.774 116.253 184.774 116.253 184.774C114.886 184.226 113.518 184.226 112.424 184.5C110.783 184.774 109.415 185.869 108.594 187.237C107.774 188.606 107.5 190.248 107.774 191.891C108.594 195.176 111.877 197.366 115.159 196.544C116.253 196.271 117.347 195.723 118.168 194.902C118.168 196.818 116.8 197.366 115.433 197.639C114.886 198.187 114.338 198.187 113.791 198.187Z" fill="#343B43"/>
<path d="M112.422 194.902C111.875 193.807 115.431 190.248 115.431 190.248L110.781 187.511C111.328 186.416 116.799 189.701 116.799 189.701C116.799 190.796 112.696 194.628 112.696 194.628C112.696 194.902 112.696 194.902 112.422 194.902Z" fill="#343B43"/>
<path d="M132.938 234.32C132.117 234.32 131.023 234.047 130.203 233.773C126.647 232.678 123.638 229.941 121.997 228.025C119.261 225.013 116.799 221.181 114.885 216.801C117.894 220.36 120.355 224.192 122.817 227.203C124.458 229.119 127.194 231.583 130.476 232.678C132.391 233.226 134.032 233.226 135.4 232.404C139.503 229.941 138.135 225.835 136.494 221.455C135.673 219.539 135.126 217.622 135.126 215.98C135.126 215.98 135.126 215.706 134.579 207.22C135.947 207.22 136.494 215.433 136.494 215.706C136.494 217.075 137.314 218.991 137.862 220.634C139.503 224.74 141.417 230.214 136.22 233.226C135.4 234.047 134.306 234.32 132.938 234.32Z" fill="#343B43"/>
<path d="M115.432 216.527C114.885 215.98 114.611 197.366 114.611 197.366C115.979 197.366 115.979 215.706 115.979 215.706C115.432 216.527 115.432 216.527 115.432 216.527Z" fill="#343B43"/>
<path d="M178.343 368.453C177.249 359.967 176.975 352.028 176.702 344.363C176.428 333.14 175.881 321.643 175.334 310.146C177.249 321.643 177.796 333.14 178.069 344.363C178.343 352.028 178.616 359.967 178.89 367.905C178.343 368.452 178.343 368.453 178.343 368.453Z" fill="#343B43"/>
<path d="M173.693 278.119C171.505 261.694 169.043 247.46 165.76 234.047C164.94 230.762 164.119 227.751 162.478 224.74C157.828 216.527 147.707 216.527 138.954 216.527C137.86 216.527 137.039 216.527 135.945 216.527C137.039 215.159 137.86 215.159 138.954 215.159C147.981 215.159 158.375 215.159 163.572 224.192C165.213 227.203 166.307 230.488 167.128 233.773C170.684 247.186 172.872 261.421 174.513 277.571C173.693 278.119 173.693 278.119 173.693 278.119Z" fill="#343B43"/>
<path d="M139.775 191.617C139.775 188.606 139.775 186.142 139.502 185.869C139.228 185.869 137.587 186.142 136.493 186.964C135.672 186.416 134.031 177.383 134.031 177.383C135.399 177.109 136.767 185.321 136.767 185.321C138.134 184.774 139.775 184.226 140.596 184.774C141.964 185.869 141.143 189.427 140.87 191.07C140.323 191.343 140.049 191.617 139.775 191.617Z" fill="#343B43"/>
<path d="M71.1212 248.281C70.5741 248.007 70.3006 247.734 70.5741 247.46C74.9506 234.32 80.1478 225.835 86.1655 222.276C93.2774 217.896 100.389 215.432 114.613 215.432C100.663 216.801 93.5509 219.265 86.7126 223.645C80.9684 227.203 76.0448 235.415 71.6682 248.281C71.6682 248.007 71.3947 248.281 71.1212 248.281Z" fill="#343B43"/>
<path d="M42.3984 368.453C43.7661 357.503 45.9544 347.648 47.8691 338.615C47.322 347.922 45.1338 357.777 42.9455 367.905C42.9455 368.179 42.672 368.453 42.3984 368.453Z" fill="#343B43"/>
<path d="M95.4629 368.453C96.2835 360.514 97.6512 353.397 98.7453 345.458C98.7453 353.671 97.3776 360.788 96.01 367.905C96.01 368.179 95.7364 368.453 95.4629 368.453Z" fill="#343B43"/>
<path d="M114.608 201.198C103.667 200.103 96.0078 188.332 96.5549 173.277C96.8284 167.802 98.4696 163.696 101.752 160.685C106.676 156.579 113.24 156.852 114.335 156.852C116.249 156.031 133.755 148.914 139.5 157.947C144.15 165.065 142.508 171.087 142.235 171.361C140.594 168.897 139.226 166.981 138.405 166.16C137.038 169.444 131.02 180.941 117.07 184.774C132.388 179.299 137.585 165.065 137.585 164.791C138.679 164.517 140.047 165.612 141.414 168.076C141.414 165.612 140.867 162.327 138.405 158.495C132.935 150.009 114.882 157.674 114.608 157.947C114.335 157.947 107.223 157.126 102.299 161.506C99.2902 163.97 97.649 168.076 97.3755 173.003C96.8284 187.511 103.94 198.734 114.061 199.556C115.155 200.924 114.882 201.198 114.608 201.198Z" fill="#343B43"/>
<path d="M477.043 217.896C477.59 215.433 478.684 214.338 480.325 213.243C494.823 200.651 508.499 198.734 520.261 196.818C521.355 196.545 522.176 196.545 523.27 196.271C522.449 197.64 521.355 197.913 520.535 197.913C508.773 199.829 495.37 201.746 481.146 214.064C479.778 215.159 478.684 216.254 477.59 217.622C477.317 217.622 477.043 217.896 477.043 217.896Z" fill="#343B43"/>
<path d="M531.2 236.237C530.653 235.689 522.721 197.366 522.721 197.366C522.994 196.818 533.936 187.237 533.936 187.237C535.03 187.237 547.339 205.852 547.339 205.852L559.374 187.237C560.195 186.964 571.683 195.45 571.683 195.45C571.957 195.997 565.392 227.751 565.392 227.751C564.024 227.477 570.589 196.271 570.589 196.271L560.195 188.332L548.159 206.673L561.562 231.036C560.468 231.583 547.339 208.042 547.339 208.042L531.747 235.689C531.474 235.963 531.474 236.237 531.2 236.237ZM524.088 197.366L531.474 233.773L546.792 206.947L534.483 188.606L524.088 197.366Z" fill="#343B43"/>
<path d="M542.964 230.762C542.417 230.488 538.588 221.728 538.588 221.728C539.682 221.181 543.238 229.667 543.238 229.667H552.265L555 221.728C556.368 222.276 553.359 230.488 553.359 230.488C552.812 230.762 542.964 230.762 542.964 230.762Z" fill="#343B43"/>
<path d="M559.923 188.332C559.376 187.785 558.008 162.601 558.008 162.601C559.376 162.601 560.47 187.785 560.47 187.785C559.923 188.332 559.923 188.332 559.923 188.332Z" fill="#343B43"/>
<path d="M534.209 188.332C533.662 187.785 533.662 177.657 533.662 177.657C535.03 177.657 534.756 187.511 534.756 187.511C535.03 188.059 534.756 188.332 534.209 188.332Z" fill="#343B43"/>
<path d="M538.86 257.315C538.313 256.493 542.143 229.941 542.143 229.941C543.51 230.214 539.407 256.767 539.407 256.767C539.407 257.041 539.134 257.315 538.86 257.315Z" fill="#343B43"/>
<path d="M554.727 247.186C554.18 246.639 551.992 230.214 551.992 230.214C553.36 229.941 555.275 246.365 555.275 246.365C554.727 247.186 554.727 247.186 554.727 247.186Z" fill="#343B43"/>
<path d="M540.229 264.705C539.682 264.158 532.844 231.583 532.844 231.583C534.211 231.309 540.776 263.884 540.776 263.884C540.229 264.705 540.229 264.705 540.229 264.705Z" fill="#343B43"/>
<path d="M547.614 369C547.067 368.453 546.793 319.453 546.793 319.453C548.161 319.453 548.434 368.179 548.434 368.179C547.614 369 547.614 369 547.614 369Z" fill="#343B43"/>
<path d="M401.547 368.453C401 368.179 400.726 367.905 401 367.631C404.009 358.598 405.376 335.604 406.197 323.012C406.744 335.604 405.376 358.872 402.368 367.905C401.82 368.179 401.82 368.453 401.547 368.453Z" fill="#343B43"/>
<path d="M135.674 198.187C134.853 198.187 134.306 197.913 133.485 197.639C131.297 196.544 130.75 193.807 130.75 193.807C132.118 193.533 132.665 195.723 134.032 196.544C134.853 197.092 136.221 197.092 137.588 196.271C137.315 197.913 136.494 198.187 135.674 198.187Z" fill="#343B43"/>
<path d="M535.852 178.204C532.296 178.204 528.74 177.657 526.552 174.372C524.363 170.813 524.09 166.16 524.09 162.327C524.09 161.506 524.09 160.685 524.09 159.59C524.09 156.852 524.363 139.881 524.363 139.333C525.731 139.607 525.184 156.852 525.458 159.59C525.458 160.411 525.458 161.232 525.458 162.327C525.458 166.433 525.457 170.539 527.646 173.824C529.834 177.109 533.664 177.109 537.767 177.109C538.314 177.109 538.861 177.109 539.134 177.109C542.417 177.109 544.878 176.835 547.34 176.288C549.528 175.74 551.99 175.193 553.084 173.277C554.452 171.087 554.726 168.349 554.999 166.16C554.999 164.517 554.999 163.148 554.999 161.78C554.452 158.221 553.905 152.746 553.905 152.746C554.452 151.104 555.273 149.735 556.64 148.914C558.281 147.545 560.743 146.724 562.932 146.998C565.12 147.272 567.308 148.367 568.676 150.009C571.685 153.568 571.138 159.042 567.582 162.053C564.573 164.517 560.196 164.791 556.914 162.327C560.47 163.422 564.026 163.148 566.761 161.232C569.77 158.769 570.317 154.115 567.855 151.104C565.393 148.093 560.743 147.545 557.734 150.009C556.914 150.83 556.093 151.651 555.546 153.02C555.546 153.841 556.093 158.769 556.64 162.053C556.914 163.422 556.914 165.065 556.64 166.707C556.64 169.171 556.093 172.182 554.452 174.645C552.811 177.109 550.075 177.657 547.887 178.204C545.425 178.752 542.69 179.025 539.408 179.025C538.861 179.025 538.587 179.025 538.04 179.025C537.219 178.204 536.672 178.204 535.852 178.204Z" fill="#343B43"/>
<path d="M525.456 145.355C524.909 144.26 526.551 141.249 531.201 142.344C527.371 142.618 526.277 145.082 526.277 145.082C525.73 145.082 525.456 145.355 525.456 145.355Z" fill="#343B43"/>
<path d="M547.886 145.629C544.33 141.523 541.321 143.439 541.047 143.439C540.5 142.344 544.603 139.881 548.159 144.534C548.159 145.629 548.159 145.629 547.886 145.629Z" fill="#343B43"/>
<path d="M564.57 159.863C564.297 159.863 558.279 156.852 558.279 156.852C558.005 155.757 563.75 150.009 563.75 150.009C564.57 150.83 559.647 156.031 559.647 156.031L564.844 158.769C564.844 159.59 564.57 159.863 564.57 159.863Z" fill="#343B43"/>
<path d="M547.614 128.383C547.067 127.289 550.35 123.456 550.35 123.456C551.444 124.277 548.161 128.383 548.161 128.383C547.888 128.383 547.888 128.383 547.614 128.383Z" fill="#343B43"/>
<path d="M538.587 160.411C539.955 157.4 543.511 157.674 546.246 157.947C547.34 157.947 548.708 158.221 548.982 157.947C549.802 157.674 550.896 153.568 551.17 148.914L551.717 146.998C547.067 142.07 545.973 136.048 545.426 133.311C542.69 135.774 534.758 141.523 523.27 139.059C536.946 140.976 545.426 131.668 545.426 131.395C546.52 131.942 546.793 140.154 552.811 146.45C553.085 146.998 552.538 149.188 552.538 149.188C552.264 151.925 551.443 158.769 549.529 159.316C548.708 159.59 547.614 159.316 546.246 159.316C543.784 159.042 540.502 158.769 539.134 160.137C538.861 160.137 538.861 160.411 538.587 160.411Z" fill="#343B43"/>
<path d="M524.91 162.053C527.098 159.316 529.56 160.137 529.834 160.137C529.287 161.232 527.372 160.685 525.457 161.78C525.184 162.053 524.91 162.053 524.91 162.053Z" fill="#343B43"/>
<path d="M642.256 368.453H0C0 367.084 642.256 367.084 642.256 367.084C642.803 367.905 642.529 368.453 642.256 368.453Z" fill="#343B43"/>
<path d="M445.039 204.757C444.219 204.757 443.125 204.483 442.304 204.209C440.936 203.662 439.569 202.567 438.748 201.198C440.663 201.472 441.757 202.293 442.851 202.841C446.133 204.209 449.963 202.293 451.331 199.008C451.878 197.366 451.878 195.723 451.057 194.081C450.236 192.438 449.142 191.343 447.501 190.796C445.313 189.975 443.125 190.249 441.21 191.617C442.578 188.88 445.313 188.606 447.775 189.427C449.689 190.249 451.331 191.617 452.151 193.533C452.972 195.45 452.972 197.639 452.425 199.556C451.057 202.841 448.322 204.757 445.039 204.757Z" fill="#343B43"/>
<path d="M445.585 201.198C445.038 200.924 441.482 196.271 441.482 196.271C441.756 195.176 447.774 193.533 447.774 193.533C448.047 194.902 443.124 196.271 443.124 196.271L446.133 200.377C445.859 201.198 445.585 201.198 445.585 201.198Z" fill="#343B43"/>
<path d="M500.293 368.453C499.746 367.631 497.284 344.637 498.925 320.001C499.746 308.504 499.746 293.448 499.199 273.739C501.113 293.174 500.84 308.23 500.293 320.001C498.652 344.363 500.84 367.358 500.84 367.631C500.566 368.453 500.293 368.453 500.293 368.453Z" fill="#343B43"/>
<path d="M435.192 215.432C431.362 215.159 428.353 213.516 426.712 211.053C423.703 206.399 425.618 200.103 425.618 199.829L430.815 178.751C432.183 179.025 426.986 200.103 426.986 200.103C426.986 200.103 425.344 206.125 428.08 210.231C429.447 212.421 431.909 213.516 435.465 214.064C435.739 215.159 435.465 215.432 435.192 215.432Z" fill="#343B43"/>
<path d="M425.62 197.092C423.158 196.545 422.337 195.176 422.611 193.807L425.893 181.763C426.167 180.394 427.808 179.573 429.176 179.846C430.27 180.12 430.817 180.668 431.09 181.215C431.364 181.763 431.637 182.584 431.364 183.131L428.081 195.176C427.808 196.545 426.714 197.092 425.62 197.092ZM425.346 195.723C425.893 195.997 426.714 195.45 426.987 194.902L430.27 182.858C428.355 180.941 427.534 181.489 427.261 182.036L423.978 194.081C423.705 194.628 424.252 195.45 424.799 195.723H425.346Z" fill="#343B43"/>
<path d="M485.247 280.309C481.691 280.309 477.862 279.761 473.485 278.392C470.203 277.297 466.373 275.929 463.911 272.918C460.903 269.359 459.808 263.884 460.629 257.041C460.903 255.398 461.176 253.482 461.45 251.84C461.997 248.829 462.544 246.091 462.544 243.08C462.544 241.438 462.544 239.522 461.45 237.879C459.808 235.142 455.979 233.773 452.97 233.226C452.423 232.952 451.602 232.952 451.055 232.952C449.141 232.678 446.952 232.131 445.038 231.309C439.02 228.846 434.37 222.002 434.37 215.159C434.37 210.231 438.473 205.852 442.576 203.662C439.567 206.947 435.738 210.779 435.738 215.159C436.011 221.729 440.114 228.024 445.585 230.214C447.499 231.036 449.414 231.309 451.329 231.857C451.876 231.857 452.697 232.131 453.244 232.131C456.253 232.678 460.629 234.047 462.544 237.332C463.638 239.248 463.638 241.711 463.638 243.354C463.638 246.365 462.817 249.376 462.27 252.387C461.997 254.03 461.723 255.672 461.45 257.588C460.629 264.158 461.45 269.085 464.459 272.37C466.92 275.108 470.203 276.476 473.485 277.298C477.862 278.666 481.418 279.214 484.973 279.214C496.735 279.214 505.215 270.18 505.215 258.136C505.215 245.544 498.924 232.952 489.35 227.203C487.982 226.382 486.341 225.561 484.7 224.74C480.87 222.823 476.767 220.634 474.306 217.075C470.203 211.053 471.844 204.483 473.485 197.913C474.032 195.723 474.579 193.26 474.853 191.343C477.588 172.182 468.288 167.254 462.544 166.16C461.176 165.886 453.517 166.707 448.867 167.528C439.567 163.696 434.917 166.16 434.37 166.707C433.823 167.528 429.72 174.372 431.361 180.941C432.455 185.047 435.738 188.332 441.208 190.796C434.917 189.427 431.361 185.869 429.993 181.489C427.805 173.824 433.002 166.433 433.276 166.16C433.549 165.886 438.746 162.327 448.867 166.707C450.782 166.433 460.629 165.065 462.817 165.612C469.109 166.981 478.956 172.182 476.22 192.438C475.947 194.628 475.4 197.092 474.579 199.282C472.938 205.578 471.297 211.874 475.126 217.349C477.315 220.634 481.144 222.55 484.973 224.74C486.615 225.561 487.982 226.382 489.624 227.203C499.471 233.226 506.035 246.091 506.035 259.231C506.856 270.728 497.829 280.309 485.247 280.309C485.521 280.309 485.247 280.309 485.247 280.309Z" fill="#343B43"/>
<path d="M339.453 264.705H322.22C317.023 264.705 312.373 261.147 310.732 255.946L285.567 164.243C284.472 160.685 285.293 156.852 287.481 153.841C289.669 150.83 293.225 149.188 296.781 149.188H438.198C443.395 149.188 448.045 152.746 449.686 157.947L451.875 165.886C450.507 166.159 448.319 158.495 448.319 158.495C446.951 153.841 442.848 150.83 438.198 150.83H296.781C293.499 150.83 290.49 152.473 288.302 154.936C286.387 157.674 285.567 160.958 286.661 164.243L312.099 255.946C313.467 260.599 317.57 263.611 322.22 263.611H339.453C340.273 264.432 340 264.705 339.453 264.705Z" fill="#343B43"/>
<path d="M409.206 264.706H385.682C385.682 263.337 409.206 263.337 409.206 263.337C410.026 264.432 409.753 264.706 409.206 264.706Z" fill="#343B43"/>
<path d="M439.567 164.791C438.2 161.78 436.011 160.137 433.003 160.137H425.617C425.617 158.769 433.003 158.769 433.003 158.769C436.559 158.769 439.294 160.685 440.388 163.97C439.841 164.791 439.841 164.791 439.567 164.791Z" fill="#343B43"/>
<path d="M337.266 255.398H329.333C324.957 255.398 321.127 252.387 319.76 248.281L297.056 166.433C296.509 164.791 297.056 162.875 298.151 161.506C299.245 160.137 300.886 159.316 302.801 159.316H403.187C403.187 160.685 302.801 160.685 302.801 160.685C301.433 160.685 300.065 161.232 299.245 162.327C298.424 163.422 298.151 164.791 298.424 166.16L321.127 248.007C322.221 251.84 325.504 254.303 329.333 254.303H337.266C338.086 255.125 337.813 255.398 337.266 255.398Z" fill="#343B43"/>
<path d="M413.034 255.398H382.125C382.125 254.03 413.034 254.03 413.034 254.03C413.855 255.125 413.581 255.398 413.034 255.398Z" fill="#343B43"/>
<path d="M359.15 176.835H321.129C321.129 175.467 359.15 175.467 359.15 175.467C359.697 176.561 359.424 176.835 359.15 176.835Z" fill="#343B43"/>
<path d="M361.613 185.047H346.568C346.568 183.679 361.613 183.679 361.613 183.679C362.16 184.774 361.886 185.047 361.613 185.047Z" fill="#343B43"/>
<path d="M339.183 185.047H323.592C323.592 183.679 339.183 183.679 339.183 183.679C339.73 184.774 339.457 185.047 339.183 185.047Z" fill="#343B43"/>
<path d="M425.617 176.835H387.596C387.596 175.467 425.617 175.467 425.617 175.467C426.437 176.561 426.164 176.835 425.617 176.835Z" fill="#343B43"/>
<path d="M425.891 185.047H390.059C390.059 183.679 425.891 183.679 425.891 183.679C426.438 184.774 426.165 185.047 425.891 185.047Z" fill="#343B43"/>
<path d="M367.9 201.746H352.309C352.309 200.377 367.9 200.377 367.9 200.377C368.447 201.472 368.174 201.746 367.9 201.746Z" fill="#343B43"/>
<path d="M343.558 201.746H329.881C329.881 200.377 343.558 200.377 343.558 200.377C344.105 201.472 343.831 201.746 343.558 201.746Z" fill="#343B43"/>
<path d="M362.979 209.958H355.594C355.594 208.589 362.979 208.589 362.979 208.589C363.526 209.684 363.253 209.958 362.979 209.958Z" fill="#343B43"/>
<path d="M333.711 209.958H332.344C332.344 208.589 333.711 208.589 333.711 208.589C334.258 209.684 333.985 209.958 333.711 209.958Z" fill="#343B43"/>
<path d="M425.618 201.746H396.623C396.623 200.377 425.618 200.377 425.618 200.377C426.438 201.472 426.165 201.746 425.618 201.746Z" fill="#343B43"/>
<path d="M426.439 209.958H399.086C399.086 208.589 426.439 208.589 426.439 208.589C426.986 209.684 426.713 209.958 426.439 209.958Z" fill="#343B43"/>
<path d="M376.655 226.656H373.373C373.373 225.287 376.655 225.287 376.655 225.287C377.203 226.382 376.929 226.656 376.655 226.656Z" fill="#343B43"/>
<path d="M379.116 234.868H376.107C376.107 233.499 379.116 233.499 379.116 233.499C379.663 234.594 379.39 234.868 379.116 234.868Z" fill="#343B43"/>
<path d="M439.293 226.656H405.375C405.375 225.287 439.293 225.287 439.293 225.287C439.84 226.382 439.567 226.656 439.293 226.656Z" fill="#343B43"/>
<path d="M425.618 234.868H407.838C407.838 233.499 425.618 233.499 425.618 233.499C426.165 234.594 425.891 234.868 425.618 234.868Z" fill="#343B43"/>
<path d="M97.1043 168.349C89.4454 166.433 86.71 158.495 87.5306 151.651C88.3512 145.082 92.7277 137.143 102.575 136.869C107.499 136.869 111.328 138.238 113.79 141.249C118.713 146.998 116.799 156.579 116.799 156.852C115.431 156.579 117.346 147.272 112.969 142.07C110.781 139.333 107.225 138.238 102.575 138.238C93.5483 138.512 89.4454 145.629 88.6248 151.925C87.8042 157.947 90.2659 165.338 97.1043 167.254C97.6513 168.076 97.3778 168.349 97.1043 168.349Z" fill="#343B43"/>
<path d="M55.5293 236.237C72.2148 223.371 92.4563 214.064 114.612 207.494C92.7298 215.432 72.7619 224.74 55.8028 236.237C55.8028 236.237 55.8028 236.237 55.5293 236.237Z" fill="#343B43"/>
<path d="M144.973 201.472C148.529 199.556 151.811 199.008 155.367 198.734C152.085 200.377 148.802 200.924 144.973 201.472C145.246 201.472 145.246 201.472 144.973 201.472Z" fill="#343B43"/>
<path d="M56.0742 140.428C73.5803 127.015 94.9159 117.434 118.987 110.59C119.807 110.317 120.628 110.043 121.449 109.769C120.902 111.138 120.081 111.412 119.26 111.685C95.1895 118.529 74.1274 128.11 56.3478 140.154C56.3478 140.428 56.0742 140.428 56.0742 140.428Z" fill="#343B43"/>
<path d="M141.416 106.484C146.066 104.295 150.716 103.747 155.366 103.2C150.99 105.116 146.34 105.663 141.416 106.484C141.69 106.484 141.69 106.484 141.416 106.484Z" fill="#343B43"/>
<path d="M220.741 236.237C220.194 235.689 220.741 210.505 220.741 210.505C223.477 208.315 225.665 206.673 227.853 204.757L228.4 110.59C229.221 110.043 233.597 111.959 235.238 112.507C249.189 119.076 258.215 128.931 261.498 140.976C267.242 160.958 255.206 184.774 229.221 205.304C226.759 207.22 224.571 208.863 222.109 210.505L221.562 235.142C221.562 235.963 221.288 236.237 220.741 236.237ZM229.768 111.685L229.494 203.662C254.386 183.405 265.874 160.685 260.403 141.249C257.121 129.478 248.368 119.898 234.691 113.602C233.597 113.602 231.135 112.507 229.768 111.685Z" fill="#343B43"/>
<path d="M218.829 308.777C218.282 308.23 220.196 235.689 220.196 235.689C221.564 235.689 219.649 308.23 219.649 308.23C219.649 308.504 219.376 308.777 218.829 308.777Z" fill="#343B43"/>
<path d="M218.826 308.777C244.538 289.889 260.403 268.538 261.497 249.376C261.497 248.555 261.497 222.55 261.497 222.55C262.865 222.55 262.865 248.555 262.865 248.555C261.497 269.085 245.632 290.711 219.1 308.504C219.1 308.777 219.1 308.777 218.826 308.777Z" fill="#343B43"/>
<path d="M262.317 207.768C261.77 207.22 261.77 148.914 261.77 148.914C263.137 148.914 263.137 207.22 263.137 207.22C262.864 207.494 262.59 207.768 262.317 207.768Z" fill="#343B43"/>
<path d="M155.641 337.246C155.094 336.699 155.367 315.621 155.367 315.621C156.735 315.621 156.461 336.425 156.461 336.425C156.188 336.973 155.914 337.246 155.641 337.246Z" fill="#343B43"/>
<path d="M156.188 282.499C155.641 281.951 156.188 240.89 156.188 240.89C157.556 240.89 157.009 281.951 157.009 281.951C157.009 282.225 156.736 282.499 156.188 282.499Z" fill="#343B43"/>
<path d="M95.4607 250.471C74.1251 250.471 54.9778 246.912 40.207 239.795C68.3809 251.84 112.146 252.661 155.364 240.343L156.459 240.069C156.732 241.438 155.638 241.711 155.638 241.711C135.123 247.46 114.335 250.471 95.4607 250.471Z" fill="#343B43"/>
<path d="M22.1579 226.656C17.5079 221.728 14.7725 216.527 13.1313 211.053C12.3107 207.768 11.7637 204.483 11.7637 201.198C13.1313 204.483 13.4049 207.768 14.499 210.779C16.1402 216.254 18.8755 221.181 22.705 225.561C22.705 226.656 22.4315 226.656 22.1579 226.656Z" fill="#343B43"/>
<path d="M95.461 278.119C87.802 278.119 80.1431 277.571 73.0312 276.75C87.5285 277.297 103.12 277.297 119.532 275.381C111.052 277.571 103.12 278.119 95.461 278.119Z" fill="#343B43"/>
<path d="M95.4614 289.068C87.2555 289.068 79.323 288.521 71.6641 287.426C86.4348 288.247 102.3 288.247 119.259 286.331C111.053 288.795 103.12 289.068 95.4614 289.068Z" fill="#343B43"/>
<path d="M95.4647 346.006C83.9763 346.006 73.035 344.911 62.9143 342.721C35.8345 336.973 18.3284 324.107 13.4048 306.588C12.5842 303.576 12.0371 300.565 12.0371 297.554V296.185V232.131C13.4048 232.131 13.4048 297.554 13.4048 297.554C13.4048 300.565 13.9518 303.303 14.7724 306.314C19.696 323.559 36.9286 335.878 63.4613 341.626C90.2676 347.375 122.818 345.458 155.916 336.151C135.127 343.269 114.612 346.006 95.4647 346.006Z" fill="#343B43"/>
<path d="M12.5842 232.678C12.0371 232.131 12.0371 202.019 12.0371 202.019C13.4048 202.019 13.4048 231.857 13.4048 231.857C13.1312 232.404 12.8577 232.678 12.5842 232.678Z" fill="#343B43"/>
<path d="M56.0725 236.237C55.252 235.415 55.252 139.607 55.252 139.607C56.6196 139.607 56.6196 235.415 56.6196 235.415C56.6196 235.963 56.3461 236.237 56.0725 236.237Z" fill="#343B43"/>
<path d="M155.639 200.103C155.092 199.556 155.092 104.021 155.092 104.021C156.459 104.021 156.459 199.556 156.459 199.556C156.186 199.829 155.912 200.103 155.639 200.103Z" fill="#343B43"/>
<path d="M230.863 248.555C235.787 243.08 243.719 236.51 250.831 228.572C244.813 237.332 236.881 244.175 231.41 248.281C231.137 248.555 231.137 248.555 230.863 248.555Z" fill="#343B43"/>
<path d="M178.07 327.118C201.321 325.749 214.177 281.677 219.921 255.398C215.271 282.499 202.141 327.118 178.07 327.118Z" fill="#343B43"/>
<path d="M171.229 257.862C170.682 257.041 185.727 224.192 185.727 224.192C186.821 224.74 171.776 257.588 171.776 257.588C171.503 257.588 171.503 257.862 171.229 257.862Z" fill="#343B43"/>
<path d="M213.629 238.974C216.364 235.963 218.553 233.499 220.194 230.488C219.647 234.32 217.185 237.058 213.902 238.974C213.902 238.974 213.902 238.974 213.629 238.974Z" fill="#343B43"/>
<path d="M123.635 287.426C123.908 286.057 164.665 282.772 181.897 273.191C165.212 284.141 124.182 287.426 123.635 287.426C123.908 287.426 123.908 287.426 123.635 287.426Z" fill="#343B43"/>
<path d="M123.635 320.822C123.908 319.453 164.665 316.168 181.897 306.587C165.212 317.263 124.182 320.548 123.635 320.822C123.908 320.822 123.908 320.822 123.635 320.822Z" fill="#343B43"/>
<path d="M123.637 320.822C123.09 320.274 123.09 286.878 123.09 286.878C124.458 286.878 124.458 320.274 124.458 320.274C124.458 320.548 124.184 320.822 123.637 320.822Z" fill="#343B43"/>
<path d="M182.174 307.682C181.627 307.135 181.627 273.739 181.627 273.739C182.995 273.739 182.995 307.135 182.995 307.135C182.995 307.409 182.721 307.682 182.174 307.682Z" fill="#343B43"/>
<path d="M524.91 149.735C523.816 148.366 519.987 140.428 520.26 138.238C520.26 137.691 521.081 125.099 532.296 120.993C541.596 117.708 549.255 122.088 550.622 122.909C552.537 122.361 562.111 119.898 565.667 128.11C569.496 136.869 566.761 146.998 566.761 147.545C565.393 146.998 568.128 137.143 564.572 128.657C561.016 120.719 551.169 124.004 550.896 124.277C550.349 124.277 542.416 118.803 532.843 122.088C522.448 125.92 521.628 137.691 521.628 137.964C521.628 139.333 524.089 145.082 525.731 148.366C524.91 149.735 524.91 149.735 524.91 149.735Z" fill="#343B43"/>
<path d="M39.6643 213.243C39.1172 212.695 39.1172 183.953 39.1172 183.953C44.3143 180.12 54.9821 175.74 55.5292 175.74C55.8027 177.109 45.4084 181.215 40.4849 184.5V211.6C45.682 208.589 54.9821 204.483 55.5292 204.483C55.8027 205.852 45.1349 210.231 40.2113 213.243C39.9378 213.243 39.9378 213.243 39.6643 213.243Z" fill="#343B43"/>
<path d="M196.123 143.987C195.576 143.439 195.576 119.076 195.576 119.076C218.826 119.624 228.674 125.646 229.221 125.92C228.4 127.015 218.826 120.993 196.944 119.624V143.165C196.944 143.713 196.397 143.987 196.123 143.987Z" fill="#343B43"/>
<path d="M228.672 151.378C228.124 151.104 218.277 145.082 196.121 143.987C218.824 143.713 228.672 150.009 228.945 150.283C229.219 151.378 228.945 151.378 228.672 151.378Z" fill="#343B43"/>
<path d="M535.031 162.327C533.936 162.327 532.569 162.053 531.475 161.506C530.654 160.959 530.107 159.864 529.833 159.042C529.56 157.674 530.107 156.031 531.201 154.663C532.295 153.294 533.116 151.925 533.936 150.283C535.304 146.998 533.389 144.808 533.389 144.534C534.483 143.987 536.672 146.724 535.304 150.556C534.757 152.199 533.663 153.841 532.569 155.21C531.748 156.305 531.201 157.674 531.475 158.769C531.475 159.316 532.022 159.864 532.569 160.411C533.389 160.958 534.483 160.959 535.578 161.232C535.578 162.053 535.304 162.327 535.031 162.327Z" fill="#343B43"/>
<path d="M319.759 129.205C291.585 129.205 266.694 109.222 260.402 81.8479C267.788 108.401 292.132 127.836 319.759 127.836C352.583 127.836 379.116 101.283 379.116 68.4347C379.116 35.586 352.583 9.03337 319.759 9.03337C298.697 9.03337 279.823 19.7092 268.882 37.7759C279.003 18.6142 298.423 7.66467 319.759 7.66467C353.13 7.66467 380.483 35.0386 380.483 68.4347C380.483 101.831 353.13 129.205 319.759 129.205Z" fill="#343B43"/>
<path d="M99.2916 107.032C98.7445 106.484 97.9239 103.747 97.6504 98.8197C99.2916 103.2 99.8387 106.211 99.8387 106.211C99.5651 107.032 99.5651 107.032 99.2916 107.032ZM98.471 91.9762C97.9239 88.6914 98.1975 86.2277 98.7445 83.7641C99.5651 86.5014 99.2916 88.9651 99.0181 91.4287C99.2916 91.7025 99.0181 91.9762 98.471 91.9762ZM101.206 77.1943C100.659 77.1943 100.386 76.6468 100.659 76.3731C101.48 73.9095 102.3 71.4458 103.121 69.2559C103.395 71.9933 102.574 74.4569 101.753 76.9206C101.753 76.9206 101.48 77.1943 101.206 77.1943ZM107.224 63.5074C107.771 60.2225 109.139 58.3063 110.78 56.1164C110.506 58.8538 109.139 61.0437 107.771 63.2336C107.498 63.2336 107.224 63.5074 107.224 63.5074ZM115.704 50.9154C116.798 47.9043 118.439 45.9881 120.354 44.3457C119.533 47.0831 117.892 48.9992 116.251 50.6417C115.977 50.9154 115.977 50.9154 115.704 50.9154ZM126.371 40.5133C127.739 37.7759 129.927 36.1335 131.842 34.7648C130.474 37.2285 128.56 38.8709 126.645 40.5133C126.645 40.2396 126.645 40.5133 126.371 40.5133ZM138.68 31.4799C140.322 29.0163 142.51 27.6476 144.972 26.5526C143.33 29.0163 141.142 30.1112 139.227 31.4799C138.68 31.4799 138.68 31.4799 138.68 31.4799ZM259.308 30.6587C256.847 29.29 254.932 27.9213 252.47 26.5526C255.479 26.8264 257.667 28.1951 259.582 29.5638C259.856 30.6587 259.582 30.6587 259.308 30.6587ZM151.81 24.3627C153.725 21.8991 155.913 20.8041 158.375 19.9829C156.734 22.1728 154.272 23.2678 152.083 24.3627C151.81 24.089 151.81 24.3627 151.81 24.3627ZM246.179 23.2678C243.717 22.1728 241.255 21.0779 239.067 20.2566C241.802 19.9829 244.264 21.0779 246.452 22.1728C246.726 22.994 246.452 23.2678 246.179 23.2678ZM165.76 18.6142C167.948 16.4243 170.41 15.8768 172.872 15.0556C170.684 16.9718 168.222 17.5193 165.76 18.6142C165.76 18.3405 165.76 18.6142 165.76 18.6142ZM232.229 17.5193C229.767 16.698 227.305 16.1506 224.843 15.3293C227.579 14.7819 230.04 15.3293 232.502 16.1506C232.776 17.5193 232.502 17.5193 232.229 17.5193ZM180.257 14.5081C182.719 12.592 185.181 12.3182 187.643 12.0445C185.181 13.6869 182.719 13.9607 180.257 14.5081ZM217.731 13.9607C215.27 13.4132 212.808 13.1394 210.073 12.8657C212.808 11.7707 215.27 12.0445 217.731 12.592C218.278 13.9607 218.005 13.9607 217.731 13.9607ZM195.028 12.592C197.49 11.2233 199.952 11.2233 202.687 11.2233C200.225 12.592 197.49 12.592 195.028 12.592Z" fill="#343B43"/>
<path d="M609.704 191.617C609.157 190.522 610.525 188.606 612.713 185.048C611.892 189.154 610.251 191.07 610.251 191.343C610.251 191.343 609.978 191.617 609.704 191.617ZM616.816 179.299C617.363 176.014 618.184 173.824 619.278 171.361C619.551 174.098 618.457 176.562 617.363 178.752C617.089 179.299 617.089 179.299 616.816 179.299ZM622.287 165.338C621.739 165.065 621.466 164.791 621.739 164.517C622.56 162.053 623.107 159.59 623.654 157.4C624.475 160.137 623.654 162.601 622.834 165.065C622.834 165.065 622.56 165.338 622.287 165.338ZM625.569 150.556C625.295 147.272 625.569 144.808 625.569 142.344C626.663 144.808 626.389 147.545 626.116 150.009C626.116 150.556 625.842 150.556 625.569 150.556ZM626.39 135.501C625.569 132.49 625.569 129.752 625.295 127.289C626.937 129.752 626.937 132.216 627.21 134.68C626.39 135.501 626.39 135.501 626.39 135.501ZM624.748 120.719C623.654 117.708 623.107 115.244 622.287 113.054C624.201 114.97 624.748 117.708 625.295 120.171C625.022 120.719 624.748 120.719 624.748 120.719ZM497.829 108.674C496.188 108.674 494.547 108.127 493.179 107.032C495.914 107.306 498.102 107.579 500.564 106.758C500.017 108.401 498.923 108.674 497.829 108.674ZM620.645 106.211C619.278 103.473 618.184 101.283 617.089 98.8198C619.278 100.462 620.372 102.926 621.192 105.116C620.645 106.211 620.645 106.211 620.645 106.211ZM506.582 103.473C507.676 100.462 508.77 98.546 509.864 96.0824C509.864 99.0935 508.77 101.283 507.129 103.2C506.856 103.2 506.582 103.473 506.582 103.473ZM489.076 101.557C487.435 99.0935 486.614 96.3561 486.341 93.8925C487.982 96.3561 488.802 98.546 489.623 100.736C489.076 101.283 489.076 101.557 489.076 101.557ZM614.081 92.5238C612.166 90.0601 611.072 87.8702 609.43 85.954C611.892 87.3227 613.26 89.5126 614.628 91.7026C614.354 92.5238 614.081 92.5238 614.081 92.5238ZM512.6 89.7864C512.326 86.5015 512.873 84.0379 512.873 81.5742C513.967 84.3116 513.694 86.7753 513.147 89.2389C513.147 89.5126 512.873 89.7864 512.6 89.7864ZM486.614 86.7753C486.067 83.4904 486.614 81.0267 487.708 78.5631C488.255 81.3005 487.708 83.7641 487.435 86.2278C487.161 86.5015 486.888 86.7753 486.614 86.7753ZM605.601 80.2055C603.413 78.0156 601.772 76.0994 600.13 74.457C602.866 75.2782 604.507 77.1944 606.148 79.3843C605.875 80.2055 605.601 80.2055 605.601 80.2055ZM513.147 74.7308C512.326 71.7196 511.779 69.256 511.232 66.7923C513.147 68.9822 513.694 71.4459 513.967 73.9095C513.42 74.7308 513.42 74.7308 513.147 74.7308ZM491.538 72.8146C492.358 69.8035 494.273 67.8873 496.188 66.2449C495.094 68.7085 493.452 70.6247 492.085 72.5408C492.085 72.5408 491.811 72.8146 491.538 72.8146ZM595.207 69.256C593.018 67.3398 590.83 65.9711 588.915 64.6024C591.651 64.8762 593.839 66.5186 595.754 68.161C595.48 69.256 595.207 69.256 595.207 69.256ZM503.3 63.2337C504.941 61.0438 506.856 60.2226 508.77 59.4014C507.95 57.2115 506.856 55.2953 505.761 53.1054C507.95 54.4741 509.044 56.664 510.138 58.8539C508.223 61.0438 506.035 62.1388 503.847 63.2337C503.3 63.2337 503.3 63.2337 503.3 63.2337ZM582.898 60.7701C580.436 59.4014 578.248 58.3064 575.786 57.4852C578.521 57.2115 580.983 58.3064 583.171 59.6751C583.171 60.4963 582.898 60.7701 582.898 60.7701ZM516.976 57.4852C519.165 55.2953 521.626 54.7478 524.088 53.9266C522.173 55.8428 519.712 56.664 516.976 57.4852C517.25 57.4852 517.25 57.4852 516.976 57.4852ZM568.948 55.0216C566.486 54.2003 564.024 53.6529 561.562 53.3791C564.298 52.5579 566.759 53.1054 569.221 53.9266C569.495 54.7478 569.221 55.0216 568.948 55.0216ZM531.747 53.6529C534.209 52.0104 536.671 51.463 539.132 51.1892C536.671 52.8316 534.209 53.1054 531.747 53.6529ZM554.177 52.2842C551.715 52.0104 549.253 52.0104 546.791 52.0104C549.253 50.6417 551.988 50.6417 554.45 50.9155C554.724 52.0104 554.45 52.2842 554.177 52.2842ZM502.205 47.0831C500.291 44.8932 498.65 42.977 497.008 41.0609C499.744 42.1558 501.385 44.072 502.753 46.2619C502.479 47.0831 502.205 47.0831 502.205 47.0831ZM492.085 35.8598C489.896 33.9437 487.982 32.3012 486.067 30.9325C488.802 31.48 490.717 33.1224 492.632 34.7649C492.632 35.8598 492.358 35.8598 492.085 35.8598ZM480.323 26.5527C477.861 25.184 475.673 23.8153 473.485 22.4466C476.493 22.4466 478.682 23.8153 480.596 25.184C480.87 26.5527 480.596 26.5527 480.323 26.5527ZM387.595 19.7092C387.322 18.3406 389.51 16.6981 393.886 14.7819C390.33 17.7931 387.869 19.7092 387.869 19.7092C387.869 19.4355 387.869 19.7092 387.595 19.7092ZM467.193 19.1618C464.731 18.0668 462.27 16.9719 460.081 16.1506C462.817 15.8769 465.278 16.9719 467.467 18.0668C467.74 19.1618 467.467 19.1618 467.193 19.1618ZM453.243 13.687C450.781 12.8658 448.319 12.3183 445.858 11.7708C448.593 10.9496 451.055 11.7708 453.517 12.592C453.79 13.4133 453.517 13.687 453.243 13.687ZM401.272 13.1395C403.46 10.9496 405.922 10.4021 408.384 9.85465C406.195 11.4971 403.734 12.3183 401.272 13.1395C401.545 13.1395 401.272 13.1395 401.272 13.1395ZM438.472 10.4021C436.01 10.1284 433.275 9.85465 430.813 9.58091C433.275 8.48595 436.01 8.75969 438.472 9.03343C439.019 10.1284 438.746 10.4021 438.472 10.4021ZM416.043 9.85465C418.504 8.21221 420.966 7.93848 423.428 7.93848C420.966 9.30717 418.504 9.58091 416.043 9.85465Z" fill="#343B43"/>
<path d="M550.349 123.73C549.802 123.73 549.528 123.182 549.802 122.909C549.802 122.909 550.349 120.445 547.34 117.981C551.716 120.171 550.896 123.182 550.896 123.456C550.896 123.456 550.622 123.73 550.349 123.73Z" fill="#343B43"/>
<path d="M551.99 124.004C551.443 123.182 551.443 120.719 552.811 119.076C552.811 121.266 552.537 123.456 552.537 123.456C552.811 123.73 552.264 124.004 551.99 124.004Z" fill="#343B43"/>
<path d="M585.361 336.151C585.087 336.151 527.098 311.241 527.098 311.241C526.825 310.42 535.304 290.437 535.304 290.437C536.398 290.984 528.192 310.146 528.192 310.146L585.087 334.509L585.634 333.414C586.728 333.961 586.181 335.878 586.181 335.878C585.634 336.151 585.634 336.151 585.361 336.151Z" fill="#343B43"/>
<path d="M603.961 292.353C603.414 291.532 620.1 252.387 620.1 252.387L563.479 227.751L545.699 269.085C544.605 268.538 562.384 226.656 562.384 226.656C563.205 226.382 621.467 251.292 621.467 251.292C621.741 252.114 604.782 291.806 604.782 291.806C604.508 292.079 604.235 292.353 603.961 292.353Z" fill="#343B43"/>
<path d="M609.432 368.453C609.432 358.598 608.885 343.816 608.885 343.816C610.252 343.816 610.799 358.598 610.252 367.905C609.979 368.179 609.705 368.453 609.432 368.453Z" fill="#343B43"/>
<path d="M347.114 336.699H325.505C324.958 336.151 317.025 307.956 317.025 307.956C317.572 307.135 347.935 307.135 347.935 307.135C348.482 307.682 353.952 327.392 353.952 327.392C352.585 327.665 347.388 308.504 347.388 308.504H318.393L325.778 335.604H346.84C347.661 336.425 347.388 336.699 347.114 336.699Z" fill="#343B43"/>
<path d="M63.4612 269.085V290.711C63.4612 290.711 49.7845 290.984 40.4844 283.32V260.873C40.4844 260.873 47.0492 267.443 63.4612 269.085Z" fill="#343B43"/>
<path d="M231.408 261.968C235.511 257.588 239.614 254.303 243.444 250.745C240.435 255.125 236.332 258.41 231.955 261.694C231.682 261.968 231.408 261.968 231.408 261.968Z" fill="#343B43"/>
<path d="M414.404 319.18C411.669 309.872 402.916 304.124 391.974 304.124C382.127 304.124 373.374 309.599 370.365 317.811C372.28 308.777 381.307 302.755 391.974 302.755C403.463 302.755 412.763 309.051 414.951 318.358C414.404 319.18 414.404 319.18 414.404 319.18Z" fill="#343B43"/>
</g>
<defs>
<linearGradient id="paint0_linear_509_5151" x1="521.348" y1="166.026" x2="570.518" y2="140.108" gradientUnits="userSpaceOnUse">
<stop stop-color="#234DAE"/>
<stop offset="1" stop-color="#347BCE"/>
</linearGradient>
<linearGradient id="paint1_linear_509_5151" x1="332.889" y1="337.894" x2="479.4" y2="228.519" gradientUnits="userSpaceOnUse">
<stop stop-color="#234DAE"/>
<stop offset="1" stop-color="#347BCE"/>
</linearGradient>
<linearGradient id="paint2_linear_509_5151" x1="88.2832" y1="187.952" x2="144.351" y2="156.82" gradientUnits="userSpaceOnUse">
<stop stop-color="#234DAE"/>
<stop offset="1" stop-color="#347BCE"/>
</linearGradient>
<linearGradient id="paint3_linear_509_5151" x1="123.635" y1="315.166" x2="171.091" y2="275.919" gradientUnits="userSpaceOnUse">
<stop stop-color="#234DAE"/>
<stop offset="1" stop-color="#347BCE"/>
</linearGradient>
<linearGradient id="paint4_linear_509_5151" x1="538.588" y1="256.123" x2="561.02" y2="252.104" gradientUnits="userSpaceOnUse">
<stop stop-color="#234DAE"/>
<stop offset="1" stop-color="#347BCE"/>
</linearGradient>
<linearGradient id="paint5_linear_509_5151" x1="251.65" y1="107.057" x2="380.442" y2="22.9432" gradientUnits="userSpaceOnUse">
<stop stop-color="#234DAE"/>
<stop offset="1" stop-color="#347BCE"/>
</linearGradient>
<linearGradient id="paint6_linear_509_5151" x1="289" y1="99.3359" x2="353.951" y2="73.6787" gradientUnits="userSpaceOnUse">
<stop stop-color="#234DAE"/>
<stop offset="1" stop-color="#347BCE"/>
</linearGradient>
<linearGradient id="paint7_linear_509_5151" x1="40.4844" y1="211.25" x2="60.5181" y2="205.544" gradientUnits="userSpaceOnUse">
<stop stop-color="#234DAE"/>
<stop offset="1" stop-color="#347BCE"/>
</linearGradient>
<linearGradient id="paint8_linear_509_5151" x1="228.674" y1="185.717" x2="272.36" y2="175.481" gradientUnits="userSpaceOnUse">
<stop stop-color="#234DAE"/>
<stop offset="1" stop-color="#347BCE"/>
</linearGradient>
<clipPath id="clip0_509_5151">
<rect width="648" height="369" fill="white"/>
</clipPath>
</defs>
</svg>
