<svg width="97" height="97" viewBox="0 0 97 97" fill="none" xmlns="http://www.w3.org/2000/svg">
<g clip-path="url(#clip0_509_3563)">
<path d="M83.3661 0.00012207H79.1956C77.3624 0.00012207 77.3624 2.84233 79.1956 2.84233H83.3661C87.673 2.84233 91.177 6.3337 91.177 10.6251V43.5136C91.177 47.8051 87.6731 51.2965 83.3661 51.2965H78.6361C78.324 51.2965 78.0206 51.3992 77.7726 51.5889L69.0933 58.2279V52.7176C69.0933 51.9328 68.4572 51.2965 67.6721 51.2965H50.3764C48.96 51.2965 47.5988 50.9226 46.3982 50.2119V34.2591C46.3982 31.271 44.8763 28.631 42.5652 27.0691V10.6251C42.5652 6.3337 46.0693 2.84233 50.3764 2.84233H70.29C72.123 2.84233 72.123 0.00012207 70.29 0.00012207H50.3764C44.5021 0.00012207 39.723 4.7665 39.723 10.6251V25.8201C39.0723 25.6647 38.3944 25.58 37.6967 25.58H11.6818C6.88396 25.58 2.98047 29.4734 2.98047 34.2591V37.3278C2.98047 39.1608 5.82268 39.1608 5.82268 37.3278V34.2591C5.82268 31.0406 8.45096 28.4222 11.6818 28.4222H37.6969C40.9277 28.4222 43.5562 31.0406 43.5562 34.2591V50.7777C43.5392 50.9031 43.5399 51.0295 43.5562 51.154V60.1945C43.5562 60.3732 43.5454 60.5511 43.5293 60.7281H40.5986C37.3693 60.7281 34.6771 63.0589 34.1189 66.1222C33.9897 66.1709 33.8656 66.2389 33.7506 66.3276L27.3945 71.2353V67.4525C27.3945 66.6677 26.7584 66.0314 25.9734 66.0314H11.6818C8.45096 66.0314 5.82268 63.413 5.82268 60.1945V45.8544C5.82268 44.0214 2.98047 44.0214 2.98047 45.8544V60.1947C2.98047 64.9804 6.88396 68.8738 11.6818 68.8738H24.5524V74.1281C24.5524 75.268 25.9366 75.9519 26.8421 75.2531L34.0111 69.7178V85.7052C34.0111 89.329 36.9664 92.2769 40.5988 92.2769H49.3196V95.593C49.3196 96.7326 50.7038 97.4172 51.6091 96.718L57.361 92.2769H59.0603C62.6926 92.2769 65.6479 89.3288 65.6479 85.7052V83.1821C65.6479 81.349 62.8057 81.349 62.8057 83.1821V85.7052C62.8057 87.7618 61.1256 89.4347 59.0603 89.4347H56.8761C56.5618 89.4347 56.2563 89.539 56.0077 89.7309L52.1617 92.7002V90.8557C52.1617 90.0708 51.5256 89.4345 50.7405 89.4345H40.5986C38.5335 89.4345 36.8531 87.7614 36.8531 85.705V67.3C36.8531 65.2434 38.5333 63.5705 40.5986 63.5705H59.0603C61.1254 63.5705 62.8057 65.2436 62.8057 67.3V74.2765C62.8057 76.1095 65.6479 76.1095 65.6479 74.2765V67.3002C65.6479 63.6764 62.6926 60.7284 59.0603 60.7284H46.3821C46.3929 60.5509 46.3984 53.3732 46.3984 53.3732C47.6514 53.877 48.9949 54.1389 50.3766 54.1389H66.2512V61.1042C66.2512 62.2413 67.6295 62.9258 68.5358 62.2329L79.1175 54.1389H83.3662C89.2403 54.1389 94.0194 49.3725 94.0194 43.5138V10.6251C94.0192 4.7665 89.2402 0.00012207 83.3661 0.00012207V0.00012207Z" fill="url(#paint0_linear_509_3563)"/>
<path d="M70.4228 10.4996C68.6183 10.0389 66.7796 11.4646 66.7796 13.3291C66.7796 15.3662 66.0372 17.3294 64.6902 18.856L60.7748 23.2866C60.5213 22.8976 60.0832 22.6401 59.5843 22.6401H51.9406C51.1556 22.6401 50.5195 23.2764 50.5195 24.0612V41.2594C50.5195 42.0443 51.1556 42.6805 51.9406 42.6805H59.5843C60.1586 42.6805 60.652 42.3393 60.8762 41.8493C62.4236 42.7948 64.2169 43.306 66.0414 43.306H79.5498C81.614 43.306 83.3169 41.5149 83.2201 39.456C83.1771 38.5442 83.2241 26.3013 83.2241 26.0294C83.2241 24.0034 81.5758 22.355 79.554 22.355L72.5294 22.3339L72.8203 21.6452C74.1495 18.4973 73.9306 14.8472 72.2355 11.8805C71.8399 11.1874 71.1958 10.6972 70.4228 10.4996C71.1958 10.6972 69.6493 10.3021 70.4228 10.4996C71.1958 10.6972 68.6185 10.0389 70.4228 10.4996ZM58.1632 39.8383H53.3617V25.4823H58.1632V39.8383ZM79.5498 25.197C80.0088 25.197 80.382 25.5703 80.382 26.0292C80.382 26.2996 80.3792 27.0334 80.3754 28.0284C80.3544 33.5218 80.3404 38.7246 80.3809 39.5894C80.3957 39.9014 80.2439 40.1095 80.1522 40.2057C79.9934 40.3721 79.7795 40.4636 79.5498 40.4636H66.0414C64.4312 40.4636 62.8553 39.9056 61.6036 38.8925L61.0054 38.4081V27.3177L66.8207 20.7372C68.6271 18.69 69.6218 16.0591 69.6218 13.3289C69.6218 13.2485 69.7315 13.2277 69.7679 13.2902C71.0264 15.4926 71.1886 18.2023 70.202 20.5392L69.0805 23.1955C68.8954 23.6338 68.942 24.1353 69.204 24.5321C69.4664 24.9289 69.9098 25.168 70.3852 25.1695L79.5498 25.197Z" fill="url(#paint1_linear_509_3563)"/>
<path d="M15.1496 49.3593C14.3646 49.3593 13.7285 49.9956 13.7285 50.7804C13.7285 51.5653 14.3646 52.2015 15.1496 52.2015H19.3387L18.5561 56.9346C18.428 57.7088 18.9521 58.4404 19.7263 58.5685C19.805 58.5815 19.8828 58.5878 19.9598 58.5878C20.6427 58.5878 21.245 58.0942 21.3602 57.3982L22.2193 52.2017H25.6476L24.865 56.9348C24.737 57.709 25.2611 58.4406 26.0353 58.5687C26.1139 58.5817 26.1918 58.588 26.2687 58.588C26.9516 58.588 27.554 58.0944 27.6692 57.3984L28.5283 52.2019H34.2303C35.0153 52.2019 35.6514 51.5657 35.6514 50.7808C35.6514 49.996 35.0153 49.3597 34.2303 49.3597H28.9982L29.5714 45.893H34.2303C35.0153 45.893 35.6514 45.2567 35.6514 44.4719C35.6514 43.6871 35.0153 43.0508 34.2303 43.0508H30.0413L30.8238 38.3177C30.9519 37.5435 30.4278 36.8119 29.6536 36.6839C28.8784 36.5554 28.1478 37.0799 28.0197 37.8541L27.1606 43.0506H23.7323L24.5149 38.3176C24.643 37.5433 24.1189 36.8118 23.3447 36.6837C22.5685 36.5552 21.839 37.0797 21.7108 37.8539L20.8517 43.0504H15.1496C14.3646 43.0504 13.7285 43.6867 13.7285 44.4715C13.7285 45.2563 14.3646 45.8926 15.1496 45.8926H20.3817L19.8086 49.3593H15.1496ZM23.2626 45.8926H26.6909L26.1177 49.3593H22.6894L23.2626 45.8926Z" fill="url(#paint2_linear_509_3563)"/>
<path d="M49.8123 70.9031C48.6648 69.9583 47.1382 69.5856 45.6068 69.9579C43.6443 70.4345 41.6641 72.269 41.6641 75.2929C41.6641 77.1751 42.3509 78.8088 43.7639 80.2875C44.918 81.4954 46.5835 82.644 49.1639 84.0121C49.3721 84.1226 49.6008 84.1777 49.8295 84.1777C50.0582 84.1777 50.2869 84.1226 50.4952 84.0121C54.9969 81.6256 57.9948 79.2296 57.9948 75.2929C57.9948 72.2525 55.9443 70.4367 53.9119 69.986C52.3851 69.6472 50.9048 70.0068 49.8123 70.9031ZM55.1524 75.2929C55.1524 77.4163 53.744 78.9865 49.8294 81.1415C45.9147 78.9863 44.5061 77.4161 44.5061 75.2929C44.5061 73.7131 45.4209 72.9278 46.2772 72.7198C46.435 72.6815 46.604 72.6599 46.7778 72.6599C47.4218 72.6599 48.1299 72.9574 48.5665 73.8038C48.8153 74.2855 49.3181 74.5841 49.8576 74.5729C50.3993 74.5621 50.888 74.2442 51.1171 73.753C51.5769 72.7674 52.544 72.594 53.2959 72.7609C54.1937 72.9597 55.1524 73.7295 55.1524 75.2929Z" fill="url(#paint3_linear_509_3563)"/>
</g>
<defs>
<linearGradient id="paint0_linear_509_3563" x1="2.98046" y1="77.1055" x2="93.2859" y2="21.7101" gradientUnits="userSpaceOnUse">
<stop stop-color="#234DAE"/>
<stop offset="1" stop-color="#347BCE"/>
</linearGradient>
<linearGradient id="paint1_linear_509_3563" x1="50.5195" y1="36.5431" x2="81.9568" y2="16.1638" gradientUnits="userSpaceOnUse">
<stop stop-color="#234DAE"/>
<stop offset="1" stop-color="#347BCE"/>
</linearGradient>
<linearGradient id="paint2_linear_509_3563" x1="13.7285" y1="54.0914" x2="34.6998" y2="40.3853" gradientUnits="userSpaceOnUse">
<stop stop-color="#234DAE"/>
<stop offset="1" stop-color="#347BCE"/>
</linearGradient>
<linearGradient id="paint3_linear_509_3563" x1="41.6641" y1="81.232" x2="56.0263" y2="70.5583" gradientUnits="userSpaceOnUse">
<stop stop-color="#234DAE"/>
<stop offset="1" stop-color="#347BCE"/>
</linearGradient>
<clipPath id="clip0_509_3563">
<rect width="97" height="97" fill="white" transform="translate(0 0.00012207)"/>
</clipPath>
</defs>
</svg>
