<svg width="97" height="97" viewBox="0 0 97 97" fill="none" xmlns="http://www.w3.org/2000/svg">
<g clip-path="url(#clip0_509_3611)">
<path d="M93.3674 4.72167H74.0418V1.42102C74.0418 0.636306 73.4058 0.00012207 72.6209 0.00012207H23.7002C22.9153 0.00012207 22.2793 0.636306 22.2793 1.42102V4.72167H3.63026C2.8554 4.72167 2.20898 5.3696 2.20898 6.14276L2.20936 43.4275C2.20936 44.2122 2.84536 44.8484 3.63026 44.8484H22.2795V55.2225C22.2795 56.0072 22.9155 56.6434 23.7004 56.6434H28.0368C27.7584 57.1801 27.5713 57.774 27.4985 58.4066L25.6303 74.5825C25.5778 75.0398 25.553 75.504 25.5566 75.9506C25.5566 79.5977 27.4116 82.6017 30.0946 84.9117C31.6714 86.2691 33.2482 87.6267 34.825 88.9842V95.5792C34.825 96.3639 35.461 97.0001 36.2459 97.0001H40.6178C41.4027 97.0001 42.0387 96.3639 42.0387 95.5792C42.0387 94.7945 41.4027 94.1583 40.6178 94.1583H37.6668V88.3325C37.6668 87.9187 37.4865 87.5256 37.1731 87.2556C35.6177 85.9165 34.0623 84.5773 32.5069 83.2382C30.2272 81.2757 28.4571 79.1281 28.3984 75.9282C28.396 75.5895 28.4147 75.2462 28.4536 74.9082L30.3217 58.7321C30.4527 57.5929 31.4179 56.7338 32.5668 56.7338C33.3202 56.7338 33.9498 57.1473 34.2601 57.5014C34.7701 58.0838 34.8252 58.7376 34.8252 58.9917V70.9704C34.8252 71.7551 35.4612 72.3913 36.2461 72.3913C37.031 72.3913 37.667 71.7551 37.667 70.9704V32.4688C37.667 31.2235 38.6802 30.2105 39.9253 30.2105C41.1668 30.2105 42.177 31.2176 42.1832 32.4576C42.1832 32.4612 42.1826 32.4646 42.1826 32.4682C42.1826 32.4756 42.1836 32.4828 42.1838 32.4902V50.4532C42.1838 52.6236 45.0402 52.6181 45.0369 50.4708C45.0366 50.1622 45.0352 49.2541 45.0423 49.0185C45.2957 46.128 50.1412 46.1968 50.1412 49.1666V51.3192C50.1412 53.1518 52.983 53.1518 52.983 51.3192C52.9832 50.0722 53.9975 49.0577 55.2447 49.0577C56.6571 49.0577 58.0876 49.6698 58.0876 51.3194V52.7192C58.0876 54.5333 60.897 54.5638 60.9292 52.7443C60.9343 52.4479 60.9499 52.3818 61.0016 52.1634C61.5715 49.9396 64.8653 49.929 65.4429 52.1524L67.1961 58.9053C68.4636 63.7911 68.4126 68.9419 67.0482 73.801L63.0757 87.9484C63.0405 88.0735 63.0229 88.2027 63.0229 88.3325V94.1583H47.4205C46.6356 94.1583 45.9996 94.7945 45.9996 95.5792C45.9996 96.3639 46.6356 97.0001 47.4205 97.0001H64.4438C65.2287 97.0001 65.8647 96.3639 65.8647 95.5792V88.5282L69.7841 74.5691C71.2842 69.2267 71.3406 63.5634 69.9468 58.1912L69.545 56.6432H72.6215C73.4064 56.6432 74.0424 56.007 74.0424 55.2223V13.3263H91.9471V42.0066H79.3016C78.5167 42.0066 77.8807 42.6428 77.8807 43.4275C77.8807 44.2122 78.5167 44.8484 79.3016 44.8484H93.368C94.1529 44.8484 94.7889 44.2122 94.7889 43.4275V6.14276V6.14257C94.7883 5.35786 94.1523 4.72167 93.3674 4.72167ZM5.05116 7.56366H22.2795V10.4845H5.05116V7.56366ZM25.122 2.84249H71.1995V10.4845H25.122V2.84249ZM5.05116 42.0066V13.3263H22.2795V42.0066H5.05116ZM68.8067 53.8016L68.193 51.4378C67.2958 47.9854 63.0255 46.4896 60.1568 48.6168C58.6022 46.1357 54.9561 45.4537 52.5099 47.0118C51.2423 44.2857 47.6618 43.2758 45.0252 44.6017V33.8889H57.9508C58.7094 33.8889 59.3265 34.5069 59.3265 35.2664V37.9959C59.3265 38.7543 58.7094 39.3713 57.9508 39.3713H50.1736C49.3887 39.3713 48.7527 40.0075 48.7527 40.7922C48.7527 41.5769 49.3887 42.2131 50.1736 42.2131H57.9508C60.2762 42.2131 62.1683 40.3212 62.1683 37.9959V35.2664C62.1683 32.94 60.2764 31.0471 57.9508 31.0471H44.8221C44.2049 28.9247 42.2438 27.3685 39.9249 27.3685C37.1127 27.3685 34.8249 29.6565 34.8249 32.4686V53.8014H25.1211V13.3263H71.2V53.8016H68.8067ZM74.0418 10.4845V7.56366H91.9465V10.4845H74.0418Z" fill="url(#paint0_linear_509_3611)"/>
<path d="M56.3994 5.31165H39.9229C39.1379 5.31165 38.502 5.94783 38.502 6.73254C38.502 7.51726 39.1379 8.15344 39.9229 8.15344H56.3994C57.1843 8.15344 57.8203 7.51726 57.8203 6.73254C57.8203 5.94783 57.1843 5.31165 56.3994 5.31165Z" fill="url(#paint1_linear_509_3611)"/>
<path d="M42.3083 16.0532H31.0889C30.304 16.0532 29.668 16.6894 29.668 17.4741V23.9637C29.668 24.7484 30.304 25.3846 31.0889 25.3846H42.3083C43.0932 25.3846 43.7292 24.7484 43.7292 23.9637V17.4741C43.7292 16.6894 43.0932 16.0532 42.3083 16.0532ZM40.8874 22.5428H32.5098V18.895H40.8874V22.5428Z" fill="url(#paint2_linear_509_3611)"/>
<path d="M78.3115 23.63H86.7522C87.5371 23.63 88.1731 22.9938 88.1731 22.2091C88.1731 21.4244 87.5371 20.7882 86.7522 20.7882H78.3115C77.5266 20.7882 76.8906 21.4244 76.8906 22.2091C76.8906 22.9938 77.5268 23.63 78.3115 23.63Z" fill="url(#paint3_linear_509_3611)"/>
<path d="M86.7522 29.7426C87.5371 29.7426 88.1731 29.1064 88.1731 28.3217C88.1731 27.5369 87.5371 26.9008 86.7522 26.9008H78.3115C77.5266 26.9008 76.8906 27.5369 76.8906 28.3217C76.8906 29.1064 77.5266 29.7426 78.3115 29.7426H86.7522Z" fill="url(#paint4_linear_509_3611)"/>
<path d="M9.36621 23.63H17.8067C18.5916 23.63 19.2276 22.9938 19.2276 22.2091C19.2276 21.4244 18.5916 20.7882 17.8067 20.7882H9.36621C8.58131 20.7882 7.94531 21.4244 7.94531 22.2091C7.94531 22.9938 8.5815 23.63 9.36621 23.63Z" fill="url(#paint5_linear_509_3611)"/>
<path d="M17.8067 26.9008H9.36621C8.58131 26.9008 7.94531 27.5369 7.94531 28.3217C7.94531 29.1064 8.58131 29.7426 9.36621 29.7426H17.8067C18.5916 29.7426 19.2276 29.1064 19.2276 28.3217C19.2276 27.5369 18.5916 26.9008 17.8067 26.9008Z" fill="url(#paint6_linear_509_3611)"/>
<path d="M64.4438 19.2981H49.3701C48.5852 19.2981 47.9492 19.9343 47.9492 20.719C47.9492 21.5037 48.5852 22.1399 49.3701 22.1399H64.4438C65.2287 22.1399 65.8647 21.5037 65.8647 20.719C65.8647 19.9343 65.2287 19.2981 64.4438 19.2981Z" fill="url(#paint7_linear_509_3611)"/>
</g>
<defs>
<linearGradient id="paint0_linear_509_3611" x1="2.20898" y1="77.1054" x2="93.1936" y2="20.3486" gradientUnits="userSpaceOnUse">
<stop stop-color="#234DAE"/>
<stop offset="1" stop-color="#347BCE"/>
</linearGradient>
<linearGradient id="paint1_linear_509_3611" x1="38.502" y1="7.57059" x2="39.7735" y2="1.92092" gradientUnits="userSpaceOnUse">
<stop stop-color="#234DAE"/>
<stop offset="1" stop-color="#347BCE"/>
</linearGradient>
<linearGradient id="paint2_linear_509_3611" x1="29.668" y1="23.4707" x2="39.4123" y2="13.8736" gradientUnits="userSpaceOnUse">
<stop stop-color="#234DAE"/>
<stop offset="1" stop-color="#347BCE"/>
</linearGradient>
<linearGradient id="paint3_linear_509_3611" x1="76.8906" y1="23.0472" x2="78.8824" y2="17.8789" gradientUnits="userSpaceOnUse">
<stop stop-color="#234DAE"/>
<stop offset="1" stop-color="#347BCE"/>
</linearGradient>
<linearGradient id="paint4_linear_509_3611" x1="76.8906" y1="29.1597" x2="78.8824" y2="23.9914" gradientUnits="userSpaceOnUse">
<stop stop-color="#234DAE"/>
<stop offset="1" stop-color="#347BCE"/>
</linearGradient>
<linearGradient id="paint5_linear_509_3611" x1="7.94531" y1="23.0472" x2="9.93707" y2="17.8789" gradientUnits="userSpaceOnUse">
<stop stop-color="#234DAE"/>
<stop offset="1" stop-color="#347BCE"/>
</linearGradient>
<linearGradient id="paint6_linear_509_3611" x1="7.94531" y1="29.1597" x2="9.93707" y2="23.9914" gradientUnits="userSpaceOnUse">
<stop stop-color="#234DAE"/>
<stop offset="1" stop-color="#347BCE"/>
</linearGradient>
<linearGradient id="paint7_linear_509_3611" x1="47.9492" y1="21.557" x2="49.3097" y2="15.9514" gradientUnits="userSpaceOnUse">
<stop stop-color="#234DAE"/>
<stop offset="1" stop-color="#347BCE"/>
</linearGradient>
<clipPath id="clip0_509_3611">
<rect width="97" height="97" fill="white" transform="translate(0 0.00012207)"/>
</clipPath>
</defs>
</svg>
