<svg width="30" height="30" viewBox="0 0 30 30" fill="none" xmlns="http://www.w3.org/2000/svg">
<path d="M26.7812 5.03125H3.21875C2.71748 5.03125 2.3125 5.43623 2.3125 5.9375V24.0625C2.3125 24.5638 2.71748 24.9688 3.21875 24.9688H26.7812C27.2825 24.9688 27.6875 24.5638 27.6875 24.0625V5.9375C27.6875 5.43623 27.2825 5.03125 26.7812 5.03125ZM25.6484 8.16914V22.9297H4.35156V8.16914L3.56992 7.56025L4.68291 6.13008L5.89502 7.07314H24.1078L25.3199 6.13008L26.4329 7.56025L25.6484 8.16914ZM24.1078 7.07031L15 14.1504L5.89219 7.07031L4.68008 6.12725L3.56709 7.55742L4.34873 8.16631L14.0229 15.6882C14.3012 15.9043 14.6434 16.0217 14.9958 16.0217C15.3481 16.0217 15.6903 15.9043 15.9686 15.6882L25.6484 8.16914L26.4301 7.56025L25.3171 6.13008L24.1078 7.07031Z" fill="white"/>
</svg>
