<svg width="633" height="537" viewBox="0 0 633 537" fill="none" xmlns="http://www.w3.org/2000/svg">
<path d="M99.2074 375.628C96.7395 375.381 95.5056 373.898 95.5056 371.921C95.7524 369.944 97.2331 368.462 99.2074 368.709C101.428 368.956 102.662 370.439 102.662 372.415C102.416 374.145 100.935 375.628 99.2074 375.628ZM111.793 375.628C110.066 375.628 108.338 374.145 108.338 372.415C108.092 370.439 109.572 368.956 111.547 368.709C113.768 368.462 115.248 369.944 115.495 371.921C115.742 373.898 114.261 375.381 112.287 375.628C112.04 375.628 112.04 375.628 111.793 375.628ZM124.626 373.898C122.899 373.898 121.665 372.663 121.171 371.18C120.678 369.203 121.911 367.473 123.886 366.979C125.86 366.485 127.834 367.72 128.081 369.45C128.575 371.427 127.341 373.157 125.366 373.651C125.12 373.898 124.873 373.898 124.626 373.898ZM86.3746 373.651C83.4132 373.157 82.4261 371.18 82.6729 369.45C83.1664 367.473 84.8939 366.485 86.8682 366.979C89.0892 367.473 90.0764 369.45 89.5828 371.18C89.336 372.663 87.8553 373.651 86.3746 373.651ZM74.0354 369.203C73.5419 369.203 73.0483 368.956 72.3079 368.709C70.3337 367.72 69.8401 365.496 70.5805 364.013C71.5676 362.283 73.5419 361.789 75.2693 362.531C77.2436 363.519 77.7372 365.743 76.9968 367.226C76.5033 368.462 75.2693 369.203 74.0354 369.203ZM63.6705 361.542C62.6834 361.542 61.943 361.295 61.2027 360.554C59.722 359.071 59.722 356.847 61.2027 355.364C62.6834 354.128 64.9044 354.128 66.1384 355.611C67.6191 357.094 67.6191 359.318 66.1384 360.554C65.398 361.048 64.6577 361.542 63.6705 361.542ZM56.5138 350.669C55.2799 350.669 54.046 349.927 53.3056 348.692C52.3185 346.715 53.0588 344.738 54.7863 343.996C56.5138 343.255 58.4881 343.996 59.4752 345.726C60.4623 347.703 59.722 349.68 57.7477 350.669C57.5009 350.669 57.0074 350.669 56.5138 350.669ZM52.812 338.312C51.0846 338.312 49.6039 337.077 49.3571 335.347C49.1103 333.37 50.3442 331.393 52.0717 331.146C54.046 330.899 55.7734 332.134 56.0202 333.864C56.267 336.088 55.0331 337.818 53.3056 338.065C53.3056 338.312 53.0588 338.312 52.812 338.312ZM51.3313 325.462C49.6039 325.462 48.1231 324.226 47.8764 322.497C47.6296 320.272 48.8635 318.543 50.8378 318.295C52.812 318.048 54.5395 319.284 54.7863 321.261C55.0331 323.238 53.7992 325.215 51.8249 325.462C51.5781 325.462 51.5781 325.462 51.3313 325.462ZM49.1103 312.612C47.3828 312.612 46.1489 311.376 45.6553 309.893C45.1617 307.669 46.3957 305.939 48.3699 305.445C50.3442 305.198 52.0717 306.433 52.3185 308.163C52.812 310.14 51.5781 312.117 49.6039 312.364C49.6039 312.612 49.3571 312.612 49.1103 312.612ZM46.3957 300.008C44.915 300.008 43.4343 299.02 42.9407 297.29C42.4471 295.066 43.681 293.336 45.4085 292.842C47.3828 292.347 49.1103 293.583 49.6039 295.56C50.0974 297.537 48.8635 299.514 47.136 300.008C46.8892 300.008 46.6424 300.008 46.3957 300.008ZM408.674 288.888C406.453 288.888 405.219 287.158 405.219 285.181C405.219 282.957 406.947 281.474 408.921 281.721C410.895 281.721 412.376 283.451 412.129 285.428C412.129 287.405 410.648 288.888 408.674 288.888ZM43.1875 287.405C41.7068 287.405 40.2261 286.416 39.7325 284.687C39.2389 282.71 40.2261 280.733 42.2003 280.238C44.1746 279.744 45.9021 280.98 46.3957 282.71C46.8892 284.687 45.6553 286.664 43.9278 287.158C43.9278 287.158 43.4343 287.405 43.1875 287.405ZM409.414 275.79C407.193 275.79 405.959 274.06 405.959 272.083C405.959 269.859 407.687 268.376 409.661 268.624C411.635 268.624 413.116 270.353 412.869 272.33C412.869 274.554 411.142 275.79 409.414 275.79ZM39.9793 274.802C38.4986 274.802 37.0179 273.813 36.5243 272.33C36.0308 270.353 37.0179 268.376 38.9922 267.882C40.9664 267.388 42.6939 268.624 43.1875 270.353C43.681 272.33 42.6939 274.307 40.7196 274.802C40.7196 274.554 40.2261 274.802 39.9793 274.802ZM410.155 262.94C407.934 262.94 406.7 261.21 406.7 259.233C406.7 257.009 408.427 255.526 410.402 255.773C412.376 255.773 413.857 257.503 413.61 259.48C413.363 261.457 411.882 262.94 410.155 262.94ZM36.7711 262.198C35.2904 262.198 33.8097 261.21 33.3161 259.727C32.8226 257.75 33.8097 255.773 35.784 255.279C37.5115 254.785 39.4857 255.773 39.9793 257.75C40.4729 259.974 39.4857 261.704 37.5115 262.198C37.2647 261.951 37.0179 262.198 36.7711 262.198ZM410.895 249.842C408.674 249.842 407.44 248.112 407.44 246.135C407.44 243.911 409.168 242.428 411.142 242.676C413.116 242.676 414.597 244.405 414.35 246.382C414.103 248.359 412.623 249.842 410.895 249.842ZM33.3161 249.595C31.8354 249.595 30.3547 248.607 29.8612 247.124C29.3676 244.9 30.3547 243.17 32.329 242.676C34.3033 242.181 36.0308 243.417 36.5243 245.147C37.0179 247.124 36.0308 249.101 34.0565 249.595C33.8097 249.595 33.5629 249.595 33.3161 249.595ZM29.8612 236.992C28.3805 236.992 26.8998 236.003 26.4062 234.52C25.9126 232.296 26.8998 230.566 28.874 230.072C30.8483 229.578 32.5758 230.566 33.0693 232.543C33.5629 234.52 32.5758 236.497 30.6015 236.992C30.6015 236.992 30.1079 236.992 29.8612 236.992ZM411.389 236.992C409.414 236.992 407.934 235.262 407.934 233.285C407.934 231.061 409.661 229.578 411.635 229.825C413.61 229.825 415.09 231.555 414.844 233.532C414.844 235.509 413.363 236.992 411.389 236.992ZM26.4062 224.388C24.9255 224.388 23.4448 223.4 22.9512 221.917C22.4577 219.94 23.4448 217.963 25.4191 217.469C27.1465 216.975 29.1208 217.963 29.6144 219.94C30.1079 222.164 29.1208 223.894 27.1465 224.388C27.1465 224.388 26.8998 224.388 26.4062 224.388ZM412.129 223.894C410.155 223.894 408.674 222.164 408.674 220.187C408.674 217.963 410.402 216.48 412.376 216.728C414.35 216.728 415.831 218.457 415.584 220.434C415.584 222.411 413.857 223.894 412.129 223.894ZM23.198 211.785C21.7173 211.785 20.2366 210.797 19.743 209.314C19.2495 207.337 20.2366 205.36 22.2109 204.866C24.1851 204.371 25.9126 205.607 26.4062 207.337C26.8998 209.314 25.9126 211.291 23.9384 211.785C23.6916 211.785 23.4448 211.785 23.198 211.785ZM412.623 210.797C410.402 210.797 409.168 209.067 409.168 207.09C409.168 205.113 410.895 203.383 412.869 203.63C414.844 203.63 416.324 205.36 416.078 207.337C416.078 209.314 414.597 210.797 412.623 210.797ZM19.9898 199.182C18.5091 199.182 17.0284 198.193 16.5348 196.463C16.0413 194.486 17.0284 192.509 19.0027 192.015C20.9769 191.521 22.7044 192.509 23.198 194.486C23.6916 196.711 22.7044 198.44 20.7302 198.935C20.4834 199.182 20.2366 199.182 19.9898 199.182ZM413.363 197.946C411.389 197.946 409.908 196.216 409.908 194.239C409.908 192.015 411.635 190.532 413.61 190.78C415.584 190.78 417.065 192.509 416.818 194.486C416.571 196.463 415.09 197.946 413.363 197.946ZM16.7816 186.578C15.3009 186.578 13.8202 185.59 13.3267 183.86C12.8331 181.883 14.067 179.906 15.7945 179.412C17.7688 178.918 19.4962 180.153 19.9898 181.883C20.4834 183.86 19.2495 185.837 17.522 186.331C17.2752 186.578 17.0284 186.578 16.7816 186.578ZM413.61 184.849C411.635 184.849 410.155 183.119 410.155 181.389C410.155 179.165 411.882 177.682 413.61 177.682C415.584 177.682 417.065 179.412 417.065 181.142C417.065 183.366 415.584 184.849 413.61 184.849ZM13.8202 173.975C12.3395 173.975 10.8588 172.987 10.3653 171.257C9.87169 169.28 11.1056 167.303 12.8331 166.809C14.8074 166.314 16.5348 167.55 17.0284 169.28C17.522 171.504 16.2881 173.234 14.5606 173.728C14.3138 173.975 14.067 173.975 13.8202 173.975ZM414.35 171.751C412.129 171.504 410.648 170.021 410.895 168.044C411.142 165.82 412.869 164.584 414.597 164.584C416.571 164.832 417.805 166.561 417.805 168.291C417.558 170.515 416.078 171.751 414.35 171.751ZM11.1056 161.125C9.37812 161.125 8.1442 159.889 7.65063 158.406C7.15707 156.182 8.39098 154.452 10.3653 153.958C12.3395 153.711 14.067 154.947 14.3138 156.676C14.8074 158.653 13.5734 160.63 11.5992 160.878C11.5992 161.125 11.3524 161.125 11.1056 161.125ZM415.584 158.901C413.363 158.653 411.882 156.924 412.129 154.947C412.376 152.97 414.103 151.487 415.831 151.734C417.805 151.981 419.039 153.711 419.039 155.441C418.792 157.665 417.311 158.901 415.584 158.901ZM8.88455 148.521C7.15707 148.521 5.67636 147.286 5.42958 145.556C4.93601 143.332 6.41671 141.602 8.1442 141.355C10.1185 141.108 11.846 142.343 12.0927 144.32C12.3395 146.297 11.1056 148.274 9.37812 148.521C9.13133 148.521 8.88455 148.521 8.88455 148.521ZM416.571 145.803C414.35 145.556 412.869 144.073 413.116 142.096C413.363 139.872 414.844 138.636 416.818 138.636C418.792 138.884 420.273 140.366 420.026 142.343C420.026 144.567 418.299 145.803 416.571 145.803ZM6.91028 135.671C5.1828 135.671 3.70209 134.435 3.45531 132.705C3.20853 130.728 4.44245 128.751 6.41671 128.504C8.39098 128.257 10.1185 129.493 10.3653 131.47C10.612 133.694 9.37812 135.424 7.40385 135.671C7.15707 135.671 6.91028 135.671 6.91028 135.671ZM417.065 132.953C415.09 132.953 413.61 131.47 413.61 129.493C413.61 127.269 415.09 125.786 417.065 125.786C419.039 125.786 420.52 127.269 420.52 129.246C420.52 131.47 419.039 132.953 417.065 132.953ZM5.67636 122.573C3.94888 122.573 2.22139 121.091 2.22139 119.361C1.97461 117.137 3.45531 115.654 5.42958 115.407C7.40385 115.16 8.88455 116.642 9.13134 118.619C9.13134 120.844 7.65063 122.573 5.67636 122.573ZM416.818 119.855C415.09 119.855 413.363 118.372 413.363 116.642C413.116 114.665 414.597 112.936 416.571 112.688C418.545 112.688 420.026 113.924 420.273 115.901C420.52 118.125 419.039 119.855 416.818 119.855C417.065 119.855 416.818 119.855 416.818 119.855ZM5.42958 109.723C3.45531 109.723 1.97461 108.24 1.97461 106.263C1.97461 104.286 3.7021 102.556 5.42958 102.803C7.40385 102.803 8.88455 104.286 8.88455 106.263C8.63777 107.993 7.15707 109.723 5.42958 109.723ZM415.337 107.005C413.61 107.005 412.129 105.769 411.882 104.039C411.389 101.815 412.869 100.085 414.597 99.838C416.571 99.5909 418.299 100.826 418.545 102.556C419.039 104.533 417.558 106.51 415.831 106.757C415.831 107.005 415.584 107.005 415.337 107.005ZM6.91028 96.8725C4.19566 96.3783 3.20853 94.6484 3.45531 92.6714C3.94888 90.4473 5.92315 89.4588 7.65063 89.7059C9.6249 90.2002 10.612 91.93 10.1185 93.907C9.87169 95.6369 8.39098 96.8725 6.91028 96.8725ZM412.129 94.4013C410.648 94.4013 409.414 93.4128 408.921 92.1772C408.18 90.2002 409.168 88.2232 410.895 87.4818C412.623 86.7404 414.597 87.7289 415.337 89.4588C416.078 91.4358 415.09 93.4128 413.363 94.1541C412.869 94.4013 412.623 94.4013 412.129 94.4013ZM12.3395 85.2577C11.3524 85.2577 10.612 85.0106 9.87169 84.2692C8.39098 83.0336 8.39098 80.8095 9.87169 79.3267C11.3524 77.844 13.5734 77.844 15.0541 79.0796C16.5348 80.3152 16.5348 82.5393 15.0541 84.0221C14.3138 85.0106 13.3267 85.2577 12.3395 85.2577ZM405.959 83.0336C404.972 83.0336 403.985 82.5393 403.245 81.5508C402.011 79.821 402.258 77.5969 403.738 76.6084C405.219 75.3727 407.44 75.6199 408.674 77.3497C409.908 79.0796 409.661 81.3037 408.18 82.2922C407.44 82.7864 406.7 83.0336 405.959 83.0336ZM22.9512 77.844C21.7173 77.844 20.4834 77.1026 19.743 75.867C18.7559 74.1371 19.4962 72.1601 21.2237 71.1716C23.198 70.1831 25.1723 70.9245 26.1594 72.6544C27.1465 74.3842 26.4062 76.3612 24.6787 77.3497C23.9384 77.844 23.4448 77.844 22.9512 77.844ZM396.582 74.1371C396.088 74.1371 395.348 73.89 394.854 73.6429C393.127 72.6544 392.386 70.4303 393.373 68.7004C394.361 66.9705 396.582 66.4763 398.062 67.4648C400.037 68.7004 400.53 70.6774 399.543 72.4072C399.049 73.6429 397.816 74.1371 396.582 74.1371ZM35.0436 72.9015C33.5629 72.9015 32.329 71.913 31.8354 70.4303C31.3419 68.7004 32.329 66.7234 34.0565 65.982C36.0308 65.2407 38.005 66.2292 38.7454 68.2061C39.2389 69.936 38.2518 71.913 36.5243 72.6544C35.784 72.9015 35.2904 72.9015 35.0436 72.9015ZM384.489 69.936C381.775 69.4418 380.541 67.7119 380.788 65.982C381.034 64.005 382.762 62.7694 384.736 63.0165C386.957 63.2637 388.191 65.2407 387.944 66.9705C387.697 68.7004 386.217 69.936 384.489 69.936ZM47.6296 69.4418C46.1489 69.4418 44.6682 68.4533 44.1746 66.7234C43.681 64.7464 44.915 63.0165 46.6424 62.5223C48.8635 62.0281 50.591 63.2637 51.0846 64.9935C51.5781 66.9705 50.3442 68.7004 48.3699 69.1946C48.1232 69.4418 47.8764 69.4418 47.6296 69.4418ZM371.656 69.1946C369.435 69.1946 367.955 67.4648 367.955 65.7349C367.955 63.7579 369.682 62.2752 371.41 62.2752C373.631 62.2752 375.111 64.005 375.111 65.7349C375.111 67.7119 373.384 69.1946 371.656 69.1946ZM358.577 68.7004C356.356 68.7004 354.875 66.9705 354.875 64.9935C354.875 63.0165 356.603 61.5338 358.577 61.7809C360.798 62.0281 362.279 63.5108 362.032 65.4878C362.032 67.2177 360.551 68.7004 358.577 68.7004ZM345.744 67.959C343.276 67.7119 342.042 66.2292 342.042 64.2522C342.042 62.2752 343.77 60.7924 345.744 61.0396C347.965 61.2867 349.446 62.7694 349.199 64.7464C348.952 66.4763 347.472 67.959 345.744 67.959ZM332.665 67.2177C330.197 66.9705 328.963 65.4878 328.963 63.5108C328.963 61.5338 330.69 60.0511 332.665 60.2982C334.886 60.5453 336.366 62.0281 336.12 64.005C336.12 65.7349 334.392 67.2177 332.665 67.2177ZM60.2155 66.9705C58.4881 66.9705 57.0074 65.7349 56.7606 64.005C56.5138 62.0281 57.7477 60.2982 59.722 60.0511C61.6963 59.8039 63.6705 61.0396 63.9173 62.7694C64.1641 64.7464 62.9302 66.4763 61.2027 66.7234C60.7091 66.9705 60.4623 66.9705 60.2155 66.9705ZM319.832 66.2292C317.364 65.982 316.13 64.4993 316.13 62.5223C316.13 60.5453 317.858 59.0626 319.832 59.3097C322.053 59.5568 323.534 61.0396 323.287 63.0165C323.04 64.9935 321.559 66.2292 319.832 66.2292ZM306.752 65.4878C304.285 65.2407 303.051 63.7579 303.051 61.7809C303.051 59.8039 304.778 58.3212 306.752 58.5683C308.973 58.8154 310.454 60.2982 310.207 62.2752C310.207 64.005 308.48 65.4878 306.752 65.4878ZM73.0483 64.9935C71.3208 64.9935 69.8401 63.7579 69.5933 62.0281C69.3465 60.0511 70.5805 58.3212 72.5547 58.0741C74.7758 57.827 76.5033 59.0626 76.7501 61.0396C76.9968 63.0166 75.7629 64.7464 73.7887 64.9935C73.2951 64.9935 73.2951 64.9935 73.0483 64.9935ZM293.673 64.7464C291.205 64.4993 289.971 63.0166 289.971 61.0396C289.971 59.0626 291.699 57.5798 293.673 57.8269C295.894 57.8269 297.375 59.5568 297.128 61.5338C297.128 63.2637 295.647 64.7464 293.673 64.7464ZM280.84 64.005C278.619 64.005 277.138 62.2752 277.138 60.2982C277.138 58.3212 278.866 56.8385 280.84 57.0856C283.061 57.3327 284.542 58.8154 284.295 60.7924C284.048 62.5223 282.568 64.005 280.84 64.005ZM85.881 63.5108C84.1536 63.5108 82.6729 62.2752 82.4261 60.2982C82.1793 58.3212 83.66 56.5913 85.6343 56.5913C87.8553 56.3442 89.5828 57.827 89.5828 59.8039C89.8296 61.7809 88.3489 63.5108 86.3746 63.5108C86.1278 63.5108 86.1278 63.5108 85.881 63.5108ZM267.761 63.2637C265.54 63.2637 264.059 61.5338 264.059 59.5568C264.059 57.5798 265.786 56.0971 267.761 56.3442C269.982 56.3442 271.462 58.0741 271.216 60.0511C271.216 61.7809 269.735 63.2637 267.761 63.2637ZM254.928 62.7694C252.707 62.7694 251.226 61.0396 251.226 59.0626C251.226 57.0856 252.954 55.6028 254.928 55.85C257.149 55.85 258.63 57.5798 258.383 59.5568C258.136 61.2867 256.655 62.7694 254.928 62.7694ZM98.9606 62.5223C97.2331 62.5223 95.7524 61.0396 95.5056 59.3097C95.2588 57.3327 96.7395 55.85 98.7138 55.6028C100.935 55.3557 102.416 56.8385 102.662 58.8154C102.909 60.7924 101.428 62.2752 99.4541 62.5223C99.2074 62.5223 98.9606 62.5223 98.9606 62.5223ZM241.848 62.0281C239.627 62.0281 238.147 60.2982 238.147 58.3212C238.147 56.3442 239.874 54.8615 241.848 55.1086C244.069 55.1086 245.55 56.8385 245.303 58.8154C245.303 60.7924 243.823 62.0281 241.848 62.0281ZM111.793 61.7809C110.066 61.7809 108.338 60.2982 108.338 58.5683C108.338 56.5913 109.819 55.1086 111.547 54.8615C113.768 54.8615 115.248 56.0971 115.495 58.0741C115.495 60.0511 114.014 61.5338 112.287 61.7809C112.04 61.7809 112.04 61.7809 111.793 61.7809ZM229.016 61.5338C226.795 61.5338 225.314 59.8039 225.314 57.8269C225.314 55.85 227.041 54.3672 229.016 54.3672C231.237 54.3672 232.717 56.0971 232.471 58.0741C232.224 60.0511 230.743 61.5338 229.016 61.5338ZM215.936 61.2867C213.715 61.2867 212.234 59.5568 212.234 57.5798C212.234 55.6028 213.962 54.1201 215.936 54.1201C218.157 54.1201 219.638 55.85 219.391 57.5798C219.391 59.8039 217.91 61.2867 215.936 61.2867ZM124.873 61.0396C123.145 61.0396 121.418 59.5568 121.418 57.8269C121.418 55.85 122.899 54.3672 124.626 54.1201C126.847 54.1201 128.328 55.6028 128.575 57.5798C128.575 59.5568 127.094 61.0396 125.12 61.2867C124.873 61.0396 124.873 61.0396 124.873 61.0396ZM202.856 60.7924C200.635 60.7924 199.155 59.0626 199.155 57.3327C199.155 55.3557 200.882 53.873 202.61 53.873C204.831 53.873 206.311 55.6028 206.311 57.3327C206.311 59.3097 204.831 60.7924 202.856 60.7924ZM137.706 60.7924C135.731 60.7924 134.251 59.3097 134.251 57.3327C134.251 55.3557 135.731 53.873 137.706 53.873C139.927 53.873 141.407 55.3557 141.407 57.3327C141.407 59.3097 139.927 60.7924 137.952 60.7924C137.952 60.7924 137.952 60.7924 137.706 60.7924ZM190.024 60.5453C187.803 60.5453 186.322 59.0626 186.322 57.0856C186.322 55.1086 187.803 53.6258 189.777 53.6258C191.998 53.6258 193.479 55.3557 193.479 57.0856C193.479 59.0626 191.751 60.5453 190.024 60.5453ZM150.785 60.5453C148.811 60.5453 147.33 59.0626 147.33 57.0856C147.33 55.1086 148.811 53.6258 150.785 53.6258C153.006 53.6258 154.487 55.1086 154.487 57.0856C154.487 58.8154 153.006 60.5453 150.785 60.5453ZM176.944 60.2982C174.723 60.2982 173.242 58.8154 173.242 56.8385C173.242 54.8615 174.723 53.3787 176.697 53.3787C178.918 53.3787 180.399 54.8615 180.399 56.8385C180.399 58.8154 178.918 60.2982 176.944 60.2982ZM163.865 60.2982C161.89 60.2982 160.41 58.8154 160.41 56.8385C160.41 54.8615 161.89 53.3787 163.865 53.3787C166.086 53.3787 167.566 54.8615 167.566 56.8385C167.566 58.8154 166.086 60.2982 164.111 60.2982H163.865Z" fill="#343B43"/>
<path fill-rule="evenodd" clip-rule="evenodd" d="M299.102 117.878V0H181.88V33.6088C167.813 33.6088 156.461 44.9765 156.461 59.0626C156.461 73.3958 167.813 84.7635 181.88 84.7635V118.125L299.102 117.878Z" fill="url(#paint0_linear)"/>
<path fill-rule="evenodd" clip-rule="evenodd" d="M66.3862 122.326C66.3862 108.24 77.7383 96.8725 91.8049 96.8725C105.872 96.8725 117.224 108.24 117.224 122.326H153.501V88.9646C139.681 88.9646 128.329 77.5969 128.329 63.5108C128.329 49.4248 139.681 38.0571 153.501 37.8099V4.20111H36.5254V122.079L66.3862 122.326Z" fill="url(#paint1_linear)"/>
<path fill-rule="evenodd" clip-rule="evenodd" d="M113.274 145.803L78.2304 155.194C74.5287 141.602 60.7088 133.447 47.1357 137.154C33.5626 140.861 25.6655 154.699 29.1205 168.291L0 176.199L30.3544 290.123L143.628 259.727L113.274 145.803Z" fill="url(#paint2_linear)"/>
<path fill-rule="evenodd" clip-rule="evenodd" d="M104.143 133.941H430.884C445.691 133.941 457.537 146.05 457.537 160.63V460.392C457.537 475.219 445.691 487.081 430.884 487.081H104.143C89.3357 487.081 77.49 474.972 77.49 460.392V160.878C77.2433 146.05 89.3357 133.941 104.143 133.941Z" fill="white"/>
<path fill-rule="evenodd" clip-rule="evenodd" d="M113.272 127.763H440.013C454.82 127.763 466.666 139.625 466.666 154.452V454.214C466.666 469.041 454.573 480.903 440.013 480.903H113.272C98.4646 480.903 86.6189 469.041 86.6189 454.214V154.452C86.3722 139.625 98.4646 127.763 113.272 127.763Z" fill="#F5F5F5"/>
<path fill-rule="evenodd" clip-rule="evenodd" d="M108.338 141.602C108.338 141.602 130.055 141.602 162.63 141.602C257.642 141.602 444.704 141.602 444.704 141.602C456.796 141.602 466.667 151.487 466.667 163.596C466.667 175.705 469.382 181.636 462.225 181.883L95.258 180.895C83.1656 180.895 86.3738 175.705 86.3738 163.596C86.3738 151.24 96.2452 141.602 108.338 141.602Z" fill="url(#paint3_linear)"/>
<path d="M431.129 197.699H426.44C424.96 197.699 423.973 196.463 423.973 195.228C423.973 193.992 425.207 192.757 426.44 192.757H431.129C432.61 192.757 433.597 193.992 433.597 195.228C433.597 196.463 432.61 197.699 431.129 197.699Z" fill="url(#paint4_linear)"/>
<path d="M438.535 217.469H402.011C400.53 217.469 399.543 216.233 399.543 214.998C399.543 213.762 400.777 212.526 402.011 212.526H438.535C440.016 212.526 441.003 213.762 441.003 214.998C441.003 216.233 440.016 217.469 438.535 217.469Z" fill="url(#paint5_linear)"/>
<path d="M442.234 239.216H381.773C380.292 239.216 379.305 237.98 379.305 236.745C379.305 235.262 380.539 234.273 381.773 234.273H442.234C443.715 234.273 444.702 235.509 444.702 236.745C444.702 237.98 443.715 239.216 442.234 239.216Z" fill="url(#paint6_linear)"/>
<path d="M422.246 258.739H381.526C380.046 258.739 379.059 257.503 379.059 256.267C379.059 254.785 380.293 253.796 381.526 253.796H422.246C423.726 253.796 424.714 255.032 424.714 256.267C424.714 257.75 423.726 258.739 422.246 258.739Z" fill="url(#paint7_linear)"/>
<path d="M442.234 278.014H381.773C380.292 278.014 379.305 276.779 379.305 275.543C379.305 274.307 380.539 273.072 381.773 273.072H442.234C443.715 273.072 444.702 274.307 444.702 275.543C444.702 276.779 443.715 278.014 442.234 278.014Z" fill="url(#paint8_linear)"/>
<path d="M442.482 297.784H403.737C402.257 297.784 401.27 296.549 401.27 295.313C401.27 293.83 402.503 292.842 403.737 292.842H442.482C443.963 292.842 444.95 294.077 444.95 295.313C444.95 296.549 443.963 297.784 442.482 297.784Z" fill="url(#paint9_linear)"/>
<path d="M442.234 319.531H381.773C380.292 319.531 379.305 318.295 379.305 317.06C379.305 315.824 380.539 314.589 381.773 314.589H442.234C443.715 314.589 444.702 315.824 444.702 317.06C444.702 318.295 443.715 319.531 442.234 319.531Z" fill="url(#paint10_linear)"/>
<path d="M422.246 339.054H381.526C380.046 339.054 379.059 337.818 379.059 336.583C379.059 335.1 380.293 334.111 381.526 334.111H422.246C423.726 334.111 424.714 335.347 424.714 336.583C424.714 337.818 423.726 339.054 422.246 339.054Z" fill="url(#paint11_linear)"/>
<path d="M418.297 197.699H381.526C380.046 197.699 379.059 196.463 379.059 195.228C379.059 193.992 380.293 192.757 381.526 192.757H418.297C419.778 192.757 420.765 193.992 420.765 195.228C420.765 196.463 419.778 197.699 418.297 197.699Z" fill="url(#paint12_linear)"/>
<path d="M388.436 217.469H381.526C380.046 217.469 379.059 216.233 379.059 214.998C379.059 213.762 380.293 212.526 381.526 212.526H388.436C389.917 212.526 390.904 213.762 390.904 214.998C390.904 216.233 389.917 217.469 388.436 217.469Z" fill="url(#paint13_linear)"/>
<path d="M442.234 239.216H381.773C380.292 239.216 379.305 237.98 379.305 236.745C379.305 235.262 380.539 234.273 381.773 234.273H442.234C443.715 234.273 444.702 235.509 444.702 236.745C444.702 237.98 443.715 239.216 442.234 239.216Z" fill="url(#paint14_linear)"/>
<path d="M442.234 278.014H381.773C380.292 278.014 379.305 276.779 379.305 275.543C379.305 274.307 380.539 273.072 381.773 273.072H442.234C443.715 273.072 444.702 274.307 444.702 275.543C444.702 276.779 443.715 278.014 442.234 278.014Z" fill="url(#paint15_linear)"/>
<path d="M391.398 297.784H381.526C380.046 297.784 379.059 296.549 379.059 295.313C379.059 293.83 380.293 292.842 381.526 292.842H391.398C392.878 292.842 393.866 294.077 393.866 295.313C393.866 296.549 392.878 297.784 391.398 297.784Z" fill="url(#paint16_linear)"/>
<path d="M442.234 319.531H381.773C380.292 319.531 379.305 318.295 379.305 317.06C379.305 315.824 380.539 314.589 381.773 314.589H442.234C443.715 314.589 444.702 315.824 444.702 317.06C444.702 318.295 443.715 319.531 442.234 319.531Z" fill="url(#paint17_linear)"/>
<path d="M442.235 339.054H431.13C429.649 339.054 428.662 337.818 428.662 336.583C428.662 335.1 429.896 334.111 431.13 334.111H442.235C443.716 334.111 444.703 335.347 444.703 336.583C444.95 337.818 443.716 339.054 442.235 339.054Z" fill="url(#paint18_linear)"/>
<path d="M442.235 258.739H431.13C429.649 258.739 428.662 257.503 428.662 256.267C428.662 254.785 429.896 253.796 431.13 253.796H442.235C443.716 253.796 444.703 255.032 444.703 256.267C444.95 257.75 443.716 258.739 442.235 258.739Z" fill="url(#paint19_linear)"/>
<path d="M430.886 490.047H104.145C88.1037 490.047 74.7773 476.949 74.7773 460.639V160.878C74.7773 144.815 87.8569 131.47 104.145 131.47H430.886C446.927 131.47 460.253 144.567 460.253 160.878V460.639C460.007 476.702 446.927 490.047 430.886 490.047ZM104.145 136.659C90.8183 136.659 79.9598 147.533 79.9598 160.878V460.639C79.9598 473.983 90.8183 484.857 104.145 484.857H430.886C444.212 484.857 455.071 473.983 455.071 460.639V160.878C455.071 147.533 444.212 136.659 430.886 136.659H104.145Z" fill="#343B43"/>
<path fill-rule="evenodd" clip-rule="evenodd" d="M460.005 247.124V232.791C460.005 232.791 441.003 224.883 434.34 197.699C427.677 170.515 446.679 133.2 454.083 122.573C461.486 111.947 477.527 93.1656 477.527 93.1656C477.527 93.1656 459.018 83.0335 466.915 64.4993C474.813 45.965 478.761 46.2121 485.918 48.1891C493.074 50.1661 500.478 53.3787 500.478 53.3787C500.478 53.3787 506.894 28.9134 522.195 35.0915C537.742 41.0225 551.562 55.6028 551.562 55.6028C551.562 55.6028 560.693 49.919 575.5 67.7119C590.307 85.2576 613.258 107.746 617.947 113.43C622.389 119.361 626.831 140.119 615.232 153.711C603.634 167.303 566.369 196.216 566.369 196.216C566.369 196.216 573.279 207.831 562.914 214.751C552.796 221.67 534.287 213.021 534.287 213.021L524.416 220.434C524.416 220.434 523.429 229.331 532.066 232.543C540.457 235.756 597.464 255.773 612.271 288.146C628.065 322.744 631.767 356.105 628.312 414.427C624.857 472.748 625.844 508.086 625.844 508.086H552.796C552.796 508.086 539.963 530.822 464.694 532.057C389.425 533.293 283.555 527.609 261.345 523.902C239.134 520.443 205.078 521.925 197.921 518.218C190.765 514.512 189.284 511.546 189.284 511.546C189.284 511.546 163.865 488.811 183.114 490.046C202.363 491.282 229.263 496.966 249.993 491.282C270.722 485.351 290.218 476.455 290.218 476.455C290.218 476.455 284.542 468.547 270.722 461.627C256.903 454.461 240.368 439.386 266.034 442.104C294.167 445.07 327.236 471.018 327.236 471.018C327.236 471.018 381.528 466.075 415.584 461.133C449.641 456.19 462.473 453.225 462.473 453.225L460.005 247.124Z" fill="white"/>
<path fill-rule="evenodd" clip-rule="evenodd" d="M457.29 243.17C457.29 243.17 477.279 270.353 504.179 262.445C531.078 254.537 537.001 236.992 537.001 236.992C537.001 236.992 606.347 246.877 620.167 305.445C633.987 363.766 622.388 510.805 622.388 510.805H544.651C545.392 512.04 556.497 506.604 574.512 474.972C577.227 470.277 582.656 452.484 582.656 452.484C582.656 452.484 566.862 415.909 544.158 407.013C521.7 398.116 489.125 394.41 489.125 394.41L463.953 451.248L457.043 452.484L457.29 243.17Z" fill="#343B43"/>
<path fill-rule="evenodd" clip-rule="evenodd" d="M558.964 193.992C558.964 193.992 549.34 197.946 545.638 193.745C541.936 189.544 539.715 189.544 544.404 182.872C549.093 176.199 556.003 166.314 557.73 159.642C559.705 152.97 557.237 139.131 557.237 139.131C557.237 139.131 545.391 143.085 538.975 137.401C532.558 131.717 529.103 125.045 529.103 125.045C529.103 125.045 501.217 127.516 494.554 120.349C488.137 113.183 496.528 100.085 496.528 100.085C496.528 100.085 477.526 94.1542 473.577 88.9646C469.629 83.775 472.343 63.0166 484.682 55.3557C493.32 49.919 502.944 53.873 505.412 57.827C505.412 57.827 509.361 39.0456 522.687 43.4938C536.013 48.1892 539.715 61.2867 545.885 62.5223C552.054 63.758 567.602 63.0166 577.473 80.8095C587.098 98.6024 598.696 107.499 607.087 115.901C614.984 124.056 620.907 139.378 613.01 153.217C605.36 166.561 568.095 197.452 568.095 197.452L558.964 193.992Z" fill="url(#paint20_linear)"/>
<path fill-rule="evenodd" clip-rule="evenodd" d="M508.127 157.665C511.335 157.665 513.803 160.136 513.803 163.349V169.527C513.803 172.74 511.335 175.211 508.127 175.211C504.919 175.211 502.451 172.74 502.451 169.527V163.349C502.698 160.136 505.166 157.665 508.127 157.665Z" fill="black"/>
<path fill-rule="evenodd" clip-rule="evenodd" d="M465.928 134.93C469.136 134.93 471.604 137.401 471.604 140.613V146.792C471.604 150.004 469.136 152.475 465.928 152.475C462.72 152.475 460.252 150.004 460.252 146.792V140.613C460.252 137.648 462.72 134.93 465.928 134.93Z" fill="black"/>
<path fill-rule="evenodd" clip-rule="evenodd" d="M376.839 130.728C376.839 130.728 277.632 91.6829 243.822 88.4703C210.013 85.7519 190.024 91.4358 186.322 107.993C182.62 124.55 179.659 143.332 189.777 150.004C199.895 156.676 210.26 157.418 210.26 157.418C210.26 157.418 219.144 163.843 222.599 160.878C226.054 158.159 228.028 156.429 228.028 156.429C228.028 156.429 234.445 163.596 238.887 159.642C243.576 155.688 246.043 144.073 246.043 144.073C246.043 144.073 251.226 144.567 253.941 143.826C256.902 143.085 274.917 133.2 282.814 137.154C290.711 141.108 302.063 145.556 310.701 141.355C319.338 137.154 330.69 130.976 330.69 130.976L376.839 130.728Z" fill="white"/>
<path d="M457.538 453.472C456.057 453.472 455.07 452.237 455.07 451.001V236.25C455.07 234.768 456.304 233.779 457.538 233.779C458.772 233.779 460.006 235.015 460.006 236.25V451.001C460.006 452.237 459.019 453.472 457.538 453.472Z" fill="#343B43"/>
<path d="M119.316 148.161L103.258 164.232L106.921 167.903L122.98 151.831L119.316 148.161Z" fill="#EAECFF"/>
<path d="M106.938 147.99L103.273 151.66L119.33 167.736L122.994 164.066L106.938 147.99Z" fill="#EAECFF"/>
<path fill-rule="evenodd" clip-rule="evenodd" d="M141.407 148.521C146.59 148.521 150.785 152.722 150.785 157.912C150.785 163.102 146.59 167.303 141.407 167.303C136.225 167.303 132.029 163.102 132.029 157.912C132.276 152.722 136.225 148.521 141.407 148.521Z" fill="#EAECFF"/>
<path d="M363.514 451.001C361.786 451.001 360.059 449.518 360.059 447.541V178.918C360.059 177.188 361.539 175.458 363.514 175.458C365.241 175.458 366.969 176.941 366.969 178.918V447.541C366.722 449.518 365.241 451.001 363.514 451.001Z" fill="#343B43"/>
<path d="M431.378 175.458H57.9941V180.647H431.378V175.458Z" fill="#343B43"/>
<path d="M120.429 225.377H96.4913C95.0106 225.377 94.0234 224.141 94.0234 222.906V198.935C94.0234 197.452 95.2574 196.463 96.4913 196.463H120.429C121.91 196.463 122.897 197.699 122.897 198.935V222.906C123.144 224.141 121.91 225.377 120.429 225.377ZM98.9591 220.187H117.715V201.406H98.9591V220.187Z" fill="url(#paint21_linear)"/>
<path d="M307.74 209.808H140.667C139.186 209.808 138.199 208.572 138.199 207.337C138.199 205.854 139.433 204.866 140.667 204.866H307.493C308.973 204.866 309.961 206.101 309.961 207.337C310.207 208.82 308.973 209.808 307.74 209.808Z" fill="url(#paint22_linear)"/>
<path d="M307.74 229.578H140.667C139.186 229.578 138.199 228.342 138.199 227.107C138.199 225.624 139.433 224.635 140.667 224.635H307.493C308.973 224.635 309.961 225.871 309.961 227.107C310.207 228.342 308.973 229.578 307.74 229.578Z" fill="url(#paint23_linear)"/>
<path d="M307.74 251.325H140.667C139.186 251.325 138.199 250.089 138.199 248.854C138.199 247.618 139.433 246.382 140.667 246.382H307.493C308.973 246.382 309.961 247.618 309.961 248.854C309.961 250.089 308.973 251.325 307.74 251.325Z" fill="url(#paint24_linear)"/>
<path d="M307.74 270.848H140.667C139.186 270.848 138.199 269.612 138.199 268.376C138.199 266.894 139.433 265.905 140.667 265.905H307.493C308.973 265.905 309.961 267.141 309.961 268.376C310.207 269.859 308.973 270.848 307.74 270.848Z" fill="url(#paint25_linear)"/>
<path fill-rule="evenodd" clip-rule="evenodd" d="M143 284H307.851V389.028H143V284Z" fill="url(#paint26_linear)"/>
<path d="M234.659 316.63H239.954V307.408C239.04 307.283 235.898 307 232.24 307C224.605 307 219.376 311.802 219.376 320.628V328.75H210.951V339.06H219.376V365H229.705V339.062H237.788L239.072 328.752H229.702V321.65C229.705 318.67 230.507 316.63 234.659 316.63Z" fill="white"/>
<path d="M309.713 410.225H142.888C141.407 410.225 140.42 408.99 140.42 407.754C140.42 406.519 141.654 405.283 142.888 405.283H309.96C311.441 405.283 312.428 406.519 312.428 407.754C312.428 408.99 311.194 410.225 309.713 410.225Z" fill="url(#paint27_linear)"/>
<path d="M309.713 429.748H142.888C141.407 429.748 140.42 428.513 140.42 427.277C140.42 426.041 141.654 424.806 142.888 424.806H309.96C311.441 424.806 312.428 426.041 312.428 427.277C312.428 428.513 311.194 429.748 309.713 429.748Z" fill="url(#paint28_linear)"/>
<path d="M122.899 434.197H98.7139C97.2332 434.197 96.2461 432.961 96.2461 431.725V407.754C96.2461 406.272 97.48 405.283 98.7139 405.283H122.652C124.133 405.283 125.12 406.519 125.12 407.754V431.725C125.367 432.961 124.133 434.197 122.899 434.197ZM101.429 429.007H120.184V410.225H101.429V429.007Z" fill="url(#paint29_linear)"/>
<path fill-rule="evenodd" clip-rule="evenodd" d="M630.531 327.439C625.842 300.503 612.022 279.744 596.722 264.422C584.136 251.819 571.056 241.687 552.3 235.756C546.871 234.026 537.987 233.285 533.545 230.072C530.584 228.095 530.337 225.377 528.609 220.929C530.09 219.446 531.817 218.457 533.545 217.222C548.105 230.566 575.251 220.187 571.303 198.935C583.395 188.803 596.228 179.412 607.58 167.797C617.451 157.418 629.05 138.884 622.387 118.619C619.672 110.711 613.996 104.533 608.32 99.0966C602.644 93.4128 596.475 87.9761 591.539 81.798C581.421 69.1946 573.771 53.1316 552.3 53.1316C545.391 44.2351 537.493 30.3962 520.712 31.879C509.854 32.8674 502.944 39.5398 500.969 50.1661C495.047 46.7064 486.656 42.5053 478.265 44.7294C463.212 49.1776 456.302 75.867 467.407 88.7174C469.134 90.6944 471.355 91.93 473.083 93.907C469.381 97.861 466.173 102.309 462.224 106.016C458.276 104.533 452.106 104.286 452.6 108.982C452.847 111.453 455.068 111.947 457.782 112.441C448.405 124.797 440.261 138.142 434.091 154.452C428.168 170.021 424.96 192.757 432.364 209.314C438.78 223.894 453.834 233.779 470.368 236.745C491.345 240.699 509.113 233.285 522.44 225.13C524.167 231.802 528.116 236.25 534.038 238.474C523.674 249.595 514.296 260.716 493.566 260.716C477.031 260.716 468.888 254.043 461.237 245.888C460.991 245.641 460.003 244.405 459.757 244.158V254.785C468.394 262.693 479.993 268.624 496.034 268.129C516.023 267.388 527.622 256.514 537.493 245.641C538.727 244.158 540.455 240.946 541.936 240.699C543.663 240.451 545.884 241.687 547.612 241.934C549.339 242.428 550.573 242.676 553.041 243.417C548.352 250.831 542.429 257.009 535.519 262.693C533.545 264.175 529.35 266.399 529.843 269.612C530.09 270.848 531.324 272.083 532.805 272.33C536.013 272.825 539.221 268.871 540.948 267.388C548.599 261.21 554.768 253.302 560.198 246.382C578.953 256.514 594.254 269.365 605.606 286.169C611.282 294.572 616.711 303.962 619.919 314.589C630.037 348.197 623.374 394.162 621.647 432.714C620.66 451.989 620.166 474.231 620.166 494.989C620.166 500.92 618.932 513.523 622.14 514.512C624.115 515.253 626.336 514.017 626.582 513.523C627.816 511.793 627.076 504.627 627.076 501.908C627.076 489.305 627.323 477.443 627.569 466.075C627.816 449.518 628.803 434.691 629.544 419.369C631.271 389.22 635.467 356.352 630.531 327.439ZM512.075 222.906C504.424 227.107 493.566 230.566 482.214 230.814C467.9 230.814 455.315 225.624 446.677 217.716C438.04 209.561 433.844 197.205 435.078 181.389C436.065 166.809 440.754 154.699 446.184 143.826C451.613 132.953 457.782 123.562 465.433 114.665C475.304 119.114 482.954 127.269 483.941 139.378C484.929 151.24 479.253 158.653 470.862 162.607C468.394 163.843 463.705 164.832 462.965 166.809C461.978 168.786 462.718 172.245 462.965 175.458C463.212 178.67 463.705 181.142 466.42 181.142C471.355 181.142 469.875 174.716 469.628 170.763C482.461 166.314 492.085 156.924 491.345 139.872C490.605 124.55 481.227 114.171 470.122 108.982C472.836 104.78 476.291 101.074 480.24 97.861C483.695 99.3437 487.15 100.826 491.592 101.568C491.345 103.545 490.111 105.028 489.617 107.252C484.435 127.269 508.126 130.976 525.895 127.763C529.596 138.389 539.715 144.073 554.522 142.59C555.509 146.297 555.755 148.769 555.755 152.228C555.755 165.079 544.403 170.515 539.961 180.4C538.234 184.354 538.727 194.239 543.663 194.486C545.391 194.486 546.871 193.251 547.118 192.262C547.858 189.05 545.637 188.555 545.884 185.096C546.131 181.636 550.573 177.435 553.534 174.222C558.717 168.044 563.406 161.619 562.665 149.263C562.419 144.073 561.431 137.154 558.964 135.918C557.483 135.177 555.262 135.918 553.288 135.918C543.416 136.412 536.506 133.694 533.298 127.269C531.817 124.55 531.571 121.585 529.596 120.844C527.622 120.102 523.674 121.338 520.712 121.585C511.581 122.326 498.995 122.079 496.774 115.654C493.813 107.993 501.957 104.039 501.216 99.3438C500.723 96.3783 496.774 95.884 494.06 95.3898C483.201 92.9185 470.615 87.9761 469.381 75.867C468.394 65.982 473.823 53.1316 482.461 52.1431C489.617 51.4017 495.787 55.6028 500.229 58.5683C502.45 60.0511 506.892 63.7579 508.373 59.3097C508.867 57.5798 507.879 55.6028 507.879 54.1201C507.879 45.7179 515.036 38.5513 525.648 39.7869C531.817 40.5283 535.766 44.7294 539.221 48.1891C540.702 49.6719 542.676 51.896 544.403 54.1201C545.884 56.0971 547.118 59.5568 549.092 60.2982C551.313 61.2867 555.509 61.0396 557.977 61.5338C568.835 63.2637 574.511 70.9245 579.94 78.3382C584.382 84.0221 587.837 89.2117 592.773 94.1541C597.215 98.6024 602.644 103.298 607.333 108.487C611.775 113.43 615.971 119.608 616.958 127.763C618.685 145.309 608.074 157.912 599.189 167.056C589.318 176.941 578.953 183.613 567.848 193.251C565.627 190.532 550.573 188.555 550.82 194.981C551.067 200.417 560.444 196.216 563.406 198.688C565.627 200.665 565.133 205.854 563.899 208.82C561.925 213.021 555.015 218.21 547.612 216.728C544.897 216.233 540.455 214.751 538.974 213.021C538.234 212.032 537.987 209.067 535.519 208.82C533.298 208.572 531.324 210.797 529.596 212.279C524.167 215.986 517.751 219.94 512.075 222.906Z" fill="black"/>
<path fill-rule="evenodd" clip-rule="evenodd" d="M194.22 148.027C190.271 132.953 197.181 117.137 202.611 106.757C204.091 104.039 205.819 98.6024 209.274 98.6024C215.69 98.8495 210.261 106.757 208.533 109.97C204.338 117.878 199.156 129.246 199.896 140.861C200.39 147.78 202.364 152.722 209.274 153.711C205.325 138.389 211.495 121.832 217.911 111.206C219.392 108.734 221.86 103.298 224.821 103.298C225.808 103.298 228.029 104.286 228.276 105.769C228.77 108.487 226.795 109.97 225.562 111.7C219.886 120.102 211.495 135.671 215.937 151.24C217.171 154.947 218.898 158.406 223.587 155.441C221.613 139.625 228.276 126.527 234.199 115.407C235.926 112.194 237.901 107.005 241.109 107.005C242.343 107.005 244.317 108.24 244.564 109.723C244.811 111.7 243.33 113.677 242.59 114.913C240.122 119.114 237.407 124.056 235.433 128.504C232.471 134.93 229.51 142.59 230.004 150.745C230.25 153.958 231.731 158.653 236.42 157.418C239.628 156.676 240.122 150.251 241.109 147.286C242.59 143.085 244.07 140.861 246.045 137.648C247.525 125.045 257.397 119.608 268.995 115.901C272.45 114.913 277.633 113.677 276.893 119.114C276.399 121.585 273.438 121.832 270.723 122.573C264.06 124.55 255.916 128.504 253.695 134.435C253.201 135.918 252.708 138.142 253.448 140.861C261.345 138.884 267.268 132.705 277.633 132.705C286.024 132.705 293.921 136.907 302.064 136.907C310.949 136.907 318.105 132.458 323.781 128.999C326.002 127.516 330.691 126.527 330.691 130.728C330.691 134.188 324.769 136.907 321.56 138.636C317.365 140.861 312.923 142.343 308.974 143.085C297.376 145.556 289.725 140.861 280.347 139.872C273.438 139.378 268.995 141.602 264.307 143.826C259.864 146.05 254.188 150.251 248.512 146.791C246.291 150.993 246.538 156.182 243.824 160.136C240.369 164.832 231.484 165.82 226.549 161.372C223.094 163.843 215.197 164.337 212.729 160.63C206.559 161.372 203.104 158.406 199.649 157.171C195.947 155.935 193.233 155.935 190.518 154.205C176.698 146.297 176.452 122.326 183.855 107.252C191.012 92.6714 204.585 84.7634 225.068 83.7749C241.356 83.0336 256.163 85.9991 269.242 89.7059C282.075 93.4128 294.167 98.3552 306.013 102.803C326.743 110.711 348.46 118.372 369.683 126.527C373.138 127.763 377.087 128.504 377.333 131.47C377.58 138.389 366.969 132.705 362.526 131.223C333.406 120.349 307 109.97 276.893 99.5909C260.111 93.907 240.369 88.7174 219.392 91.4358C209.767 92.6714 201.624 95.6369 195.947 101.568C188.297 109.476 181.387 128.257 188.544 142.343C190.518 144.814 191.259 146.297 194.22 148.027Z" fill="black"/>
<path fill-rule="evenodd" clip-rule="evenodd" d="M507.141 139.378C507.388 139.378 509.362 139.131 510.596 139.131C522.935 139.872 530.586 145.062 534.781 154.452C536.262 157.912 540.704 169.28 534.287 169.28C530.092 169.28 530.092 162.607 528.858 159.148C527.871 156.182 526.637 153.711 524.416 151.487C520.221 147.533 515.285 146.792 509.362 145.803C506.894 145.556 505.414 145.309 504.92 143.579C504.18 142.096 504.92 140.119 507.141 139.378Z" fill="black"/>
<path fill-rule="evenodd" clip-rule="evenodd" d="M487.643 203.136C480.24 201.406 473.823 200.17 467.654 196.958C465.68 195.969 463.212 194.981 462.718 193.251C462.225 191.274 463.459 188.803 465.433 188.803C468.147 188.555 469.875 190.532 472.836 192.015C475.057 193.004 477.772 193.745 480.733 194.486C488.137 196.216 497.021 195.722 495.787 203.383C495.047 209.314 486.409 213.762 479.746 214.256C471.849 214.751 463.952 213.021 463.952 209.067C463.705 202.642 473.823 207.584 479.746 207.09C483.942 206.348 485.422 204.618 487.643 203.136Z" fill="black"/>
<path fill-rule="evenodd" clip-rule="evenodd" d="M542.429 201.9C544.65 201.406 556.002 202.394 557.236 204.619C558.716 206.843 557.236 209.808 554.521 210.302C552.547 210.549 542.429 209.314 540.948 208.325C538.48 206.348 539.961 202.394 542.429 201.9Z" fill="black"/>
<path fill-rule="evenodd" clip-rule="evenodd" d="M499.491 276.779C497.764 277.026 493.075 277.52 490.113 277.767C476.54 278.508 466.916 272.825 460.006 266.647V276.037C466.916 280.98 476.047 284.934 488.139 284.934C494.309 284.934 505.908 284.934 505.661 279.744C505.661 276.284 502.206 276.284 499.491 276.779Z" fill="black"/>
<path fill-rule="evenodd" clip-rule="evenodd" d="M502.205 366.732C526.636 365.99 544.405 372.91 559.458 382.3C561.433 383.536 564.394 385.266 563.654 388.231C563.407 389.467 562.173 390.456 560.446 390.456C558.471 390.703 557.731 389.467 556.991 388.973C541.937 379.582 524.415 372.168 499.49 374.145C496.775 379.088 495.048 384.772 492.827 390.208C538.975 392.433 569.33 409.731 583.89 443.834C585.864 440.127 587.345 436.173 589.073 432.219C586.851 423.817 584.137 416.898 579.201 410.473C577.72 408.249 572.291 402.318 578.214 401.329C582.409 400.588 585.618 407.507 587.098 409.978C589.813 414.427 591.54 417.639 592.774 421.84C598.697 408.99 603.633 395.151 609.062 380.571C610.296 377.111 612.023 368.462 615.972 368.462C622.142 368.462 616.959 379.829 616.219 382.053C603.88 415.168 590.306 450.26 574.759 479.914C565.628 497.213 554.77 512.782 537.988 522.667C522.194 531.81 496.035 534.776 471.85 536.011C406.206 539.471 345.004 530.822 283.061 527.609C270.475 526.868 257.642 526.868 244.809 526.374C225.067 525.385 206.311 525.632 192.985 518.466C188.79 516.242 184.347 513.029 181.88 509.816C181.386 509.075 181.386 507.839 180.646 506.604C179.412 504.874 176.944 503.638 175.71 501.661C171.761 494.248 175.957 487.081 183.607 486.34C192.738 485.351 202.116 487.822 211.247 488.564C241.354 491.282 265.292 484.363 285.529 474.725C278.619 463.11 260.11 464.593 252.213 453.719C249.252 449.765 247.771 442.352 252.953 439.386C259.37 435.679 272.202 439.139 279.112 440.622C295.153 444.576 307.986 451.495 319.091 460.639C320.819 462.121 323.78 465.581 325.508 466.075C327.482 466.57 331.184 465.581 334.145 465.334C377.085 462.616 419.779 458.168 458.771 452.237C465.434 437.656 471.604 423.076 478.02 407.754C479.994 402.812 482.462 397.869 483.696 392.433C486.904 387.49 489.125 380.818 491.593 374.887C497.516 360.059 503.439 344.985 509.361 329.169C510.595 325.956 511.582 320.52 514.544 320.272C521.947 319.284 516.271 330.899 515.284 333.864C510.595 344.985 505.906 356.6 502.205 366.732ZM467.408 451.001C471.11 450.012 475.799 449.765 475.552 453.966C475.552 458.415 465.434 458.662 460.745 459.403C419.779 465.087 375.358 470.771 332.418 472.995C332.171 474.231 335.379 475.96 335.132 478.679C334.885 480.162 333.652 481.644 331.677 481.644C328.963 481.644 326.248 477.196 324.274 475.219C312.181 463.11 298.361 453.966 280.346 448.777C273.19 446.8 265.046 444.576 256.408 445.811C257.395 449.765 259.616 451.989 262.825 453.719C269.981 457.92 281.58 459.65 287.75 466.075C290.464 468.794 293.179 472.748 295.153 477.196C296.387 479.914 300.583 489.799 293.919 489.552C289.971 489.305 290.464 484.116 288.984 481.15C273.93 487.328 259.37 493.753 239.874 495.977C224.82 497.707 209.273 495.73 194.959 494.248C190.764 493.753 182.373 492.518 181.386 495.483C179.659 500.426 188.543 502.897 192.491 503.638C204.337 506.357 213.961 507.345 228.028 507.839C234.198 508.087 244.069 506.604 244.069 511.546C244.069 515.747 238.393 515.006 233.704 515.006C219.637 514.759 206.064 513.029 195.206 511.546C209.026 518.96 228.275 519.207 247.524 519.207C266.526 519.207 287.009 520.937 304.778 522.173C342.536 524.644 380.047 528.104 417.558 529.833C446.925 531.316 477.28 530.081 502.945 526.127C511.582 524.644 520.22 523.408 527.377 520.443C541.69 515.006 551.068 503.885 559.212 492.023C567.602 479.914 573.772 466.57 579.942 452.484C572.538 435.432 563.407 421.099 548.106 411.955C532.806 402.812 513.557 398.611 489.866 397.375C482.462 415.168 474.812 433.208 467.408 451.001Z" fill="black"/>
<defs>
<linearGradient id="paint0_linear" x1="156.461" y1="93.8977" x2="276.452" y2="-0.803735" gradientUnits="userSpaceOnUse">
<stop stop-color="#234DAE"/>
<stop offset="1" stop-color="#347BCE"/>
</linearGradient>
<linearGradient id="paint1_linear" x1="36.5254" y1="98.0988" x2="149.073" y2="25.2547" gradientUnits="userSpaceOnUse">
<stop stop-color="#234DAE"/>
<stop offset="1" stop-color="#347BCE"/>
</linearGradient>
<linearGradient id="paint2_linear" x1="-6.4681e-06" y1="258.566" x2="142.892" y2="171.386" gradientUnits="userSpaceOnUse">
<stop stop-color="#234DAE"/>
<stop offset="1" stop-color="#347BCE"/>
</linearGradient>
<linearGradient id="paint3_linear" x1="85.9883" y1="173.621" x2="99.2453" y2="91.6267" gradientUnits="userSpaceOnUse">
<stop stop-color="#234DAE"/>
<stop offset="1" stop-color="#347BCE"/>
</linearGradient>
<linearGradient id="paint4_linear" x1="423.973" y1="196.685" x2="428.988" y2="190.302" gradientUnits="userSpaceOnUse">
<stop stop-color="#234DAE"/>
<stop offset="1" stop-color="#347BCE"/>
</linearGradient>
<linearGradient id="paint5_linear" x1="399.543" y1="216.455" x2="401.365" y2="206.464" gradientUnits="userSpaceOnUse">
<stop stop-color="#234DAE"/>
<stop offset="1" stop-color="#347BCE"/>
</linearGradient>
<linearGradient id="paint6_linear" x1="379.305" y1="238.202" x2="380.483" y2="228.015" gradientUnits="userSpaceOnUse">
<stop stop-color="#234DAE"/>
<stop offset="1" stop-color="#347BCE"/>
</linearGradient>
<linearGradient id="paint7_linear" x1="379.059" y1="257.725" x2="380.723" y2="247.677" gradientUnits="userSpaceOnUse">
<stop stop-color="#234DAE"/>
<stop offset="1" stop-color="#347BCE"/>
</linearGradient>
<linearGradient id="paint8_linear" x1="379.305" y1="277.001" x2="380.483" y2="266.813" gradientUnits="userSpaceOnUse">
<stop stop-color="#234DAE"/>
<stop offset="1" stop-color="#347BCE"/>
</linearGradient>
<linearGradient id="paint9_linear" x1="401.27" y1="296.77" x2="403.005" y2="286.747" gradientUnits="userSpaceOnUse">
<stop stop-color="#234DAE"/>
<stop offset="1" stop-color="#347BCE"/>
</linearGradient>
<linearGradient id="paint10_linear" x1="379.305" y1="318.517" x2="380.483" y2="308.33" gradientUnits="userSpaceOnUse">
<stop stop-color="#234DAE"/>
<stop offset="1" stop-color="#347BCE"/>
</linearGradient>
<linearGradient id="paint11_linear" x1="379.059" y1="338.04" x2="380.723" y2="327.992" gradientUnits="userSpaceOnUse">
<stop stop-color="#234DAE"/>
<stop offset="1" stop-color="#347BCE"/>
</linearGradient>
<linearGradient id="paint12_linear" x1="379.059" y1="196.685" x2="380.871" y2="186.69" gradientUnits="userSpaceOnUse">
<stop stop-color="#234DAE"/>
<stop offset="1" stop-color="#347BCE"/>
</linearGradient>
<linearGradient id="paint13_linear" x1="379.059" y1="216.455" x2="383.741" y2="209.121" gradientUnits="userSpaceOnUse">
<stop stop-color="#234DAE"/>
<stop offset="1" stop-color="#347BCE"/>
</linearGradient>
<linearGradient id="paint14_linear" x1="379.305" y1="238.202" x2="380.483" y2="228.015" gradientUnits="userSpaceOnUse">
<stop stop-color="#234DAE"/>
<stop offset="1" stop-color="#347BCE"/>
</linearGradient>
<linearGradient id="paint15_linear" x1="379.305" y1="277.001" x2="380.483" y2="266.813" gradientUnits="userSpaceOnUse">
<stop stop-color="#234DAE"/>
<stop offset="1" stop-color="#347BCE"/>
</linearGradient>
<linearGradient id="paint16_linear" x1="379.059" y1="296.77" x2="383.24" y2="288.582" gradientUnits="userSpaceOnUse">
<stop stop-color="#234DAE"/>
<stop offset="1" stop-color="#347BCE"/>
</linearGradient>
<linearGradient id="paint17_linear" x1="379.305" y1="318.517" x2="380.483" y2="308.33" gradientUnits="userSpaceOnUse">
<stop stop-color="#234DAE"/>
<stop offset="1" stop-color="#347BCE"/>
</linearGradient>
<linearGradient id="paint18_linear" x1="428.662" y1="338.04" x2="432.639" y2="329.588" gradientUnits="userSpaceOnUse">
<stop stop-color="#234DAE"/>
<stop offset="1" stop-color="#347BCE"/>
</linearGradient>
<linearGradient id="paint19_linear" x1="428.662" y1="257.725" x2="432.639" y2="249.272" gradientUnits="userSpaceOnUse">
<stop stop-color="#234DAE"/>
<stop offset="1" stop-color="#347BCE"/>
</linearGradient>
<linearGradient id="paint20_linear" x1="471.893" y1="165.735" x2="615.729" y2="77.679" gradientUnits="userSpaceOnUse">
<stop stop-color="#234DAE"/>
<stop offset="1" stop-color="#347BCE"/>
</linearGradient>
<linearGradient id="paint21_linear" x1="94.0234" y1="219.447" x2="121.678" y2="201.377" gradientUnits="userSpaceOnUse">
<stop stop-color="#234DAE"/>
<stop offset="1" stop-color="#347BCE"/>
</linearGradient>
<linearGradient id="paint22_linear" x1="138.199" y1="208.794" x2="138.653" y2="198.491" gradientUnits="userSpaceOnUse">
<stop stop-color="#234DAE"/>
<stop offset="1" stop-color="#347BCE"/>
</linearGradient>
<linearGradient id="paint23_linear" x1="138.199" y1="228.564" x2="138.653" y2="218.261" gradientUnits="userSpaceOnUse">
<stop stop-color="#234DAE"/>
<stop offset="1" stop-color="#347BCE"/>
</linearGradient>
<linearGradient id="paint24_linear" x1="138.199" y1="250.311" x2="138.653" y2="240.007" gradientUnits="userSpaceOnUse">
<stop stop-color="#234DAE"/>
<stop offset="1" stop-color="#347BCE"/>
</linearGradient>
<linearGradient id="paint25_linear" x1="138.199" y1="269.834" x2="138.653" y2="259.53" gradientUnits="userSpaceOnUse">
<stop stop-color="#234DAE"/>
<stop offset="1" stop-color="#347BCE"/>
</linearGradient>
<linearGradient id="paint26_linear" x1="143" y1="367.486" x2="252.654" y2="254.996" gradientUnits="userSpaceOnUse">
<stop stop-color="#234DAE"/>
<stop offset="1" stop-color="#347BCE"/>
</linearGradient>
<linearGradient id="paint27_linear" x1="140.42" y1="409.212" x2="140.873" y2="398.908" gradientUnits="userSpaceOnUse">
<stop stop-color="#234DAE"/>
<stop offset="1" stop-color="#347BCE"/>
</linearGradient>
<linearGradient id="paint28_linear" x1="140.42" y1="428.735" x2="140.873" y2="418.431" gradientUnits="userSpaceOnUse">
<stop stop-color="#234DAE"/>
<stop offset="1" stop-color="#347BCE"/>
</linearGradient>
<linearGradient id="paint29_linear" x1="96.2461" y1="428.266" x2="123.901" y2="410.197" gradientUnits="userSpaceOnUse">
<stop stop-color="#234DAE"/>
<stop offset="1" stop-color="#347BCE"/>
</linearGradient>
</defs>
</svg>
