<svg width="824" height="624" viewBox="0 0 824 624" fill="none" xmlns="http://www.w3.org/2000/svg">
<path d="M327.998 441.684C422.875 441.684 499.788 364.772 499.788 269.895C499.788 175.018 422.875 98.1055 327.998 98.1055C233.122 98.1055 156.209 175.018 156.209 269.895C156.209 364.772 233.122 441.684 327.998 441.684Z" fill="url(#paint0_linear_509_1617)"/>
<path d="M252.211 395.79C252.211 395.79 227.79 400.842 208.842 414.316C208.842 414.316 192 437.474 188.211 457.263L165.053 447.579C165.053 447.579 134.316 461.895 133.053 490.526C133.053 490.526 109.053 513.263 111.158 530.526C111.158 530.526 162.106 563.79 184 570.105L182.737 623.158H300.632C300.632 623.158 298.106 538.526 296.842 528.421C295.579 518.316 296 458.105 293.474 442.105C290.948 426.105 290.106 412.632 278.316 405.053C266.948 397.895 254.316 397.053 252.211 395.79Z" fill="url(#paint1_linear_509_1617)"/>
<path d="M557.473 387.368C557.473 387.368 595.368 388.632 615.157 374.737C634.947 360.842 634.105 346.526 634.947 330.105C635.789 313.263 627.368 287.158 627.368 287.158L634.105 281.263L642.947 287.579C642.947 287.579 656.841 283.789 666.105 278.737C675.368 273.684 675.368 273.684 675.368 273.684V268.211C675.368 268.211 678.315 267.368 679.157 269.474C679.157 269.474 687.157 296.421 689.263 319.579C691.368 342.737 694.736 376 669.473 413.474L616.42 559.158L618.947 623.158H479.157L473.684 536L479.578 405.895C479.578 405.895 485.052 396.632 505.684 390.737C505.684 390.737 514.526 389.053 519.999 389.053C525.894 389.053 533.052 386.947 533.052 386.947L555.368 398.737L556.21 387.368H557.473Z" fill="url(#paint2_linear_509_1617)"/>
<path d="M375.158 371.79C375.158 371.79 351.579 368.421 313.684 424.421C275.368 480.842 288.842 508.211 288.842 508.211C288.842 508.211 292.21 527.579 325.474 522.947C325.474 522.947 325.053 547.79 323.368 569.263C321.263 590.737 316.632 623.158 316.632 623.158H479.158L473.684 536C473.684 536 496.842 531.369 498.105 501.474C498.947 471.579 487.158 427.369 484.631 418.948C482.105 410.105 473.684 385.263 448 377.263C422.316 369.263 386.105 368.421 375.158 371.79Z" fill="#343B43"/>
<path d="M256.419 219.369C248.419 211.369 235.366 211.369 226.945 219.369L218.945 227.369C210.945 235.369 210.945 248.421 218.945 256.842L277.472 315.369C285.472 323.369 298.524 323.369 306.945 315.369L426.945 197.895C434.945 189.895 434.945 176.842 426.945 168.421L418.945 160.421C410.945 152.421 397.893 152.421 389.472 160.421L291.787 255.158L256.419 219.369Z" fill="white"/>
<path d="M189.477 327.158L194.108 352.421C194.108 352.421 186.95 357.895 186.529 359.579C186.529 361.263 194.108 366.737 194.108 366.737C194.108 366.737 197.898 387.789 219.792 380.21L222.319 388.631L237.056 382.737C237.056 382.737 233.687 368.842 236.214 357.474C236.214 357.474 242.529 352.842 240.003 344.421C237.477 335.579 225.687 338.105 223.161 342.316C221.477 342.737 197.898 337.263 189.477 327.158Z" fill="white"/>
<path d="M133.476 490.948C133.476 490.948 118.739 478.737 113.686 470.316C108.634 461.895 103.581 459.369 99.7915 462.316C96.002 465.263 98.1073 472 100.634 475.369C103.16 478.316 109.897 485.895 104.423 488C104.423 488 103.16 489.684 99.3705 485.895C95.581 482.105 80.002 466.527 80.002 466.527C80.002 466.527 77.4757 470.316 77.4757 472C77.4757 472 73.6863 473.684 74.5284 480.421C75.3705 487.158 80.002 496.842 92.2126 504.421C104.423 512 112.844 516.632 113.686 520.421C113.265 519.579 121.265 499.79 133.476 490.948Z" fill="white"/>
<path d="M418.104 361.263L415.999 336C415.999 336 426.946 339.79 430.735 329.263C434.525 318.737 424.841 314.526 419.788 314.948C414.735 315.79 412.209 319.158 412.209 319.158C412.209 319.158 402.525 308.632 398.735 294.316C398.735 294.316 386.946 309.053 370.104 303.579C370.104 303.579 369.683 328.421 369.683 334.737C369.683 341.053 367.156 355.79 382.735 357.474V362.105L391.156 391.158L418.104 361.263Z" fill="white"/>
<path d="M375.577 446.316C375.577 446.316 368.841 437.895 357.893 435.368C346.946 432.842 338.525 434.947 336.841 438.737C336.841 438.737 319.998 441.684 322.946 453.474C322.946 453.474 329.262 450.947 339.367 453.895C349.472 456.842 356.63 464 356.63 464C356.63 464 366.735 450.947 375.577 446.316Z" fill="white"/>
<path d="M405.896 461.053C405.896 461.053 409.265 452.632 421.896 456.842C421.896 456.842 432.002 453.474 439.581 458.947C439.581 458.947 443.791 456.842 450.528 459.789C456.844 462.316 460.633 473.684 462.318 478.316C463.581 482.947 460.633 490.947 452.633 487.579C451.791 487.579 450.949 493.895 444.212 493.053C437.475 492.631 434.107 485.053 434.107 485.053C434.107 485.053 432.423 491.789 426.107 490.947C420.212 490.105 418.107 485.474 418.107 483.789C418.107 482.105 418.528 475.368 417.686 473.684C416.844 472 412.212 464.421 412.212 464.421L405.896 461.053Z" fill="white"/>
<path d="M560.843 312.842L566.317 342.316C566.317 342.316 570.948 362.526 554.948 363.368L557.475 387.368L556.211 399.158L533.896 386.947C533.896 386.947 541.054 384.421 542.738 375.158C544.422 365.474 541.896 359.579 536.422 355.368C530.948 351.158 527.58 349.052 527.58 349.052C527.58 349.052 515.79 353.263 513.264 343.158C510.738 333.052 520.001 330.947 525.054 331.789C525.054 331.789 534.738 324.631 537.685 316.631C540.633 308.631 542.317 299.789 542.317 299.789C542.317 299.789 557.054 308.21 560.843 312.842Z" fill="white"/>
<path d="M642.527 287.158C642.527 287.158 631.58 279.579 626.527 276.21C621.475 272.842 618.527 267.368 619.369 261.895C620.211 256.842 630.738 241.684 633.264 240.842C635.79 240 639.58 241.684 640.001 246.737C640.843 251.789 640.001 248.842 640.001 248.842C640.001 248.842 652.632 248.421 659.79 247.158C666.527 245.895 673.685 243.368 673.685 243.368C673.685 243.368 676.211 261.895 675.369 273.263C675.369 273.263 667.79 279.579 657.264 282.526C647.159 286.316 642.527 287.158 642.527 287.158Z" fill="white"/>
<path d="M156.632 451.79L135.58 437.895L122.527 445.895L107.369 443.79L125.474 432C125.474 432 116.632 430.737 112.001 433.263C107.369 435.79 99.369 442.947 99.369 442.947C99.369 442.947 93.4743 443.79 92.6322 447.579C91.7901 451.79 96.8427 456 105.264 457.263C113.264 458.526 124.211 458.947 124.211 458.947C124.211 458.947 128.422 467.369 138.527 471.579C138.527 471.579 146.106 461.053 148.632 458.947C150.737 457.263 156.632 451.79 156.632 451.79Z" fill="white"/>
<path d="M382.736 361.684L375.157 371.789L375.999 411.789L374.736 445.053L381.473 449.263L392.421 448.842L404.21 413.474L407.578 418.947L428.631 371.368L415.578 358.316L382.736 361.684Z" fill="white"/>
<path d="M391.156 390.737L381.472 405.895L382.735 418.105L375.998 430.737L375.156 445.474L381.472 449.263L392.419 448.842L394.525 442.105V439.158L392.419 418.105L400.419 407.579L391.156 390.737Z" fill="url(#paint3_linear_509_1617)"/>
<path d="M428.63 317.474C428.63 317.474 434.946 312 433.261 300.211C431.577 288.421 429.472 281.263 406.314 283.368C406.314 283.368 397.051 272 383.156 275.789C369.261 279.579 364.63 287.579 363.367 294.316C362.103 301.474 369.682 313.263 369.682 313.263V303.158C369.682 303.158 388.209 307.79 399.156 293.895C399.156 293.895 406.314 314.105 412.63 318.737C412.209 319.158 417.261 310.737 428.63 317.474Z" fill="white"/>
<path d="M298.944 449.263C298.944 449.263 305.681 429.053 303.154 410.105C300.628 391.579 292.628 378.948 279.575 374.737C266.102 370.948 260.207 361.263 258.523 354.526C256.839 347.79 258.523 331.79 255.154 319.158C251.786 306.526 241.26 300.632 227.786 301.474C227.786 301.474 191.154 297.684 188.207 325.474C188.207 325.474 197.891 338.105 221.47 342.316C222.733 342.316 224.839 338.526 230.733 338.105C236.628 337.684 240.418 342.316 240.839 347.369C241.26 352 236.628 356.211 236.628 356.211C236.628 356.211 234.102 364.211 234.944 373.895C235.786 383.579 242.523 393.263 253.049 396.211C263.575 399.158 280.839 401.263 286.312 414.316C291.786 427.369 294.312 441.263 294.312 447.579C294.312 454.316 294.733 458.526 294.733 458.526L298.944 449.263Z" fill="#343B43"/>
<path d="M93.4707 453.474L98.1023 461.895L104.418 457.684C104.418 457.684 95.1549 453.474 94.3128 452.632C93.8918 451.789 93.4707 453.474 93.4707 453.474Z" fill="#343B43"/>
<path d="M122.106 446.737L144.001 433.263L138.528 424.842L107.791 445.053C107.37 444.632 118.738 447.158 122.106 446.737Z" fill="#343B43"/>
<path d="M208.844 576.842C208.844 576.842 207.581 553.684 230.739 546.948C253.897 540.211 263.581 555.369 263.581 555.369C263.581 555.369 250.95 571.369 236.213 574.316C221.476 577.263 208.844 576.842 208.844 576.842Z" fill="#343B43"/>
<path d="M99.3655 473.684L46.3128 420.21C46.3128 420.21 42.5234 417.684 40.4181 420.21C38.3128 422.737 40.4181 426.105 40.4181 426.105L101.471 487.579C101.471 487.579 103.997 487.579 105.681 485.895C107.365 484.632 105.681 481.263 105.26 480.421C104.839 480 99.3655 473.684 99.3655 473.684Z" fill="#343B43"/>
<path d="M236.632 382.737C236.632 382.737 218.948 388.632 215.58 393.684C212.211 398.737 208.422 414.737 208.422 414.737C208.422 414.737 232.422 398.316 251.79 396.21C252.211 395.789 240.843 393.263 236.632 382.737Z" fill="white"/>
<path d="M220.213 379.368L224.423 377.263L221.897 385.263L220.213 379.368Z" fill="#B5B5B5"/>
<path d="M492.634 396.211C492.634 396.211 482.108 389.895 485.897 374.737C490.108 359.579 506.108 361.263 506.108 361.263L491.792 320.421C491.792 320.421 491.792 293.053 522.529 291.368C522.529 291.368 533.476 286.316 543.16 288C552.845 289.263 559.581 298.105 561.687 309.474C561.687 310.737 527.16 318.737 527.16 318.737C527.16 318.737 523.792 311.158 519.16 309.474C519.16 309.474 525.055 322.947 525.055 331.789C525.055 331.789 513.687 329.263 513.266 339.789C512.845 350.316 522.529 351.158 527.16 348.632C527.16 348.632 542.318 354.947 543.16 369.684C544.002 384 530.529 387.789 530.529 387.789C530.529 387.789 515.792 387.368 506.95 390.316C498.108 393.263 492.634 396.211 492.634 396.211Z" fill="#343B43"/>
<path d="M554.949 363.368L558.318 387.368L571.791 386.947C571.791 386.947 575.16 378.105 573.054 371.368C570.949 365.052 562.949 360.421 562.949 360.421C562.949 360.421 558.318 363.789 554.949 363.368Z" fill="url(#paint4_linear_509_1617)"/>
<path d="M767.498 120.421C767.498 186.652 713.808 240.342 647.577 240.342C581.347 240.342 527.656 186.652 527.656 120.421C527.656 54.1905 581.347 0.5 647.577 0.5C713.808 0.5 767.498 54.1905 767.498 120.421Z" stroke="#343B43"/>
<path d="M710.317 158.316C707.369 178.105 691.79 192.842 668.211 197.053C665.685 197.474 663.159 198.316 660.211 198.737C660.211 205.895 660.211 213.053 660.211 220.632C653.475 220.632 647.159 220.632 640.422 220.632C640.422 213.895 640.422 206.737 640.422 198.737C611.79 195.368 595.369 180.632 589.475 154.947C600.001 152.421 610.106 149.895 620.632 147.368C621.475 149.474 622.317 151.579 622.738 153.263C628.211 168.842 645.475 176.421 661.896 170.105C669.475 167.158 672.843 161.684 673.685 154.526C674.106 148.211 671.159 142.737 664.422 139.79C656.001 136.421 647.159 133.053 638.317 130.105C633.685 128.421 629.054 126.737 624.422 125.053C602.106 115.368 592.001 99.3685 594.948 77.0527C597.896 55.579 611.369 42.1053 635.369 37.4738C636.211 37.4738 637.475 37.0527 638.738 36.6317C638.738 31.158 638.738 25.6843 638.738 19.7896C645.896 19.7896 658.527 19.7896 658.527 19.7896L658.948 36.2106C658.948 36.2106 663.159 36.6317 674.527 40.8422C690.527 46.3159 699.79 57.6843 704.843 73.2632C695.58 76.6316 686.317 80.4211 677.054 83.7895C673.685 78.7369 670.738 73.6843 666.948 69.0527C661.054 62.3159 652.632 60.6317 643.79 62.7369C636.632 64.4211 632.422 69.0527 631.159 75.7895C629.896 82.9474 632.422 88.8422 639.58 91.7895C646.738 95.158 654.317 97.6843 661.896 100.632C668.211 103.158 674.527 105.263 680.422 107.79C704.422 118.316 713.685 134.316 710.317 158.316Z" fill="url(#paint5_linear_509_1617)"/>
<path d="M630.737 560.421C673.525 560.421 708.211 525.735 708.211 482.948C708.211 440.16 673.525 405.474 630.737 405.474C587.95 405.474 553.264 440.16 553.264 482.948C553.264 525.735 587.95 560.421 630.737 560.421Z" fill="white"/>
<path d="M543.16 476.632H620.634L621.055 399.158C621.055 399.158 590.739 397.053 566.318 421.474C542.318 446.316 543.16 476.632 543.16 476.632Z" fill="#343B43"/>
<path d="M538.95 495.158C538.95 495.158 542.739 488 544.844 481.684C547.371 475.368 548.213 468.632 554.528 468.21C554.528 468.21 553.686 481.684 553.686 485.053C553.686 488.421 552.844 493.053 557.476 492.21C561.686 491.368 567.581 489.684 573.897 483.368C580.213 477.053 585.265 469.474 590.739 472C596.213 474.526 593.265 479.158 593.265 479.158C593.265 479.158 596.634 479.579 598.739 482.526C601.265 485.474 597.897 488.421 597.897 488.421C597.897 488.421 601.686 489.684 601.686 493.474C601.686 496.842 598.318 501.895 590.318 509.053C582.739 516.21 570.107 527.158 561.686 528.842C561.686 528.842 555.792 517.895 550.318 510.316C545.265 502.737 538.107 495.579 538.107 495.579H538.95V495.158Z" fill="white"/>
<path d="M563.792 535.158C563.792 535.158 542.318 582.316 478.318 602.105L477.055 590.316C477.476 590.737 518.739 584.421 563.792 535.158Z" fill="#343B43"/>
<path d="M264 555.369C264 555.369 246.737 595.369 183.158 589.474L184 571.369C184 571.369 205.474 578.948 223.579 576.842C241.685 574.737 259.369 564.211 264 555.369Z" fill="#343B43"/>
<path d="M642.529 287.579L634.108 281.263C634.108 281.263 626.108 285.053 627.372 288C628.635 290.947 642.529 287.579 642.529 287.579Z" fill="#343B43"/>
<path d="M675.369 268.632V274.526C675.369 274.526 678.317 272 678.317 269.895C678.317 267.79 675.369 268.632 675.369 268.632Z" fill="#343B43"/>
<path d="M221.894 301.474C211.368 301.895 190.315 304.842 187.789 325.474C187.789 325.474 191.579 330.105 200 335.158C200.421 335.158 189.894 308.21 221.894 301.474Z" fill="white"/>
<path d="M263.16 398.737C230.318 391.158 238.739 354.105 238.739 354.105C237.476 355.789 236.633 356.21 236.633 356.21C236.633 356.21 234.107 364.211 234.949 373.895C235.791 383.579 242.528 392.842 253.054 396.21C257.686 397.474 263.16 398.737 268.633 400.421C266.949 399.579 265.265 399.158 263.16 398.737Z" fill="white"/>
<path d="M543.577 288C533.893 286.737 522.945 291.368 522.945 291.368C551.998 289.263 552.419 312.842 552.419 312.842L562.103 310.737C559.998 298.105 552.84 289.263 543.577 288Z" fill="white"/>
<path d="M543.578 370.105C542.736 355.79 527.578 349.053 527.578 349.053C527.578 349.053 538.525 355.369 536.42 371.369C534.736 383.158 525.051 387.369 520.42 388.632C526.315 388.211 531.367 388.211 531.367 388.211C531.367 388.211 543.999 384.421 543.578 370.105Z" fill="white"/>
<path d="M563.789 386.947C563.789 387.368 570.947 386.947 570.947 386.947C570.947 386.947 574.316 378.105 572.21 371.368C570.105 365.052 562.105 360.421 562.105 360.421C562.105 360.421 561.263 361.263 560 361.684C562.947 364.21 570.947 371.368 563.789 386.947Z" fill="white"/>
<path d="M392.419 394.948L386.104 406.316L387.788 418.526L375.998 447.158L375.156 431.158L382.314 417.684L381.051 405.053L391.156 391.579L392.419 394.948Z" fill="white"/>
<path d="M506.104 362.526C497.262 335.579 490.946 321.684 490.946 321.684C490.525 317.053 492.63 307.368 499.367 299.79C505.262 293.474 513.262 290.105 522.525 290.947C513.683 292.211 506.104 295.158 500.63 301.053C494.314 307.79 492.209 316.632 492.209 320.842C493.051 322.526 498.525 336 506.525 361.263C506.525 362.526 506.104 362.526 506.104 362.526Z" fill="#343B43"/>
<path d="M543.996 364.632C543.154 364.632 542.733 364.632 541.891 364.632C544.838 362.947 549.47 362.947 552.417 362.526C555.364 362.105 557.47 361.684 559.575 360.842C562.522 359.158 564.206 356.632 565.049 352.421C565.891 345.684 564.627 338.526 563.364 331.789C562.101 325.895 559.154 311.579 559.154 311.579C560.838 311.158 564.206 325.474 565.049 330.526C566.312 338.526 567.996 345.684 566.733 352.842C565.891 357.474 563.785 360.842 560.417 362.526C557.891 363.789 554.522 364.21 552.838 364.632C550.312 364.632 546.943 364.632 543.996 364.632Z" fill="#343B43"/>
<path d="M539.366 326.737C540.208 326.316 540.629 326.737 541.05 329.263C541.892 332.21 541.05 332.631 540.629 332.631C539.787 332.631 539.366 331.789 538.945 330.105C538.523 328 538.523 327.158 539.366 326.737Z" fill="#343B43"/>
<path d="M559.998 322.526C560.841 322.105 561.262 322.526 562.104 325.052C562.946 328 562.104 328.421 561.683 328.421C560.84 328.421 560.419 327.579 559.998 325.894C559.156 324.21 558.735 322.947 559.998 322.526Z" fill="#343B43"/>
<path d="M555.363 317.052C558.732 313.684 560.837 314.526 562.1 315.368C559.995 316.21 558.311 315.789 555.363 317.052Z" fill="#343B43"/>
<path d="M535.576 322.105C538.102 317.053 543.155 317.474 543.155 317.474C542.734 319.158 538.524 318.737 535.997 321.684C535.997 322.105 535.576 322.105 535.576 322.105Z" fill="#343B43"/>
<path d="M522.522 351.158C517.469 351.158 512.838 347.368 512.417 341.895C511.996 336.421 515.785 331.368 521.68 330.526C523.785 330.526 525.89 330.526 527.575 331.79C525.048 332.632 523.364 332.211 521.68 332.211C517.048 332.632 513.68 336.842 514.101 341.474C514.522 346.105 518.732 349.474 523.364 349.053C525.048 349.053 526.311 348.211 527.575 347.369C527.153 349.895 525.469 350.737 523.364 350.737C522.943 351.158 522.943 351.158 522.522 351.158Z" fill="#343B43"/>
<path d="M521.262 346.526C520.42 344.842 525.051 340.21 525.051 340.21L518.314 336.842C519.157 335.158 526.735 339.368 526.735 339.368C527.156 340.631 521.683 346.526 521.683 346.526H521.262Z" fill="#343B43"/>
<path d="M556.208 400C555.787 400 533.471 387.79 533.471 387.79C534.313 386.105 555.365 397.474 555.365 397.474L557.05 387.368L553.681 363.369C555.365 362.947 558.734 386.947 558.734 386.947C558.734 387.368 557.05 398.737 557.05 398.737C556.629 400 556.208 400 556.208 400Z" fill="#343B43"/>
<path d="M492.628 397.053C482.102 389.053 482.523 378.947 486.312 371.789C490.523 364.211 499.786 358.737 508.207 361.684C500.207 360.421 491.365 365.895 487.576 372.632C482.944 380.632 485.049 389.053 492.628 395.368C493.049 397.053 493.049 397.053 492.628 397.053Z" fill="#343B43"/>
<path d="M571.362 387.789C573.046 380.211 573.046 374.737 570.941 370.105C567.994 363.789 561.678 361.263 561.678 361.263C562.52 359.579 569.257 362.105 572.625 369.263C574.73 374.316 574.73 380.211 572.204 386.947C571.783 387.368 571.783 387.789 571.362 387.789Z" fill="#343B43"/>
<path d="M527.994 389.474C528.415 387.789 541.468 386.947 542.31 371.368C543.152 355.789 526.31 349.895 525.889 349.895C526.731 348.21 544.836 354.526 543.994 371.789C543.152 389.053 528.415 389.474 527.994 389.474Z" fill="#343B43"/>
<path d="M558.731 341.895C559.152 339.368 560.837 336.421 560.837 334.737C559.995 333.474 558.31 334.737 557.468 335.158C556.626 335.579 555.784 336 555.363 336C554.521 334.737 551.994 326.316 551.152 324.632C553.679 327.158 555.363 332.211 555.784 333.895C557.889 332.632 559.995 331.368 561.258 332.632C561.679 333.053 562.1 333.474 562.1 334.737C562.1 337.263 559.995 340.632 558.731 341.895C559.152 341.895 559.152 341.895 558.731 341.895Z" fill="#343B43"/>
<path d="M551.153 349.895C550.311 349.895 549.469 349.895 548.627 349.474C545.679 348.21 544.837 344.421 544.416 344.421C546.1 344 546.942 346.947 549.048 347.789C550.311 348.632 551.995 348.21 554.1 347.368C553.679 349.474 552.416 349.895 551.153 349.895Z" fill="#343B43"/>
<path d="M122.524 447.158C122.103 445.474 142.314 432.421 142.314 432.421L138.103 425.684L108.208 444.631C107.366 442.947 138.103 423.579 138.103 423.579C139.366 424 144.84 432.421 144.84 432.421C144.419 433.684 123.366 447.158 123.366 447.158C122.945 447.158 122.945 447.158 122.524 447.158Z" fill="#343B43"/>
<path d="M143.578 434.105C143.157 432.421 146.525 430.316 146.525 430.316L142.315 423.579L138.946 425.263C138.104 423.579 141.894 421.053 141.894 421.053C143.157 421.474 148.631 429.895 148.631 429.895C148.209 431.158 144.42 433.684 144.42 433.684C143.999 433.684 143.999 434.105 143.578 434.105Z" fill="#343B43"/>
<path d="M89.6875 464C89.6875 462.316 97.6875 461.053 97.6875 461.053L104.424 456.842C105.266 458.526 98.5296 462.737 98.5296 462.737C98.1086 463.158 89.6875 464 89.6875 464Z" fill="#343B43"/>
<path d="M87.5803 461.895C86.7382 460.632 92.2118 452.211 92.2118 452.211C93.8961 453.053 88.0013 461.474 88.0013 461.474C88.0013 461.895 88.0013 461.895 87.5803 461.895Z" fill="#343B43"/>
<path d="M120.002 460.21C103.581 460.21 96.8443 456 94.318 453.474C92.6338 451.789 91.7917 450.105 92.2128 448.421C92.6338 442.526 101.055 442.105 101.476 442.105C101.897 442.105 122.529 447.579 130.529 445.053C122.95 449.263 103.16 444.632 101.476 443.789C100.634 443.789 94.318 444.21 94.318 448C94.318 449.263 94.7391 450.526 96.0022 451.789C98.1075 453.895 104.844 458.526 125.055 457.684C122.95 460.21 121.265 460.21 120.002 460.21Z" fill="#343B43"/>
<path d="M99.3674 444.21C98.9463 442.526 106.104 434.947 111.578 432.842C117.052 430.316 124.631 432 125.052 432C124.631 433.684 117.052 432.421 112.42 434.526C107.367 436.631 100.209 443.789 100.209 444.21C99.7884 444.21 99.7884 444.21 99.3674 444.21Z" fill="#343B43"/>
<path d="M156.629 452.211C156.208 452.211 135.576 438.737 135.576 438.737C136.418 437.053 157.05 450.527 157.05 450.527C157.05 452.211 156.629 452.211 156.629 452.211Z" fill="#343B43"/>
<path d="M138.945 473.263C129.682 469.052 124.63 464.842 122.945 459.789C126.314 463.579 130.945 467.789 139.366 471.579C139.787 472.842 139.366 473.263 138.945 473.263Z" fill="#343B43"/>
<path d="M198.315 359.158C197.051 359.158 195.788 358.316 195.367 357.053L192.42 344.421C191.999 342.737 192.841 341.053 194.525 340.632C195.367 340.632 196.209 340.632 196.63 341.053C197.472 341.474 197.893 342.316 197.893 342.737L200.841 355.368C201.262 357.053 200.42 358.737 198.736 359.158C198.736 358.737 198.315 359.158 198.315 359.158ZM195.367 342.316C194.525 342.316 194.104 343.158 194.104 344L197.051 356.632C197.051 357.474 197.893 357.895 198.315 357.474C199.157 357.474 199.157 356.632 199.157 356.211L196.209 343.579C195.788 342.316 195.367 342.316 195.367 342.316Z" fill="#343B43"/>
<path d="M198.738 349.895C198.317 348.21 222.317 341.895 222.317 341.895C222.738 344 199.159 349.895 198.738 349.895Z" fill="#343B43"/>
<path d="M182.739 622.737C181.475 607.158 181.897 586.105 182.739 571.368C183.581 586.105 183.581 606.737 183.581 621.894C182.739 622.737 182.739 622.737 182.739 622.737Z" fill="#343B43"/>
<path d="M183.997 504.842C183.155 500.632 183.576 498.105 183.576 495.158C185.681 460.632 186.523 445.053 207.997 414.316C209.26 413.474 233.681 397.053 252.208 395.368C234.944 398.737 211.365 414.316 209.26 415.579C188.208 445.895 187.365 461.474 185.26 495.579C185.26 498.526 184.839 501.474 184.839 504.421C184.839 504.421 184.418 504.842 183.997 504.842Z" fill="#343B43"/>
<path d="M300.629 622.737C299.787 621.053 297.26 560.842 295.576 519.158C299.366 560.842 301.471 621.474 301.471 621.895C300.629 622.737 300.629 622.737 300.629 622.737Z" fill="#343B43"/>
<path d="M217.682 578.105C198.314 578.105 179.787 570.105 163.787 562.526C145.682 553.684 128.419 542.737 111.577 531.79C110.735 530.526 109.051 519.579 122.103 501.474C134.314 485.474 143.998 485.474 144.84 485.474C145.261 485.474 147.366 486.316 147.366 486.316C166.314 494.737 185.261 503.158 204.209 511.579C211.787 514.948 216.84 514.105 219.787 509.053C221.893 505.684 222.735 501.053 223.156 497.263L223.998 489.684C225.682 475.79 227.787 461.474 229.893 447.579C229.472 461.895 227.787 476.211 226.103 489.684L225.261 497.263C224.84 501.474 223.998 506.105 221.472 509.895C217.682 515.369 211.787 516.632 203.366 512.842C184.419 504.421 165.472 496 146.524 487.579L144.84 486.737C143.577 486.737 134.735 488 123.787 501.895C112.419 517.053 112.419 527.158 112.419 529.263C129.261 539.79 146.524 550.737 164.63 560C181.051 568 200.84 576.421 220.63 575.579C251.787 574.316 272.84 547.79 279.577 522.105C282.524 510.737 285.472 497.684 285.472 497.684C287.156 498.105 284.209 511.158 281.261 522.526C274.103 548.632 252.63 575.579 220.63 577.263C219.787 578.105 218.524 578.105 217.682 578.105Z" fill="#343B43"/>
<path d="M133.475 491.789C132.633 490.526 130.949 480.842 144.002 463.158C156.212 447.158 165.896 447.158 166.739 447.158C167.16 447.158 188.633 456.842 188.633 456.842C187.791 458.526 166.317 448.842 166.317 448.842C165.054 448.842 156.212 450.105 145.265 464C132.633 480.842 133.896 490.526 133.896 490.526C133.475 491.789 133.475 491.789 133.475 491.789Z" fill="#343B43"/>
<path d="M196.629 339.368C197.471 336.421 200.839 334.316 205.05 336.421C199.997 335.579 197.05 338.947 197.05 338.947C197.05 339.368 197.05 339.368 196.629 339.368Z" fill="#343B43"/>
<path d="M298.528 452.211C309.054 415.579 301.475 385.264 279.581 376C257.686 366.737 257.265 357.474 256.844 342.737C256.844 337.685 256.423 331.79 255.16 324.632C250.949 298.948 228.633 302.316 227.791 302.316C224.844 301.895 222.318 302.316 218.528 302.737C199.16 305.264 189.897 312 189.054 324.632C188.212 311.158 197.897 303.579 218.107 301.053C221.475 300.632 224.423 300.211 227.37 300.632C228.212 300.632 234.107 299.79 240.423 301.895C246.739 304 254.739 309.895 256.844 324.211C258.107 331.369 258.107 337.264 258.528 342.316C258.949 357.053 259.37 365.053 280.423 373.895C303.16 383.579 311.16 414.737 299.37 451.369C299.37 451.79 298.949 452.211 298.528 452.211Z" fill="#343B43"/>
<path d="M210.105 382.316C207.578 382.316 205.052 381.895 202.947 380.631C195.789 376.842 193.684 368.421 193.684 366.316C191.157 364.631 185.684 361.263 185.684 359.158C185.684 357.052 190.315 353.263 193.263 351.579L189.052 327.579C190.736 327.158 194.947 352 194.947 352C190.736 355.368 187.368 358.316 187.368 359.158C187.368 360 190.736 362.526 194.947 365.052C195.368 365.895 197.052 375.158 203.789 378.947C208.842 381.473 215.157 380.631 223.157 376.421C218.947 381.052 214.315 382.316 210.105 382.316Z" fill="#343B43"/>
<path d="M202.105 344.842C201.263 344.842 200.842 345.263 201.684 347.79C202.526 350.737 203.368 350.737 203.789 350.737C204.21 350.316 204.631 349.474 204.21 347.369C203.368 345.684 202.947 344.842 202.105 344.842Z" fill="#343B43"/>
<path d="M197.475 372.631C198.317 370.947 200.001 370.526 200.843 369.684C202.527 368 202.527 365.052 202.527 365.052C204.211 365.052 204.633 368.842 202.106 370.947C200.843 372.21 199.159 372.631 197.475 372.631Z" fill="#343B43"/>
<path d="M230.739 358.737C229.476 358.737 228.633 358.737 227.37 358.316C229.476 357.053 231.581 357.053 233.265 356.631C235.37 355.789 237.476 354.526 238.318 352.421C239.581 350.316 239.581 347.789 238.739 345.684C237.897 343.579 236.633 341.474 234.528 340.632C232.423 339.368 229.897 339.368 227.791 340.21C224.844 341.053 222.739 343.579 221.897 346.526C221.055 342.316 223.581 339.789 227.37 338.526C229.897 337.684 232.844 338.105 235.37 339.368C237.897 340.631 239.581 342.737 240.423 345.684C241.265 348.21 240.844 351.158 239.581 353.684C238.318 356.21 236.212 357.895 233.265 358.737C233.265 358.737 232.002 358.737 230.739 358.737Z" fill="#343B43"/>
<path d="M234.529 352.421C234.108 352.421 226.529 350.316 226.529 350.316C226.108 349.052 231.16 341.895 231.16 341.895C232.424 343.158 228.213 348.631 228.213 348.631L234.95 350.316C235.371 352.421 234.95 352.421 234.529 352.421Z" fill="#343B43"/>
<path d="M208.841 415.579C207.999 414.316 208.841 402.526 214.315 394.526C218.104 388.631 231.157 383.579 236.209 381.895C226.104 387.368 218.104 392 215.578 395.789C210.525 403.368 209.683 414.737 209.683 415.158C209.683 415.158 209.262 415.579 208.841 415.579Z" fill="#343B43"/>
<path d="M294.737 460.631C293.895 441.684 290.947 425.684 288.421 419.368C286.316 415.158 284.211 411.368 281.263 408.421C276.211 403.368 269.053 401.684 261.895 399.579C256.842 398.316 251.368 397.052 247.158 394.105C234.526 386.947 232.421 370.105 235.79 356.631C234.105 370.105 236.211 386.105 248 392.842C252.211 395.368 257.684 396.631 262.316 397.895C269.474 399.579 277.053 401.684 282.526 407.158C285.474 410.105 288.421 413.895 290.105 418.526C293.053 424.842 296 441.263 296 459.789C295.579 460.21 295.158 460.631 294.737 460.631Z" fill="#343B43"/>
<path d="M222.738 343.158C196.632 338.947 187.369 326.316 187.369 325.895C189.053 325.053 197.895 337.263 223.159 341.474C223.58 343.158 223.58 343.158 222.738 343.158Z" fill="#343B43"/>
<path d="M221.896 389.895C221.054 389.052 218.527 379.789 218.527 379.789C220.212 379.368 222.738 388.631 222.738 388.631C222.317 389.895 222.317 389.895 221.896 389.895Z" fill="#343B43"/>
<path d="M133.476 491.789C133.055 491.368 131.37 490.526 123.791 483.368C120.844 480.421 118.318 477.895 115.791 474.947C114.949 473.684 113.686 472.421 112.844 470.737C111.581 468.632 109.897 466.947 108.634 464.842C108.212 464.421 107.791 463.579 106.949 463.158C106.107 462.316 105.265 461.474 104.002 461.053C102.739 460.632 101.476 461.053 100.212 461.474C98.9493 462.316 98.1072 463.579 98.1072 465.263C98.1072 467.368 99.3704 469.895 100.634 472C101.476 473.263 101.897 474.105 102.739 475.368C103.581 476.632 104.423 477.895 105.265 479.158C106.528 480.842 108.634 484.211 104.423 487.579C103.581 488.421 101.897 488.842 100.212 487.579C102.318 486.737 103.16 486.316 103.581 486.316C106.528 484.21 105.265 482.105 104.002 480.842C102.739 479.158 101.897 477.895 101.055 476.632C100.212 475.368 99.3704 474.526 98.9493 473.263C97.6862 471.158 96.002 468.21 96.002 465.684C96.002 463.579 97.2651 461.895 98.9493 460.632C100.634 459.368 102.739 459.368 104.423 459.789C106.107 460.21 106.949 461.474 107.791 461.895C108.212 462.316 109.055 463.158 109.476 463.579C111.16 465.263 112.423 467.368 114.107 469.474C114.949 470.737 115.791 472 117.055 473.263C119.16 475.789 121.686 478.737 124.634 481.263C132.212 488 133.476 489.263 133.476 489.263C133.897 491.789 133.897 491.789 133.476 491.789Z" fill="#343B43"/>
<path d="M91.7903 493.895C74.9482 480.842 74.1061 473.684 78.3166 466.526C77.0535 472.842 75.7903 479.158 92.6324 492.632C92.2114 493.474 92.2114 493.895 91.7903 493.895Z" fill="#343B43"/>
<path d="M113.263 520.842C110.736 516.632 107.789 514.948 102.736 512C100.631 510.737 98.5258 509.895 96.4205 508.211C86.7363 501.895 78.7363 493.474 75.3679 485.895C70.7363 474.527 77.4731 469.053 77.4731 468.632C78.3152 470.316 72.8416 474.948 77.0521 485.053C79.9995 492.211 87.9995 500.632 97.2626 506.527C99.7889 508.211 101.894 509.053 103.578 510.316C108.631 513.263 111.999 514.948 114.105 519.579C113.263 520.421 113.263 520.842 113.263 520.842Z" fill="#343B43"/>
<path d="M209.266 577.263C206.739 563.369 216.423 550.316 231.16 546.105C243.792 542.316 257.266 545.684 264.423 554.948C256.423 547.79 243.371 544.421 231.581 548.211C217.687 552.421 208.423 564.632 210.108 576.842C209.266 577.263 209.266 577.263 209.266 577.263Z" fill="#343B43"/>
<path d="M631.16 483.79H599.16C599.16 482.105 630.318 482.105 630.318 482.105V405.474C632.002 405.474 632.002 482.947 632.002 482.947C632.002 483.369 631.581 483.79 631.16 483.79Z" fill="#343B43"/>
<path d="M573.894 483.789H553.684C553.684 482.105 573.894 482.105 573.894 482.105C574.736 483.368 574.315 483.789 573.894 483.789Z" fill="#343B43"/>
<path d="M683.373 541.053C698.531 525.053 707.794 504.421 707.794 482.947C707.794 440.842 673.267 406.316 631.162 406.316C594.952 406.316 563.373 432 556.215 467.368C561.689 430.737 594.11 404.21 631.162 404.21C674.531 404.21 709.478 439.158 709.478 482.526C709.478 504.421 700.215 525.474 683.794 540.211C683.794 540.632 683.373 541.053 683.373 541.053Z" fill="#343B43"/>
<path d="M554.107 491.368C553.265 490.526 552.844 485.895 552.844 482.947C552.844 477.474 553.265 472.421 554.528 467.368C555.37 472.842 554.949 477.895 554.949 482.947C554.949 485.895 555.37 490.526 555.37 490.526C554.107 491.368 554.107 491.368 554.107 491.368Z" fill="#343B43"/>
<path d="M631.161 561.263C604.635 561.263 581.477 549.053 566.74 527.579C582.319 547.369 605.477 559.579 631.161 559.579C635.793 559.579 640.003 559.158 644.214 558.316C640.425 560.842 635.793 561.263 631.161 561.263Z" fill="#343B43"/>
<path d="M648.421 229.474H628.631C627.789 228.632 627.789 207.579 627.789 207.579C599.579 204.211 583.158 189.474 576.842 162.947C577.684 161.684 608.842 154.526 608.842 154.526C609.684 154.947 610.526 157.053 610.526 157.053C610.947 158.316 611.789 160 612.21 161.263C614.737 168.421 619.789 173.895 626.526 177.263C634.105 180.632 642.526 181.053 650.526 178.105C657.263 175.579 661.052 170.526 661.473 163.368C661.894 157.053 658.947 152 653.052 149.474C647.158 146.947 640.842 144.421 634.526 142.316C632 141.474 629.473 140.632 626.947 139.368C625.263 138.947 623.579 138.105 622.316 137.684C619.368 136.421 616.421 135.579 613.473 134.316C590.737 124.632 580.631 108.211 583.579 85.4737C586.526 63.5789 600.421 50.1053 624.842 45.0526C625.263 45.0526 626.105 44.6316 626.947 44.6316C627.789 44.2105 627.789 28.2105 627.789 28.2105C628.631 27.3684 648.421 27.3684 648.421 27.3684C649.263 28.2105 649.684 44.2105 649.684 44.2105C651.368 44.6316 656 45.4737 664.842 48.421C680 53.8947 690.105 64.421 695.579 81.2631C695.158 82.5263 667.368 93.0526 667.368 93.0526C665.263 90.9474 664 89.6842 663.158 88C661.052 84.6316 658.947 81.2631 656.421 78.3158C650.947 72 642.947 69.8947 634.105 72C627.368 73.6842 623.158 77.8947 621.894 84.6316C620.631 91.7895 623.158 96.8421 629.894 99.7895C634.947 101.895 640.421 104 645.894 106.105C648 106.947 650.105 107.789 652.21 108.632C654.315 109.474 656.421 110.316 658.526 111.158C662.737 112.842 666.947 114.105 670.737 116.211C694.316 126.737 703.579 142.737 700.21 167.158C697.263 187.368 680.842 202.526 657.263 206.737C655.579 207.158 653.894 207.579 651.789 208L649.684 208.421V229.474C649.263 229.053 648.842 229.474 648.421 229.474ZM629.473 227.789H647.579V206.737C648.421 205.895 650.947 205.053 650.947 205.053C653.052 204.632 654.737 204.211 656.421 203.789C679.579 199.579 695.158 185.263 697.684 165.474C701.052 141.895 691.789 126.316 669.052 116.211C665.263 114.526 661.052 112.842 656.842 111.579C654.737 110.737 652.631 109.895 650.526 109.053C648.421 108.211 646.315 107.368 644.21 106.526C638.737 104.421 633.684 102.316 628.21 100.211C621.052 97.2631 618.105 90.9474 619.368 82.9474C620.631 75.7895 625.263 70.7368 632.842 69.0526C642.526 66.5263 651.368 69.0526 656.842 75.7895C659.368 78.7368 661.473 82.1053 664 85.8947C664.842 87.1579 665.684 88.8421 666.526 90.1053L692.631 80C687.158 64 677.894 54.3158 663.158 49.2631C652.21 45.4737 647.579 45.0526 647.579 45.0526C646.737 44.2105 646.315 28.6316 646.315 28.6316H628.21V44.6316C625.263 46.3158 624.842 46.3158 624 46.3158C600.421 50.9474 586.947 64 584 85.0526C581.052 106.947 591.158 122.526 613.052 131.789C616 133.053 618.947 134.316 621.894 135.158C623.579 135.579 625.263 136.421 626.526 136.842C629.052 137.684 631.579 138.526 634.105 139.789C640.421 141.895 646.737 144.421 652.631 146.947C659.368 149.895 662.737 155.368 662.316 162.526C661.894 170.526 657.684 176 650.105 178.947C641.684 182.316 632.421 181.895 624.842 178.105C617.684 174.737 612.21 168.842 609.684 161.263C609.263 160 608.842 158.737 608 157.053C607.579 155.789 578.105 162.947 578.105 162.947C584.421 188.211 600.842 202.105 628.21 205.474C629.473 206.737 629.473 227.789 629.473 227.789Z" fill="#343B43"/>
<path d="M498.527 501.053C504.422 474.105 505.264 448.421 505.264 448C506.948 448.421 506.527 474.526 499.369 500.211C498.948 501.053 498.948 501.053 498.527 501.053Z" fill="#343B43"/>
<path d="M618.946 622.737C618.104 621.474 618.104 593.684 615.156 559.579C619.367 593.684 619.788 621.474 619.788 621.895C618.946 622.737 618.946 622.737 618.946 622.737Z" fill="#343B43"/>
<path d="M477.895 591.158C507.368 585.263 541.052 558.316 563.368 534.316C562.526 531.789 557.473 520.421 550.316 510.737C542.737 501.052 536.842 494.737 535.158 493.052C531.368 495.579 510.737 509.052 492.631 523.368C511.158 506.105 534.316 491.368 534.737 491.368C536 491.368 542.737 498.105 551.579 509.894C560 521.263 565.052 534.316 565.052 534.316C542.737 559.579 508.21 586.947 477.895 591.158Z" fill="#343B43"/>
<path d="M480 406.737C482.105 401.684 484.632 400 488.842 397.053C498.526 391.158 508.632 387.368 528 387.368C509.053 389.053 499.368 392.842 489.684 398.316C485.474 400.842 483.368 402.947 480.421 405.895C480.421 406.737 480 406.737 480 406.737Z" fill="#343B43"/>
<path d="M558.314 388.211C586.525 386.526 619.788 379.368 628.63 359.158C631.999 352 633.683 343.579 634.104 333.474C634.525 319.158 631.999 303.158 626.946 288.421C634.104 302.737 636.63 318.737 635.788 333.474C635.367 344 633.683 352.421 630.314 360C622.314 377.684 595.367 388.211 558.314 388.211Z" fill="#343B43"/>
<path d="M669.475 415.579C670.317 411.789 672.001 409.263 673.264 407.158C702.317 361.684 684.633 290.526 678.317 269.895C688.001 296 703.159 363.368 674.948 408C673.685 410.105 672.001 412.632 670.317 415.158C669.896 415.579 669.896 415.579 669.475 415.579Z" fill="#343B43"/>
<path d="M643.368 288.421C642.947 288 635.789 282.948 628.21 278.316C621.053 273.684 616.842 266.105 618.947 261.053C618.947 261.053 627.368 240.421 634.947 239.579C636.211 239.579 637.895 239.579 639.579 242.105C645.895 251.369 634.947 266.948 634.105 267.79C632.842 266.526 643.368 251.369 637.895 243.369C637.053 242.105 636.211 241.684 634.947 241.684C629.895 242.105 622.316 256.842 620.632 261.895C619.368 265.684 621.895 272 629.474 277.053C637.053 281.684 644.211 287.158 644.211 287.158C643.789 288.421 643.368 288.421 643.368 288.421Z" fill="#343B43"/>
<path d="M675.368 275.368C675.789 261.053 673.684 244.211 673.684 243.79C675.368 243.79 677.473 260.632 676.631 274.526C676.21 274.947 675.789 275.368 675.368 275.368Z" fill="#343B43"/>
<path d="M561.686 529.263C573.475 525.473 598.738 501.052 600.423 494.737C601.686 490.526 597.896 488.842 597.896 488.421C598.738 485.473 598.738 483.368 597.475 482.105C597.054 481.684 596.212 481.263 595.791 480.842C594.949 480.421 593.686 480.842 592.422 481.263C593.265 478.737 594.949 478.315 596.212 479.158C597.054 479.579 597.896 480 598.738 480.842C600.422 482.947 600.844 485.473 599.58 487.579C601.265 488.842 603.37 491.368 602.107 495.158C600.422 501.894 574.738 527.158 561.686 529.263C562.107 529.263 561.686 529.263 561.686 529.263Z" fill="#343B43"/>
<path d="M572.631 498.105C575.578 494.316 584.842 486.316 587.789 483.789C590.736 481.263 593.263 478.737 593.263 476.632C593.263 475.789 592.842 474.947 591.999 473.684C589.052 471.158 586.947 472.421 583.157 476.21C582.736 476.632 581.894 477.474 581.052 478.316C578.105 481.263 573.894 485.474 570.947 487.579C567.157 490.526 561.263 493.895 557.052 493.895C554.526 493.895 553.684 491.368 553.684 490.105C555.368 490.526 555.789 491.789 557.473 491.789C560.42 491.789 565.473 489.263 570.105 485.895C572.631 483.789 576.841 479.579 579.789 476.632C580.631 475.789 581.473 474.947 581.894 474.526C584.841 472 588.631 467.789 593.263 472C594.526 473.263 595.368 474.526 595.368 476.21C595.368 479.158 592.42 481.684 590.736 483.368C586.947 487.158 577.263 495.158 573.894 497.263C573.052 497.684 573.052 498.105 572.631 498.105Z" fill="#343B43"/>
<path d="M538.947 496C540.631 491.368 542.316 486.316 544 481.684C544.842 479.579 545.263 477.894 546.105 476.631C546.526 475.789 546.526 474.947 546.947 474.105C548.21 470.737 549.474 466.105 554.947 466.947C551.158 468.21 549.895 470.737 548.631 474.526C548.21 475.368 548.21 476.21 547.789 477.052C547.368 478.316 546.526 480 546.105 482.105C544.421 486.737 542.737 492.21 540.21 495.158C539.368 495.579 538.947 496 538.947 496Z" fill="#343B43"/>
<path d="M578.949 506.526C578.527 504.842 583.159 501.052 588.212 496.842C592.422 493.474 597.475 487.158 597.475 487.158C597.054 490.526 592.843 495.579 589.054 498.526C584.001 502.737 578.949 506.526 578.949 506.526C578.949 506.526 579.37 506.526 578.949 506.526Z" fill="#343B43"/>
<path d="M631.997 290.105C629.47 290.105 627.365 289.684 626.944 288C626.102 285.895 628.628 283.368 634.102 280.421C628.207 285.895 628.628 287.579 628.628 287.579C629.049 288.842 638.733 288.842 655.154 282.947C661.891 280.421 668.207 277.895 672.839 274.947C678.312 272 678.733 270.316 678.733 269.895C678.312 269.052 678.312 269.052 676.628 269.052C679.154 267.368 679.997 267.368 680.418 269.052C681.26 271.158 678.733 273.263 673.681 276.631C669.049 279.158 662.733 282.105 655.575 284.631C649.26 287.158 638.312 290.105 631.997 290.105Z" fill="#343B43"/>
<path d="M653.05 270.737C646.313 261.895 650.524 248.842 650.945 248.421C652.629 249.263 648.418 261.474 653.892 269.474C653.471 270.737 653.471 270.737 653.05 270.737Z" fill="#343B43"/>
<path d="M809.26 330.947C801.26 330.947 794.523 324.21 794.523 316.21C794.523 308.21 801.26 301.474 809.26 301.474C817.26 301.474 823.997 308.21 823.997 316.21C823.997 324.632 817.26 330.947 809.26 330.947ZM809.26 303.579C802.102 303.579 796.208 309.474 796.208 316.632C796.208 323.789 802.102 329.684 809.26 329.684C816.418 329.684 822.313 323.789 822.313 316.632C822.313 309.053 816.418 303.579 809.26 303.579Z" fill="#343B43"/>
<path d="M25.2622 250.105C17.2622 250.105 10.5254 243.368 10.5254 235.368C10.5254 227.368 17.2622 220.632 25.2622 220.632C33.2622 220.632 39.9991 227.368 39.9991 235.368C39.9991 243.789 33.2622 250.105 25.2622 250.105ZM25.2622 222.737C18.1043 222.737 12.2096 228.632 12.2096 235.789C12.2096 242.526 18.1043 248.421 25.2622 248.421C32.4201 248.421 38.3149 242.526 38.3149 235.368C38.3149 228.211 32.4201 222.737 25.2622 222.737Z" fill="#343B43"/>
<path d="M788.635 624H70.7402C70.7402 622.316 788.635 622.316 788.635 622.316C789.477 623.579 789.056 624 788.635 624Z" fill="#343B43"/>
<path d="M283.79 346.526C278.316 346.526 272.843 344.421 268.632 340.21L256.421 328C257.685 326.737 269.895 338.947 269.895 338.947C277.474 346.526 290.106 346.526 297.685 338.947L416.843 222.737C424.421 215.158 424.421 202.526 416.843 194.947L408.843 186.947C405.053 183.158 400 181.053 394.948 181.053C389.895 181.053 384.843 183.158 381.053 186.947L284.211 280.842C282.948 280.842 247.579 245.474 247.579 245.474C243.79 241.684 238.737 239.579 233.685 239.579C228.632 239.579 223.579 241.684 219.79 245.474L211.79 253.474C208 257.263 205.895 262.316 205.895 267.368C205.895 272.421 208 277.474 211.79 281.263L231.158 300.632C229.895 301.895 210.527 282.105 210.527 282.105C206.316 277.895 204.211 272.842 204.211 266.947C204.211 261.053 206.316 256 210.527 251.789L218.527 243.789C222.737 239.579 227.79 237.474 233.685 237.474C239.579 237.474 244.632 239.579 248.843 243.789L283.79 278.737L379.79 185.263C384 181.053 389.053 178.947 394.948 178.947C400.843 178.947 405.895 181.053 410.106 185.263L418.106 193.263C426.527 201.684 426.527 215.158 418.106 223.579L298.948 340.21C294.737 344.421 289.264 346.526 283.79 346.526Z" fill="#343B43"/>
<path d="M451.37 539.789C417.265 539.789 373.896 517.474 345.265 495.158C344.844 494.316 346.949 480.421 352.844 469.053C360.844 453.474 374.738 446.316 375.581 445.895C376.423 445.895 412.212 464 412.212 464C411.37 465.684 376.002 448 376.002 448C373.475 449.263 361.686 456.421 354.528 469.895C349.475 480 346.949 491.789 346.528 494.316C374.739 516.632 417.686 538.526 450.949 538.526C451.791 538.526 452.633 538.526 453.054 538.526C472.423 538.105 484.633 532.632 490.949 522.526C485.475 534.316 473.265 539.789 453.054 540.632C453.054 539.789 452.212 539.789 451.37 539.789Z" fill="#343B43"/>
<path d="M492.214 523.368C496.845 513.684 498.529 501.474 496.845 484.632C493.056 447.158 481.687 414.316 481.687 413.895C472.845 386.526 444.635 373.474 428.635 373.053C445.477 371.789 474.529 385.263 483.372 413.474C483.372 413.895 494.74 446.737 498.529 484.632C500.214 501.474 498.529 514.105 493.056 522.947C493.056 523.368 492.635 523.368 492.214 523.368Z" fill="#343B43"/>
<path d="M442.527 457.263C440.001 442.106 442.948 424.421 442.948 424.421C444.632 424.842 441.685 442.527 443.79 456.421C442.527 457.263 442.527 457.263 442.527 457.263Z" fill="#343B43"/>
<path d="M396.632 315.79C395.79 315.79 395.369 315.79 395.369 318.737C395.369 321.684 395.79 322.105 396.632 322.105C397.474 322.105 397.895 321.263 397.895 319.158C397.895 317.053 397.895 315.79 396.632 315.79Z" fill="#343B43"/>
<path d="M375.58 316.21C374.737 316.21 374.316 316.632 374.316 319.158C374.316 322.105 374.737 322.526 375.58 322.526C376.422 322.526 376.843 321.684 376.843 319.579C376.843 317.053 376.843 316.21 375.58 316.21Z" fill="#343B43"/>
<path d="M417.683 362.526C416.84 361.684 415.156 335.579 415.156 335.579C416.84 335.579 418.525 361.263 418.525 361.263C417.683 362.526 417.683 362.526 417.683 362.526Z" fill="#343B43"/>
<path d="M384.84 357.895C380.208 357.895 375.156 357.053 372.208 352.842C368.84 348.21 368.84 341.895 368.84 336C368.84 334.737 368.84 333.474 368.84 332.631C368.84 328.842 369.261 304.421 369.261 303.579C370.945 304 370.524 328.842 370.945 332.631C370.945 333.895 370.945 335.158 370.945 336.421C370.945 341.895 370.945 347.789 373.892 352C376.84 356.631 382.314 356.631 387.787 356.21C388.629 356.21 389.05 356.21 389.892 356.21C394.524 356.21 397.893 355.789 401.261 354.947C398.314 357.474 394.524 357.895 389.892 357.895C389.05 357.895 388.629 357.895 387.787 357.895C386.524 357.895 385.682 357.895 384.84 357.895Z" fill="#343B43"/>
<path d="M420.63 337.684C418.103 337.684 415.577 336.842 413.472 335.158C418.103 336.421 423.156 336.421 426.945 333.474C431.156 330.105 431.577 323.79 428.209 319.579C426.524 317.474 423.998 316.211 421.472 316.211C418.945 315.79 416.419 316.632 414.314 318.316C413.051 319.579 411.787 320.842 411.366 322.526C410.524 320 411.787 318.316 413.051 317.053C415.577 314.947 418.524 314.105 421.472 314.526C424.419 314.947 427.366 316.211 429.472 318.737C431.577 321.263 432.419 324.211 431.998 327.158C431.577 330.105 430.314 333.053 427.787 335.158C426.103 336.842 423.577 337.684 420.63 337.684Z" fill="#343B43"/>
<path d="M370.103 312.842C369.261 311.579 371.366 306.947 377.682 308.632C372.208 309.053 370.945 312 370.945 312.421C370.945 312.842 370.524 312.842 370.103 312.842Z" fill="#343B43"/>
<path d="M401.265 313.263C396.213 307.368 392.002 310.316 392.002 310.316C391.16 308.632 396.634 305.263 402.107 312C401.686 313.263 401.686 313.263 401.265 313.263Z" fill="#343B43"/>
<path d="M382.735 362.526C381.893 361.684 381.893 357.053 381.893 357.053C383.577 357.053 383.577 361.684 383.577 361.684C382.735 362.526 382.735 362.526 382.735 362.526Z" fill="#343B43"/>
<path d="M428.21 318.737C432.421 311.579 433.684 303.579 432 296.421C430.315 290.527 426.526 286.737 421.473 285.053C418.947 284.211 415.578 283.79 412.21 284.211C410.526 284.211 406.736 284.632 406.736 284.632C406.736 282.948 410.526 282.527 412.21 282.527C416 282.105 418.947 282.527 421.894 283.369C427.368 285.053 431.578 289.684 433.263 296C435.368 303.579 433.684 312.421 429.052 318.316C429.052 318.316 428.631 318.737 428.21 318.737Z" fill="#343B43"/>
<path d="M424 332.632C423.579 332.632 415.158 328.421 415.158 328.421C414.736 327.158 422.315 319.158 422.315 319.158C423.579 320.421 416.842 327.579 416.842 327.579L424 330.948C424.842 332.211 424.421 332.632 424 332.632Z" fill="#343B43"/>
<path d="M402.528 289.684C401.686 288.421 406.318 282.526 406.318 282.526C407.581 283.79 403.37 289.263 403.37 289.263C402.949 289.684 402.528 289.684 402.528 289.684Z" fill="#343B43"/>
<path d="M443.792 493.895C440.845 493.895 437.477 492.632 435.371 490.105C435.371 490.105 431.582 485.895 432.003 482.526C433.266 484.632 435.371 487.579 436.634 488.842C438.319 490.526 441.266 491.789 443.792 491.789C446.74 491.789 448.845 490.526 449.687 488.421C450.108 487.158 450.529 485.474 450.529 484.211C450.529 474.947 447.161 463.579 438.319 458.526C429.898 453.895 422.319 456.842 422.319 456.842C421.898 455.158 429.898 451.79 439.161 456.842C448.845 462.316 452.213 474.105 452.213 483.789C452.213 485.474 452.213 487.158 451.371 488.842C450.108 491.368 447.582 493.053 444.634 493.053C444.213 493.474 444.213 493.895 443.792 493.895Z" fill="#343B43"/>
<path d="M401.266 460.211C404.634 451.79 410.108 448.842 417.266 449.263C422.318 449.684 425.687 451.369 429.055 455.158C424.845 452.632 421.476 451.369 417.266 450.948C410.95 450.527 405.897 453.474 402.108 459.79C402.108 460.211 401.687 460.211 401.266 460.211Z" fill="#343B43"/>
<path d="M319.156 524.211C308.208 524.211 298.945 522.526 293.892 517.895C272.419 496.842 294.734 455.579 302.313 441.684C310.734 426.105 340.208 375.579 376.84 369.684C341.471 377.263 311.998 427.368 303.998 442.526C284.629 478.737 281.682 503.158 295.577 516.632C310.313 530.947 375.577 514.105 375.998 514.105C374.313 516.211 343.577 524.211 319.156 524.211Z" fill="#343B43"/>
<path d="M412.214 320C404.635 312.421 400.003 300.211 398.319 296C395.372 299.368 385.688 307.789 369.688 304C388.635 306.526 397.898 293.474 397.898 293.474C399.582 293.895 404.635 309.895 412.635 318.316C412.635 320 412.635 320 412.214 320Z" fill="#343B43"/>
<path d="M316.629 624C323.366 584.421 324.629 523.789 324.629 522.947C326.313 523.789 325.05 584.421 317.471 623.158C317.471 623.579 317.05 624 316.629 624Z" fill="#343B43"/>
<path d="M479.16 624C478.317 606.316 472.844 536.842 472.844 536C474.528 536.421 480.002 606.316 480.002 623.158C480.002 623.579 479.581 624 479.16 624Z" fill="#343B43"/>
<path d="M407.578 419.789C406.736 419.368 390.736 392.842 390.736 392.842L376.842 412.631C375.157 412.21 374.736 372.631 374.736 372.631C374.736 372.21 381.894 361.263 381.894 361.263C383.578 361.684 391.157 389.052 391.157 389.052L417.263 360.421C418.526 360.421 429.052 371.368 429.052 371.368C429.052 372.21 408.421 418.947 408.421 418.947C407.578 419.789 407.578 419.789 407.578 419.789ZM391.999 391.158L407.578 416.842L427.368 372.21L418.105 362.526L391.999 391.158ZM376.842 373.052L377.263 409.263L390.315 391.158L383.157 364.21L376.842 373.052Z" fill="#343B43"/>
<path d="M391.998 450.105C396.63 430.316 403.366 413.474 403.366 413.052C405.051 413.895 398.314 430.737 392.84 449.263C392.84 449.684 392.419 450.105 391.998 450.105Z" fill="#343B43"/>
<path d="M374.735 445.895C374.314 422.316 376.42 410.105 376.42 410.105C378.104 410.527 375.999 422.737 375.577 445.053C375.577 445.474 375.156 445.895 374.735 445.895Z" fill="#343B43"/>
<path d="M417.262 450.947C416.841 450.947 397.894 450.105 381.473 450.105C398.315 448.421 417.262 449.263 417.262 449.263C418.104 450.526 417.683 450.947 417.262 450.947Z" fill="#343B43"/>
<path d="M305.264 480.421C308.632 465.263 314.527 456.842 324.211 452.632C324.632 452.632 326.316 452.211 326.316 452.211C343.158 449.263 357.474 463.158 357.895 463.579C356.632 464.842 342.316 451.368 326.316 453.895C315.79 458.105 309.895 466.105 306.106 479.579C305.685 480 305.264 480.421 305.264 480.421Z" fill="#343B43"/>
<path d="M322.951 453.895C322.109 453.053 319.583 445.474 330.951 440.421C341.898 435.79 354.53 443.79 354.951 444.211C353.688 445.474 341.477 437.895 331.793 442.105C322.109 446.316 323.793 452.632 324.214 452.632C323.372 453.895 322.951 453.895 322.951 453.895Z" fill="#343B43"/>
<path d="M375.576 447.579C374.734 447.158 369.26 440.421 356.208 436.211C343.997 432 336.839 440.842 336.839 440.842C335.576 439.579 343.155 429.474 357.05 434.526C370.103 439.158 375.997 445.895 376.418 446.316C375.997 447.158 375.997 447.579 375.576 447.579Z" fill="#343B43"/>
<path d="M392.419 419.789L381.892 418.947C381.05 418.105 379.787 405.052 379.787 405.052C381.471 405.052 382.734 417.263 382.734 417.263L391.577 418.105L399.577 407.158C400.84 408 392.84 419.789 392.84 419.789C393.261 419.789 392.84 419.789 392.419 419.789Z" fill="#343B43"/>
<path d="M394.524 441.684C393.682 440.842 391.998 418.947 391.998 418.947C393.682 418.947 395.788 440.842 395.788 440.842C394.524 441.684 394.524 441.684 394.524 441.684Z" fill="#343B43"/>
<path d="M375.159 433.684C374.317 432.421 381.475 417.684 381.475 417.684C383.159 418.526 376.001 433.263 376.001 433.263C376.001 433.263 375.58 433.684 375.159 433.684Z" fill="#343B43"/>
<path d="M347.366 434.947C346.523 433.263 349.05 420.631 353.681 411.368C350.734 421.052 348.208 434.105 348.208 434.105C347.787 434.526 347.787 434.947 347.366 434.947Z" fill="#343B43"/>
<path d="M426.108 491.369C421.898 490.948 418.951 489.263 417.687 486.737C416.424 484.632 416.424 482.527 416.424 480.421C416.424 476.632 416.424 474.106 415.582 472C414.74 469.053 412.635 466.948 411.372 464.842C414.319 465.684 416.424 468.211 417.266 471.158C418.108 473.685 418.108 476.211 418.108 478.737C418.108 482.527 418.529 484.211 418.951 485.474C420.214 487.579 422.319 488.842 425.266 488.842C426.529 488.842 427.793 488.842 428.635 488C429.898 487.158 431.161 485.474 431.582 482.948C432.003 481.684 432.003 480.421 432.003 478.737C432.424 474.948 432.003 467.369 427.793 462.316C424.424 458.106 419.372 455.579 414.74 455.579C408.003 455.579 405.898 460.632 405.898 460.632C404.214 459.79 406.74 453.895 414.74 453.895C420.214 453.895 425.687 456.842 429.477 461.474C432.845 465.684 434.529 472 434.108 479.158C434.108 480.842 433.687 482.106 433.687 483.79C432.845 486.737 431.582 488.842 429.898 490.106C429.056 490.948 427.793 491.369 426.108 491.369Z" fill="#343B43"/>
<path d="M389.472 344.421C388.63 344.421 387.367 344.421 386.104 344C388.63 343.158 390.314 342.737 391.577 342.316C393.682 341.053 394.104 338.105 394.104 338.105C395.788 338.527 395.367 342.316 392.419 344C391.577 344 390.735 344.421 389.472 344.421Z" fill="#343B43"/>
<path d="M455.577 488.842C453.892 488.842 452.208 488.421 450.945 488C453.471 486.737 456.419 487.579 458.524 486.316C460.629 485.053 461.05 482.105 461.05 480.842C461.471 472.842 455.577 465.684 452.208 462.316C447.155 456.842 439.155 459.369 438.734 459.369C438.734 457.684 447.155 454.737 453.471 461.053C457.261 464.842 463.155 472.421 462.734 481.263C462.734 484.632 461.05 486.737 459.366 488C458.103 488.421 456.84 488.842 455.577 488.842Z" fill="#343B43"/>
<path d="M384.002 336C381.897 336 378.528 335.579 376.844 333.895C376.002 333.053 376.002 332.21 376.002 330.947C376.844 326.316 381.055 312.842 381.055 312.421C382.739 313.263 378.528 327.158 377.686 331.368C379.37 334.316 384.002 334.316 385.265 333.895C385.686 336 385.265 336 384.002 336Z" fill="#343B43"/>
<path d="M369.263 314.526C368.421 314.105 354.527 294.737 367.579 282.947C379.79 271.579 395.369 271.579 406.316 282.526C394.527 273.684 380.211 273.684 368.842 284.211C357.053 295.158 369.684 312.842 370.105 313.263C369.684 314.526 369.684 314.526 369.263 314.526Z" fill="#343B43"/>
<path d="M101.472 488.421C100.63 488 39.9987 426.948 39.9987 426.948C39.1566 426.106 38.3145 424.842 38.3145 423.579C38.3145 422.316 38.7355 421.053 39.9987 420.211C42.1039 418.106 45.0513 418.106 47.1566 420.211L102.735 475.79C101.472 477.053 45.4723 421.053 45.4723 421.053C44.2092 419.79 42.1039 419.79 40.8408 421.053C40.4197 421.474 39.9987 422.316 39.9987 423.158C39.9987 424 40.4197 424.842 40.8408 425.263L101.893 486.737C101.893 488.421 101.472 488.421 101.472 488.421Z" fill="#343B43"/>
<path d="M37.4746 219.368C38.7378 215.158 41.2641 212.632 43.3693 210.105C42.5272 213.474 40.422 216 37.8957 218.947L37.4746 219.368ZM51.3693 203.79C53.0536 200 56.0009 197.474 58.5272 195.368C57.2641 198.737 54.3167 201.263 52.2115 203.79C51.7904 203.79 51.3693 203.79 51.3693 203.79ZM66.9483 190.737C69.0536 186.947 72.0009 185.263 74.9483 183.158C72.843 186.526 69.8957 188.211 67.3693 190.316C67.3693 190.316 67.3693 190.737 66.9483 190.737ZM84.6325 179.789C87.1588 176.421 90.5272 175.158 93.8957 173.895C91.3693 176.842 88.0009 178.105 84.6325 179.789C85.0536 179.789 85.0536 179.789 84.6325 179.789ZM104.001 172.211C106.948 169.263 110.317 168.421 113.685 168C110.738 170.105 107.369 170.947 104.001 172.211ZM168.001 169.684C167.159 169.684 166.738 169.263 165.475 168.842C167.159 167.579 168.001 167.579 168.422 167.579C168.422 169.684 168.001 169.684 168.001 169.684ZM124.211 167.579C127.58 165.474 130.948 165.053 134.317 164.632C130.948 166.737 127.58 167.158 124.211 167.579ZM154.948 167.579C151.58 167.158 148.211 166.737 144.422 166.737C147.79 165.053 151.58 165.474 154.948 165.474C155.79 167.158 155.79 167.579 154.948 167.579Z" fill="#343B43"/>
<path d="M24.8421 399.579C24 399.158 21.8947 395.79 18.9474 389.895C23.5789 394.948 25.6842 397.895 25.6842 398.316C25.2632 399.579 24.8421 399.579 24.8421 399.579ZM15.5789 381.053C13.4737 377.263 12.2105 373.895 10.9474 370.948C13.8947 373.474 15.1579 376.842 16.4211 379.79C15.5789 381.053 15.5789 381.053 15.5789 381.053ZM8.42105 361.684C6.73684 357.895 5.47368 354.526 4.63158 351.158C7.1579 354.105 8 357.474 9.26316 360.842C8.42105 361.684 8.42105 361.684 8.42105 361.684ZM3.36842 341.474C1.68421 337.263 1.26316 333.895 0.842105 330.526C3.36842 333.474 3.78947 336.842 4.21053 340.211C3.36842 341.474 3.36842 341.474 3.36842 341.474ZM1.26316 320.842C0 317.895 0 315.369 0 313.263C0 312 0 310.737 0 309.474C1.68421 310.737 1.68421 312 1.68421 313.263C1.68421 315.369 1.68421 317.895 1.68421 320C1.26316 320.842 1.26316 320.842 1.26316 320.842ZM1.68421 300.211C1.26316 295.579 1.68421 292.211 2.10526 288.842C3.36842 292.632 2.94737 296 2.52632 299.369C2.52632 299.79 2.10526 300.211 1.68421 300.211ZM5.47368 280C5.47368 275.369 6.73684 272 7.57895 269.053C8 272.842 7.1579 276.211 6.31579 279.579C5.89474 279.579 5.89474 280 5.47368 280ZM12.2105 260.211C11.7895 257.684 12.2105 256.842 13.0526 255.579C13.4737 254.316 14.3158 253.474 14.7368 252.211C15.5789 254.316 15.1579 255.158 14.7368 256.421C14.3158 257.684 13.4737 258.526 13.0526 259.79C13.0526 260.211 12.6316 260.211 12.2105 260.211Z" fill="#343B43"/>
<path d="M212.209 400.421C169.261 367.579 143.998 316.632 143.998 264C143.998 170.105 220.63 93.4736 314.524 93.4736C408.419 93.4736 485.051 170.105 485.051 264C485.051 304.842 470.314 344.421 443.367 375.579C468.63 344 482.945 304.421 482.945 264C482.945 170.947 407.156 95.1578 314.103 95.1578C221.051 95.1578 145.261 170.947 145.261 264C145.261 315.789 170.103 366.316 212.209 398.737C212.63 400 212.209 400.421 212.209 400.421Z" fill="#343B43"/>
<path d="M372.207 84.6317C371.365 83.3686 371.786 79.5791 373.892 73.2633C373.471 80.0001 373.05 83.7896 373.05 83.7896C373.05 84.2107 372.628 84.6317 372.207 84.6317ZM378.944 64.8422C379.786 60.6317 381.471 57.2633 383.155 54.3159C382.734 58.1054 381.471 61.0528 379.786 64.4212C379.365 64.8422 379.365 64.8422 378.944 64.8422ZM389.471 47.158C390.734 42.9475 393.26 40.4212 395.786 37.8949C394.523 41.6843 392.418 44.2107 390.313 46.737C390.313 47.158 389.892 47.158 389.471 47.158ZM403.786 32.4212C405.892 28.6317 408.839 26.5265 411.365 24.4212C409.681 27.7896 406.734 29.8949 404.207 32.0001C404.207 32.4212 404.207 32.4212 403.786 32.4212ZM547.786 29.4738C544.839 26.9475 541.892 24.8422 538.944 22.737C543.155 23.158 545.681 25.6843 548.207 27.7896C548.207 29.4738 547.786 29.4738 547.786 29.4738ZM421.049 21.0528C423.576 17.6843 426.944 16.4212 429.892 14.737C427.365 17.6843 424.418 19.3686 421.471 20.6317C421.471 21.0528 421.049 21.0528 421.049 21.0528ZM530.523 18.1054C527.155 16.4212 523.786 15.158 520.839 13.8949C524.628 13.4738 527.997 15.158 530.944 16.4212C531.365 17.6843 530.944 18.1054 530.523 18.1054ZM439.997 13.0528C442.523 10.5264 445.892 9.26329 448.839 8.84224C446.313 10.9475 443.365 11.7896 439.997 13.0528C440.418 13.0528 440.418 13.0528 439.997 13.0528ZM511.576 10.1054C508.207 9.26329 504.839 8.42119 501.471 7.57908C505.26 6.31592 508.628 7.15803 511.997 8.00013C512.418 10.1054 511.997 10.1054 511.576 10.1054ZM460.207 8.00013C463.576 5.47382 466.944 5.05277 470.313 5.05277C467.365 7.15803 463.997 7.57908 460.207 8.00013ZM491.365 6.73698C488.418 6.31592 485.049 6.31592 482.102 6.31592C485.471 4.63171 488.418 4.63171 491.786 5.05277C492.207 6.31592 491.786 6.73698 491.365 6.73698Z" fill="#343B43"/>
<path d="M640.841 250.105C705.683 247.158 758.314 193.263 758.314 128.421C758.314 62.3158 704.42 8.42103 638.314 8.42103C572.209 8.42103 518.314 62.3158 518.314 128.421C518.314 189.895 564.209 240.842 624.841 247.579C562.946 242.526 516.209 190.316 516.209 128.421C516.209 61.0526 570.946 6.73682 637.893 6.73682C705.262 6.73682 759.577 61.4737 759.577 128.421C759.577 160.421 747.367 190.737 724.63 213.895C702.735 236.632 672.841 249.684 640.841 250.105Z" fill="#343B43"/>
<path d="M729.688 464C732.214 460.631 735.161 458.947 738.109 457.263C736.424 460.631 733.056 462.316 729.688 464C730.109 464 729.688 464 729.688 464ZM747.372 453.474C749.477 449.684 752.424 447.579 754.951 445.474C753.266 449.263 750.74 451.368 747.793 453.052C747.793 453.474 747.793 453.474 747.372 453.474ZM763.372 440C765.056 436.21 767.582 433.684 770.109 431.158C769.266 434.947 766.74 437.474 764.214 440C763.793 440 763.793 440 763.372 440ZM777.266 424.842C778.53 420.631 780.635 417.684 782.74 415.158C782.319 418.947 780.214 421.895 778.109 424.421C777.688 424.842 777.688 424.842 777.266 424.842ZM788.635 407.579C789.477 403.368 791.161 400 792.424 397.053C792.424 400.842 790.74 404.21 789.056 407.158C789.477 407.579 789.056 407.579 788.635 407.579ZM797.477 389.053C797.898 384.842 799.161 381.474 800.003 378.105C800.845 381.895 799.582 385.263 798.319 388.631C798.319 388.631 797.898 389.053 797.477 389.053ZM803.793 369.263C803.793 365.052 804.635 361.684 805.056 357.895C806.319 361.684 805.477 365.053 804.635 368.421C804.635 368.842 804.214 369.263 803.793 369.263ZM807.582 349.053C807.161 344.842 807.582 341.053 807.582 337.684C809.266 341.474 808.845 344.842 808.424 348.21C808.424 348.631 808.003 349.053 807.582 349.053Z" fill="#343B43"/>
<path d="M807.155 288.421C805.892 284.211 805.471 280.842 804.629 277.474C807.155 280.421 807.576 283.79 807.998 287.579C807.155 288.421 807.155 288.421 807.155 288.421ZM803.366 267.79C801.682 263.579 800.84 260.211 799.998 257.263C802.524 260.211 803.366 263.579 804.208 266.947C803.787 267.79 803.366 267.79 803.366 267.79ZM797.892 248C795.787 244.211 794.524 240.842 793.261 237.895C796.208 240.421 797.471 243.79 798.734 246.737C797.892 248 797.892 248 797.892 248ZM789.892 229.053C787.366 225.263 786.103 222.316 784.419 219.368C787.787 221.474 789.471 224.421 790.734 227.79C789.892 229.053 789.892 229.053 789.892 229.053ZM779.366 210.947C776.84 207.579 774.734 205.053 772.629 202.105C775.998 203.79 778.103 206.737 780.208 209.684C779.787 210.947 779.787 210.947 779.366 210.947ZM766.734 194.526C761.682 189.474 758.734 186.947 758.734 186.947C759.998 185.684 762.945 187.79 767.577 192.842C767.155 194.526 767.155 194.526 766.734 194.526Z" fill="#343B43"/>
<path d="M525.892 332.21C525.05 331.368 524.208 318.737 518.734 309.895C520.419 308.631 525.471 312.421 527.577 317.053L561.261 309.895C560.84 306.947 559.155 296.421 550.734 291.368C543.998 287.158 534.734 287.579 522.945 292.21C534.734 285.474 544.419 285.474 551.576 290.105C561.682 296.421 562.945 310.316 562.945 310.737C562.103 311.579 527.155 319.158 527.155 319.158C525.471 316.632 523.787 314.526 522.524 313.263C526.313 321.684 526.734 330.947 526.734 331.368C525.892 332.21 525.892 332.21 525.892 332.21Z" fill="#343B43"/>
<defs>
<linearGradient id="paint0_linear_509_1617" x1="156.209" y1="371.216" x2="484.867" y2="156.409" gradientUnits="userSpaceOnUse">
<stop stop-color="#234DAE"/>
<stop offset="1" stop-color="#347BCE"/>
</linearGradient>
<linearGradient id="paint1_linear_509_1617" x1="111.027" y1="576.525" x2="310.592" y2="467.755" gradientUnits="userSpaceOnUse">
<stop stop-color="#234DAE"/>
<stop offset="1" stop-color="#347BCE"/>
</linearGradient>
<linearGradient id="paint2_linear_509_1617" x1="473.684" y1="550.324" x2="729.186" y2="448.274" gradientUnits="userSpaceOnUse">
<stop stop-color="#234DAE"/>
<stop offset="1" stop-color="#347BCE"/>
</linearGradient>
<linearGradient id="paint3_linear_509_1617" x1="375.156" y1="437.26" x2="407.103" y2="428.247" gradientUnits="userSpaceOnUse">
<stop stop-color="#234DAE"/>
<stop offset="1" stop-color="#347BCE"/>
</linearGradient>
<linearGradient id="paint4_linear_509_1617" x1="554.949" y1="381.841" x2="576.195" y2="372.155" gradientUnits="userSpaceOnUse">
<stop stop-color="#234DAE"/>
<stop offset="1" stop-color="#347BCE"/>
</linearGradient>
<linearGradient id="paint5_linear_509_1617" x1="589.475" y1="179.439" x2="732.93" y2="122.713" gradientUnits="userSpaceOnUse">
<stop stop-color="#234DAE"/>
<stop offset="1" stop-color="#347BCE"/>
</linearGradient>
</defs>
</svg>
