<svg width="878" height="681" viewBox="0 0 878 681" fill="none" xmlns="http://www.w3.org/2000/svg">
<path d="M540.307 601.382L534.646 651.497H734.43L732.003 600.978L540.307 601.382Z" fill="url(#paint0_linear_156_1895)"/>
<path d="M478.836 132.563C475.196 130.946 472.769 132.159 470.343 134.988C463.063 144.283 455.784 153.175 448.1 161.662C446.077 163.683 442.842 165.299 440.011 165.299C428.687 166.108 417.364 166.512 406.04 166.512C403.613 166.512 400.782 165.703 399.165 164.087C389.863 155.195 380.966 145.9 371.259 137.008C370.046 135.796 366.406 134.988 364.789 135.796C353.06 141.05 341.332 146.708 329.604 152.366C326.369 153.983 325.56 155.599 325.964 158.833C327.582 171.362 328.795 183.486 330.008 196.015C330.413 198.44 329.2 201.673 327.986 203.29C320.707 212.181 313.023 221.072 305.339 229.56C303.721 231.58 300.486 233.197 298.059 233.601C286.331 234.005 274.198 234.41 262.47 234.005C258.83 234.005 256.404 234.814 255.19 238.855C251.146 250.576 247.102 262.7 242.653 274.421C241.036 278.058 242.249 280.483 245.08 282.908C254.382 290.183 262.874 297.862 272.176 304.732C275.411 307.157 276.22 309.582 276.22 313.624C276.22 324.536 276.625 335.448 277.838 346.36C278.242 350.402 277.434 352.827 274.603 355.656C265.705 364.143 257.212 373.035 248.315 381.522C245.889 383.947 245.484 385.967 247.102 389.605C252.764 400.921 258.426 411.833 263.279 423.554C264.896 427.595 267.323 427.999 270.963 427.595C283.095 425.979 295.228 424.766 307.765 423.958C310.192 423.958 313.427 425.17 315.449 426.787C323.942 434.466 332.435 442.549 340.523 451.036C342.545 453.057 344.163 456.29 344.163 459.119C344.568 471.648 344.163 484.177 344.163 496.706C344.163 500.343 344.972 502.768 349.016 503.98C360.744 508.022 372.877 512.064 384.605 516.509C388.245 517.722 390.267 517.318 392.289 514.084C399.973 503.98 407.657 493.877 416.15 484.177C417.768 482.156 421.408 480.944 424.239 480.54C435.158 479.327 446.482 478.923 457.401 477.71C461.85 477.306 464.681 478.115 467.916 480.944C476.005 489.431 484.498 497.11 492.586 505.597C495.417 508.426 497.439 508.83 501.079 507.214C512.403 501.556 523.322 495.897 535.05 491.048C538.69 489.431 539.499 487.006 539.095 483.369C537.477 471.244 536.668 459.523 535.05 447.399C534.646 443.357 535.455 441.337 538.286 438.507C546.374 430.424 554.058 421.533 562.147 413.45C563.764 411.833 566.595 410.217 569.022 410.217C581.559 409.813 594.5 410.217 607.037 410.217C610.677 410.217 612.699 409.004 613.508 405.367C617.552 393.646 621.597 381.522 626.045 369.801C627.663 366.164 626.45 364.143 623.619 361.718C613.508 354.039 603.802 346.36 594.5 338.277C592.478 336.661 591.265 333.427 590.861 330.598C589.647 318.878 588.838 307.157 588.434 295.437C588.434 293.012 589.243 289.779 590.861 288.162C600.567 278.058 610.273 267.954 620.383 257.851C613.913 244.513 607.846 231.58 600.971 218.648C600.162 217.031 596.927 215.818 594.905 215.818C582.368 217.031 570.235 218.648 557.698 219.456C555.271 219.86 552.44 219.052 550.823 217.435C541.521 210.16 532.624 202.481 523.726 194.802C521.704 193.186 520.087 189.953 520.087 187.124C519.682 175.403 519.278 163.278 519.278 151.558C519.278 147.921 518.065 146.304 514.425 145.091C502.292 141.05 490.564 137.008 478.836 132.563ZM501.483 345.552C488.137 383.947 446.482 403.75 408.062 390.413C369.642 377.076 349.825 335.448 363.575 296.649C376.921 259.063 418.577 239.259 456.592 252.597C495.013 265.529 514.829 307.157 501.483 345.552Z" fill="white"/>
<path d="M452.144 578.749C437.18 530.251 427.474 492.665 406.848 463.565C386.223 434.466 370.046 416.279 312.618 404.963C255.19 393.647 217.983 422.342 217.983 422.342C217.983 422.342 188.056 441.741 175.115 467.607C162.173 493.877 161.364 505.598 161.364 505.598H217.174C217.174 505.598 230.925 503.577 238.609 520.147C246.697 537.122 266.11 613.507 266.11 613.507C266.11 613.507 268.94 623.206 269.345 626.44C269.749 631.29 265.705 638.564 265.705 638.564L264.896 651.093H460.232C460.232 651.497 467.107 627.248 452.144 578.749ZM301.294 449.016C278.647 454.27 272.176 431.233 272.176 431.233C272.176 431.233 271.771 432.446 271.367 433.254C270.963 434.062 262.47 452.249 248.315 449.42C234.16 446.187 238.204 430.425 238.204 430.425L255.19 410.217L288.757 406.984L298.868 411.834C298.463 412.238 323.537 443.762 301.294 449.016Z" fill="#343B43"/>
<path d="M668.509 22.2288C659.612 24.2496 650.715 26.2704 642.222 27.887C639.391 28.2911 638.582 29.9078 638.178 32.7368C637.369 41.2241 636.155 49.3072 634.538 57.3902C634.133 59.411 632.516 61.4318 630.898 62.6443C624.427 67.4941 617.552 71.9398 610.272 76.3855C609.059 77.1938 606.633 77.598 605.419 77.598C596.118 75.5772 587.22 73.1523 578.323 71.5357C577.11 71.1315 574.683 71.9398 573.874 73.1523C568.617 80.8312 563.764 88.9143 558.506 96.5932C557.293 98.614 557.293 100.231 558.911 101.847C564.573 108.718 570.235 115.993 575.492 123.267C576.705 124.48 577.11 126.905 577.11 128.521C575.897 136.604 574.683 145.092 573.066 153.175C572.661 155.196 571.448 157.216 569.83 158.429C562.955 163.279 555.675 167.724 548.396 172.17C545.969 173.383 545.16 174.999 545.969 177.828C547.991 186.72 550.014 195.611 551.631 204.098C552.036 206.927 553.653 207.736 556.484 208.14C564.977 208.948 573.066 210.565 581.558 211.373C584.389 211.777 586.007 212.99 587.22 215.415C591.265 222.285 595.713 228.752 600.566 234.814C602.184 237.239 602.588 238.856 602.184 241.685C600.162 250.172 598.14 259.063 595.713 267.55C594.904 269.975 595.713 271.592 597.735 272.804C605.419 277.654 613.103 282.504 620.383 287.354C622.809 288.971 624.427 288.566 626.449 286.95C633.324 281.292 640.2 276.038 647.479 270.784C649.097 269.571 651.523 269.167 653.141 269.571C661.23 271.188 669.318 272.804 677.406 275.229C679.429 275.634 681.855 277.25 682.664 278.867C687.517 286.546 692.37 294.225 696.819 301.904C698.032 304.329 699.65 305.137 702.481 304.329C711.378 302.308 720.275 300.287 728.768 298.67C731.195 298.266 732.408 297.054 732.812 294.225C733.621 284.929 734.834 276.038 736.048 266.742C736.452 264.721 738.07 262.701 739.687 261.488C746.158 256.638 752.629 252.193 759.1 247.343C761.526 245.322 763.548 244.918 766.784 245.322C774.872 247.343 782.961 248.959 791.049 250.98C793.88 251.788 795.498 251.384 796.711 248.555C801.564 240.876 806.417 233.197 811.27 225.923C812.888 223.498 812.483 221.881 810.866 219.86C805.608 212.99 800.351 206.119 794.689 199.248C793.071 197.228 792.667 195.207 793.475 192.378C795.498 184.295 796.711 176.212 798.733 167.724C799.137 166.108 800.351 164.087 801.968 163.279C809.652 158.429 817.336 153.579 825.425 149.133C827.851 147.921 828.256 146.304 827.851 143.879C825.829 134.988 823.807 126.096 822.189 117.609C821.785 114.78 820.167 113.972 817.336 113.568C808.439 112.759 799.542 111.547 790.645 110.334C788.622 109.93 786.6 108.718 785.387 107.101C780.13 100.231 775.277 93.36 770.423 86.4894C769.615 84.8727 768.806 82.852 769.21 81.2354C771.232 71.5356 773.659 61.4318 776.085 51.3279C767.188 45.6698 758.291 40.0116 749.394 34.7576C748.18 33.9493 745.754 34.3535 744.54 35.1618C737.261 40.4158 730.386 46.0739 723.106 51.3279C721.893 52.1362 719.871 52.9446 718.253 52.9446C709.76 51.7321 701.267 50.5196 693.179 49.3072C691.157 48.903 689.135 47.6905 687.921 46.0739C683.068 39.2033 678.62 31.9285 674.171 24.6537C672.553 22.2288 671.34 21.8247 668.509 22.2288ZM736.452 150.346C742.518 179.041 724.724 206.927 696.01 212.99C667.296 219.052 639.391 201.269 633.324 172.17C627.258 143.879 645.457 115.993 673.767 109.93C702.481 103.868 730.386 121.651 736.452 150.346Z" fill="white"/>
<path d="M442.033 228.752C442.033 228.752 447.695 286.95 487.328 307.158C524.535 326.153 543.947 316.453 552.844 314.028C562.146 311.603 598.14 301.095 608.655 300.287L629.685 394.051L670.127 301.095C670.127 301.095 699.245 306.753 717.04 319.282C734.834 331.811 757.078 345.552 768.806 381.522C780.534 417.492 793.88 468.415 793.88 468.415C793.88 468.415 818.954 549.246 782.152 565.816C782.152 565.816 771.637 577.537 734.025 569.05V600.574C734.025 600.574 695.201 611.89 627.663 610.678C576.301 609.465 534.241 600.574 534.241 600.574C534.241 600.574 541.925 523.784 542.734 515.297L502.696 384.755C502.696 384.755 452.548 385.564 416.554 338.682C380.156 291.8 382.178 240.472 382.178 240.472L442.033 228.752Z" fill="#343B43"/>
<path d="M592.882 242.897C592.882 242.897 590.051 259.468 581.559 263.913C581.559 263.913 584.39 265.934 590.051 266.338C595.713 266.742 597.735 266.742 597.735 266.742L592.882 242.897Z" fill="#343B43"/>
<path d="M643.436 270.784C643.436 270.784 682.26 273.209 694.393 266.742C694.393 266.742 700.864 220.264 696.415 201.269C691.966 182.274 684.282 174.595 678.62 172.978C672.959 171.362 655.164 167.724 637.369 168.937C619.575 169.745 612.7 172.17 611.082 171.766C609.464 171.362 594.096 182.678 592.479 208.544L593.692 224.306L594.501 212.99C594.501 212.99 598.14 196.419 604.207 188.74C604.207 188.74 616.744 206.119 629.685 214.606C642.627 223.093 653.142 225.518 658.399 224.306C663.657 223.498 643.436 270.784 643.436 270.784Z" fill="#343B43"/>
<path d="M245.888 363.739C245.888 363.739 230.925 368.185 228.094 350.806C225.263 333.427 240.631 335.448 243.057 337.873C243.057 337.873 246.293 336.256 249.932 324.536C253.572 312.815 256.808 301.095 256.808 301.095C256.808 301.095 273.389 307.561 285.117 308.774C296.845 309.986 308.574 309.178 308.574 309.178L314.64 351.614C314.64 351.614 316.662 375.864 310.191 381.118C303.721 386.372 300.89 388.796 291.588 388.796V409.004C291.588 409.004 284.713 425.575 270.962 423.15C257.212 420.725 254.381 416.683 254.381 416.683C254.381 416.683 257.212 407.388 254.786 394.455C252.763 382.33 245.888 363.739 245.888 363.739Z" fill="white"/>
<path d="M295.228 638.969C295.228 638.969 311.809 625.227 315.449 619.973C315.449 619.973 322.729 629.673 338.097 628.865C353.465 628.056 360.744 625.227 360.744 625.227C360.744 625.227 358.722 605.424 346.589 596.937C346.589 596.937 318.28 592.087 306.552 591.278C294.823 590.47 288.353 590.066 286.331 591.278C284.309 592.087 275.411 596.937 265.705 613.507L268.94 625.632L268.536 629.269L279.455 617.953L269.749 635.331L268.536 638.969H277.838L297.654 615.932L287.139 635.735L286.331 638.969H295.228Z" fill="white"/>
<path d="M435.967 229.964C435.967 229.964 435.158 220.264 435.967 215.414C436.776 210.16 439.202 206.523 444.46 203.29C449.717 200.057 460.232 192.782 458.615 187.932C456.593 183.082 452.144 181.87 445.673 184.294C438.798 186.719 423.834 196.823 421.408 197.632C418.981 198.44 418.172 198.44 418.172 198.44C418.172 198.44 394.312 177.02 390.672 174.191C387.032 171.362 383.797 168.937 381.37 168.532C378.944 168.128 375.304 170.957 374.495 173.382L369.237 170.957C369.237 170.957 367.215 170.553 364.384 172.17C361.553 173.382 361.149 175.807 361.149 175.807C361.149 175.807 358.318 173.786 355.083 174.595C352.252 175.403 349.825 176.616 349.825 178.636C349.825 180.657 351.038 185.103 357.105 193.186C363.171 201.269 373.686 208.544 375.708 210.969C377.326 213.394 385.414 216.627 386.628 218.648C387.841 220.264 392.694 228.347 391.481 238.451L435.967 229.964Z" fill="white"/>
<path d="M661.634 247.747C661.634 247.747 668.105 250.576 672.554 246.13C677.002 241.685 678.216 236.026 677.407 232.389C676.598 228.752 674.171 222.285 668.105 221.477C662.039 220.669 658.399 224.71 658.399 224.71C658.399 224.71 643.84 226.731 626.854 212.99C609.868 199.653 604.206 189.145 604.206 189.145C604.206 189.145 595.309 204.098 594.5 213.394C594.5 213.394 593.287 236.835 593.287 242.089C593.287 246.939 592.074 269.167 605.824 275.634C605.824 275.634 613.104 279.675 616.744 279.675V291.8L634.538 319.282L662.443 289.375L662.848 271.592L643.435 271.188C643.435 271.188 652.737 269.167 656.377 260.68C660.421 251.788 661.634 247.343 661.634 247.747Z" fill="white"/>
<path d="M205.446 431.233L217.579 422.342C217.579 422.342 225.263 434.062 238.204 431.637C250.741 429.212 255.19 420.321 255.999 413.45C256.808 406.58 256.808 393.647 252.359 381.118C247.101 367.781 245.888 363.739 245.888 363.739C245.888 363.739 232.542 369.802 228.094 351.615C223.645 333.428 241.844 335.449 243.462 338.682C243.462 338.682 249.124 332.62 256.808 301.904C256.808 301.904 272.176 307.966 284.308 309.583C296.036 310.795 308.574 309.987 308.574 309.987L313.022 337.469C313.022 337.469 319.897 305.541 311.809 292.608C304.529 281.292 295.228 265.53 266.918 270.38C262.469 271.188 258.425 272.805 253.168 274.421C253.168 274.421 243.866 276.038 233.351 278.867C223.241 281.696 213.13 282.909 207.468 295.437C207.468 295.437 202.211 308.774 207.064 331.811C212.321 354.848 214.748 374.247 213.534 390.009C212.726 405.771 212.321 415.875 205.446 431.233Z" fill="url(#paint1_linear_156_1895)"/>
<path d="M291.992 409.813C291.992 409.813 308.574 416.683 315.449 404.963C321.111 395.263 316.662 385.967 313.022 377.884C313.022 377.884 310.596 385.159 301.698 387.988C292.397 390.413 291.992 389.605 291.992 389.605V409.813Z" fill="url(#paint2_linear_156_1895)"/>
<path d="M490.969 339.49C490.969 339.49 515.638 405.771 516.852 515.297H624.832C624.832 515.297 625.641 446.591 617.148 405.367C608.656 363.739 598.949 339.894 598.949 339.894L490.969 339.49Z" fill="url(#paint3_linear_156_1895)"/>
<path d="M653.546 447.399L639.391 439.316C639.391 439.316 633.729 434.062 632.921 424.362C632.112 414.663 632.516 413.854 632.921 409.409C633.325 404.963 634.134 401.73 630.494 401.73C626.854 401.325 624.023 404.155 621.597 409.004C618.766 413.854 616.339 423.15 618.361 431.233C618.361 431.233 610.677 432.849 596.927 429.212C583.177 425.171 577.11 420.725 569.831 418.704C562.551 416.683 558.103 419.108 557.294 422.341C556.485 425.575 562.551 434.062 593.692 443.762C593.692 443.762 579.132 442.953 571.853 438.912C564.573 434.87 558.507 431.637 556.08 431.637C553.654 431.637 551.632 436.083 553.654 438.912C555.272 441.741 559.72 446.187 559.72 446.187C559.72 446.187 555.676 448.207 557.294 453.057C559.316 457.907 562.551 463.969 590.052 469.627C617.553 475.69 633.729 482.965 633.729 482.965L653.546 447.399Z" fill="white"/>
<path d="M831.088 520.147C831.088 520.147 824.617 512.872 830.683 495.089C836.75 477.306 830.279 458.311 807.631 455.886C784.983 453.461 773.66 474.881 776.895 489.027C779.726 503.172 780.939 507.214 776.895 520.955C772.851 534.696 775.277 573.091 814.102 571.878C848.882 571.07 844.434 534.696 831.088 520.147Z" fill="white"/>
<path d="M780.535 448.208C786.342 448.208 791.05 440.97 791.05 432.041C791.05 423.113 786.342 415.875 780.535 415.875C774.727 415.875 770.02 423.113 770.02 432.041C770.02 440.97 774.727 448.208 780.535 448.208Z" fill="white"/>
<path d="M444.459 112.76C442.437 128.118 430.304 139.03 412.51 142.263C410.488 142.667 408.87 143.071 406.443 143.475C406.443 149.134 406.443 154.388 406.443 160.046C401.186 160.046 396.737 160.046 391.075 160.046C391.075 154.792 391.075 149.538 391.075 143.475C369.237 141.051 356.7 129.734 352.251 109.931C360.339 107.91 368.023 106.293 376.112 104.273C376.921 105.889 377.325 107.506 377.73 108.718C381.774 120.439 395.12 126.501 407.657 121.651C413.319 119.63 416.15 115.185 416.554 109.527C416.958 104.677 414.532 100.635 409.679 98.2102C403.208 95.3811 396.333 93.3604 389.862 90.5313C386.222 89.3188 382.987 88.1063 379.347 86.4897C362.362 79.215 354.678 66.6862 356.7 50.1158C359.126 34.3538 369.641 24.25 388.245 20.6126C389.053 20.6126 389.862 20.2084 391.075 19.8043C391.075 15.7627 391.075 11.317 391.075 6.87134C396.333 6.87134 406.039 6.87134 406.039 6.87134L406.443 19.4001C406.443 19.4001 409.679 19.8043 418.576 22.6334C430.709 27.0791 437.584 35.5663 441.628 47.2868C434.753 50.1158 427.473 52.5408 420.598 55.3699C417.767 51.3283 415.745 47.6909 412.914 44.0535C408.466 38.7995 401.995 37.5871 395.12 39.2037C389.862 40.4161 386.222 44.0535 385.414 49.3075C384.605 54.5615 386.222 59.0072 391.884 61.4322C397.546 63.8571 403.208 65.8779 408.87 68.3028C413.723 70.3236 418.576 71.9402 423.025 73.9609C440.415 82.044 447.29 94.5728 444.459 112.76Z" fill="url(#paint4_linear_156_1895)"/>
<path d="M11.3238 580.366L0 540.355C0 526.209 11.7282 514.489 25.883 514.489H204.637C218.792 514.489 226.072 525.805 230.521 540.355L257.212 634.523C257.212 648.668 245.484 660.388 231.329 660.388H52.5749C38.4201 660.388 31.5449 650.285 26.6918 634.523L18.6034 606.232L11.3238 580.366Z" fill="url(#paint5_linear_156_1895)"/>
<path d="M137.474 599.204C143.686 597.371 146.928 589.811 144.714 582.318C142.5 574.826 135.669 570.237 129.457 572.071C123.244 573.904 120.003 581.464 122.217 588.957C124.431 596.449 131.261 601.038 137.474 599.204Z" fill="white"/>
<path d="M262.874 638.968H356.296C356.296 638.968 359.935 641.393 359.935 645.839C359.935 650.285 355.082 651.901 355.082 651.901H259.639L262.874 638.968Z" fill="url(#paint6_linear_156_1895)"/>
<path d="M254.786 417.492C254.786 417.492 262.47 423.958 273.389 424.362C284.308 424.362 290.779 413.45 291.992 410.217L297.25 411.833C297.25 411.833 323.133 444.166 301.294 449.824C279.455 455.078 272.176 432.041 272.176 432.041C272.176 432.041 262.874 457.099 244.675 448.611C244.675 448.611 234.969 444.974 238.204 431.637C238.204 430.829 250.337 430.425 254.786 417.492Z" fill="white"/>
<path d="M608.655 299.883L614.317 288.566L634.538 319.282L665.679 285.333L670.127 301.095L629.281 392.838L608.655 299.883Z" fill="url(#paint7_linear_156_1895)"/>
<path d="M877.191 632.906C875.978 621.994 871.933 614.315 865.058 609.869C858.587 605.828 851.308 605.424 845.646 606.232V603.403C842.815 598.957 825.829 596.937 810.057 596.937C792.667 596.937 774.468 599.361 774.468 604.211V674.534C774.468 678.576 792.262 680.596 810.057 680.596C826.234 680.596 842.411 678.98 845.242 675.747C845.646 675.342 845.646 670.897 845.646 670.897C851.308 670.088 862.227 667.259 869.911 658.772C875.573 651.497 878 643.01 877.191 632.906ZM845.242 618.357C848.881 617.548 854.139 617.548 858.183 619.973C861.823 622.398 864.249 627.248 865.058 634.119C865.867 640.989 864.249 646.243 860.61 650.285C856.565 655.135 850.095 657.155 845.242 658.368V618.357Z" fill="#343B43"/>
<path d="M809.652 610.273C829.084 610.273 844.837 607.378 844.837 603.807C844.837 600.235 829.084 597.34 809.652 597.34C790.22 597.34 774.468 600.235 774.468 603.807C774.468 607.378 790.22 610.273 809.652 610.273Z" fill="white"/>
<path d="M809.653 681C806.013 681 773.659 681 773.659 674.129C773.659 673.321 774.064 672.917 774.872 672.917C775.681 672.917 776.086 673.321 776.086 674.129C776.895 675.746 787.814 678.575 809.653 678.575C830.278 678.575 842.815 676.15 843.624 674.129C843.624 673.321 844.029 672.917 844.837 672.917C845.646 672.917 846.051 673.321 846.051 674.129C846.051 680.596 811.27 681 809.653 681Z" fill="#343B43"/>
<path d="M806.821 569.858C793.475 569.858 783.365 565.412 776.49 556.117C766.783 543.184 767.592 525.401 770.019 517.318C774.063 504.385 772.85 500.344 770.423 487.815L770.019 486.198C768.401 478.115 770.828 468.82 776.49 461.949C781.747 455.078 789.836 451.441 798.328 451.441C799.542 451.441 800.755 451.441 801.968 451.441C811.674 452.653 819.358 456.695 823.807 463.566C828.66 471.244 829.469 481.348 826.234 491.856C820.572 508.427 826.638 515.297 826.638 515.701C834.726 524.593 840.388 541.567 834.726 554.5C831.895 560.967 825.02 569.05 808.439 569.858C808.035 569.858 807.63 569.858 806.821 569.858ZM798.733 453.866C788.622 453.866 782.152 459.12 778.512 463.566C773.254 470.032 770.828 478.519 772.445 485.794L772.85 487.411C775.681 499.939 776.49 504.789 772.445 518.126C770.019 526.614 770.019 543.588 778.512 554.904C784.982 563.796 795.093 567.837 808.439 567.433C820.572 567.029 828.66 562.179 832.3 553.692C837.153 541.971 832.3 525.401 824.616 517.318C824.211 516.914 817.741 509.639 823.807 491.452C827.042 481.752 826.234 472.053 821.785 465.182C817.741 458.716 810.865 455.078 801.564 453.866C800.755 453.866 799.946 453.866 798.733 453.866Z" fill="#343B43"/>
<path d="M775.681 446.186C769.211 446.186 763.953 438.508 763.953 428.808C763.953 419.108 769.211 411.429 775.681 411.429C782.152 411.429 787.41 419.108 787.41 428.808C787.41 438.508 782.152 446.186 775.681 446.186ZM775.681 413.854C770.424 413.854 766.38 420.725 766.38 428.808C766.38 437.295 770.424 443.762 775.681 443.762C780.939 443.762 784.983 436.891 784.983 428.808C784.983 420.321 780.939 413.854 775.681 413.854Z" fill="#343B43"/>
<path d="M845.242 670.897C844.028 669.28 844.433 668.472 845.242 668.472C850.904 667.664 861.419 664.835 868.698 656.751C874.36 650.689 876.382 642.606 875.573 632.906C874.764 622.803 870.72 615.528 864.249 611.082C857.779 607.041 850.499 607.041 845.242 607.849C844.433 607.849 844.028 607.445 844.028 606.636C844.028 605.828 844.433 605.424 845.242 605.424C850.904 604.616 858.992 604.616 865.867 609.061C873.147 613.507 877.191 621.59 878.404 632.502C879.213 642.606 876.787 651.497 871.125 657.964C862.227 667.259 851.308 670.089 845.242 670.897ZM845.242 659.985C844.028 658.368 844.433 657.56 844.837 657.56C849.69 656.751 856.161 654.327 860.205 649.881C863.441 645.839 865.058 640.989 864.249 634.523C863.441 627.652 861.419 623.207 857.779 620.782C853.735 618.357 848.477 618.357 844.837 619.165C844.028 619.165 843.624 618.761 843.624 618.357C843.624 617.549 844.028 617.144 844.433 617.144C850.499 615.932 855.352 616.74 859.396 619.165C863.845 621.994 866.272 627.248 867.08 634.523C867.889 641.798 866.272 647.456 862.227 651.902C857.374 656.751 850.499 659.176 845.242 659.985Z" fill="#343B43"/>
<path d="M774.872 675.342C774.064 675.342 773.659 674.938 773.659 674.13V603.807C773.659 602.999 774.064 602.594 774.872 602.594C775.681 602.594 776.086 602.999 776.086 603.807V674.13C776.086 674.938 775.277 675.342 774.872 675.342Z" fill="#343B43"/>
<path d="M844.837 675.746C844.028 675.746 843.624 675.342 843.624 674.534V603.402C843.624 602.594 844.028 602.19 844.837 602.19C845.646 602.19 846.05 602.594 846.05 603.402V674.534C846.05 675.342 845.646 675.746 844.837 675.746Z" fill="#343B43"/>
<path d="M809.653 611.89C797.116 611.89 773.255 610.273 773.255 604.211C773.255 598.149 797.116 596.532 809.653 596.532C822.19 596.532 846.051 598.149 846.051 604.211C846.051 610.273 822.19 611.89 809.653 611.89ZM809.653 598.553C787.814 598.553 775.681 602.19 775.681 603.807C775.681 605.828 787.814 609.061 809.653 609.061C831.492 609.061 843.624 605.424 843.624 603.807C843.624 602.19 831.896 598.553 809.653 598.553Z" fill="#343B43"/>
<path d="M412.51 155.6H397.142C396.333 155.6 395.929 155.196 395.929 154.387V138.625C374.495 135.796 361.958 124.884 357.104 104.272C357.104 103.464 357.509 103.06 357.913 102.656L381.774 96.9974C382.179 96.9974 382.987 96.9974 382.987 97.8057C384.201 100.231 384.605 101.443 384.605 102.251C387.436 110.739 395.525 115.993 404.422 115.993C407.253 115.993 410.084 115.589 412.915 114.376C417.768 112.355 420.599 108.718 421.003 103.464C421.408 99.0182 419.385 95.3808 414.937 93.36C410.488 91.3393 405.635 89.7226 400.782 88.106C398.76 87.2977 397.142 86.8936 395.12 86.0853C393.907 85.6811 392.694 85.2769 391.48 84.8728C389.054 84.0645 387.032 83.2562 384.605 82.4479C366.811 74.7689 359.127 62.2402 361.149 44.8615C363.171 27.887 374.09 17.379 393.098 13.7416C394.716 13.3375 394.716 1.617 394.716 1.617C394.716 0.808695 395.12 0.404541 395.929 0.404541H410.893C411.701 0.404541 412.106 0.808695 412.106 1.617L412.51 13.3375C414.128 13.7416 417.768 14.5499 423.834 16.5707C435.562 20.6123 443.246 28.6953 447.695 42.0324C448.099 42.8407 447.695 43.2449 446.886 43.6491L425.856 51.7321C423.43 50.1155 422.621 48.9031 422.216 47.6906C420.599 45.2657 418.981 42.4366 416.959 40.4158C412.915 35.9701 407.253 34.3535 400.378 35.9701C395.525 37.1826 392.289 40.4158 391.48 44.8615C390.672 50.1155 392.289 53.7529 397.142 55.7737C401.186 57.3903 405.231 59.0069 409.275 60.6235C410.893 61.0277 412.51 61.836 414.128 62.2401C415.746 63.0485 417.363 63.4526 418.981 63.8568C422.216 65.0692 425.452 66.2817 428.283 67.4942C446.482 75.5772 453.761 88.106 451.335 107.101C449.313 122.863 436.371 134.584 418.172 137.817C416.959 138.221 415.746 138.221 414.128 138.625C412.915 139.029 412.915 154.387 412.915 154.387C413.724 154.791 413.319 155.6 412.51 155.6ZM398.356 153.175H411.297V137.413C412.106 136.2 414.532 135.796 414.532 135.796C416.15 135.392 417.363 134.988 418.577 134.988C435.967 131.755 447.695 121.247 449.717 106.293C452.144 88.5102 445.268 76.7897 428.283 69.1108C425.047 67.8983 422.216 66.6858 418.981 65.4734C417.363 65.0692 415.746 64.2609 414.128 63.4526C412.51 62.6443 410.893 62.2401 409.275 61.836C405.231 60.2194 401.186 58.6028 397.142 56.9861C391.48 54.5612 389.054 49.7114 389.863 43.2449C390.672 37.5867 394.716 33.5452 400.378 32.3327C408.062 30.312 414.937 32.3327 419.385 37.5867C421.408 40.0117 423.025 42.4366 424.643 45.2657C425.047 46.074 425.856 47.2864 426.665 48.0947L445.673 40.82C441.629 29.0995 434.349 21.8247 423.834 18.1873C415.341 15.3583 412.106 14.9541 412.106 14.9541C411.701 14.9541 410.893 14.5499 410.893 13.7416L410.488 2.42531H397.951V14.1458C395.525 15.7624 394.716 15.7624 394.311 16.1666C376.517 19.8039 366.406 29.5036 364.384 45.2657C362.362 61.4318 369.642 73.5565 386.223 80.4271C388.245 81.2354 390.671 82.0437 393.098 82.852C394.311 83.2562 395.525 83.6603 396.738 84.0645C398.76 84.8728 400.378 85.2769 402.4 86.0853C407.253 87.7019 412.106 89.7226 416.555 91.3393C421.812 93.7642 424.643 98.2099 424.239 103.868C423.834 110.335 420.599 114.78 414.532 116.801C411.297 118.013 408.466 118.418 405.231 118.418C395.12 118.418 386.223 112.355 382.987 103.06C382.583 102.251 382.179 101.039 381.774 100.231C381.37 99.8265 359.935 105.081 359.935 105.081C364.788 124.076 376.921 134.18 397.547 136.605C398.356 136.605 398.76 137.009 398.76 137.817V153.175H398.356Z" fill="#343B43"/>
<path d="M243.462 652.709H64.7071C47.7213 652.709 41.655 638.968 37.6108 626.035L29.5224 597.744C29.5224 596.936 29.5224 596.532 30.3312 596.128C31.14 596.128 31.5445 596.128 31.9489 596.936L40.0373 625.227C45.2948 643.01 52.5744 650.284 64.7071 650.284H243.462C257.212 650.284 268.131 639.372 268.131 625.631L241.439 531.463C236.182 514.084 228.498 506.406 216.77 506.406H38.0152C24.2649 506.406 13.3455 517.318 13.3455 531.059L24.6693 571.07C24.6693 571.879 24.6693 572.283 23.8604 572.687C23.0516 572.687 22.6472 572.687 22.2428 571.878L10.9189 531.867C10.9189 516.509 23.0516 504.385 38.0152 504.385H216.77C233.351 504.385 240.226 519.743 243.866 531.059L270.558 625.227C270.558 640.585 258.425 652.709 243.462 652.709Z" fill="#343B43"/>
<path d="M235.373 652.71C234.564 652.71 234.159 652.305 234.159 651.497C234.159 650.689 234.564 650.285 235.373 650.285C249.123 650.285 260.042 639.777 260.042 626.439L233.351 535.505C228.093 518.934 220.409 511.255 208.681 511.255H23.0512C22.2423 511.255 21.8379 510.851 21.8379 510.043C21.8379 509.235 22.2423 508.831 23.0512 508.831H208.681C225.262 508.831 232.137 523.784 235.777 534.696L262.469 625.631C262.469 640.989 250.336 652.71 235.373 652.71Z" fill="#343B43"/>
<path d="M353.869 652.709H244.675C243.866 652.709 243.462 652.305 243.462 651.497C243.462 650.688 243.866 650.284 244.675 650.284H353.869C356.7 650.284 359.127 647.859 359.127 645.03C359.127 642.201 356.7 639.776 353.869 639.776H265.705C264.896 639.776 264.492 639.372 264.492 638.564C264.492 637.755 264.896 637.351 265.705 637.351H354.273C358.318 637.351 361.957 640.584 361.957 645.03C361.553 649.476 358.318 652.709 353.869 652.709Z" fill="#343B43"/>
<path d="M129.414 593.703C123.348 593.703 117.686 588.853 116.069 582.386C114.855 578.345 115.26 574.707 116.473 571.07C118.091 567.433 120.517 565.008 124.157 564.199C125.37 563.795 126.179 563.795 127.392 563.795C133.459 563.795 139.121 568.645 141.143 575.112C143.569 583.195 139.929 591.278 133.054 593.298C131.437 593.703 130.628 593.703 129.414 593.703ZM126.988 566.22C126.179 566.22 125.37 566.22 124.561 566.624C121.73 567.433 119.708 569.453 118.495 572.282C117.282 575.112 116.877 578.749 118.091 581.982C119.708 587.64 124.561 591.682 129.414 591.682C130.223 591.682 131.032 591.682 131.841 591.278C137.503 589.661 140.334 582.79 138.312 575.92C136.694 569.857 132.245 566.22 126.988 566.22Z" fill="#343B43"/>
<path d="M307.361 339.894C308.17 339.894 308.979 339.086 308.979 337.874L308.574 332.62C308.574 331.811 307.766 331.003 306.552 331.003C305.743 331.003 304.935 331.811 304.935 333.024L305.339 338.278C305.339 339.086 306.148 339.894 307.361 339.894Z" fill="#343B43"/>
<path d="M277.433 343.128C278.242 343.128 279.051 342.319 279.051 341.107L278.647 335.853C278.647 335.045 277.838 334.236 276.625 334.236C275.816 334.236 275.007 335.045 275.007 336.257L275.411 341.511C275.411 342.319 276.22 343.128 277.433 343.128Z" fill="#343B43"/>
<path d="M241.036 365.76C239.418 365.76 237.8 365.356 236.991 364.951C231.734 362.931 228.499 357.272 227.285 353.231C225.263 345.956 226.477 337.469 234.969 335.044C241.845 333.023 246.293 339.49 246.698 339.894C247.102 340.298 247.102 341.106 246.293 341.51C245.889 341.915 245.08 341.915 244.676 341.106C244.676 340.702 241.036 335.852 235.778 337.469C226.881 339.894 228.903 349.594 229.712 352.423C230.521 356.06 233.756 360.91 237.8 362.526C241.036 363.739 244.676 363.335 248.315 360.506C248.72 360.102 249.529 360.102 249.933 360.91C250.337 361.314 250.337 362.122 249.529 362.526C246.293 365.356 243.462 365.76 241.036 365.76Z" fill="#343B43"/>
<path d="M239.014 359.294C237.801 358.486 237.801 357.677 238.205 357.273L244.676 351.615L234.161 344.744C233.756 344.34 233.352 343.532 233.756 343.128C234.161 342.724 234.97 342.319 235.374 342.724L247.507 350.807C247.507 352.827 240.227 359.294 240.227 359.294C239.418 359.294 239.418 359.294 239.014 359.294Z" fill="#343B43"/>
<path d="M289.161 376.673C287.948 376.673 286.33 376.268 285.117 375.864C281.477 374.652 278.242 371.419 277.029 367.377C276.22 364.548 276.22 362.123 277.029 360.506C277.837 359.294 279.455 358.486 280.668 358.486C282.69 358.486 284.713 359.698 285.926 362.123C287.139 364.548 287.544 364.952 288.352 364.952C289.566 364.952 290.374 364.952 291.992 364.144C294.419 362.931 297.25 363.335 298.867 364.952C299.676 365.76 300.081 366.973 300.081 368.185C300.081 372.227 295.228 376.673 289.161 376.673ZM280.668 361.315C279.859 361.315 279.455 361.719 279.051 362.527C278.646 363.335 278.242 364.952 279.051 366.973C280.264 370.206 282.69 373.035 285.521 373.843C286.735 374.248 287.948 374.248 288.757 374.248C293.61 374.248 297.654 370.61 297.654 368.589C297.654 367.781 297.654 367.377 297.25 366.973C296.441 366.165 294.823 366.165 293.205 366.973C291.183 367.781 289.97 368.185 289.161 368.185C286.33 367.377 285.521 366.973 283.904 363.74C283.095 362.123 281.882 361.315 280.668 361.315Z" fill="#343B43"/>
<path d="M234.161 432.446C222.837 432.446 216.366 422.746 216.366 422.746C215.962 422.342 215.962 421.534 216.771 421.129C217.175 420.725 217.984 420.725 218.388 421.534C218.793 422.342 228.903 436.891 245.889 426.788C266.515 414.259 244.676 364.952 244.676 364.548C244.271 363.74 244.676 363.335 245.485 362.931C245.889 362.527 246.698 362.931 247.102 363.74C247.911 365.76 269.75 415.471 247.507 429.213C242.249 431.637 238.205 432.446 234.161 432.446Z" fill="#343B43"/>
<path d="M285.117 391.222C282.286 391.222 279.455 391.222 277.029 390.818C276.22 390.818 275.815 390.009 275.815 389.605C275.815 388.797 276.22 388.393 277.029 388.393C281.073 388.797 285.926 388.797 291.992 388.393C296.845 388.393 300.485 387.584 303.721 385.968C308.574 383.543 311.809 379.501 313.022 372.631C315.044 361.719 313.427 349.998 312.213 339.086C311 331.407 310.191 325.749 309.382 319.686L307.36 310.391C306.956 309.583 307.36 309.178 308.169 308.774C308.978 308.37 309.382 308.774 309.787 309.583C309.787 310.391 311.405 319.686 311.405 319.686C312.213 325.749 313.427 331.811 314.236 337.469C315.853 350.402 317.471 362.123 315.449 373.439C313.831 381.118 310.596 385.968 304.529 388.393C300.081 390.413 295.228 390.818 291.992 390.818C289.566 391.222 287.139 391.222 285.117 391.222Z" fill="#343B43"/>
<path d="M295.632 357.273C294.419 355.656 294.823 354.848 295.228 354.848C299.676 354.039 304.125 352.827 305.338 352.019C293.61 337.065 290.375 329.79 289.97 329.386C289.566 328.982 289.97 328.174 290.375 327.769C290.779 327.365 291.588 327.769 291.992 328.174C291.992 328.174 295.228 335.448 307.36 350.402C307.765 350.806 307.765 351.615 307.765 352.423C306.956 354.848 299.676 356.464 295.632 357.273Z" fill="#343B43"/>
<path d="M243.462 339.894C242.249 339.086 242.249 338.682 242.653 337.874C248.719 329.79 253.572 309.987 255.19 303.52C255.999 300.691 255.999 300.691 256.403 300.691C283.5 310.391 298.868 309.987 308.574 308.774C309.383 308.774 309.787 309.179 309.787 309.987C309.787 310.795 309.383 311.199 308.574 311.199C299.272 312.412 283.5 312.816 257.617 303.52C255.595 311.199 250.337 331.407 244.271 339.49C244.271 339.894 243.866 339.894 243.462 339.894Z" fill="#343B43"/>
<path d="M266.918 322.92C265.705 322.111 265.705 321.303 266.109 320.899C266.513 320.495 272.58 314.432 283.095 315.241C283.904 315.241 284.308 316.049 284.308 316.453C284.308 317.261 283.499 317.666 283.095 317.666C273.793 316.857 268.131 322.515 268.131 322.515C267.727 322.92 267.322 322.92 266.918 322.92Z" fill="#343B43"/>
<path d="M310.192 316.049C309.383 315.645 306.148 312.816 299.272 315.645C298.464 316.049 298.059 315.645 297.655 314.837C297.25 314.028 297.655 313.624 298.464 313.22C306.956 309.583 311.001 313.624 311.001 314.028C311.405 314.433 311.405 315.241 311.001 315.645C311.001 316.049 310.596 316.049 310.192 316.049Z" fill="#343B43"/>
<path d="M601.78 227.135C600.971 227.135 600.162 226.327 600.162 225.518L600.567 221.073C600.567 220.264 601.375 219.456 602.184 219.456C602.993 219.456 603.802 220.264 603.802 221.073L603.398 225.518C603.802 226.731 602.993 227.135 601.78 227.135Z" fill="#343B43"/>
<path d="M630.898 229.964C630.089 229.964 629.28 229.156 629.28 228.347L629.685 223.902C629.685 223.093 630.494 222.285 631.302 222.285C632.111 222.285 632.92 223.093 632.92 223.902L632.516 228.347C632.516 229.56 631.707 230.368 630.898 229.964Z" fill="#343B43"/>
<path d="M598.949 212.99C597.736 212.182 597.736 211.373 598.14 210.969C598.14 210.969 601.78 207.332 609.464 210.565C610.273 210.969 610.273 211.373 610.273 212.182C609.869 212.99 609.464 212.99 608.655 212.99C602.589 210.565 600.162 212.99 599.758 212.99C599.758 212.99 599.354 212.99 598.949 212.99Z" fill="#343B43"/>
<path d="M205.042 432.446C203.828 432.042 203.828 431.233 203.828 430.829C211.512 414.259 217.579 389.201 205.446 331.003C204.233 325.749 203.828 317.262 203.424 306.35C203.424 293.821 211.917 282.505 224.454 279.676L252.359 273.209C260.447 269.976 268.131 268.359 275.007 268.763C290.375 268.763 311 272.805 315.853 306.754C316.662 314.029 315.449 328.174 313.427 337.874C313.427 338.682 312.618 339.086 312.213 338.682C311.404 338.682 311 337.874 311.404 337.47C313.427 327.77 314.64 314.433 313.831 307.158C309.382 275.23 291.183 271.188 275.411 271.188C268.536 270.784 261.256 272.401 253.168 275.634L224.858 282.101C213.534 284.93 205.446 295.033 205.85 306.35C205.85 317.262 206.659 325.345 207.872 330.599C220.005 389.606 213.939 415.067 206.255 431.638C206.255 432.446 205.85 432.446 205.042 432.446Z" fill="#343B43"/>
<path d="M460.232 652.709C459.019 652.305 459.019 651.901 459.019 651.093C459.019 650.689 469.534 617.548 427.474 508.022C394.311 421.129 344.568 411.833 314.64 406.579C313.832 406.579 313.427 405.771 313.832 405.367C313.832 404.559 314.64 404.155 315.045 404.559C345.376 410.217 395.929 419.512 429.901 507.618C471.961 618.356 461.85 651.093 461.446 652.305C461.041 652.709 460.637 652.709 460.232 652.709Z" fill="#343B43"/>
<path d="M379.752 602.594C378.943 602.594 378.539 602.19 378.539 601.382C378.943 561.775 347.398 489.835 346.994 489.027C346.589 488.219 346.994 487.814 347.802 487.41C348.207 487.006 349.016 487.41 349.42 488.219C349.825 489.027 381.774 561.371 380.965 601.382C380.561 602.19 380.156 602.594 379.752 602.594Z" fill="#343B43"/>
<path d="M160.556 506.81C159.747 506.81 159.343 506.001 159.343 505.193C169.049 458.715 199.381 432.445 216.771 420.725C217.175 420.321 217.984 420.321 218.388 421.129C218.793 421.533 218.793 422.342 217.984 422.746C200.998 434.062 171.071 459.928 161.769 505.597C161.769 506.406 161.365 506.81 160.556 506.81Z" fill="#343B43"/>
<path d="M741.306 652.71H514.829C514.021 652.71 513.616 652.305 513.616 651.497C513.616 650.689 514.021 650.285 514.829 650.285H741.306C742.115 650.285 742.519 650.689 742.519 651.497C742.519 652.305 741.71 652.71 741.306 652.71Z" fill="#343B43"/>
<path d="M476.005 652.71H306.552C305.743 652.71 305.339 652.305 305.339 651.497C305.339 650.689 305.743 650.285 306.552 650.285H476.005C476.814 650.285 477.218 650.689 477.218 651.497C477.218 652.305 476.814 652.71 476.005 652.71Z" fill="#343B43"/>
<path d="M295.228 640.181C294.015 638.968 294.015 638.564 294.42 638.16C303.317 631.694 314.236 619.569 314.641 619.569C315.045 619.165 315.854 619.165 316.258 619.569C316.663 619.973 316.663 620.781 316.258 621.186C315.854 621.59 304.935 633.31 296.037 640.181C296.037 640.181 295.633 640.181 295.228 640.181Z" fill="#343B43"/>
<path d="M286.331 640.181C285.522 639.777 285.117 639.373 285.117 638.564C285.926 635.735 287.544 632.502 289.566 628.461C285.926 632.502 282.286 636.544 279.051 639.777C278.646 640.181 277.838 640.181 277.433 639.777C277.029 639.373 277.029 638.564 277.433 638.16C287.139 629.269 301.294 609.869 301.294 609.869C301.699 609.465 302.507 609.061 302.912 609.465C303.316 609.869 303.721 610.678 303.316 611.082C303.316 611.082 289.97 630.481 287.544 639.373C287.544 639.777 286.735 640.181 286.331 640.181Z" fill="#343B43"/>
<path d="M269.345 640.181C268.536 640.181 268.131 639.373 268.131 638.564C268.94 635.331 270.962 630.885 273.793 626.44C272.58 627.652 271.367 628.865 269.749 630.481C269.345 630.885 268.536 630.885 268.131 630.481C267.727 630.077 267.727 629.269 268.131 628.865C274.602 622.802 280.264 616.336 283.499 612.294C284.713 610.678 285.522 609.869 285.522 609.465C285.926 609.061 286.735 608.657 287.139 609.061C287.544 609.465 287.948 610.273 287.544 610.678C287.139 611.486 286.33 612.294 285.522 613.507C281.477 619.165 271.771 632.502 270.558 639.372C270.154 639.777 269.749 640.181 269.345 640.181Z" fill="#343B43"/>
<path d="M265.705 614.315C264.492 613.911 264.492 613.103 264.896 612.294C268.94 605.828 279.86 591.278 287.948 589.662C299.676 587.641 346.589 595.724 348.612 596.128C349.42 596.128 349.825 596.936 349.42 597.341C349.42 598.149 348.612 598.553 348.207 598.149C347.803 598.149 300.081 589.662 288.353 591.682C283.5 592.491 275.411 600.574 266.918 613.103C266.514 614.315 266.109 614.315 265.705 614.315Z" fill="#343B43"/>
<path d="M668.105 240.876C667.296 240.472 660.825 236.026 660.825 236.026C660.825 234.005 667.296 227.135 667.296 227.135C667.7 226.731 668.509 226.731 668.914 227.135C669.318 227.539 669.318 228.347 668.914 228.751L663.252 234.814L668.509 238.451C668.914 238.855 669.318 239.663 668.914 240.068C668.914 240.876 668.509 240.876 668.105 240.876Z" fill="#343B43"/>
<path d="M610.272 247.343C607.037 244.918 604.206 240.472 604.206 240.068C605.015 238.047 611.081 237.239 611.081 237.239C611.89 234.814 613.912 226.731 613.912 215.414C613.912 214.606 614.317 214.202 615.125 214.202C615.934 214.202 616.339 214.606 616.339 215.414C616.339 229.56 613.103 238.451 613.103 238.855C612.294 239.664 607.037 240.472 607.037 240.472C607.846 242.089 609.464 244.109 611.081 245.322C611.486 245.726 611.486 246.534 611.081 246.938C610.677 247.343 610.677 247.343 610.272 247.343Z" fill="#343B43"/>
<path d="M623.214 280.888C613.912 280.888 606.228 278.059 600.971 272.805C591.669 263.105 591.264 247.747 592.073 239.664C592.882 232.389 592.882 213.798 592.882 213.798C592.882 212.99 593.286 212.586 594.095 212.586C594.904 212.586 595.309 212.99 595.309 213.798C595.309 214.606 594.904 232.389 594.5 240.068C593.691 247.747 593.691 262.297 602.588 271.188C608.25 276.846 616.339 279.271 626.853 278.463C627.662 278.463 628.067 278.867 628.067 279.675C628.067 280.484 627.662 280.888 626.853 280.888C625.64 280.888 624.427 280.888 623.214 280.888Z" fill="#343B43"/>
<path d="M665.679 249.768C662.443 249.768 660.017 248.555 657.59 246.13C657.186 245.726 657.186 244.918 657.59 244.514C657.995 244.109 658.803 244.109 659.208 244.514C660.826 246.13 662.848 247.343 665.274 247.343C668.105 247.343 670.532 246.13 672.554 243.705C674.576 241.28 675.789 238.451 675.789 234.814C675.789 231.177 674.576 227.539 672.554 225.114C670.936 223.093 668.51 221.881 666.083 221.881C662.443 221.881 659.208 223.498 657.186 227.539C656.781 227.943 656.377 228.347 655.568 227.943C655.164 227.539 654.759 227.135 655.164 226.327C657.186 221.881 660.826 219.456 665.679 219.456C669.318 219.456 672.149 221.073 674.171 223.498C676.598 226.327 678.216 230.772 677.811 234.814C677.811 238.855 676.194 242.089 674.171 244.918C672.149 248.151 669.318 249.768 665.679 249.768Z" fill="#343B43"/>
<path d="M629.685 395.263C628.471 394.455 607.441 300.287 607.441 300.287C607.441 299.479 613.103 288.162 613.103 288.162C615.125 288.162 634.538 318.07 634.538 318.07L664.465 284.929C666.487 285.333 670.936 301.095 670.936 301.095C670.936 301.903 630.493 394.859 630.493 394.859C630.493 394.859 630.089 395.263 629.685 395.263ZM609.868 300.287L630.089 390.009L668.914 300.691L664.869 287.758L635.347 320.495C633.324 320.495 614.317 290.991 614.317 290.991L609.868 300.287Z" fill="#343B43"/>
<path d="M616.744 293.416C615.935 293.416 615.53 293.012 615.53 292.204V279.271C615.53 278.462 615.935 278.058 616.744 278.058C617.552 278.058 617.957 278.462 617.957 279.271V292.204C617.957 293.012 617.552 293.416 616.744 293.416Z" fill="#343B43"/>
<path d="M616.744 264.721C615.935 264.721 615.53 264.317 615.53 263.509C615.53 262.701 615.935 262.296 616.744 262.296C628.876 261.892 629.281 253.405 629.281 253.001C629.281 252.192 630.09 251.788 630.494 251.788C631.303 251.788 631.707 252.597 631.707 253.001C631.707 253.405 630.898 264.317 616.744 264.721Z" fill="#343B43"/>
<path d="M418.576 341.106C380.156 296.649 380.965 240.876 380.965 240.068C381.774 238.855 441.628 227.539 441.628 227.539C446.482 261.488 461.041 287.758 483.688 303.52C502.696 316.453 525.344 320.09 545.565 314.432C598.14 299.479 607.846 298.67 608.25 298.67C609.059 298.67 609.464 299.074 609.464 299.883C609.464 300.691 609.059 301.095 608.25 301.095C608.25 301.095 598.14 301.903 545.969 316.857C524.939 322.919 501.483 318.878 482.071 305.541C458.614 289.779 444.055 263.105 440.415 230.368L382.987 241.28C382.987 248.959 385.009 299.074 418.981 339.086C419.385 339.49 419.385 340.298 418.981 340.702C418.981 341.106 418.576 341.106 418.576 341.106Z" fill="#343B43"/>
<path d="M435.562 231.176C435.158 231.176 434.349 230.772 434.349 229.964C434.349 228.347 432.731 213.394 437.18 208.544C442.842 202.077 447.291 198.844 451.335 196.419C455.783 193.59 457.806 190.357 456.997 187.528C456.188 185.507 453.761 183.89 450.526 183.89C442.842 183.89 431.518 191.569 423.43 196.823C415.341 202.077 395.12 196.823 394.311 196.823C393.502 196.823 393.098 196.015 393.502 195.207C393.502 194.398 394.311 193.994 395.12 194.398C400.782 196.015 416.554 198.844 421.408 195.207C431.114 188.74 442.437 181.465 450.526 181.061C454.975 181.061 458.614 183.082 459.423 186.315C459.828 187.932 460.232 192.782 452.548 197.632C448.908 200.057 444.46 203.29 438.798 209.352C435.562 212.989 435.967 224.71 436.776 229.156C436.776 230.772 436.371 231.176 435.562 231.176Z" fill="#343B43"/>
<path d="M391.48 239.664C390.671 239.664 390.267 239.26 390.267 238.451C390.267 238.451 390.671 220.264 382.583 216.627C373.686 212.586 349.825 190.357 348.612 180.253C348.207 177.828 349.42 175.403 351.038 174.191C353.869 172.17 357.913 172.17 361.553 174.191C366.811 177.02 383.796 191.57 386.223 193.59C389.458 193.994 409.679 196.015 417.363 208.544C417.768 208.948 417.363 209.756 416.959 210.161C416.554 210.565 415.746 210.161 415.341 209.756C407.657 197.632 385.818 196.015 385.818 196.015C385.01 195.611 366.002 179.041 360.34 176.212C357.509 174.595 354.273 174.595 352.251 176.212C351.443 176.616 350.229 177.828 350.634 179.849C351.847 188.74 374.09 210.161 382.987 214.202C392.694 218.648 391.885 237.643 391.885 238.451C392.694 239.26 391.885 239.664 391.48 239.664Z" fill="#343B43"/>
<path d="M404.826 199.248C392.694 188.74 373.281 172.17 369.237 171.766C363.98 171.362 362.362 175.403 362.362 175.807C361.958 176.616 361.553 176.616 360.744 176.616C359.936 176.212 359.936 175.403 359.936 174.595C360.744 172.574 363.575 168.533 369.237 169.341C375.708 169.745 402.4 194.399 405.635 197.228C406.04 197.632 406.04 198.44 405.635 198.844C405.231 199.248 405.231 199.248 404.826 199.248Z" fill="#343B43"/>
<path d="M418.172 199.652C416.958 199.248 390.266 174.595 384.605 170.957C382.582 169.745 380.965 169.341 379.347 169.745C376.516 170.553 375.303 173.382 375.303 173.382C374.898 173.786 374.494 174.19 373.685 173.786C373.281 173.382 372.876 172.978 373.281 172.17C373.281 172.17 375.303 168.128 378.943 166.916C381.369 166.107 383.391 166.916 386.222 168.128C391.884 171.766 418.172 196.015 418.98 196.823C419.385 197.227 419.385 198.036 418.98 198.44C418.576 199.652 418.172 199.652 418.172 199.652Z" fill="#343B43"/>
<path d="M727.151 482.561C717.445 444.166 701.672 394.859 701.672 394.455C701.268 393.647 701.672 393.243 702.481 392.838C703.29 392.434 703.694 392.838 704.099 393.647C704.099 394.051 720.276 443.358 728.769 480.944C728.769 481.752 728.364 482.157 727.151 482.561C727.555 482.561 727.555 482.561 727.151 482.561Z" fill="#343B43"/>
<path d="M756.673 573.091C709.76 573.091 649.906 524.997 622.809 501.152C622.405 499.535 655.972 439.72 655.972 439.72C656.376 439.316 657.185 438.912 657.59 439.316C657.994 439.72 713.804 467.607 744.945 492.26C745.349 492.664 745.349 493.473 744.945 493.877C744.54 494.281 743.731 494.281 743.327 493.877C714.613 471.244 665.274 445.378 657.59 441.741L625.236 499.535C657.59 528.23 735.643 589.662 781.747 564.2C782.152 563.796 782.96 564.2 783.365 564.604C783.769 565.008 783.365 565.816 782.96 566.221C775.276 571.475 766.379 573.091 756.673 573.091Z" fill="#343B43"/>
<path d="M789.431 451.037C788.218 450.229 784.982 439.316 784.982 439.316C784.982 438.508 784.982 438.104 785.791 437.7C786.6 437.296 787.004 437.7 787.409 438.508L790.644 449.42C790.644 450.229 790.24 451.037 789.431 451.037Z" fill="#343B43"/>
<path d="M776.49 409.409C775.277 408.601 772.041 397.689 769.615 388.797C750.202 316.858 670.531 302.308 669.722 302.308C668.914 302.308 668.509 301.5 668.914 301.096C668.914 300.287 669.722 299.883 670.127 300.287C670.936 300.287 752.224 314.837 772.041 388.393C774.468 397.285 777.703 408.197 777.703 408.197C778.108 408.601 777.703 409.005 776.49 409.409C776.894 409.409 776.894 409.409 776.49 409.409Z" fill="#343B43"/>
<path d="M633.729 484.178C623.619 479.328 604.611 474.478 584.39 469.628L581.963 469.224C563.764 464.778 557.698 458.716 556.08 454.674C554.867 452.249 555.271 449.825 556.485 447.4C556.889 446.591 557.698 446.187 558.507 445.783C560.124 445.379 562.147 446.187 562.955 446.591C563.36 446.995 563.764 447.804 563.36 448.208C562.955 448.612 562.147 449.016 561.742 448.612C561.338 448.208 559.72 447.804 559.316 447.804C558.102 449.825 558.102 451.441 558.911 453.462C560.124 456.291 564.977 461.949 583.176 466.395L585.603 466.799C605.824 471.649 625.236 476.499 634.942 481.348C635.347 481.753 635.751 482.561 635.347 482.965C634.538 483.773 634.134 484.178 633.729 484.178Z" fill="#343B43"/>
<path d="M587.625 459.12C575.088 455.482 568.213 452.653 562.551 449.42C553.249 444.166 550.014 438.508 552.44 432.445C552.845 431.233 553.653 430.425 554.867 430.02C557.293 429.212 561.337 431.233 569.426 436.083C573.47 438.508 578.323 440.124 582.772 440.933C571.043 436.487 558.506 430.02 556.08 423.958C555.675 422.342 555.675 420.725 556.484 419.512C559.72 414.663 569.426 416.279 589.647 425.171C599.353 429.616 611.486 430.02 616.339 430.02C615.53 421.937 618.765 407.792 624.832 402.538C628.876 399.305 631.302 400.517 632.516 400.921C634.942 402.538 635.751 406.984 634.133 411.025C632.111 417.088 636.155 435.274 641.413 438.508C643.839 440.124 654.354 445.782 654.354 445.782C654.759 446.187 655.163 446.995 654.759 447.399C654.354 447.803 653.546 448.207 653.141 447.803C652.737 447.399 642.626 442.145 639.795 440.124C633.324 436.083 629.28 416.683 631.707 409.813C632.92 406.175 632.111 403.346 630.898 402.538C629.685 401.73 628.067 402.134 626.449 403.75C620.787 408.6 617.552 423.554 619.574 430.425C617.956 432.041 601.78 432.85 588.838 427.191C577.514 421.937 561.742 415.875 558.911 420.725C558.506 421.533 558.506 422.342 558.506 423.15C560.933 429.212 578.323 437.295 594.904 442.549C595.309 442.549 595.713 443.358 595.713 443.762C594.096 444.974 579.536 444.57 568.617 438.104C562.955 434.87 557.698 431.637 556.08 432.445C553.249 438.104 556.08 442.549 564.168 447.399C569.426 450.632 576.705 453.461 588.434 456.695C589.242 456.695 589.242 457.503 589.242 458.311C588.434 458.715 588.029 459.12 587.625 459.12Z" fill="#343B43"/>
<path d="M655.164 225.518C630.898 225.518 609.06 198.036 604.207 190.761C602.184 194.398 596.927 203.694 595.309 213.798C595.309 214.606 594.5 215.01 594.096 214.606C593.287 214.606 592.883 213.798 592.883 213.394C594.905 200.461 602.589 188.74 602.993 187.932C605.42 188.336 631.303 225.922 658.399 222.689C659.208 222.689 659.612 223.093 659.612 223.902C659.612 224.71 659.208 225.114 658.399 225.114C657.59 225.518 656.377 225.518 655.164 225.518Z" fill="#343B43"/>
<path d="M657.186 272.805C649.098 272.805 643.031 272.401 642.627 272.401C641.818 272.401 641.414 271.996 641.414 271.188C641.414 270.38 641.818 269.976 642.627 269.976C656.782 268.359 660.421 247.343 660.421 247.343C660.421 246.535 661.23 246.131 661.635 246.535C662.444 246.535 662.848 247.343 662.444 247.747C662.444 248.555 659.613 264.317 649.098 270.38C660.017 270.784 681.856 270.784 693.18 266.338C693.584 261.488 697.224 231.581 696.415 212.99C695.606 192.782 686.709 176.212 674.981 172.979C662.444 169.745 617.148 168.129 609.464 173.787C605.824 176.616 587.625 191.974 594.905 226.327C594.905 227.135 594.501 227.539 594.096 227.944C593.287 227.944 592.883 227.539 592.479 227.135C585.199 191.57 604.207 174.999 608.251 172.17C617.148 165.704 664.466 167.725 675.789 170.958C688.327 174.191 698.033 191.974 698.842 213.394C699.65 233.602 695.606 267.147 695.606 267.551C685.9 271.996 669.319 272.805 657.186 272.805Z" fill="#343B43"/>
<path d="M596.118 267.954C589.243 267.954 580.75 265.529 580.346 265.125C587.221 260.68 591.265 245.322 592.074 239.664C592.074 238.855 592.883 238.451 593.287 238.451C594.096 238.451 594.5 239.259 594.5 239.664C594.5 240.472 591.669 257.446 583.985 263.509C587.221 264.317 593.287 265.529 597.331 265.125C598.14 265.125 598.545 265.529 598.545 266.338C598.545 267.146 598.14 267.55 597.331 267.55C597.331 267.954 596.927 267.954 596.118 267.954Z" fill="#343B43"/>
<path d="M624.427 516.509H516.851C516.042 516.509 515.638 516.105 515.638 515.297C514.02 405.367 490.159 341.107 489.755 340.298C490.968 338.682 598.544 338.682 598.544 338.682C599.758 339.894 612.295 368.589 619.979 414.663C619.979 415.471 619.574 415.875 619.17 415.875C618.361 415.875 617.957 415.471 617.957 415.067C610.677 373.439 599.758 345.956 597.735 341.107H492.586C496.226 351.615 516.447 413.854 518.064 514.085H623.618C624.023 510.043 624.023 506.001 624.023 501.556C624.023 500.747 624.427 500.343 625.236 500.343C626.045 500.343 626.449 500.747 626.449 501.556C626.449 506.406 626.045 510.851 625.641 515.297C625.641 516.105 625.236 516.509 624.427 516.509Z" fill="#343B43"/>
<path d="M625.237 499.131C624.428 499.131 624.023 498.727 624.023 497.918C624.023 491.452 624.023 485.794 624.023 479.327C624.023 478.519 624.428 478.115 625.237 478.115C626.046 478.115 626.45 478.519 626.45 479.327C626.45 485.794 626.45 491.452 626.45 497.918C626.45 498.727 626.046 499.131 625.237 499.131Z" fill="#343B43"/>
<path d="M503.101 385.968C454.974 385.968 425.856 350.806 425.856 350.402C425.452 349.998 425.452 349.19 425.856 348.786C426.26 348.381 427.069 348.381 427.474 348.786C427.878 349.19 455.783 383.543 503.101 383.543C503.91 383.543 504.314 383.947 504.314 384.755C504.314 385.563 503.505 385.968 503.101 385.968Z" fill="#343B43"/>
<path d="M662.847 289.779C662.038 289.779 661.634 289.375 661.634 288.567V271.592C661.634 270.784 662.038 270.38 662.847 270.38C663.656 270.38 664.06 270.784 664.06 271.592V288.567C664.06 288.971 663.656 289.779 662.847 289.779Z" fill="#343B43"/>
<path d="M495.417 484.581C493.8 484.581 492.586 483.773 490.969 482.561C482.071 474.073 474.387 466.798 466.703 460.332C465.49 459.12 463.064 458.311 461.446 458.311C450.931 458.715 440.82 459.524 430.71 460.332C428.688 460.736 425.857 461.544 425.048 463.161C424.643 463.565 423.835 463.565 423.43 463.161C423.026 462.757 423.026 461.949 423.43 461.544C425.048 459.524 428.688 458.311 430.71 457.907C440.82 457.099 450.931 456.29 461.041 455.886C463.468 455.482 466.299 456.695 468.321 458.715C475.601 465.182 483.689 472.457 492.586 480.944C494.608 482.561 495.417 482.965 497.844 481.752C501.484 479.731 504.315 478.519 507.145 476.902C507.55 476.498 508.359 476.902 508.763 477.306C509.168 477.711 508.763 478.519 508.359 478.923C505.528 480.54 502.697 481.752 499.057 483.773C497.844 484.177 496.631 484.581 495.417 484.581ZM434.35 387.584C427.879 387.584 421.004 386.372 414.533 384.351C397.547 379.097 383.392 367.377 375.304 352.019C367.216 336.661 365.598 318.878 370.855 302.308C373.282 295.033 375.708 289.779 378.944 284.525C379.348 284.121 380.157 283.717 380.561 284.121C380.966 284.525 381.37 285.333 380.966 285.737C377.73 290.587 375.304 295.841 372.877 302.712C367.62 318.878 369.238 335.853 376.922 350.806C384.606 365.76 397.952 376.672 414.533 381.926C426.666 385.968 439.607 385.968 451.335 382.33C452.144 381.926 452.549 382.33 452.953 383.139C452.953 383.947 452.953 384.351 452.144 384.755C446.887 386.372 440.416 387.584 434.35 387.584ZM569.426 310.391C568.618 310.391 568.213 309.987 568.213 309.178C567.809 303.116 567.809 299.074 567.404 293.416C567.404 291.396 568.618 288.566 570.235 286.546C573.875 282.504 577.11 279.271 579.941 276.038C580.346 275.634 581.155 275.634 581.559 276.038C581.964 276.442 581.964 277.25 581.559 277.654C578.728 280.887 575.088 284.121 571.853 288.162C570.64 289.375 569.831 291.8 569.831 293.416C569.831 299.074 570.235 303.116 570.64 309.178C570.64 309.987 570.235 310.391 569.426 310.391ZM495.417 303.924C488.947 284.121 474.387 269.167 454.166 262.296C453.357 261.892 453.357 261.488 453.357 260.68C453.762 259.871 454.166 259.871 454.975 259.871C476.005 267.146 490.969 282.504 496.631 302.308C496.631 303.116 496.226 303.924 495.417 303.924C495.822 303.924 495.417 303.924 495.417 303.924ZM271.368 256.234C270.559 255.83 270.154 255.426 270.154 254.617C271.772 249.363 273.794 247.747 277.434 247.747C287.14 247.747 298.868 247.343 311.001 246.939C313.023 246.939 315.45 244.918 317.067 243.705C319.898 240.472 322.729 237.239 325.56 234.006C329.2 229.964 332.84 225.518 336.479 221.881C338.906 219.052 339.715 217.031 339.31 213.798C338.502 208.544 337.693 203.29 336.884 198.44C336.075 193.59 335.671 188.74 334.862 183.89C334.457 180.657 334.862 177.828 338.906 175.807C349.017 170.958 358.723 165.704 368.024 160.45C371.26 158.833 373.282 158.833 375.708 160.854C376.113 161.258 376.113 162.066 375.708 162.47C375.304 162.874 374.495 162.874 374.091 162.47C372.473 161.258 371.26 160.854 368.833 162.066C359.936 167.724 350.23 172.574 339.715 177.828C337.288 179.041 336.479 180.253 336.884 183.486C337.693 188.336 338.502 193.186 338.906 198.44C339.715 203.694 340.119 208.948 340.928 213.798C341.737 217.839 340.524 220.669 337.693 223.902C334.053 227.943 330.413 231.985 326.773 236.026C323.942 239.26 321.111 242.493 318.28 245.726C316.663 247.343 313.427 249.768 310.596 249.768C298.868 250.172 287.14 250.576 277.434 250.576C274.603 250.576 273.794 251.384 272.985 253.809C272.176 255.83 271.772 256.234 271.368 256.234ZM585.603 241.28C584.39 240.472 576.706 225.114 576.706 225.114L567.809 226.327C558.507 227.539 549.61 228.752 540.712 229.964C537.882 230.368 535.051 228.752 533.433 227.539C524.94 220.669 517.256 213.798 509.976 207.331C507.954 205.311 506.337 202.482 506.337 200.057C505.528 189.549 505.528 179.041 505.528 167.32C505.528 164.087 504.719 163.279 501.888 162.47C492.182 159.641 481.667 156.408 470.343 152.366C467.917 151.558 466.703 151.962 465.086 153.983C457.402 164.491 450.931 172.978 444.865 180.657C443.247 182.678 440.82 183.89 437.989 184.295C433.541 185.103 428.283 185.507 423.43 185.911C421.408 186.315 418.982 186.315 416.959 186.72C416.151 186.72 415.746 186.315 415.746 185.507C415.746 184.699 416.151 184.295 416.959 184.295C418.982 183.89 421.408 183.89 423.43 183.486C428.283 183.082 433.136 182.274 437.585 181.87C439.607 181.466 441.629 180.253 442.842 179.041C448.909 171.362 454.975 162.874 462.659 152.366C464.681 149.133 467.108 148.325 470.748 149.537C482.071 153.175 492.182 156.408 502.292 159.237C505.932 160.45 507.55 162.47 507.55 166.512C507.55 178.232 507.954 189.144 508.359 199.248C508.359 201.269 509.572 203.29 511.19 204.906C518.469 211.373 526.153 218.244 534.646 225.114C536.264 226.327 538.69 227.135 540.308 227.135C549.205 225.923 558.103 224.71 567.404 223.498L577.11 222.285C578.324 223.093 586.817 239.26 586.817 239.26C587.221 239.664 586.817 240.472 586.412 240.876C586.008 241.28 586.008 241.28 585.603 241.28Z" fill="#343B43"/>
<path d="M705.717 286.546C704.099 286.546 702.886 285.738 702.077 284.121L700.055 281.292C698.842 279.271 697.628 278.059 696.819 276.442C696.415 276.038 696.415 275.23 697.224 274.825C697.628 274.421 698.437 274.421 698.842 275.23C700.055 276.846 700.864 278.463 702.077 280.079L703.695 282.909C704.503 284.121 705.312 284.525 706.526 284.121C709.761 283.313 713.401 282.1 716.636 281.292C721.085 280.079 725.533 278.867 729.982 277.655C730.386 277.655 731.6 276.038 731.6 275.23C732.004 271.188 732.409 267.147 732.813 262.701C733.217 258.659 733.217 255.022 733.622 250.98C733.622 248.96 735.24 247.343 736.048 246.535C742.519 241.281 747.777 236.835 752.63 233.198C754.247 231.985 757.078 231.177 758.696 231.581C766.38 232.389 773.66 234.006 780.13 235.218C782.152 235.623 782.961 235.218 783.77 233.602C787.41 227.135 791.05 220.669 795.498 213.394C796.307 211.777 796.307 210.969 795.094 209.757C789.028 202.886 784.984 197.632 780.939 192.782C779.726 191.166 778.917 188.741 779.322 186.72C780.13 179.849 781.344 172.574 782.961 164.896C783.366 163.279 784.579 161.258 785.792 160.45C788.623 158.429 791.859 156.004 795.094 153.983C798.329 151.558 801.969 149.134 805.205 146.709C806.013 146.304 806.418 144.688 806.418 144.284C804.8 137.817 803.182 130.947 801.16 124.48L799.543 118.822L793.476 118.418C786.601 118.014 780.13 117.609 773.66 116.801C771.638 116.801 769.615 115.185 768.807 113.972C763.954 107.91 759.505 101.847 755.461 96.1893C754.247 94.5727 753.439 92.5519 753.843 90.127C755.056 82.8522 756.27 75.1733 758.292 67.0902C758.696 65.0694 758.292 64.2611 756.674 63.4528C750.203 59.8154 743.732 56.178 736.453 51.7323C734.835 50.924 734.026 50.924 732.813 52.1365C725.938 58.6029 720.276 63.4528 714.614 67.8985C713.401 69.111 710.974 69.5151 708.952 69.5151C705.717 69.111 702.481 69.111 699.246 68.7068C695.202 68.3027 691.158 67.8985 687.113 67.4943C684.282 67.4943 682.26 66.2819 681.047 64.2611C679.025 61.0279 676.598 58.1988 674.576 54.9656C672.554 51.7323 670.128 48.9032 668.105 45.67C666.892 44.0534 666.488 43.6492 664.466 44.0534C657.186 46.0742 649.502 48.4991 641.818 50.1157C640.2 50.5199 639.392 51.3282 639.392 53.3489C638.987 56.9863 638.987 60.2196 638.583 63.857C638.178 67.4943 638.178 71.1317 637.774 75.1733C637.774 78.4065 636.561 80.0231 633.73 82.0439C630.494 84.0647 627.259 86.4896 624.428 88.9145C622.001 90.9353 619.575 92.5519 616.744 94.5727C615.126 95.7851 612.7 96.5934 610.678 96.1893C602.589 94.9768 594.096 93.3602 587.221 91.7436C585.603 91.3394 584.795 91.7436 583.986 93.3602C579.941 101.039 575.897 107.506 572.257 113.568C571.449 115.185 571.449 115.993 572.662 117.609C577.515 123.268 583.177 129.33 588.03 135.392C589.243 137.009 590.052 139.838 589.648 141.455C589.243 148.729 588.839 156.004 587.626 163.279C587.221 165.3 586.008 167.32 584.795 168.533C578.324 173.383 571.449 177.828 565.787 181.87C564.169 183.082 563.765 183.487 564.169 185.507C566.191 192.378 568.213 199.653 570.235 208.14C570.64 209.757 571.044 210.161 573.066 210.565C575.088 210.565 577.515 210.969 579.941 210.969H582.368C583.177 210.969 583.581 211.373 583.581 212.182C583.581 212.99 583.177 213.394 582.368 213.394H579.941C577.515 213.394 575.088 212.99 573.066 212.99C570.235 212.99 568.618 211.777 568.213 208.948C566.191 200.461 564.169 193.186 562.147 186.316C561.338 183.082 562.551 181.466 564.573 179.849C570.235 176.212 576.706 171.362 583.177 166.512C583.986 165.704 584.795 164.087 585.199 162.875C586.008 155.6 586.817 148.325 587.221 141.455C587.221 139.838 586.817 137.817 586.008 137.009C581.155 130.947 575.493 124.884 570.64 119.226C569.022 117.609 567.809 115.589 569.831 112.355C573.471 106.293 577.515 99.4225 581.559 92.1478C582.772 89.7228 584.795 88.9145 587.626 89.3187C594.501 90.9353 602.994 92.5519 611.082 93.7644C612.295 93.7644 614.317 93.3602 615.531 92.5519C617.957 90.9353 620.384 88.9145 622.81 87.2979C626.046 84.873 628.877 82.448 632.516 80.4273C634.538 79.2148 635.347 78.0024 635.347 75.5774C635.752 71.94 635.752 68.3027 636.156 64.2611C636.561 60.6237 636.561 57.3905 636.965 53.7531C636.965 50.5199 638.583 49.3074 641.414 48.4991C649.098 46.4783 656.782 44.4576 664.061 42.4368C667.297 41.6285 668.914 42.8409 670.532 44.8617C672.554 48.0949 674.981 50.924 677.003 54.1573C679.025 57.3905 681.451 60.2196 683.474 63.4528C684.687 65.0694 685.496 65.4736 687.922 65.8777C691.966 66.2819 696.011 66.686 700.055 67.0902C703.29 67.4943 706.526 67.8985 709.761 67.8985C710.974 67.8985 712.592 67.4943 713.401 66.686C718.658 62.2403 724.32 57.3905 731.195 50.924C733.217 48.9033 735.24 48.9032 737.666 50.1157C744.946 54.5614 751.416 58.1988 757.887 61.8362C760.314 63.4528 761.123 65.0694 760.718 67.8985C759.1 75.9816 757.483 83.6605 756.27 90.9353C756.27 92.1478 756.674 93.7644 757.483 94.9768C761.527 100.635 765.976 106.293 770.829 112.76C771.638 113.972 773.255 114.78 774.064 114.78C780.535 115.589 787.006 115.993 793.881 116.397L800.756 116.801C801.969 117.609 803.587 124.076 803.587 124.076C805.205 130.542 807.227 137.413 808.844 143.879C809.249 145.496 808.036 147.921 806.822 149.134C803.587 151.558 799.947 153.983 796.712 156.408C793.476 158.429 790.645 160.45 787.814 162.875C787.006 163.683 785.792 164.896 785.792 165.704C784.175 173.383 783.366 180.658 782.152 187.528C782.152 188.741 782.557 190.761 783.366 191.57C787.41 196.42 791.859 201.674 797.521 208.544C799.543 210.565 799.543 212.586 797.925 215.011C793.476 222.285 789.837 229.156 786.197 235.218C784.983 237.643 782.961 238.452 780.13 238.047C773.255 236.835 765.976 235.623 758.696 234.41C757.483 234.41 755.461 234.814 754.247 235.623C749.394 239.26 744.137 243.706 737.666 248.96C736.857 249.768 736.048 250.98 736.048 252.193C735.644 256.234 735.24 259.872 735.24 263.913C734.835 267.955 734.431 272.401 734.026 276.442C734.026 278.059 732.409 280.079 730.791 280.888C726.342 282.1 721.894 283.313 717.445 284.929C714.21 285.738 710.57 286.95 707.334 287.758C706.93 286.546 706.121 286.546 705.717 286.546Z" fill="#343B43"/>
<path d="M642.626 611.89C583.58 611.89 535.454 601.786 534.645 601.786C533.836 601.786 533.432 600.978 533.836 600.574C533.836 600.17 540.307 549.651 541.52 515.297C541.52 514.489 541.925 514.085 542.734 514.085C543.543 514.085 543.947 514.489 543.947 515.297C542.734 546.821 537.476 591.683 536.263 599.362C547.991 601.786 648.692 620.782 733.216 599.362V568.646C733.216 567.837 733.621 567.433 734.43 567.433C735.239 567.433 735.643 567.837 735.643 568.646V600.17C704.502 609.465 672.149 611.89 642.626 611.89Z" fill="#343B43"/>
<path d="M534.646 652.709C533.837 652.709 533.433 651.901 533.433 651.497L539.095 601.382C539.095 600.574 539.903 600.169 540.308 600.169C541.117 600.169 541.521 600.978 541.521 601.382L535.859 651.497C535.859 652.305 535.455 652.709 534.646 652.709Z" fill="#343B43"/>
<path d="M734.43 652.709C733.621 652.709 733.217 652.305 733.217 651.497C732.812 634.523 730.79 601.786 730.79 601.382C730.79 600.574 731.194 600.169 732.003 600.169C732.812 600.169 733.217 600.574 733.217 601.382C733.217 601.786 735.239 634.118 735.643 651.497C735.643 652.305 734.834 652.709 734.43 652.709Z" fill="#343B43"/>
<path d="M272.985 425.171C267.323 425.171 260.852 422.746 253.977 418.3C253.573 417.896 253.168 417.087 253.573 416.683C253.977 416.279 254.786 415.875 255.19 416.279C264.088 421.937 272.176 423.958 278.647 421.533C286.735 418.704 289.971 410.621 290.375 409.409V389.605C290.375 388.797 290.78 388.393 291.588 388.393C292.397 388.393 292.802 388.797 292.802 389.605V409.813C292.397 410.621 289.162 420.725 279.456 423.958C277.434 424.766 275.412 425.171 272.985 425.171Z" fill="#343B43"/>
<path d="M337.288 630.481C321.111 630.481 314.641 621.185 314.641 620.781C314.236 620.377 314.236 619.569 315.045 619.164C315.449 618.76 316.258 618.76 316.663 619.569C317.067 619.973 325.156 631.693 347.803 626.843C351.039 626.035 360.745 624.418 360.745 624.418L361.149 626.843C361.149 626.843 351.443 628.864 348.208 629.268C344.163 630.077 340.524 630.481 337.288 630.481Z" fill="#343B43"/>
<path d="M629.685 395.263C628.876 395.263 628.472 394.455 628.472 394.051L633.325 320.091C633.325 319.282 634.134 318.878 634.538 318.878C635.347 318.878 635.751 319.686 635.751 320.091L630.898 394.051C630.898 394.455 630.494 395.263 629.685 395.263Z" fill="#343B43"/>
<path d="M294.015 451.441C281.073 451.441 274.198 439.72 272.176 434.466C269.345 440.528 260.852 453.866 248.315 450.632C243.462 449.42 240.227 446.995 238.205 443.357C234.969 437.699 236.587 431.233 236.587 430.829C236.587 430.02 237.396 429.616 238.205 430.02C239.014 430.02 239.418 430.829 239.014 431.637C239.014 431.637 237.396 437.295 240.227 442.145C241.845 444.974 244.675 446.995 248.72 448.207C262.066 451.845 270.963 430.829 270.963 430.829C273.389 431.637 279.86 452.653 298.868 448.612C304.126 447.399 307.361 444.974 308.574 441.741C312.214 431.233 297.25 413.45 297.25 413.046C296.846 412.642 296.846 411.833 297.25 411.429C297.655 411.025 298.464 411.025 298.868 411.429C299.677 412.238 314.64 430.425 310.596 442.145C308.979 446.591 305.339 449.42 299.272 450.632C297.25 451.441 295.633 451.441 294.015 451.441Z" fill="#343B43"/>
<path d="M302.104 413.45C296.442 413.45 291.589 411.025 291.589 411.025C291.184 410.621 290.78 409.813 291.184 409.409C291.589 409.004 292.397 408.6 292.802 409.004C293.206 409.409 306.957 415.875 314.236 404.963C321.92 393.647 311.81 378.693 311.81 378.693C311.405 378.289 311.405 377.48 312.214 377.076C312.618 376.672 313.427 376.672 313.832 377.48C314.236 378.289 324.751 393.647 316.258 406.58C312.214 411.834 306.552 413.45 302.104 413.45Z" fill="#343B43"/>
<path d="M306.956 354.848C306.147 354.848 305.339 354.848 304.53 354.444C305.743 353.232 306.552 353.232 307.361 353.232C308.978 353.232 310.192 352.423 311.405 351.211C314.236 347.978 315.854 341.915 315.854 335.449C315.854 330.599 314.64 326.153 312.618 322.92C311.001 320.091 308.574 318.07 306.147 318.07C304.53 318.07 302.912 318.878 301.699 320.091C298.868 323.324 297.25 329.791 297.655 337.065C295.228 329.386 297.25 322.516 300.486 318.878C302.103 317.262 304.125 316.049 306.147 316.049C309.383 316.049 312.214 318.07 314.236 321.707C316.258 325.345 317.471 329.791 317.876 335.045C318.28 341.915 316.258 348.382 313.023 352.019C311.001 353.636 308.978 354.848 306.956 354.848Z" fill="#343B43"/>
<path d="M277.433 358.081C271.367 358.081 266.514 349.998 266.109 339.086C265.705 328.173 270.154 319.686 276.22 319.282C282.286 319.282 287.544 327.365 287.948 338.277C288.353 349.189 283.904 358.081 277.433 358.081ZM276.22 321.707C270.963 321.707 267.323 330.194 267.727 339.49C268.132 348.785 272.58 356.464 277.433 356.464C282.691 356.464 286.331 347.977 285.926 338.681C285.522 329.386 281.478 321.707 276.22 321.707Z" fill="#343B43"/>
<path d="M286.735 340.703C285.926 339.086 288.353 333.024 292.397 333.024C295.632 333.024 296.846 335.853 297.25 337.469C295.632 337.469 294.823 335.044 292.397 335.044C289.97 335.044 287.948 338.682 287.544 340.298C287.544 340.298 287.139 340.703 286.735 340.703Z" fill="#343B43"/>
<path d="M266.918 340.299L244.675 339.894C244.675 338.278 266.918 338.278 266.918 338.278C267.727 339.894 267.322 340.299 266.918 340.299Z" fill="#343B43"/>
<path d="M326.773 640.18C325.964 640.18 325.56 639.776 325.56 638.968C325.56 637.756 325.56 636.543 325.56 635.331C325.56 632.906 325.56 630.077 325.56 627.652C325.56 626.843 325.964 626.439 326.773 626.439C327.582 626.439 327.986 627.248 327.986 627.652C327.582 630.077 327.986 632.502 327.986 634.927C327.986 636.139 327.986 637.756 327.986 638.968C327.986 639.776 327.177 640.18 326.773 640.18Z" fill="#343B43"/>
<path d="M361.148 652.709C360.34 652.709 359.935 651.901 359.935 651.497C360.744 647.455 360.744 644.222 360.744 638.968C360.744 615.527 351.442 597.744 343.354 597.744C342.545 597.744 342.141 597.34 342.141 596.532C342.141 595.724 342.545 595.32 343.354 595.32C353.869 595.32 363.171 615.931 363.171 638.968C363.171 644.222 362.766 647.455 362.362 651.901C362.362 652.305 361.957 652.709 361.148 652.709Z" fill="#343B43"/>
<path d="M428.283 621.185C384.606 597.744 344.972 597.744 344.568 597.744C343.759 597.744 343.354 597.34 343.354 596.532C343.354 595.724 343.759 595.32 344.568 595.32C344.972 595.32 385.01 595.724 428.688 619.165C429.092 619.569 429.496 620.377 429.092 620.781C429.092 621.185 428.688 621.185 428.283 621.185Z" fill="#343B43"/>
<path d="M195.741 506.81C194.932 506.81 194.527 506.002 194.527 505.193C198.572 486.602 211.109 462.757 211.109 462.757C211.513 462.353 212.322 461.949 212.726 462.353C213.131 462.757 213.535 463.565 213.131 463.97C213.131 464.374 200.594 487.815 196.954 506.002C196.954 506.406 196.549 506.81 195.741 506.81Z" fill="#343B43"/>
<path d="M701.672 207.331C700.459 205.715 700.459 205.311 701.268 204.907C718.658 198.844 730.386 181.87 730.386 163.279C730.386 139.029 710.57 119.226 686.304 119.226C662.039 119.226 642.222 139.029 642.222 163.279C642.222 164.087 642.222 164.895 642.222 165.299C642.222 166.108 641.818 166.512 641.009 166.512C640.2 166.512 639.796 166.108 639.796 165.299C639.796 164.491 639.796 163.683 639.796 162.874C639.796 137.413 660.826 116.397 686.304 116.397C711.783 116.397 732.813 137.413 732.813 162.874C732.813 182.274 720.276 200.057 702.077 206.523C702.077 207.331 701.672 207.331 701.672 207.331Z" fill="#343B43"/>
<defs>
<linearGradient id="paint0_linear_156_1895" x1="534.645" y1="641.136" x2="570.156" y2="549.351" gradientUnits="userSpaceOnUse">
<stop stop-color="#234DAE"/>
<stop offset="1" stop-color="#347BCE"/>
</linearGradient>
<linearGradient id="paint1_linear_156_1895" x1="205.007" y1="398.641" x2="331.16" y2="342.448" gradientUnits="userSpaceOnUse">
<stop stop-color="#234DAE"/>
<stop offset="1" stop-color="#347BCE"/>
</linearGradient>
<linearGradient id="paint2_linear_156_1895" x1="291.992" y1="404.855" x2="320.47" y2="390.507" gradientUnits="userSpaceOnUse">
<stop stop-color="#234DAE"/>
<stop offset="1" stop-color="#347BCE"/>
</linearGradient>
<linearGradient id="paint3_linear_156_1895" x1="490.969" y1="479.239" x2="637.457" y2="406.327" gradientUnits="userSpaceOnUse">
<stop stop-color="#234DAE"/>
<stop offset="1" stop-color="#347BCE"/>
</linearGradient>
<linearGradient id="paint4_linear_156_1895" x1="352.251" y1="128.63" x2="461.791" y2="85.2432" gradientUnits="userSpaceOnUse">
<stop stop-color="#234DAE"/>
<stop offset="1" stop-color="#347BCE"/>
</linearGradient>
<linearGradient id="paint5_linear_156_1895" x1="-1.15832e-05" y1="630.464" x2="150.858" y2="456.64" gradientUnits="userSpaceOnUse">
<stop stop-color="#234DAE"/>
<stop offset="1" stop-color="#347BCE"/>
</linearGradient>
<linearGradient id="paint6_linear_156_1895" x1="259.639" y1="649.249" x2="264.769" y2="623.247" gradientUnits="userSpaceOnUse">
<stop stop-color="#234DAE"/>
<stop offset="1" stop-color="#347BCE"/>
</linearGradient>
<linearGradient id="paint7_linear_156_1895" x1="608.655" y1="370.789" x2="682.292" y2="343.269" gradientUnits="userSpaceOnUse">
<stop stop-color="#234DAE"/>
<stop offset="1" stop-color="#347BCE"/>
</linearGradient>
</defs>
</svg>
