<svg width="849" height="800" viewBox="0 0 849 800" fill="none" xmlns="http://www.w3.org/2000/svg">
<g clip-path="url(#clip0_156_946)">
<path d="M635.54 441.804H146.562V770.077H635.54V441.804Z" fill="white"/>
<path d="M617.054 629.263H218.302V677.668H617.054V629.263Z" fill="#343B43"/>
<path d="M635.539 402.64H146.121V443.564H635.539V402.64Z" fill="url(#paint0_linear_156_946)"/>
<path d="M720.924 280.308C788.741 280.308 843.719 225.341 843.719 157.536C843.719 89.7306 788.741 34.7635 720.924 34.7635C653.106 34.7635 598.129 89.7306 598.129 157.536C598.129 225.341 653.106 280.308 720.924 280.308Z" fill="url(#paint1_linear_156_946)"/>
<path d="M326.132 187.018L353.42 236.303C353.42 236.303 361.782 250.825 378.507 247.744L382.028 247.304L408.435 267.106L427.36 225.742L415.037 194.939C415.037 194.939 427.801 189.219 422.959 175.577C418.118 162.376 404.914 164.576 401.393 166.776C397.872 169.417 393.911 172.497 393.031 180.418H389.95C389.95 180.418 383.788 170.297 381.588 167.656C378.947 165.016 374.105 161.056 370.584 161.936C367.063 163.256 352.099 173.377 347.258 177.337C341.976 181.738 330.973 188.339 326.132 187.018Z" fill="white"/>
<path d="M339.776 561.496L310.728 591.859C310.728 591.859 322.171 609.461 329.653 618.262C337.135 627.063 339.776 629.263 346.818 627.943C353.86 626.623 371.465 627.503 371.465 627.503L393.471 642.464C393.471 642.464 398.312 642.904 400.953 638.944C403.594 634.983 401.393 631.903 399.633 630.583C398.312 629.263 375.426 609.461 375.426 609.461L363.102 593.619C362.662 591.859 367.944 595.379 367.944 595.379C367.944 595.379 376.306 608.141 385.109 609.461C393.911 610.781 392.591 605.94 391.71 603.74C390.83 601.54 380.707 585.698 373.225 578.218C365.743 570.297 358.701 568.977 358.701 568.977L339.776 561.496Z" fill="white"/>
<path d="M378.947 247.745C378.947 247.745 308.527 249.065 258.793 297.03C209.059 344.554 202.017 395.599 196.736 426.403C191.454 457.206 203.778 497.25 219.622 519.692C235.467 542.134 257.913 572.057 299.285 599.78C300.605 600.66 345.058 555.775 345.058 555.775C345.058 555.775 301.045 519.692 286.521 490.649C271.997 461.606 269.797 453.685 271.557 431.243C273.318 408.801 289.162 400 300.605 401.32L311.608 402.2H613.534C613.534 402.2 615.294 336.634 577.884 301.43C540.473 266.226 500.422 246.425 446.286 242.464L424.28 402.2H408.436L378.947 247.745Z" fill="#343B43"/>
<path d="M355.18 172.057C366.623 163.256 365.303 163.696 368.384 162.376C371.905 161.496 377.186 155.335 382.028 159.296C386.869 163.256 394.351 175.577 394.351 175.577C394.351 175.577 396.112 171.177 401.393 167.216C407.115 163.696 412.396 163.256 417.678 168.977C422.519 174.697 425.16 183.938 422.079 187.459C418.998 191.419 415.477 195.379 415.477 195.379L420.319 207.701C420.319 207.701 430.882 189.219 429.561 174.697C428.681 165.896 426.92 159.296 413.717 141.694C400.953 124.092 396.552 119.692 389.95 117.932C383.348 116.171 372.785 116.611 370.144 118.372C367.944 120.132 366.183 123.212 359.581 127.613C352.98 131.573 352.099 132.893 343.297 133.333C334.934 133.773 320.41 138.614 316.009 146.534C311.608 154.455 308.967 161.056 313.368 174.257C316.449 183.938 326.572 187.018 326.572 187.018C326.572 187.018 340.216 183.498 355.18 172.057Z" fill="url(#paint2_linear_156_946)"/>
<path d="M557.638 123.652H681.313V-0.000116497C681.313 -0.000116497 630.698 -3.52047 591.527 38.7238C552.356 80.5279 557.638 123.652 557.638 123.652Z" fill="#343B43"/>
<path d="M834.476 361.276H571.722C564.24 361.276 558.078 355.115 558.078 347.635V326.953C558.078 319.472 564.24 313.311 571.722 313.311H834.476C841.958 313.311 848.12 319.472 848.12 326.953V347.635C847.68 355.115 841.518 361.276 834.476 361.276Z" fill="white"/>
<path d="M591.527 401.76C591.527 401.76 574.803 379.758 550.596 376.237C526.389 373.157 513.625 376.677 507.904 383.718C502.182 390.759 499.981 397.36 499.981 413.641C499.981 429.923 505.703 433.003 508.344 433.443C510.985 433.883 515.826 431.683 515.826 424.202C515.826 424.202 519.347 435.203 524.628 435.203C530.35 435.203 532.111 422.882 532.111 422.882C532.111 422.882 533.871 432.563 538.272 433.003C542.674 433.443 547.955 425.522 549.715 417.602C551.476 409.681 554.117 401.32 554.117 401.32L591.527 401.76Z" fill="white"/>
<path d="M513.185 379.318L492.939 354.675L496.02 339.714L485.457 326.953L470.053 325.193L481.496 338.394L477.975 354.235L463.011 355.115L450.688 339.714V356.876L461.691 369.637L476.655 368.757L500.862 397.8C500.862 397.8 501.742 390.759 505.263 386.359C508.784 381.078 513.185 379.318 513.185 379.318Z" fill="url(#paint3_linear_156_946)"/>
<path d="M734.567 516.172C734.567 516.172 744.69 492.409 773.738 461.166C802.787 429.923 826.553 421.122 826.553 421.122C826.553 421.122 827.434 451.485 791.784 481.848C755.693 512.211 734.567 516.172 734.567 516.172Z" fill="white"/>
<path d="M724.445 517.491C724.445 517.491 725.766 488.889 716.523 464.686C706.84 440.484 687.035 430.363 687.035 430.363C687.035 430.363 685.714 449.725 698.918 476.127C712.122 502.53 724.445 517.491 724.445 517.491Z" fill="url(#paint4_linear_156_946)"/>
<path d="M718.283 576.018C718.283 576.018 703.759 545.655 676.912 518.372C650.064 491.089 624.977 479.208 624.977 479.208C624.977 479.208 622.776 510.891 661.507 541.254C700.238 571.617 718.283 576.018 718.283 576.018Z" fill="url(#paint5_linear_156_946)"/>
<path d="M737.208 566.336C737.208 566.336 763.175 542.134 784.301 528.053C805.867 513.971 840.197 502.53 840.197 502.53C840.197 502.53 841.077 524.092 798.385 546.094C762.295 564.576 737.208 566.336 737.208 566.336Z" fill="white"/>
<path d="M723.124 662.266C723.124 662.266 769.777 640.704 786.502 620.902C803.227 601.1 813.79 588.779 815.11 565.896C815.11 565.896 786.942 578.658 757.894 610.781C729.286 642.464 723.124 662.266 723.124 662.266Z" fill="white"/>
<path d="M720.924 733.553C720.924 733.553 738.969 701.43 763.176 675.467C787.383 649.945 815.111 635.423 815.111 635.423C815.111 635.423 819.072 661.826 783.422 693.949C750.852 722.992 720.924 733.553 720.924 733.553Z" fill="white"/>
<path d="M704.639 694.389C704.639 694.389 672.51 664.907 663.267 642.904C654.465 620.462 646.102 603.74 655.345 576.898C655.345 576.898 676.911 597.58 687.914 628.383C701.118 664.026 704.639 694.389 704.639 694.389Z" fill="url(#paint6_linear_156_946)"/>
<path d="M680.432 697.029C680.432 697.029 663.267 661.826 640.381 640.704C617.494 619.582 587.126 600.22 587.126 600.22C587.126 600.22 585.365 632.783 622.336 662.266C659.306 690.869 680.432 697.029 680.432 697.029Z" fill="url(#paint7_linear_156_946)"/>
<path d="M649.184 706.27C626.737 671.947 592.848 664.026 592.848 664.026C592.848 664.026 605.171 694.389 624.097 719.472C643.022 744.114 675.151 767.877 675.151 767.877C676.031 767.877 672.07 740.594 649.184 706.27Z" fill="url(#paint8_linear_156_946)"/>
<path d="M167.247 609.021H45.333V730.913H167.247V609.021Z" fill="url(#paint9_linear_156_946)"/>
<path d="M239.428 212.101C239.428 209.901 238.548 208.581 236.347 208.141C229.745 205.94 223.584 203.74 217.422 201.1C216.102 200.66 214.341 198.9 213.901 197.139C211.26 190.979 209.06 184.818 206.419 178.658C205.979 177.337 205.979 175.577 206.419 174.697C209.5 167.657 213.021 161.056 216.102 154.015C216.542 153.135 216.542 150.935 215.661 150.055C210.38 144.334 205.098 139.054 199.817 133.773C198.497 132.453 197.176 132.013 195.416 132.893C188.814 135.973 182.212 139.494 175.61 142.134C174.29 142.574 172.529 143.014 171.209 142.134C165.047 139.934 158.445 137.293 152.284 134.653C150.963 134.213 149.203 132.893 148.763 131.573C146.122 124.972 143.921 118.812 141.721 112.211C140.84 110.011 139.96 109.131 137.759 109.131C130.277 109.131 123.235 109.131 115.753 109.131C113.553 109.131 112.232 110.011 111.792 112.211C109.591 118.812 106.951 124.972 104.75 131.573C103.87 133.773 102.99 134.653 100.789 135.533C94.6272 137.734 88.9056 139.934 83.184 142.574C80.9834 143.454 79.663 143.454 77.4624 142.574C70.8605 139.494 64.6988 136.413 58.0969 133.333C56.3364 132.453 55.016 132.453 53.2555 134.213C48.4142 139.494 43.1327 144.774 37.8512 149.615C36.0907 151.375 36.0907 152.695 36.9709 154.455C40.0518 161.056 43.1327 167.216 46.2136 173.817C46.6537 175.137 46.6537 177.337 46.2136 178.658C43.5728 184.818 40.4919 190.979 37.8512 197.139C36.9709 198.46 35.6506 200.22 34.3302 200.66C27.7283 203.3 20.6863 205.5 13.6443 207.701C11.4437 208.581 10.5635 209.461 10.5635 211.661C10.5635 219.142 10.5635 226.182 10.5635 233.663C10.5635 235.863 11.0036 236.743 13.2042 237.624C20.2462 239.824 27.2882 242.464 34.3302 245.104C35.6506 245.544 37.4111 247.304 37.8512 249.065C40.4919 254.785 43.1327 260.946 45.7734 267.106C47.0938 269.307 47.0938 271.067 45.7734 273.707C42.6926 279.868 40.0518 286.028 36.9709 292.189C36.0907 294.389 36.0907 295.709 37.8512 297.029C43.1327 301.87 48.4142 307.15 53.2555 312.431C55.016 314.191 56.3364 314.191 58.0969 313.311C64.2587 310.231 70.8605 307.15 77.0223 304.07C79.2229 303.19 80.5433 303.19 82.7439 304.07C88.9056 307.15 95.0674 309.351 101.229 312.431C102.549 312.871 103.87 314.191 104.31 315.511C106.951 322.552 109.151 329.593 111.792 336.633C112.672 338.834 113.553 339.274 115.753 339.274C123.235 339.274 130.277 339.274 137.759 339.274C139.96 339.274 141.28 338.394 141.721 336.193C143.921 329.153 146.122 322.112 148.763 315.511C149.203 314.191 150.963 312.871 152.284 311.991C158.445 308.911 165.047 306.27 171.209 303.63C172.529 303.19 174.29 303.19 175.61 303.63C183.092 307.15 190.574 310.671 198.056 314.191C204.218 308.031 209.94 302.31 215.661 296.149C216.542 295.269 216.542 293.509 216.102 292.189C213.021 285.588 209.94 278.988 206.859 272.387C206.419 271.067 205.979 269.307 206.419 267.987C208.619 261.386 211.26 254.785 213.901 248.625C214.341 247.304 216.102 245.544 217.422 245.104C224.024 242.464 230.186 240.264 236.787 238.064C238.988 237.183 239.428 236.303 239.428 234.103C239.428 227.062 239.428 219.582 239.428 212.101ZM126.316 266.226C102.549 266.226 83.6241 247.304 83.6241 223.542C83.6241 199.78 102.549 180.858 126.756 180.858C150.083 180.858 169.008 200.22 169.008 223.542C169.008 246.864 150.083 266.226 126.316 266.226Z" fill="white"/>
<path d="M618.815 488.009H525.949V580.858H618.815V488.009Z" fill="url(#paint10_linear_156_946)"/>
<path d="M453.769 459.846H360.902V552.695H453.769V459.846Z" fill="url(#paint11_linear_156_946)"/>
<path d="M349.622 227.694C354.674 224.778 354.533 215.077 349.307 206.027C344.08 196.977 335.748 192.005 330.696 194.921C325.644 197.838 325.785 207.538 331.011 216.588C336.238 225.638 344.57 230.61 349.622 227.694Z" fill="white"/>
<path d="M351.348 224.417C354.928 222.352 353.989 214.023 349.252 205.813C344.515 197.603 337.773 192.621 334.194 194.686C330.615 196.75 331.553 205.079 336.29 213.289C341.027 221.499 347.769 226.481 351.348 224.417Z" fill="url(#paint12_linear_156_946)"/>
<path d="M378.341 209.856C381.92 207.791 380.979 199.462 376.24 191.253C371.501 183.044 364.758 178.063 361.179 180.129C357.601 182.194 358.541 190.523 363.28 198.732C368.019 206.941 374.762 211.921 378.341 209.856Z" fill="url(#paint13_linear_156_946)"/>
<path d="M76.1413 624.422H53.2549V696.149H76.1413V624.422Z" fill="#343B43"/>
<path d="M113.992 652.145H91.1055V696.149H113.992V652.145Z" fill="white"/>
<path d="M151.843 667.547H128.956V696.149H151.843V667.547Z" fill="white"/>
<path d="M815.99 354.235C823.526 354.235 829.634 348.128 829.634 340.594C829.634 333.06 823.526 326.952 815.99 326.952C808.455 326.952 802.347 333.06 802.347 340.594C802.347 348.128 808.455 354.235 815.99 354.235Z" fill="url(#paint14_linear_156_946)"/>
<path d="M408.435 267.106L402.273 286.028L415.917 309.351L406.675 391.639L408.875 402.2H424.72L433.962 337.954L427.801 309.351L429.561 301.87L408.435 267.106Z" fill="url(#paint15_linear_156_946)"/>
<path d="M680.432 698.35H678.672C580.524 652.585 585.806 601.98 585.806 599.78C648.743 629.263 681.313 695.71 681.753 696.59C681.313 697.91 680.873 698.35 680.432 698.35ZM588.446 601.98C588.446 611.661 593.728 655.666 678.232 695.27C672.07 683.388 641.261 629.263 588.446 601.98Z" fill="#343B43"/>
<path d="M722.684 733.994C720.483 731.353 757.454 663.146 814.23 634.544C816.43 637.624 821.712 687.789 723.124 733.994H722.684ZM813.35 638.064C764.056 663.587 730.166 719.032 723.564 730.913C807.628 691.309 813.35 647.745 813.35 638.064Z" fill="#343B43"/>
<path d="M676.031 770.077C675.151 769.637 672.51 767.877 672.51 767.877C657.546 756.876 607.812 716.832 592.407 664.466C594.608 662.706 652.704 672.387 676.911 768.317C676.471 769.637 676.471 770.077 676.031 770.077ZM595.928 665.786C612.213 716.832 662.827 757.316 673.83 765.236C652.264 684.708 606.051 668.427 595.928 665.786Z" fill="#343B43"/>
<path d="M703.759 696.15C629.378 623.542 653.145 577.778 654.025 576.018C697.597 618.702 704.639 682.068 705.96 693.949C704.199 696.15 703.759 696.15 703.759 696.15ZM655.345 579.098C651.824 587.899 640.381 630.143 702.879 692.629C701.558 677.228 693.636 619.582 655.345 579.098Z" fill="#343B43"/>
<path d="M718.283 577.338C717.843 577.338 714.762 576.018 714.762 576.018C619.255 530.693 623.656 480.968 623.656 479.208C686.154 508.251 717.843 572.937 719.163 575.578C718.723 577.338 718.723 577.338 718.283 577.338ZM626.297 481.408C626.737 491.089 632.899 534.214 715.202 573.377C708.16 559.736 677.792 508.251 626.297 481.408Z" fill="#343B43"/>
<path d="M724.005 517.492C722.684 516.612 686.594 472.167 685.714 430.363C687.914 429.043 727.526 444.444 725.765 515.291C724.445 517.492 724.005 517.492 724.005 517.492ZM688.355 432.563C690.115 467.767 716.523 504.29 723.125 513.531C723.565 455.005 695.837 436.524 688.355 432.563Z" fill="#343B43"/>
<path d="M734.568 518.812C733.247 517.492 733.688 514.412 733.688 514.412C742.05 498.57 773.299 446.205 825.674 419.802C827.874 422.882 832.275 473.047 735.008 518.372C735.008 518.812 734.568 518.812 734.568 518.812ZM736.328 514.852C818.632 475.688 824.793 432.563 825.233 422.882C774.179 449.285 744.251 499.45 736.328 514.852Z" fill="#343B43"/>
<path d="M723.125 663.586C724.445 654.345 757.015 593.619 814.231 564.577C816.432 567.657 820.833 617.822 723.565 663.146C723.565 663.586 723.565 663.586 723.125 663.586ZM813.791 567.657C762.296 594.5 731.927 646.865 724.885 659.626C807.629 620.462 813.791 577.338 813.791 567.657Z" fill="#343B43"/>
<path d="M738.529 568.097C736.768 564.577 785.182 513.972 840.198 500.77C841.518 504.291 833.156 547.415 739.409 567.657C738.969 568.097 738.529 568.097 738.529 568.097ZM838.877 504.291C792.224 516.172 750.412 555.336 740.73 565.017C819.512 547.415 835.796 513.091 838.877 504.291Z" fill="#343B43"/>
<path d="M701.118 800C700.238 800 699.798 799.12 699.798 798.68L733.247 517.492C733.247 516.612 734.128 516.172 734.568 516.172C735.448 516.172 735.888 517.052 735.888 517.492L702.439 798.68C701.999 799.56 701.558 800 701.118 800Z" fill="#343B43"/>
<path d="M685.274 800C684.394 800 683.954 799.56 683.954 798.68L679.112 696.59C679.112 695.71 679.552 695.27 680.433 695.27C681.313 695.27 681.753 695.71 681.753 696.59L686.594 798.68C686.594 799.56 686.154 800 685.274 800Z" fill="#343B43"/>
<path d="M676.912 800C676.031 800 675.591 799.56 675.591 798.68L674.711 768.757C674.711 767.877 675.151 767.437 676.031 767.437C676.912 767.437 677.352 767.877 677.352 768.757L678.232 798.68C678.672 799.12 677.792 800 676.912 800C677.352 800 677.352 800 676.912 800Z" fill="#343B43"/>
<path d="M717.843 800C716.963 800 716.522 799.56 716.522 798.68L719.603 732.673C719.603 731.793 720.484 731.353 720.924 731.353C721.804 731.353 722.244 731.793 722.244 732.673L719.163 798.68C719.163 799.56 718.723 800 717.843 800Z" fill="#343B43"/>
<path d="M709.921 716.832C708.601 715.951 702.879 693.069 702.879 693.069C702.879 692.189 703.319 691.749 703.759 691.309C704.639 691.309 705.08 691.749 705.52 692.189L711.241 714.631C711.241 715.511 710.801 716.391 709.921 716.832Z" fill="#343B43"/>
<path d="M715.643 677.228C714.322 676.787 714.322 675.907 714.322 675.467L721.364 661.386C721.804 660.946 722.685 660.506 723.125 660.946C723.565 661.386 724.005 662.266 723.565 662.706L716.523 676.788C716.523 676.788 716.083 677.228 715.643 677.228Z" fill="#343B43"/>
<path d="M721.804 619.582C720.924 619.582 720.484 619.142 720.484 618.262L716.963 576.017C716.963 575.137 717.403 574.697 718.283 574.697C719.164 574.697 719.604 575.137 719.604 576.017L723.125 618.262C723.125 619.142 722.684 619.582 721.804 619.582Z" fill="#343B43"/>
<path d="M730.167 550.935C728.846 550.055 722.685 516.612 722.685 516.612C722.685 515.731 723.125 515.291 723.565 515.291C724.445 515.291 724.885 515.731 724.885 516.171L731.047 549.615C731.487 550.055 731.047 550.495 730.167 550.935Z" fill="#343B43"/>
<path d="M724.885 597.14C723.564 596.7 723.564 595.82 723.564 595.38L736.328 565.897C736.768 565.017 737.208 565.017 738.089 565.017C738.969 565.457 738.969 565.897 738.969 566.777L726.205 596.26C726.205 596.7 725.765 597.14 724.885 597.14Z" fill="#343B43"/>
<path d="M592.407 403.52C591.086 402.64 574.362 378.878 542.673 376.237C523.747 374.477 511.864 378.878 505.702 389.439C504.382 391.639 503.502 394.719 502.621 398.68C502.621 399.56 501.741 400 501.301 399.56C500.421 399.56 499.981 398.68 500.421 398.24C501.301 394.279 502.181 390.759 503.502 388.118C510.103 376.237 522.867 371.837 543.113 373.597C576.122 376.237 593.727 401.32 593.727 401.32C594.167 401.76 594.167 402.64 593.287 403.08C592.847 403.52 592.407 403.52 592.407 403.52Z" fill="#343B43"/>
<path d="M525.508 436.963C524.188 436.963 522.868 436.523 521.987 435.643C519.787 434.323 518.026 431.683 516.706 428.162C515.826 430.363 514.945 432.563 513.185 433.443C511.864 434.323 510.104 434.763 508.343 434.763C499.981 433.003 497.34 411.881 499.541 398.239C499.541 397.359 500.421 396.919 500.861 397.359C501.742 397.359 502.182 398.239 501.742 398.68C499.101 413.201 502.622 431.243 508.343 432.123C509.224 432.123 510.104 432.123 510.984 431.683C513.625 429.483 514.945 422.882 515.385 419.802C515.385 418.482 516.266 418.041 516.706 418.041C517.586 418.041 518.026 418.922 518.026 419.362C517.586 427.722 520.227 432.123 522.868 433.883C524.188 434.763 525.948 434.763 527.269 434.323C530.79 432.123 531.67 425.522 531.67 422.882C531.67 422.002 532.11 421.562 532.99 421.562C533.871 421.562 534.311 422.002 534.311 422.882C534.311 425.522 535.191 432.123 538.712 433.003C539.592 433.003 540.473 433.003 541.353 432.563C543.113 431.683 548.395 426.842 551.916 410.561C554.997 395.599 556.757 392.079 557.197 392.079C557.637 391.639 558.518 391.199 558.958 391.639C559.398 392.079 559.838 392.959 559.398 393.399C559.398 393.399 557.637 396.919 554.557 411.001C551.916 422.882 547.515 431.683 542.673 434.763C540.913 435.643 539.592 436.083 537.832 435.643C535.191 435.203 533.871 433.003 532.99 430.363C532.11 433.003 530.79 435.203 528.589 436.523C527.709 436.523 526.389 436.963 525.508 436.963Z" fill="#343B43"/>
<path d="M532.99 423.762C532.11 423.762 531.67 422.882 531.67 422.442C531.67 422.442 534.311 402.2 536.511 389.879C536.511 388.999 537.392 388.559 537.832 388.999C538.712 388.999 539.152 389.879 538.712 390.319C536.511 402.64 533.871 422.442 533.871 422.882C533.871 422.882 533.43 423.762 532.99 423.762Z" fill="#343B43"/>
<path d="M516.706 422.442C515.826 422.442 515.386 421.562 515.386 421.122C515.386 421.122 518.026 400.88 520.227 388.558C520.227 387.678 521.107 387.238 521.547 387.678C522.428 387.678 522.868 388.558 522.428 388.999C520.227 401.32 517.586 421.122 517.586 421.562C518.026 421.562 517.586 422.442 516.706 422.442Z" fill="#343B43"/>
<path d="M346.818 229.263C345.058 229.263 343.297 228.823 341.537 227.943C337.576 226.183 333.615 222.222 330.534 217.382C327.453 212.541 325.692 207.261 325.692 202.86C325.692 200.22 326.133 198.02 327.453 196.7C327.893 195.82 328.773 194.94 329.654 194.5C330.974 193.619 332.294 193.179 334.055 193.179C339.336 193.179 345.938 197.58 350.339 204.621C352.98 209.021 354.3 213.421 354.741 217.382C354.741 217.822 354.741 220.462 354.741 220.462C354.3 223.982 353.42 226.183 350.779 227.943C349.459 228.823 348.139 229.263 346.818 229.263ZM333.615 195.82C332.734 195.82 331.414 196.26 330.534 196.7C330.094 197.14 329.213 197.58 329.213 198.02C328.333 199.34 327.893 201.1 327.893 202.86C327.893 206.821 329.654 211.661 332.294 216.062C334.935 220.462 338.896 223.982 342.417 225.303C345.058 226.623 347.699 226.623 349.459 225.743C351.22 224.863 352.1 223.102 352.1 220.462V218.262C351.22 214.301 350.339 210.341 347.699 205.941C343.737 199.78 338.016 195.82 333.615 195.82Z" fill="#343B43"/>
<path d="M373.665 214.301C367.944 214.301 361.782 209.901 357.381 202.86C354.74 198.46 352.979 193.619 352.979 189.219C352.979 184.819 354.3 181.298 357.381 179.098C358.701 178.218 360.462 177.778 361.782 177.778C367.504 177.778 373.665 182.178 378.067 189.219C384.228 198.46 384.228 209.021 378.507 212.541C376.746 214.301 375.426 214.301 373.665 214.301ZM361.342 180.858C360.021 180.858 359.141 181.298 358.261 181.738C356.06 183.058 355.18 185.699 355.18 189.219C355.18 193.179 356.941 197.58 359.581 201.54C363.542 207.701 369.264 211.661 373.665 211.661C374.986 211.661 375.866 211.221 376.746 210.781C381.147 208.141 380.707 198.9 375.426 190.979C371.465 185.259 365.743 180.858 361.342 180.858Z" fill="#343B43"/>
<path d="M349.899 208.581C348.139 205.94 347.699 202.42 350.339 200.66C354.3 198.02 358.702 201.54 358.702 201.54C359.142 201.98 359.142 202.86 358.702 203.3C358.262 203.74 357.381 204.18 356.941 203.3C356.941 203.3 353.86 201.1 351.22 202.42C349.459 203.3 350.779 206.381 350.779 206.381C351.22 207.261 351.22 208.141 349.899 208.581C350.339 208.141 349.899 208.581 349.899 208.581Z" fill="#343B43"/>
<path d="M376.747 191.859C375.427 190.539 375.427 189.659 375.867 189.219L391.711 179.538C392.151 179.098 393.032 179.538 393.472 179.978C393.912 180.418 393.472 181.298 393.032 181.738L377.187 191.419C377.187 191.859 376.747 191.859 376.747 191.859Z" fill="#343B43"/>
<path d="M360.462 225.742C359.581 225.742 358.701 225.742 357.821 225.302C353.86 223.542 352.539 218.702 351.659 215.181C350.339 209.901 347.258 196.26 347.258 195.82C347.258 194.939 347.698 194.499 348.138 194.059C349.018 194.059 349.458 194.499 349.899 194.939C349.899 194.939 352.979 209.021 354.3 213.861C355.18 216.942 356.5 221.342 359.141 222.222C360.461 222.662 362.662 222.662 364.863 221.342C365.303 220.902 366.183 221.342 366.623 221.782C367.063 222.222 366.623 223.102 366.183 223.542C363.542 225.302 361.782 225.742 360.462 225.742Z" fill="#343B43"/>
<path d="M499.981 403.96H294.003C293.123 403.96 292.683 403.52 292.683 402.64C292.683 401.76 293.123 401.32 294.003 401.32H499.981C500.862 401.32 501.302 401.76 501.302 402.64C501.302 403.08 500.862 403.96 499.981 403.96Z" fill="#343B43"/>
<path d="M146.121 474.807C145.241 474.807 144.801 474.367 144.801 473.487V402.64C144.801 401.76 145.241 401.32 146.121 401.32H200.697C201.577 401.32 202.017 401.76 202.017 402.64C202.017 403.52 201.577 403.96 200.697 403.96H147.442V473.487C147.442 473.927 147.001 474.807 146.121 474.807Z" fill="#343B43"/>
<path d="M146.121 601.1C145.241 601.1 144.801 600.66 144.801 599.78V564.137C144.801 563.256 145.241 562.816 146.121 562.816C147.001 562.816 147.442 563.256 147.442 564.137V599.78C147.442 600.66 147.001 601.1 146.121 601.1Z" fill="#343B43"/>
<path d="M635.54 771.397H146.121C145.241 771.397 144.801 770.957 144.801 770.077V721.672C144.801 720.792 145.241 720.352 146.121 720.352C147.001 720.352 147.442 720.792 147.442 721.672V768.757H634.219V732.233C634.219 731.353 634.659 730.913 635.54 730.913C636.42 730.913 636.86 731.353 636.86 732.233V770.077C636.86 770.957 636.42 771.397 635.54 771.397Z" fill="#343B43"/>
<path d="M635.54 690.429C634.66 690.429 634.22 689.989 634.22 689.109V671.947C634.22 671.067 634.66 670.627 635.54 670.627C636.42 670.627 636.86 671.067 636.86 671.947V689.109C636.86 689.989 636.42 690.429 635.54 690.429Z" fill="#343B43"/>
<path d="M635.54 636.743C634.66 636.743 634.22 636.303 634.22 635.423V513.091C634.22 512.211 634.66 511.771 635.54 511.771C636.42 511.771 636.86 512.211 636.86 513.091V635.423C636.86 635.863 636.42 636.743 635.54 636.743Z" fill="#343B43"/>
<path d="M635.54 486.248C634.66 486.248 634.22 485.808 634.22 484.928V403.96H555.438C554.557 403.96 554.117 403.52 554.117 402.64C554.117 401.76 554.557 401.32 555.438 401.32H635.54C636.42 401.32 636.861 401.76 636.861 402.64V485.368C636.861 485.808 636.42 486.248 635.54 486.248Z" fill="#343B43"/>
<path d="M693.636 258.746C624.536 258.746 568.641 202.86 568.641 133.773C568.641 65.1265 624.977 8.80084 693.636 8.80084C694.516 8.80084 694.956 9.24089 694.956 10.121C694.956 11.0011 694.516 11.4411 693.636 11.4411C626.297 11.4411 571.281 66.4466 571.281 133.773C571.281 201.1 626.297 256.106 693.636 256.106C717.403 256.106 740.289 249.505 760.095 236.304C760.535 235.864 761.415 235.864 761.855 236.744C762.295 237.184 762.295 238.064 761.415 238.504C741.61 252.145 717.843 258.746 693.636 258.746Z" fill="#343B43"/>
<path d="M816.43 151.375C815.55 151.375 815.11 150.495 815.11 150.055C815.99 144.774 815.99 139.494 815.99 134.213C815.99 66.8865 760.975 11.881 693.636 11.881C692.756 11.881 692.315 11.4409 692.315 10.5609C692.315 9.68077 692.756 9.24072 693.636 9.24072C762.735 8.80068 818.631 65.1263 818.631 133.773C818.631 139.054 818.191 144.774 817.751 150.055C817.751 150.935 817.311 151.375 816.43 151.375Z" fill="#343B43"/>
<path d="M693.636 135.093H569.961C569.081 135.093 568.641 134.653 568.641 133.773C568.641 132.893 569.081 132.453 569.961 132.453H692.316V10.121C692.316 9.24089 692.756 8.80084 693.636 8.80084C694.516 8.80084 694.956 9.24089 694.956 10.121V133.773C694.956 134.653 694.516 135.093 693.636 135.093Z" fill="#343B43"/>
<path d="M635.54 444.884H271.997C271.117 444.884 270.677 444.444 270.677 443.564C270.677 442.684 271.117 442.244 271.997 442.244H635.54C636.42 442.244 636.86 442.684 636.86 443.564C636.86 444.444 636.42 444.884 635.54 444.884Z" fill="#343B43"/>
<path d="M195.415 444.884H146.121C145.241 444.884 144.801 444.444 144.801 443.564C144.801 442.684 145.241 442.244 146.121 442.244H195.415C196.295 442.244 196.735 442.684 196.735 443.564C196.735 444.444 196.295 444.884 195.415 444.884Z" fill="#343B43"/>
<path d="M163.726 722.992H41.8116C40.9313 722.992 40.4912 722.552 40.4912 721.672V599.78C40.4912 598.9 40.9313 598.46 41.8116 598.46H163.726C164.606 598.46 165.046 598.9 165.046 599.78V721.672C165.046 722.552 164.606 722.992 163.726 722.992ZM43.132 720.352H162.406V601.1H43.132V720.352Z" fill="#343B43"/>
<path d="M76.1414 697.47H53.2549C52.3747 697.47 51.9346 697.03 51.9346 696.15V625.303C51.9346 624.423 52.3747 623.983 53.2549 623.983H76.1414C77.0217 623.983 77.4618 624.423 77.4618 625.303V696.15C77.4618 697.03 76.5815 697.47 76.1414 697.47ZM54.5753 694.83H74.821V626.623H54.5753V694.83Z" fill="#343B43"/>
<path d="M113.992 697.47H91.1055C90.2253 697.47 89.7852 697.03 89.7852 696.15V652.145C89.7852 651.265 90.2253 650.825 91.1055 650.825H113.992C114.872 650.825 115.312 651.265 115.312 652.145V696.15C115.312 697.03 114.872 697.47 113.992 697.47ZM92.4259 694.83H112.672V653.465H92.4259V694.83Z" fill="#343B43"/>
<path d="M152.283 697.47H129.397C128.516 697.47 128.076 697.03 128.076 696.15V667.987C128.076 667.107 128.516 666.667 129.397 666.667H152.283C153.163 666.667 153.603 667.107 153.603 667.987V696.15C153.603 697.03 153.163 697.47 152.283 697.47ZM130.717 694.829H150.963V669.307H130.717V694.829Z" fill="#343B43"/>
<path d="M374.986 249.505C367.504 249.505 360.462 247.305 356.06 241.584C353.86 238.944 351.219 234.983 347.698 228.823C347.258 228.383 347.698 227.503 348.138 227.063C348.578 226.623 349.458 227.063 349.899 227.503C353.42 233.663 356.06 237.624 358.261 239.824C367.063 249.945 385.549 248.185 396.992 239.824C409.315 231.023 412.836 224.862 415.037 208.141C415.037 207.261 415.917 206.821 416.357 206.821C417.238 206.821 417.678 207.701 417.678 208.141C415.477 225.303 411.516 232.343 398.752 241.584C391.71 246.425 382.908 249.505 374.986 249.505Z" fill="#343B43"/>
<path d="M330.533 196.259C329.213 195.379 325.692 188.779 325.692 188.779C325.252 188.339 325.692 187.458 326.132 187.018C326.572 186.578 327.453 187.018 327.893 187.458L331.414 194.059C331.854 194.499 331.414 195.379 330.974 195.819C330.974 196.259 330.533 196.259 330.533 196.259Z" fill="#343B43"/>
<path d="M420.759 209.461C419.438 209.021 419.438 208.141 419.438 207.701C429.561 186.139 429.561 182.178 428.241 172.057C426.921 161.936 420.759 153.135 413.717 143.454L411.956 140.814C405.354 131.573 398.753 122.332 390.39 119.692C381.148 116.612 369.704 118.812 368.824 120.572C367.504 123.652 355.62 134.653 338.456 135.094C322.171 135.534 308.967 146.095 305.006 155.776C303.246 159.736 302.365 172.497 308.087 183.058C312.048 190.539 318.65 194.939 327.452 196.26C328.333 196.26 328.773 197.14 328.333 197.58C328.333 198.46 327.452 198.9 327.012 198.46C317.33 196.7 310.288 191.859 305.446 183.938C299.285 172.497 300.165 159.296 302.365 154.455C306.767 143.894 320.41 132.893 338.015 132.013C353.86 131.573 365.303 121.452 366.183 118.812C367.944 114.411 382.468 113.531 390.83 116.172C400.073 118.812 407.115 128.493 413.717 138.174L415.917 140.814C422.519 150.055 429.561 159.736 430.882 170.297C432.202 180.858 432.202 185.259 421.639 207.261C421.639 209.461 421.199 209.461 420.759 209.461Z" fill="#343B43"/>
<path d="M326.572 188.339C324.812 188.339 323.491 187.899 321.731 187.459C320.851 187.019 320.851 186.579 320.851 185.699C321.291 184.819 321.731 184.819 322.611 184.819C330.973 187.899 342.417 179.098 352.54 171.617C360.902 165.457 367.944 160.176 372.785 161.056C380.267 162.376 383.788 169.417 386.869 174.257C387.749 175.578 388.63 177.338 389.07 178.218C390.39 179.978 390.83 179.978 390.83 179.978C391.27 178.658 392.151 178.658 393.031 178.658C393.911 179.098 393.911 179.538 393.911 180.418C393.911 180.418 393.031 182.178 391.27 182.618C389.95 182.618 388.19 181.738 386.869 179.978C385.989 178.658 385.109 177.338 384.229 175.578C381.588 170.737 378.067 165.017 371.905 163.696C367.944 162.816 360.902 168.097 353.42 173.817C345.498 180.858 335.375 188.339 326.572 188.339Z" fill="#343B43"/>
<path d="M427.36 226.182C426.04 225.302 413.717 195.379 413.717 195.379C413.276 194.499 413.717 194.059 414.597 193.619C415.477 193.179 415.917 193.619 416.357 194.499L428.681 224.422C429.121 225.302 428.681 225.742 427.801 226.182C427.801 226.182 427.801 226.182 427.36 226.182Z" fill="#343B43"/>
<path d="M301.046 601.98C299.285 601.1 183.972 529.813 195.416 426.403C201.137 376.238 218.742 335.313 248.671 304.95C249.111 304.51 249.991 304.51 250.431 304.95C250.871 305.39 250.871 306.27 250.431 306.711C220.943 336.634 203.338 377.118 198.056 426.843C187.053 524.092 290.042 592.739 300.605 599.34L343.297 556.215C333.615 548.295 268.476 493.729 270.237 439.604C270.677 423.322 275.518 411.881 283.881 405.28C295.764 396.48 310.288 400.88 310.728 400.88C311.608 400.88 312.049 401.76 311.609 402.64C311.609 403.52 310.728 403.96 309.848 403.52C309.848 403.52 295.764 399.56 285.201 407.481C277.279 413.201 272.878 424.202 272.437 439.604C270.677 496.37 345.058 554.455 345.498 554.895C345.498 556.656 301.046 601.54 301.046 601.54C301.926 601.98 301.486 601.98 301.046 601.98Z" fill="#343B43"/>
<path d="M305.007 268.427C303.686 267.107 303.686 266.227 304.567 265.787C345.058 247.305 382.028 246.425 382.469 246.425C383.349 246.425 383.789 246.865 383.789 247.745C383.789 248.625 383.349 249.065 382.469 249.065C382.028 249.065 345.938 249.505 305.887 267.987C305.447 268.427 305.007 268.427 305.007 268.427Z" fill="#343B43"/>
<path d="M613.974 403.52C613.093 403.52 612.653 403.08 612.653 402.2C612.653 402.2 613.093 385.038 608.252 362.596C608.252 361.716 608.692 361.276 609.132 360.836C610.012 360.836 610.453 361.276 610.893 361.716C615.734 384.598 615.294 401.76 615.294 402.2C615.294 403.08 614.854 403.52 613.974 403.52Z" fill="#343B43"/>
<path d="M589.327 315.071C553.677 272.827 507.464 249.945 446.727 243.784C445.846 243.784 445.406 242.904 445.406 242.464C445.406 241.584 445.846 241.144 446.727 241.144C507.904 246.864 554.997 270.627 590.207 312.871C590.647 313.311 590.647 314.191 590.207 314.631C589.767 315.071 589.767 315.071 589.327 315.071Z" fill="#343B43"/>
<path d="M595.049 668.867H204.658C203.778 668.867 203.338 668.427 203.338 667.547V618.262C203.338 617.382 203.778 616.942 204.658 616.942H328.333C329.214 616.942 329.654 617.382 329.654 618.262C329.654 619.142 329.214 619.582 328.333 619.582H205.979V666.226H595.049C595.929 666.226 596.369 666.666 596.369 667.547C596.369 668.427 595.929 668.867 595.049 668.867Z" fill="#343B43"/>
<path d="M603.41 667.107C602.53 667.107 602.09 666.667 602.09 665.787V642.024C602.09 641.144 602.53 640.704 603.41 640.704C604.29 640.704 604.731 641.144 604.731 642.024V665.787C604.731 666.227 604.29 667.107 603.41 667.107Z" fill="#343B43"/>
<path d="M590.207 619.582H385.108C384.228 619.582 383.788 619.142 383.788 618.262C383.788 617.382 384.228 616.942 385.108 616.942H590.647C591.527 616.942 591.967 617.382 591.967 618.262C591.527 619.142 591.087 619.582 590.207 619.582Z" fill="#343B43"/>
<path d="M408.435 198.02C406.675 198.02 406.234 197.14 406.234 196.699C406.234 195.819 407.115 195.379 407.555 195.379C414.157 195.819 420.318 191.859 422.079 185.258C422.959 181.738 422.959 177.778 421.199 174.257C419.438 170.737 416.357 168.537 412.836 167.217C409.315 165.896 405.354 166.336 401.833 168.097C398.312 169.857 396.112 172.937 394.791 176.457C393.911 178.658 393.911 181.298 394.351 183.938C394.351 184.818 393.911 185.258 393.471 185.698C392.591 185.698 392.15 185.258 391.71 184.818C390.83 182.178 391.27 179.098 392.15 176.017C393.471 171.617 396.552 168.097 400.513 165.896C404.474 163.696 408.875 163.256 413.276 164.576C422.079 167.217 427.36 176.457 424.72 185.698C422.519 193.179 415.917 198.02 408.435 198.02Z" fill="#343B43"/>
<path d="M403.154 187.459C401.834 185.699 404.474 172.937 404.474 172.937C404.474 172.057 405.355 171.617 406.235 172.057C407.115 172.057 407.555 172.937 407.115 173.817L404.914 184.819L415.477 183.498C416.358 183.498 416.798 183.938 416.798 184.819C416.798 185.699 416.358 186.139 415.477 186.139L403.154 187.459Z" fill="#343B43"/>
<path d="M424.72 403.96C423.84 403.96 423.4 403.08 423.4 402.64L445.406 243.344L428.241 227.503L410.196 267.987C408.436 268.427 382.028 249.505 382.028 249.505H379.387L410.636 401.76C410.636 402.64 410.196 403.08 409.756 403.52C408.876 403.52 408.436 403.08 407.996 402.64L376.307 248.625C377.627 246.865 382.028 246.865 382.028 246.865C382.909 247.305 407.996 265.347 407.996 265.347L426.481 224.422C428.681 223.982 447.607 241.584 447.607 241.584C448.047 242.904 426.041 402.64 426.041 402.64C426.041 403.52 425.16 403.96 424.72 403.96Z" fill="#343B43"/>
<path d="M392.15 319.912C391.27 319.472 390.83 319.032 390.83 318.151L407.555 266.666C409.755 266.226 437.923 314.631 437.923 314.631C438.363 315.071 437.923 315.951 437.483 316.391C437.043 316.831 436.163 316.391 435.723 315.951L408.875 270.187L393.031 319.032C393.031 319.472 392.591 319.912 392.15 319.912Z" fill="#343B43"/>
<path d="M395.672 644.224C394.792 644.224 393.911 644.224 393.031 643.784C387.75 642.024 379.387 635.423 372.345 629.703C370.145 630.143 367.944 631.903 364.423 632.343C356.501 633.223 352.1 631.023 350.779 629.703C349.459 630.583 346.378 631.463 343.297 630.583C327.893 626.623 310.728 593.619 310.288 592.299C309.848 591.859 310.288 590.979 310.728 590.539C311.168 590.099 312.048 590.539 312.488 590.979C312.488 591.419 329.653 624.422 343.737 627.943C347.258 628.823 349.899 626.623 349.899 626.623C350.339 626.182 351.219 626.182 351.659 626.623C351.659 626.623 355.18 630.143 363.983 629.263C366.624 628.823 368.384 627.503 369.264 627.063C370.145 626.623 371.025 625.742 372.345 626.183C372.785 626.183 373.226 626.623 373.666 627.503C377.627 630.583 388.19 639.384 393.911 641.144C396.992 642.024 398.753 640.264 399.193 639.384C400.513 637.184 400.953 634.543 399.633 632.783C398.313 631.023 393.911 627.503 389.51 623.542C384.229 619.142 378.507 614.301 375.426 610.781L372.785 607.701C365.743 599.78 361.782 594.939 361.342 592.299C361.342 590.979 362.222 590.539 362.663 590.099C364.423 589.219 367.944 592.299 373.226 599.34C378.067 605.5 387.75 609.901 390.39 608.141C391.711 603.74 385.989 596.7 384.229 594.059C383.348 592.739 382.028 590.979 381.148 589.659C375.866 582.178 369.264 572.937 358.261 569.417C344.177 565.016 340.216 562.816 340.216 562.376C339.776 561.936 339.336 561.056 339.776 560.616C340.216 560.176 341.096 559.736 341.537 560.176C341.537 560.176 345.498 562.376 358.701 566.777C370.585 570.297 377.627 580.858 382.908 588.339C384.229 590.099 385.109 591.419 385.989 592.739C391.711 600.22 393.911 604.62 393.471 607.701C393.471 609.021 392.591 609.901 391.711 610.341C387.31 612.981 375.866 607.261 371.025 600.66C368.384 597.58 366.624 595.379 364.863 594.059C367.064 597.14 371.465 601.98 374.546 605.5L377.187 608.581C380.268 612.101 385.989 616.942 390.831 620.902C395.672 624.862 399.633 628.383 401.394 630.583C403.154 633.223 403.154 637.184 400.953 640.264C400.073 642.904 397.873 644.224 395.672 644.224Z" fill="#343B43"/>
<path d="M603.411 568.097H510.984C510.104 568.097 509.664 567.657 509.664 566.777V474.367C509.664 473.487 510.104 473.047 510.984 473.047H603.411C604.291 473.047 604.731 473.487 604.731 474.367V566.777C604.731 567.657 604.291 568.097 603.411 568.097ZM512.305 565.457H602.09V475.687H512.305V565.457Z" fill="#343B43"/>
<path d="M438.364 568.097H371.025C370.144 568.097 369.704 567.657 369.704 566.777C369.704 565.897 370.144 565.457 371.025 565.457H437.043V475.687H347.258V540.374C347.258 541.254 346.818 541.694 345.938 541.694C345.057 541.694 344.617 541.254 344.617 540.374V474.367C344.617 473.487 345.057 473.047 345.938 473.047H438.364C439.244 473.047 439.684 473.487 439.684 474.367V566.777C439.684 567.657 439.244 568.097 438.364 568.097Z" fill="#343B43"/>
<path d="M249.99 568.097H179.57C178.69 568.097 178.25 567.657 178.25 566.777V474.367C178.25 473.487 178.69 473.047 179.57 473.047H192.774C193.654 473.047 194.094 473.487 194.094 474.367C194.094 475.247 193.654 475.687 192.774 475.687H180.891V565.457H249.99C250.871 565.457 251.311 565.897 251.311 566.777C251.311 567.657 250.871 568.097 249.99 568.097Z" fill="#343B43"/>
<path d="M500.861 398.68C499.981 398.24 476.214 370.517 476.214 370.517L461.69 370.957C460.81 370.517 449.807 357.756 449.807 357.756C449.367 356.875 450.247 340.154 450.247 340.154C452.448 339.274 463.891 353.355 463.891 353.355L477.535 352.475L480.616 339.274L468.732 325.632C470.053 323.432 486.337 325.632 486.337 325.632C487.217 326.072 497.78 338.834 497.78 338.834C498.221 340.154 494.7 354.235 494.7 354.235L514.505 377.998C514.945 378.438 514.945 379.318 514.505 379.758C514.065 380.198 513.185 380.198 512.745 379.758L492.499 355.555C492.059 354.235 495.58 340.154 495.58 340.154L485.897 328.273L473.574 326.512L483.696 337.954C484.137 339.274 480.175 353.795 480.175 353.795C478.855 354.675 463.891 355.555 463.891 355.555C463.011 355.115 453.328 343.234 453.328 343.234L452.888 355.555L463.011 367.436L477.535 366.996C478.415 367.436 502.622 395.599 502.622 395.599C503.062 396.039 503.062 396.919 502.622 397.359C501.301 398.68 500.861 398.68 500.861 398.68Z" fill="#343B43"/>
<path d="M311.169 403.52C310.288 403.52 309.848 403.08 309.848 402.2C307.648 381.078 309.848 314.191 309.848 313.751C309.848 312.871 310.288 312.431 311.169 312.431C312.049 312.431 312.489 312.871 312.489 313.751C312.489 314.631 310.288 381.078 312.489 402.2C312.489 402.64 312.049 403.52 311.169 403.52Z" fill="#343B43"/>
<path d="M501.742 366.997C500.861 366.997 500.421 366.116 500.421 365.676C502.182 343.674 499.541 314.631 499.541 314.191C499.541 313.311 499.981 312.871 500.861 312.871C501.742 312.871 502.182 313.311 502.182 314.191C502.182 314.631 504.823 344.114 503.062 366.116C503.062 366.116 502.622 366.997 501.742 366.997Z" fill="#343B43"/>
<path d="M128.956 330.473C121.474 330.473 113.992 330.473 106.95 330.473C104.309 330.473 102.549 329.593 101.669 326.953C99.028 318.592 96.8274 311.991 94.1866 305.831C93.7465 304.951 92.8662 303.63 91.5459 303.19C88.9051 301.87 86.2644 300.55 83.1835 299.67C79.6625 298.35 76.1415 296.59 72.6205 294.83C70.86 293.949 69.9798 293.949 68.2193 294.83C65.1384 296.59 61.6174 297.91 58.5365 299.23C55.4557 300.55 52.3748 302.31 49.2939 303.63C46.2131 304.951 44.8927 304.511 42.6921 302.75C37.8507 297.91 32.5692 292.629 27.2877 287.349C25.0871 285.589 25.0871 283.388 26.4075 280.748C27.7278 277.668 29.0482 275.028 30.8087 271.947C32.1291 268.867 33.8896 265.787 35.21 262.266C36.0902 260.506 36.0902 259.186 35.21 256.986C33.4495 253.905 32.1291 250.385 30.8087 246.865C29.4883 244.224 28.6081 241.584 27.2877 238.944C26.4075 237.624 25.5272 236.304 24.2068 235.864C16.7247 233.223 9.24261 230.583 3.08087 228.823C0.880249 228.383 0 226.623 0 223.982C0 216.062 0 209.021 0 201.98C0 198.46 1.7605 197.14 3.96112 196.7C11.8834 194.059 18.0451 191.859 24.647 189.659C25.5272 189.219 26.8476 187.899 27.7278 186.579C30.8087 180.858 33.4495 174.698 36.0902 168.097C36.5303 166.777 36.5303 165.457 36.0902 164.577C33.0093 157.536 29.9285 150.935 26.8476 145.215C25.5272 143.014 25.5272 140.814 27.7278 138.614C32.5692 134.214 37.4106 128.933 43.1322 123.212C44.0124 121.892 46.2131 120.572 49.2939 122.332C52.3748 124.092 55.4557 125.413 58.5365 126.733C62.0575 128.493 65.1384 129.813 68.6594 131.573C70.4199 132.453 71.3002 132.453 73.0607 131.573C78.7823 128.933 84.944 126.733 91.1058 124.533C92.8663 123.652 93.7465 123.212 94.1866 121.452C95.507 118.372 96.3873 114.852 97.7076 111.771C99.028 108.691 99.9082 105.611 101.229 102.53C101.669 100.77 102.989 98.5699 106.51 98.5699C113.992 98.5699 121.474 98.5699 128.516 98.5699C132.037 98.5699 132.918 100.33 133.798 102.53C136.439 110.451 138.639 116.172 140.84 121.892C141.28 122.772 142.6 124.092 143.921 124.533C150.082 127.173 156.244 129.813 162.846 132.013C163.726 132.453 165.487 132.453 166.367 132.013C172.529 129.373 178.691 126.293 186.173 122.772C189.253 121.452 191.014 122.772 191.894 123.652C194.095 125.853 196.295 128.493 198.936 130.693C202.017 133.773 205.098 136.854 207.739 139.934C209.059 141.254 209.059 143.894 208.619 145.215C206.858 148.735 205.538 152.255 203.778 155.776C202.017 158.856 200.697 162.376 198.936 165.897C198.496 166.777 198.496 168.097 198.936 168.977C201.577 176.458 203.778 182.178 206.418 187.459C206.858 188.779 208.179 190.099 209.499 190.539C216.101 193.179 222.703 195.82 228.425 197.58C231.065 198.46 232.386 200.22 232.386 202.86C232.386 209.901 232.386 216.942 232.386 224.863C232.386 227.503 231.505 229.263 228.865 230.143C220.942 232.783 215.221 234.984 209.499 237.184C208.619 237.624 207.299 238.944 206.858 239.824C204.218 245.985 202.017 252.145 199.376 259.186C198.936 260.066 199.376 261.386 199.816 262.266C201.137 265.347 202.897 268.427 204.218 271.507C205.978 275.028 207.739 278.548 209.059 282.068C209.939 283.388 209.499 286.029 208.619 287.349C204.218 292.189 199.376 297.03 194.975 301.43L191.014 305.391C189.694 305.831 183.532 302.75 183.532 302.75C177.81 300.11 172.529 297.47 166.807 294.83C165.927 294.39 164.607 294.39 163.286 294.83C156.684 297.47 150.082 300.11 144.361 303.19C143.04 303.63 142.16 304.951 141.72 305.831C139.079 311.991 136.879 319.032 134.678 326.513C133.358 329.153 131.597 330.473 128.956 330.473ZM117.953 327.833C121.474 327.833 124.995 327.833 128.956 327.833C130.717 327.833 131.157 327.393 131.597 325.633C134.238 318.152 136.439 311.111 138.639 304.951C139.519 303.19 141.28 301.43 142.6 300.55C148.762 297.91 154.924 294.83 161.526 292.189C163.286 291.309 165.487 291.309 166.807 292.189C172.529 294.83 177.81 297.03 183.532 300.11L188.373 302.31L191.894 298.79C196.295 294.39 201.137 289.549 205.538 284.709C205.978 284.268 205.978 282.948 205.538 282.068C203.778 278.548 202.457 275.028 200.697 271.507C199.376 268.427 197.616 265.347 196.295 262.266C195.415 260.506 195.415 258.746 195.855 256.986C198.496 249.945 200.697 243.344 203.337 237.624C204.218 235.864 205.978 234.103 207.299 233.223C213.02 231.023 218.742 228.823 226.664 226.183C227.984 225.743 228.425 225.303 228.425 223.542C228.425 215.622 228.425 208.581 228.425 201.54C228.425 199.78 227.984 199.34 226.224 198.9C220.502 197.14 213.9 194.5 206.858 191.859C204.658 190.979 203.337 189.219 202.457 187.459C200.257 182.178 197.616 176.018 194.975 168.977C194.535 167.657 194.095 165.457 194.975 163.696C196.295 160.176 198.056 157.096 199.816 153.575C201.577 150.055 203.337 146.535 204.658 143.014C205.098 142.574 204.658 140.814 204.218 140.814C201.137 137.734 198.056 134.654 195.415 131.573C193.215 129.373 191.014 126.733 188.373 124.533C178.25 127.613 171.649 130.693 165.927 133.333C164.166 134.214 161.966 134.214 160.645 133.773C154.044 131.573 147.882 128.933 141.72 126.293C139.96 125.413 138.199 124.092 137.319 122.332C135.118 116.612 132.918 110.891 130.277 102.97C129.837 101.21 129.397 100.77 127.636 100.77C120.154 100.77 112.672 100.77 105.63 100.77C103.869 100.77 103.429 101.21 102.989 102.97C102.109 106.051 100.788 109.131 99.4681 112.211C98.1477 115.292 97.2675 118.812 95.9471 121.892C95.0669 124.533 93.7465 125.853 91.1058 126.733C84.944 128.933 79.2224 131.133 73.5008 133.773C70.86 135.094 69.0995 135.094 66.8989 133.773C63.3779 132.013 60.297 130.693 56.776 128.933C53.6952 127.613 50.6143 125.853 47.5334 124.533C45.7729 124.092 45.3328 124.092 44.4526 124.973C38.7309 130.693 33.8896 135.974 29.0482 140.374C27.7278 141.694 27.7278 142.134 28.6081 143.894C31.2488 149.615 34.7698 156.656 37.8507 163.256C38.7309 165.017 38.2908 167.217 37.8507 168.977C35.21 175.138 32.1291 181.738 29.0482 187.459C28.168 188.779 26.8476 190.979 24.647 191.859C18.0451 194.5 11.4432 196.7 3.96112 198.9C2.20062 199.34 1.7605 200.22 1.7605 201.54C1.7605 208.141 1.7605 215.622 1.7605 223.542C1.7605 225.303 2.20062 225.743 3.521 226.183C9.68274 228.383 17.1649 230.583 24.647 233.663C26.8476 234.544 28.168 236.744 29.0482 238.064C30.3686 240.704 31.2488 243.344 32.5692 245.985C33.8896 249.065 35.21 252.585 36.9704 255.666C38.2908 258.306 38.2908 260.506 36.9704 263.146C35.21 266.227 33.8896 269.307 32.5692 272.387C31.2488 275.468 29.9285 278.548 28.168 281.188C27.2877 282.948 27.2877 283.388 28.6081 284.709C34.3297 289.989 39.1711 295.27 44.0124 300.11C44.8927 300.99 45.3328 300.99 45.7729 300.99C50.6143 298.79 53.6952 297.47 56.776 295.71C59.8569 294.389 63.3779 292.629 66.4588 291.309C68.6594 289.989 70.4199 289.989 73.0607 291.309C76.5816 293.069 80.1026 294.39 83.1835 296.15C85.8243 297.47 88.9051 298.35 91.5459 299.67C93.3064 300.55 94.6268 301.87 95.507 303.63C97.7076 309.791 100.348 316.392 102.989 324.753C103.429 326.073 103.869 326.513 105.63 326.513C110.471 327.833 114.432 327.833 117.953 327.833ZM117.953 256.986C106.07 256.986 95.0669 252.585 86.7045 244.225C78.3421 235.864 73.9409 224.863 73.9409 212.981C73.9409 188.339 93.3064 168.977 118.393 168.977C142.6 168.977 162.406 188.779 162.406 212.981C161.966 237.184 142.16 256.986 117.953 256.986ZM118.393 170.297C95.0669 171.617 76.5816 189.659 76.5816 212.981C76.5816 223.982 80.9829 234.544 88.465 242.464C96.3872 250.385 106.51 254.786 117.953 254.786C140.84 254.786 159.325 236.304 159.325 213.421C159.325 190.539 140.84 172.057 118.393 172.057V170.297Z" fill="#343B43"/>
<path d="M702.438 362.596H570.841C562.479 362.596 555.877 355.995 555.877 347.635V327.393C555.877 319.032 562.479 312.431 570.841 312.431H589.326C590.207 312.431 590.647 312.871 590.647 313.751C590.647 314.631 590.207 315.071 589.326 315.071H570.841C564.239 315.071 558.518 320.792 558.518 327.393V347.635C558.518 354.235 564.239 359.956 570.841 359.956H702.438C703.319 359.956 703.759 360.396 703.759 361.276C703.759 361.716 703.319 362.596 702.438 362.596Z" fill="#343B43"/>
<path d="M834.035 362.596H768.897C768.017 362.596 767.577 362.156 767.577 361.276C767.577 360.396 768.017 359.956 768.897 359.956H834.035C840.637 359.956 846.359 354.235 846.359 347.635V327.393C846.359 320.792 840.637 315.071 834.035 315.071H589.326C588.446 315.071 588.006 314.631 588.006 313.751C588.006 312.871 588.446 312.431 589.326 312.431H834.035C842.398 312.431 849 319.032 849 327.393V347.635C849 355.995 842.398 362.596 834.035 362.596Z" fill="#343B43"/>
<path d="M780.34 800H616.174C615.294 800 614.854 799.56 614.854 798.68C614.854 797.8 615.294 797.36 616.174 797.36H780.34C781.221 797.36 781.661 797.8 781.661 798.68C781.661 799.56 781.221 800 780.34 800Z" fill="#343B43"/>
<path d="M369.265 234.984C367.944 233.663 367.944 232.783 368.824 232.343L378.507 227.063C378.947 226.623 379.828 227.063 380.268 227.503C380.708 227.943 380.268 228.823 379.828 229.263L369.705 234.543L369.265 234.984Z" fill="#343B43"/>
<path d="M333.614 195.82C332.294 194.499 332.294 193.619 333.174 193.179L339.776 190.099C340.216 189.659 341.096 190.099 341.536 190.979C341.977 191.859 341.536 192.299 340.656 192.739L334.054 195.82C333.614 195.82 333.614 195.82 333.614 195.82Z" fill="#343B43"/>
<path d="M360.902 180.858C359.582 179.538 359.582 178.658 360.462 178.218L367.064 175.577C367.944 175.137 368.384 175.577 368.824 176.457C369.265 177.338 368.824 177.778 367.944 178.218L361.342 180.418C360.902 180.858 360.902 180.858 360.902 180.858Z" fill="#343B43"/>
<path d="M419.439 310.671H407.555C406.235 309.791 398.753 294.829 398.753 294.829C398.312 294.389 398.753 293.509 399.193 293.069C399.633 292.629 400.513 293.069 400.953 293.509L407.995 308.031H418.118L422.079 292.629C422.079 291.749 422.96 291.309 423.84 291.749C424.72 291.749 425.16 292.629 424.72 293.509L420.759 309.791C420.319 310.231 419.879 310.671 419.439 310.671Z" fill="#343B43"/>
<path d="M402.714 372.717C401.834 372.717 401.394 371.837 401.394 371.397L405.795 308.911C405.795 308.031 406.675 307.591 407.115 307.591C407.995 307.591 408.436 308.471 408.436 308.911L404.034 371.397C404.034 372.277 403.594 372.717 402.714 372.717Z" fill="#343B43"/>
<path d="M430.442 361.716C429.121 360.396 418.118 309.351 418.118 309.351C418.118 308.471 418.558 308.031 418.998 307.591C419.879 307.591 420.319 308.031 420.759 308.471L431.762 359.516C431.762 360.836 431.322 361.276 430.442 361.716C430.882 361.716 430.442 361.716 430.442 361.716Z" fill="#343B43"/>
<path d="M812.03 352.475C803.667 352.475 797.065 345.874 797.065 337.513C797.065 329.153 803.667 322.552 812.03 322.552C820.392 322.552 826.994 329.153 826.994 337.513C826.994 345.434 820.392 352.475 812.03 352.475ZM812.03 325.192C805.428 325.192 799.706 330.473 799.706 337.513C799.706 344.114 804.988 349.835 812.03 349.835C818.631 349.835 824.353 344.554 824.353 337.513C824.353 330.913 818.631 325.192 812.03 325.192Z" fill="#343B43"/>
<path d="M784.742 330.033H580.964C580.084 330.033 579.644 329.593 579.644 328.713C579.644 327.833 580.084 327.393 580.964 327.393H784.301C785.182 327.393 785.622 327.833 785.622 328.713C785.622 329.593 785.182 330.033 784.742 330.033Z" fill="#343B43"/>
<path d="M784.742 347.194H580.964C580.084 347.194 579.644 346.754 579.644 345.874C579.644 344.994 580.084 344.554 580.964 344.554H784.301C785.182 344.554 785.622 344.994 785.622 345.874C786.062 346.754 785.182 347.194 784.742 347.194Z" fill="#343B43"/>
<path d="M292.683 705.39H186.173C185.293 705.39 184.853 704.95 184.853 704.07C184.853 703.19 185.293 702.75 186.173 702.75H292.683C293.563 702.75 294.003 703.19 294.003 704.07C294.003 704.95 293.123 705.39 292.683 705.39Z" fill="#343B43"/>
<path d="M292.683 727.832H186.173C185.293 727.832 184.853 727.392 184.853 726.512C184.853 725.632 185.293 725.192 186.173 725.192H292.683C293.563 725.192 294.003 725.632 294.003 726.512C294.003 727.392 293.123 727.832 292.683 727.832Z" fill="#343B43"/>
<path d="M598.129 705.39H491.619C490.739 705.39 490.299 704.95 490.299 704.07C490.299 703.19 490.739 702.75 491.619 702.75H598.129C599.009 702.75 599.45 703.19 599.45 704.07C599.45 704.95 599.009 705.39 598.129 705.39Z" fill="#343B43"/>
<path d="M598.129 727.832H491.619C490.739 727.832 490.299 727.392 490.299 726.512C490.299 725.632 490.739 725.192 491.619 725.192H598.129C599.009 725.192 599.45 725.632 599.45 726.512C599.45 727.392 599.009 727.832 598.129 727.832Z" fill="#343B43"/>
<path d="M444.086 705.39H338.016C337.135 705.39 336.695 704.95 336.695 704.07C336.695 703.19 337.135 702.75 338.016 702.75H444.526C445.406 702.75 445.846 703.19 445.846 704.07C445.406 704.95 444.966 705.39 444.086 705.39Z" fill="#343B43"/>
<path d="M444.086 727.832H338.016C337.135 727.832 336.695 727.392 336.695 726.512C336.695 725.632 337.135 725.192 338.016 725.192H444.526C445.406 725.192 445.846 725.632 445.846 726.512C445.846 727.392 444.966 727.832 444.086 727.832Z" fill="#343B43"/>
<path d="M371.465 628.823C370.145 627.943 357.821 617.382 353.86 610.341C353.42 609.901 353.86 609.021 354.3 608.581C354.74 608.141 355.621 608.581 356.061 609.021C360.022 615.621 372.345 626.182 372.345 626.182C372.785 626.622 372.785 627.503 372.345 627.943C372.345 628.823 371.905 628.823 371.465 628.823Z" fill="#343B43"/>
<path d="M350.779 629.263C349.459 628.823 339.336 620.462 335.375 613.421C334.935 612.981 335.375 612.101 335.815 611.661C336.255 611.221 337.135 611.661 337.575 612.101C341.536 618.702 351.219 626.622 351.659 626.622C352.099 627.062 352.099 627.942 351.659 628.382C351.219 629.263 351.219 629.263 350.779 629.263Z" fill="#343B43"/>
</g>
<defs>
<linearGradient id="paint0_linear_156_946" x1="146.121" y1="435.171" x2="156.881" y2="351.066" gradientUnits="userSpaceOnUse">
<stop stop-color="#234DAE"/>
<stop offset="1" stop-color="#347BCE"/>
</linearGradient>
<linearGradient id="paint1_linear_156_946" x1="598.129" y1="229.947" x2="833.027" y2="76.3918" gradientUnits="userSpaceOnUse">
<stop stop-color="#234DAE"/>
<stop offset="1" stop-color="#347BCE"/>
</linearGradient>
<linearGradient id="paint2_linear_156_946" x1="311.106" y1="189.059" x2="404.836" y2="109.142" gradientUnits="userSpaceOnUse">
<stop stop-color="#234DAE"/>
<stop offset="1" stop-color="#347BCE"/>
</linearGradient>
<linearGradient id="paint3_linear_156_946" x1="450.687" y1="382.908" x2="515.497" y2="346.447" gradientUnits="userSpaceOnUse">
<stop stop-color="#234DAE"/>
<stop offset="1" stop-color="#347BCE"/>
</linearGradient>
<linearGradient id="paint4_linear_156_946" x1="686.998" y1="499.621" x2="734.452" y2="486.268" gradientUnits="userSpaceOnUse">
<stop stop-color="#234DAE"/>
<stop offset="1" stop-color="#347BCE"/>
</linearGradient>
<linearGradient id="paint5_linear_156_946" x1="624.954" y1="556.162" x2="716.158" y2="498.695" gradientUnits="userSpaceOnUse">
<stop stop-color="#234DAE"/>
<stop offset="1" stop-color="#347BCE"/>
</linearGradient>
<linearGradient id="paint6_linear_156_946" x1="651.313" y1="670.292" x2="718.225" y2="650.443" gradientUnits="userSpaceOnUse">
<stop stop-color="#234DAE"/>
<stop offset="1" stop-color="#347BCE"/>
</linearGradient>
<linearGradient id="paint7_linear_156_946" x1="587.112" y1="677.174" x2="678.312" y2="619.715" gradientUnits="userSpaceOnUse">
<stop stop-color="#234DAE"/>
<stop offset="1" stop-color="#347BCE"/>
</linearGradient>
<linearGradient id="paint8_linear_156_946" x1="592.848" y1="746.577" x2="681.508" y2="700.591" gradientUnits="userSpaceOnUse">
<stop stop-color="#234DAE"/>
<stop offset="1" stop-color="#347BCE"/>
</linearGradient>
<linearGradient id="paint9_linear_156_946" x1="45.333" y1="705.913" x2="161.94" y2="629.686" gradientUnits="userSpaceOnUse">
<stop stop-color="#234DAE"/>
<stop offset="1" stop-color="#347BCE"/>
</linearGradient>
<linearGradient id="paint10_linear_156_946" x1="525.949" y1="561.815" x2="614.773" y2="503.75" gradientUnits="userSpaceOnUse">
<stop stop-color="#234DAE"/>
<stop offset="1" stop-color="#347BCE"/>
</linearGradient>
<linearGradient id="paint11_linear_156_946" x1="360.902" y1="533.652" x2="449.726" y2="475.587" gradientUnits="userSpaceOnUse">
<stop stop-color="#234DAE"/>
<stop offset="1" stop-color="#347BCE"/>
</linearGradient>
<linearGradient id="paint12_linear_156_946" x1="341.349" y1="222.057" x2="355.024" y2="207.952" gradientUnits="userSpaceOnUse">
<stop stop-color="#234DAE"/>
<stop offset="1" stop-color="#347BCE"/>
</linearGradient>
<linearGradient id="paint13_linear_156_946" x1="368.341" y1="207.499" x2="382.012" y2="193.39" gradientUnits="userSpaceOnUse">
<stop stop-color="#234DAE"/>
<stop offset="1" stop-color="#347BCE"/>
</linearGradient>
<linearGradient id="paint14_linear_156_946" x1="802.347" y1="348.639" x2="828.446" y2="331.578" gradientUnits="userSpaceOnUse">
<stop stop-color="#234DAE"/>
<stop offset="1" stop-color="#347BCE"/>
</linearGradient>
<linearGradient id="paint15_linear_156_946" x1="402.273" y1="374.492" x2="444.542" y2="368.012" gradientUnits="userSpaceOnUse">
<stop stop-color="#234DAE"/>
<stop offset="1" stop-color="#347BCE"/>
</linearGradient>
<clipPath id="clip0_156_946">
<rect width="849" height="800" fill="white"/>
</clipPath>
</defs>
</svg>
