<svg width="729" height="633" viewBox="0 0 729 633" fill="none" xmlns="http://www.w3.org/2000/svg">
<g clip-path="url(#clip0_170_2565)">
<path d="M723.2 591.3C711.3 608.2 681.2 619 665.7 622.1C617.1 632 560.9 621.6 511.9 618.8C450 615.2 388 612.2 326 612.5C267.3 612.7 211.6 621.2 153.6 628.7C116.9 633.5 77.8001 635.8 42.3001 623.4C24.2001 617.1 0.50006 599.8 1.70006 578.4C4.50006 531.7 80.4001 542.2 108.5 545.5C217 558.4 326.8 545.2 435.7 548.1C472.9 549.1 510.8 548.9 548.3 546.6C583.7 544.4 618.5 540.7 654.3 540.7C677.4 540.7 712.2 539.9 725 564.1C730.3 574.4 728.7 583.5 723.2 591.3Z" fill="#ECEFF1"/>
<path d="M180.8 429.6L210.9 437.1L218.7 424L392.7 124.5L499.1 434.8L649 388.5L529.9 585.7C529.9 585.7 404 593.1 336.2 593.1C264.1 593.1 158.3 585.7 158.3 585.7L0 381.9L180.8 429.6Z" fill="url(#paint0_linear_170_2565)"/>
<path d="M307.8 238.5L308.1 284.5C308.1 284.5 260.1 271.8 235.1 257.5C210.1 243.2 190.6 228.5 190.6 228.5C190.6 228.5 204.5 184.4 207.3 159.6C209.5 140.1 210.5 142.1 210.5 142.1C210.5 142.1 192.1 153.8 168.5 151C144.9 148.2 132.7 135.5 127.8 116.8C122.9 98.1 122.7 78.2 123.3 70.8C123.8 63.3 124 61.3 124 61.3L154.8 58.2C154.8 58.2 149.9 106.4 171.7 109.3C171.7 109.3 179.8 113.9 200.5 100C221.2 86.2 244.8 73.1 252 70.8L240.2 194.1L281.6 72.7L294.6 82.9C294.6 82.9 328.1 92.1 346.7 116.1C365.2 140.2 371 170.4 369.9 191.7C368.8 213.1 358.7 250 331.7 274.8L308.7 238.9C308.7 238.9 331.7 209.2 335.1 188.8C338.5 168.4 328.2 159.3 318.9 156.5L307.8 238.5Z" fill="#343B43"/>
<path d="M238.5 40L242.6 40.2C242.6 40.2 243.8 37.9 243.8 35.9C243.8 33.9 242.7 33.3 242.7 33.3L238.8 33.1L238.9 30.6L241.7 19.3C241.7 19.3 246.9 13.7 257.1 14.6C267.4 15.6 273 17.4 273 17.4C273 17.4 275.6 24.8 275 35.8C275 35.8 279.8 29.1 285.2 32.1C290.6 35 291.3 44.6 282.1 48.4L282 72.1L278.8 80.8C278.8 80.8 268.6 84.3 261.8 83.6C255 83 252.2 78.1 252.2 78.1L252.5 70.7C252.5 70.7 243.6 71.7 239.1 65.1C234.6 58.6 238.5 40 238.5 40Z" fill="white"/>
<path d="M321.6 259.3L309 239.7C309 239.7 299.7 236.5 296.8 236.8C293.9 237.1 291.6 237 289.4 242C287.1 246.9 286.3 251.9 286.3 251.9C286.3 251.9 279 258.3 279.8 259.7C280.5 261.1 286.3 259.7 290.3 258.5C294.3 257.3 298.4 260.5 304.8 261.3C311.1 262.1 317.9 262.5 321.6 259.3Z" fill="white"/>
<path d="M151.9 393.5L150 407.6L142.9 406.6L141.7 403.4L138.2 406L88.7998 402.8L115.6 390.7L151.9 393.5Z" fill="#343B43"/>
<path d="M253.9 2.5C263.8 -0.499999 276.4 0.300001 283.2 9.5C283.2 9.5 290.9 11.3 291.2 20C291.4 28.6 287.5 34.1 287.5 34.1C287.5 34.1 283.2 28.5 278.4 32.7L276.7 33.6C276.7 33.6 278.7 23.4 276 18.7C276 18.7 269.2 14.4 259.6 14.4C250 14.4 242 18.5 242 18.5L239.3 25.2C239.3 25.2 239.4 20.5 240 16.2C240.9 10 244 5.5 253.9 2.5Z" fill="white"/>
<path d="M302.2 282.7L311.7 448.3L253.3 434.3L228.4 292.6C228.4 292.6 198.9 284.7 184.2 285.7C169.5 286.6 165.4 293.5 164.3 301.9C163.6 307.1 164 393.8 164 393.8L104.5 389.7L108 281.3C108 281.3 104.1 253.9 129.8 242.2C156.8 229.9 189.5 227.7 189.5 227.7C189.5 227.7 213.4 250.1 251.9 264.6C290.6 279 302.2 282.7 302.2 282.7Z" fill="white"/>
<path d="M113.8 37.7C113.8 32.8 113.2 32.2 113.2 32.2L191.7 32.3L192.5 34.8L243.3 35.6C245 38.1 242.5 42.8 242.5 42.8L192.8 43.5L191.4 46.2L110.5 45.8C110.5 45.7 113.8 42.9 113.8 37.7Z" fill="url(#paint1_linear_170_2565)"/>
<path d="M127.6 30.1C127.6 30.1 127.1 25.3 138.1 24.8C149.1 24.3 151.6 25.3 153.1 26.1C154.6 26.9 159.3 27.7 159 35.8L161.2 43.5C161.2 43.5 157.6 55.1 150.5 58.3L130 60L127.2 43.4L151.9 43.2L150.4 38.1C150.4 38.1 149.5 41.1 145.7 40.9C141.9 40.7 141.1 35.4 141.1 35.4C141.1 35.4 140.1 41.1 135.2 40.9C130.3 40.6 130.4 37.9 130.4 37.9C130.4 37.9 133.7 33 130.5 30.3L127.6 30.1Z" fill="white"/>
<path d="M110 44.8C111.325 44.8 112.4 41.666 112.4 37.8C112.4 33.934 111.325 30.8 110 30.8C108.674 30.8 107.6 33.934 107.6 37.8C107.6 41.666 108.674 44.8 110 44.8Z" fill="white"/>
<path d="M123.6 395.2C123.5 395.2 109.8 394 109.8 394C109.4 394 109.2 393.7 109.2 393.3C109.2 392.9 109.6 392.7 109.9 392.7L123.6 393.9C124 393.9 124.2 394.2 124.2 394.6C124.2 394.9 123.9 395.2 123.6 395.2Z" fill="white"/>
<path d="M117.6 398C117.5 398 103.8 396.8 103.8 396.8C103.4 396.8 103.2 396.5 103.2 396.1C103.2 395.7 103.6 395.5 103.9 395.5L117.6 396.7C118 396.7 118.2 397 118.2 397.4C118.2 397.7 117.9 398 117.6 398Z" fill="white"/>
<path d="M267.9 101.5L263.9 107.7L259.4 138.8L244.7 181.1L250.4 126L256.7 105.8L256.2 97.6L264.4 88.3L267.9 101.5Z" fill="url(#paint2_linear_170_2565)"/>
<path d="M340.5 64.2H561.5L528.4 60.7C528.4 60.7 531.2 45.9 511.9 41.9C492.6 38 489 53.1 489 53.1C489 53.1 499.1 29.7 456 28.2C412.9 26.7 417.2 52.4 417.2 52.4C417.2 52.4 419.2 46.9 405.2 46.2C391.2 45.5 390 57.3 390 57.3L340.5 64.2Z" fill="white"/>
<path d="M533 183.5H623.8L593.7 176.8C593.7 176.8 593.4 167.8 576.5 167.4C559.5 166.9 560.9 178.7 560.9 178.7L533 183.5Z" fill="white"/>
<path d="M199.2 199.4L176.6 196.7C176.6 196.7 183.9 177.7 158.3 173.5C132.7 169.3 125.3 192.4 125.3 192.4C125.3 192.4 124.4 186 107.9 186C91.3996 186 86.7996 199.1 86.7996 199.1L31.5996 205.6L196.8 206.1L199.2 199.4Z" fill="white"/>
<path d="M551.9 281.7C551.6 281.7 551.4 281.6 551.1 281.4C550.7 281 550.7 280.3 551.1 279.9L562 269C562.4 268.6 563.1 268.6 563.5 269C563.9 269.4 563.9 270.1 563.5 270.5L552.6 281.4C552.4 281.6 552.2 281.7 551.9 281.7Z" fill="#343B43"/>
<path d="M562.8 281.7C562.5 281.7 562.3 281.6 562 281.4L551.1 270.5C550.7 270.1 550.7 269.4 551.1 269C551.5 268.6 552.2 268.6 552.6 269L563.5 279.9C563.9 280.3 563.9 281 563.5 281.4C563.4 281.6 563.1 281.7 562.8 281.7Z" fill="#343B43"/>
<path d="M538.9 264C536.6 264 534.7 262.1 534.7 259.8C534.7 257.5 536.6 255.6 538.9 255.6C541.2 255.6 543.1 257.5 543.1 259.8C543.1 262.1 541.2 264 538.9 264ZM538.9 257.7C537.8 257.7 536.8 258.6 536.8 259.8C536.8 260.9 537.7 261.9 538.9 261.9C540 261.9 541 261 541 259.8C541 258.6 540 257.7 538.9 257.7Z" fill="#343B43"/>
<path d="M50.7996 87.7C48.4996 87.7 46.5996 85.8 46.5996 83.5C46.5996 81.2 48.4996 79.3 50.7996 79.3C53.0996 79.3 54.9996 81.2 54.9996 83.5C54.9996 85.9 53.0996 87.7 50.7996 87.7ZM50.7996 81.5C49.6996 81.5 48.6996 82.4 48.6996 83.6C48.6996 84.7 49.5996 85.7 50.7996 85.7C51.8996 85.7 52.8996 84.8 52.8996 83.6C52.8996 82.4 51.9996 81.5 50.7996 81.5Z" fill="#343B43"/>
<path d="M105.8 344.9H57.8002C57.2002 344.9 56.7002 344.4 56.7002 343.8C56.7002 343.2 57.2002 342.7 57.8002 342.7H105.8C106.4 342.7 106.9 343.2 106.9 343.8C106.9 344.4 106.3 344.9 105.8 344.9Z" fill="#343B43"/>
<path d="M364 603.3C294.5 603.3 193.5 595.9 192.5 595.9C192.2 595.9 191.9 595.7 191.7 595.4L191 594.4L33.5004 377.6C33.2004 377.2 33.2004 376.7 33.5004 376.4C33.7004 376 34.2004 375.9 34.6004 376L104.5 394.6C105.1 394.8 105.4 395.3 105.3 395.9C105.2 396.5 104.6 396.8 104 396.7L37.0004 378.9L193.2 593.9C201.1 594.5 297.1 601.3 364 601.3C446.1 601.3 554.9 594.5 563.6 593.9L681.2 399.4L401.1 472C400.9 472 400.8 472.1 400.6 472L137.9 407.1C137.3 407 137 406.4 137.1 405.8C137.2 405.2 137.8 404.9 138.4 405L400.8 469.8L683.2 396.5C683.6 396.4 684.1 396.5 684.3 396.9C684.6 397.2 684.6 397.7 684.4 398.1L565.2 595.3C565 595.6 564.7 595.8 564.4 595.8C563.2 595.9 449.3 603.3 364 603.3Z" fill="#343B43"/>
<path d="M531.2 438.2C530.8 438.2 530.3 437.9 530.2 437.5L426.9 136.1L306.6 343.2C306.3 343.7 305.7 343.9 305.1 343.6C304.6 343.3 304.4 342.7 304.7 342.2L426.2 133.1C426.4 132.7 426.8 132.5 427.2 132.6C427.6 132.6 428 132.9 428.1 133.3L532.1 436.8C532.3 437.4 532 438 531.4 438.1C531.5 438.1 531.4 438.2 531.2 438.2Z" fill="#343B43"/>
<path d="M376.2 465.9C375.4 465.8 375.1 465.2 375.2 464.7L411.2 248.5L323.5 451.9C323.3 452.4 322.6 452.7 322.1 452.5C321.6 452.3 321.3 451.6 321.5 451.1L412.7 239.7C412.9 239.2 413.5 238.9 414 239.1C414.5 239.3 414.8 239.8 414.7 240.3L377.2 465C377.1 465.5 376.7 465.9 376.2 465.9Z" fill="#343B43"/>
<path d="M370.3 603.3C369.5 603.1 369.1 602.6 369.3 602L399.8 470.7C399.9 470.1 400.5 469.8 401.1 469.9C401.7 470 402 470.6 401.9 471.2L371.4 602.5C371.3 602.9 370.8 603.3 370.3 603.3Z" fill="#343B43"/>
<path d="M654.2 344.9H499.2C498.6 344.9 498.1 344.4 498.1 343.8C498.1 343.2 498.6 342.7 499.2 342.7H654.2C654.8 342.7 655.3 343.2 655.3 343.8C655.3 344.4 654.8 344.9 654.2 344.9Z" fill="#343B43"/>
<path d="M237.9 344.9H163.7C163.1 344.9 162.6 344.4 162.6 343.8C162.6 343.2 163.1 342.7 163.7 342.7H237.9C238.5 342.7 239 343.2 239 343.8C239 344.4 238.5 344.9 237.9 344.9Z" fill="#343B43"/>
<path d="M159.1 39.3C158.4 39.3 158 38.8 158 38.2C158.2 34.2 157.4 31.2 155.6 29.2C153.6 27.1 150.5 26.1 146.1 26C145.7 26 145.1 26 144.4 26C139.8 25.8 129.1 25.5 128.4 29.9C128.3 30.5 127.8 30.9 127.2 30.8C126.6 30.7 126.2 30.2 126.3 29.6C127.3 23.3 138.9 23.7 144.4 23.9C145 23.9 145.6 23.9 146 23.9C151 23.9 154.6 25.2 157 27.8C159.3 30.2 160.3 33.8 160 38.3C160.2 38.9 159.7 39.3 159.1 39.3Z" fill="#343B43"/>
<path d="M135.7 42.1C130 42.1 129.7 38.1 129.7 38.1C129.7 37.9 129.8 37.6 129.9 37.4C130 37.2 132.5 33.5 129.4 30.9C129 30.5 128.9 29.9 129.3 29.4C129.7 29 130.3 28.9 130.8 29.3C134.2 32.2 133.1 36.2 131.9 38.2C132.1 38.8 132.9 40.1 136.2 39.9C137.5 39.8 138.4 39.5 139 38.8C140 37.6 139.9 35.8 139.9 35.8C139.8 35.2 140.2 34.7 140.8 34.6C141.3 34.5 141.9 34.9 142 35.5C142 35.7 142.9 39.9 146.2 39.9C149.3 39.9 149.7 37.6 149.7 37.3C149.8 36.7 150.3 36.3 150.9 36.4C151.5 36.5 151.9 37 151.8 37.6C151.6 39.1 150.2 42 146.2 42C143.8 42 142.3 40.7 141.2 39.2C141 39.5 140.8 39.8 140.6 40.1C139.6 41.3 138.1 41.9 136.2 42C136.1 42.1 135.9 42.1 135.7 42.1Z" fill="#343B43"/>
<path d="M149.9 408.7C149.7 408.7 142.6 407.4 142.6 407.4C142.2 407.3 141.9 407 141.8 406.6L141.4 404.9L138.8 406.9C138.6 407.1 138.3 407.1 138.1 407.1L88.7 403.8C88.2 403.8 87.8 403.4 87.7 402.9C87.6 402.4 87.9001 401.9 88.3001 401.7L115.1 389.6C115.6 389.4 116.3 389.6 116.5 390.1C116.7 390.6 116.5 391.3 116 391.5L93.1 402L137.9 405L141.4 402.3C141.7 402.1 142.1 402 142.4 402.1C142.7 402.2 143 402.5 143.1 402.8L143.8 405.4L149.1 406.4L150.9 393.3C151 392.7 151.5 392.3 152.1 392.4C152.7 392.5 153.1 393 153 393.6L151 407.8C151 408.1 150.8 408.3 150.6 408.5C150.4 408.6 150.2 408.7 149.9 408.7Z" fill="#343B43"/>
<path d="M251.7 71.8C247 71.8 243.3 70.6 240.8 68.3C234.9 63 235.8 52.8 236.6 43.7C236.7 42.7 236.8 41.6 236.9 40.6C236.9 40 237.5 39.6 238 39.6C238.6 39.6 239 40.2 239 40.7C238.9 41.7 238.8 42.8 238.7 43.8C238 52.3 237.1 62 242.2 66.6C245.6 69.6 251.2 70.3 259.3 68.7C259.9 68.6 260.4 69 260.5 69.5C260.6 70.1 260.2 70.6 259.7 70.7C256.7 71.5 254.1 71.8 251.7 71.8Z" fill="#343B43"/>
<path d="M238.8 34.2C238.2 34.2 237.7 33.7 237.7 33.1C237.7 25.9 240.6 19 240.7 18.7C240.9 18.2 241.6 17.9 242.1 18.1C242.6 18.3 242.9 19 242.7 19.5C242.7 19.6 239.9 26.3 239.9 33.1C239.9 33.7 239.4 34.2 238.8 34.2Z" fill="#343B43"/>
<path d="M282.4 49.5C280.6 49.5 278.9 48.8 277.5 47.5C277.1 47.1 277.1 46.4 277.5 46C277.9 45.6 278.6 45.6 279 46C280 47 281.2 47.5 282.5 47.5C284.1 47.5 285.5 46.7 286.6 45.4C287.8 44 288.4 42 288.4 40C288.4 35.9 285.7 32.5 282.5 32.5C280.2 32.5 277 34.2 276 36.5C275.8 37 275.1 37.3 274.6 37.1C274.1 36.9 273.8 36.3 274 35.7C275.4 32.4 279.4 30.4 282.4 30.4C286.8 30.4 290.4 34.7 290.5 40C290.5 42.5 289.7 44.9 288.3 46.7C286.6 48.5 284.6 49.5 282.4 49.5Z" fill="#343B43"/>
<path d="M283.1 45.2C282.9 45.2 282.6 45.1 282.4 45L277.3 41C277.1 40.8 276.9 40.5 276.9 40.2C276.9 39.9 277 39.6 277.2 39.4L282.6 34.5C283 34.1 283.7 34.1 284.1 34.6C284.5 35 284.5 35.7 284 36.1L279.5 40.2L283.6 43.4C284.1 43.8 284.1 44.4 283.8 44.9C283.8 45 283.5 45.2 283.1 45.2Z" fill="#343B43"/>
<path d="M246.3 47.6C246 47.6 245.5 47.4 245.3 47.1C244.7 46.4 244.3 44.8 246.7 33.2C246.8 32.6 246.9 32.2 246.9 32C246.8 31.4 247.3 31 247.8 30.9C248.3 30.8 248.9 31.4 249 32C249 32.2 249 32.2 248.7 33.6C247.2 41.1 246.9 44.1 246.9 45.3C247.8 45 249.2 44.3 250 43.7C250.5 43.4 251.1 43.5 251.5 44C251.8 44.5 251.7 45.1 251.2 45.5C250.6 45.8 248 47.5 246.3 47.6Z" fill="#343B43"/>
<path d="M252.2 53.5C252 53.5 246.6 52.9 243.2 52.8C242.6 52.8 242.1 52.3 242.1 51.7C242.1 51.1 242.6 50.7 243.2 50.7C246.7 50.7 252 51.4 252.3 51.4C252.9 51.5 253.3 52 253.2 52.6C253.2 53.1 252.7 53.5 252.2 53.5Z" fill="#343B43"/>
<path d="M259.3 39.6C258.7 39.6 258.2 39 258.2 38.4L258.4 35.2C258.4 34.6 259 34.1 259.6 34.1C260.2 34.1 260.7 34.7 260.7 35.3L260.5 38.5C260.5 39.1 260 39.6 259.3 39.6Z" fill="#343B43"/>
<path d="M287.6 35.3C287.4 35.3 287.3 35.3 287.1 35.2C286.6 35 286.3 34.3 286.6 33.8C290.3 26 291.1 19.7 289 15.5C287 11.6 282.9 10.8 282.9 10.8C282.6 10.7 282.3 10.5 282.2 10.3C277.3 1.4 262.8 0.700002 250.6 3.9C243.8 5.7 239.6 8.6 238.2 12.6C236.1 18.3 240.4 24.5 240.4 24.5C240.7 25 240.6 25.6 240.1 26C239.6 26.3 239 26.2 238.6 25.7C238.4 25.4 233.7 18.6 236.1 11.8C237.8 7.1 242.5 3.7 250 1.7C261.9 -1.4 277.8 -1.5 283.8 8.7C285.2 9.1 288.9 10.4 290.9 14.4C293.4 19.2 292.6 26 288.6 34.6C288.3 35.1 288 35.3 287.6 35.3Z" fill="#343B43"/>
<path d="M275.1 36.1C274.4 36 274 35.5 274 34.9C274 34.8 274.8 25.5 272.2 18.3C268.8 17.3 248.9 12.1 242.4 19.8C242 20.3 241.4 20.3 240.9 19.9C240.5 19.5 240.4 18.9 240.8 18.4C248.8 8.9 272.3 16 273.3 16.4C273.6 16.5 273.9 16.7 274 17C277 24.8 276.1 34.7 276.1 35.1C276.1 35.7 275.6 36.1 275.1 36.1Z" fill="#343B43"/>
<path d="M240.1 196.9C239.9 196.9 239.8 196.9 239.6 196.8C239.1 196.6 238.9 196 239.1 195.5L281 72.4C281.1 72.1 281.4 71.8 281.7 71.7C282 71.6 282.4 71.7 282.7 71.9L295.1 82.1C295.3 82.3 295.4 82.5 295.5 82.7L300.6 106.2C300.7 106.8 300.4 107.3 299.8 107.5L287.4 110.8L291.5 124.6C291.6 124.9 291.5 125.2 291.3 125.5L240.9 196.6C240.7 196.8 240.4 196.9 240.1 196.9ZM282.5 74.5L243.4 189.3L289.3 124.6L285.1 110.3C285 110 285.1 109.7 285.2 109.5C285.3 109.3 285.6 109.1 285.9 109L298.3 105.7L293.5 83.6L282.5 74.5Z" fill="#343B43"/>
<path d="M240.1 196.9C239.6 196.9 239.2 196.5 239.1 196L223.9 119.2C223.8 118.9 223.9 118.7 224 118.4L231.5 106.2L222.9 100.1C222.4 99.8 222.3 99.1 222.7 98.6L237.9 76.9C238 76.7 238.1 76.6 238.3 76.5L252 70.1C252.3 69.9 252.8 70 253.1 70.2C253.4 70.4 253.6 70.8 253.5 71.2L241.1 196C241.1 196.5 240.6 196.9 240.1 196.9ZM226 119.3L239.7 188.6L251.2 73L239.4 78.5L225 99.1L233.5 105.2C234 105.5 234.1 106.1 233.8 106.6L226 119.3Z" fill="#343B43"/>
<path d="M308.5 285.5C307.9 285.4 272.5 275.8 239.6 260.6C208.2 246.1 189.5 228.6 189.3 228.4C189 228.1 188.9 227.6 189.1 227.2C189.2 227 199.7 204.5 206.3 161.3C206.4 160.9 212.2 127.9 215.4 114.1C215.5 113.5 216.1 113.2 216.7 113.3C217.3 113.4 217.6 114 217.5 114.6C214.3 128.3 208.4 161.3 208.4 161.6C202.4 200.8 193.1 223.2 191.3 227.4C194.6 230.4 212.4 245.7 240.4 258.7C269.4 272.1 300.5 281.1 307.3 283.1L306.6 261.9C306.6 261.3 307 260.8 307.6 260.8C308.2 260.8 308.7 261.2 308.7 261.8L309.4 284.5C309.4 284.8 309.3 285.2 309 285.4C309 285.4 308.7 285.5 308.5 285.5Z" fill="#343B43"/>
<path d="M332 275.9C331.6 275.9 331.3 275.7 331.1 275.4L308.3 240C308.1 240.2 307.8 240.2 307.5 240.2C306.9 240.1 306.5 239.6 306.6 239L317.7 156.4C317.7 156.1 317.9 155.8 318.2 155.6C318.5 155.4 318.8 155.4 319.1 155.6C328.2 159.5 333.8 165.7 335.8 174C341.7 198.7 314.4 233.9 310.2 239.1L332.1 273.2C338.5 266.8 375.9 226.4 368.1 170.6C360 113 324.2 94 293.9 83.9C293.3 83.7 293 83.1 293.2 82.6C293.4 82 294 81.7 294.5 81.9C325.4 92.2 361.9 111.6 370.1 170.3C378.8 232 333 275.2 332.5 275.6C332.5 275.8 332.3 275.9 332 275.9ZM319.6 158.1L309 237.3C314 231 339.3 197.2 333.8 174.4C332.1 167.2 327.3 161.7 319.6 158.1Z" fill="#343B43"/>
<path d="M176.3 111.1C175.4 111.1 174.5 111.1 173.6 111C149.9 108.7 154 60.2 154.2 58.2C154.3 57.6 154.8 57.2 155.4 57.2C156 57.3 156.4 57.8 156.4 58.4C156.4 58.9 152.3 106.9 173.9 108.9C185.1 110 194.1 103.6 205.6 95.6C214.6 89.3 224.7 82.2 238.5 76.8C239 76.6 239.7 76.9 239.9 77.4C240.1 77.9 239.8 78.6 239.3 78.8C225.8 84.1 215.7 91.2 206.9 97.4C195.8 104.9 187 111.1 176.3 111.1Z" fill="#343B43"/>
<path d="M175.9 152.4C166.7 152.4 158.8 150.5 152.6 148.3C114.8 134.5 123 64.2 123.4 61.2C123.5 60.7 123.9 60.3 124.3 60.3L155.1 57.2C155.7 57.1 156.2 57.6 156.3 58.1C156.4 58.7 155.9 59.2 155.3 59.3L125.3 62.3C124.5 70.4 119.2 133.9 153.2 146.3C165.9 150.9 185.8 153.9 209 141.7C210.4 141 210.8 140.7 211.4 141.2C211.7 141.4 211.9 141.8 211.8 142.2C211.7 142.7 211.3 143.1 210.8 143.1C210.6 143.2 210.3 143.4 209.9 143.6C197.6 150.2 186 152.4 175.9 152.4Z" fill="#343B43"/>
<path d="M253.9 435.4C253.4 435.4 252.9 435 252.9 434.5C252.7 433.1 229.9 304.5 228 293.5C225.2 293.1 221.8 292.3 217.8 291.4C199.5 287.3 172 281 166.3 297.4C165.1 300.9 165.1 304.7 165.1 308.3V336.1C165.1 355.4 165.1 374.7 165.2 394C165.2 394.3 165.1 394.6 164.9 394.8C164.7 395 164.4 395.1 164.1 395.1L104.7 390.9C104.1 390.9 103.7 390.4 103.7 389.8C103.7 388.9 105 300.1 107.9 269.2C110.9 237.7 156.6 231.3 189.9 226.6C190.5 226.6 191 226.9 191.1 227.5C191.2 228.1 190.8 228.6 190.2 228.7C157.5 233.3 112.8 239.6 110 269.4C107.2 298.4 105.9 378.9 105.8 388.8L163.1 392.9C163 374 163 355.1 163 336.2V308.4C163 304.7 163 300.6 164.3 296.8C170.6 278.7 199.3 285.1 218.3 289.4C222.6 290.4 226.3 291.2 229.1 291.6C229.2 291.6 229.3 291.6 229.4 291.7C229.9 291.9 229.9 291.9 255 434.2C255.1 434.8 254.7 435.3 254.1 435.4C254.1 435.4 254 435.4 253.9 435.4Z" fill="#343B43"/>
<path d="M312.2 449.9C311.6 449.9 311.2 449.5 311.1 448.9L301.5 282.8C301.5 282.2 301.9 281.7 302.5 281.7C303.2 281.7 303.6 282.1 303.6 282.7L313.2 448.8C313.3 449.4 312.8 449.9 312.2 449.9Z" fill="#343B43"/>
<path d="M195.5 42.1C195.1 42.1 194.7 41.8 194.7 41.3C194.7 40.9 195 40.5 195.5 40.5L242 39.6C242.2 39.6 242.7 39 242.7 37C242.7 34.7 241.8 34.4 241.8 34.4L195.9 33.5C195.5 33.5 195.1 33.1 195.1 32.7C195.1 32.3 195.5 31.9 195.9 31.9L242 32.8C242.4 32.9 244.3 33.3 244.3 37C244.3 41.1 242.3 41.2 242 41.2L195.5 42.1C195.6 42.1 195.5 42.1 195.5 42.1Z" fill="#343B43"/>
<path d="M130.1 30.9H112.7C112.3 30.9 111.9 30.5 111.9 30.1C111.9 29.7 112.3 29.3 112.7 29.3H130.1C130.5 29.3 130.9 29.7 130.9 30.1C130.9 30.6 130.6 30.9 130.1 30.9Z" fill="#343B43"/>
<path d="M194.9 44.4H161.2C160.8 44.4 160.4 44 160.4 43.6C160.4 43.2 160.8 42.8 161.2 42.8H194.4C194.7 42 195.2 40 195.2 36.9C195.2 33.5 194.7 31.7 194.4 31H157.8C157.4 31 157 30.6 157 30.2C157 29.8 157.4 29.4 157.8 29.4H194.9C195.2 29.4 195.4 29.5 195.6 29.8C195.7 30 196.8 31.8 196.8 37C196.8 41.6 195.7 44 195.7 44.1C195.5 44.2 195.2 44.4 194.9 44.4Z" fill="#343B43"/>
<path d="M152.2 44.4H112.8C112.4 44.4 112 44 112 43.6C112 43.2 112.4 42.8 112.8 42.8H152.2C152.6 42.8 153 43.2 153 43.6C153 44 152.6 44.4 152.2 44.4Z" fill="#343B43"/>
<path d="M112.8 44.4C110.7 44.4 109.7 40.5 109.7 36.9C109.7 33.3 110.7 29.4 112.8 29.4C114.9 29.4 115.9 33.3 115.9 36.9C115.8 40.5 114.9 44.4 112.8 44.4ZM112.8 30.9C112.4 30.9 111.3 32.9 111.3 36.8C111.3 40.7 112.4 42.7 112.8 42.7C113.2 42.7 114.3 40.7 114.3 36.8C114.2 33 113.1 30.9 112.8 30.9Z" fill="#343B43"/>
<path d="M228.9 293.7C228.4 293.7 227.9 293.3 227.8 292.8L225.2 271.9C225.1 271.3 225.5 270.8 226.1 270.7C226.8 270.6 227.2 271 227.3 271.6L229.9 292.5C230 293.1 229.6 293.6 229 293.7H228.9Z" fill="#343B43"/>
<path d="M282 73.8C281.4 73.8 280.9 73.3 280.9 72.7L281.3 48.5C281.3 47.9 281.8 47.5 282.4 47.5C283 47.5 283.5 48 283.5 48.6L283.1 72.8C283 73.3 282.6 73.8 282 73.8Z" fill="#343B43"/>
<path d="M264.6 84.8C264.2 84.8 263.8 84.8 263.5 84.8C254.2 84.1 251.1 78.8 251 78.5C250.9 78.3 250.8 78.1 250.9 77.9L251.5 70.7C251.5 70.1 252.1 69.6 252.7 69.7C253.3 69.8 253.7 70.3 253.7 70.9L253.1 77.7C253.8 78.7 256.7 82.1 263.8 82.7C268.3 83 276.8 80.9 278.8 79.8C279.3 79.5 280 79.7 280.2 80.2C280.5 80.7 280.3 81.4 279.8 81.6C277.3 82.9 269.4 84.8 264.6 84.8Z" fill="#343B43"/>
<path d="M151.4 59.3C151 59.3 150.6 59.1 150.4 58.7C150.1 58.2 150.4 57.5 150.9 57.3C156.2 54.7 159.4 45.5 160 43.7C158.8 40 156.4 34 154.9 32.8C154.7 32.7 154.5 32.6 154.1 32.8C152.8 33.7 151.5 37 151.9 38.4C152.6 40.9 153.4 43.3 153.4 43.3C153.6 43.9 153.3 44.5 152.7 44.6C152.1 44.8 151.5 44.5 151.4 43.9C151.4 43.9 150.6 41.5 149.8 38.9C149.1 36.6 150.7 32.3 152.8 30.9C153.9 30.2 155.1 30.2 156.1 30.9C158.7 33 161.7 42.1 162 43.2C162.1 43.4 162.1 43.6 162 43.8C161.9 44.3 158.4 55.8 151.7 59.1C151.7 59.2 151.5 59.3 151.4 59.3Z" fill="#343B43"/>
<path d="M130 61.4C129.5 61.4 129 61 128.9 60.5L126.5 44.2C126.4 43.6 126.8 43.1 127.4 43C127.9 42.9 128.5 43.3 128.6 43.9L131 60.2C131.1 60.8 130.7 61.3 130.1 61.4C130.1 61.4 130.1 61.4 130 61.4Z" fill="#343B43"/>
<path d="M262.4 32.4H257.1C256.5 32.4 256 31.9 256 31.3C256 30.7 256.5 30.2 257.1 30.2H262.4C263 30.2 263.5 30.7 263.5 31.3C263.5 31.9 263 32.4 262.4 32.4Z" fill="#343B43"/>
<path d="M245 32.4H239.7C239.1 32.4 238.6 31.9 238.6 31.3C238.6 30.7 239.1 30.2 239.7 30.2H245C245.6 30.2 246.1 30.7 246.1 31.3C246.1 31.9 245.6 32.4 245 32.4Z" fill="#343B43"/>
<path d="M312 263.1C306.9 263.1 301.5 261.6 297.7 260.5C295.7 259.9 293.8 259.4 293 259.4C291.8 259.4 289.8 260 288 260.5C284.3 261.6 281.1 262.4 279.6 261C279.2 260.6 279 260.1 279 259.4C279.1 256.9 283.5 253.1 285.2 251.7C285.8 249.4 288.9 239.2 292.7 236.7C296.8 234 308.5 238.3 309.8 238.7C310.3 238.9 310.6 239.5 310.4 240.1C310.2 240.6 309.6 240.9 309 240.7C304.4 239 296.3 236.8 293.8 238.4C291 240.3 288 249.2 287.1 252.5C287 252.7 286.9 252.9 286.7 253C283.6 255.5 280.9 258.6 281 259.4C281.6 259.9 285.2 258.9 287.3 258.3C289.4 257.7 291.3 257.2 292.8 257.1C294 257.1 295.7 257.6 298.1 258.3C304.1 260 314 262.9 320 258.6C320.5 258.3 321.1 258.4 321.5 258.8C321.8 259.3 321.7 259.9 321.3 260.3C318.8 262.4 315.4 263.1 312 263.1Z" fill="#343B43"/>
<path d="M238.3 344.9H164.1C163.5 344.9 163 344.4 163 343.8C163 343.2 163.5 342.7 164.1 342.7H238.3C238.9 342.7 239.4 343.2 239.4 343.8C239.4 344.4 238.9 344.9 238.3 344.9Z" fill="#343B43"/>
<path d="M269.801 108.5C269.501 108.5 269.101 108.3 269.001 107.9L262.101 85.3L250.301 101.6C250.001 102 249.501 102 249.201 101.8C248.801 101.5 248.801 101 249.001 100.7L261.701 83.1C261.901 82.9 262.101 82.7 262.501 82.8C262.801 82.8 263.001 83.1 263.101 83.4L270.501 107.6C270.601 108 270.401 108.5 270.001 108.6C269.901 108.5 269.901 108.5 269.801 108.5Z" fill="#343B43"/>
<path d="M575 378H540.8C540.2 378 539.7 377.5 539.7 376.9C539.7 376.3 540.2 375.8 540.8 375.8H575C575.6 375.8 576.1 376.3 576.1 376.9C576.1 377.5 575.6 378 575 378Z" fill="#343B43"/>
<path d="M93.7998 533.7H19.3998C18.7998 533.7 18.2998 533.2 18.2998 532.6C18.2998 532 18.7998 531.5 19.3998 531.5H93.8998C94.4998 531.5 94.9998 532 94.9998 532.6C94.8998 533.2 94.3998 533.7 93.7998 533.7Z" fill="#343B43"/>
<path d="M47.8998 554.1H22.8998C22.2998 554.1 21.7998 553.6 21.7998 553C21.7998 552.4 22.2998 551.9 22.8998 551.9H47.7998C48.3998 551.9 48.8998 552.4 48.8998 553C48.8998 553.6 48.3998 554.1 47.8998 554.1Z" fill="#343B43"/>
<path d="M667.1 621.2H603.9C603.3 621.2 602.8 620.7 602.8 620.1C602.8 619.5 603.3 619 603.9 619H667.1C667.7 619 668.2 619.5 668.2 620.1C668.2 620.7 667.7 621.2 667.1 621.2Z" fill="#343B43"/>
<path d="M215.2 630.8H152C151.4 630.8 150.9 630.3 150.9 629.7C150.9 629.1 151.4 628.6 152 628.6H215.2C215.8 628.6 216.3 629.1 216.3 629.7C216.2 630.3 215.7 630.8 215.2 630.8Z" fill="#343B43"/>
<path d="M714.3 516.6H677.4C676.8 516.6 676.3 516.1 676.3 515.5C676.3 514.9 676.8 514.4 677.4 514.4H714.3C714.9 514.4 715.4 514.9 715.4 515.5C715.3 516.1 714.9 516.6 714.3 516.6Z" fill="#343B43"/>
<path d="M683.5 535.2H667.1C666.5 535.2 666 534.7 666 534.1C666 533.5 666.5 533 667.1 533H683.5C684.1 533 684.6 533.5 684.6 534.1C684.6 534.7 684.1 535.2 683.5 535.2Z" fill="#343B43"/>
<path d="M254.2 155.3C253.7 155.2 253.3 154.8 253.4 154.4L260.6 105.7C260.6 105.6 260.7 105.5 260.7 105.4L266 97.2C266.2 96.8 266.7 96.7 267.1 97C267.5 97.2 267.6 97.7 267.3 98.1L262.1 106.2L254.9 154.7C254.9 155 254.5 155.3 254.2 155.3Z" fill="#343B43"/>
<path d="M246.9 127.9C246.2 127.7 246 127.3 246.1 126.9L253.3 103.8L252.8 95.7C252.8 95.3 253.1 94.9 253.5 94.9C254 94.9 254.3 95.2 254.3 95.6L254.8 103.8C254.8 104.1 247.5 127.4 247.5 127.4C247.6 127.7 247.2 127.9 246.9 127.9Z" fill="#343B43"/>
<path d="M261.4 106.6C261.2 106.6 254 104.7 254 104.7C253.6 104.6 253.3 104.2 253.4 103.7C253.5 103.3 254 103 254.4 103.1L261.6 105C262 105.1 262.3 105.5 262.2 106C262 106.3 261.7 106.6 261.4 106.6Z" fill="#343B43"/>
<path d="M286.4 253.3C286 253.3 285.7 253.1 285.5 252.8C285.2 252.3 285.3 251.6 285.8 251.3C285.9 251.3 287.4 250.3 289.5 249.9C291.6 249.5 295.1 250.3 295.6 250.4C296.2 250.5 296.5 251.1 296.4 251.7C296.3 252.3 295.7 252.6 295.1 252.5C294.2 252.3 291.4 251.7 290 252C288.3 252.4 287 253.1 287 253.1C286.8 253.2 286.6 253.3 286.4 253.3Z" fill="#343B43"/>
<path d="M567.9 59H346.9C346.3 59 345.9 58.6 345.8 58C345.8 57.4 346.2 57 346.7 56.9L395.4 50.1C396 47.4 398.8 38.8 410.3 38.8C410.7 38.8 411.1 38.8 411.5 38.8C416.7 39.1 420.3 40 422.4 41.6C422.8 38.4 424.2 34 428.2 30C434.3 23.9 444.6 20.8 458.8 20.8C459.9 20.8 461.1 20.8 462.3 20.9C478.6 21.5 489.4 25.2 494.3 32C496.5 35 497.2 38.1 497.3 40.7C499.9 37.4 504.4 34.1 512.1 34.1C514.1 34.1 516.2 34.3 518.4 34.8C535.3 38.3 536.1 49.9 535.9 53.6L568 56.9C568.6 57 569 57.4 568.9 58C569 58.6 568.5 59 567.9 59ZM362.2 56.9H547.5L534.7 55.6C534.4 55.6 534.1 55.4 534 55.2C533.8 55 533.8 54.7 533.8 54.4C533.9 53.8 536.1 40.6 518.1 36.9C516 36.5 514 36.3 512.2 36.3C501.8 36.3 497.9 43.2 496.8 46.1C496.6 46.9 496.4 47.4 496.4 47.4C496.2 47.9 495.6 48.2 495.1 48C494.6 47.8 494.3 47.3 494.4 46.7C494.4 46.7 494.5 46.2 494.9 45.3C495.6 42.9 496.2 37.9 492.9 33.3C488.2 27 478 23.5 462.4 23C461.2 23 460 22.9 458.9 22.9C445.3 22.9 435.5 25.8 429.8 31.5C425.3 36.1 424.5 41.3 424.5 44.1C424.9 45.3 424.6 46.3 424.6 46.4C424.4 46.8 424 47.1 423.5 47.1C423 47.1 422.6 46.7 422.5 46.2C422.5 46.2 422.4 45.6 422.4 44.5C421.9 43.5 419.8 41.3 411.5 40.9C398.8 40.2 397.5 50.7 397.4 51.1C397.3 51.6 397 52 396.5 52L362.2 56.9Z" fill="#343B43"/>
<path d="M630.2 178.3H539.4C538.9 178.3 538.4 177.9 538.3 177.3C538.3 176.8 538.6 176.3 539.2 176.2L566.2 171.5C566.2 170 566.6 167.1 568.9 164.5C571.7 161.3 576.3 159.8 582.9 160C597.8 160.4 600.5 167.2 601.1 169.6L630.5 176.2C631 176.3 631.4 176.8 631.3 177.4C631.2 177.9 630.8 178.3 630.2 178.3ZM551.7 176.2H620.6L599.9 171.6C599.4 171.5 599.1 171.1 599.1 170.6C599.1 170.3 598.5 162.6 582.9 162.2H582C576.7 162.2 572.8 163.5 570.6 166C568.1 168.8 568.4 172.3 568.4 172.3C568.5 172.9 568.1 173.4 567.5 173.5L551.7 176.2Z" fill="#343B43"/>
<path d="M198.3 202.8H39.1C38.5 202.8 38.1 202.4 38 201.8C38 201.2 38.4 200.7 38.9 200.7L93.5 194.2C94.7 191.5 100.4 181 115.3 181C126.3 181 130.8 183.9 132.6 186C135.2 180.2 144.4 165 165.9 168.5C174.9 170 181 173.4 184 178.6C187 183.8 186.1 189.4 185.4 191.8L200.8 193.9C201.4 194 201.8 194.5 201.7 195.1C201.6 195.7 201.2 196.1 200.5 196L183.9 193.7C183.6 193.7 183.3 193.5 183.1 193.2C182.9 192.9 182.9 192.6 183 192.3C183 192.2 185.5 185.6 182.1 179.6C179.4 174.9 173.8 171.9 165.5 170.5C141 166.6 133.8 188.5 133.7 188.7C133.6 189.2 133.1 189.5 132.6 189.4C132.1 189.4 131.7 189 131.6 188.5C131.6 188.5 130.4 183 115.3 183C99.8 183 95.4 194.9 95.2 195.4C95.1 195.8 94.7 196.1 94.3 196.1L56.9 200.5H198.1C198.7 200.5 199.2 201 199.2 201.6C199.3 202.3 198.9 202.8 198.3 202.8Z" fill="#343B43"/>
</g>
<defs>
<linearGradient id="paint0_linear_170_2565" x1="-2.92269e-05" y1="496.99" x2="486.982" y2="56.1713" gradientUnits="userSpaceOnUse">
<stop stop-color="#234DAE"/>
<stop offset="1" stop-color="#347BCE"/>
</linearGradient>
<linearGradient id="paint1_linear_170_2565" x1="110.5" y1="43.3286" x2="115.078" y2="14.8209" gradientUnits="userSpaceOnUse">
<stop stop-color="#234DAE"/>
<stop offset="1" stop-color="#347BCE"/>
</linearGradient>
<linearGradient id="paint2_linear_170_2565" x1="244.7" y1="162.067" x2="275.549" y2="157.026" gradientUnits="userSpaceOnUse">
<stop stop-color="#234DAE"/>
<stop offset="1" stop-color="#347BCE"/>
</linearGradient>
<clipPath id="clip0_170_2565">
<rect width="728.3" height="632.6" fill="white"/>
</clipPath>
</defs>
</svg>
