<svg width="885" height="606" viewBox="0 0 885 606" fill="none" xmlns="http://www.w3.org/2000/svg">
<path d="M358.254 26.9879C351.71 23.7166 344.758 16.3563 344.758 16.3563C344.758 16.3563 339.85 34.7571 327.581 39.664C327.581 39.664 322.265 33.5304 315.721 35.166C309.178 36.8017 307.133 42.5264 307.542 47.4332C307.951 52.3401 313.267 58.0648 320.629 56.8381L316.13 95.2754L301.816 109.996L323.083 136.575L362.752 136.166L364.797 111.632L352.937 95.2754C352.528 95.2754 353.346 81.7814 353.346 81.7814C353.346 81.7814 361.934 82.1903 365.206 76.4656C368.069 70.7409 369.296 58.8826 369.705 56.0203C370.114 53.5668 372.567 28.6235 372.567 28.6235C372.567 28.6235 365.206 30.6681 358.254 26.9879Z" fill="white"/>
<path d="M278.505 386.417C278.505 386.417 280.959 391.324 287.911 386.826C294.863 382.328 303.861 365.154 303.861 365.154L312.04 351.66C312.04 351.66 313.267 340.211 303.452 339.393C293.636 338.575 172.992 338.984 172.992 338.984L161.541 340.619C161.541 340.619 154.588 343.482 151.317 348.389C148.045 353.704 140.684 365.972 140.684 365.972L146.818 361.883L151.317 360.656L154.588 361.474L163.177 350.024L166.448 348.798H302.634C303.043 349.207 278.505 386.417 278.505 386.417Z" fill="url(#paint0_linear_156_1158)"/>
<path d="M302.225 348.389H165.631L161.541 350.433L154.18 361.065C153.362 360.656 152.135 360.247 150.908 360.247C146 360.247 146 361.883 146 361.883C146 361.883 143.138 363.927 139.866 365.563C136.594 367.607 131.687 374.15 131.687 374.15C131.687 374.15 131.687 379.057 137.412 388.462L140.684 419.13L259.693 415.449L278.096 385.599L302.634 348.389H302.225Z" fill="white"/>
<path d="M435.138 483.328C435.138 483.328 394.651 485.372 364.387 495.595C334.124 505.818 314.085 519.312 302.634 535.668C291.183 551.615 293.228 563.883 295.681 569.607C297.726 575.332 306.314 581.466 333.715 582.283C361.116 583.101 407.738 578.603 407.738 578.603C407.738 578.603 408.556 562.247 407.738 552.842L454.769 554.478L474.808 554.887L530.427 565.927L525.929 583.101C525.929 583.101 553.329 583.101 577.867 581.466C602.405 579.83 614.265 576.968 617.128 574.514C619.991 572.061 624.898 569.607 623.262 558.158C621.626 546.708 609.766 528.308 595.044 518.903C579.912 509.089 567.234 502.138 549.24 497.231C531.654 492.733 519.385 489.462 509.161 488.235C498.937 487.417 435.138 483.328 435.138 483.328Z" fill="url(#paint1_linear_156_1158)"/>
<path d="M569.279 249.842C569.279 249.842 569.688 270.288 575.413 286.644C581.139 303.409 589.727 320.174 604.859 326.308C619.991 332.85 636.758 328.761 640.439 327.126C644.12 325.899 662.114 317.721 672.747 318.539L714.461 318.948C714.461 318.948 735.728 320.992 746.77 331.215C757.403 341.029 762.31 350.025 766.4 359.838C770.49 369.652 782.35 395.822 785.621 404C788.893 412.178 793.392 422.401 796.254 433.033C799.526 443.664 803.616 459.203 803.616 469.016C803.616 478.83 804.434 498.458 792.983 510.316C781.941 522.174 775.397 522.992 775.397 522.992C775.397 522.992 776.215 547.118 775.397 553.251L625.716 553.66C625.716 553.66 626.125 510.725 626.534 500.911C626.943 491.097 626.125 466.563 626.125 466.563L619.173 396.64C619.173 396.64 595.453 395.413 570.097 375.377C544.741 354.931 536.971 336.531 534.926 332.85C532.881 329.17 521.839 303.818 518.976 289.506C515.705 274.786 512.842 252.296 512.842 252.296L569.279 249.842Z" fill="#343B43"/>
<path d="M700.966 274.376C700.966 274.376 714.871 269.469 715.28 283.372C715.28 283.372 714.462 294.413 702.602 291.959L701.784 319.356C701.784 319.356 689.106 347.571 674.383 343.891C674.383 343.891 667.84 342.664 669.885 332.85C671.93 323.036 673.156 319.356 673.156 319.356L674.383 307.089C674.383 307.089 663.341 305.862 662.523 296.866C661.705 287.87 660.479 285.826 662.523 276.012C664.568 266.198 667.431 248.206 667.431 248.206C667.431 248.206 671.93 254.34 684.199 262.109C696.876 269.878 702.193 272.741 702.193 272.741L700.966 274.376Z" fill="white"/>
<path d="M435.138 507.454C435.138 507.454 432.684 526.672 450.27 535.668C450.27 535.668 442.091 531.579 440.046 518.903L439.637 508.271L435.138 507.454Z" fill="#343B43"/>
<path d="M513.66 550.798L529.61 552.843C529.61 552.843 525.52 538.122 519.795 537.304C514.069 536.486 513.66 550.798 513.66 550.798Z" fill="#343B43"/>
<path d="M518.567 577.785L530.018 577.376C530.018 577.376 527.565 583.919 524.293 583.101C520.612 582.283 518.567 577.785 518.567 577.785Z" fill="#343B43"/>
<path d="M515.705 249.024L517.749 254.34C517.749 254.34 512.842 253.113 512.842 251.477C513.251 249.842 515.705 249.024 515.705 249.024Z" fill="#343B43"/>
<path d="M560.282 245.753L554.147 254.749C554.147 254.749 569.279 251.887 569.279 249.434C568.87 247.389 560.282 245.753 560.282 245.753Z" fill="#343B43"/>
<path d="M513.251 238.802C513.251 238.802 517.75 252.704 518.568 254.34C518.568 254.34 525.929 256.384 536.562 255.976C547.195 255.567 554.965 254.749 554.965 254.749C554.965 254.749 557.419 249.842 561.1 244.935C564.781 240.028 568.87 235.121 568.87 231.032C569.279 226.943 570.506 224.081 565.19 219.174C559.873 214.267 551.285 208.133 551.285 208.133C551.285 208.133 547.195 205.68 544.332 207.316C541.47 208.951 542.288 217.538 545.15 220.81C548.013 224.081 552.921 228.17 552.921 228.17C552.921 228.17 545.968 238.393 535.744 238.393C525.111 237.984 513.251 238.802 513.251 238.802Z" fill="white"/>
<path d="M691.56 427.717C691.56 427.717 687.061 417.903 685.016 412.996C682.971 407.68 681.744 401.138 678.064 401.138C674.383 400.729 672.747 402.773 672.747 405.227C672.747 407.68 673.974 412.587 675.201 417.494C676.428 422.401 675.201 425.672 672.338 426.081C669.475 426.49 661.296 421.174 655.98 415.858C650.663 410.542 644.938 404 641.666 404C638.394 404 633.896 406.862 636.349 411.36C636.758 412.178 632.669 411.769 631.442 413.814C630.215 415.858 629.397 418.721 631.033 420.356C631.033 420.356 628.17 422.401 630.215 426.081C632.26 429.761 635.94 433.441 635.94 433.441C635.94 433.441 632.669 434.668 634.305 438.348C635.94 442.028 646.164 448.98 655.162 453.887C664.159 459.202 669.475 460.429 669.475 460.429C669.475 460.429 676.428 448.162 680.926 442.437C684.198 436.712 691.56 427.717 691.56 427.717Z" fill="white"/>
<path d="M450.27 557.749C450.27 557.749 448.225 544.255 443.727 541.393C439.228 538.121 438.001 537.712 438.001 537.712L444.544 555.295L432.276 548.753L426.55 534.85C426.55 534.85 420.007 534.441 416.735 535.259C413.463 535.668 402.83 538.939 402.83 538.939C402.83 538.939 406.92 544.664 407.738 554.886C408.556 565.109 408.556 569.198 408.556 569.198C408.556 569.198 417.553 572.061 420.825 573.287C424.096 574.105 433.093 576.967 438.819 574.105C438.819 574.105 449.043 573.696 449.452 568.789C449.452 568.789 453.951 567.563 453.542 564.291C453.542 559.384 450.27 557.749 450.27 557.749Z" fill="white"/>
<path d="M530.018 553.251C530.018 553.251 508.343 550.797 505.071 550.388C501.391 549.98 484.214 549.571 484.214 549.571C484.214 549.571 478.08 551.615 473.581 557.749C469.082 563.473 463.357 571.243 463.357 571.243C463.357 571.243 459.676 577.785 462.948 579.012C466.22 580.648 472.763 574.514 472.763 574.514C472.763 574.514 466.629 585.555 471.945 587.19C477.262 588.826 490.349 570.425 490.349 570.425L485.032 585.963C485.032 585.963 485.441 590.052 488.304 590.052C491.167 590.052 494.847 587.19 496.074 584.328C497.301 581.874 503.844 571.243 503.844 571.243C503.844 571.243 510.797 576.558 517.34 577.376C523.475 578.194 530.836 577.785 530.836 577.785C530.836 577.785 533.29 570.834 532.063 563.473C530.427 555.704 530.018 553.251 530.018 553.251Z" fill="white"/>
<path d="M296.908 193.413C296.908 193.413 296.908 188.506 296.908 184.417C296.908 179.919 297.317 164.381 307.132 158.247C316.947 152.113 307.95 157.838 307.95 157.838V178.692C307.95 178.692 309.177 184.417 313.267 182.781C317.356 181.146 316.13 182.781 321.037 178.283C325.945 173.785 336.578 163.563 336.578 163.563C336.578 163.563 341.894 157.429 345.166 157.429C348.438 157.429 352.527 159.474 351.301 165.607C351.71 166.425 354.163 164.381 357.026 166.425C359.889 168.878 356.208 177.466 356.208 177.466C356.208 177.466 358.253 177.466 358.253 181.555C358.253 185.644 355.799 189.733 351.709 194.231C347.62 198.729 327.172 215.085 327.172 215.085C327.172 215.085 318.174 205.68 310.813 200.773C303.452 196.275 296.908 193.413 296.908 193.413Z" fill="white"/>
<path d="M534.109 238.801H329.217C317.357 238.801 307.542 228.987 307.542 217.129V158.247C307.542 146.388 317.357 136.574 329.217 136.574H534.109C545.969 136.574 555.784 146.388 555.784 158.247V217.129C555.375 228.987 545.969 238.801 534.109 238.801Z" fill="white"/>
<path d="M763.947 355.341C763.947 355.341 756.177 336.122 743.908 329.579C731.23 323.037 725.095 318.948 702.193 318.948V291.96C702.193 291.96 715.689 293.187 715.28 282.555C715.28 282.555 715.689 271.924 702.193 273.559C702.193 273.559 687.061 264.563 682.563 261.701C678.064 258.43 666.613 247.798 666.613 247.798C666.613 247.798 662.933 264.154 662.115 269.061C661.297 274.377 659.252 285.826 659.661 291.551C660.07 297.685 661.706 306.681 673.975 306.681L672.748 318.539C672.748 318.539 661.706 319.357 656.389 321.81C650.664 324.264 641.666 328.353 637.577 328.762C637.577 328.762 633.078 324.264 633.078 316.494C633.078 308.725 637.986 301.774 642.893 298.503C648.21 295.231 652.299 289.915 653.935 284.191C655.571 278.466 654.753 273.559 654.344 268.652C653.526 264.154 652.299 256.385 654.753 248.207C657.207 240.029 658.843 234.713 665.386 232.26C671.93 229.806 680.518 227.353 690.742 228.988C700.966 231.033 715.28 234.304 722.641 239.211C730.003 244.118 734.092 245.754 735.728 257.612C735.728 257.612 735.728 265.79 732.457 272.741C729.185 279.693 727.14 287.871 727.958 292.778C728.776 297.685 732.457 302.592 738.182 305.454C743.908 308.316 754.95 314.041 760.266 319.357C765.583 324.673 769.263 330.397 769.672 337.758C770.49 345.118 767.219 354.523 763.947 355.341Z" fill="url(#paint2_linear_156_1158)"/>
<path d="M296.909 193.413C296.909 193.413 325.536 206.089 330.444 222.445C330.444 222.445 315.312 249.024 305.906 258.838C296.5 269.061 279.323 290.324 251.105 290.324C223.295 290.324 208.981 271.923 207.345 269.47C205.709 267.016 197.53 255.158 199.984 234.713C202.438 213.858 209.39 196.275 215.934 182.781C222.477 169.288 234.337 143.935 246.197 134.122C258.057 124.308 274.007 110.405 301.407 109.587L322.673 136.166C322.673 136.166 308.769 140.255 306.724 156.611C306.724 156.611 300.589 160.292 298.136 168.061C295.682 175.83 296.091 186.053 296.091 186.053L296.909 193.413Z" fill="url(#paint3_linear_156_1158)"/>
<path d="M365.206 111.222L363.161 136.166H422.87C422.87 136.166 400.377 114.085 365.206 111.222Z" fill="url(#paint4_linear_156_1158)"/>
<path d="M327.581 39.6638C327.581 39.6638 343.122 29.4411 343.94 16.765C343.94 16.765 350.483 24.5342 356.618 26.5788C363.161 28.6233 372.567 28.6233 372.567 28.6233L372.158 38.4371C372.158 38.4371 378.293 26.1699 375.43 17.1739C372.158 8.17795 362.752 3.27107 357.436 2.04435C352.119 0.817627 344.349 -0.409093 337.805 3.27107L335.352 4.08888C335.352 4.08888 320.629 4.08888 316.948 11.4492C313.267 18.8095 311.223 22.4897 311.223 27.8055C311.223 33.1213 312.45 37.2103 312.45 37.2103C312.45 37.2103 322.265 31.4856 327.581 39.6638Z" fill="#343B43"/>
<path d="M321.037 57.2469L319.811 63.3805L316.13 57.6559L321.037 57.2469Z" fill="#343B43"/>
<path d="M469.9 561.429L453.542 561.02L417.962 570.834L454.769 604.773L538.607 597.413L479.716 563.065L469.9 561.429Z" fill="white"/>
<path d="M444.545 554.886L431.867 524.219L423.688 527.49L432.276 548.344L444.545 554.886Z" fill="#343B43"/>
<path d="M431.867 524.218L430.231 520.129L422.052 522.992L423.688 527.49L431.867 524.218Z" fill="white"/>
<path d="M727.14 402.364L684.199 359.429C684.199 359.429 673.565 351.251 660.479 358.202L602.814 415.04C602.814 415.04 592.999 426.899 601.179 440.393L680.518 520.129C680.518 520.129 687.879 528.308 696.876 528.716C696.876 528.716 704.238 529.125 707.509 526.263C711.19 523.81 722.232 513.178 722.232 513.178C722.232 513.178 686.652 491.097 677.655 480.465C668.658 469.425 665.795 468.607 665.795 468.607L669.067 460.02C669.067 460.02 677.655 444.891 680.927 440.801C684.198 436.304 695.241 424.445 695.241 424.445C695.241 424.445 726.322 446.526 732.047 450.206C737.773 454.295 741.454 457.158 741.454 457.158C741.454 457.158 734.501 436.303 732.865 430.17C730.412 424.445 727.14 402.364 727.14 402.364Z" fill="white"/>
<path d="M104.286 267.834C104.286 267.834 109.602 264.154 115.737 262.11C121.871 260.065 126.779 258.838 128.415 257.203C130.46 255.567 132.913 249.434 133.731 244.527C134.549 239.62 138.23 234.304 126.779 227.762C126.779 227.762 121.462 225.308 111.647 224.49C101.832 223.672 97.3335 225.308 91.1991 223.672C85.0646 222.037 80.566 219.174 74.4315 219.174C68.706 219.174 62.1626 218.357 54.3922 225.717C46.6219 233.077 44.1681 242.891 42.9412 248.207C41.7143 253.523 41.7143 258.838 39.6695 265.79C37.6247 272.741 35.5798 279.693 29.4454 282.555C23.3109 285.417 17.9943 291.96 14.7226 298.502C11.4509 305.454 10.224 316.494 15.5406 325.081C20.4481 334.077 35.5798 341.029 46.6219 343.482C57.6639 345.527 72.3867 345.118 79.748 340.62C87.1094 336.122 96.9246 333.668 100.196 325.49C103.877 317.312 103.468 308.725 103.468 308.725C103.468 308.725 103.468 300.138 101.423 294.413C99.3784 288.689 97.3335 286.235 97.3335 286.235C97.3335 286.235 86.7004 285.009 87.5184 275.604C88.3363 266.199 97.3335 265.381 98.5604 265.79C100.605 266.608 104.286 267.834 104.286 267.834Z" fill="white"/>
<path d="M132.914 247.798L130.869 273.15C130.869 273.15 138.23 278.875 137.821 280.102C137.412 281.328 130.051 287.053 130.051 287.053C130.051 287.053 129.233 295.64 128.415 298.093C127.597 300.547 123.916 311.996 107.558 310.361L103.877 332.851L96.9246 331.215C96.9246 331.215 101.423 326.308 102.241 320.992C103.059 315.676 104.286 310.361 103.468 304.227C102.65 297.685 99.7874 288.689 97.7426 286.644C95.6977 284.599 92.835 286.644 89.5633 282.146C86.2915 278.057 87.1095 269.879 91.6081 267.425C96.1067 264.972 101.423 264.972 103.877 267.017C103.877 267.017 110.829 262.519 116.964 260.883C123.098 260.474 129.642 260.065 132.914 247.798Z" fill="white"/>
<path d="M238.426 390.915C238.426 390.915 268.69 399.502 270.734 436.304C270.734 436.304 244.561 455.522 208.572 465.336C172.583 474.741 158.678 471.061 158.678 471.061C158.678 471.061 164.403 500.911 166.448 518.085C168.493 535.259 170.538 554.478 170.538 554.478H20.4478C20.4478 554.478 20.4478 489.87 20.4478 466.972C20.4478 444.073 19.6299 409.316 19.6299 409.316C19.6299 409.316 21.2657 371.287 26.9913 357.794C32.7168 344.3 34.7616 340.619 34.7616 340.619C34.7616 340.619 48.6664 347.571 63.3891 344.709C77.7029 341.846 85.4732 340.619 96.1063 331.215C96.1063 331.215 105.104 331.624 112.465 341.028C119.826 350.433 127.597 362.292 133.731 379.875C139.866 397.458 152.135 411.769 168.084 413.405C184.034 415.449 202.028 411.769 215.524 404.818C229.02 397.866 238.426 390.915 238.426 390.915Z" fill="#343B43"/>
<path d="M435.139 488.643C435.139 488.643 437.592 463.291 445.772 458.793C453.951 454.295 460.903 453.477 460.903 453.477C460.903 453.477 452.724 442.846 457.223 435.077C461.721 426.899 470.31 426.899 480.125 427.716C489.94 428.943 496.892 430.988 499.755 437.53C503.027 443.664 494.439 457.975 494.439 457.975C494.439 457.975 505.072 462.882 507.525 471.469C509.979 480.056 508.752 488.235 506.299 496.413C503.845 504.591 501.391 509.089 500.982 509.089C500.982 509.089 489.531 503.773 490.349 489.87C490.349 489.87 476.035 497.639 464.584 496.413C453.133 495.186 445.363 494.777 445.363 494.777C445.363 494.777 443.727 489.461 435.139 488.643Z" fill="#343B43"/>
<path d="M445.772 499.276C445.772 499.276 445.772 489.871 437.592 489.053C437.592 489.053 429.413 490.689 429.413 497.231C429.004 503.774 431.049 508.272 440.046 508.681C440.046 508.681 438.001 519.312 442.091 525.855C446.181 532.397 453.542 538.531 462.539 540.984C471.536 543.438 476.444 540.984 481.352 536.895C485.85 532.806 494.847 522.583 498.528 516.45C502.209 510.316 502.209 508.681 502.209 508.681C502.209 508.681 490.349 503.774 491.576 489.462C491.576 489.462 483.396 496.004 468.674 495.595C453.542 495.187 446.999 494.369 446.999 494.369L445.772 499.276Z" fill="white"/>
<path d="M210.208 464.927L247.833 449.798C247.833 449.798 242.107 462.065 234.746 463.292C227.793 465.336 210.208 464.927 210.208 464.927Z" fill="url(#paint5_linear_156_1158)"/>
<path d="M343.53 59.2912C343.53 59.2912 347.62 62.1536 348.029 65.0159C348.438 67.8783 347.62 70.7406 347.62 70.7406C347.62 70.7406 352.119 71.9673 356.208 70.7406C360.298 69.5139 359.071 65.4248 357.844 65.0159C356.617 64.607 352.936 65.4248 351.71 64.607C350.483 63.7892 349.256 62.9714 349.256 61.3357C349.256 59.7001 347.62 56.8378 345.984 56.8378C343.939 57.2467 343.53 59.2912 343.53 59.2912Z" fill="#343B43"/>
<path d="M627.352 129.624C627.352 142.709 616.719 153.34 603.633 153.34H518.977C505.89 153.34 495.257 142.709 495.257 129.624V89.551C495.257 76.4659 505.89 65.8344 518.977 65.8344H603.633C616.719 65.8344 627.352 76.4659 627.352 89.551V129.624Z" fill="#343B43"/>
<path d="M577.459 121.854C581.548 119.4 581.548 115.72 577.459 113.267L546.786 95.2749C542.697 92.8215 539.425 94.866 539.425 99.364V135.348C539.425 139.846 542.697 141.89 546.786 139.437L577.459 121.854Z" fill="white"/>
<path d="M437.183 368.425C435.547 379.057 427.368 386.826 415.099 388.87C413.872 389.279 412.645 389.279 411.009 389.688C411.009 393.368 411.009 397.049 411.009 401.138C407.329 401.138 404.057 401.138 400.376 401.138C400.376 397.457 400.376 393.777 400.376 389.688C385.245 388.053 376.656 380.283 373.385 366.789C379.11 365.563 384.018 364.336 389.743 362.7C390.152 363.927 390.561 364.745 390.97 365.972C393.833 374.15 403.239 378.239 411.827 374.968C415.917 373.332 417.553 370.47 417.962 366.789C418.371 363.518 416.735 360.656 413.054 359.02C408.556 356.976 404.057 355.34 399.558 353.704C397.105 352.887 394.651 352.069 392.197 350.842C380.337 345.935 375.021 337.348 376.656 325.49C378.292 314.04 385.245 307.089 397.923 304.636C398.332 304.636 398.741 304.227 399.967 304.227C399.967 301.364 399.967 298.502 399.967 295.231C403.648 295.231 410.192 295.231 410.192 295.231L410.601 303.818C410.601 303.818 413.054 304.227 418.78 306.271C427.368 309.134 431.867 315.267 434.729 323.445C429.822 325.49 424.914 327.125 420.007 329.17C418.371 326.308 416.735 323.854 414.69 321.401C411.418 317.721 406.92 316.903 402.421 318.13C398.741 318.947 396.287 321.401 395.878 325.081C395.06 328.761 396.287 332.032 400.376 333.668C404.057 335.304 408.147 336.939 412.236 338.166C415.508 339.393 418.78 340.619 422.052 341.846C433.912 347.162 438.819 355.749 437.183 368.425Z" fill="url(#paint6_linear_156_1158)"/>
<path d="M506.014 412.862H548.138V370.745H506.014V412.862Z" fill="url(#paint7_linear_156_1158)"/>
<path d="M340.668 136.984L353.755 136.166L346.393 123.899L340.668 136.984Z" fill="#343B43"/>
<path d="M201.211 256.384C203.256 264.154 206.527 268.652 207.345 269.878C208.981 271.923 220.841 287.461 244.561 290.324C250.287 281.328 244.561 267.425 231.474 258.838C220.432 252.295 208.572 251.478 201.211 256.384Z" fill="#343B43"/>
<path d="M541.061 211.405C541.061 211.405 538.607 225.308 548.831 231.85L552.103 228.17C552.103 228.17 541.879 220.81 541.061 211.405Z" fill="#B5B5B5"/>
<path d="M716.506 518.085C719.369 515.632 721.823 513.179 721.823 513.179C721.823 513.179 686.243 491.098 677.246 480.466C668.657 470.243 665.795 469.017 665.386 468.608C665.386 468.608 692.377 505 716.506 518.085Z" fill="#B5B5B5"/>
<path d="M629.806 246.979H608.131V268.652H629.806V246.979Z" fill="url(#paint8_linear_156_1158)"/>
<path d="M364.388 4.90674C364.388 4.90674 373.385 23.7165 367.659 28.6233C370.522 28.6233 372.567 28.6233 372.567 28.6233L372.158 38.4371C372.158 38.4371 378.293 26.1699 375.43 17.1739C373.385 11.4492 368.886 7.36018 364.388 4.90674Z" fill="white"/>
<path d="M343.939 15.5386C343.939 15.5386 334.942 34.7572 324.718 36.8017L327.581 39.6641C327.581 39.6641 341.485 33.5305 343.939 15.5386Z" fill="white"/>
<path d="M499.347 461.247C499.347 461.247 507.526 473.514 502.618 487.417C497.711 501.32 493.621 502.547 493.621 502.547C493.621 502.547 495.257 507.454 501.391 508.68C501.391 508.68 507.935 497.231 508.753 486.599C509.571 475.559 509.571 466.972 499.347 461.247Z" fill="white"/>
<path d="M479.307 427.308C479.307 427.308 495.256 430.579 494.847 441.211C494.847 448.162 490.758 456.34 490.758 456.34L494.438 457.976C494.438 457.976 500.164 448.98 500.573 442.028C500.982 435.486 498.528 431.397 479.307 427.308Z" fill="white"/>
<path d="M770.081 337.757C769.263 330.397 765.582 324.672 760.675 319.356C755.358 314.041 744.316 308.316 738.591 305.453C732.865 302.591 729.184 297.684 728.366 292.777C727.548 287.87 729.593 280.101 732.865 272.741C736.137 265.789 736.137 257.611 736.137 257.611C734.501 246.162 730.411 244.526 723.05 239.211C721.823 238.393 720.596 237.984 719.369 237.166C719.778 237.575 737.773 249.842 727.14 268.243C718.142 284.19 717.324 300.547 727.14 308.316C736.955 315.676 746.77 325.081 745.543 330.806C756.994 338.166 763.537 355.34 763.537 355.34C767.218 354.522 770.49 345.117 770.081 337.757Z" fill="white"/>
<path d="M804.025 482.919C804.025 482.919 783.168 472.696 766.81 489.871C750.451 507.045 759.039 525.445 759.039 525.445C759.039 525.445 779.487 529.534 792.983 511.951C806.07 494.777 804.025 482.919 804.025 482.919Z" fill="url(#paint9_linear_156_1158)"/>
<path d="M423.279 137.801C401.604 119.401 384.018 115.312 365.206 112.04C384.836 113.267 402.422 117.356 424.097 136.166C423.688 137.393 423.688 137.801 423.279 137.801Z" fill="#343B43"/>
<path d="M250.286 291.55C248.651 291.55 247.424 291.55 245.788 291.55C224.522 289.915 200.802 275.194 198.757 250.66C196.712 226.125 206.527 201.182 215.115 182.781C224.113 163.563 233.928 143.526 248.651 131.259C268.281 114.085 281.368 112.449 296.091 109.996C297.726 109.587 299.771 109.587 301.816 109.178C300.18 111.223 298.135 111.631 296.5 112.04C281.368 114.085 269.508 116.129 250.286 132.895C235.973 145.162 226.158 164.789 217.16 184.008C208.572 202.409 198.757 226.534 200.802 251.069C202.847 274.376 225.34 288.688 245.788 289.915C283.413 292.777 309.177 257.611 329.217 222.445C328.808 220.81 325.945 213.449 311.222 203.227C296.908 193.004 289.547 193.004 288.32 193.413C286.275 195.457 263.782 218.356 236.382 249.433C263.782 215.494 287.502 191.777 287.502 191.368C288.32 190.959 295.682 189.324 312.449 201.591C329.626 213.858 331.262 222.036 331.262 222.445C318.584 245.344 292.001 291.55 250.286 291.55Z" fill="#343B43"/>
<path d="M293.228 555.704H0C0 553.66 293.228 553.66 293.228 553.66C294.046 555.295 293.637 555.704 293.228 555.704Z" fill="#343B43"/>
<path d="M884.182 555.704H622.036C622.036 553.66 884.182 553.66 884.182 553.66C885.409 555.295 885 555.704 884.182 555.704Z" fill="#343B43"/>
<path d="M474.809 555.704L450.68 555.295C450.68 553.659 474.809 554.068 474.809 554.068C475.627 555.295 475.218 555.704 474.809 555.704Z" fill="#343B43"/>
<path d="M352.119 73.1944C350.074 73.1944 347.62 72.3766 345.984 71.1498C343.53 69.1053 341.895 65.8341 341.895 62.5628C341.895 60.1094 342.712 58.4737 343.939 57.247C345.166 56.4292 346.393 56.0203 347.62 56.8381C349.256 57.247 350.074 58.8826 350.483 60.9272C350.892 63.3806 351.301 63.3806 351.71 63.7895C352.119 64.1984 352.528 64.1984 354.981 64.1984C357.026 63.7895 358.662 64.6073 359.889 65.8341C360.707 66.6519 360.707 68.2875 360.298 69.5142C359.889 71.1498 357.844 72.3766 355.799 73.1944C354.163 72.7855 352.937 73.1944 352.119 73.1944ZM345.575 58.0648C343.939 58.8826 343.121 60.1094 343.121 62.1539C343.121 65.0162 344.348 67.8786 346.393 69.1053C349.665 71.5587 352.937 70.7409 354.163 70.332C356.208 69.9231 357.026 68.6964 357.435 67.8786C357.844 67.0608 357.435 66.6519 357.435 66.243C357.026 65.4252 355.799 65.0162 354.163 65.4251C351.301 65.8341 350.483 65.4251 349.665 65.0162C348.847 64.1984 348.438 63.7895 347.62 60.9272C347.211 59.7005 346.802 58.4737 345.984 58.4737C345.984 58.4737 345.984 58.0648 345.575 58.0648Z" fill="#343B43"/>
<path d="M347.211 71.9674C349.665 64.6071 342.713 60.518 342.304 60.1091C346.393 60.1091 351.301 65.4249 348.029 71.5585C348.029 71.5585 347.62 71.9674 347.211 71.9674Z" fill="#343B43"/>
<path d="M775.806 555.705C775.397 542.211 775.397 542.211 774.988 525.446V523.81C776.624 523.81 777.033 525.446 777.033 525.446C777.442 542.211 777.442 542.211 777.033 553.66C776.624 555.296 776.215 555.705 775.806 555.705Z" fill="#343B43"/>
<path d="M742.272 459.611C726.322 428.535 724.277 380.284 724.277 379.466C726.322 379.875 727.958 428.126 743.09 457.976C742.681 459.611 742.272 459.611 742.272 459.611Z" fill="#343B43"/>
<path d="M262.965 219.174C278.914 193.413 285.867 157.02 286.276 156.612C287.912 157.429 280.959 193.822 263.783 218.765C263.783 219.174 263.374 219.174 262.965 219.174Z" fill="#343B43"/>
<path d="M335.76 196.684C335.76 194.64 336.987 193.413 339.032 192.186C344.757 187.688 355.799 178.692 357.026 172.968C357.844 170.105 357.026 168.061 355.799 167.243C354.163 166.425 352.118 166.834 351.3 167.652C351.709 164.79 354.572 164.381 357.026 165.607C358.253 166.425 360.298 168.47 359.48 173.377C358.253 179.51 347.211 188.506 341.076 193.413C339.44 194.64 337.805 195.866 337.396 196.275C336.578 196.275 336.169 196.684 335.76 196.684Z" fill="#343B43"/>
<path d="M326.763 216.312C330.852 210.587 338.214 204.453 347.211 197.093C353.345 192.186 357.026 186.87 357.026 182.781C357.435 179.51 355.39 177.466 355.39 177.466C356.617 176.239 359.071 178.692 358.662 182.781C358.253 187.688 354.981 193.004 348.029 198.729C339.032 206.089 331.67 212.223 327.172 216.312H326.763Z" fill="#343B43"/>
<path d="M296.908 194.639C296.499 191.368 296.499 189.324 296.09 185.235C294.045 163.971 306.723 157.02 307.132 157.02C307.541 159.065 296.09 165.198 297.726 185.235C298.135 189.324 298.135 191.368 297.317 193.822C297.726 194.231 297.317 194.639 296.908 194.639Z" fill="#343B43"/>
<path d="M328.808 190.142C340.259 180.328 349.665 170.105 350.074 163.563C350.074 161.518 349.665 160.291 348.438 159.065C347.62 158.656 346.802 157.838 345.166 157.838C343.53 158.247 341.895 159.474 340.259 160.7C338.623 161.927 337.396 163.563 336.169 164.789C335.76 165.198 334.942 166.016 334.533 166.425C331.262 169.696 327.99 172.559 325.127 175.012C324.309 175.83 323.491 176.239 322.673 177.057C320.628 178.692 318.584 180.737 316.539 181.963C315.312 182.781 314.085 183.19 312.858 183.19C310.404 183.19 308.768 182.781 307.951 181.555C306.724 180.737 306.724 178.692 306.724 177.057C308.359 179.101 308.768 179.919 309.177 180.737C309.586 181.555 310.813 181.555 312.858 181.963C313.676 181.963 314.494 181.555 315.312 181.146C317.357 179.919 319.402 178.283 321.446 176.239C322.264 175.421 323.082 174.603 323.9 174.194C326.763 171.741 330.035 168.878 333.306 165.607C333.715 165.198 334.533 164.38 334.942 163.972C336.169 162.745 337.805 161.109 339.441 159.883C341.077 158.247 342.713 157.02 345.166 156.611C346.802 156.202 348.438 157.02 349.665 158.247C351.301 159.883 352.119 161.927 352.119 164.38C351.71 172.559 339.85 184.008 329.626 190.551C329.217 190.142 328.808 190.142 328.808 190.142Z" fill="#343B43"/>
<path d="M353.345 83.0084C350.074 83.0084 345.984 82.5995 341.077 81.3728C337.805 80.555 334.942 79.7372 332.488 78.5104C335.76 78.1015 338.214 78.9193 341.486 79.7372C351.71 81.7817 358.253 81.7817 362.343 79.3283C364.797 77.6926 366.432 75.2392 367.25 71.559C367.659 69.1056 368.886 63.7898 369.295 58.474C369.704 54.7938 372.158 29.0327 372.158 29.0327C373.794 30.2594 371.749 55.2028 370.931 58.8829C370.113 63.3809 369.295 69.5145 368.886 71.9679C368.068 76.057 366.023 78.9193 363.161 80.9639C360.707 82.1906 357.435 83.0084 353.345 83.0084Z" fill="#343B43"/>
<path d="M316.539 96.5018C315.721 95.275 320.629 56.8378 320.629 56.8378C322.265 57.2467 317.357 95.6839 317.357 95.6839C317.357 96.0928 316.948 96.5018 316.539 96.5018Z" fill="#343B43"/>
<path d="M318.584 58.0649C315.312 58.0649 312.449 56.8382 309.995 54.3847C305.497 49.4778 305.497 42.1175 310.404 37.2106C315.312 32.7127 322.673 32.7127 327.581 37.6195C329.217 39.2552 330.035 40.8908 330.444 42.9353C328.399 41.7086 327.172 40.073 325.945 38.8463C321.855 34.7572 315.721 34.7572 311.631 38.4374C307.542 42.5264 307.542 48.66 311.222 52.7491C314.494 56.0204 319.811 56.8382 323.9 54.3847C323.082 57.656 320.628 58.0649 318.584 58.0649Z" fill="#343B43"/>
<path d="M346.802 40.073C347.62 40.073 348.029 40.4819 347.62 42.9353C347.211 45.7977 346.393 46.2066 345.984 46.2066C345.166 46.2066 344.757 44.9799 345.166 42.9353C345.575 40.8908 345.575 40.073 346.802 40.073Z" fill="#343B43"/>
<path d="M367.66 42.1176C368.478 42.1176 368.886 42.5265 368.477 44.9799C368.069 47.8423 367.251 48.2512 366.842 48.2512C366.024 48.2512 365.615 47.0244 366.024 44.9799C366.433 42.9354 366.433 42.1176 367.66 42.1176Z" fill="#343B43"/>
<path d="M372.158 38.8463C371.34 37.6196 370.113 34.3484 365.614 35.1662C371.749 32.3038 372.976 37.6196 372.976 37.6196C372.158 38.8463 372.158 38.8463 372.158 38.8463Z" fill="#343B43"/>
<path d="M341.485 35.9841C347.211 28.6238 352.527 33.1217 352.527 33.1217C351.3 34.3485 347.211 31.0772 342.303 35.5752C341.894 35.9841 341.485 35.9841 341.485 35.9841Z" fill="#343B43"/>
<path d="M352.937 96.9108C352.119 96.093 352.937 81.7812 352.937 81.7812C354.982 81.7812 354.164 95.6841 354.164 95.6841C353.755 96.5019 353.346 96.9108 352.937 96.9108Z" fill="#343B43"/>
<path d="M327.581 40.4818C341.077 31.8948 343.531 16.3563 343.531 16.3563C345.576 16.7652 353.755 30.2592 372.567 27.8057C356.618 31.4859 348.029 22.4899 344.758 18.4009C343.531 22.8988 339.441 34.3482 327.99 40.4818C327.99 40.4818 327.99 40.4818 327.581 40.4818Z" fill="#343B43"/>
<path d="M314.494 52.3403C314.085 50.7047 321.855 47.8423 321.855 47.8423L315.721 40.0731C317.357 38.8464 323.9 47.8423 323.9 47.8423C323.9 49.069 314.903 52.3403 314.494 52.3403C314.903 52.3403 314.494 52.3403 314.494 52.3403Z" fill="#343B43"/>
<path d="M341.486 11.4493C340.668 11.0403 336.987 4.90675 336.987 4.90675C338.623 4.08893 342.304 9.81363 342.304 9.81363C341.486 11.0403 341.486 11.4493 341.486 11.4493Z" fill="#343B43"/>
<path d="M626.126 555.705C625.308 554.478 626.943 513.996 625.308 467.381C628.988 513.996 627.352 554.478 627.352 554.887C626.943 555.296 626.535 555.705 626.126 555.705Z" fill="#343B43"/>
<path d="M624.898 393.369C626.125 375.786 629.806 363.11 632.26 354.931C631.442 363.518 627.761 376.195 625.716 392.551C625.716 392.96 625.307 393.369 624.898 393.369Z" fill="#343B43"/>
<path d="M678.881 307.907C676.836 307.907 675.201 307.907 673.565 307.907C670.293 307.907 667.839 307.089 665.385 306.271C661.705 304.635 659.251 301.364 658.433 296.457C657.206 289.097 658.024 281.737 659.251 274.376C660.069 268.652 664.568 247.388 664.977 246.979C666.612 248.206 662.114 268.652 661.296 273.967C660.069 282.146 659.251 289.097 660.478 296.457C661.296 300.546 663.341 303.409 666.203 304.635C668.248 305.453 670.293 305.862 673.565 306.271C676.428 306.271 680.926 306.271 684.198 306.271C682.562 307.907 680.517 307.907 678.881 307.907Z" fill="#343B43"/>
<path d="M702.193 274.376C670.702 257.611 663.75 246.162 663.341 245.753C664.977 244.935 671.929 256.384 702.602 272.741C703.011 274.376 702.602 274.376 702.193 274.376Z" fill="#343B43"/>
<path d="M686.244 268.652C685.426 268.243 685.017 268.652 684.608 271.105C684.199 273.968 684.608 274.785 685.426 274.785C686.244 274.785 687.062 273.968 687.062 271.923C687.062 269.879 687.062 268.652 686.244 268.652Z" fill="#343B43"/>
<path d="M666.613 265.381C665.795 264.972 665.386 265.381 664.568 267.834C663.75 270.696 664.568 271.514 665.386 271.514C666.204 271.514 667.022 270.696 667.022 268.652C667.431 266.607 667.431 265.789 666.613 265.381Z" fill="#343B43"/>
<path d="M663.341 260.065C664.159 257.611 666.204 256.793 669.884 258.02C666.204 258.429 664.977 259.247 663.75 259.656C663.75 259.656 663.75 260.065 663.341 260.065Z" fill="#343B43"/>
<path d="M705.465 292.777C703.011 292.777 700.966 291.959 699.33 290.732C701.784 289.915 703.011 290.732 704.647 290.732C707.1 290.732 709.145 290.324 710.781 288.688C712.417 287.052 713.644 285.008 713.644 282.554C713.644 280.101 713.235 278.056 711.599 276.421C709.963 274.785 707.918 273.558 705.465 273.558C703.829 273.558 702.193 273.967 700.557 274.785C701.375 272.332 703.42 271.514 705.465 271.923C708.327 271.923 710.781 273.558 712.826 275.603C714.871 277.647 715.689 280.51 715.28 283.372C715.28 286.234 713.644 288.688 711.599 290.732C710.781 291.959 708.327 292.777 705.465 292.777Z" fill="#343B43"/>
<path d="M707.1 288.688C706.282 288.279 700.557 282.555 700.557 282.555C700.557 280.919 708.327 276.83 708.327 276.83C709.145 278.465 702.601 282.146 702.601 282.146L707.509 287.053C707.509 288.279 707.1 288.688 707.1 288.688Z" fill="#343B43"/>
<path d="M98.1512 287.462C90.7899 286.644 86.2913 281.328 87.1092 275.194C87.9271 269.061 93.2437 264.563 99.3781 265.381C101.423 265.789 103.877 266.607 105.513 267.834C103.059 268.243 101.014 267.425 99.3781 267.016C94.0616 266.607 89.563 270.287 89.154 275.194C88.7451 277.648 89.563 280.101 91.1988 282.146C92.8347 284.19 94.8795 285.417 97.3333 285.417C98.9692 285.417 100.605 285.417 102.241 284.599C101.423 287.053 99.7871 287.462 98.1512 287.462Z" fill="#343B43"/>
<path d="M95.6978 282.555C95.2888 280.919 101.423 276.421 101.423 276.421L94.8799 271.105C96.1068 269.47 103.468 275.603 103.468 275.603C103.468 277.239 96.1068 282.146 96.1068 282.146C95.6978 282.146 95.6978 282.555 95.6978 282.555Z" fill="#343B43"/>
<path d="M676.019 344.3C675.201 344.3 673.974 344.3 673.156 343.891C671.521 343.482 670.294 342.664 669.476 341.437C665.795 335.304 671.112 320.174 671.521 318.538L672.338 306.68C673.974 306.68 673.156 318.947 673.156 318.947C673.156 319.356 667.431 334.895 670.703 340.619C671.112 341.437 671.93 342.255 673.156 342.255C689.106 345.117 700.148 318.538 700.148 318.538C701.784 320.583 691.56 344.3 676.019 344.3Z" fill="#343B43"/>
<path d="M676.428 292.777C675.201 292.777 673.974 292.369 672.747 291.96C675.61 291.142 677.246 291.142 678.473 290.324C680.926 289.097 681.335 286.235 681.335 286.235C682.971 286.644 682.153 290.324 679.291 291.96C678.473 292.777 677.246 292.777 676.428 292.777Z" fill="#343B43"/>
<path d="M437.593 509.498C436.366 509.498 434.73 509.089 433.503 508.271C428.596 505.818 426.551 499.684 429.005 494.369C430.231 491.915 432.276 489.871 434.73 489.053C437.184 488.235 439.638 488.235 441.683 489.462C443.727 490.28 447.408 494.369 446.181 499.684C445.363 495.186 442.091 491.915 440.865 491.097C439.229 490.28 437.184 489.871 435.139 490.688C433.094 491.506 431.458 493.142 430.64 495.186C428.596 499.684 430.231 504.591 434.321 506.636C435.548 507.454 437.184 507.454 438.411 507.454C438.82 507.454 439.638 507.454 440.456 507.045C440.047 509.089 438.82 509.089 438.82 509.089C438.002 509.498 438.002 509.498 437.593 509.498Z" fill="#343B43"/>
<path d="M500.573 509.498C491.575 505.818 489.939 495.595 489.939 491.506C469.9 501.729 445.362 496.004 445.362 495.595C446.18 493.96 471.127 500.093 490.348 489.053C491.575 489.871 491.575 503.774 500.982 507.454C501.39 509.089 500.982 509.498 500.573 509.498Z" fill="#343B43"/>
<path d="M348.029 583.51C324.718 583.51 303.043 581.057 296.499 572.879C292.409 567.972 291.592 561.021 293.227 553.251C297.317 535.668 314.494 517.677 338.623 505.409C383.2 482.919 434.729 482.919 435.547 482.919C434.729 484.964 383.609 484.964 339.44 507.045C311.222 521.357 297.726 540.575 294.863 553.66C293.227 560.612 294.454 567.154 297.726 571.652C309.177 586.373 375.838 581.057 400.785 579.013C403.239 578.604 405.693 578.604 407.329 578.604C405.693 580.648 403.648 580.648 400.785 581.057C388.107 581.875 367.659 583.51 348.029 583.51Z" fill="#343B43"/>
<path d="M538.607 584.328C533.7 584.328 528.792 584.328 524.702 583.919C550.467 583.101 604.86 581.057 615.902 573.696C619.991 570.834 622.036 566.336 622.036 560.611C621.627 547.117 608.54 526.672 580.731 510.725C554.148 496.004 509.98 489.461 508.344 489.053C510.389 487.417 554.966 493.959 581.548 509.089C610.176 525.445 623.263 546.299 624.081 560.202C624.49 566.745 622.036 571.652 617.128 574.923C607.313 581.874 566.826 584.328 538.607 584.328Z" fill="#343B43"/>
<path d="M467.447 543.028C465.811 543.028 464.175 542.619 462.539 542.21C432.685 534.032 438.819 508.68 438.819 508.271C440.455 509.498 434.73 532.806 462.948 540.166C487.486 546.708 505.481 497.231 505.481 496.413C505.481 496.004 514.478 471.061 498.937 461.247C482.988 451.024 459.268 451.433 447.817 457.976C436.775 464.518 435.957 488.644 435.957 488.644C434.321 487.417 435.139 463.291 446.999 456.34C458.859 449.388 483.806 448.98 500.164 459.611C516.932 470.243 507.526 496.822 507.526 496.822C506.708 499.684 490.758 543.028 467.447 543.028Z" fill="#343B43"/>
<path d="M494.439 459.203C499.346 448.571 500.982 441.62 498.528 436.713C495.666 431.397 488.304 428.535 476.035 428.126C467.038 427.717 460.903 429.761 458.45 433.85C454.36 441.211 461.312 452.66 461.312 453.069C459.268 453.478 451.906 441.211 456.814 433.033C459.677 428.126 466.22 425.672 476.035 426.49C489.122 426.899 497.301 430.17 500.164 435.895C503.027 441.211 501.391 448.98 495.257 458.794C495.257 458.794 494.848 459.203 494.439 459.203Z" fill="#343B43"/>
<path d="M468.265 506.635C467.038 507.044 465.811 510.315 466.22 511.542C466.629 513.178 466.629 513.587 468.265 511.951C469.492 510.724 471.536 505 468.265 506.635Z" fill="#343B43"/>
<path d="M488.713 513.178C487.486 513.587 486.259 516.859 486.668 518.085C487.077 519.721 487.077 520.13 488.713 518.494C490.349 516.859 492.394 511.543 488.713 513.178Z" fill="#343B43"/>
<path d="M477.671 531.17C478.898 529.125 482.987 526.263 483.396 524.627C480.943 522.992 478.898 522.174 478.898 522.174C478.489 520.947 483.396 507.044 483.396 507.044C485.032 507.862 480.125 520.947 480.125 520.947C480.943 521.356 482.17 522.174 483.805 522.992C484.623 523.401 485.032 524.219 484.623 525.036C484.623 527.081 479.716 530.761 477.671 531.17Z" fill="#343B43"/>
<path d="M476.444 507.045C476.035 507.045 464.584 503.365 464.584 503.365C464.993 501.729 476.853 505.409 476.853 505.409C477.262 506.636 476.853 507.045 476.444 507.045Z" fill="#343B43"/>
<path d="M497.301 514.405C496.892 514.405 487.077 511.134 487.077 511.134C487.486 509.498 497.301 512.769 497.301 512.769C498.119 513.996 497.71 514.405 497.301 514.405Z" fill="#343B43"/>
<path d="M461.722 528.717C460.495 527.899 458.041 527.081 456.405 526.672C457.632 525.036 461.313 526.263 462.131 527.081C462.54 528.308 462.131 528.717 461.722 528.717Z" fill="#343B43"/>
<path d="M433.503 502.547C433.503 500.911 439.228 499.684 439.228 499.684L435.957 493.142C437.593 492.324 441.273 500.093 441.273 500.093C440.455 501.32 433.912 502.547 433.503 502.547Z" fill="#343B43"/>
<path d="M491.575 484.554C491.166 480.465 491.575 466.154 491.575 465.745C493.211 466.562 492.802 480.465 492.393 483.737C492.802 484.146 492.393 484.554 491.575 484.554Z" fill="#343B43"/>
<path d="M444.544 555.295C443.726 554.887 431.457 525.036 431.457 525.036L424.914 527.899L433.093 547.935C431.457 548.753 422.869 527.899 422.869 527.899C423.278 526.672 431.866 523.401 431.866 523.401C433.093 523.81 445.362 554.478 445.362 554.478C444.544 555.295 444.544 555.295 444.544 555.295Z" fill="#343B43"/>
<path d="M423.687 528.308C422.869 527.899 421.233 523.81 421.233 523.81C421.642 522.583 430.231 519.312 430.231 519.312C431.457 519.721 433.093 523.81 433.093 523.81C431.457 524.628 430.231 521.356 430.231 521.356L423.687 524.219L424.914 527.49C423.687 528.308 423.687 528.308 423.687 528.308Z" fill="#343B43"/>
<path d="M449.861 581.466C449.043 581.057 441.272 573.697 441.272 573.697C442.499 572.47 449.043 578.603 449.043 578.603L449.452 568.79C451.497 568.79 450.679 580.648 450.679 580.648C450.27 581.057 450.27 581.466 449.861 581.466Z" fill="#343B43"/>
<path d="M489.122 591.279C488.304 591.279 487.486 590.871 486.668 590.462C485.441 590.053 484.623 589.235 483.805 588.008C482.987 587.19 482.987 585.555 482.987 584.328C482.987 582.692 483.805 581.466 484.214 580.239C484.623 579.012 485.441 577.377 486.259 575.332C488.304 571.243 490.349 567.154 492.802 563.065C491.985 567.972 489.531 572.061 487.895 576.15C487.077 578.194 486.259 579.421 485.85 580.648C485.441 581.875 485.032 583.101 484.623 584.328C484.623 585.146 484.623 585.964 485.032 586.781C485.441 587.599 486.259 588.008 487.077 588.417C488.713 589.235 490.758 588.826 492.394 587.19C493.211 586.373 494.029 584.737 494.847 583.919C496.483 581.057 497.301 579.421 498.528 577.377L499.755 575.332C500.982 572.879 502.209 570.425 504.253 567.972C503.845 571.243 502.618 573.696 501.391 576.15L500.164 578.194C499.346 579.83 498.119 581.875 497.301 583.51C496.074 585.964 495.256 587.19 494.029 588.417C492.802 590.462 490.758 591.279 489.122 591.279Z" fill="#343B43"/>
<path d="M473.99 588.417C470.309 587.599 468.673 585.555 468.673 583.919C467.856 576.968 480.942 561.838 482.578 560.203C480.125 565.927 469.9 578.603 470.309 583.51C470.309 584.328 471.127 585.555 472.763 585.964C474.399 586.373 476.035 585.964 477.671 584.328C484.214 577.377 492.802 563.065 492.802 563.065C494.029 564.701 485.85 578.603 478.898 585.555C477.262 587.599 475.217 588.417 473.99 588.417Z" fill="#343B43"/>
<path d="M464.993 580.648C463.357 580.648 462.13 580.239 460.903 579.012C456.813 575.332 465.402 565.518 466.22 564.292C469.491 559.794 477.262 549.162 482.987 548.344C491.575 547.118 527.973 552.024 529.609 552.433C528.791 554.069 491.575 549.162 483.396 550.389C479.715 550.798 473.99 556.522 467.855 565.518C464.993 568.79 460.085 575.741 462.13 577.786C462.948 578.603 464.175 579.012 465.402 579.012C468.673 578.603 471.536 574.923 471.536 574.923C472.763 576.15 469.491 580.648 465.402 581.057C465.402 580.648 465.402 580.648 464.993 580.648Z" fill="#343B43"/>
<path d="M522.657 578.604C509.979 578.604 503.435 572.061 503.026 571.652C504.253 570.425 513.251 579.012 530.018 576.15C527.564 578.604 524.702 578.604 522.657 578.604Z" fill="#343B43"/>
<path d="M455.178 606C454.36 605.591 417.553 572.061 417.553 572.061C418.78 570.834 455.586 603.955 455.586 603.955L535.744 597.004L500.164 576.968C500.982 575.332 539.424 596.595 539.424 596.595C539.015 598.64 455.178 606 455.178 606Z" fill="#343B43"/>
<path d="M372.158 40.4818C375.43 30.668 380.338 15.5385 365.206 6.54253C349.256 -2.86233 337.396 4.49799 336.987 4.9069C328.399 4.49799 322.265 6.95144 318.175 11.4494C310.405 20.4454 312.858 35.5749 312.858 35.9838C310.814 35.5749 308.36 20.0365 316.948 10.2227C321.447 5.31581 327.99 2.86237 336.578 3.27127C338.623 2.04455 350.483 -4.08905 366.433 5.31581C382.791 15.1296 376.248 32.7126 372.976 40.0729C372.567 40.0729 372.158 40.4818 372.158 40.4818Z" fill="#343B43"/>
<path d="M345.984 124.308C345.166 123.899 315.721 96.0932 315.721 96.0932C316.948 94.8665 345.575 121.854 345.575 121.854L352.119 95.2754C353.754 95.6843 347.211 123.899 347.211 123.899C346.393 124.308 345.984 124.308 345.984 124.308Z" fill="#343B43"/>
<path d="M341.486 137.801C340.668 136.575 345.167 123.49 345.167 123.49C346.803 123.899 342.304 137.393 342.304 137.393C341.895 137.393 341.895 137.801 341.486 137.801Z" fill="#343B43"/>
<path d="M323.491 137.801C322.673 137.393 301.407 110.814 301.407 110.814C301.407 109.587 315.721 94.8662 315.721 94.8662C316.948 96.0929 303.452 110.405 303.452 110.405L324.309 136.575C323.9 137.801 323.9 137.801 323.491 137.801Z" fill="#343B43"/>
<path d="M354.163 137.802C353.345 137.393 345.166 124.308 345.166 124.308C346.802 123.49 354.981 136.575 354.981 136.575C354.572 137.802 354.163 137.802 354.163 137.802Z" fill="#343B43"/>
<path d="M363.161 137.802C362.343 136.984 364.388 111.632 364.388 111.632L352.119 96.0934C353.755 94.8667 366.024 110.814 366.024 110.814C366.024 111.632 363.979 136.984 363.979 136.984C363.979 137.393 363.57 137.802 363.161 137.802Z" fill="#343B43"/>
<path d="M320.22 65.0164C316.948 61.7452 314.903 57.6561 314.903 57.2472C316.539 56.4294 318.584 60.5185 321.038 63.3808C321.038 65.0164 320.629 65.0164 320.22 65.0164Z" fill="#343B43"/>
<path d="M360.707 62.154C362.343 60.1094 363.161 59.7005 363.569 59.7005C364.387 59.2916 365.205 58.8827 365.614 58.0649C365.614 57.656 365.614 56.8382 365.614 56.4293C365.205 55.2026 363.978 54.7936 363.161 54.3847C363.161 54.3847 361.525 53.9758 361.116 53.9758C360.298 52.7491 360.707 40.073 360.707 40.073C362.343 47.8422 361.934 51.1135 361.934 52.3402C365.205 53.158 366.432 54.3847 367.25 55.6115C367.659 56.8382 367.659 57.656 367.659 58.8827C367.25 60.1094 366.023 60.9272 364.796 61.7451C363.978 62.154 363.161 62.154 362.343 62.5629C360.707 62.154 360.707 62.154 360.707 62.154Z" fill="#343B43"/>
<path d="M558.237 539.757C541.878 539.757 521.43 538.53 520.203 538.53C520.612 536.895 568.87 539.757 577.049 536.486C574.595 539.348 567.234 539.757 558.237 539.757Z" fill="#343B43"/>
<path d="M447.407 568.79C443.318 568.79 435.547 566.745 423.688 557.749C438.819 567.154 446.59 567.563 449.043 567.154C450.679 566.745 451.497 566.336 452.315 565.109C454.36 562.247 449.861 558.567 449.452 558.158C447.816 557.34 430.64 550.798 426.141 544.664C432.276 549.571 450.27 556.522 450.27 556.522C450.679 556.931 456.814 561.429 453.951 565.927C453.133 567.154 451.497 568.381 449.452 568.79C448.634 568.79 448.225 568.79 447.407 568.79Z" fill="#343B43"/>
<path d="M440.455 573.697C430.64 573.697 417.962 566.336 417.553 565.927C418.78 564.292 434.729 574.105 444.135 571.243C446.589 570.425 448.225 569.199 449.452 566.745C449.861 570.425 447.407 572.061 444.544 572.879C443.318 573.697 442.091 573.697 440.455 573.697Z" fill="#343B43"/>
<path d="M450.679 558.976C449.862 558.158 448.226 549.162 445.772 544.664C443.318 540.575 437.184 537.713 437.184 537.713C438.002 536.077 444.545 538.939 447.408 543.846C450.27 548.344 451.497 557.749 451.906 557.749C450.679 558.976 450.679 558.976 450.679 558.976Z" fill="#343B43"/>
<path d="M402.83 539.348C402.83 537.713 404.875 537.304 409.374 535.668C417.553 532.397 426.55 534.032 426.959 534.032C426.55 535.668 417.962 534.032 410.191 537.304C405.284 539.348 402.83 539.348 402.83 539.348Z" fill="#343B43"/>
<path d="M432.684 575.332C426.141 575.332 418.371 572.469 415.099 571.243C411.827 570.016 408.146 569.198 408.146 569.198C408.964 567.563 412.236 568.38 414.69 569.198C427.368 573.696 435.138 574.514 438.819 572.061C438.001 574.923 435.547 575.332 432.684 575.332Z" fill="#343B43"/>
<path d="M332.897 539.757C381.973 534.85 399.559 533.214 399.559 533.214C399.559 534.85 381.973 536.895 332.897 539.757Z" fill="#343B43"/>
<path d="M407.329 580.239C410.601 545.482 398.741 534.85 398.741 534.85C400.377 534.033 412.646 545.073 408.147 579.421C408.147 579.83 407.738 580.239 407.329 580.239Z" fill="#343B43"/>
<path d="M524.702 583.919C522.248 583.919 519.794 581.875 517.749 578.194C521.021 580.648 523.066 582.284 525.111 582.284C527.156 581.875 528.791 579.83 529.609 575.741C530.836 571.243 530.836 565.518 530.018 559.794C528.382 547.118 523.884 538.939 520.203 538.939C517.34 539.348 514.887 544.255 514.478 551.207C513.251 542.62 516.114 537.713 519.794 537.304C525.111 536.895 530.427 546.709 532.063 559.794C532.881 565.927 532.472 572.061 531.245 576.559C530.018 581.466 527.973 584.328 525.111 584.737C525.111 583.919 524.702 583.919 524.702 583.919Z" fill="#343B43"/>
<path d="M469.083 562.656L453.542 562.247C453.542 560.612 469.083 560.612 469.083 560.612C469.901 562.247 469.492 562.656 469.083 562.656Z" fill="#343B43"/>
<path d="M443.727 582.692C443.727 581.057 459.267 579.83 459.267 579.83C459.676 581.875 443.727 582.692 443.727 582.692Z" fill="#343B43"/>
<path d="M496.074 589.235C496.074 587.19 505.889 586.781 505.889 586.781C506.298 588.417 496.483 589.235 496.074 589.235Z" fill="#343B43"/>
<path d="M458.449 596.595C458.449 594.96 474.399 593.324 474.399 593.324C474.399 595.369 458.449 596.595 458.449 596.595Z" fill="#343B43"/>
<path d="M763.946 356.566C770.08 350.433 770.081 338.166 767.218 330.805C764.764 325.081 760.674 320.174 754.949 315.676C750.45 312.404 745.952 309.951 741.044 307.498L739.408 306.68C735.727 304.635 730.411 301.773 728.366 296.866C725.503 290.324 727.548 284.19 729.593 278.874C730.002 278.056 730.411 276.83 730.82 276.012C733.274 270.287 735.727 263.745 735.727 258.02C735.318 252.704 732.865 246.162 728.366 243.299C722.232 239.619 716.915 236.757 712.416 235.121C708.736 233.894 674.383 222.036 661.705 236.757C657.615 241.664 655.161 248.615 654.752 257.611C654.343 260.882 655.161 264.153 655.57 267.425C655.979 270.696 656.797 273.967 656.388 277.239C655.979 283.372 653.525 289.506 649.436 294.004C647.8 295.639 646.164 296.866 644.528 298.093C643.301 299.319 641.665 300.137 640.439 301.364C637.985 303.817 635.94 306.68 635.122 309.951C633.077 315.267 633.077 323.036 637.985 327.534C631.032 323.445 631.441 315.267 633.486 309.133C634.713 305.453 636.758 302.182 639.212 299.728C640.439 298.502 642.074 297.275 643.301 296.457C644.937 295.23 646.573 294.004 647.8 292.777C651.481 288.688 653.934 282.963 654.343 277.239C654.343 273.967 653.934 271.105 653.525 267.834C653.116 264.562 652.299 260.882 652.708 257.611C653.525 247.797 655.979 240.846 660.069 235.53C673.565 219.992 708.736 231.85 712.825 233.077C717.324 234.712 723.05 237.575 729.184 241.664C734.501 244.935 736.954 252.295 737.363 258.02C737.772 264.562 734.91 271.105 732.456 276.83C732.047 277.647 731.638 278.874 731.229 279.692C729.184 284.599 727.548 290.324 730.002 296.048C731.638 300.546 736.545 303.409 739.817 305.044L741.453 305.862C746.361 308.315 751.268 310.769 755.767 314.04C761.901 318.538 766.4 324.263 768.854 329.987C772.125 337.348 772.125 351.251 764.355 356.158C764.355 356.566 763.946 356.566 763.946 356.566Z" fill="#343B43"/>
<path d="M701.374 319.765C700.557 318.947 700.966 292.368 700.966 292.368C702.601 292.368 702.192 318.947 702.192 318.947C702.192 319.356 701.783 319.765 701.374 319.765Z" fill="#343B43"/>
<path d="M762.72 526.672C730.412 526.672 687.879 493.96 664.568 468.607C664.568 467.381 669.476 454.296 678.064 442.437C687.061 430.17 694.014 423.628 694.014 423.628C695.65 423.628 734.092 448.162 754.541 468.607C734.092 451.024 699.739 428.943 694.423 425.672C692.787 427.308 686.652 433.85 678.882 443.664C671.521 453.887 666.613 465.336 665.386 467.79C700.557 505.818 752.496 536.486 779.897 520.13C824.883 492.733 789.303 415.858 770.081 374.559L768.854 371.697C768.037 370.061 767.219 368.016 766.401 365.972C761.902 354.931 755.359 338.575 740.636 329.579C730.821 323.854 721.006 320.174 701.375 320.174C721.415 318.13 731.639 322.219 741.454 327.943C756.586 337.348 763.538 354.931 768.037 365.154C768.854 367.607 769.672 369.243 770.49 370.879L771.717 373.741C791.348 415.45 827.337 493.551 781.123 521.765C776.216 525.445 769.672 526.672 762.72 526.672Z" fill="#343B43"/>
<path d="M623.262 331.215C612.22 331.215 601.587 327.944 592.999 319.356C586.864 313.223 582.366 305.863 577.867 296.049C572.141 282.555 568.461 265.79 568.052 249.842C570.097 265.79 573.777 281.737 579.503 295.231C583.592 304.636 588.5 311.996 594.226 318.13C610.175 334.077 633.895 330.806 651.072 323.037C657.615 320.174 664.567 318.539 672.338 318.539C664.976 320.583 658.024 322.219 651.89 325.081C643.301 328.352 633.077 331.215 623.262 331.215Z" fill="#343B43"/>
<path d="M619.582 398.684C599.543 397.049 581.548 385.599 569.688 377.012C537.789 353.296 516.523 306.68 512.024 251.478C518.159 305.862 539.425 352.069 570.915 375.377C582.366 383.964 599.952 395.413 619.582 397.049C620.4 398.275 619.991 398.684 619.582 398.684Z" fill="#343B43"/>
<path d="M271.962 437.53C267.463 402.773 242.516 393.368 239.244 392.142C226.157 401.546 211.435 408.907 197.121 412.587C186.897 415.04 177.9 415.858 169.72 415.04C158.269 413.405 147.636 406.453 140.684 395.413C137.003 389.688 134.549 383.146 132.096 376.603C130.46 372.923 129.233 368.834 127.188 365.154C121.871 353.704 115.737 344.708 108.376 338.166C105.104 334.895 100.605 332.85 96.5156 332.441C101.014 331.214 105.922 333.259 109.602 336.53C116.964 343.482 123.098 352.478 128.824 363.927C130.46 367.607 132.096 371.696 133.731 375.785C136.185 381.919 138.639 388.461 142.32 394.186C148.863 404.818 159.087 411.36 170.129 412.996C178.309 413.814 186.897 413.405 197.121 410.542C211.435 406.862 226.157 399.502 238.835 390.506C240.062 390.506 269.099 398.684 273.188 436.303C271.962 437.53 271.962 437.53 271.962 437.53Z" fill="#343B43"/>
<path d="M667.022 285.008C665.795 282.146 664.568 276.83 666.613 275.603C667.84 274.785 669.885 275.603 671.93 276.421L673.975 264.972C675.611 265.381 673.566 278.057 673.566 278.057C670.294 277.648 668.249 277.239 667.84 277.239C667.431 277.648 667.431 280.919 668.249 284.19C667.022 285.008 667.022 285.008 667.022 285.008Z" fill="#343B43"/>
<path d="M554.148 255.976C553.33 254.34 558.238 246.98 563.554 239.619C568.871 232.259 569.28 225.308 566.417 222.036C562.736 217.947 550.467 206.498 545.151 207.725C543.924 208.133 543.515 208.951 543.106 210.587C540.652 220.401 555.784 229.806 556.193 229.806C554.557 231.032 538.607 221.218 541.47 210.178C542.288 207.316 543.924 206.498 545.151 206.089C552.512 204.044 568.053 220.81 568.053 220.81C571.733 225.308 570.915 233.486 565.19 240.846C559.873 248.206 554.966 255.567 554.966 255.567C554.966 255.976 554.557 255.976 554.148 255.976Z" fill="#343B43"/>
<path d="M555.375 211.405C554.557 210.587 554.557 161.518 554.557 161.518C556.601 161.518 556.601 210.587 556.601 210.587C556.601 210.996 556.192 211.405 555.375 211.405Z" fill="#343B43"/>
<path d="M307.542 178.283C306.724 177.465 306.724 158.656 306.724 158.656C306.724 145.98 316.948 135.757 329.626 135.757H488.713C488.713 137.801 329.626 137.801 329.626 137.801C317.766 137.801 308.359 147.206 308.359 159.065V177.465C308.359 177.874 307.951 178.283 307.542 178.283Z" fill="#343B43"/>
<path d="M533.29 239.62H329.626C326.354 239.62 324.309 239.211 321.446 237.984C324.718 237.575 326.763 237.575 329.626 237.575H533.29C541.06 237.575 547.604 233.895 551.285 227.353C548.831 235.531 541.878 239.62 533.29 239.62Z" fill="#343B43"/>
<path d="M518.568 255.158C514.069 246.98 512.434 238.802 512.434 238.802C514.069 238.393 516.114 246.162 519.386 253.931C518.568 255.158 518.568 255.158 518.568 255.158Z" fill="#343B43"/>
<path d="M696.876 529.534C691.151 529.534 685.016 527.489 680.518 522.992L602.814 445.299C593.817 436.303 593.817 421.583 602.814 412.587L654.344 361.064C663.341 352.068 678.064 352.068 687.061 361.064L727.549 401.546C726.322 402.773 685.834 362.291 685.834 362.291C681.745 358.202 676.428 356.157 670.703 356.157C664.977 356.157 659.66 358.202 655.571 362.291L604.041 413.813C595.862 421.991 595.862 435.485 604.041 443.664L681.745 521.356C689.924 529.534 703.42 529.534 711.599 521.356L720.596 512.36C721.823 513.587 712.826 522.992 712.826 522.992C708.736 527.489 703.011 529.534 696.876 529.534Z" fill="#343B43"/>
<path d="M667.84 462.473C654.344 460.429 628.579 434.668 626.534 427.716C625.308 423.627 627.352 421.174 629.397 419.947C628.17 417.903 628.579 415.04 630.215 413.405C631.033 412.587 631.851 412.178 632.669 411.769C634.305 411.36 635.941 411.36 637.576 412.587C637.985 412.996 668.658 461.656 668.658 461.656C668.658 462.473 668.249 462.473 667.84 462.473ZM634.305 412.996C632.669 413.405 632.26 413.814 631.442 414.222C629.806 415.858 629.806 417.903 631.033 419.538C630.624 421.174 626.534 422.809 628.17 427.307C630.215 433.441 653.117 456.34 665.795 460.429L636.35 413.813C635.532 412.996 635.123 412.996 634.305 412.996Z" fill="#343B43"/>
<path d="M656.798 430.579C652.708 428.125 642.893 419.947 640.03 417.085C636.758 414.222 633.896 411.36 633.896 408.498C633.896 406.862 634.713 405.635 635.94 404.409C640.439 400.32 644.938 404 647.8 406.862C648.209 407.271 649.027 408.089 650.254 408.907C653.117 411.769 657.615 416.267 660.069 418.312C662.523 419.947 669.884 425.672 672.747 424.445C674.792 423.627 675.61 421.583 672.747 414.631C671.111 409.316 670.702 404.818 672.338 401.955C673.156 400.729 673.974 399.911 675.201 399.911C680.926 399.093 682.153 403.182 683.38 406.862C683.789 407.68 683.789 408.498 684.198 408.907C684.607 410.133 685.425 412.178 686.243 414.222C687.879 418.72 689.924 424.036 691.968 427.307C691.559 428.534 656.798 430.579 656.798 430.579ZM640.439 404.409C639.621 404.409 638.394 404.818 637.576 405.635C636.758 406.453 635.94 407.68 635.94 408.498C635.94 410.542 638.394 412.996 640.439 414.631C644.12 418.312 653.526 426.49 657.206 428.534L689.924 426.49C687.879 423.218 686.243 418.312 684.607 414.222C683.789 412.178 683.38 410.542 682.562 409.316C682.153 408.498 682.153 407.68 681.744 406.862C680.517 403.182 679.291 400.729 675.61 401.137C674.792 401.137 674.383 401.546 673.974 402.364C672.747 404.409 673.156 408.907 674.383 413.405C676.837 419.947 677.246 424.036 673.156 425.672C669.884 427.307 663.75 423.627 658.842 419.538C655.98 417.494 651.481 412.996 648.618 410.133C647.8 409.316 646.982 408.498 646.573 408.089C644.529 405.635 642.484 404.409 640.439 404.409Z" fill="#343B43"/>
<path d="M650.663 439.575C650.254 439.166 645.347 435.486 640.03 430.988C636.35 427.717 631.851 422.81 630.624 421.174C631.851 419.539 637.167 426.081 641.257 429.761C646.574 434.259 651.481 437.939 651.481 437.939C651.072 439.166 651.072 439.575 650.663 439.575Z" fill="#343B43"/>
<path d="M537.38 257.202C531.246 257.202 525.52 256.793 521.431 255.976C515.296 255.158 512.434 253.522 512.434 251.478C512.434 249.842 513.66 249.024 516.114 247.798C514.069 250.251 514.478 250.66 514.478 251.069C514.478 251.478 515.705 252.704 521.84 253.931C527.156 254.749 534.109 255.158 541.47 255.158C559.055 254.749 568.462 251.478 568.462 249.842C568.462 249.842 568.053 247.798 560.282 246.98C566.826 246.162 570.097 247.798 570.097 249.842C570.097 254.749 551.285 256.793 541.47 257.202C539.834 257.202 538.607 257.202 537.38 257.202Z" fill="#343B43"/>
<path d="M504.253 168.879H380.337C380.337 166.834 504.253 166.834 504.253 166.834C505.071 168.47 504.662 168.879 504.253 168.879Z" fill="#343B43"/>
<path d="M504.254 189.324H474.809C474.809 187.28 504.254 187.28 504.254 187.28C505.072 188.915 504.663 189.324 504.254 189.324Z" fill="#343B43"/>
<path d="M451.906 189.324H359.071C359.071 187.28 451.497 187.28 451.497 187.28C452.724 188.915 452.315 189.324 451.906 189.324Z" fill="#343B43"/>
<path d="M504.254 207.725H359.071C359.071 205.68 504.254 205.68 504.254 205.68C505.072 207.316 504.663 207.725 504.254 207.725Z" fill="#343B43"/>
<path d="M665.795 233.077C664.977 232.259 664.977 228.988 664.977 228.988C664.977 217.13 655.57 207.725 643.71 207.725H555.374C555.374 205.68 643.71 205.68 643.71 205.68C656.388 205.68 666.612 215.903 666.612 228.579V231.85C667.021 232.668 666.612 233.077 665.795 233.077Z" fill="#343B43"/>
<path d="M172.992 263.336C172.174 262.518 172.174 228.988 172.174 228.988C172.174 216.312 182.398 206.089 195.076 206.089H206.527C206.527 208.133 195.076 208.133 195.076 208.133C183.216 208.133 173.81 217.538 173.81 229.397V262.927C174.219 262.927 173.81 263.336 172.992 263.336Z" fill="#343B43"/>
<path d="M172.992 339.802C172.174 338.984 172.174 298.911 172.174 298.911C173.81 298.911 173.81 338.984 173.81 338.984C174.219 339.393 173.81 339.802 172.992 339.802Z" fill="#343B43"/>
<path d="M314.085 500.911H195.076C182.398 500.911 172.174 490.688 172.174 478.012V471.061C173.81 471.061 173.81 478.012 173.81 478.012C173.81 489.87 183.216 499.275 195.076 499.275H314.085C314.903 500.502 314.494 500.911 314.085 500.911Z" fill="#343B43"/>
<path d="M626.944 500.911H584.82C584.82 498.866 627.353 498.866 627.353 498.866C627.762 500.502 627.353 500.911 626.944 500.911Z" fill="#343B43"/>
<path d="M107.558 311.587C106.331 311.587 105.104 311.587 103.877 311.587C120.645 310.361 127.188 305.863 128.006 293.595C128.006 291.551 128.415 287.462 128.415 287.462C131.687 285.008 136.185 282.146 136.594 280.51C134.549 277.648 130.051 273.968 130.051 273.968C129.642 273.15 131.687 249.842 131.687 249.842C133.322 249.842 131.687 272.741 131.687 272.741C132.913 273.559 136.185 276.421 138.23 278.875C138.639 279.284 139.048 280.101 138.639 280.919C138.23 283.782 132.505 287.053 130.46 287.871C130.46 289.097 130.051 291.96 130.051 293.595C129.233 308.316 120.645 311.587 107.558 311.587Z" fill="#343B43"/>
<path d="M295.682 378.239C294.864 377.012 309.586 354.113 309.586 354.113C311.631 351.251 311.631 347.571 309.995 344.708C308.36 341.846 305.497 339.801 301.816 339.801H167.267C161.132 339.801 155.407 343.073 151.726 347.98L139.048 367.607C137.412 366.789 150.09 347.162 150.09 347.162C153.771 341.437 160.314 338.166 166.858 338.166H301.407C305.497 338.166 309.177 340.21 311.222 343.89C313.267 347.571 312.858 351.66 310.813 355.34L296.091 377.83C296.5 378.239 296.091 378.239 295.682 378.239Z" fill="#343B43"/>
<path d="M278.914 387.235C278.096 386.008 301.816 349.616 301.816 349.616H167.267C165.631 349.616 164.404 350.025 162.768 350.842L154.589 361.474C152.953 360.247 161.541 349.616 161.541 349.616C163.586 348.389 165.222 347.98 167.267 347.98H301.816C302.634 347.98 303.043 348.389 303.452 348.798C303.861 349.207 303.861 350.025 303.452 350.842L279.732 387.235C279.732 386.826 279.323 387.235 278.914 387.235Z" fill="#343B43"/>
<path d="M227.385 466.154H208.572C208.572 464.11 227.385 464.11 227.385 464.11C234.337 464.11 240.471 460.838 244.152 455.114L247.424 450.207C249.06 451.025 245.788 456.34 245.788 456.34C241.698 462.474 234.746 466.154 227.385 466.154Z" fill="#343B43"/>
<path d="M170.947 555.295C166.04 509.089 158.27 471.469 158.27 471.061C160.314 471.061 167.676 508.68 171.765 554.069C170.947 555.295 170.947 555.295 170.947 555.295Z" fill="#343B43"/>
<path d="M20.448 555.705C19.2211 540.166 19.6301 522.583 19.6301 505.409C20.039 482.511 20.448 461.247 19.2211 446.118C14.3135 360.247 33.9438 340.62 34.7617 339.802C35.9886 341.438 16.3583 361.474 21.2659 446.118C22.0838 461.247 21.6749 482.919 21.6749 505.409C21.2659 522.583 21.2659 540.166 21.2659 554.478C20.448 555.705 20.448 555.705 20.448 555.705Z" fill="#343B43"/>
<path d="M249.878 397.457C254.377 391.324 258.057 386.826 261.329 382.328C263.374 379.874 265.01 376.603 266.645 373.741C267.463 372.514 267.872 370.878 268.69 369.243C269.508 367.607 269.917 365.972 270.735 364.336C271.962 362.291 273.598 361.065 275.643 360.656C278.097 360.656 280.55 361.474 281.777 363.109C283.004 364.336 283.413 366.38 283.004 368.834C282.595 370.878 282.186 372.923 280.959 375.376C279.323 378.648 277.688 383.146 278.505 385.599C278.914 386.417 279.323 386.826 280.141 387.235C285.867 388.461 290.774 381.919 294.455 376.603C293.637 381.51 287.503 390.506 280.55 389.279C278.505 388.461 277.279 387.644 276.87 386.417C276.052 383.963 276.461 380.283 279.323 374.559C280.55 372.105 280.959 370.47 281.368 368.425C281.368 367.607 281.777 365.563 280.55 364.336C279.732 363.109 278.097 362.291 276.052 362.7C274.416 362.7 273.598 363.518 272.371 365.154C271.553 366.789 270.735 368.016 270.326 370.061C269.917 371.696 269.099 373.332 268.281 374.559C266.646 377.83 264.601 380.692 262.556 383.146C259.284 387.644 255.194 392.142 250.287 396.64C250.287 397.457 250.287 397.457 249.878 397.457Z" fill="#343B43"/>
<path d="M283.822 404.409C283.413 402.774 298.544 393.369 303.452 382.328C309.177 369.652 303.452 366.381 303.452 366.381C304.679 364.745 311.631 368.834 305.088 383.146C300.18 394.595 285.048 404 284.231 404C284.231 404.409 284.231 404.409 283.822 404.409Z" fill="#343B43"/>
<path d="M287.502 410.951C302.225 399.502 306.314 392.141 306.723 387.643C307.132 383.554 305.496 381.51 305.496 381.101C307.132 379.874 309.586 382.737 308.768 387.643C307.95 395.004 300.589 402.773 287.911 410.951C287.502 410.951 287.502 410.951 287.502 410.951Z" fill="#343B43"/>
<path d="M271.144 432.215C270.735 430.579 273.597 428.535 289.547 417.494C301.407 409.316 303.861 404 303.861 401.138C303.861 399.093 302.634 398.275 302.634 398.275C303.861 397.049 305.497 398.275 305.497 401.138C305.497 406.045 300.18 412.178 290.365 419.13C274.415 430.17 271.553 432.215 271.553 432.215H271.144Z" fill="#343B43"/>
<path d="M122.281 271.923C123.099 271.923 123.508 271.514 123.508 271.105L123.916 267.834C122.281 266.607 121.463 267.016 121.463 267.834L121.054 271.105C121.463 271.514 121.872 271.923 122.281 271.923Z" fill="#343B43"/>
<path d="M127.188 299.729C126.37 299.729 125.961 299.729 124.734 299.32C122.28 298.502 120.235 296.457 119.418 294.004C118.6 292.368 119.009 290.733 119.418 289.506C119.827 288.688 120.644 288.279 121.462 288.279C122.28 288.279 123.098 288.279 123.916 288.688C124.734 289.097 125.143 289.915 125.552 290.733C126.779 292.368 127.597 292.368 128.824 291.959C128.824 294.004 127.188 294.822 125.552 293.595C124.734 293.186 124.325 292.368 123.916 291.551C123.507 291.142 123.098 290.324 122.689 290.324C120.644 291.142 120.235 291.959 121.053 293.595C121.871 295.64 123.507 297.275 125.143 297.684C125.961 298.093 126.779 298.093 127.597 298.093C127.597 299.729 127.188 299.729 127.188 299.729Z" fill="#343B43"/>
<path d="M58.0727 345.935C48.2576 345.935 38.8514 343.482 29.8541 338.984C14.7224 330.805 11.0418 320.583 11.0418 312.814C10.6328 299.729 19.63 287.461 28.2183 282.554C38.0334 276.83 38.8514 269.878 40.0783 260.065C40.4872 255.976 41.3052 251.886 42.5321 246.98C47.0307 231.032 51.1203 226.534 58.4817 221.218C65.8431 215.903 79.3389 218.356 86.2913 221.218C90.7899 223.263 99.3782 223.263 105.922 223.263C108.784 223.263 111.647 223.263 114.101 223.263C121.053 223.672 135.776 227.761 135.367 237.984C134.958 247.797 130.868 258.838 123.507 260.473C110.42 263.336 104.286 268.243 104.286 268.243C103.468 266.607 109.602 261.291 123.098 258.429C129.233 257.202 133.322 246.98 133.322 237.575C133.731 228.988 120.235 225.307 114.101 224.899C112.056 224.899 109.193 224.899 106.331 224.899C98.9692 224.899 90.7899 224.899 85.8823 222.854C79.3389 219.992 66.661 217.947 59.7086 222.854C52.3472 228.17 48.6665 232.259 44.1679 247.797C42.941 252.295 42.1231 256.384 41.7141 260.473C40.4872 270.287 39.2603 278.056 28.6273 284.19C20.448 289.097 12.2687 300.546 12.6776 312.814C13.0866 322.627 19.2211 331.214 30.6721 337.348C52.7562 348.797 72.7955 342.664 80.5658 339.392C90.7899 335.303 98.5602 328.352 100.605 322.218C105.104 307.907 101.832 291.959 95.6975 287.052C104.286 291.959 106.74 309.133 102.241 323.036C100.196 329.579 92.0168 336.939 80.9748 341.437C74.0224 344.708 66.252 345.935 58.0727 345.935Z" fill="#343B43"/>
<path d="M104.287 334.077C103.469 332.85 106.74 310.36 106.74 310.36C108.376 310.769 105.104 333.259 105.104 333.259C105.104 333.668 104.696 334.077 104.287 334.077Z" fill="#343B43"/>
<path d="M128.415 278.874C126.37 278.874 125.144 277.239 125.144 275.603L126.37 262.109C126.37 260.473 128.006 259.247 129.642 259.247C131.278 259.247 132.505 260.882 132.505 262.518L131.278 276.012C131.278 277.647 129.642 278.874 128.415 278.874ZM128.006 278.056C128.824 277.238 129.233 276.83 129.233 276.012L130.46 262.518C130.46 261.7 130.051 261.291 129.233 261.291C128.415 261.291 128.006 261.7 128.006 262.518L126.779 276.012C126.779 276.83 127.188 277.239 128.006 277.239V278.056Z" fill="#343B43"/>
<path d="M126.779 269.879L104.695 268.243C104.695 266.607 126.779 267.834 126.779 267.834C127.597 269.47 127.188 269.879 126.779 269.879Z" fill="#343B43"/>
<path d="M253.149 369.651H191.805C191.805 367.607 253.149 367.607 253.149 367.607C253.967 369.243 253.558 369.651 253.149 369.651Z" fill="#343B43"/>
<path d="M260.102 358.611H198.757C198.757 356.567 260.102 356.567 260.102 356.567C260.919 358.202 260.511 358.611 260.102 358.611Z" fill="#343B43"/>
<path d="M237.2 392.96H177.082C177.082 390.915 237.2 390.915 237.2 390.915C238.018 392.551 237.609 392.96 237.2 392.96Z" fill="#343B43"/>
<path d="M217.978 404.409H181.58C181.58 402.364 217.978 402.364 217.978 402.364C218.796 404 218.387 404.409 217.978 404.409Z" fill="#343B43"/>
<path d="M90.7897 201.591C89.9718 200.773 88.7449 196.684 88.3359 190.142C90.7897 196.275 91.6077 200.364 91.6077 200.364C90.7897 201.591 90.7897 201.591 90.7897 201.591ZM89.1539 180.328C88.3359 175.83 88.3359 172.15 88.7449 168.878C90.3808 172.559 89.9718 176.239 89.9718 179.51C89.9718 179.919 89.5628 180.328 89.1539 180.328ZM91.1987 159.474C90.7897 154.976 91.6077 151.295 92.8346 148.024C93.6525 151.704 92.8346 155.384 92.4256 158.656C92.0166 159.065 91.6077 159.474 91.1987 159.474ZM96.9242 139.028C97.3332 134.53 98.5601 131.259 100.196 127.988C100.196 132.077 98.969 135.348 97.7421 138.619C97.7421 138.619 97.3332 139.028 96.9242 139.028ZM105.921 119.81C106.739 115.312 108.784 112.449 110.829 109.587C110.42 113.676 108.375 116.538 106.739 119.401C106.33 119.81 106.33 119.81 105.921 119.81ZM117.781 102.636C119.417 98.5464 121.462 95.6841 123.916 93.2306C122.689 96.9108 120.644 99.7732 118.19 102.227C118.599 102.227 118.19 102.636 117.781 102.636ZM132.504 87.097C134.549 83.008 137.003 80.9634 139.866 78.51C138.23 82.1902 135.367 84.6436 132.913 86.6881C132.913 87.097 132.913 87.097 132.504 87.097ZM148.863 74.012C151.317 70.3319 154.179 68.2873 157.042 66.2428C154.997 69.514 152.134 71.5586 149.272 73.6031C149.272 74.012 149.272 74.012 148.863 74.012ZM166.857 62.5626C169.72 59.2914 172.583 57.2468 175.854 56.0201C173.401 59.2914 170.538 60.927 167.266 62.5626H166.857ZM186.079 53.5667C188.941 50.2954 192.213 49.0687 195.894 48.2509C193.031 51.1132 189.35 51.931 186.079 53.5667ZM278.914 52.34C275.642 51.1132 271.961 49.8865 268.689 48.6598C272.779 47.842 276.051 49.0687 279.323 50.7043C279.323 51.931 279.323 52.34 278.914 52.34ZM206.118 47.0242C209.39 44.5707 213.07 43.7529 216.342 43.344C213.07 45.3885 209.799 46.2064 206.118 47.0242ZM258.465 45.7974C254.785 44.9796 251.513 44.5707 247.832 44.1618C251.513 42.5262 255.194 43.344 258.465 44.1618C259.283 45.7974 258.874 45.7974 258.465 45.7974ZM226.975 43.7529C230.247 41.7084 233.927 41.7084 237.608 41.7084C234.336 43.344 230.656 43.7529 226.975 43.7529Z" fill="#343B43"/>
<path d="M161.95 410.543C160.314 410.543 158.27 410.543 157.043 410.543C160.723 408.907 166.04 408.907 169.721 408.498C172.992 408.498 176.673 408.089 179.127 406.045C179.945 405.227 180.763 404.409 180.763 403.182C180.763 401.956 179.945 400.729 178.718 399.502C177.491 398.684 176.264 398.275 174.219 398.275C173.81 398.275 172.583 398.275 171.765 398.684C168.903 399.093 165.222 399.502 163.177 397.049C160.314 393.368 162.359 388.462 169.312 383.146C172.174 380.692 174.628 379.057 176.673 377.012C182.399 372.105 186.897 368.016 190.578 363.927C191.805 362.292 193.032 361.065 193.441 359.838C193.441 359.02 193.441 358.202 193.032 357.385C192.623 356.158 191.396 355.34 190.169 355.34C188.533 354.931 186.079 355.749 184.443 356.976C180.763 359.838 168.494 371.288 168.494 371.288C166.858 370.879 166.449 367.607 163.995 365.972C162.768 365.154 161.132 365.154 159.088 365.563C157.861 365.154 156.634 362.7 153.771 361.474C151.726 361.065 149.681 361.474 147.228 362.7C149.272 359.429 151.726 359.02 154.18 359.838C156.634 360.656 158.27 362.7 159.088 363.518C161.132 363.109 163.177 363.518 164.813 364.336C166.449 365.563 167.676 367.198 168.085 368.834C171.356 365.972 179.945 357.794 183.216 355.34C185.67 353.705 188.124 352.887 190.578 353.296C192.214 353.705 193.85 354.931 194.667 356.567C195.076 357.794 195.485 359.02 195.076 360.247C194.667 361.883 193.441 363.518 192.214 364.745C188.124 369.652 183.625 373.741 177.9 378.648C175.855 380.692 173.401 382.328 170.13 384.781C163.995 389.279 161.95 393.368 164.404 396.231C165.631 397.866 168.903 397.458 171.356 397.049C172.583 397.049 173.401 396.64 174.219 396.64C176.264 397.049 178.309 397.458 179.536 398.275C181.172 399.502 182.399 401.547 182.399 403.591C182.399 405.227 181.581 406.453 180.354 407.68C177.491 409.725 173.401 410.134 170.13 410.543C167.267 410.543 164.404 410.543 161.95 410.543Z" fill="#343B43"/>
<path d="M149.272 374.559C153.362 365.563 158.27 363.518 158.679 363.518C159.497 365.154 154.589 367.198 150.09 374.15C149.681 374.559 149.681 374.559 149.272 374.559Z" fill="#343B43"/>
<path d="M159.087 379.465C164.812 371.287 166.857 369.652 166.857 369.652C167.675 371.287 165.63 372.514 159.496 379.056C159.496 379.465 159.496 379.465 159.087 379.465Z" fill="#343B43"/>
<path d="M131.687 375.377C137.003 364.745 147.227 360.656 147.636 360.247C148.045 361.883 138.639 365.972 132.504 374.968C132.095 375.377 132.095 375.377 131.687 375.377Z" fill="#343B43"/>
<path d="M597.089 162.336H512.433C498.938 162.336 487.896 151.295 487.896 137.801V97.7285C487.896 84.2346 498.938 73.1941 512.433 73.1941H597.089C610.585 73.1941 621.627 84.2346 621.627 97.7285V137.801C621.627 151.295 610.585 162.336 597.089 162.336ZM512.433 75.2386C499.755 75.2386 489.94 85.4613 489.94 97.7285V137.801C489.94 150.477 500.164 160.291 512.433 160.291H597.089C609.767 160.291 619.582 150.069 619.582 137.801V97.7285C619.582 85.0524 609.358 75.2386 597.089 75.2386H512.433Z" fill="#343B43"/>
<path d="M543.515 141.891C542.697 141.891 541.879 141.891 541.061 141.482C539.425 140.664 538.607 138.619 538.607 136.166V100.182C538.607 97.7287 539.425 95.6842 541.061 94.8664C542.697 94.0485 544.742 94.0485 547.196 95.2753L577.868 113.267C579.913 114.494 581.14 116.538 581.14 118.174C581.14 120.219 579.913 121.854 577.868 123.081L547.196 141.073C545.969 141.482 544.742 141.891 543.515 141.891ZM543.515 95.6842C541.061 96.502 540.243 98.1376 540.243 99.7732V135.757C540.243 137.802 540.652 139.028 541.879 139.437C543.106 140.255 544.333 139.846 545.969 139.028L576.641 121.036C578.277 120.219 579.095 118.992 579.095 117.765C579.095 116.538 578.277 115.312 576.641 114.494L545.969 96.502C545.151 96.0931 544.333 95.6842 543.515 95.6842Z" fill="#343B43"/>
<path d="M400.785 401.956H390.152C389.334 401.138 389.334 390.507 389.334 390.507C374.612 388.462 365.614 380.693 362.343 366.79C363.161 365.563 379.519 361.883 379.519 361.883C381.155 364.336 381.564 364.745 381.973 365.563C383.2 369.243 385.654 372.106 389.334 373.741C393.015 375.377 397.514 375.786 401.603 374.15C404.875 372.924 406.92 370.47 407.329 366.79C407.738 363.519 406.102 361.474 403.239 359.838C399.968 358.612 396.696 357.385 393.424 356.158C392.197 355.749 390.561 355.34 389.334 354.523C388.517 354.114 387.699 354.114 386.881 353.705C385.245 353.296 383.609 352.478 381.973 352.069C369.704 346.753 364.388 338.166 366.023 325.899C367.659 314.041 375.021 306.681 388.108 304.227C389.334 303.818 389.334 295.64 389.334 295.64C390.152 294.822 400.785 294.822 400.785 294.822C401.603 295.64 402.012 303.818 402.012 303.818C403.239 304.227 405.693 304.636 409.783 305.863C417.962 308.725 423.279 314.45 426.141 323.446C425.732 324.672 411.01 329.988 411.01 329.988C409.374 328.762 408.965 327.944 408.147 327.126C406.92 325.49 406.102 323.446 404.466 322.219C400.785 318.13 396.287 318.539 393.015 318.948C389.743 319.766 387.699 321.81 386.881 325.081C386.063 328.762 387.699 331.215 390.561 332.442C393.424 333.668 395.878 334.486 398.741 335.713C399.968 336.122 401.194 336.531 402.012 336.94C403.239 337.349 404.057 337.757 405.284 338.166C407.329 338.984 409.783 339.802 411.828 340.62C424.505 346.345 429.413 354.932 427.777 368.017C426.141 378.648 417.553 386.826 404.875 389.28C404.057 389.28 403.239 389.689 402.012 389.689C401.194 389.689 401.194 400.729 401.194 400.729C402.012 401.547 401.603 401.956 400.785 401.956ZM391.379 400.32H399.968V389.689C403.239 388.053 404.057 388.053 404.875 388.053C416.735 386.009 424.914 378.648 426.141 368.426C427.777 356.158 423.279 348.389 411.419 343.073C409.374 342.255 407.329 341.438 404.875 340.62C403.648 340.211 402.421 339.802 401.603 339.393C400.377 338.984 399.15 338.575 398.332 338.166C395.469 336.94 392.606 336.122 390.152 334.895C386.063 333.26 384.427 329.988 385.245 325.49C386.063 321.401 388.517 318.948 392.606 317.721C397.923 316.494 402.421 317.721 405.693 321.401C406.92 323.037 408.147 324.672 409.374 326.717C409.783 327.535 410.192 327.944 410.601 328.762L423.688 323.855C420.825 315.677 415.917 310.77 408.556 308.316C402.83 306.272 400.377 305.863 400.377 305.863C399.559 305.045 399.15 297.276 399.15 297.276H390.561V305.045C375.839 308.725 368.886 315.677 367.25 326.308C366.023 337.349 370.931 345.527 382.382 350.434C384.018 351.251 385.654 351.66 386.881 352.069C387.699 352.478 388.517 352.478 389.334 352.887C390.561 353.296 391.788 353.705 393.424 354.523C396.696 355.749 399.968 356.976 403.239 358.203C406.92 359.838 408.965 362.701 408.556 366.79C408.147 371.288 406.102 374.15 402.012 375.786C397.514 377.422 392.606 377.422 388.517 375.377C384.427 373.741 381.564 370.47 380.337 366.381C379.928 365.563 379.928 365.154 379.519 364.336C379.519 363.928 364.797 367.608 364.797 367.608C368.068 380.693 376.657 387.644 390.561 389.28C391.379 389.689 391.379 400.32 391.379 400.32Z" fill="#343B43"/>
<path d="M395.469 412.996C359.889 412.996 331.262 383.963 331.262 348.388C331.262 312.813 359.889 283.781 395.469 283.781C431.049 283.781 460.086 312.813 460.086 348.388C460.086 383.963 431.458 412.996 395.469 412.996ZM395.469 285.417C360.707 285.417 332.898 313.631 332.898 347.979C332.898 382.737 361.116 410.542 395.469 410.542C430.231 410.542 458.041 382.328 458.041 347.979C458.45 313.631 430.231 285.417 395.469 285.417Z" fill="#343B43"/>
<path d="M437.183 440.802C431.458 440.802 426.959 436.304 426.959 430.579C426.959 424.854 431.458 420.356 437.183 420.356C442.909 420.356 447.407 424.854 447.407 430.579C447.407 435.895 442.5 440.802 437.183 440.802ZM437.183 421.992C432.684 421.992 429.004 425.672 429.004 430.17C429.004 434.668 432.684 438.348 437.183 438.348C441.682 438.348 445.362 434.668 445.362 430.17C445.362 425.672 441.682 421.992 437.183 421.992Z" fill="#343B43"/>
<path d="M382.791 60.9272C382.791 59.2916 408.556 53.158 408.556 53.158C408.965 55.2025 382.791 60.9272 382.791 60.9272Z" fill="#343B43"/>
<path d="M424.915 79.7369L383.609 71.9676C384.018 70.332 425.324 77.6923 425.324 77.6923C425.733 79.328 425.324 79.7369 424.915 79.7369Z" fill="#343B43"/>
<path d="M399.968 95.275C399.559 95.275 379.52 81.7811 379.52 81.7811C380.337 80.1455 400.377 93.6394 400.377 93.6394C400.786 95.275 400.377 95.275 399.968 95.275Z" fill="#343B43"/>
<path d="M794.21 346.344C793.801 344.3 794.619 343.482 795.028 343.073C795.846 344.709 795.437 345.527 795.028 346.344C794.619 345.936 794.619 346.344 794.21 346.344ZM801.98 335.713C803.207 331.215 805.252 328.353 806.888 325.49C806.479 329.579 804.843 332.442 802.798 335.304C802.389 335.304 801.98 335.713 801.98 335.713ZM813.022 317.721C813.84 313.223 815.476 309.952 817.112 307.089C817.112 311.178 815.476 314.041 813.84 317.312C813.431 317.312 813.022 317.721 813.022 317.721ZM821.61 298.502C822.019 294.004 823.246 290.733 824.473 287.462C825.291 291.142 824.064 294.822 822.837 298.093C822.428 298.093 822.019 298.502 821.61 298.502ZM828.154 278.057C828.154 273.559 828.563 269.879 829.381 266.608C830.608 270.288 830.199 273.968 829.381 277.239C828.972 278.057 828.563 278.057 828.154 278.057ZM831.017 257.203C830.199 254.34 830.199 252.705 830.199 251.069C830.199 249.434 830.199 247.389 830.199 245.753C832.244 247.389 832.244 249.434 832.244 251.069C832.244 252.705 832.244 254.749 832.244 256.385C831.835 256.794 831.426 257.203 831.017 257.203ZM829.79 236.348C828.154 232.259 827.336 228.988 826.518 225.308C829.381 228.17 830.199 231.851 830.608 235.122C830.199 236.348 830.199 236.348 829.79 236.348ZM824.064 215.903C822.019 212.223 820.384 208.952 818.748 205.68C822.019 208.134 823.655 211.405 824.882 214.676C824.473 215.903 824.064 215.903 824.064 215.903ZM814.658 197.093C812.204 193.822 810.159 190.96 808.115 187.689C811.795 189.733 813.84 192.595 815.476 195.458C815.067 197.093 814.658 197.093 814.658 197.093ZM700.148 179.919C700.557 178.284 701.784 177.875 703.011 177.875C705.055 177.466 707.1 177.057 709.145 175.83C707.509 178.693 705.464 179.102 703.011 179.51C702.193 179.919 700.966 179.919 700.148 179.919ZM802.389 179.919C799.526 177.057 797.073 174.195 794.619 171.741C798.299 172.968 800.753 175.83 803.207 178.284C802.798 179.51 802.389 179.919 802.389 179.919ZM689.106 176.648C687.061 175.421 685.834 174.195 685.016 172.559C683.789 170.923 683.38 169.288 682.971 167.243C685.016 168.47 685.834 170.106 686.652 171.741C687.47 172.968 688.697 174.195 689.924 175.012C689.924 176.648 689.515 176.648 689.106 176.648ZM718.142 172.15C718.142 170.106 718.551 169.697 718.96 169.288C721.005 167.243 723.05 165.608 724.686 163.154C724.277 166.425 722.232 168.47 720.187 170.514C719.778 170.923 718.96 171.332 718.551 172.15C718.551 172.15 718.551 172.15 718.142 172.15ZM787.666 164.381C784.395 161.927 781.532 159.474 779.078 157.429C782.759 157.838 785.622 160.292 788.484 162.745C788.075 164.381 787.666 164.381 787.666 164.381ZM684.607 157.838C684.198 155.385 685.016 153.749 685.834 152.931C687.061 151.296 688.697 149.66 690.333 148.025C689.924 150.887 688.697 152.523 687.47 154.158C686.652 155.385 686.243 156.203 685.425 157.429C685.425 157.429 685.016 157.838 684.607 157.838ZM731.638 155.794C732.456 151.296 734.092 148.025 735.319 144.753C735.728 148.842 734.501 152.114 732.456 154.976C732.047 155.794 732.047 155.794 731.638 155.794ZM770.49 152.114C766.809 150.069 763.946 148.434 760.675 146.798C764.764 146.798 767.627 148.434 770.899 150.478C771.308 151.705 770.899 152.114 770.49 152.114ZM700.148 143.527C700.557 141.482 701.784 141.073 702.602 140.664C705.055 139.846 707.509 139.029 709.963 138.211C707.918 140.664 705.873 141.482 703.42 142.3C702.193 142.709 701.375 143.118 700.148 143.527ZM751.677 142.709C747.997 141.482 744.725 140.664 741.453 139.846C745.134 138.62 748.815 139.846 752.086 141.073C752.495 142.3 752.086 142.709 751.677 142.709ZM720.187 138.62C722.232 136.575 724.277 136.575 725.913 136.575C727.549 136.575 729.184 136.575 730.82 136.575C729.184 138.211 727.549 138.211 725.913 138.211C724.277 138.211 722.232 138.211 720.187 138.62C720.596 138.62 720.596 138.62 720.187 138.62ZM738.591 136.166C738.182 131.668 739 127.988 739 124.717C740.635 128.397 740.226 132.077 739.409 135.348C739.409 135.757 739.409 136.166 738.591 136.166ZM739.817 114.903C738.591 110.405 738.182 107.134 737.364 103.863C739.817 106.725 740.635 110.405 740.635 114.085C740.226 114.903 739.817 114.903 739.817 114.903ZM735.319 94.4578C733.274 90.3687 731.638 87.5064 730.002 84.2351C733.274 86.2797 734.91 89.5509 736.137 93.2311C735.728 94.4578 735.728 94.4578 735.319 94.4578ZM725.504 76.057C722.641 72.7857 720.596 70.3323 718.142 67.8788C721.823 69.1056 724.277 71.9679 726.322 74.8303C725.504 75.6481 725.504 76.057 725.504 76.057ZM710.781 60.5185C707.509 58.0651 704.646 56.0205 701.784 53.976C705.873 54.3849 708.736 56.4294 711.599 58.8829C711.19 60.5185 711.19 60.5185 710.781 60.5185ZM561.509 59.7007C563.963 56.4294 567.234 54.7938 570.506 53.1582C568.052 56.4294 564.78 58.0651 561.918 59.7007C561.509 59.7007 561.509 59.7007 561.509 59.7007ZM580.321 50.2958C583.184 47.0246 586.456 45.7979 589.727 44.5711C587.274 47.4335 584.002 49.0691 580.321 50.2958C580.73 50.2958 580.321 50.2958 580.321 50.2958ZM693.195 49.0691C689.515 47.4335 686.652 45.7979 683.38 44.5711C687.47 44.1622 690.742 45.7979 693.604 47.4335C693.604 48.6602 693.195 49.0691 693.195 49.0691ZM600.36 43.3444C603.632 40.4821 606.904 39.6643 610.585 38.8464C607.313 41.2999 604.041 42.1177 600.36 43.3444ZM673.565 41.2999C669.884 40.4821 666.613 39.6643 662.932 38.8464C666.613 37.6197 670.293 38.4375 673.565 39.6643C673.974 40.891 673.974 41.2999 673.565 41.2999ZM620.809 38.4375C624.08 35.9841 627.761 35.5752 631.442 35.5752C628.17 37.6197 624.489 38.0286 620.809 38.4375C621.218 38.4375 620.809 38.4375 620.809 38.4375ZM652.708 37.2108C648.618 36.8019 645.347 36.8019 642.075 36.8019C645.347 35.1663 649.027 35.1663 652.299 35.5752C653.526 37.2108 653.117 37.2108 652.708 37.2108Z" fill="#343B43"/>
<path d="M564.372 420.357H522.249C521.431 419.539 521.431 377.421 521.431 377.421C522.249 376.604 564.372 376.604 564.372 376.604C565.19 377.421 565.19 419.539 565.19 419.539C565.19 419.948 564.781 420.357 564.372 420.357ZM523.475 418.312H563.554V378.239H523.475V418.312Z" fill="#343B43"/>
<path d="M596.271 420.356H590.545C589.728 419.539 589.728 395.822 589.728 395.822C591.772 395.822 591.772 418.721 591.772 418.721H596.68C597.089 419.948 596.68 420.356 596.271 420.356Z" fill="#343B43"/>
<path d="M275.233 458.385C274.415 457.567 274.415 428.535 274.415 428.535C276.051 428.535 276.051 457.567 276.051 457.567C276.051 457.976 275.642 458.385 275.233 458.385Z" fill="#343B43"/>
<path d="M275.234 339.392C274.007 338.575 274.007 285.008 274.007 285.008C275.643 285.008 275.643 338.575 275.643 338.575C276.052 338.984 275.643 339.392 275.234 339.392Z" fill="#343B43"/>
<path d="M244.561 291.141C246.196 285.417 246.605 280.101 244.152 274.785C241.698 269.06 237.199 263.745 231.065 259.656C221.25 253.113 208.981 252.295 202.028 256.793C208.572 249.842 221.25 251.068 231.883 258.02C238.426 262.109 243.334 267.834 245.788 273.967C248.241 280.101 248.241 286.234 245.379 290.732C244.97 291.141 244.97 291.141 244.561 291.141Z" fill="#343B43"/>
<path d="M168.084 471.879C157.451 471.879 147.227 470.652 137.821 467.79C101.014 457.158 76.4763 428.126 59.2998 404C77.7032 426.899 102.241 455.931 138.23 466.154C175.855 476.786 225.34 465.336 271.144 435.486C237.608 460.02 200.393 471.879 168.084 471.879Z" fill="#343B43"/>
<path d="M538.607 248.207C536.971 241.255 535.335 239.211 535.335 239.211C536.971 237.984 539.016 240.438 539.834 246.98C538.607 248.207 538.607 248.207 538.607 248.207Z" fill="#343B43"/>
<path d="M620.808 263.336H599.133C598.315 262.518 598.315 240.846 598.315 240.846C599.133 240.028 620.808 240.028 620.808 240.028C621.626 240.846 621.626 262.518 621.626 262.518C621.626 262.927 621.217 263.336 620.808 263.336ZM599.951 261.7H619.991V241.664H599.951V261.7Z" fill="#343B43"/>
<path d="M628.17 290.323H619.582C618.764 289.506 618.764 280.51 618.764 280.51C619.582 279.692 628.17 279.692 628.17 279.692C628.988 280.51 628.988 289.506 628.988 289.506C629.397 289.915 628.988 290.323 628.17 290.323ZM620.4 288.279H627.352V281.328H620.4V288.279Z" fill="#343B43"/>
<path d="M125.553 542.211C116.964 542.211 110.421 539.348 105.104 533.623C92.0175 518.903 95.6982 490.279 96.1072 489.461C96.9251 488.644 149.273 488.644 149.273 488.644C150.499 490.688 157.043 519.312 145.183 534.032C140.275 539.757 133.732 542.211 125.553 542.211ZM97.743 490.279C97.3341 495.186 95.2892 519.721 106.74 532.397C111.239 537.712 117.782 540.575 125.553 540.575C133.323 540.575 139.457 538.121 143.547 532.806C153.771 520.129 149.273 495.186 148.455 490.688H97.743V490.279Z" fill="#343B43"/>
<path d="M758.63 525.854C751.678 511.542 756.994 495.186 770.49 485.781C781.123 478.421 792.983 476.785 803.616 481.692C792.983 478.83 781.532 480.056 771.717 487.417C759.039 496.413 753.723 511.951 759.448 524.627C759.039 525.854 759.039 525.854 758.63 525.854Z" fill="#343B43"/>
<defs>
<linearGradient id="paint0_linear_156_1158" x1="140.684" y1="378.502" x2="179.349" y2="291.594" gradientUnits="userSpaceOnUse">
<stop stop-color="#234DAE"/>
<stop offset="1" stop-color="#347BCE"/>
</linearGradient>
<linearGradient id="paint1_linear_156_1158" x1="293.77" y1="562.638" x2="373.211" y2="391.003" gradientUnits="userSpaceOnUse">
<stop stop-color="#234DAE"/>
<stop offset="1" stop-color="#347BCE"/>
</linearGradient>
<linearGradient id="paint2_linear_156_1158" x1="633.078" y1="329.317" x2="757.845" y2="241.447" gradientUnits="userSpaceOnUse">
<stop stop-color="#234DAE"/>
<stop offset="1" stop-color="#347BCE"/>
</linearGradient>
<linearGradient id="paint3_linear_156_1158" x1="199.528" y1="253.255" x2="345.531" y2="184.134" gradientUnits="userSpaceOnUse">
<stop stop-color="#234DAE"/>
<stop offset="1" stop-color="#347BCE"/>
</linearGradient>
<linearGradient id="paint4_linear_156_1158" x1="363.161" y1="131.05" x2="386.803" y2="94.0602" gradientUnits="userSpaceOnUse">
<stop stop-color="#234DAE"/>
<stop offset="1" stop-color="#347BCE"/>
</linearGradient>
<linearGradient id="paint5_linear_156_1158" x1="210.208" y1="461.851" x2="224.357" y2="438.903" gradientUnits="userSpaceOnUse">
<stop stop-color="#234DAE"/>
<stop offset="1" stop-color="#347BCE"/>
</linearGradient>
<linearGradient id="paint6_linear_156_1158" x1="373.385" y1="379.416" x2="449.057" y2="349.479" gradientUnits="userSpaceOnUse">
<stop stop-color="#234DAE"/>
<stop offset="1" stop-color="#347BCE"/>
</linearGradient>
<linearGradient id="paint7_linear_156_1158" x1="548.138" y1="379.383" x2="507.847" y2="405.72" gradientUnits="userSpaceOnUse">
<stop stop-color="#234DAE"/>
<stop offset="1" stop-color="#347BCE"/>
</linearGradient>
<linearGradient id="paint8_linear_156_1158" x1="608.131" y1="264.207" x2="628.863" y2="250.654" gradientUnits="userSpaceOnUse">
<stop stop-color="#234DAE"/>
<stop offset="1" stop-color="#347BCE"/>
</linearGradient>
<linearGradient id="paint9_linear_156_1158" x1="756.786" y1="516.432" x2="801.263" y2="486.478" gradientUnits="userSpaceOnUse">
<stop stop-color="#234DAE"/>
<stop offset="1" stop-color="#347BCE"/>
</linearGradient>
</defs>
</svg>
