<svg width="919" height="709" viewBox="0 0 919 709" fill="none" xmlns="http://www.w3.org/2000/svg">
<path d="M181.106 330.822C178.076 329.814 176.73 326.792 177.74 324.441C178.75 321.754 181.443 320.41 184.136 321.418L181.106 330.822Z" fill="url(#paint0_linear_509_1287)"/>
<path d="M161.244 322.761C160.571 322.761 159.898 322.761 159.224 322.426C156.531 321.082 155.185 318.395 156.195 315.708C157.204 313.021 160.234 312.014 162.927 313.021C165.957 314.365 166.967 317.388 165.957 319.739C164.947 321.418 163.264 322.761 161.244 322.761ZM140.373 312.686C139.7 312.686 138.69 312.35 138.017 312.014C135.324 310.67 134.314 307.648 135.66 304.961C137.007 302.61 140.036 301.602 142.393 302.946C145.086 304.289 146.096 307.312 144.749 309.999C144.076 311.678 142.393 312.686 140.373 312.686ZM120.175 301.602C119.165 301.602 118.492 301.266 117.482 300.93C114.789 299.251 114.116 296.228 115.462 293.877C116.809 291.526 120.175 290.855 122.532 292.198C125.225 293.877 125.898 296.9 124.551 299.251C123.541 300.595 121.858 301.602 120.175 301.602ZM100.987 288.84C99.9774 288.84 98.9675 288.504 97.9576 287.832C95.2646 286.153 94.9279 282.794 96.6111 280.443C98.2942 278.092 101.324 277.756 103.68 279.1C106.037 280.779 106.71 284.137 105.027 286.153C104.017 288.168 102.334 288.84 100.987 288.84ZM82.4726 274.733C81.4627 274.733 80.1162 274.398 79.1063 273.726C76.7499 271.711 76.4133 268.352 78.0964 266.337C79.7796 264.322 83.1459 263.986 85.1656 265.665C87.5221 267.68 87.8587 270.703 86.1755 273.054C85.5023 274.062 83.8191 274.733 82.4726 274.733ZM65.6411 259.284C64.2946 259.284 62.9481 258.612 61.9382 257.605C59.9184 255.254 59.9184 252.231 61.9382 250.216C63.958 248.2 66.9876 248.2 69.0074 250.216C71.0272 252.567 71.0272 255.589 69.0074 257.605C67.9975 258.612 66.651 259.284 65.6411 259.284ZM50.1561 241.819C48.8096 241.819 47.1265 241.147 46.1166 239.804C44.0968 237.117 44.77 234.094 46.7898 232.415C49.1462 230.736 52.1759 231.072 53.8591 233.423C55.8788 235.774 55.2056 239.132 53.1858 240.812C52.5125 241.483 51.5026 241.819 50.1561 241.819ZM37.3642 222.675C35.681 222.675 33.9979 221.668 32.988 219.988C31.3048 217.301 32.3147 214.279 34.6712 212.935C37.0276 211.592 40.3939 212.599 41.7404 214.95C43.4235 217.637 42.4136 220.66 40.0572 222.339C39.0473 222.675 38.3741 222.675 37.3642 222.675ZM27.6019 201.852C25.5821 201.852 23.5624 200.508 22.8891 198.493C21.8792 195.47 23.2257 192.448 25.9188 191.776C28.6118 190.768 31.3049 192.112 32.3147 194.799C33.3246 197.486 31.9781 200.508 29.6217 201.516C28.9484 201.852 28.2752 201.852 27.6019 201.852ZM21.5426 179.685C19.1862 179.685 17.1664 178.006 16.4931 175.655C15.8199 172.632 17.8396 169.945 20.5327 169.273C23.2257 168.602 25.9188 170.617 26.592 173.304C27.2653 176.326 25.2455 179.013 22.5525 179.685C22.2158 179.685 21.8792 179.685 21.5426 179.685ZM19.1862 156.847C16.4931 156.847 14.1367 154.496 14.1367 151.809C14.1367 148.786 16.4931 146.435 19.1862 146.435C21.8792 146.435 24.2356 148.786 24.2356 151.473C24.2356 154.496 22.2158 156.847 19.1862 156.847ZM353.796 151.809C351.44 151.809 349.42 150.129 348.747 148.114C348.074 145.092 349.42 142.405 352.113 141.733C354.806 141.061 357.499 142.741 358.173 145.427C358.846 148.45 357.163 151.137 354.47 151.809C354.47 151.809 354.133 151.809 353.796 151.809ZM20.8693 134.008C17.503 133.672 15.4832 130.985 15.8199 128.299C16.4931 125.276 18.8495 123.261 21.5426 123.597C24.2356 123.932 26.2554 126.619 25.5821 129.306C25.5821 132.329 23.5624 134.008 20.8693 134.008ZM346.391 129.978C344.371 129.978 342.351 128.634 341.678 126.955C340.668 123.932 341.678 121.245 344.371 119.902C347.064 118.894 350.093 120.238 351.103 122.589C352.113 125.612 351.103 128.299 348.41 129.642C347.737 129.978 347.064 129.978 346.391 129.978ZM25.9188 111.506C21.8792 110.498 20.1961 107.475 21.206 104.788C22.2158 101.766 24.9089 100.422 27.6019 101.094C30.295 101.766 31.9781 104.788 30.9682 107.475C30.295 110.162 28.2752 111.506 25.9188 111.506ZM336.292 109.155C334.608 109.155 332.925 108.147 331.915 106.468C330.569 103.781 331.242 100.758 333.599 99.4146C335.955 98.0712 338.985 98.7429 340.668 101.43C342.014 104.117 341.341 107.139 338.985 108.483C337.975 108.819 337.302 109.155 336.292 109.155ZM34.3345 90.0105C33.6613 90.0105 32.6514 89.6747 31.9781 89.3388C29.6217 87.9954 28.6118 84.9726 29.6217 82.6216C30.9682 79.9347 33.9979 78.9272 36.6909 79.9347C39.0473 81.2782 40.3939 84.3009 39.0473 86.6519C38.0375 89.003 36.3543 90.0105 34.3345 90.0105ZM324.173 89.6747C322.49 89.6747 320.807 89.003 320.133 87.3237C318.45 84.9726 318.787 81.614 321.143 79.9347C323.5 78.2554 326.529 78.9272 328.213 81.2782C329.896 83.9651 329.559 86.9878 327.203 88.6671C326.193 89.3388 325.183 89.6747 324.173 89.6747ZM310.035 71.5382C308.688 71.5382 307.005 70.8665 305.995 69.8589C303.975 67.5079 304.312 64.4852 306.332 62.47C308.351 60.7907 311.718 60.7907 313.401 63.1417C315.421 65.4928 315.084 68.8514 313.064 70.5307C312.391 70.8665 311.381 71.5382 310.035 71.5382ZM46.7898 70.5307C45.7799 70.5307 44.4334 70.1948 43.7602 69.5231C41.4037 67.8438 41.0671 64.4852 42.7503 62.47C44.4334 60.119 47.7997 59.7831 50.1561 61.4624C52.5125 63.1417 52.8492 66.1645 51.166 68.5155C49.8195 69.8589 48.1363 70.5307 46.7898 70.5307ZM294.55 54.4094C293.203 54.4094 291.857 54.0735 290.847 53.066C288.49 51.0508 288.49 47.6922 290.51 45.677C292.53 43.6619 295.559 43.6619 297.579 45.677C299.936 48.0281 299.936 51.0508 297.916 53.066C296.906 54.0735 295.559 54.4094 294.55 54.4094ZM62.2748 53.7377C60.9283 53.7377 59.5818 53.066 58.5719 52.0584C56.5521 50.0432 56.8887 46.6846 58.9085 45.0053C61.2649 42.9902 64.6312 42.9902 66.3144 45.0053C68.3342 47.0205 67.9975 50.3791 65.9777 52.0584C64.9679 53.4018 63.6213 53.7377 62.2748 53.7377ZM80.7895 39.6316C79.1063 39.6316 77.4232 38.9598 76.4133 37.2805C74.7301 34.9295 75.4034 31.9068 77.7598 30.2275C80.4528 28.5482 83.4825 29.2199 85.1656 31.5709C86.8488 33.9219 86.1755 36.9447 83.8191 38.624C82.4726 39.2957 81.4627 39.6316 80.7895 39.6316ZM277.045 39.2957C276.035 39.2957 275.025 38.9598 274.015 38.2881C271.659 36.6088 270.985 33.2502 272.669 30.8992C274.352 28.5482 277.381 28.2123 279.738 29.8916C282.431 31.9068 282.767 34.9295 281.084 37.2805C280.074 38.624 278.391 39.2957 277.045 39.2957ZM100.651 28.2123C98.6309 28.2123 96.9477 27.2047 95.9378 25.1896C94.5913 22.5027 95.9378 19.48 98.2942 18.4724C100.987 17.129 104.017 18.1365 105.363 20.8234C106.71 23.1744 105.7 26.533 103.007 27.5406C102.334 28.2123 101.324 28.2123 100.651 28.2123ZM257.184 27.2047C256.51 27.2047 255.5 26.8689 254.827 26.533C252.134 25.1896 251.124 22.1669 252.471 19.48C253.817 17.129 256.847 16.1214 259.203 17.129C261.896 18.4724 262.906 21.4951 261.56 24.182C260.887 26.1972 259.203 27.2047 257.184 27.2047ZM122.195 19.48C120.175 19.48 118.155 18.1365 117.482 16.1214C116.472 13.4345 117.819 10.7476 120.512 9.74004C123.541 8.73246 126.571 10.0759 127.244 12.7628C128.254 15.4497 126.571 18.1365 123.878 19.1441C123.205 19.48 122.532 19.48 122.195 19.48ZM235.976 18.4724C235.303 18.4724 234.966 18.4724 234.293 18.1365C231.263 17.129 229.917 14.4421 230.926 11.7552C231.936 9.06832 234.629 7.72488 237.322 8.3966C240.352 9.40418 241.699 12.0911 241.025 14.7779C240.015 17.129 238.332 18.4724 235.976 18.4724ZM144.413 13.7704C142.056 13.7704 140.036 12.0911 139.363 9.74004C138.69 7.05316 140.71 4.36628 143.403 3.69456C146.432 3.02284 149.125 4.70214 149.799 7.72488C150.472 10.4118 148.452 13.0986 145.759 13.7704C145.086 13.7704 144.749 13.7704 144.413 13.7704ZM213.758 12.7628C209.719 12.0911 208.036 9.40418 208.372 6.7173C208.709 4.03042 211.402 2.01526 214.095 2.68698C217.125 3.3587 219.144 6.04558 218.471 8.73246C218.135 11.0835 216.115 12.7628 213.758 12.7628ZM167.303 10.4118C164.61 10.4118 162.591 8.3966 162.254 5.70972C161.917 3.02284 164.274 0.335963 166.967 0.335963C169.996 0.000103343 172.353 2.01526 172.689 5.038C173.026 7.72488 171.006 10.4118 167.977 10.4118C167.64 10.4118 167.303 10.4118 167.303 10.4118ZM190.867 10.0759C187.501 10.0759 185.481 7.38902 185.481 4.70214C185.481 2.01526 187.838 -0.335756 190.867 0.000103332C193.897 0.000103332 196.254 2.35112 195.917 5.37386C195.58 8.06074 193.561 10.0759 190.867 10.0759Z" fill="url(#paint1_linear_509_1287)"/>
<path d="M357.499 174.647C356.825 174.647 356.152 174.647 355.479 174.312C353.796 173.64 352.449 171.625 352.449 169.61C352.449 166.923 354.469 164.572 357.499 164.236C359.182 164.236 360.865 165.243 361.875 166.587C362.885 167.93 363.221 169.945 362.211 171.625C361.202 173.64 359.518 174.647 357.499 174.647Z" fill="url(#paint2_linear_509_1287)"/>
<path d="M481.042 483.974C480.369 483.974 480.032 483.974 479.359 483.638C476.666 482.63 475.319 479.944 476.329 477.257C477.339 474.234 480.032 472.891 482.725 473.898C485.418 474.906 486.765 477.593 485.755 480.279C485.082 482.966 483.062 483.974 481.042 483.974ZM489.458 462.815C488.785 462.815 488.111 462.815 487.438 462.479C484.745 461.471 483.735 458.449 484.745 455.762C486.092 452.739 489.121 451.731 491.478 452.739C494.171 453.747 495.181 456.769 494.171 459.456C493.161 461.807 491.478 462.815 489.458 462.815ZM499.893 442.327C498.884 442.327 498.21 441.991 497.2 441.656C494.844 440.312 493.834 437.289 495.517 434.603C497.2 431.916 500.23 431.244 502.586 432.587C504.943 433.931 505.616 437.289 504.27 439.64C503.26 441.656 501.577 442.327 499.893 442.327ZM513.359 424.191C512.012 424.191 511.002 423.855 509.992 422.847C507.973 420.832 507.972 417.81 509.656 415.794C511.675 413.443 515.042 413.443 517.062 415.459C519.081 417.474 519.081 420.496 517.398 422.512C516.052 423.519 514.705 424.191 513.359 424.191ZM531.537 410.421C529.517 410.421 527.834 409.413 526.824 407.398C525.814 404.711 526.824 401.688 529.18 400.681C532.21 399.337 535.24 400.681 536.249 403.032C537.259 405.719 536.249 408.741 533.556 409.749C532.883 410.421 532.21 410.421 531.537 410.421ZM554.091 407.398C550.725 407.398 548.705 405.047 548.705 402.36C548.705 399.673 551.061 397.322 553.754 397.322C557.12 397.322 559.14 399.673 559.14 402.36C559.14 405.383 557.121 407.398 554.091 407.398ZM576.645 407.062C573.952 407.062 571.932 405.047 571.596 402.36C571.259 399.673 573.615 396.986 576.308 396.986C579.338 396.65 581.694 398.666 582.031 401.688C582.368 404.375 580.348 407.062 577.318 407.062C576.982 407.062 576.982 407.062 576.645 407.062ZM599.536 403.703C597.179 403.703 595.16 402.024 594.486 399.673C593.813 396.986 595.496 394.299 598.526 393.628C601.556 392.956 604.249 394.635 604.922 397.658C605.595 400.345 603.575 403.032 600.882 403.703C600.209 403.703 599.873 403.703 599.536 403.703ZM621.753 398.666C619.397 398.666 617.377 396.986 616.704 394.635C616.031 391.948 617.714 389.261 620.407 388.59C623.437 387.918 626.13 389.597 626.803 392.284C627.476 394.971 625.793 397.658 623.1 398.33C622.427 398.666 622.09 398.666 621.753 398.666ZM735.534 395.307C732.841 395.307 730.485 392.956 730.485 390.269C730.485 387.582 732.841 385.231 735.534 385.231C738.564 385.231 740.921 387.582 740.921 390.269C740.921 392.956 738.564 395.307 735.871 395.307H735.534ZM712.98 394.635C709.614 394.299 707.257 391.948 707.594 389.261C707.931 386.575 710.287 384.224 712.98 384.559C716.01 384.895 718.03 387.246 718.03 389.933C717.693 392.62 715.673 394.635 712.98 394.635ZM643.971 394.299C641.615 394.299 639.258 392.62 638.922 389.933C638.585 387.246 640.605 384.559 643.298 384.224C646.327 383.888 649.02 385.903 649.357 388.59C649.694 391.277 647.674 393.964 644.981 394.299C644.644 394.299 644.308 394.299 643.971 394.299ZM758.425 394.299C755.732 394.299 753.712 392.284 753.376 389.597C753.039 386.91 755.059 384.224 758.089 384.224C761.118 383.888 763.475 385.903 763.811 388.59C764.148 391.277 762.128 393.964 759.098 394.299C758.762 394.299 758.425 394.299 758.425 394.299ZM690.089 392.956C686.723 392.956 684.703 390.605 684.703 387.582C684.703 384.895 687.06 382.544 690.089 382.544C693.119 382.544 695.475 385.231 695.139 387.918C695.139 390.941 692.782 392.956 690.089 392.956ZM666.862 392.62C664.169 392.62 661.812 390.269 661.812 387.582C661.812 384.895 663.832 382.544 666.862 382.544C669.892 382.544 672.248 384.559 672.248 387.582C672.248 390.269 670.228 392.62 667.198 392.62C666.862 392.62 666.862 392.62 666.862 392.62ZM780.979 390.941C778.623 390.941 776.603 389.261 775.93 386.91C775.257 384.224 777.276 381.537 779.97 380.865C782.999 380.193 785.692 382.208 786.366 384.895C787.039 387.582 785.019 390.269 782.326 390.941C781.653 390.941 781.316 390.941 780.979 390.941ZM803.197 385.903C800.841 385.903 798.821 384.559 798.484 382.208C797.811 379.522 799.157 376.835 801.85 375.827C804.88 374.82 807.573 376.499 808.246 379.186C808.92 381.873 807.573 384.559 804.88 385.567C804.207 385.567 803.87 385.903 803.197 385.903ZM824.741 378.178C822.722 378.178 821.038 377.171 820.029 375.155C819.019 372.468 820.029 369.446 822.722 368.438C825.751 367.095 828.444 368.438 829.791 371.125C830.801 373.812 829.791 376.499 827.098 377.842C826.088 378.178 825.415 378.178 824.741 378.178ZM845.276 368.102C843.593 368.102 841.909 367.095 840.9 365.751C839.553 363.4 840.226 360.378 842.583 358.698C845.276 357.019 848.305 358.027 849.989 360.378C851.335 362.729 850.662 365.751 847.969 367.431C846.959 367.766 846.286 368.102 845.276 368.102ZM864.464 355.34C863.117 355.34 861.434 354.668 860.424 353.324C858.741 350.973 859.078 347.951 861.434 346.271C863.79 344.256 867.157 344.592 868.84 346.943C870.523 349.294 870.186 352.317 868.167 353.996C866.483 355.004 865.474 355.34 864.464 355.34ZM880.959 339.89C879.612 339.89 878.602 339.554 877.592 338.547C875.573 336.532 875.236 333.509 877.256 331.494C879.275 329.143 882.642 329.143 884.661 330.822C886.681 332.837 887.018 335.86 884.998 337.875C883.988 339.218 882.642 339.89 880.959 339.89ZM894.76 321.754C893.75 321.754 893.077 321.418 892.067 321.082C889.711 319.738 889.038 316.38 890.384 314.029C892.067 311.342 895.097 310.67 897.453 312.014C899.81 313.357 900.483 316.716 899.137 319.067C898.127 321.082 896.443 321.754 894.76 321.754ZM905.196 301.266C904.523 301.266 903.849 301.266 903.513 300.93C900.82 299.923 899.473 296.9 900.483 294.549C901.493 291.526 904.523 290.183 907.216 291.19C909.909 292.198 911.255 295.221 910.245 297.908C909.235 300.259 907.216 301.266 905.196 301.266ZM682.347 281.786C678.981 281.786 676.961 279.435 676.961 276.748C676.961 274.062 679.317 271.711 682.01 271.711C685.377 271.711 687.396 274.062 687.396 276.748C687.396 279.771 685.04 281.786 682.347 281.786ZM704.901 280.107C702.545 280.107 700.525 278.428 699.852 276.077C699.178 273.39 701.198 270.703 703.891 270.031C706.921 269.36 709.614 271.375 710.287 274.062C710.96 276.748 708.941 279.435 706.248 280.107C705.574 280.107 705.238 280.107 704.901 280.107ZM659.456 279.771C655.753 279.435 653.733 276.748 654.07 274.062C654.407 271.375 657.1 269.36 659.793 269.695C662.822 270.031 664.842 272.718 664.505 275.405C664.169 278.092 662.149 279.771 659.456 279.771ZM911.255 279.435C907.552 278.764 905.869 276.077 906.206 273.39C906.879 270.367 909.572 268.352 912.265 269.024C914.958 269.695 916.978 272.046 916.305 275.069C915.968 277.756 913.948 279.435 911.255 279.435ZM636.902 276.077C632.862 275.405 631.179 272.718 631.516 270.031C632.189 267.344 634.882 265.665 637.575 266.001C640.605 266.673 642.288 269.36 641.951 272.046C641.615 274.397 639.258 276.077 636.902 276.077ZM614.684 271.039C610.308 270.031 608.625 267.344 609.298 264.658C609.971 261.971 612.664 260.291 615.357 260.963C618.387 261.635 620.07 264.322 619.397 267.344C619.06 269.36 617.041 271.039 614.684 271.039ZM725.435 270.703C724.089 270.703 722.742 270.031 721.733 269.024C719.713 267.009 720.049 263.65 722.069 261.971C724.426 259.955 727.792 259.955 729.475 262.306C731.158 264.322 731.158 267.68 729.138 269.36C727.792 270.367 726.445 270.703 725.435 270.703ZM592.467 264.993C588.09 263.986 586.407 261.299 587.417 258.612C588.09 255.925 591.12 254.246 593.813 255.253C596.843 256.261 598.526 258.948 597.516 261.635C596.843 263.65 594.823 264.993 592.467 264.993ZM570.586 258.612C570.249 258.612 569.576 258.612 569.239 258.276C566.21 257.269 564.863 254.582 565.536 251.895C566.21 249.208 569.239 247.865 571.932 248.536C574.962 249.544 576.308 252.231 575.635 254.918C574.625 257.269 572.605 258.612 570.586 258.612ZM913.948 256.933C910.919 256.933 908.899 254.582 908.899 251.895C908.899 248.872 911.255 246.521 913.948 246.521C916.978 246.521 918.998 248.872 918.998 251.559C918.661 254.582 916.641 256.933 913.948 256.933ZM742.94 256.261C741.257 256.261 739.911 255.589 738.901 254.246C737.218 251.895 737.554 248.872 739.911 247.193C742.267 245.178 745.633 245.849 747.316 247.865C749 250.216 748.663 253.238 746.307 254.918C745.297 255.925 743.95 256.261 742.94 256.261ZM548.705 251.559C548.031 251.559 547.695 251.559 547.022 251.223C543.992 250.216 542.645 247.193 543.655 244.842C544.665 242.155 547.358 240.811 550.051 241.819C553.081 242.827 554.427 245.514 553.418 248.2C552.744 250.216 550.725 251.559 548.705 251.559ZM527.16 244.17C526.487 244.17 526.151 244.17 525.477 243.834C522.448 242.827 521.101 239.804 522.111 237.117C523.121 234.43 525.814 233.087 528.507 234.094C531.537 235.102 532.883 238.125 531.873 240.811C531.2 242.827 529.18 244.17 527.16 244.17ZM761.455 242.827C759.772 242.827 758.089 242.155 757.079 240.476C755.396 238.125 756.069 235.102 758.425 233.423C761.118 231.743 764.148 232.415 765.831 234.766C767.514 237.117 766.841 240.14 764.485 241.819C763.475 242.491 762.465 242.827 761.455 242.827ZM505.616 236.445C504.943 236.445 504.27 236.445 503.933 236.109C500.903 235.102 499.557 232.079 500.567 229.392C501.577 226.705 504.606 225.362 506.963 226.37C509.992 227.377 511.339 230.4 510.329 233.087C509.656 235.102 507.636 236.445 505.616 236.445ZM912.602 234.094C909.909 234.094 907.889 232.079 907.552 229.728C907.216 226.705 909.235 224.018 911.928 223.683C914.622 223.347 917.315 225.362 917.651 228.049C917.988 231.072 915.968 233.758 913.275 234.094C913.275 234.094 912.938 234.094 912.602 234.094ZM780.979 230.736C779.296 230.736 777.613 229.728 776.603 228.385C775.257 226.034 775.93 223.011 778.286 221.332C780.979 219.652 784.009 220.66 785.356 223.011C786.702 225.362 786.029 228.385 783.672 230.064C782.663 230.736 781.989 230.736 780.979 230.736ZM484.072 228.049C483.399 228.049 482.725 228.049 482.389 227.713C479.359 226.705 478.012 223.683 479.022 220.996C480.032 218.309 483.062 216.965 485.755 217.973C488.785 218.981 489.795 222.003 489.121 224.69C488.111 227.041 486.092 228.049 484.072 228.049ZM801.177 219.988C799.157 219.988 797.474 218.981 796.801 217.301C795.455 214.95 796.464 211.592 799.157 210.584C801.85 209.241 804.88 210.248 806.227 212.599C807.573 214.95 806.563 218.309 803.87 219.316C802.86 219.652 801.85 219.988 801.177 219.988ZM462.864 219.652C462.191 219.652 461.518 219.652 460.844 219.316C457.815 218.309 456.805 215.286 457.815 212.599C458.825 209.912 461.854 208.569 464.547 209.912C467.577 210.92 468.587 213.943 467.577 216.63C466.904 218.645 464.884 219.652 462.864 219.652ZM907.216 211.928C905.533 211.928 903.849 210.92 902.84 209.577C901.156 206.89 902.166 203.867 904.523 202.523C906.879 201.18 909.909 201.852 911.592 204.203C913.275 206.89 912.265 209.912 909.909 211.592C908.899 211.928 908.226 211.928 907.216 211.928ZM441.656 211.256C440.983 211.256 440.31 211.256 439.637 210.92C436.607 209.577 435.597 206.89 436.607 204.203C437.617 201.516 440.647 200.508 443.34 201.516C446.033 202.523 447.379 205.546 446.369 208.233C445.359 209.912 443.676 211.256 441.656 211.256ZM822.048 210.584C820.029 210.584 818.009 209.241 817.335 207.561C816.326 204.874 817.672 201.852 820.029 200.844C822.722 199.837 825.751 200.844 826.761 203.531C827.771 206.218 826.761 209.241 824.068 210.248C823.395 210.584 822.722 210.584 822.048 210.584ZM843.593 202.859C841.236 202.859 839.216 201.516 838.543 199.165C837.87 196.478 839.216 193.791 841.909 192.784C844.939 191.776 847.632 193.455 848.305 196.142C848.979 198.829 847.632 201.516 844.939 202.523C844.603 202.859 844.266 202.859 843.593 202.859ZM420.449 202.523C419.775 202.523 419.102 202.523 418.429 202.188C415.399 200.844 414.389 197.821 415.399 195.47C416.409 192.784 419.439 191.776 422.132 192.784C424.825 193.791 426.171 196.814 425.162 199.501C424.488 201.18 422.469 202.523 420.449 202.523ZM889.038 199.165C884.661 198.157 882.978 195.47 883.652 192.784C884.325 190.097 887.018 188.417 889.711 189.089C892.741 189.761 894.424 192.784 893.75 195.47C893.414 197.821 891.394 199.165 889.038 199.165ZM866.147 198.493C863.454 198.493 861.434 196.478 861.097 194.127C860.761 191.44 862.781 188.753 865.474 188.417C868.503 188.081 871.196 190.097 871.533 192.784C871.87 195.47 869.85 198.157 867.157 198.493C866.483 198.493 866.147 198.493 866.147 198.493ZM399.241 193.455C398.568 193.455 397.895 193.455 397.221 193.119C394.528 191.776 393.182 189.089 394.192 186.402C395.201 183.715 398.231 182.708 400.924 183.715C403.954 185.059 404.964 188.081 403.954 190.433C403.281 192.112 401.261 193.455 399.241 193.455ZM378.37 184.051C377.697 184.051 377.023 184.051 376.35 183.715C373.657 182.372 372.311 179.349 373.657 176.998C374.667 174.311 377.697 173.304 380.39 174.311C383.083 175.655 384.429 178.677 383.083 181.028C382.073 183.044 380.39 184.051 378.37 184.051Z" fill="url(#paint3_linear_509_1287)"/>
<path d="M474.647 505.805C470.607 505.133 468.924 502.446 469.597 499.424C470.271 496.401 472.964 494.722 475.657 495.393C478.35 496.065 480.033 498.752 479.36 501.439C479.023 504.126 477.003 505.805 474.647 505.805Z" fill="url(#paint4_linear_509_1287)"/>
<path fill-rule="evenodd" clip-rule="evenodd" d="M570.252 604.211H727.458C740.923 604.211 752.032 615.295 752.032 628.729V637.462C752.032 650.896 740.923 661.979 727.458 661.979H570.252C556.786 661.979 545.678 650.896 545.678 637.462V628.729C545.678 614.959 556.786 604.211 570.252 604.211Z" fill="#CAE1FF"/>
<path d="M727.458 665.338H570.252C554.767 665.338 541.975 652.575 541.975 637.126V628.393C541.975 612.944 554.767 600.181 570.252 600.181H727.458C742.943 600.181 755.735 612.944 755.735 628.393V637.126C755.735 652.911 743.279 665.338 727.458 665.338ZM570.252 607.57C558.469 607.57 549.044 616.974 549.044 628.729V637.462C549.044 649.217 558.469 658.621 570.252 658.621H727.458C739.24 658.621 748.665 649.217 748.665 637.462V628.729C748.665 616.974 739.24 607.57 727.458 607.57H570.252Z" fill="#343B43"/>
<path fill-rule="evenodd" clip-rule="evenodd" d="M582.034 613.952H721.062C731.161 613.952 739.577 622.348 739.577 632.424C739.577 642.5 731.161 650.896 721.062 650.896H582.034C571.935 650.896 563.52 642.5 563.52 632.424C563.52 622.348 571.599 613.952 582.034 613.952Z" fill="white"/>
<path d="M721.062 654.59H582.034C569.915 654.59 559.816 644.851 559.816 632.424C559.816 620.333 569.579 610.257 582.034 610.257H721.062C733.181 610.257 743.28 619.997 743.28 632.424C743.28 644.515 733.181 654.59 721.062 654.59ZM582.034 617.31C573.618 617.31 566.886 624.027 566.886 632.424C566.886 640.82 573.618 647.537 582.034 647.537H721.062C729.478 647.537 736.211 640.82 736.211 632.424C736.211 624.027 729.478 617.31 721.062 617.31H582.034Z" fill="#343B43"/>
<path fill-rule="evenodd" clip-rule="evenodd" d="M612.666 548.795H727.457C740.922 548.795 752.031 559.878 752.031 573.312V575.328C752.031 588.762 740.922 599.845 727.457 599.845H612.666C599.201 599.845 588.092 588.762 588.092 575.328V573.312C588.092 559.878 599.201 548.795 612.666 548.795Z" fill="#CAE1FF"/>
<path d="M727.456 603.876H612.666C597.181 603.876 584.389 591.113 584.389 575.663V573.648C584.389 558.199 597.181 545.436 612.666 545.436H727.456C742.941 545.436 755.733 558.199 755.733 573.648V575.663C755.733 591.113 743.278 603.876 727.456 603.876ZM612.666 552.489C600.884 552.489 591.458 561.893 591.458 573.648V575.663C591.458 587.419 600.884 596.823 612.666 596.823H727.456C739.238 596.823 748.664 587.419 748.664 575.663V573.648C748.664 561.893 739.238 552.489 727.456 552.489H612.666Z" fill="#343B43"/>
<path fill-rule="evenodd" clip-rule="evenodd" d="M409.005 467.181H636.231C644.31 467.181 649.023 473.898 647.003 482.295L609.3 631.417C607.28 639.813 598.865 646.53 591.122 646.53H363.897C355.818 646.53 351.105 639.813 353.125 631.417L390.827 482.295C392.847 473.898 400.926 467.181 409.005 467.181Z" fill="white"/>
<path d="M636.231 474.234C637.577 474.234 638.924 474.57 639.597 475.578C640.607 476.585 640.607 478.6 640.27 480.616L602.568 629.737C601.221 635.111 595.835 639.477 591.122 639.477H363.897C362.55 639.477 361.204 639.141 360.531 638.134C359.521 637.126 359.521 635.111 359.857 633.096L397.56 483.974C398.906 478.6 404.292 474.234 409.005 474.234H636.231ZM636.231 467.181H409.005C400.926 467.181 392.847 473.898 390.827 482.295L353.125 631.417C351.105 639.813 355.818 646.53 363.897 646.53H591.122C599.201 646.53 607.28 639.813 609.3 631.417L646.666 482.295C649.023 473.898 644.31 467.181 636.231 467.181Z" fill="#343B43"/>
<path fill-rule="evenodd" clip-rule="evenodd" d="M234.968 636.79H597.182C600.548 636.79 603.241 639.477 603.241 642.836V650.561C603.241 658.621 596.509 665.338 588.43 665.338H243.384C235.305 665.338 228.572 658.621 228.572 650.561V642.836C228.572 639.477 231.265 636.79 234.968 636.79Z" fill="white"/>
<path d="M596.172 643.843V650.561C596.172 654.927 592.805 658.285 588.429 658.285H243.383C239.007 658.285 235.641 654.927 235.641 650.561V643.843H596.172ZM597.181 636.79H234.968C231.601 636.79 228.908 639.477 228.908 642.836V650.561C228.908 658.621 235.641 665.338 243.72 665.338H588.766C596.845 665.338 603.577 658.621 603.577 650.561V642.836C603.241 639.477 600.548 636.79 597.181 636.79Z" fill="#343B43"/>
<path fill-rule="evenodd" clip-rule="evenodd" d="M421.461 484.31H613.677C620.41 484.31 624.449 489.684 622.766 496.065L593.479 612.272C591.796 618.654 585.063 624.027 578.331 624.027H386.115C379.382 624.027 375.343 618.654 377.026 612.272L406.313 496.065C407.996 489.684 414.729 484.31 421.461 484.31Z" fill="#CAE1FF"/>
<path d="M578.667 627.722H386.451C382.075 627.722 378.372 626.043 376.015 623.02C373.659 619.997 372.986 615.631 373.995 611.601L403.282 495.393C405.302 487.333 413.381 480.951 421.797 480.951H614.013C618.389 480.951 622.092 482.631 624.448 485.653C626.805 488.676 627.478 493.042 626.468 497.072L597.181 613.28C595.161 621.676 587.082 627.722 578.667 627.722ZM421.46 487.668C416.411 487.668 411.025 492.035 409.678 496.737L380.391 612.944C379.718 614.959 380.055 616.974 381.065 618.318C382.075 619.661 383.758 620.333 386.114 620.333H578.33C583.379 620.333 588.765 615.967 590.112 611.265L619.399 495.057C620.072 493.042 619.735 491.027 618.726 489.684C617.716 488.34 616.032 487.668 613.676 487.668H421.46Z" fill="#343B43"/>
<path fill-rule="evenodd" clip-rule="evenodd" d="M735.875 475.242C740.924 468.524 745.974 462.479 760.112 460.464C775.934 458.113 785.36 467.853 785.36 467.853C785.36 467.853 780.647 479.272 762.469 481.959C744.291 484.31 735.875 475.242 735.875 475.242Z" fill="white"/>
<path d="M756.409 485.653C741.26 485.653 733.854 477.929 733.518 477.593L731.498 475.578L733.181 473.227C738.567 465.838 744.29 459.12 759.775 456.769C777.28 454.083 787.715 464.83 788.389 465.166L790.072 466.845L789.062 468.86C788.725 469.532 783.339 482.295 763.141 484.982C760.785 485.653 758.428 485.653 756.409 485.653ZM740.924 474.57C744.29 476.585 751.023 479.944 762.131 478.264C773.24 476.585 778.626 471.547 780.983 468.524C777.616 466.173 770.547 462.143 760.785 463.822C749.676 465.502 744.963 469.196 740.924 474.57Z" fill="#343B43"/>
<path fill-rule="evenodd" clip-rule="evenodd" d="M172.353 123.932H781.316C811.95 123.932 836.86 148.786 836.86 179.349V375.827C836.86 406.39 811.95 431.244 781.316 431.244H172.353C141.719 431.244 116.809 406.39 116.809 375.827V179.349C116.809 148.786 141.719 123.932 172.353 123.932Z" fill="white"/>
<path d="M781.317 123.932C811.95 123.932 836.861 148.786 836.861 179.349V375.827C836.861 406.39 811.95 431.244 781.317 431.244H172.353C141.72 431.244 116.809 406.39 116.809 375.827V179.349C116.809 148.786 141.72 123.932 172.353 123.932H781.317ZM781.317 116.879H172.353C138.017 116.879 109.74 144.756 109.74 179.349V375.827C109.74 410.085 137.681 438.297 172.353 438.297H781.317C815.653 438.297 843.93 410.421 843.93 375.827V179.349C843.594 145.091 815.653 116.879 781.317 116.879Z" fill="#234DAE"/>
<path fill-rule="evenodd" clip-rule="evenodd" d="M711.637 495.729C711.637 495.729 713.993 484.981 718.369 478.264C722.409 471.547 728.468 465.166 728.468 465.166L711.637 495.729Z" fill="white"/>
<path d="M711.637 499.088C708.944 498.416 707.598 496.737 708.271 494.721C708.271 494.386 710.964 483.302 715.34 475.913C719.717 468.86 725.776 462.479 725.776 462.143C727.123 460.8 729.479 460.8 730.826 462.143C732.172 463.487 732.172 465.838 730.826 467.181C730.826 467.181 725.103 473.562 721.063 479.608C717.36 485.653 715.004 496.065 715.004 496.065C714.667 498.08 713.321 499.088 711.637 499.088Z" fill="#343B43"/>
<path fill-rule="evenodd" clip-rule="evenodd" d="M710.962 479.272C732.169 479.272 749.001 494.05 749.001 512.522C749.001 530.995 731.833 545.773 710.625 545.773C689.417 545.773 672.586 530.995 672.586 512.522C672.586 494.05 689.754 479.272 710.962 479.272Z" fill="white"/>
<path d="M710.625 549.467C698.506 549.467 687.397 544.765 679.318 537.04C672.586 530.323 668.883 521.59 668.883 512.522C668.883 492.371 687.734 475.578 710.962 475.578C723.08 475.578 734.189 480.28 742.268 488.004C749.001 494.722 752.704 503.454 752.704 512.522C752.367 533.01 733.516 549.467 710.625 549.467ZM710.962 482.967C691.774 482.967 676.289 496.401 675.952 512.858C675.952 519.911 678.982 526.964 684.368 532.338C691.1 539.055 700.526 542.75 710.625 542.75C729.813 542.75 745.298 529.315 745.634 512.858C745.634 505.805 742.605 498.752 737.219 493.378C730.486 486.661 721.06 482.967 710.962 482.967Z" fill="#343B43"/>
<path d="M712.648 636.79H605.599C603.58 636.79 601.896 635.111 601.896 633.095C601.896 631.08 603.58 629.401 605.599 629.401H712.648C714.668 629.401 716.351 631.08 716.351 633.095C716.014 635.111 714.668 636.79 712.648 636.79Z" fill="#343B43"/>
<path d="M712.311 627.05H621.084C619.064 627.05 617.381 625.371 617.381 623.356C617.381 621.34 619.064 619.661 621.084 619.661H712.311C714.33 619.661 716.013 621.34 716.013 623.356C716.013 625.707 714.33 627.05 712.311 627.05Z" fill="#343B43"/>
<path d="M902.841 670.712H42.7518C40.732 670.712 39.0488 669.033 39.0488 667.017C39.0488 665.002 40.732 663.323 42.7518 663.323H903.178C905.198 663.323 906.881 665.002 906.881 667.017C906.544 669.369 904.861 670.712 902.841 670.712Z" fill="#343B43"/>
<path fill-rule="evenodd" clip-rule="evenodd" d="M183.464 132.329H792.428C823.061 132.329 847.972 157.182 847.972 187.746V384.224C847.972 414.787 823.061 439.64 792.428 439.64H183.464C152.831 439.64 127.92 414.787 127.92 384.224V187.746C127.92 157.182 152.831 132.329 183.464 132.329Z" fill="#CAE1FF"/>
<path fill-rule="evenodd" clip-rule="evenodd" d="M496.194 431.244L518.412 366.759C518.412 366.759 511.006 358.363 505.283 353.325C499.561 348.287 494.848 343.921 494.848 343.921L474.987 328.807C474.987 328.807 465.561 322.09 467.581 316.716C469.6 311.342 473.64 313.693 473.64 313.693C473.64 313.693 478.689 304.289 484.412 307.648C490.135 311.006 492.828 315.708 492.828 315.708L500.907 325.113C501.244 325.113 540.629 334.181 540.966 332.166C541.303 330.15 524.471 319.739 531.204 308.32C535.917 300.259 564.193 329.815 566.213 334.517C567.896 339.219 572.609 349.966 570.253 363.401C567.896 377.171 555.104 431.244 555.104 431.244H586.411L686.39 325.113L698.509 321.418L726.786 283.13V279.1C726.786 279.1 704.568 282.458 693.796 267.681C683.361 252.903 685.044 187.41 685.044 187.41L720.727 176.327L766.172 188.753L775.597 225.698L778.963 235.438C778.963 235.438 781.32 240.14 776.27 244.17C771.221 248.201 762.469 250.888 762.469 250.888L768.528 274.062C768.528 274.062 761.459 298.915 750.013 298.915C738.568 298.915 729.142 291.527 729.142 291.527L711.637 334.852L658.113 371.125L585.401 430.908H496.194V431.244Z" fill="white"/>
<path fill-rule="evenodd" clip-rule="evenodd" d="M749.675 231.743C752.031 235.774 754.051 239.132 756.408 236.11C758.764 233.423 762.804 226.706 767.18 226.706C771.556 226.706 773.912 229.728 773.912 229.728C773.912 229.728 789.734 194.463 777.279 178.342C764.823 162.22 745.972 165.243 731.834 163.564C717.695 161.885 689.082 156.847 689.082 156.847L689.755 173.976L666.527 176.998L684.369 194.127L698.171 187.074C698.171 187.074 715.002 189.425 729.141 189.425C743.279 189.425 753.378 188.082 754.388 194.799C755.398 200.844 747.319 227.713 749.675 231.743Z" fill="#234DAE"/>
<path fill-rule="evenodd" clip-rule="evenodd" d="M581.023 432.587C581.023 432.587 603.914 387.246 613.677 355.675C623.439 324.105 643.973 308.319 659.122 306.64C674.27 304.625 716.349 300.259 716.349 300.259C716.349 300.259 711.299 305.632 709.616 317.387C707.596 329.478 703.557 341.233 707.26 338.211C710.963 335.188 738.566 312.014 738.566 312.014C738.566 312.014 747.992 341.569 750.685 342.577C753.378 343.92 765.16 325.112 768.863 317.052C772.566 308.991 776.942 289.847 776.942 289.847L840.229 312.35L840.565 383.216C840.565 383.216 834.169 414.115 815.655 423.183C797.477 432.251 780.645 434.602 780.645 434.602L581.023 432.587Z" fill="url(#paint5_linear_509_1287)"/>
<path fill-rule="evenodd" clip-rule="evenodd" d="M765.163 253.238C765.836 257.604 766.846 262.306 766.846 267.344C772.232 272.046 775.262 279.099 777.618 287.16C795.459 293.206 816.667 299.587 836.192 306.304C840.231 307.648 855.38 310.334 852.687 315.708C851.34 318.731 845.954 316.38 843.598 315.708C822.39 308.991 800.172 301.266 779.301 294.549C778.628 307.648 772.569 317.052 766.509 327.463C764.49 331.158 762.133 334.852 759.103 339.554C757.42 341.905 753.381 349.63 750.014 349.63C745.638 349.63 743.282 338.211 741.935 334.18C739.579 328.135 737.559 322.761 735.539 317.387C728.47 322.425 721.401 329.814 713.658 336.867C711.975 338.211 708.272 342.913 705.243 342.241C700.193 341.569 703.559 326.792 704.233 323.097C705.579 316.38 707.599 310.67 709.619 305.297C685.718 307.983 665.857 307.983 648.689 314.701C632.194 321.418 623.778 335.524 617.046 352.989C610.65 369.782 605.263 387.582 598.194 404.711C593.481 416.13 588.095 429.565 582.373 441.656C580.689 445.686 578.67 452.067 574.967 451.731C568.907 451.06 575.303 441.656 576.313 439.64C582.373 427.214 588.095 413.443 592.808 401.017C599.877 383.552 605.6 363.736 612.669 346.607C620.412 328.135 629.837 315.036 648.015 307.983C666.194 300.93 687.738 300.93 712.648 298.579C716.351 293.541 719.044 287.496 723.421 283.13C702.213 283.466 689.421 271.711 684.372 253.91C679.995 238.46 679.995 221.667 681.342 203.195C681.342 200.844 682.352 198.157 682.015 196.142C681.342 192.783 674.946 188.753 671.916 185.395C669.56 183.044 661.817 178.006 662.827 173.975C664.174 168.937 682.015 173.639 686.055 172.632C687.065 169.609 681.342 153.824 687.401 153.824C694.134 153.824 701.203 155.839 707.599 156.846C714.668 157.854 721.401 158.526 728.807 158.862C743.618 159.869 758.767 158.862 768.529 165.915C785.697 178.006 787.044 205.882 778.965 228.72C784.687 240.811 776.945 252.567 765.163 253.238ZM767.519 172.968C759.44 165.579 744.628 166.251 731.163 165.579C717.698 164.907 702.886 162.556 691.777 160.541C691.104 165.579 694.807 174.647 692.787 177.334C689.758 181.364 680.332 176.662 674.609 178.006C676.629 180.357 678.312 182.372 681.005 185.059C682.352 186.402 688.074 190.097 688.748 191.776C689.421 194.127 688.411 198.829 688.074 201.852C687.065 227.041 686.391 253.91 698.847 267.008C706.926 275.405 722.411 279.435 734.529 272.382C737.222 271.039 743.282 264.993 745.975 266.001C751.024 267.68 745.638 272.046 743.618 273.726C739.579 276.748 734.866 279.435 731.163 281.45C732.173 284.809 732.846 288.839 733.183 292.534C740.589 299.923 749.341 294.213 754.727 289.175C756.747 287.16 762.806 281.786 763.143 278.428C763.48 276.748 762.133 273.726 761.796 271.375C760.787 263.65 759.777 256.261 758.767 249.208C760.787 245.849 766.173 247.193 769.876 245.513C775.598 242.827 778.628 229.392 769.202 229.392C764.826 229.392 763.143 234.094 760.787 235.774C756.747 238.796 749.678 239.132 747.321 234.094C742.272 224.018 756.41 204.539 750.688 195.134C747.658 190.097 732.51 190.432 723.084 190.432C717.698 190.432 713.995 190.432 707.936 189.761C703.896 189.425 696.154 189.761 696.154 185.395C696.49 181.028 703.559 183.044 708.272 183.379C722.747 184.387 743.955 182.372 752.707 187.746C763.816 194.799 756.074 213.271 754.054 223.683C753.717 226.034 752.707 229.056 754.054 231.407C757.084 232.415 758.767 228.72 760.787 226.705C764.49 223.347 769.876 221.332 774.925 224.354C780.648 206.218 778.628 183.379 767.519 172.968ZM739.579 302.945C733.52 302.274 724.767 297.908 726.45 290.519C718.035 300.93 712.648 314.029 710.292 330.15C716.688 325.448 723.421 318.395 730.153 312.685C731.5 311.342 735.539 307.312 737.559 307.312C740.252 307.648 740.925 311.678 741.935 314.029C745.302 322.761 748.668 330.15 751.024 338.547C755.401 333.509 759.103 326.456 763.48 319.067C769.539 308.655 777.618 295.221 769.539 281.45C764.49 288.504 753.717 304.625 739.579 302.945Z" fill="#343B43"/>
<path fill-rule="evenodd" clip-rule="evenodd" d="M694.469 204.539C713.657 204.203 719.38 221.332 714.33 239.804C713.321 244.17 711.637 248.536 708.944 248.872C704.568 248.872 705.915 243.834 707.261 240.812C710.291 231.743 711.637 216.63 702.885 212.264C700.529 211.256 692.449 211.592 692.113 207.897C691.776 205.882 693.123 204.875 694.469 204.539Z" fill="#343B43"/>
<path fill-rule="evenodd" clip-rule="evenodd" d="M730.826 205.21C732.172 204.874 734.192 204.539 735.875 204.874C739.242 205.546 745.974 210.92 744.628 215.286C744.291 216.63 742.608 217.301 741.261 216.965C738.568 216.63 738.232 211.928 734.529 211.256C731.499 210.584 729.479 213.271 727.123 212.599C725.44 211.928 724.766 210.248 725.44 208.569C725.44 206.554 728.469 205.882 730.826 205.21Z" fill="#343B43"/>
<path fill-rule="evenodd" clip-rule="evenodd" d="M703.223 218.309C703.559 222.675 705.243 232.415 699.52 231.071C695.144 230.4 696.153 210.92 703.223 218.309Z" fill="#343B43"/>
<path fill-rule="evenodd" clip-rule="evenodd" d="M735.539 220.324C736.549 224.018 735.875 230.735 733.519 232.751C725.776 235.102 729.143 214.278 735.539 220.324Z" fill="#343B43"/>
<path fill-rule="evenodd" clip-rule="evenodd" d="M765.499 234.094C766.846 233.758 769.202 233.422 769.539 236.109C769.875 238.796 761.796 244.506 759.103 244.17C757.42 244.17 756.41 242.491 756.41 241.483C756.41 239.132 758.767 238.124 760.45 237.117C761.123 236.781 763.143 234.766 765.499 234.094Z" fill="#343B43"/>
<path fill-rule="evenodd" clip-rule="evenodd" d="M725.103 253.574C721.4 254.582 717.36 258.948 711.974 258.948C707.935 259.284 699.182 256.933 702.885 252.567C704.905 250.215 709.281 252.902 711.301 252.902C716.687 252.567 730.489 239.804 731.499 251.895C732.172 259.62 725.776 265.665 719.043 267.344C716.35 268.016 711.974 268.688 712.647 264.322C713.321 260.627 719.717 261.635 722.073 259.284C724.43 257.269 724.093 256.261 725.103 253.574Z" fill="#343B43"/>
<path fill-rule="evenodd" clip-rule="evenodd" d="M464.215 319.738C464.215 318.059 464.215 316.38 464.215 314.7C465.561 310.67 468.591 308.655 473.977 308.655C479.363 301.602 488.789 306.304 492.828 311.006C495.185 313.693 496.868 319.403 500.908 320.41C502.254 320.746 503.937 320.746 505.62 321.082C516.393 323.433 524.808 325.784 535.917 327.799C533.897 325.112 528.511 322.761 526.828 317.723C525.145 312.685 526.828 307.312 531.878 305.632C538.61 303.617 547.362 309.327 551.402 312.014C556.788 315.708 561.501 320.746 564.531 325.112C571.263 334.852 576.649 350.637 573.283 368.102C571.6 375.491 568.57 382.88 566.55 390.941C561.164 410.421 557.461 430.572 553.422 452.067C552.749 455.426 552.412 462.479 548.372 462.143C544.669 461.807 545.679 457.105 546.353 453.075C550.729 427.549 557.461 399.673 563.521 378.178C565.877 370.453 567.56 364.408 567.56 356.011C567.56 339.218 560.154 327.799 551.065 319.738C546.689 316.044 540.63 311.342 533.561 312.014C532.887 318.395 539.62 320.41 542.65 324.44C543.996 326.456 547.362 331.493 544.333 334.18C542.313 336.195 536.927 334.18 534.234 333.509C524.808 331.158 514.373 328.807 506.63 327.127C511.68 340.898 536.254 338.547 547.363 347.951C548.372 348.622 560.491 364.072 552.075 364.408C548.036 364.744 546.353 356.011 543.996 353.66C535.917 345.264 517.739 346.607 507.303 338.547C499.898 332.501 499.561 323.433 490.472 319.738C492.828 337.875 506.63 348.622 519.086 358.362C521.442 360.377 531.541 365.751 529.184 370.117C527.165 374.148 522.788 368.774 521.779 369.781C511.68 398.33 500.571 427.549 490.135 456.433C489.126 459.456 487.442 467.517 483.403 466.845C478.353 466.173 482.393 457.441 483.403 454.754C494.512 424.862 505.957 394.299 517.066 365.079C508.65 357.691 498.551 351.645 492.492 341.905C488.452 339.218 484.749 335.86 480.036 332.837C473.304 329.814 465.898 327.463 464.215 319.738ZM480.036 312.685C480.71 315.708 481.72 318.395 483.739 320.074C483.403 316.716 485.423 315.708 487.106 314.365C485.759 313.021 482.056 310.334 480.036 312.685ZM473.304 315.372C472.967 316.044 471.621 315.708 471.284 316.044C469.938 322.425 475.997 324.105 479.7 326.456C477.007 322.761 475.324 319.067 473.304 315.372Z" fill="#343B43"/>
<path fill-rule="evenodd" clip-rule="evenodd" d="M654.076 386.239C658.452 385.231 658.452 392.62 659.462 397.994C662.828 417.474 666.194 436.282 669.897 457.105C670.907 463.151 675.283 478.6 670.57 479.272C666.194 479.944 666.531 474.906 665.521 470.204C661.145 446.358 657.105 422.848 653.066 399.673C652.392 394.299 649.699 387.246 654.076 386.239Z" fill="#343B43"/>
<path fill-rule="evenodd" clip-rule="evenodd" d="M595.496 181.029C610.644 181.029 622.763 193.12 622.763 208.233C622.763 223.347 610.644 235.438 595.496 235.438C580.347 235.438 568.229 223.347 568.229 208.233C568.229 193.12 580.347 181.029 595.496 181.029Z" fill="#F6F6F6"/>
<path d="M595.496 181.028C610.645 181.028 622.764 193.119 622.764 208.233C622.764 223.347 610.645 235.438 595.496 235.438C580.348 235.438 568.229 223.347 568.229 208.233C568.229 193.119 580.348 181.028 595.496 181.028ZM595.496 173.975C576.645 173.975 561.16 189.425 561.16 208.233C561.16 227.041 576.645 242.491 595.496 242.491C614.348 242.491 629.833 227.041 629.833 208.233C629.833 189.425 614.348 173.975 595.496 173.975Z" fill="#343B43"/>
<path fill-rule="evenodd" clip-rule="evenodd" d="M450.748 31.907C523.123 31.907 581.697 90.3466 581.697 162.556C581.697 234.766 523.123 293.206 450.748 293.206C378.372 293.206 319.799 234.766 319.799 162.556C319.799 90.3466 378.372 31.907 450.748 31.907Z" fill="url(#paint6_linear_509_1287)"/>
<path d="M450.749 31.9068C523.124 31.9068 581.698 90.3464 581.698 162.556C581.698 234.766 523.124 293.206 450.749 293.206C378.373 293.206 319.8 234.766 319.8 162.556C319.463 90.3464 378.373 31.9068 450.749 31.9068ZM450.749 24.8538C374.67 24.8538 312.73 86.652 312.73 162.556C312.73 238.461 374.67 300.259 450.749 300.259C526.827 300.259 588.767 238.461 588.767 162.556C588.767 86.652 526.827 24.8538 450.749 24.8538Z" fill="#343B43"/>
<path d="M566.213 285.481C561.837 285.481 557.797 285.481 553.758 285.145C521.105 283.13 482.056 274.397 443.343 260.291C286.474 202.859 213.088 121.581 210.059 118.223L212.752 115.872L211.068 112.849C212.415 112.177 214.435 112.177 215.445 113.521C218.474 116.879 290.513 196.814 445.7 253.91C523.798 282.458 598.193 286.824 618.728 263.65C626.47 255.253 626.133 242.827 618.054 227.377C617.044 225.698 617.718 223.347 619.737 222.675C621.421 221.668 623.777 222.339 624.45 224.354C636.232 247.193 630.846 260.963 624.114 268.688C611.995 282.122 587.758 285.481 566.213 285.481Z" fill="#343B43"/>
<path fill-rule="evenodd" clip-rule="evenodd" d="M218.134 51.0508C256.509 51.0508 287.816 82.2857 287.816 120.574C287.816 158.862 256.509 190.097 218.134 190.097C179.758 190.097 148.451 158.862 148.451 120.574C148.451 82.2857 179.421 51.0508 218.134 51.0508Z" fill="#F6F6F6"/>
<path d="M218.135 193.791C177.739 193.791 145.086 160.877 145.086 120.91C145.086 80.9423 178.076 48.0281 218.135 48.0281C258.53 48.0281 291.183 80.9423 291.183 120.91C291.183 160.877 258.53 193.791 218.135 193.791ZM218.135 54.7453C181.779 54.7453 152.155 84.3009 152.155 120.574C152.155 156.847 181.779 186.402 218.135 186.402C254.491 186.402 284.114 156.847 284.114 120.574C284.114 84.3009 254.491 54.7453 218.135 54.7453Z" fill="#343B43"/>
<path fill-rule="evenodd" clip-rule="evenodd" d="M228.571 57.7678C266.947 57.7678 288.828 90.3462 287.145 119.566C286.471 130.313 292.867 147.442 287.481 158.19C277.046 179.013 248.432 190.432 223.185 190.432C184.809 190.432 158.889 165.579 158.889 127.291C158.889 89.0028 190.195 57.7678 228.571 57.7678Z" fill="#F2F2F2"/>
<path d="M218.135 193.791C177.739 193.791 145.086 160.877 145.086 120.91C145.086 80.9423 178.076 48.0281 218.135 48.0281C258.53 48.0281 291.183 80.9423 291.183 120.91C291.183 160.877 258.53 193.791 218.135 193.791ZM218.135 54.7453C181.779 54.7453 152.155 84.3009 152.155 120.574C152.155 156.847 181.779 186.402 218.135 186.402C254.491 186.402 284.114 156.847 284.114 120.574C284.114 84.3009 254.491 54.7453 218.135 54.7453Z" fill="#343B43"/>
<path fill-rule="evenodd" clip-rule="evenodd" d="M25.2473 84.301C39.0491 84.301 50.4945 95.7203 50.4945 109.491C50.4945 123.597 39.0491 134.68 25.2473 134.68C11.4454 134.68 0 123.261 0 109.491C0 95.7203 11.4454 84.301 25.2473 84.301Z" fill="url(#paint7_linear_509_1287)"/>
<path fill-rule="evenodd" clip-rule="evenodd" d="M902.504 187.746C910.92 187.746 917.652 194.463 917.652 202.86C917.652 211.256 910.92 217.973 902.504 217.973C894.088 217.973 887.355 211.256 887.355 202.86C887.355 194.463 894.088 187.746 902.504 187.746Z" fill="url(#paint8_linear_509_1287)"/>
<path d="M472.293 347.615H341.344C339.324 347.615 337.641 345.936 337.641 343.921C337.641 341.905 339.324 340.226 341.344 340.226H472.293C474.312 340.226 475.996 341.905 475.996 343.921C475.996 346.272 474.312 347.615 472.293 347.615Z" fill="#F6F6F6"/>
<path d="M373.997 361.385H341.344C339.324 361.385 337.641 359.706 337.641 357.691C337.641 355.676 339.324 353.996 341.344 353.996H373.997C376.016 353.996 377.7 355.676 377.7 357.691C377.363 359.706 376.016 361.385 373.997 361.385Z" fill="#F6F6F6"/>
<path d="M472.629 375.155H341.344C339.324 375.155 337.641 373.476 337.641 371.461C337.641 369.446 339.324 367.766 341.344 367.766H472.629C474.649 367.766 476.332 369.446 476.332 371.461C475.996 373.476 474.649 375.155 472.629 375.155Z" fill="#F6F6F6"/>
<path d="M472.967 388.926H394.195C392.175 388.926 390.492 387.246 390.492 385.231C390.492 383.216 392.175 381.537 394.195 381.537H472.967C474.986 381.537 476.67 383.216 476.67 385.231C476.333 387.246 474.986 388.926 472.967 388.926Z" fill="#F6F6F6"/>
<path d="M472.629 375.155H341.344C339.324 375.155 337.641 373.476 337.641 371.461C337.641 369.446 339.324 367.766 341.344 367.766H472.629C474.649 367.766 476.332 369.446 476.332 371.461C475.996 373.476 474.649 375.155 472.629 375.155Z" fill="#F6F6F6"/>
<path d="M383.76 388.926H377.027C375.007 388.926 373.324 387.246 373.324 385.231C373.324 383.216 375.007 381.537 377.027 381.537H383.76C385.78 381.537 387.463 383.216 387.463 385.231C387.463 387.246 385.78 388.926 383.76 388.926Z" fill="#F6F6F6"/>
<path d="M472.966 402.36H420.789C418.769 402.36 417.086 400.681 417.086 398.666C417.086 396.65 418.769 394.971 420.789 394.971H472.966C474.986 394.971 476.669 396.65 476.669 398.666C476.333 400.681 474.986 402.36 472.966 402.36Z" fill="#F6F6F6"/>
<path d="M472.293 347.615H341.344C339.324 347.615 337.641 345.936 337.641 343.921C337.641 341.905 339.324 340.226 341.344 340.226H472.293C474.312 340.226 475.996 341.905 475.996 343.921C475.996 346.272 474.312 347.615 472.293 347.615Z" fill="#F6F6F6"/>
<path d="M472.63 361.385H394.195C392.175 361.385 390.492 359.706 390.492 357.691C390.492 355.676 392.175 353.996 394.195 353.996H472.63C474.65 353.996 476.333 355.676 476.333 357.691C475.996 359.706 474.65 361.385 472.63 361.385Z" fill="#F6F6F6"/>
<path d="M472.629 375.155H341.344C339.324 375.155 337.641 373.476 337.641 371.461C337.641 369.446 339.324 367.766 341.344 367.766H472.629C474.649 367.766 476.332 369.446 476.332 371.461C475.996 373.476 474.649 375.155 472.629 375.155Z" fill="#F6F6F6"/>
<path d="M364.909 388.926H341.681C339.662 388.926 337.979 387.246 337.979 385.231C337.979 383.216 339.662 381.537 341.681 381.537H364.909C366.929 381.537 368.612 383.216 368.612 385.231C368.612 387.246 366.929 388.926 364.909 388.926Z" fill="#F6F6F6"/>
<path d="M472.629 375.155H341.344C339.324 375.155 337.641 373.476 337.641 371.461C337.641 369.446 339.324 367.766 341.344 367.766H472.629C474.649 367.766 476.332 369.446 476.332 371.461C475.996 373.476 474.649 375.155 472.629 375.155Z" fill="#F6F6F6"/>
<path d="M400.592 402.36H341.681C339.662 402.36 337.979 400.681 337.979 398.666C337.979 396.65 339.662 394.971 341.681 394.971H400.592C402.611 394.971 404.295 396.65 404.295 398.666C403.958 400.681 402.611 402.36 400.592 402.36Z" fill="#F6F6F6"/>
<path fill-rule="evenodd" clip-rule="evenodd" d="M91.2268 698.588H271.66C271.66 698.588 263.245 683.81 256.849 673.399C250.453 662.987 240.017 650.896 240.017 650.896C240.017 650.896 246.75 648.545 257.859 638.469C268.967 628.058 283.779 610.593 283.779 610.593C283.779 610.593 297.581 605.891 304.314 598.502C311.046 591.113 316.769 581.037 316.769 581.037L387.125 640.82C387.125 640.82 410.352 668.361 438.966 659.964C467.579 651.568 520.43 598.838 520.43 598.838C520.43 598.838 531.539 599.51 535.915 584.06C540.291 568.946 543.994 548.459 553.42 549.802C563.182 550.81 572.944 561.222 573.281 556.52C573.954 551.818 570.588 546.444 566.548 544.429C562.172 542.414 555.776 538.047 558.469 538.383C561.162 538.719 577.32 540.398 572.944 530.994C568.232 521.59 546.351 521.926 546.351 521.926C546.351 521.926 546.687 518.232 541.974 515.209C536.925 512.522 536.252 511.179 536.252 511.179C536.252 511.179 547.36 508.828 542.984 503.79C538.608 498.416 531.202 491.699 520.43 498.752C493.163 516.888 485.421 557.527 485.421 557.527L429.203 589.098L351.442 505.133C351.442 505.133 321.818 456.098 300.947 454.082C291.858 453.075 279.403 450.388 268.631 449.044C254.156 447.365 242.037 446.694 242.71 440.312C243.72 429.229 260.888 396.986 260.888 396.986C260.888 396.986 278.393 401.352 285.462 395.979C296.908 387.582 303.977 345.264 303.977 345.264C303.977 345.264 294.215 339.554 290.512 337.875C286.809 336.196 284.452 334.852 284.452 334.852C284.452 334.852 299.937 305.632 286.472 294.885C273.007 284.137 231.938 263.986 211.74 272.046C191.543 279.771 184.81 289.511 184.81 289.511C184.81 289.511 156.87 277.756 144.751 292.198C132.296 306.64 118.494 366.759 107.722 381.201C96.9495 395.307 49.8213 431.58 56.2172 455.426C62.6132 479.272 77.7616 475.242 77.7616 475.242C77.7616 475.242 58.9103 511.514 71.7022 533.345C84.8308 555.176 86.5139 556.184 86.5139 556.184L54.5341 614.623C54.5341 614.623 40.059 641.828 53.8608 653.247C67.6626 664.666 86.8506 662.987 97.2861 655.934C107.722 648.881 118.494 634.439 119.167 635.783C119.84 637.126 127.246 652.911 127.246 652.911C127.246 652.911 118.83 661.308 111.088 671.048C103.009 681.124 91.2268 698.588 91.2268 698.588Z" fill="#F6F6F6"/>
<path fill-rule="evenodd" clip-rule="evenodd" d="M95.2664 562.565C95.2664 562.565 47.1283 634.439 60.2569 654.927C73.3855 675.414 118.494 635.111 118.494 635.111C118.494 635.111 112.771 624.028 112.098 609.921C111.425 595.815 114.791 565.588 114.791 565.588L125.226 564.245C125.226 564.245 119.504 595.479 123.88 615.631C128.593 637.798 137.682 651.568 137.682 651.568H242.71C242.71 651.568 263.918 641.156 270.987 629.737C278.393 618.654 285.126 606.563 285.126 606.563C285.126 606.563 295.898 607.57 303.64 598.502C311.383 589.434 316.769 580.366 316.769 580.366C316.769 580.366 402.61 655.598 423.481 661.308C446.035 667.353 479.025 635.783 479.025 635.783C479.025 635.783 481.381 612.944 467.243 597.159C453.441 581.038 439.976 584.396 439.976 584.396L429.877 589.098C429.877 589.098 359.184 520.583 343.026 496.401C327.204 472.219 309.026 454.418 291.185 452.403C273.344 450.388 241.364 449.045 242.037 440.648C242.71 432.587 248.433 423.183 248.433 423.183L218.81 419.153C218.81 419.153 215.78 442.999 197.939 449.38C180.097 455.762 178.414 458.785 178.414 458.785L171.681 562.565C171.681 562.565 150.474 566.596 142.058 566.596C133.642 566.931 95.2664 562.565 95.2664 562.565Z" fill="url(#paint9_linear_509_1287)"/>
<path fill-rule="evenodd" clip-rule="evenodd" d="M103.344 698.924L273.005 699.931C273.005 699.931 266.609 687.84 258.194 674.742C249.778 661.643 237.996 650.56 237.996 650.56L138.353 652.575C138.353 652.575 131.284 661.979 121.858 673.063C112.769 684.482 103.344 698.924 103.344 698.924Z" fill="#343B43"/>
<path fill-rule="evenodd" clip-rule="evenodd" d="M44.4336 639.141C44.4336 638.134 44.4336 636.79 44.4336 635.783C44.7702 628.058 48.4732 621.005 51.8395 613.952C61.6017 593.8 71.7006 574.992 83.4827 558.199C74.7303 549.802 65.3047 539.727 64.2948 523.605C63.6215 515.545 65.6413 507.148 67.3244 499.759C69.0076 492.37 70.3541 484.981 73.7204 479.272C55.5424 479.272 49.1464 463.151 52.5127 445.35C54.8691 434.267 61.2651 424.191 66.9878 417.138C79.7797 401.352 99.3043 391.948 109.067 374.148C119.502 355.675 122.532 330.486 130.611 310.67C134.65 301.266 140.037 291.19 148.452 286.152C156.868 281.115 174.373 281.45 183.798 286.152C191.204 279.771 199.283 273.39 210.729 270.703C235.639 265.329 263.58 274.397 278.728 284.809C287.144 290.519 295.223 298.915 295.223 311.006C295.223 320.746 291.183 327.463 287.817 334.516C291.857 339.89 305.322 338.211 307.005 346.271C308.015 350.973 304.649 357.355 303.302 362.057C299.263 377.17 297.243 396.986 284.451 402.024C277.382 404.711 268.629 403.368 261.56 402.024C258.867 409.077 256.174 415.794 252.808 422.176C249.778 428.557 245.738 435.274 245.738 443.335C250.115 446.693 256.847 446.693 262.233 447.029C281.758 448.373 299.263 450.052 312.391 458.113C328.886 468.188 339.658 486.325 351.104 501.103C375.004 531.666 401.598 559.878 429.538 585.739C447.043 576.335 464.211 566.595 481.716 556.855C483.736 537.04 492.152 521.926 503.597 509.163C510.33 501.774 524.131 489.348 538.606 497.072C543.993 500.095 550.725 508.828 541.636 512.522C544.329 513.194 545.676 516.888 549.379 517.896C552.408 518.903 555.775 518.232 559.141 518.903C566.883 520.583 577.992 524.949 576.982 534.353C576.646 538.383 573.616 541.406 567.893 541.07C571.596 543.757 578.665 550.474 575.299 558.199C574.626 559.542 573.279 561.222 570.923 561.557C563.18 562.565 559.141 553.833 551.735 555.848C546.012 557.191 543.656 567.267 541.973 574.32C539.953 582.045 537.933 589.77 533.557 594.136C529.517 598.166 524.805 599.845 521.102 602.532C517.062 605.219 513.696 609.585 509.993 612.944C498.547 623.692 487.775 633.767 475.657 643.507C461.182 655.262 439.637 672.055 413.717 661.644C403.618 657.613 395.539 651.568 386.786 645.187C361.539 626.378 340.331 605.891 316.431 585.739C309.698 597.494 300.609 607.234 286.471 612.272C276.035 629.737 261.223 642.836 243.382 652.911C255.837 666.682 265.936 682.467 273.005 702.283C274.015 705.305 275.698 709 271.995 709.672C268.966 710.008 267.619 705.977 266.609 703.626C260.887 688.512 255.501 677.765 246.412 666.346C244.055 663.323 238.332 655.598 234.966 654.591C231.6 653.583 226.214 654.255 221.838 654.255C194.571 654.255 169.66 653.583 142.73 655.262C138.353 655.598 131.957 654.927 129.601 655.934C128.591 656.27 128.254 657.613 127.245 658.957C126.235 659.964 124.888 660.636 124.215 661.308C112.096 672.391 101.661 684.818 93.2449 698.252C91.8984 700.268 91.2252 703.962 87.1856 703.626C84.1559 698.252 89.542 692.879 92.2351 688.848C98.2944 679.78 105.027 672.055 112.096 664.666C115.799 660.636 120.175 657.949 123.205 653.583C120.849 649.889 118.492 646.194 117.146 641.492C115.126 642.5 113.443 644.851 111.76 646.866C100.987 657.613 75.4036 674.071 55.5424 661.644C49.483 656.606 45.7801 649.553 44.4336 639.141ZM283.104 296.228C271.322 283.466 242.372 273.054 219.145 276.077C207.363 277.42 197.264 281.45 191.878 288.503C194.571 289.175 196.59 290.519 198.274 291.862C199.62 297.908 204.333 300.594 205.006 306.976C206.353 317.387 197.937 320.746 190.868 324.44C189.858 339.554 188.511 354.668 187.501 369.782C195.917 375.491 204.669 382.88 210.729 392.284C212.075 394.299 214.432 401.352 216.788 401.352C218.471 401.352 220.828 398.33 222.174 396.65C226.887 390.605 229.58 383.888 231.937 376.835C225.204 372.133 221.501 357.019 229.58 351.309C229.243 350.302 228.234 349.294 228.57 347.279C230.253 344.592 233.62 344.256 236.313 343.249C253.817 336.531 265.936 326.456 275.698 311.678C277.045 309.663 279.065 305.296 281.421 305.632C288.827 305.968 280.075 316.716 279.401 318.059C281.085 320.074 282.094 325.448 284.451 327.799C290.847 317.723 290.847 304.289 283.104 296.228ZM183.798 334.18C184.135 329.478 183.798 321.418 185.482 319.403C186.491 317.723 191.541 317.387 193.561 316.044C195.917 314.701 198.61 312.685 198.947 309.999C199.283 306.976 197.6 303.953 196.254 301.938C194.907 299.587 193.224 297.572 191.541 295.892C181.442 291.19 164.947 285.481 153.165 291.19C140.373 297.572 134.987 318.059 130.274 333.173C125.898 347.615 122.532 363.736 116.136 375.491C102.334 401.352 74.7303 409.077 62.9482 435.274C60.9285 439.64 59.2453 445.686 58.9087 449.716C57.8988 463.151 62.9482 470.539 74.057 471.547C80.453 472.219 85.5025 469.868 86.5123 473.226C87.1856 475.913 85.1658 476.921 83.146 478.6C77.76 483.302 76.7501 490.355 74.7303 498.416C73.3838 503.79 72.0373 509.835 71.7006 514.873C70.0175 539.727 87.1856 554.504 105.027 559.542C123.542 564.916 146.432 562.901 167.64 559.542C171.343 486.661 178.076 407.734 183.798 334.18ZM243.382 348.622C245.402 349.966 248.768 351.645 251.124 354.668C252.808 356.683 257.857 365.415 251.461 365.079C248.431 365.079 246.075 358.698 244.055 356.683C239.342 352.653 233.283 355.34 231.6 359.706C229.917 365.079 233.956 370.453 236.986 372.133C240.016 373.812 250.788 372.804 250.788 377.506C250.788 382.88 241.699 380.865 237.659 379.521C233.283 390.605 228.907 406.054 215.442 408.07C214.768 410.421 214.095 412.772 213.758 415.123C224.867 416.13 237.323 416.13 248.095 417.809C249.778 413.779 251.798 410.085 253.481 405.383C254.491 403.032 256.174 393.963 259.204 393.292C262.57 392.62 267.283 395.307 271.659 395.307C287.48 396.314 289.837 387.582 293.203 375.491C290.847 373.14 280.411 368.102 280.748 363.736C280.748 362.057 282.431 360.377 284.114 360.377C288.154 360.377 291.857 368.102 295.223 368.774C296.906 361.049 298.926 353.996 300.946 346.607C288.49 342.577 278.055 336.196 274.352 323.433C266.609 334.852 255.837 342.577 243.382 348.622ZM181.779 443.671C199.283 438.633 205.343 422.176 210.056 404.375C203.996 393.963 197.264 384.224 186.828 377.842C185.145 399.673 183.462 421.84 181.779 443.671ZM181.105 451.06C179.086 481.623 176.393 516.552 174.373 548.795C174.036 553.833 174.709 559.878 173.363 562.901C171.343 567.603 162.927 567.267 157.205 568.275C145.423 569.954 130.274 571.297 117.819 569.954C111.086 598.838 116.809 631.752 130.274 649.553C160.571 646.866 193.561 647.873 225.541 647.873C230.253 647.873 235.639 648.881 239.342 648.209C241.699 647.873 243.719 645.522 246.075 644.179C257.52 637.126 266.946 629.065 275.025 619.325C277.718 615.967 281.085 608.914 284.114 606.899C286.807 604.883 290.847 604.212 293.54 602.532C302.292 597.494 308.015 589.77 313.064 581.373C310.708 578.35 308.015 576.671 304.649 573.648C302.629 571.969 296.906 568.275 297.916 564.58C298.253 563.237 299.599 562.565 300.272 562.565C302.629 562.229 304.985 565.588 307.005 567.603C321.817 581.037 336.292 593.8 351.104 606.563C367.598 621.005 384.767 637.126 403.281 648.881C413.38 655.262 425.162 661.308 439.301 657.949C451.419 654.926 460.508 648.209 469.934 641.156C485.419 629.065 499.221 615.295 513.696 602.197C515.716 600.181 518.072 597.495 519.755 596.487C521.102 595.815 522.448 595.815 523.795 595.143C527.498 593.128 531.201 589.77 532.884 586.075C538.943 574.656 537.597 554.169 550.052 550.138C553.755 548.795 559.141 549.802 562.171 551.146C565.2 552.489 567.893 555.176 570.586 554.84C569.913 549.131 565.2 547.787 560.824 545.772C555.775 543.421 548.032 540.398 542.646 542.749C538.606 544.429 535.913 550.138 531.874 549.467C530.864 549.131 529.181 547.787 529.181 546.444C528.844 542.078 536.587 537.711 539.953 536.368C544.329 534.689 548.369 535.696 553.082 535.696C554.765 535.696 556.784 535.025 558.468 534.689C563.517 534.353 568.23 536.032 571.26 534.353C570.25 528.643 561.161 526.628 554.428 525.956C543.319 525.285 537.933 529.651 532.547 535.025C530.527 537.04 527.161 543.757 523.795 543.421C522.448 543.421 520.765 541.742 520.765 540.398C520.428 536.368 527.161 530.323 529.181 528.643C533.557 524.613 536.923 522.262 541.636 520.583C534.567 513.53 527.498 519.911 523.121 525.62C521.102 528.307 518.409 535.696 514.706 535.36C508.31 535.025 514.033 526.292 515.379 524.613C517.062 521.926 518.745 519.911 520.428 518.232C521.775 509.499 528.508 504.461 539.953 506.477C538.27 501.774 528.508 501.774 523.795 503.79C518.745 505.805 514.706 509.835 510.666 514.201C500.567 524.949 494.508 536.704 490.805 553.833C489.795 558.871 490.468 565.924 484.072 564.916C468.251 573.984 452.429 582.717 436.271 591.449C435.934 595.479 448.39 599.174 447.043 604.548C446.706 605.555 445.697 606.563 444.687 606.563C441.994 606.899 437.281 601.525 434.924 599.174C425.835 590.441 416.073 582.381 408.331 573.984C385.776 549.131 364.232 527.972 343.698 500.767C333.262 486.661 323.837 472.555 311.045 464.494C302.965 459.456 291.857 456.769 280.075 455.426C269.639 454.082 251.461 455.426 244.392 450.388C235.976 444.678 242.709 432.251 245.738 425.198C234.63 424.191 223.521 423.855 212.075 423.183C205.343 435.61 196.927 447.029 181.105 451.06ZM58.9087 613.952C55.879 620.333 52.1761 626.378 51.5028 633.767C50.4929 649.889 60.9285 659.293 76.7501 657.949C89.2054 656.942 100.314 648.881 107.72 641.828C109.74 639.813 114.789 635.111 114.789 632.76C114.789 631.416 113.106 628.394 112.433 626.043C107.047 608.914 107.72 586.747 111.423 568.275C102.671 566.931 95.2647 564.58 88.8688 560.886C78.7699 576.335 67.3244 596.151 58.9087 613.952Z" fill="#343B43"/>
<path fill-rule="evenodd" clip-rule="evenodd" d="M270.312 333.173C273.679 331.493 275.025 335.188 276.372 337.875C278.055 340.897 280.748 347.279 274.688 346.607C273.005 345.935 265.936 335.188 270.312 333.173Z" fill="#343B43"/>
<defs>
<linearGradient id="paint0_linear_509_1287" x1="177.408" y1="328.824" x2="185.037" y2="325.38" gradientUnits="userSpaceOnUse">
<stop stop-color="#234DAE"/>
<stop offset="1" stop-color="#347BCE"/>
</linearGradient>
<linearGradient id="paint1_linear_509_1287" x1="14.1367" y1="256.557" x2="330.411" y2="36.1444" gradientUnits="userSpaceOnUse">
<stop stop-color="#234DAE"/>
<stop offset="1" stop-color="#347BCE"/>
</linearGradient>
<linearGradient id="paint2_linear_509_1287" x1="352.449" y1="172.512" x2="362.393" y2="166.037" gradientUnits="userSpaceOnUse">
<stop stop-color="#234DAE"/>
<stop offset="1" stop-color="#347BCE"/>
</linearGradient>
<linearGradient id="paint3_linear_509_1287" x1="373.129" y1="420.384" x2="693.772" y2="51.4155" gradientUnits="userSpaceOnUse">
<stop stop-color="#234DAE"/>
<stop offset="1" stop-color="#347BCE"/>
</linearGradient>
<linearGradient id="paint4_linear_509_1287" x1="469.453" y1="503.639" x2="479.347" y2="497.481" gradientUnits="userSpaceOnUse">
<stop stop-color="#234DAE"/>
<stop offset="1" stop-color="#347BCE"/>
</linearGradient>
<linearGradient id="paint5_linear_509_1287" x1="581.023" y1="404.913" x2="730.322" y2="229.955" gradientUnits="userSpaceOnUse">
<stop stop-color="#234DAE"/>
<stop offset="1" stop-color="#347BCE"/>
</linearGradient>
<linearGradient id="paint6_linear_509_1287" x1="319.799" y1="239.614" x2="569.979" y2="75.7234" gradientUnits="userSpaceOnUse">
<stop stop-color="#234DAE"/>
<stop offset="1" stop-color="#347BCE"/>
</linearGradient>
<linearGradient id="paint7_linear_509_1287" x1="-2.27395e-06" y1="124.347" x2="48.2353" y2="92.7489" gradientUnits="userSpaceOnUse">
<stop stop-color="#234DAE"/>
<stop offset="1" stop-color="#347BCE"/>
</linearGradient>
<linearGradient id="paint8_linear_509_1287" x1="887.355" y1="211.774" x2="916.297" y2="192.815" gradientUnits="userSpaceOnUse">
<stop stop-color="#234DAE"/>
<stop offset="1" stop-color="#347BCE"/>
</linearGradient>
<linearGradient id="paint9_linear_509_1287" x1="57.9883" y1="612.254" x2="309.724" y2="326.987" gradientUnits="userSpaceOnUse">
<stop stop-color="#234DAE"/>
<stop offset="1" stop-color="#347BCE"/>
</linearGradient>
</defs>
</svg>
