<svg width="654" height="810" viewBox="0 0 654 810" fill="none" xmlns="http://www.w3.org/2000/svg">
<g clip-path="url(#clip0)">
<path d="M330.35 0L331.41 7.42L379.6 45.81L373.38 91.11L352.86 125.73L363.36 149.48L350.99 159.6L328.29 206.5L307.08 254.14L297.08 294.28L290.33 293.84L272.83 296.57L267.51 297.66L256.16 295.89L254.59 254.14L259.8 207.61L254.59 180.44L257.94 154.76L262.41 141.73L262.78 124.98L263.9 93.72L270.06 95.99L273.95 119.4L272.09 138.01L273.92 161.62L281.16 136.53L295.16 110.84L296.65 86.65L305.96 68.78L302.98 25.23L324.2 12.95L330.35 0Z" fill="url(#paint0_linear)"/>
<path d="M363.36 149.48L351.56 125.9L373.38 91.1101L378.69 47.4801L386.94 48.0701L391.66 42.1701L401.09 39.8101L408.76 61.0401L430.57 81.6801L428.81 104.67L363.36 149.48Z" fill="url(#paint1_linear)"/>
<path d="M386.45 289.72L422.45 254.67C421.7 239.06 420.18 203.59 420.18 203.59C424.74 165.09 428.24 155.96 428.24 155.96L424.74 153.43C413.91 150.78 412.53 143.14 412.53 143.14C416.79 151.74 429.07 152.24 429.07 152.24L435.88 135.7C445.51 119.49 453.47 107.58 453.47 107.58L433.86 101.76C428.79 101.25 417.14 110.88 417.14 110.88L353.32 156C349.77 166.64 324.44 207.17 324.44 207.17C318.36 235.54 304.68 252.26 304.68 252.26L297.08 294.26L325.96 295.26L328.62 288.7L346.62 270.7L386.45 289.72Z" fill="url(#paint2_linear)"/>
<path d="M317.48 293.27L319.95 280.18C321.37 273.1 333.39 262.85 333.39 262.85L353.91 246.58L358.51 233.84L360.28 213.68C363.11 202 369.82 187.86 369.82 187.86L387.51 178L393.17 167.74L405.91 139.79C405.91 139.79 419.67 159.5 417.22 155.36C416.81 154.66 411.05 146.02 411.05 146.02L407.35 134.72L426.82 149L427.17 140.16C428.67 135.298 431.189 130.811 434.56 127L438.09 113.56L439.51 107.9L432.79 102.9L449.79 108.56L431.04 140.75L428.21 149.94C426.919 150.105 425.611 150.105 424.32 149.94C419.291 148.051 414.838 144.888 411.4 140.76C411.4 140.76 411.84 145.53 419.4 154.89C420.46 156.22 426.46 156.89 426.46 156.89L421.16 172.62L416.57 214.71C417.27 233.11 420.1 251.85 420.1 251.85L387.21 285.85L346.82 288L328.07 295.78L317.48 293.27Z" fill="url(#paint3_linear)"/>
<path d="M313.6 296.17L322.43 283.46C331.62 267.54 342.24 260.46 342.24 260.46C352.14 255.51 363.11 256.93 363.11 256.93C368.06 256.57 364.17 250.56 364.17 250.56L360.28 244.19C358.51 239.95 363.11 239.6 363.11 239.6L393.53 261.53L402.01 257.64L419.82 252.74L386.48 286.64L352.53 275.32L327.41 296.54L313.6 296.17Z" fill="url(#paint4_linear)"/>
<path d="M422.471 255.2L429.471 255.61L439.821 238.25L477.451 256.44L483.651 248.17L509.721 209.3L514.271 204.75C512.45 202.694 510.365 200.889 508.071 199.38C508.296 195.246 508.296 191.104 508.071 186.97C507.345 180.06 505.384 173.337 502.281 167.12L492.771 159.68L488.631 156.37L474.991 135.28L465.061 117.91L453.491 107.58L435.701 138.18L429.091 152.24L425.781 151.41L420.781 150.17C419.01 149.604 417.368 148.694 415.949 147.493C414.53 146.292 413.362 144.823 412.511 143.17C413.331 148.17 420.781 151.85 420.781 151.85C426.981 153.92 428.221 155.99 428.221 155.99C426.571 161.78 422.431 176.25 422.431 176.25L419.951 199.41C421.231 230.8 422.471 255.2 422.471 255.2Z" fill="url(#paint5_linear)"/>
<path d="M535.4 196.78L547.33 217.78C545.42 223.99 551.15 238.78 551.15 238.78C556.88 253.1 555.93 259.78 555.93 259.78L542.56 272.67L557.82 295.14L554.48 296.14L516.28 294.71L513.89 287.07L516.28 270.35L523.44 264.15L532.03 231.68V207.77L535.4 196.78Z" fill="url(#paint6_linear)"/>
<path d="M326.26 298.15L328.62 288.74L339.59 277.76L346.65 270.7L377.24 285.6L372.54 289.52L371.75 298.15H326.26Z" fill="white"/>
<path d="M346.65 270.7L377.24 285.6L372.54 289.52L371.75 298.15L392.93 296.58L393.71 288.74L381.17 285.6L346.65 270.7Z" fill="url(#paint7_linear)"/>
<path d="M443.25 298.01L448.5 287.02L453.75 275.09L456.61 273.18L461.39 290.37L466.16 295.62L466.64 301.35L441.34 300.4L443.25 298.01Z" fill="url(#paint8_linear)"/>
<path d="M520.12 266L514.39 256L517.25 248.84L513.43 240.24L517.73 218.76C519.16 212.07 516.78 203 516.78 203L529.67 182L533.97 200.15L532.05 207.79L531.05 216.38L533.44 234.52L531.53 248.37L520.12 266Z" fill="url(#paint9_linear)"/>
<path d="M529.67 182L533.97 200.15L531.58 211.15C529.67 225 532.53 239.32 532.53 239.32C533.97 245 520.12 266 520.12 266L539.22 246.42C539.22 241.17 538.22 224.42 538.22 224.42L541.09 210.09L535.36 196.72L529.67 182Z" fill="url(#paint10_linear)"/>
<path d="M439.21 298.94L444.07 286.79L453.32 266L439.21 236.2L451.86 243.2C459.95 247.56 476.15 255.34 476.15 255.34L494.21 237.59L498.88 229.49L505.74 216.41L511.97 204.89L516.82 203L518.55 214.23C517.92 225.13 513.47 240.23 513.47 240.23L517.29 248.83L514.43 255.99L519.79 264.68L524.15 261.88L524.46 265.61C524.46 265.61 521.35 268.73 519.79 269.35C518.23 269.97 516.99 277.45 516.99 277.45C516.99 277.45 511.99 287.45 512.99 287.72C513.99 287.99 518.29 294.89 518.29 294.89L472.41 298L466.64 301.35L466.16 295.62L461.39 290.37L456.61 273.18L453.75 275.09L441.34 300.4L439.21 298.94Z" fill="url(#paint11_linear)"/>
<path d="M476.15 255.34L482.85 266.66L476.64 277.83L474.16 291.06L472.41 298L489.87 296.44L501.45 281.55L514.69 272.45L508.07 264.6L515.93 248.88L513.43 240.23L504.35 240.2L508.07 217.04L508.9 210.43L482.43 250.12L476.15 255.34Z" fill="url(#paint12_linear)"/>
<path d="M392.93 296.58L393.71 288.74C393.71 288.74 387.32 286.1 388.56 286.1C389.8 286.1 422.47 254.67 422.47 254.67L429.47 255.09C429.47 255.09 417.95 272.93 413.76 278.66C410.61 282.96 400.11 295.2 400.11 295.2L392.93 296.58Z" fill="url(#paint13_linear)"/>
<path d="M397.64 297.37C399.99 296.58 424.3 263.64 424.3 263.64L439.21 236.19L453.32 266L439.21 298.95L397.64 297.37Z" fill="url(#paint14_linear)"/>
<path d="M461.34 247.23L458.45 241.85C456.38 236.48 451 231.51 451 231.51C449.76 224.07 447.7 216.21 447.7 216.21C443.15 207.53 439.84 200.5 439.84 200.5C436.53 194.71 429.5 190.16 429.5 190.16L429.09 179.41L427.74 173.41L426.19 166.57L426.61 162.02L426.97 166.71L428.67 173.3C430.37 181.81 429.95 185 429.95 185L430.59 189.25L439.09 197.33L441.82 202.67L448.82 216.27L452.44 230.73L457.33 237.73L463.12 248.6L461.34 247.23Z" fill="#97D9F2"/>
<path d="M463.12 248.6L458.23 239.03L452.49 230.73L448.82 216.27L444.36 207.13L439.47 198.2L436.47 195.2L430.52 189.25L430.33 188L429.88 185L431.58 189.46C435.41 192.86 440.51 197.97 440.51 197.97L445.4 207.97L449.65 216.26L453.27 230.09L459.72 239L467.37 250.69L463.12 248.6Z" fill="url(#paint15_linear)"/>
<path d="M298.37 287.22L291.29 268.83C287.05 258.57 287.76 244.83 287.76 244.83C285.253 247.216 283.107 249.955 281.39 252.96C278.92 246.59 277.15 231.74 277.15 231.74C277.15 231.74 274.67 237.4 277.86 229.97C281.05 222.54 288.11 209.45 288.11 209.45L305.82 184.29L317.14 160.29L321.38 152.86L326.33 148.97L328.1 131.97L327.39 162.39L327.04 201.3L324.46 207.17L319.97 223.23L308.97 246.57L304.67 252.26L298.37 287.22Z" fill="url(#paint16_linear)"/>
<path d="M308.63 276.26L311.82 270.6C321.37 265.29 329.51 260.34 329.51 260.34C336.538 256.477 342.672 251.175 347.51 244.78L365.51 217.89L373.99 212.59L388.85 203.39L396.28 193.49L403.42 175.8L421.82 161.3L426.61 162.04L420.4 159.53L401.3 175.8L394.58 193.8L387.51 202.29L366.99 215.03L360.62 222.1L345.41 245.8L332.33 256.8L319.95 264.58L309.34 271.31L308.63 276.26Z" fill="white"/>
<path d="M207.8 301.32L215.72 292.18L225.47 283.04L231.56 279.39L244.97 289.75L252.89 293.4L261.42 292.18L267.51 297.66L252.89 300.71L240.09 300.1L218.16 300.71L207.8 301.32Z" fill="white"/>
<path d="M236.55 299.53L240.75 296.73L237.39 291.96L232.63 282.44L231.56 279.39L245.23 290.84L251.96 293.93L255.88 293.64L259.24 293.08L261.48 297.01L262.89 297.85L259.24 299.25L256.16 295.89H249.44L241.31 290.84L246.63 297.57V300.09L236.55 299.53Z" fill="url(#paint17_linear)"/>
<path d="M270.06 95.99L278.74 114.33L277.3 124.95L274.4 142.8L276.81 153.9L281.16 136.53L288.4 125.43L294.19 112.88L282.61 106.13L274.4 97.93L270.06 95.99Z" fill="url(#paint18_linear)"/>
<path d="M273.92 161.62L276.81 153.9L274.4 142.8L278.26 120.61L278.74 114.33L270.06 95.99L270.54 104.68L274.88 124.95L271.99 141.84L273.92 161.62Z" fill="url(#paint19_linear)"/>
<path d="M330.86 196.85L337.62 185.75L342.93 175.13L352.37 157.18L363.36 149.48L355.52 135.9L350.49 125.83L343.22 126.39L335.38 130.3L333.99 139.25L336.17 155.83H331.83L330.86 196.85Z" fill="url(#paint20_linear)"/>
<path d="M379.6 45.81L386.94 48.07L391.66 42.17L401.09 39.81L376.7 22.65L348.36 6.36L330.35 0L331.41 7.42L379.6 45.81Z" fill="url(#paint21_linear)"/>
<path d="M383.75 44.59C383.75 44.59 337.6 7.73999 339.08 7.73999C340.56 7.73999 361.82 23.37 361.82 23.37C361.82 23.37 356.23 15.18 358.1 15.93C359.97 16.68 387.5 34.16 387.5 34.16L394.17 39L386.73 39.75L387.82 43.1L366.61 26.72L383.75 44.59Z" fill="url(#paint22_linear)"/>
<path d="M367.84 147.67L428.81 104.67L426.44 114.19L425.84 123.75L421.65 132.72L412.68 129.13L403.12 135.11L373.82 150.06L367.84 147.67Z" fill="url(#paint23_linear)"/>
<path d="M418.06 277.15L432.02 255.28L436.68 257.14L444.59 254.81L449.71 265.05L418.06 277.15Z" fill="url(#paint24_linear)"/>
<path d="M434.81 249.23L439.84 238.25L443.66 250.16L439.47 252.49L433.42 251.09L434.81 249.23Z" fill="url(#paint25_linear)"/>
<path d="M444.12 240.85L470.18 254.81L475.3 263.19L470.65 272.03L462.74 265.98L454.83 265.05L442.26 239.92L444.12 240.85Z" fill="url(#paint26_linear)"/>
<path d="M513.47 206.88L515.79 211.53L514.4 220.84L516.26 224.1L513.93 233.41L510.67 225.96L512.07 217.58L498.88 229.48L513.47 206.88Z" fill="url(#paint27_linear)"/>
<path d="M453.21 110L437.93 137.39L444.27 144.31L450.33 156.14L463.33 169.4C463.33 169.4 481.21 179.78 482.33 180.07C483.45 180.36 493.58 194.49 493.58 194.49L498.19 209.77L505.69 212.07L511.97 204.9L505.97 199.1V188.7L500.82 169.38L494.19 163.32L483.82 156.4C483.82 156.4 472.57 129.59 471.71 129.59C470.85 129.59 462.73 116 462.73 116L453.21 110Z" fill="url(#paint28_linear)"/>
<path d="M289.07 165.26L303.63 161.62L309.45 139.06L325.47 125.96L332.02 92.4701L353.13 67.7201L369.14 53.1601L363.32 42.2501L347.3 23.3201L334.2 41.5201V58.9901L321.83 50.9801L310.18 72.8201L308.72 97.5701L305.81 114.31L294.19 112.88L287.62 132.51L281.06 143.43L280.34 155.8L289.07 165.26Z" fill="url(#paint29_linear)"/>
<path d="M260.89 176.1L262.34 204.09L268.13 220.01L267.16 238.83L269.09 264.89L275.37 294.33L290.33 293.84L279.23 279.85L278.26 264.41L271.99 256.69L271.02 220.5L266.68 205.05L271.02 183.34L287.91 160.18L290.81 138.94L300.46 110.47L301.42 95.51L293.7 122.05L285.02 142.32L283.57 154.87L273.92 165.48L266.2 172.72L260.89 176.1Z" fill="url(#paint30_linear)"/>
<path d="M290.33 293.84L279.23 279.85L278.26 264.41L271.99 256.69L270.78 222.84L266.68 205.05L271.02 183.34L268.5 206.11L273.82 223.98L277.24 219.79L283.32 207.63L290.92 201.55L305.8 184.29L284.08 214.85L276.1 228.92L276.48 239.18L281.39 252.91L287.76 244.78L289.02 261.99L298.37 287.22L297.08 294.28L290.33 293.84Z" fill="white"/>
<path d="M289.02 244.88C290.16 245.26 297.76 250.58 297.76 250.58L303.85 249.82L300.85 262.75L298.96 271.49L291.35 261.99L289.02 244.88Z" fill="url(#paint31_linear)"/>
<path d="M328.29 206.5L330.4 233.6L324.04 238.9L315.56 241.54L321.39 230.95L325.1 217.71L328.29 206.5Z" fill="url(#paint32_linear)"/>
<path d="M368.42 566.19L319.36 631.28L303.36 643.28L297.68 666.16L315.68 683.16L311.36 730.45L317.36 743.45L330.72 769.45L341.39 787.5L354.39 809.5L379.39 802.5L411.39 783.5L437.39 779.5C450.39 776.5 450.39 789.5 450.39 789.5L469.39 775.5L478.39 752.5L490.39 680.4L468.39 717.4L446.39 747.4L444.39 737.4L443.39 717.4V671.34L453.39 658.34L439.39 664.34C439.39 664.34 430.39 684.34 432.39 687.34C434.39 690.34 428.39 744.42 428.39 744.42L419.39 743.42L409.39 708.42L416.39 686.42L408.39 665.42L392.39 694.42L382.39 683.42L380.39 645.37L373.39 629.37L364.39 613.37L371.39 571.31L368.42 566.19Z" fill="url(#paint33_linear)"/>
<path d="M531.91 312L569.29 312.68L565.21 348.68L567.21 387.42C567.21 387.42 571.97 413.25 571.97 415.29C571.97 417.33 560.42 451.29 560.42 451.29L552.26 475.76L542.06 477.76L557.74 500.94L567.93 579.78V615.13L544.14 653.19L527.14 691.26L513.54 742.26L508.79 789.16L487.71 795.96L468.71 802.07L453.08 798.68L450.56 789.52L469.56 775.52L478.89 750.43L487.04 700.82L486.36 691.3L468.01 721.89L463.55 742.47L461.55 712.47L480.55 659.4L459.15 682.5L457.82 660L453.74 611.06L451.54 571.21L464.61 536.29L489.61 504.12L528.61 476.12L550.91 396.31L533.91 360.31L541.38 340.6L531.91 312Z" fill="url(#paint34_linear)"/>
<path d="M213.91 316.28L242.771 317.02L216.82 369.56L207.201 392.5C222 396.2 223.48 405.08 223.48 405.08L215.34 423.58L198.34 445.03L197.6 466.49L194.6 483.49L199.04 513.83L181.35 579L186.53 634.5L165.82 627.1C157.68 635.24 162.111 650.78 162.111 650.78L146.581 649.3L136.961 637.46C132.521 623.37 117.721 613 117.721 613C98.4805 595.24 98.4805 576 98.4805 576L104.401 536L105.141 459C105.881 436.81 114.76 435.33 114.76 435.33L122.901 442.73L134 416.83L160.63 373.17L175.44 365.77L188.01 343.57L199.111 324.33L211.69 316.19L213.91 316.28Z" fill="url(#paint35_linear)"/>
<path d="M162.11 650.75L176.72 666L185.04 676.88L199.12 698.68L207.44 703.79C211.28 701.88 208.08 688.44 208.08 688.44L205.52 673.72L211.28 670.52L210.64 648.76L220.24 618C222.8 589.2 206.16 540.57 206.16 540.57L313.03 416.46L300.87 368.46L302.15 332.63L321.35 335.19L333.51 314.71L291.28 316L277.2 317.28L259.28 325.6L258 340.32L244.56 350.56L247.76 371L236.88 399.8L259.28 426.68L215.12 477.23C206.12 491.95 206.12 508.59 206.12 508.59L195.88 525.23L181.35 579L186.53 634.5L165.82 627.1C159.45 631.48 162.11 650.75 162.11 650.75Z" fill="url(#paint36_linear)"/>
<path d="M377.98 316.55L375.14 325.88L363.82 334.4L345.16 348.2L336.23 375.38L337.82 394C334.98 405 332.14 418.35 332.14 418.35C335.38 431.35 348.77 439.45 348.77 439.45L356.89 437.82L362.97 423.22L370.28 390.76L379.61 378.18L390.56 367.18L397.46 342.83L407.2 315.65L377.98 316.55Z" fill="#00B0D8"/>
<path d="M242.77 317L285.07 316.13L259.28 325.57L258 340.29L244.56 350.53L247.76 371L236.88 399.8L259.28 426.68L215.69 476C208.79 491 206.16 508.61 206.16 508.61C201.9 519.42 195.92 525.25 195.92 525.25L199.11 513.85L194.67 483.51L198.25 465.05L198.37 445.05L215.37 423.6L223.51 405.1L220.51 399.34L207.2 392.52L242.77 317Z" fill="url(#paint37_linear)"/>
<path d="M116.19 591.58L132.34 613.33C138.65 627.33 150.59 642.11 150.59 642.11L156.2 642.81L156.9 626.67L167.43 621.05L173.05 609.82L173.75 576.13L189.89 513.67L189.19 452.6C175.19 446.29 169.54 501.74 169.54 501.74C153.39 580.35 145.67 556.48 145.67 556.48L151.99 468C137.95 467.34 116.19 591.58 116.19 591.58Z" fill="url(#paint38_linear)"/>
<path d="M207.44 703.79L216.56 706C224.98 707.41 232.71 700.39 232.71 700.39L246.04 701.79L250.95 670.91L234.11 671.61L217.26 670.91L210.26 651.26L211.26 670.54L205.5 673.74L207.44 703.79Z" fill="url(#paint39_linear)"/>
<path d="M206.16 540.61L222.16 543.85L246.02 538.93L267.82 531.21L283.96 528.41L295.9 533.32L325.37 555.78L328.82 585.26L333.74 586.66L339.35 572.66L365.35 524.23V497.52L373.07 442.78L391.32 399.26L419.4 390.84L441.82 379.61L451.64 362.76L460.82 343.11L483.28 320L479.77 317.89L453.77 340.35L456.58 333.35L473.42 317.21L451.66 316.51L443.94 335.46L438.33 352.3C429.9 370.55 422.18 376.17 422.18 376.17L425.69 358.62L446.05 316.51C446.05 316.51 408.99 314.41 407.17 315.81C405.35 317.21 390.53 367.34 390.53 367.34L375.89 381L370.98 392.93L367.47 408.37C359.75 438.55 354.13 437.85 354.13 437.85L345.71 437.15L332.14 418.38L337.82 394L336.19 375.34L345.12 348.2L375.12 325.88L377.96 316.55L333.49 314.71L321.33 335.19L302.13 332.63L300.82 368.46L312.98 416.46L206.16 540.61Z" fill="url(#paint40_linear)"/>
<path d="M347.82 371.18L362.56 362.76L373.82 356.45C387.16 345.21 393.48 327.67 393.48 327.67L392.77 319.95L382.95 320.65L370.32 338.2C354.17 347.32 347.85 355.74 347.85 355.74L347.82 371.18Z" fill="url(#paint41_linear)"/>
<path d="M263.07 426.17H287.38C277.83 412.27 257 402.72 257 402.72L244 398.38L263.07 426.17Z" fill="url(#paint42_linear)"/>
<path d="M291.28 316L307.35 315.91L298.67 323.73L267.41 335.88L263.07 344.56L247.45 353.25L258 340.32L259.28 325.6L291.28 316Z" fill="url(#paint43_linear)"/>
<path d="M402.13 315.98L407.2 315.74L404.94 321.6L395.89 346.86L391.53 364.01L390.56 367.27L380.3 376.48L375.89 381.01L380.93 368.37L386.22 365.88L389.34 354.96L396.2 339.06L399.01 321.6L402.13 315.98Z" fill="url(#paint44_linear)"/>
<path d="M446.08 316.44H451.69L448.59 326.27C443.59 340.93 437.68 356.52 437.68 356.52L428.95 370.24L419.95 378.35L425.77 358.55L434.3 340.31L439.6 323.16L446.08 316.44Z" fill="url(#paint45_linear)"/>
<path d="M210.25 651.24L217.26 670.89H250.95L270.09 691.61L301.88 711.75L312.48 736.12L315.66 683.13L297.65 666.18L300.82 647.11L324.14 626.97L371.82 563.39L370.76 544.32L365.36 524.2L333.67 579.29L332.62 562.33L326.26 551.74L288.11 524.19L246.04 538.93L222.18 543.85L206.16 540.61L220.29 607.9L210.25 651.24Z" fill="url(#paint46_linear)"/>
<path d="M232.71 700.37L244.25 698.37L250.95 670.89L273.29 691.36C298.29 705.36 308.29 719.36 308.29 719.36L312.43 736.08L330.32 759.42L341.32 787.42L312.32 748.36L294.32 728.36L259.27 722.36L240.27 709.36L232.71 700.37Z" fill="url(#paint47_linear)"/>
<path d="M371.82 563.39L366.42 595.23L364.42 613.23L378.42 636.23L380.42 657.23L382.42 683.23L392.42 694.23C401.42 693.23 395.42 654.17 395.42 654.17L405.42 622.17L403.42 586.17L419.42 572.17L418.42 531.11L430.42 494.06L437.42 464.06L431.42 474.06L420.42 503.06L411.42 530.06L407.42 553.06L411.42 569.06L392.42 584.06L387.42 603.06L380.42 574.06L384.42 545.06L368.42 510.06L372.42 538.06L371.82 563.39Z" fill="url(#paint48_linear)"/>
<path d="M392.45 694.37L397.46 681.35L395.46 654.31L405.47 622.27L403.47 586.22L419.49 572.2L418.49 527.14L437.52 468.06L471.57 453.04L511.62 427L519.63 391.95L527.64 440.02L528.64 476.07L452.54 533.15L460.55 565.19L435.51 608.25L424.5 638.29L406.48 682.35L392.45 694.37Z" fill="url(#paint49_linear)"/>
<path d="M433.51 754.45L444.53 737.43L448.53 702.38L450.54 664.33L453.54 638.29L457.55 581.21L465.56 556.18L462.55 538.15L489.59 504.11L452.54 533.15L451.54 571.2L428.51 605.25L444.53 611.25L438.52 635.28L426.5 667.33L436.52 691.36L427.5 729.42L433.51 754.45Z" fill="url(#paint50_linear)"/>
<path d="M451.54 575.2L445.54 657.32L450.54 664.32L442.54 679.32L444.54 721.32L445.54 752.37L463.54 742.37L461.54 712.37L473.54 678.37L480.54 659.37L502.54 640.37L518.54 604.37L529.54 584.37L503.54 626.43L485.54 643.43C485.54 643.43 462.54 661.43 463.54 664.43C464.54 667.43 457.54 680.43 457.54 680.43L464.54 650.43L480.54 631.43L462.54 641.43L468.54 624.43L485.54 603.43L457.54 624.43L463.54 600.43L457.54 577.43L469.54 545.38L451.54 575.2Z" fill="url(#paint51_linear)"/>
<path d="M451.54 571.2L429.51 595.23L412.48 646.3L408.48 665.33L416.49 686.36L409.48 708.39L418.49 737.43L423.5 754.45H433.51L429.51 733.42L435.51 706.38L434.51 674.34L445.53 657.32L446.53 630.28L451.54 571.2Z" fill="url(#paint52_linear)"/>
<path d="M365.36 524.2L371.82 563.39L375.43 549.17L372.43 518.17L384.43 545.17L380.43 568.17L383.43 591.17L387.43 603.17L392.43 584.17L411.43 569.17L407.43 553.17L419.43 509.11L433.43 467.05C441.43 465.05 471.48 453.05 471.48 453.05C505.61 437 513.62 423 513.62 423L519.62 392L523.62 379L505.62 368L512.62 352L483.28 320L462.55 339.93L446.55 369.93L437.55 380.93L407.55 393.93L391.4 399.24L373.43 435L371.43 463L365.36 524.2Z" fill="url(#paint53_linear)"/>
<path d="M473.451 317.14L479.351 316.49L479.771 317.84L453.801 340.3L455.341 333.15L473.451 317.14Z" fill="url(#paint54_linear)"/>
<path d="M479.35 316.49L483.28 320L512.62 351.9C512.62 351.9 503.79 367.45 505.62 367.9C507.45 368.35 523.62 378.9 523.62 378.9L518.97 396.9L525.09 425.45L528.62 476.03L538 447.2L550.92 396.2L534.61 362.2L544.12 342.49L531.91 312L502.68 315.4L486.36 314L479.35 316.49Z" fill="url(#paint55_linear)"/>
<path d="M-175.91 310.67C-154.08 310.67 -132.39 313.85 -111.57 313.84C-90.2801 313.84 -68.72 310.49 -47.23 309.62C-3.39005 307.83 38.8799 312.79 81.4399 312.79C113.23 312.79 147.59 307.19 178.21 309.85C138.93 318.29 95.66 313.33 55.15 311.75C14.26 310.17 -28.85 317.25 -70.85 313.87C-89.5749 312.403 -108.4 312.825 -127.04 315.13C-144.5 317.27 -161.11 313.63 -178.54 311.73L-175.91 310.67Z" fill="white"/>
<path d="M223.25 305.39C245.86 305.39 264.96 310.17 286.25 311.78C307.4 313.38 326.18 307.85 347.96 308.56C391.84 309.99 434.56 311.46 479.26 309.67C509.11 308.48 538.79 310.54 568.54 311.72C583.41 312.32 598.4 311.08 613.25 311.67C623.67 312.09 646.13 317.6 653.79 310.91C631.47 310.09 610.18 305.85 588.24 304.34C567.15 302.88 544.24 304.6 523.93 305.41C480.82 307.13 436.82 309.28 393.82 307.56C363.1 306.33 333 303.89 301.98 306.44C285.9 307.77 272.75 303.33 257.41 302.16C241.54 300.96 227.11 304.5 212.7 307.5L223.25 305.39Z" fill="white"/>
<path d="M-254.43 318.52C-238.43 314.84 -225.34 310.23 -208.58 309.52C-192.01 308.8 -175.48 311.6 -159.71 313.66C-129.09 317.66 -96.0903 323.09 -63.8703 321.82C-28.7003 320.43 17.6697 304 52.2197 318.35C36.6097 319.73 19.9297 315.57 3.32971 316.86C-12.2503 318.06 -26.8403 321.11 -43.5403 321.78C-76.6503 323.1 -106.31 324.25 -138.24 319.16C-157.24 316.16 -176.24 310.28 -196.35 311.16C-216.11 312.02 -233.35 321.21 -253.24 320.86C-253.11 319.71 -253.84 319.86 -254.43 319.36V318.52Z" fill="#74CDDC"/>
<path d="M100.19 315.24C113.38 319.14 134.89 315.67 148.32 314.6C164.41 313.33 180.84 308.89 197.06 306.26C228.9 301.1 258.14 309.57 289.74 313.42C306.238 315.314 322.908 315.132 339.36 312.88C329.85 320.88 303.69 320.12 290.75 318.56C275.34 316.7 261.26 313.13 245.92 311.14C212.73 306.83 184.06 311.65 152.19 317.72C134.92 321.01 115.9 320.44 99.1903 315.24H100.19Z" fill="#74CDDC"/>
<path d="M147.07 318.52C156.96 321.52 169.4 317.52 178.89 316.24C189.01 314.93 198.89 313.19 209.23 312.78C231.01 311.92 249.55 315.69 269.5 318.15C250.74 311.07 227.5 307.81 207.25 308.72C195.99 309.23 186.99 312.28 176.57 314.37C166.47 316.37 154.91 316.04 145.11 318.68C153.35 323.52 174 320.98 184.77 320.98C199.02 320.98 213.62 321.54 227.47 319.98C220.11 316.07 208.02 318.15 199.04 318.5C187.89 318.93 176.58 318.5 165.41 318.5L147.07 318.52Z" fill="#1672A7"/>
<path d="M293.82 313.6C314.33 318.34 340.56 307.91 359.7 316.92C331.94 320.51 301.24 321.97 274.77 315.2C289.77 318.46 303.7 322.1 319.35 323.4C335.35 324.72 350.45 320.4 366.17 318.52C399.39 314.52 434.26 316.58 468.08 315.24C476.16 314.92 484.63 314.44 492.18 312.74C425.86 311.87 358.69 304.95 293.8 312.74C292.87 312.85 289.86 313.88 290.62 313.58C291.68 313.58 292.77 313.52 293.82 313.58V313.6Z" fill="#45C6F2"/>
<path d="M-244.239 321.8C-211.689 315.8 -182.319 319.8 -150.539 323.46C-119.419 327.05 -82.6094 326.35 -50.6194 323.46C-33.3794 321.88 -15.3595 318.55 2.06055 320.18C-14.0895 321.18 -29.0094 317.83 -45.5294 319.18C-62.0494 320.53 -77.9395 321.98 -94.4395 322.64C-126.999 323.93 -155.889 313.64 -187.179 311.16C-211.839 309.16 -230.179 314.44 -251.289 322.46C-248.009 323.26 -226.059 316.2 -222.529 316.07L-244.239 321.8Z" fill="#45C6F2"/>
<path d="M172.55 318.52C189.09 318.52 204.15 318.94 222.1 319.97C219.99 320.9 224.72 321.44 221.76 321.8C238.52 320.26 255.28 321.8 272.41 321.8C288.26 321.8 307.62 326.8 323.06 322.58C317.06 321.35 309.74 321.52 303.29 320.98C320.77 319.51 344.04 322.65 358.67 315.98C324.24 316.44 291.3 320.34 257.26 312.88C260.13 313.32 265.41 313.42 267.63 315.29C258.08 316.05 248.4 313.74 239.8 312.7C231.2 311.66 221.8 312.29 213.31 311.92C198.58 311.27 179.11 312.82 167.53 318.3C168.523 318.446 169.527 318.506 170.53 318.48L172.55 318.52Z" fill="#25A6C7"/>
<path d="M254.07 318.52C266.76 320.29 282.19 319.52 295.07 319.98C308.77 320.48 323.07 323.18 336.62 320.98C365.93 316.27 391.22 314.03 421.91 314.44C391.38 306.06 355.68 315.68 325.64 317.86C310.02 319 294.06 319.46 278.59 317.63C274.34 317.13 233.02 311.63 232.31 316.68L232.02 316.9C240.02 317.5 253.27 320.99 260.19 318.5L254.07 318.52Z" fill="white"/>
<path d="M33.5904 314.29C50.8604 320.09 73.7004 324.43 93.2204 324.62C104.07 324.72 114.59 325.36 125.28 324.5C135.23 323.7 147.07 321.62 157.15 322.55C150.26 322.28 142.61 320.55 135.73 319.46C139.37 318.86 145.73 318.06 148.45 318.46C134.557 318.377 120.679 317.519 106.88 315.89C113.67 316.11 120.19 317.2 127.2 316.89C133.2 316.64 141.8 314.94 146.53 315.34C124.53 315.34 102.06 314.95 80.5304 313.16C76.1404 312.79 18.5304 308.39 19.2404 312.65L19.0604 312.78C25.9404 312.7 30.7404 313.78 36.7904 315.34L33.5904 314.29Z" fill="#45C6F2"/>
<path d="M24.6102 312.23C33.2202 314.03 41.3703 317.51 49.7603 318.83C58.6403 320.22 68.0502 320.29 77.1902 321C96.0202 322.48 113.99 324.38 132.78 322C122.28 322 112.36 319.46 102.25 319.82C105.38 319 110.39 319.42 114.19 319.42C106.66 319.52 98.9202 318.18 91.3002 317.87C83.6802 317.56 76.1303 317.75 68.8203 316.87C56.6403 315.41 35.5203 307.96 23.9703 312.72L24.6102 312.23Z" fill="#25A6C7"/>
<path d="M381.12 318.42C391.95 319.42 403.96 317.42 415.12 317.91C424.73 318.3 434.84 318.59 444.44 318.91C462.27 319.58 482.19 318.91 498.87 315.29C496.748 314.895 494.687 314.223 492.74 313.29C516.49 312.03 541.1 313.1 564.49 314.85C591.05 316.85 617.58 314.21 644.49 314.21C621.7 312.3 599.38 311.63 576.08 311.63C548.76 311.63 521.15 309.54 494.01 309.57C480.01 309.57 463.56 307.03 449.96 309.97C460.68 312.48 473.83 310.08 483.84 313.18C476.44 315.63 463.72 314.82 455.36 315.79C446.418 316.699 437.408 316.73 428.46 315.88C419.551 315.132 410.605 314.922 401.67 315.25C395.6 315.48 382.03 315.25 377.95 318.86L381.12 318.42Z" fill="#25A6C7"/>
<path d="M20.7498 310.77C36.4698 307.22 57.8398 310.08 73.3198 312.43C91.8098 315.23 108.84 318.74 128.26 318.48C120.18 321.38 109.58 318.89 101.53 318C92.0298 316.95 82.6598 316.27 73.3198 314.78C55.5398 311.94 37.7098 308.78 19.4698 311.78L20.7498 310.77Z" fill="white"/>
<path d="M168.2 308.7C184.31 308.7 197.92 305.14 213.72 305.12C228.87 305.12 242.63 310.22 257.72 309.72C243.1 313.22 227.01 307.83 212.4 306.64C195.91 305.3 182.13 309.35 166.24 309.74L168.2 308.7Z" fill="white"/>
<path d="M493.24 312.83C495.011 312.946 496.737 313.44 498.3 314.28C489.08 314.53 480.09 318.08 470.8 318.53C461.29 319 450.9 318.16 442.17 319.05C474.9 319.25 509.33 315.93 540.77 315.93C529.02 316.62 514.34 313.86 503.4 313.86C532.78 313.86 561.31 316.96 590.49 316.96C582.88 316.9 575.49 314.19 567.6 313.86C559.29 313.52 550.92 314.11 542.6 313.86C533.77 313.6 524.98 313.19 516.31 312.86C509.8 312.59 498.65 310.99 493.24 312.86V312.83Z" fill="white"/>
</g>
<defs>
<linearGradient id="paint0_linear" x1="211.86" y1="156.09" x2="313.59" y2="147.61" gradientUnits="userSpaceOnUse">
<stop stop-color="#AEDEE4"/>
<stop offset="1" stop-color="white"/>
</linearGradient>
<linearGradient id="paint1_linear" x1="338.86" y1="99.2601" x2="485.08" y2="83.7201" gradientUnits="userSpaceOnUse">
<stop stop-color="#126E9E"/>
<stop offset="0.63" stop-color="#28B7E4"/>
<stop offset="0.73" stop-color="#28B6E1"/>
<stop offset="0.79" stop-color="#28B3D9"/>
<stop offset="0.84" stop-color="#28AECA"/>
<stop offset="0.89" stop-color="#28A6B5"/>
<stop offset="0.93" stop-color="#279D99"/>
<stop offset="0.97" stop-color="#279178"/>
<stop offset="1" stop-color="#278658"/>
</linearGradient>
<linearGradient id="paint2_linear" x1="-139401" y1="50685.8" x2="-133875" y2="37674.4" gradientUnits="userSpaceOnUse">
<stop stop-color="#AEDEE4"/>
<stop offset="1" stop-color="white"/>
</linearGradient>
<linearGradient id="paint3_linear" x1="359.67" y1="194.86" x2="415.53" y2="206.95" gradientUnits="userSpaceOnUse">
<stop stop-color="#2AB9E6"/>
<stop offset="1" stop-color="#C0E6EC"/>
</linearGradient>
<linearGradient id="paint4_linear" x1="-90415.3" y1="14876" x2="-91131.1" y2="17255.7" gradientUnits="userSpaceOnUse">
<stop stop-color="#2AB9E6"/>
<stop offset="1" stop-color="#C0E6EC"/>
</linearGradient>
<linearGradient id="paint5_linear" x1="405.961" y1="217.64" x2="486.481" y2="169.43" gradientUnits="userSpaceOnUse">
<stop stop-color="#126E9E"/>
<stop offset="1" stop-color="#2AB9E6"/>
</linearGradient>
<linearGradient id="paint6_linear" x1="530.68" y1="246.51" x2="592.27" y2="256.54" gradientUnits="userSpaceOnUse">
<stop stop-color="#1672A7"/>
<stop offset="1" stop-color="#278658"/>
</linearGradient>
<linearGradient id="paint7_linear" x1="346.65" y1="284.43" x2="393.71" y2="284.43" gradientUnits="userSpaceOnUse">
<stop stop-color="#2598D5"/>
<stop offset="1" stop-color="#AEDEE4"/>
</linearGradient>
<linearGradient id="paint8_linear" x1="-23658.2" y1="8851.51" x2="-23510.8" y2="8303.81" gradientUnits="userSpaceOnUse">
<stop stop-color="#AEDEE4"/>
<stop offset="1" stop-color="white"/>
</linearGradient>
<linearGradient id="paint9_linear" x1="-20701.5" y1="18908.1" x2="-20406.1" y2="18915.3" gradientUnits="userSpaceOnUse">
<stop stop-color="#AEDEE4"/>
<stop offset="1" stop-color="white"/>
</linearGradient>
<linearGradient id="paint10_linear" x1="-20819.8" y1="18951.8" x2="-21317.1" y2="18967" gradientUnits="userSpaceOnUse">
<stop stop-color="#2598D5"/>
<stop offset="1" stop-color="#AEDEE4"/>
</linearGradient>
<linearGradient id="paint11_linear" x1="499.35" y1="253.87" x2="461.66" y2="249.82" gradientUnits="userSpaceOnUse">
<stop stop-color="#2381BD"/>
<stop offset="1" stop-color="#33619F"/>
</linearGradient>
<linearGradient id="paint12_linear" x1="-43120.7" y1="22602.1" x2="-42365.2" y2="22561.7" gradientUnits="userSpaceOnUse">
<stop stop-color="#2381BD"/>
<stop offset="1" stop-color="#33619F"/>
</linearGradient>
<linearGradient id="paint13_linear" x1="415.96" y1="276.34" x2="399.86" y2="274.61" gradientUnits="userSpaceOnUse">
<stop stop-color="#2AB9E6"/>
<stop offset="1" stop-color="#126E9E"/>
</linearGradient>
<linearGradient id="paint14_linear" x1="-51515.6" y1="19218.6" x2="-50698.8" y2="17657.3" gradientUnits="userSpaceOnUse">
<stop stop-color="#AEDEE4"/>
<stop offset="1" stop-color="white"/>
</linearGradient>
<linearGradient id="paint15_linear" x1="-34330.1" y1="14496.9" x2="-35733" y2="14496.9" gradientUnits="userSpaceOnUse">
<stop stop-color="#2381BD"/>
<stop offset="1" stop-color="#33619F"/>
</linearGradient>
<linearGradient id="paint16_linear" x1="263.13" y1="220.72" x2="354.62" y2="200.38" gradientUnits="userSpaceOnUse">
<stop offset="0.31" stop-color="#126E9E"/>
<stop offset="0.68" stop-color="#2AB9E6"/>
<stop offset="1" stop-color="#45C6F2"/>
</linearGradient>
<linearGradient id="paint17_linear" x1="-22055.7" y1="6523.33" x2="-23385.7" y2="5731.08" gradientUnits="userSpaceOnUse">
<stop stop-color="#2598D5"/>
<stop offset="1" stop-color="#AEDEE4"/>
</linearGradient>
<linearGradient id="paint18_linear" x1="-18239.3" y1="7353.85" x2="-19216.2" y2="7310.62" gradientUnits="userSpaceOnUse">
<stop stop-color="#1672A7"/>
<stop offset="1" stop-color="#278658"/>
</linearGradient>
<linearGradient id="paint19_linear" x1="-6219.04" y1="9811.2" x2="-6485.26" y2="9779.9" gradientUnits="userSpaceOnUse">
<stop stop-color="#126E9E"/>
<stop offset="1" stop-color="#2AB9E6"/>
</linearGradient>
<linearGradient id="paint20_linear" x1="266.94" y1="139.43" x2="384.48" y2="174.35" gradientUnits="userSpaceOnUse">
<stop stop-color="#CAE9F8"/>
<stop offset="1" stop-color="#C0E6EC"/>
</linearGradient>
<linearGradient id="paint21_linear" x1="-54965.7" y1="609.528" x2="-65517.3" y2="2986.24" gradientUnits="userSpaceOnUse">
<stop stop-color="#2AB9E6"/>
<stop offset="1" stop-color="#C0E6EC"/>
</linearGradient>
<linearGradient id="paint22_linear" x1="-43791.7" y1="644.14" x2="-50191.2" y2="2109.23" gradientUnits="userSpaceOnUse">
<stop stop-color="#126E9E"/>
<stop offset="0.63" stop-color="#28B7E4"/>
<stop offset="0.73" stop-color="#28B6E1"/>
<stop offset="0.79" stop-color="#28B3D9"/>
<stop offset="0.84" stop-color="#28AECA"/>
<stop offset="0.89" stop-color="#28A6B5"/>
<stop offset="0.93" stop-color="#279D99"/>
<stop offset="0.97" stop-color="#279178"/>
<stop offset="1" stop-color="#278658"/>
</linearGradient>
<linearGradient id="paint23_linear" x1="394.31" y1="114.13" x2="401.48" y2="135.66" gradientUnits="userSpaceOnUse">
<stop stop-color="#ABDCDB"/>
<stop offset="1" stop-color="white"/>
</linearGradient>
<linearGradient id="paint24_linear" x1="427.55" y1="256.86" x2="434.77" y2="273.09" gradientUnits="userSpaceOnUse">
<stop stop-color="#C0E6EC"/>
<stop offset="0.29" stop-color="#D7EFF3"/>
<stop offset="0.74" stop-color="#F4FBFC"/>
<stop offset="1" stop-color="white"/>
</linearGradient>
<linearGradient id="paint25_linear" x1="-9109.12" y1="3659.13" x2="-9207.83" y2="3819.11" gradientUnits="userSpaceOnUse">
<stop stop-color="#C0E6EC"/>
<stop offset="0.29" stop-color="#D7EFF3"/>
<stop offset="0.74" stop-color="#F4FBFC"/>
<stop offset="1" stop-color="white"/>
</linearGradient>
<linearGradient id="paint26_linear" x1="461.3" y1="235.87" x2="457.11" y2="261.93" gradientUnits="userSpaceOnUse">
<stop stop-color="#45C6F2"/>
<stop offset="1" stop-color="#33619F"/>
</linearGradient>
<linearGradient id="paint27_linear" x1="-16933.1" y1="5920.65" x2="-17135.8" y2="6352.56" gradientUnits="userSpaceOnUse">
<stop stop-color="#45C6F2"/>
<stop offset="1" stop-color="#33619F"/>
</linearGradient>
<linearGradient id="paint28_linear" x1="466.73" y1="176.46" x2="475.38" y2="166.08" gradientUnits="userSpaceOnUse">
<stop stop-color="#52C7E5"/>
<stop offset="1" stop-color="#2AB9E6"/>
</linearGradient>
<linearGradient id="paint29_linear" x1="-74055" y1="16897.2" x2="-70921.6" y2="14691.9" gradientUnits="userSpaceOnUse">
<stop stop-color="#AEDEE4"/>
<stop offset="1" stop-color="white"/>
</linearGradient>
<linearGradient id="paint30_linear" x1="-29302.1" y1="37137.7" x2="-33221.5" y2="37260" gradientUnits="userSpaceOnUse">
<stop stop-color="#2AB9E6"/>
<stop offset="1" stop-color="#C0E6EC"/>
</linearGradient>
<linearGradient id="paint31_linear" x1="295.23" y1="246.2" x2="300.55" y2="268.25" gradientUnits="userSpaceOnUse">
<stop stop-color="#45C6F2"/>
<stop offset="1" stop-color="#126E9E"/>
</linearGradient>
<linearGradient id="paint32_linear" x1="-11673.2" y1="8089.1" x2="-11837.8" y2="8083.28" gradientUnits="userSpaceOnUse">
<stop stop-color="#CAE9F8"/>
<stop offset="1" stop-color="#C0E6EC"/>
</linearGradient>
<linearGradient id="paint33_linear" x1="366.91" y1="758.84" x2="398.86" y2="677.96" gradientUnits="userSpaceOnUse">
<stop stop-color="#126E9E"/>
<stop offset="1" stop-color="#00B0D8"/>
</linearGradient>
<linearGradient id="paint34_linear" x1="465.68" y1="404.02" x2="592.83" y2="827.84" gradientUnits="userSpaceOnUse">
<stop stop-color="#0D5372"/>
<stop offset="0.48" stop-color="#1672A7"/>
<stop offset="0.67" stop-color="#1673A5"/>
<stop offset="0.77" stop-color="#18759D"/>
<stop offset="0.85" stop-color="#1B788F"/>
<stop offset="0.92" stop-color="#1F7D7C"/>
<stop offset="0.98" stop-color="#248364"/>
<stop offset="1" stop-color="#278658"/>
</linearGradient>
<linearGradient id="paint35_linear" x1="259.821" y1="535.26" x2="112.56" y2="417.46" gradientUnits="userSpaceOnUse">
<stop stop-color="#2AB9E6"/>
<stop offset="1" stop-color="#B8E2E3"/>
</linearGradient>
<linearGradient id="paint36_linear" x1="-131073" y1="187801" x2="-160217" y2="174809" gradientUnits="userSpaceOnUse">
<stop stop-color="#126E9E"/>
<stop offset="1" stop-color="#00B0D8"/>
</linearGradient>
<linearGradient id="paint37_linear" x1="194.67" y1="420.7" x2="285.07" y2="420.7" gradientUnits="userSpaceOnUse">
<stop stop-color="#25A6C7"/>
<stop offset="1" stop-color="#71C9C9"/>
</linearGradient>
<linearGradient id="paint38_linear" x1="191.05" y1="548.88" x2="94.9796" y2="541.82" gradientUnits="userSpaceOnUse">
<stop stop-color="#00B0D8"/>
<stop offset="1" stop-color="#71C9C9"/>
</linearGradient>
<linearGradient id="paint39_linear" x1="-31734.5" y1="37930.3" x2="-33799.3" y2="37930.3" gradientUnits="userSpaceOnUse">
<stop stop-color="#2381BD"/>
<stop offset="1" stop-color="#33619F"/>
</linearGradient>
<linearGradient id="paint40_linear" x1="-194717" y1="122880" x2="-271513" y2="122880" gradientUnits="userSpaceOnUse">
<stop stop-color="#2AB9E6"/>
<stop offset="1" stop-color="#B8E2E3"/>
</linearGradient>
<linearGradient id="paint41_linear" x1="373.47" y1="349.74" x2="363.23" y2="336.37" gradientUnits="userSpaceOnUse">
<stop stop-color="#00B0D8"/>
<stop offset="1" stop-color="#B8E2E3"/>
</linearGradient>
<linearGradient id="paint42_linear" x1="-33073.6" y1="11835.6" x2="-31497" y2="12179" gradientUnits="userSpaceOnUse">
<stop stop-color="#25A6C7"/>
<stop offset="1" stop-color="#71C9C9"/>
</linearGradient>
<linearGradient id="paint43_linear" x1="-46650.1" y1="12725.1" x2="-43074.2" y2="13525.5" gradientUnits="userSpaceOnUse">
<stop stop-color="#2AB9E6"/>
<stop offset="1" stop-color="#B8E2E3"/>
</linearGradient>
<linearGradient id="paint44_linear" x1="-26832.5" y1="24985.8" x2="-29296.1" y2="23237.8" gradientUnits="userSpaceOnUse">
<stop stop-color="#2AB9E6"/>
<stop offset="1" stop-color="#126E9E"/>
</linearGradient>
<linearGradient id="paint45_linear" x1="-29946" y1="19975.3" x2="-28406.3" y2="20887.6" gradientUnits="userSpaceOnUse">
<stop stop-color="#126E9E"/>
<stop offset="1" stop-color="#00B0D8"/>
</linearGradient>
<linearGradient id="paint46_linear" x1="256.93" y1="569.82" x2="344.61" y2="640.51" gradientUnits="userSpaceOnUse">
<stop stop-color="#00B0D8"/>
<stop offset="0.17" stop-color="#0CB3D6"/>
<stop offset="0.47" stop-color="#2BBAD2"/>
<stop offset="0.86" stop-color="#5EC5CC"/>
<stop offset="1" stop-color="#71C9C9"/>
</linearGradient>
<linearGradient id="paint47_linear" x1="-83664.2" y1="78945.2" x2="-86375.3" y2="94396.9" gradientUnits="userSpaceOnUse">
<stop stop-color="#1672A7"/>
<stop offset="1" stop-color="#278658"/>
</linearGradient>
<linearGradient id="paint48_linear" x1="-64500.5" y1="110884" x2="-86244.5" y2="153053" gradientUnits="userSpaceOnUse">
<stop stop-color="#2AB9E6"/>
<stop offset="1" stop-color="#B8E2E3"/>
</linearGradient>
<linearGradient id="paint49_linear" x1="462.69" y1="597.99" x2="468.7" y2="668.09" gradientUnits="userSpaceOnUse">
<stop stop-color="#2381BD"/>
<stop offset="1" stop-color="#1E4B7C"/>
</linearGradient>
<linearGradient id="paint50_linear" x1="442.73" y1="735.49" x2="450.89" y2="645.09" gradientUnits="userSpaceOnUse">
<stop stop-color="#126E9E"/>
<stop offset="1" stop-color="#25A6C7"/>
</linearGradient>
<linearGradient id="paint51_linear" x1="-90850.9" y1="121312" x2="-75380.3" y2="125898" gradientUnits="userSpaceOnUse">
<stop stop-color="#00B0D8"/>
<stop offset="0.17" stop-color="#0CB3D6"/>
<stop offset="0.47" stop-color="#2BBAD2"/>
<stop offset="0.86" stop-color="#5EC5CC"/>
<stop offset="1" stop-color="#71C9C9"/>
</linearGradient>
<linearGradient id="paint52_linear" x1="-40680.2" y1="112561" x2="-32586.6" y2="117316" gradientUnits="userSpaceOnUse">
<stop stop-color="#00B0D8"/>
<stop offset="0.17" stop-color="#0CB3D6"/>
<stop offset="0.47" stop-color="#2BBAD2"/>
<stop offset="0.86" stop-color="#5EC5CC"/>
<stop offset="1" stop-color="#71C9C9"/>
</linearGradient>
<linearGradient id="paint53_linear" x1="-139177" y1="133059" x2="-174516" y2="130276" gradientUnits="userSpaceOnUse">
<stop stop-color="#25A6C7"/>
<stop offset="1" stop-color="#71C9C9"/>
</linearGradient>
<linearGradient id="paint54_linear" x1="-24319.8" y1="8166.65" x2="-25248.9" y2="8023.84" gradientUnits="userSpaceOnUse">
<stop stop-color="#25A6C7"/>
<stop offset="1" stop-color="#71C9C9"/>
</linearGradient>
<linearGradient id="paint55_linear" x1="-74553.9" y1="65110.4" x2="-72555.4" y2="65067.9" gradientUnits="userSpaceOnUse">
<stop stop-color="#2381BD"/>
<stop offset="1" stop-color="#33619F"/>
</linearGradient>
<clipPath id="clip0">
<rect width="654" height="810" fill="white" transform="matrix(-1 0 0 1 654 0)"/>
</clipPath>
</defs>
</svg>
