<svg width="583" height="480" viewBox="0 0 583 480" fill="none" xmlns="http://www.w3.org/2000/svg">
<path d="M451.481 336.601C451.481 336.601 438.961 323.337 453.484 312.075C453.484 312.075 463 307.07 460.496 293.055C457.992 279.291 462.499 268.279 475.52 267.278C488.541 266.277 513.331 274.786 512.831 283.796C513.331 285.297 513.582 287.549 512.58 290.052C509.826 298.561 505.819 308.822 509.075 312.075C510.827 314.077 513.832 316.83 518.34 318.582C528.857 323.337 535.117 329.343 535.117 341.105C535.117 359.124 503.315 349.864 503.315 349.864L451.481 336.601Z" fill="white"/>
<path d="M182.045 249.26C220.906 249.26 252.409 217.775 252.409 178.936C252.409 140.098 220.906 108.613 182.045 108.613C143.184 108.613 111.681 140.098 111.681 178.936C111.681 217.775 143.184 249.26 182.045 249.26Z" fill="url(#paint0_linear_322_1814)"/>
<path d="M436.959 454.724H217.603C213.346 454.724 210.091 451.22 210.091 447.216V175.933C210.091 171.679 213.597 168.425 217.603 168.425H436.959C441.215 168.425 444.471 171.929 444.471 175.933V447.216C444.471 451.47 441.215 454.724 436.959 454.724Z" fill="white"/>
<path d="M60.0985 370.136C60.0985 370.136 50.5831 373.889 44.8237 381.648C39.3148 389.406 26.5441 407.675 22.788 420.938C18.7815 433.952 14.775 440.459 14.5246 451.971C14.2742 463.483 14.5246 473.243 18.2807 478.749L134.97 478.999L140.98 402.92C140.98 402.92 133.217 385.401 125.204 377.393C116.941 369.385 106.674 364.38 98.9114 364.63L60.0985 370.136Z" fill="url(#paint1_linear_322_1814)"/>
<path d="M143.231 479.249H240.889C247.4 479.249 252.909 475.245 255.162 469.489L278.2 402.669C281.455 393.41 274.193 383.9 263.927 383.9H166.268C159.758 383.9 154.249 387.904 151.995 393.66L129.208 460.48C125.953 469.739 133.215 479.249 143.231 479.249Z" fill="#343B43"/>
<path d="M352.07 62.3149C352.07 62.3149 344.808 54.3066 346.06 49.0511C347.062 43.5453 352.07 39.2909 355.826 38.7904C359.832 38.2899 364.59 40.7925 364.59 40.7925C364.59 40.7925 368.096 37.0386 376.61 39.2909C385.123 41.5433 389.881 51.8039 389.881 51.8039C389.881 51.8039 398.896 53.0553 398.896 61.8144C398.896 70.5735 393.387 79.0824 386.375 84.3378C379.615 89.5933 380.366 89.8436 378.613 89.5933C376.61 89.343 373.605 88.5923 375.107 80.8342L371.101 69.0719C371.101 69.0719 364.59 68.5714 368.847 60.3128C368.847 60.3128 362.837 53.3055 355.075 53.5558L352.07 62.3149Z" fill="url(#paint2_linear_322_1814)"/>
<path d="M439.211 449.468V479.249H539.123L538.873 457.977C538.873 457.977 551.643 453.222 555.65 438.957C559.656 424.692 555.65 412.179 553.897 405.923C552.144 399.666 544.883 380.146 540.876 371.137C536.87 362.377 531.861 349.864 529.107 345.109C526.352 340.354 520.593 332.346 511.328 329.093C502.063 325.839 491.045 325.839 491.045 325.839L472.265 325.339C472.265 325.339 466.255 325.839 457.491 328.843C448.727 332.096 443.468 333.597 434.203 332.096C425.188 330.594 418.428 323.337 414.671 317.08C410.915 310.573 407.66 298.06 406.658 292.805C405.907 287.55 405.406 280.792 405.406 280.792C405.406 280.792 403.153 277.539 388.379 278.04C373.354 278.79 369.598 280.792 369.348 281.543C369.098 282.044 370.6 297.31 374.356 310.573C377.862 323.837 385.624 340.605 394.389 350.865C403.403 361.126 418.177 373.639 435.455 376.142L439.211 449.468Z" fill="url(#paint3_linear_322_1814)"/>
<path d="M503.317 374.14L441.217 374.64C441.217 374.64 429.447 376.142 428.446 388.655C427.444 401.168 428.947 435.954 428.947 435.954C428.947 435.954 430.449 448.467 441.217 449.969L501.064 449.218C501.064 449.218 490.797 442.961 481.782 435.203C472.768 427.445 467.76 421.689 467.76 421.689C467.76 421.689 475.272 402.92 487.041 393.91L516.839 415.182C516.589 415.182 506.322 388.405 503.317 374.14Z" fill="#343B43"/>
<path d="M365.843 374.64V404.922H335.544C335.544 421.689 349.066 435.203 365.843 435.203C382.62 435.203 396.142 421.689 396.142 404.922C396.142 388.154 382.62 374.64 365.843 374.64Z" fill="#343B43"/>
<path d="M326.78 393.66H356.829V363.629C356.829 363.629 344.559 362.878 335.043 372.888C325.528 383.149 326.78 393.66 326.78 393.66Z" fill="url(#paint4_linear_322_1814)"/>
<path d="M108.926 322.336C108.926 322.336 111.68 325.089 112.181 328.592C113.433 336.1 108.926 341.105 108.926 341.105C108.926 341.105 109.427 354.87 99.4104 354.619L98.6592 365.381C98.6592 365.381 99.6608 377.643 95.9047 378.144C92.1486 378.644 86.3893 370.636 86.3893 370.636C86.3893 370.636 90.6462 364.88 90.6462 359.875C90.3958 354.87 90.6462 351.116 86.1389 344.609C81.6316 338.102 81.3812 333.597 82.3828 331.095C83.3844 328.592 85.8885 322.586 85.8885 320.834C85.8885 319.082 84.8869 313.076 84.8869 313.076C84.8869 313.076 87.1405 315.078 87.3909 317.331C87.6413 319.583 87.3909 322.336 87.3909 322.336L92.6494 322.085L108.926 322.336Z" fill="white"/>
<path d="M80.3794 463.483C80.3794 463.483 93.6509 456.976 96.4054 456.976C99.1599 456.726 100.913 456.726 100.913 456.726C100.913 456.726 105.921 452.722 111.931 455.725C111.931 455.725 114.935 453.222 118.191 453.472C121.446 453.973 123.199 457.477 123.199 457.477C123.199 457.477 121.696 462.982 121.947 465.235C122.197 467.487 123.95 474.995 129.709 477.497C129.709 477.497 127.456 480.5 121.947 476.997C121.947 476.997 117.69 480 111.68 478.749C111.68 478.749 108.174 479.75 106.171 478.999C104.168 478.248 102.415 476.747 101.414 475.746C100.662 474.745 98.659 470.74 98.659 470.74C98.659 470.74 98.4086 479.499 87.6412 478.999C87.6412 478.999 83.8851 477.497 81.6314 472.492C79.1274 467.237 80.3794 463.483 80.3794 463.483Z" fill="white"/>
<path d="M485.037 395.912C485.037 395.912 482.533 391.157 480.529 386.653C478.526 382.148 477.274 378.394 474.269 378.895C471.264 379.395 472.266 384.15 472.767 385.902C473.268 387.654 475.521 393.66 473.268 394.411C471.014 395.162 467.759 393.66 464.253 390.657C460.747 387.654 454.988 381.898 454.988 381.898C454.988 381.898 451.733 379.645 449.479 381.397C447.476 383.149 449.229 385.902 449.229 385.902C449.229 385.902 446.474 385.652 445.723 386.903C444.972 388.154 444.721 390.156 445.472 390.907C445.472 390.907 441.967 393.66 444.22 397.664C446.474 401.668 455.238 409.427 457.993 411.178C460.497 413.18 466.757 417.185 469.762 417.685C469.762 417.685 473.017 410.928 476.773 405.673C480.029 400.667 485.037 395.912 485.037 395.912Z" fill="white"/>
<path d="M399.148 283.796C399.148 283.796 399.899 271.283 398.647 266.277C397.395 261.272 395.892 258.019 391.635 256.768C387.379 255.516 383.372 254.765 383.372 254.765H378.865L381.619 260.021L377.362 262.273L374.357 257.268C374.357 257.268 368.598 258.77 367.597 263.274C366.845 267.779 367.096 275.787 369.349 280.542C371.853 285.297 373.857 288.3 379.115 288.05C384.374 287.8 387.128 287.299 390.133 285.798C393.388 284.296 393.639 283.295 393.639 283.295L394.64 284.797L399.148 283.796Z" fill="white"/>
<path d="M468.258 279.541L464.752 296.058C464.752 296.058 462.999 304.567 463.751 308.571C464.502 312.576 465.003 317.831 473.266 318.081L472.515 325.589C472.515 325.589 466.755 341.356 473.767 341.606C481.029 341.856 484.033 336.601 486.538 333.347C489.042 330.094 491.295 326.09 491.295 326.09L491.796 308.321C491.796 308.321 499.809 310.323 500.059 302.815C500.31 295.558 491.796 296.559 491.796 296.559C491.796 296.559 482.281 291.303 477.773 287.8C473.266 284.296 468.258 279.541 468.258 279.541Z" fill="white"/>
<path d="M217.848 436.704C220.821 431.557 220.512 425.816 217.158 423.881C213.804 421.946 208.676 424.551 205.703 429.698C202.73 434.846 203.039 440.587 206.393 442.522C209.747 444.456 214.875 441.852 217.848 436.704Z" fill="url(#paint5_linear_322_1814)"/>
<path d="M129.461 163.671C131.965 162.92 134.219 162.419 136.472 161.668C137.724 161.418 138.976 160.918 140.228 160.667C145.487 166.674 150.495 171.679 156.254 176.184C158.007 177.685 160.01 177.935 162.014 177.435C164.267 176.934 166.02 175.933 168.023 174.682C172.531 171.679 176.537 168.175 180.544 164.421C187.555 157.414 194.066 149.906 200.075 142.148C200.326 141.648 200.827 141.648 201.327 141.648C205.084 142.649 208.84 143.65 212.596 144.901C205.584 158.165 197.571 170.177 188.306 181.439C183.549 187.195 178.54 192.451 172.781 196.955C170.778 198.457 168.775 199.458 166.771 200.709C162.264 203.212 157.506 202.961 152.999 200.959C148.492 198.957 144.736 195.704 141.731 191.7C137.474 185.944 134.469 179.437 132.215 172.68C131.214 169.677 130.463 166.674 129.461 163.671Z" fill="white"/>
<path d="M60.0967 370.136C60.0967 370.136 75.1211 377.143 82.8836 372.638C90.6462 368.133 91.147 361.126 90.8966 356.121C90.6462 350.865 86.1389 344.108 84.1357 341.356C82.1324 338.603 81.882 335.6 82.3828 331.345C83.1341 327.091 85.8885 324.338 85.8885 321.084C86.1389 317.831 84.1357 312.325 84.1357 312.325C84.1357 312.325 87.391 315.078 87.391 318.332C87.391 321.585 87.391 322.586 87.391 322.586L90.3958 322.836C90.3958 322.836 91.3974 321.835 92.1487 321.585C92.8999 321.585 94.9031 323.087 94.9031 323.087L104.669 322.586C104.669 322.586 106.672 321.335 107.674 321.835C108.675 322.336 109.427 322.586 109.427 322.586H110.679C110.679 322.586 110.929 315.078 109.677 311.575C108.425 308.071 107.173 305.318 100.162 304.317C93.4007 303.316 86.3893 302.565 80.1292 306.319C80.1292 306.319 63.6024 305.068 62.3504 319.833C62.3504 319.833 65.6056 338.603 66.3569 343.608C67.1081 348.863 68.3601 353.869 63.1016 355.62C57.8431 357.372 51.5829 358.123 50.0805 363.879C48.578 369.885 49.0788 372.388 51.5829 374.39L60.0967 370.136Z" fill="#343B43"/>
<path d="M99.1604 354.619L98.4092 364.88L104.669 366.131C104.669 366.131 107.424 364.38 106.923 360.375C106.422 356.621 104.419 353.618 104.419 353.618C104.419 353.618 100.412 355.62 99.1604 354.619Z" fill="#343B43"/>
<path d="M296.982 103.858C296.982 103.858 306.748 135.641 307.499 137.643C308.251 139.646 310.504 153.41 318.517 152.659C326.28 152.159 328.784 143.65 329.785 141.147C330.787 138.644 336.797 123.629 341.304 117.372C345.811 111.116 352.823 106.861 360.085 106.361C367.346 105.86 389.883 105.36 395.893 109.364C401.902 113.368 412.419 126.632 420.432 143.149C428.445 159.666 430.449 161.418 431.2 168.175L413.171 168.676L359.584 168.425C359.584 168.425 353.073 178.686 345.561 184.192C345.561 184.192 339.802 187.696 336.546 189.447C333.291 190.949 324.026 194.202 314.761 193.952C305.496 193.702 292.475 190.949 284.212 179.937C275.948 168.926 272.943 161.418 270.94 155.162C268.937 148.655 265.431 135.141 263.929 126.632C262.426 118.123 260.924 109.864 260.924 109.864C260.924 109.864 263.678 104.859 277.701 102.607C291.974 100.104 296.982 103.858 296.982 103.858Z" fill="#343B43"/>
<path d="M390.133 285.798L392.887 290.803C392.887 290.803 395.141 291.554 396.142 290.803C397.144 290.052 396.643 288.05 396.643 288.05L393.889 283.045C394.139 283.045 391.886 285.547 390.133 285.798Z" fill="white"/>
<path d="M358.081 100.104V95.099C358.081 95.099 349.567 94.098 348.065 90.8446C346.312 87.5912 346.312 84.8384 347.063 83.0865C347.564 81.585 348.315 77.0803 348.315 77.0803C348.315 77.0803 343.307 73.5766 344.058 71.8248C344.559 69.8227 351.57 65.318 351.57 65.318L354.575 52.805C354.575 52.805 365.844 54.3066 368.848 60.3128C368.848 60.3128 366.094 68.0709 371.352 68.5714C371.352 68.5714 373.857 65.0678 378.113 66.0688C382.37 67.0698 383.873 69.3222 384.123 73.5766C384.374 77.8311 380.367 80.8342 375.359 80.3337C375.359 80.3337 374.107 88.342 376.861 88.8425C379.616 89.343 381.369 87.8415 381.369 87.8415L382.37 97.8519L358.081 100.104Z" fill="white"/>
<path d="M290.22 108.613C290.22 108.613 288.968 102.357 289.469 94.3483C289.97 86.34 288.968 85.0887 289.719 81.585C290.47 78.0814 293.726 73.3264 290.721 72.5756C287.716 71.8249 283.709 72.0751 281.957 75.3285C280.454 78.3316 278.952 85.8395 277.95 86.8405C276.949 87.8415 274.945 88.8426 273.443 88.3421C272.191 87.8415 271.189 86.8405 270.188 84.8384C269.436 82.8363 267.183 76.5798 264.178 73.8269C261.173 70.8238 257.417 67.8207 254.412 68.8217C251.407 69.8228 251.157 72.3254 251.157 72.3254C251.157 72.3254 246.649 72.3254 246.649 76.8301C246.649 76.8301 247.15 78.5819 249.404 81.8353C251.658 85.0887 253.41 87.341 254.662 90.3441C255.914 93.3473 258.168 99.6038 261.674 102.357C265.43 105.36 268.435 106.861 268.936 111.867C268.936 111.867 271.44 112.367 278.701 111.616C286.214 110.615 290.22 108.613 290.22 108.613Z" fill="white"/>
<path d="M289.72 102.106L290.972 108.613C290.972 108.613 297.983 106.111 297.733 104.359C297.232 102.357 289.72 102.106 289.72 102.106Z" fill="#343B43"/>
<path d="M265.931 105.36C265.931 105.36 268.936 108.863 268.936 111.616C268.936 111.616 261.173 111.616 260.672 109.864C260.422 108.113 265.931 105.36 265.931 105.36Z" fill="#343B43"/>
<path d="M350.568 107.862L355.076 100.355C355.076 100.355 381.869 97.3514 386.627 97.8519L392.637 106.611C392.637 106.611 371.853 104.859 365.843 105.36C359.833 105.86 350.568 107.862 350.568 107.862Z" fill="white"/>
<path d="M364.341 94.5986L358.081 99.8541V95.3494L364.341 94.5986Z" fill="url(#paint6_linear_322_1814)"/>
<path d="M79.8799 463.483L92.901 457.477C92.901 457.477 99.1611 455.725 100.664 456.726C100.664 456.726 105.421 453.723 110.68 454.974C110.68 454.974 108.927 452.221 105.922 450.469C102.917 448.717 96.9075 446.715 93.1514 447.716C89.3953 448.717 81.3823 452.221 79.8799 463.483Z" fill="#343B43"/>
<path d="M91.6484 479.249H104.92C104.92 479.249 99.411 475.495 98.6598 471.241C98.6598 471.241 94.6533 478.248 91.6484 479.249Z" fill="#343B43"/>
<path d="M266.933 383.65L259.921 379.645H162.013C162.013 379.645 150.494 377.894 145.486 389.906L122.699 458.728C122.699 458.728 116.188 477.748 138.224 479.249C138.475 478.498 128.959 474.494 128.458 466.736C127.707 459.228 135.47 441.71 135.47 441.71L152.998 391.157C152.998 391.157 159.258 383.65 165.018 383.9L266.933 383.65Z" fill="white"/>
<path d="M267.183 69.5724C281.704 69.5724 293.476 57.8077 293.476 43.2951C293.476 28.7825 281.704 17.0177 267.183 17.0177C252.662 17.0177 240.891 28.7825 240.891 43.2951C240.891 57.8077 252.662 69.5724 267.183 69.5724Z" fill="url(#paint7_linear_322_1814)"/>
<path d="M267.184 73.3264V76.5798C267.184 76.5798 268.686 79.8332 269.437 82.3358C270.188 85.0886 270.94 88.0918 275.197 87.8415C279.453 87.8415 279.203 78.0813 281.707 75.5787V72.8259C281.707 72.8259 279.704 74.0772 274.946 73.8269C270.689 73.8269 267.184 73.3264 267.184 73.3264Z" fill="#343B43"/>
<path d="M293.976 227.987H279.953V245.756H293.976V227.987Z" fill="url(#paint8_linear_322_1814)"/>
<path d="M270.439 218.478H256.416V245.506H270.439V218.478Z" fill="#343B43"/>
<path d="M104.669 322.836C104.669 322.836 106.673 321.585 107.674 322.086C108.676 322.586 109.427 322.836 109.427 322.836H110.679C110.679 322.836 110.93 315.328 109.678 311.825C108.426 308.321 107.174 305.568 100.162 304.567C96.6565 304.067 93.1508 303.566 89.8955 303.816C95.154 304.567 100.913 306.319 102.416 311.074C104.169 316.33 104.419 320.334 104.169 323.087L104.669 322.836Z" fill="white"/>
<path d="M90.6475 355.871C90.3971 350.615 85.8898 343.858 83.8865 341.105C81.8833 338.352 81.6329 335.349 82.1337 331.095C82.3841 330.344 82.3841 329.593 82.6345 329.093C82.6345 329.093 79.6296 334.098 81.6329 342.357C83.3857 349.864 91.3987 367.383 74.3711 373.889C77.376 374.14 80.3808 373.639 82.6345 372.388C90.6475 367.883 91.1483 361.126 90.6475 355.871Z" fill="white"/>
<path d="M104.42 353.618C104.42 353.618 103.168 354.119 101.916 354.369C102.918 356.621 103.669 360.125 102.166 365.381L104.67 365.881C104.67 365.881 107.425 364.129 106.924 360.125C106.423 356.621 104.42 353.618 104.42 353.618Z" fill="white"/>
<path d="M355.076 45.2972C355.577 41.7935 358.331 40.0417 360.835 39.0407C359.333 38.5401 357.58 38.2899 356.078 38.5401C352.071 39.0407 347.313 43.2951 346.312 48.8008C345.31 54.3066 352.322 62.0646 352.322 62.0646L355.326 53.0553C361.587 52.805 366.845 57.3097 368.348 59.0615C366.595 53.5558 354.074 51.3034 355.076 45.2972Z" fill="white"/>
<path d="M376.61 39.0407C368.096 36.7883 364.591 40.5422 364.591 40.5422L367.596 42.5443C367.596 42.5443 371.853 37.2888 382.37 42.0438C380.617 40.7925 378.613 39.5412 376.61 39.0407Z" fill="white"/>
<path d="M294.228 188.446C294.228 188.446 298.985 173.931 314.761 174.932C330.536 175.933 334.042 187.445 335.044 188.947C335.044 188.947 326.53 194.202 314.01 193.702C301.489 193.201 294.228 188.446 294.228 188.446Z" fill="url(#paint9_linear_322_1814)"/>
<path d="M246.9 246.006H232.878C232.377 245.506 232.377 201.71 232.377 201.71C232.878 201.21 247.151 201.21 247.151 201.21C247.652 201.71 247.652 215.725 247.652 215.725C246.4 215.725 246.4 202.211 246.4 202.211H233.629V244.755H246.4V231.992C247.652 231.992 247.652 245.506 247.652 245.506C247.652 245.756 247.401 246.006 246.9 246.006Z" fill="#343B43"/>
<path d="M270.438 246.006H256.415C255.914 245.506 255.914 218.227 255.914 218.227C256.415 217.727 270.438 217.727 270.438 217.727C270.938 218.227 270.938 245.506 270.938 245.506C271.189 245.756 270.938 246.006 270.438 246.006ZM257.166 245.005H269.937V218.978H257.166V245.005Z" fill="#343B43"/>
<path d="M293.977 246.006H279.954C279.453 245.506 279.453 234.745 279.453 234.745C280.705 234.745 280.705 245.005 280.705 245.005H293.476V228.989H284.461C284.461 227.737 293.977 227.737 293.977 227.737C294.478 228.238 294.477 245.506 294.477 245.506C294.728 245.756 294.478 246.006 293.977 246.006Z" fill="#343B43"/>
<path d="M400.648 212.972H328.281C328.281 211.721 400.648 211.721 400.648 211.721C401.149 212.722 400.899 212.972 400.648 212.972Z" fill="#343B43"/>
<path d="M400.649 241.251H370.851C370.851 240.25 400.649 240.25 400.649 240.25C401.15 241.001 400.899 241.251 400.649 241.251Z" fill="#343B43"/>
<path d="M365.091 241.251H328.281C328.281 240 365.091 240 365.091 240C365.592 241.001 365.341 241.251 365.091 241.251Z" fill="#343B43"/>
<path d="M400.648 252.012H377.11C377.11 250.761 400.648 250.761 400.648 250.761C401.149 251.762 400.899 252.012 400.648 252.012Z" fill="#343B43"/>
<path d="M370.85 252.012H328.281C328.281 250.761 370.85 250.761 370.85 250.761C371.351 251.762 371.101 252.012 370.85 252.012Z" fill="#343B43"/>
<path d="M400.649 223.733H361.335C361.335 222.482 400.649 222.482 400.649 222.482C401.149 223.483 400.899 223.733 400.649 223.733Z" fill="#343B43"/>
<path d="M355.075 223.733H328.281C328.281 222.482 355.075 222.482 355.075 222.482C355.576 223.483 355.325 223.733 355.075 223.733Z" fill="#343B43"/>
<path d="M299.486 298.061H227.119C227.119 296.809 299.486 296.809 299.486 296.809C300.238 297.81 299.987 298.061 299.486 298.061Z" fill="#343B43"/>
<path d="M299.486 326.59H227.119C227.119 325.339 299.486 325.339 299.486 325.339C300.238 326.34 299.987 326.59 299.486 326.59Z" fill="#343B43"/>
<path d="M299.486 337.351H227.119C227.119 336.1 299.486 336.1 299.486 336.1C300.238 337.101 299.987 337.351 299.486 337.351Z" fill="#343B43"/>
<path d="M299.486 308.822H227.119C227.119 307.57 299.486 307.57 299.486 307.57C300.238 308.571 299.987 308.822 299.486 308.822Z" fill="#343B43"/>
<path d="M370.85 298.061H328.281C328.281 296.809 370.85 296.809 370.85 296.809C371.351 297.81 371.101 298.061 370.85 298.061Z" fill="#343B43"/>
<path d="M379.364 326.59H328.281C328.281 325.339 379.364 325.339 379.364 325.339C379.865 326.34 379.614 326.59 379.364 326.59Z" fill="#343B43"/>
<path d="M384.622 337.351H328.531C328.531 336.1 384.622 336.1 384.622 336.1C385.123 337.101 384.873 337.351 384.622 337.351Z" fill="#343B43"/>
<path d="M373.855 308.822H328.281C328.281 307.57 373.855 307.57 373.855 307.57C374.606 308.571 374.356 308.822 373.855 308.822Z" fill="#343B43"/>
<path d="M538.873 478.498C538.622 469.99 538.622 469.99 538.372 458.978V457.727C539.624 457.727 539.624 458.978 539.624 458.978C539.875 469.99 539.875 469.99 539.624 476.997C539.624 478.248 539.374 478.498 538.873 478.498Z" fill="#343B43"/>
<path d="M517.34 416.434C507.073 396.663 500.562 365.13 500.562 364.88C501.815 364.88 508.075 396.163 517.84 415.433C517.59 416.434 517.59 416.434 517.34 416.434Z" fill="#343B43"/>
<path d="M438.961 479.75C438.461 478.999 438.711 465.485 438.711 449.468C439.963 465.485 439.713 478.999 439.713 479.249C439.462 479.499 439.212 479.75 438.961 479.75Z" fill="#343B43"/>
<path d="M441.216 375.141C441.717 364.63 444.471 354.87 446.474 349.114C445.723 355.37 442.969 364.88 441.967 374.64C441.717 374.891 441.466 375.141 441.216 375.141Z" fill="#343B43"/>
<path d="M476.522 318.582C475.27 318.582 474.269 318.582 473.267 318.582C471.013 318.582 469.511 318.081 468.009 317.581C465.505 316.58 464.253 314.327 463.501 311.324C462.5 306.569 463.251 301.814 464.002 297.31C464.503 293.806 467.508 279.791 467.758 279.541C468.76 280.542 465.755 293.556 465.505 296.809C464.753 302.065 464.002 306.569 465.004 311.074C465.505 313.827 466.757 315.579 468.76 316.58C470.012 317.08 471.514 317.581 473.518 317.581C475.521 317.581 478.275 317.581 480.278 317.581C479.026 318.582 477.774 318.582 476.522 318.582Z" fill="#343B43"/>
<path d="M491.547 297.059C471.264 286.298 466.756 278.79 466.506 278.54C467.507 278.04 472.265 285.547 491.797 296.058C492.047 296.809 491.797 297.059 491.547 297.059Z" fill="#343B43"/>
<path d="M481.03 293.306C480.529 293.055 480.279 293.306 479.778 295.057C479.277 296.809 479.778 297.31 480.279 297.31C480.779 297.31 481.28 296.809 481.28 295.558C481.781 294.056 481.781 293.306 481.03 293.306Z" fill="#343B43"/>
<path d="M468.759 291.304C468.258 291.053 468.008 291.303 467.507 293.055C467.006 294.807 467.507 295.308 468.008 295.308C468.509 295.308 469.01 294.807 469.26 293.556C469.26 292.054 469.26 291.304 468.759 291.304Z" fill="#343B43"/>
<path d="M466.506 287.55C467.007 286.048 468.259 285.297 470.763 286.298C468.509 286.548 467.507 287.049 466.756 287.55C466.756 287.55 466.756 287.55 466.506 287.55Z" fill="#343B43"/>
<path d="M493.801 308.822C492.048 308.822 491.047 308.321 490.045 307.57C491.547 307.07 492.549 307.57 493.551 307.57C495.053 307.821 496.555 307.07 497.557 306.319C498.559 305.318 499.31 304.067 499.56 302.565C499.56 301.064 499.06 299.562 498.308 298.561C497.307 297.56 496.055 296.809 494.552 296.559C493.551 296.559 492.299 296.809 491.297 297.31C491.798 295.558 493.05 295.308 494.552 295.308C498.308 295.558 501.063 298.811 500.812 302.565C500.812 304.317 499.811 306.069 498.559 307.32C497.056 308.321 495.303 308.822 493.801 308.822Z" fill="#343B43"/>
<path d="M494.803 306.069C494.302 305.819 490.546 302.065 490.546 302.065C490.796 301.064 495.804 298.311 495.804 298.311C496.305 299.312 492.048 301.814 492.048 301.814L495.304 305.068C495.053 306.069 494.803 306.069 494.803 306.069Z" fill="#343B43"/>
<path d="M474.77 342.106C474.269 342.106 473.518 342.106 472.767 341.856C471.765 341.606 471.014 341.105 470.513 340.104C468.259 336.1 471.515 326.59 472.016 325.339L472.516 317.581C473.768 317.581 473.017 325.589 473.017 325.589C473.017 325.839 469.511 335.85 471.515 339.604C471.765 340.104 472.266 340.605 473.017 340.605C483.284 342.607 490.546 325.339 490.546 325.339C491.297 326.59 484.786 342.106 474.77 342.106Z" fill="#343B43"/>
<path d="M474.77 308.822C474.019 308.822 473.268 308.571 472.517 308.321C474.269 307.821 475.271 307.821 476.273 307.32C477.775 306.569 478.276 304.567 478.276 304.567C479.528 304.818 478.777 307.32 477.024 308.321C476.273 308.822 475.521 308.822 474.77 308.822Z" fill="#343B43"/>
<path d="M531.361 349.864C535.368 345.86 535.368 337.852 533.364 333.347C531.862 329.844 529.107 326.59 525.351 323.587C522.597 321.585 519.592 320.083 516.337 318.332L515.335 317.831C512.831 316.58 509.576 314.578 508.324 311.575C506.571 307.32 507.823 303.316 509.075 300.063C509.325 299.562 509.576 298.811 509.826 298.311C511.329 294.557 513.081 290.553 512.831 286.799C512.581 283.545 511.078 279.041 508.073 277.289C504.317 274.786 500.561 273.034 497.807 272.033C495.303 271.032 473.267 263.525 465.254 273.285C462.499 276.538 460.997 280.793 460.747 286.799C460.496 289.051 460.997 291.053 461.247 293.306C461.498 295.308 461.999 297.56 461.999 299.562C461.748 303.566 460.246 307.32 457.491 310.323C456.49 311.324 455.488 312.075 454.486 312.826C453.485 313.577 452.734 314.077 451.982 314.828C450.48 316.33 449.228 318.332 448.477 320.334C447.225 323.837 447.225 328.592 450.23 331.846C445.722 329.343 445.973 323.837 447.225 320.083C447.976 317.831 449.228 315.829 450.981 314.077C451.732 313.326 452.734 312.576 453.735 311.825C454.737 311.074 455.738 310.323 456.74 309.322C459.244 306.569 460.747 303.066 460.747 299.312C460.747 297.31 460.496 295.308 460.246 293.306C459.745 291.053 459.495 288.801 459.745 286.549C460.246 280.292 461.748 275.537 464.503 272.284C473.267 262.023 495.803 269.781 498.307 270.782C501.312 271.783 504.818 273.785 508.824 276.288C512.33 278.54 513.833 283.295 514.083 286.799C514.333 290.803 512.581 295.057 511.078 299.062C510.828 299.812 510.577 300.313 510.327 300.813C509.075 303.816 508.073 307.57 509.576 311.324C510.828 314.077 513.833 315.829 516.086 317.08L517.088 317.581C520.093 319.082 523.348 320.834 526.353 322.836C530.359 325.839 533.114 329.343 534.867 333.097C536.87 337.852 536.87 346.611 532.112 349.864C531.611 349.864 531.361 349.864 531.361 349.864Z" fill="#343B43"/>
<path d="M491.045 326.34C490.545 325.839 490.795 308.571 490.795 308.571C492.047 308.571 491.546 325.839 491.546 325.839C491.546 326.09 491.296 326.34 491.045 326.34Z" fill="#343B43"/>
<path d="M530.61 459.729C509.826 459.729 482.281 438.707 467.257 422.44C467.257 421.689 470.512 413.18 476.021 405.673C482.031 397.914 486.288 393.66 486.288 393.66C487.289 393.66 512.079 409.426 525.351 422.69C512.079 411.429 490.044 396.913 486.788 394.911C485.787 396.163 481.78 400.167 476.772 406.674C472.015 413.18 468.759 420.438 468.258 422.19C490.795 446.715 524.349 466.736 542.128 455.725C571.175 438.206 548.138 388.405 535.618 361.877L534.866 360.125C534.366 359.124 533.865 357.873 533.364 356.371C530.61 349.364 526.353 338.603 516.837 332.847C510.577 329.093 504.317 326.59 491.546 326.59C504.317 325.339 511.078 327.841 517.338 331.595C527.104 337.602 531.611 348.863 534.366 355.62C534.866 357.122 535.367 358.373 535.868 359.374L536.619 361.126C549.14 388.154 572.678 438.457 542.629 456.475C539.374 458.728 535.117 459.729 530.61 459.729Z" fill="#343B43"/>
<path d="M440.464 333.597C433.453 333.597 426.441 331.595 420.932 325.839C417.176 322.085 413.921 317.08 411.166 310.824C407.41 302.065 405.157 291.303 404.906 281.043C406.409 291.303 408.412 301.814 412.168 310.323C414.672 316.329 417.927 321.335 421.683 324.838C431.95 335.099 447.225 333.097 458.493 327.841C462.5 325.839 467.257 324.838 472.265 324.838C467.508 326.09 463 327.091 458.994 328.843C453.485 331.846 446.974 333.597 440.464 333.597Z" fill="#343B43"/>
<path d="M435.706 376.893C423.436 375.892 415.173 369.635 406.158 363.128C385.625 347.862 371.853 317.831 368.848 282.294C372.854 317.331 386.626 347.112 406.659 362.127C415.423 368.634 423.937 374.891 435.706 375.641C436.457 376.642 436.207 376.893 435.706 376.893Z" fill="#343B43"/>
<path d="M468.761 303.816C467.759 302.065 467.258 298.561 468.51 297.81C469.262 297.31 470.764 297.81 472.016 298.311L473.268 290.803C474.52 291.053 473.018 299.061 473.018 299.061C471.014 298.811 469.762 298.311 469.261 298.561C469.011 298.811 469.011 301.064 469.512 303.066C468.761 303.566 468.761 303.816 468.761 303.816Z" fill="#343B43"/>
<path d="M399.147 284.546C398.897 278.29 398.897 262.774 395.391 260.021C391.134 256.517 389.131 255.766 383.622 260.021C383.371 260.271 382.871 260.521 382.37 260.772C380.617 262.023 378.614 263.525 378.614 265.276C378.614 266.528 379.365 267.779 381.118 269.03C383.622 271.283 387.378 269.781 392.887 264.275C389.882 268.78 384.373 273.285 380.366 269.781C378.363 268.029 377.362 266.528 377.612 265.026C377.612 262.774 380.116 261.022 381.869 259.771C382.37 259.52 382.62 259.27 383.121 259.02C388.88 254.515 391.635 255.016 396.392 259.02C401.15 262.774 399.898 283.045 399.898 284.046C399.648 284.296 399.397 284.546 399.147 284.546Z" fill="#343B43"/>
<path d="M443.218 450.469C435.205 450.469 428.444 443.962 428.444 435.704L427.943 388.655C427.943 384.651 429.446 380.897 432.2 378.144C434.955 375.391 438.711 373.639 442.717 373.639L503.566 373.139C503.566 374.39 442.717 374.64 442.717 374.64C438.961 374.64 435.706 376.142 433.202 378.644C430.698 381.147 429.195 384.651 429.195 388.405L429.696 435.454C429.696 442.961 435.956 448.968 443.469 448.968C443.719 448.968 501.813 448.217 501.813 448.217C501.312 449.969 443.218 450.469 443.218 450.469Z" fill="#343B43"/>
<path d="M469.511 418.186C460.997 416.934 444.219 400.167 442.717 395.662C441.966 393.16 443.218 391.408 444.47 390.657C443.719 389.155 443.719 387.654 444.971 386.402C445.471 385.902 445.972 385.652 446.473 385.401C447.475 385.151 448.476 385.151 449.728 385.902C449.979 386.152 469.761 417.685 469.761 417.685C469.761 418.186 469.761 418.186 469.511 418.186ZM447.725 386.152C446.724 386.402 446.223 386.653 445.972 387.153C444.971 388.154 444.971 389.406 445.722 390.407C445.471 391.408 442.967 392.659 443.719 395.412C444.971 399.416 459.745 414.181 468.008 416.684L448.977 386.402C448.727 386.402 448.226 386.152 447.725 386.152Z" fill="#343B43"/>
<path d="M462.249 397.664C460.497 396.663 457.492 394.161 456.49 393.16C457.241 392.158 462.75 396.413 462.75 396.413C462.75 397.664 462.5 397.664 462.249 397.664Z" fill="#343B43"/>
<path d="M456.991 393.41C454.487 391.658 452.734 389.906 451.732 388.905C449.729 386.903 447.726 385.401 447.726 383.399C447.726 382.398 448.226 381.397 448.978 380.646C451.982 377.894 454.737 380.396 456.49 382.148C456.74 382.398 457.241 382.899 457.992 383.65C459.995 385.652 462.75 388.405 464.503 389.656C464.252 390.907 456.991 393.41 456.991 393.41ZM451.732 380.897C450.981 380.897 450.48 381.147 449.729 381.898C448.978 382.398 448.727 383.149 448.727 383.65C448.727 385.151 450.23 386.653 451.482 387.654C452.984 389.155 454.737 390.657 456.74 392.409L462.75 390.407C460.997 388.905 458.743 386.653 456.991 384.901C456.49 384.4 455.989 383.9 455.488 383.399C454.236 381.647 452.984 380.897 451.732 380.897Z" fill="#343B43"/>
<path d="M484.535 396.413C484.284 396.413 474.268 393.66 474.268 393.66C474.018 394.161 473.517 394.411 473.016 394.661C471.263 395.412 468.509 394.411 463.751 390.657C464.252 389.656 473.767 392.158 473.767 392.158C474.018 391.157 473.517 389.656 472.766 387.153C471.514 383.9 471.514 380.647 472.515 379.145C473.016 378.394 473.517 377.894 474.268 377.894C477.774 377.393 478.775 380.146 479.527 382.398C479.777 382.899 479.777 383.399 480.027 383.9C480.528 384.651 480.779 385.902 481.279 387.153C482.281 389.906 483.533 393.66 485.035 395.412C485.035 396.413 484.785 396.413 484.535 396.413ZM475.019 392.659L483.283 394.911C482.031 392.909 481.029 389.906 480.278 387.654C479.777 386.402 479.527 385.151 479.026 384.4C478.775 383.9 478.525 383.399 478.525 382.899C477.774 380.396 477.022 378.895 474.518 379.395C474.018 379.395 473.767 379.645 473.517 380.146C472.766 381.397 472.766 384.4 474.018 387.153C474.769 389.406 475.27 391.157 475.019 392.659ZM467.257 391.658C470.011 393.41 471.764 394.161 472.766 393.66C473.266 393.41 467.257 391.658 467.257 391.658Z" fill="#343B43"/>
<path d="M458.242 403.42C457.992 403.17 454.737 400.918 451.231 397.914C448.727 395.912 445.972 392.409 444.971 391.408C445.722 390.407 449.228 394.661 451.982 396.913C455.488 399.666 458.493 402.169 458.493 402.169C458.743 403.17 458.493 403.42 458.242 403.42Z" fill="#343B43"/>
<path d="M371.853 284.046C369.85 283.796 369.099 283.045 369.099 282.044C369.099 281.543 369.599 280.792 370.1 280.542C370.351 282.544 371.603 282.795 372.104 283.045C372.354 283.796 372.104 284.046 371.853 284.046Z" fill="#343B43"/>
<path d="M394.891 285.297C394.891 284.046 397.895 283.796 397.895 283.796C403.905 282.795 405.157 281.543 405.157 281.293C405.157 280.792 404.656 280.542 403.404 280.042C402.152 279.791 399.899 279.291 399.398 279.291C400.4 278.04 403.404 278.79 403.655 278.79C404.406 279.041 406.159 279.541 406.159 281.043C406.159 282.795 403.404 284.046 397.895 284.797L394.891 285.297Z" fill="#343B43"/>
<path d="M361.586 397.664H333.04C333.04 396.413 361.085 396.413 361.085 396.413V368.384C362.338 368.384 362.338 396.913 362.338 396.913C362.338 397.414 361.837 397.664 361.586 397.664Z" fill="#343B43"/>
<path d="M52.3346 375.141C49.8306 373.889 49.0794 370.886 49.3298 367.132C49.8306 363.128 51.333 360.375 53.8371 358.874C54.3379 358.623 55.0891 358.123 55.8403 357.873C56.8419 357.372 58.094 357.122 59.346 356.872C61.5996 356.371 63.8533 355.62 65.3557 354.119C66.6078 352.868 67.359 350.865 67.1086 348.363C64.6045 330.344 62.3509 320.584 62.1005 320.584C62.3509 315.579 64.6045 311.575 68.8614 308.822C73.3687 305.819 78.8777 306.069 80.1297 306.069C81.1313 305.318 82.1329 304.817 83.6354 304.067C90.1459 301.314 98.1589 303.066 102.416 304.067C104.169 304.567 106.673 305.318 108.426 307.32C110.679 309.572 111.18 313.076 111.43 316.329C111.931 322.336 111.681 322.586 111.43 322.836C110.93 323.086 109.427 323.087 109.427 323.087V321.835C110.429 321.335 110.429 320.083 110.178 316.58C109.928 313.326 109.177 310.323 107.424 308.071C105.921 306.319 103.668 305.568 101.915 305.068C97.9085 303.816 89.8955 302.315 83.8858 304.817C82.3833 305.318 81.3817 306.069 80.6305 306.569C80.1297 306.569 74.3703 306.069 69.6126 309.072C65.8565 311.575 63.6029 315.328 63.3525 319.833C63.6029 320.834 65.8565 330.594 68.3606 347.612C68.611 350.365 68.1102 352.868 66.3574 354.369C64.6045 356.121 62.1005 356.621 59.8468 357.372C58.5948 357.622 57.5932 357.873 56.5915 358.373C55.8403 358.624 55.3395 358.874 54.8387 359.124C52.585 360.626 51.0826 363.128 50.8322 366.632C50.5818 368.634 50.5818 372.138 52.8354 373.389C52.585 375.141 52.585 375.141 52.3346 375.141Z" fill="#343B43"/>
<path d="M104.67 323.337C100.663 323.337 94.4033 323.337 94.4033 323.337V322.086C94.4033 322.086 100.663 322.086 104.67 322.086C105.421 323.087 105.171 323.337 104.67 323.337Z" fill="#343B43"/>
<path d="M75.8731 374.64C68.1105 374.64 60.0975 370.886 59.5967 370.636C60.3479 369.635 75.1218 376.642 83.6356 371.637C87.3917 369.385 89.395 365.13 89.8958 359.124C90.3966 352.117 86.3901 346.611 84.1365 343.608C83.886 343.107 83.6356 342.857 83.3852 342.607C78.8779 336.1 81.8828 329.593 83.886 324.838C84.1365 324.088 84.3869 323.337 84.6373 322.836C86.3901 318.332 82.8844 313.076 82.634 313.076C88.143 315.579 87.8925 320.584 87.3917 322.586H90.1462C90.1462 323.837 86.8909 323.837 86.8909 323.837C86.3901 322.836 87.3917 319.833 85.8893 316.83C86.3901 318.832 86.8909 321.084 85.8893 323.587C85.6389 324.338 85.3885 324.838 85.1381 325.589C83.1348 330.344 80.6308 336.35 84.6373 342.357C84.8877 342.607 85.1381 343.107 85.3885 343.358C87.8925 346.611 91.6486 352.367 91.3982 359.625C90.8974 366.131 88.6438 370.636 84.6373 373.139C81.8828 374.14 78.8779 374.64 75.8731 374.64Z" fill="#343B43"/>
<path d="M31.8018 467.737C50.5822 449.969 93.652 447.216 94.1528 446.966C93.9024 448.217 51.083 450.97 32.3026 467.487C32.0522 467.737 32.0522 467.737 31.8018 467.737Z" fill="#343B43"/>
<path d="M18.0295 479.499C5.00836 454.974 23.0376 414.181 35.5579 393.91C38.5627 389.155 41.818 383.9 45.8245 379.395C49.3302 375.141 54.3383 372.388 59.5968 369.635C55.0895 373.389 50.0814 376.142 46.8261 380.146C43.0701 384.651 39.5644 389.656 36.5595 394.411C24.7904 412.93 6.00998 454.724 18.5303 478.498C18.2799 479.249 18.2799 479.499 18.0295 479.499Z" fill="#343B43"/>
<path d="M140.728 403.67C139.977 402.92 139.727 402.169 139.476 401.668C130.462 380.647 118.943 369.635 103.167 366.382C101.915 366.131 98.1592 365.381 98.1592 365.381L98.4096 364.129C98.4096 364.129 102.166 364.88 103.418 365.13C119.193 368.384 131.463 380.146 140.478 401.168C140.728 401.668 140.979 402.169 141.229 402.669C140.979 403.67 140.979 403.67 140.728 403.67Z" fill="#343B43"/>
<path d="M99.4117 355.37C98.6604 355.37 98.1596 355.37 97.6588 355.37C95.6556 355.12 92.6507 354.87 90.6475 354.369C92.9011 353.618 95.6556 353.869 97.6588 354.119C99.6621 354.369 101.165 354.119 102.417 353.869C104.42 353.118 105.922 351.616 106.924 349.114C107.925 346.11 108.176 343.358 108.176 340.354C109.428 343.608 109.177 346.361 107.925 349.614C106.924 352.617 105.171 354.369 102.667 355.37C101.665 355.12 100.413 355.37 99.4117 355.37Z" fill="#343B43"/>
<path d="M95.6545 378.895C92.3992 378.895 86.8903 372.388 85.8887 370.886C89.6448 373.639 94.4025 378.394 95.9049 377.643C97.9082 376.893 98.1586 369.385 97.9081 364.88L98.409 354.87C99.661 354.87 99.1602 364.88 99.1602 364.88C99.4106 366.882 99.9114 377.393 96.4057 378.644C96.1553 378.895 95.9049 378.895 95.6545 378.895Z" fill="#343B43"/>
<path d="M105.422 366.131C108.927 359.625 103.669 354.119 103.669 354.119C104.671 353.368 110.43 359.625 105.923 365.881C105.672 366.131 105.422 366.131 105.422 366.131Z" fill="#343B43"/>
<path d="M55.8396 455.474C53.0851 434.202 64.8542 399.666 64.8542 399.416C65.8558 400.167 54.3372 434.202 56.3404 454.974C56.09 455.474 56.09 455.474 55.8396 455.474Z" fill="#343B43"/>
<path d="M98.9106 345.86C97.909 345.86 97.1578 345.61 96.4066 345.109C94.6537 343.858 94.4033 341.356 94.4033 341.356C95.6554 341.356 95.9058 343.107 97.1578 344.108C97.909 344.609 99.161 344.859 100.413 344.359C100.163 345.61 99.4114 345.86 98.9106 345.86Z" fill="#343B43"/>
<path d="M207.086 439.958C206.084 439.958 205.083 439.708 204.331 439.207C200.575 437.205 200.325 430.949 203.33 425.443C204.832 422.941 206.835 420.688 209.089 419.687C211.343 418.436 213.847 418.436 215.6 419.437C219.356 421.439 219.606 427.696 216.601 433.201C215.099 435.704 213.096 437.956 210.842 438.957C209.59 439.708 208.338 439.958 207.086 439.958ZM212.845 420.188C211.844 420.188 210.842 420.438 209.84 420.938C207.837 421.939 205.834 423.942 204.582 426.194C201.827 430.949 202.078 436.455 205.083 438.206C206.585 438.957 208.338 438.957 210.341 437.956C212.344 436.955 214.348 434.953 215.6 432.701C218.354 427.946 218.104 422.44 215.099 420.688C214.348 420.188 213.596 420.188 212.845 420.188Z" fill="#343B43"/>
<path d="M136.722 479.75C131.714 479.75 127.207 477.497 124.202 473.243C121.197 469.239 120.446 463.983 121.948 459.228L144.986 389.406C146.989 383.149 152.999 378.895 159.76 378.895H257.418C258.67 378.895 259.672 379.145 260.924 379.395C259.672 380.396 258.67 380.146 257.418 380.146H159.76C153.5 380.146 147.991 384.15 146.238 389.906L123.201 459.729C121.698 464.234 122.449 468.738 125.204 472.492C127.958 476.246 132.215 478.498 136.722 478.498C137.223 479.499 136.973 479.75 136.722 479.75Z" fill="#343B43"/>
<path d="M240.89 479.75H143.232C138.224 479.75 133.216 477.247 130.461 473.243C127.707 469.489 126.956 464.734 128.458 460.229L151.495 393.41C153.499 387.404 159.508 383.149 166.269 383.149H263.928C268.936 383.149 273.944 385.652 276.698 389.656C279.453 393.41 280.204 398.165 278.702 402.669L255.664 469.489C253.411 475.746 247.651 479.75 240.89 479.75ZM166.52 384.4C160.26 384.4 154.751 388.154 152.998 393.66L129.96 460.48C128.458 464.484 129.209 468.989 131.713 472.492C134.468 476.246 138.725 478.498 143.482 478.498H241.141C247.401 478.498 252.91 474.745 254.663 468.989L277.7 402.169C279.202 398.165 278.451 393.66 275.947 390.156C273.193 386.402 268.936 384.15 264.178 384.15H166.52V384.4Z" fill="#343B43"/>
<path d="M107.925 479.75C99.6611 479.75 97.4075 469.99 97.4075 468.488C98.6595 468.488 99.9115 478.498 107.925 478.498C109.677 478.498 110.929 477.998 111.43 477.247C112.432 475.495 110.679 471.992 109.177 469.239C108.926 468.488 108.425 467.987 108.175 467.487C107.925 466.986 107.674 466.236 107.424 465.485C105.921 461.481 103.668 455.725 95.905 457.226C95.905 457.226 86.1392 459.979 80.3799 463.983C85.6384 458.978 95.1538 456.225 95.6546 455.975C104.419 454.473 106.923 460.73 108.425 464.984C108.676 465.735 108.926 466.236 109.177 466.986C109.427 467.487 109.677 467.987 109.928 468.738C111.43 471.741 113.433 475.495 111.931 477.748C111.931 479.249 110.178 479.75 107.925 479.75Z" fill="#343B43"/>
<path d="M115.187 479.75C118.442 478.248 120.446 477.497 120.947 475.996C121.447 474.745 120.696 472.993 119.945 472.242C118.943 470.991 117.942 468.738 116.94 465.985C115.688 462.482 114.186 458.728 112.182 456.475C108.927 452.972 101.415 457.226 101.415 457.226C101.165 455.975 109.177 451.47 113.184 455.725C115.438 457.977 116.94 461.981 118.192 465.485C119.194 467.988 120.195 470.49 120.947 471.241C121.948 472.492 122.95 474.494 122.199 476.246C121.447 477.998 119.945 479.499 115.187 479.75Z" fill="#343B43"/>
<path d="M87.1407 480C86.6399 480 86.3895 480 85.8887 480C86.6399 478.999 87.1407 478.999 87.6415 478.999C97.1569 478.498 97.9081 471.241 97.9081 470.74C99.1602 470.991 98.409 479.499 87.6415 480C87.3911 479.75 87.1407 480 87.1407 480Z" fill="#343B43"/>
<path d="M87.3925 479.75C81.3828 475.996 78.3779 468.989 79.6299 461.981C81.1323 452.221 89.8965 445.714 99.1616 446.966C102.166 447.466 106.674 448.717 111.932 454.223C106.173 449.718 101.916 448.467 98.9112 448.217C90.3974 446.715 82.3844 453.222 80.8819 462.232C79.8803 468.738 82.6348 475.245 87.8933 478.749C87.8933 479.75 87.6429 479.75 87.3925 479.75Z" fill="#343B43"/>
<path d="M122.699 458.978C122.198 458.478 121.197 455.224 118.943 454.223C115.938 452.972 112.182 455.975 112.182 455.975C111.681 454.974 115.688 451.47 119.444 452.972C122.449 454.223 123.45 457.977 123.45 457.977C122.95 458.978 122.95 458.978 122.699 458.978Z" fill="#343B43"/>
<path d="M125.953 479.249C122.949 479.249 120.945 476.997 120.945 476.997C121.947 476.496 124.701 479.75 128.958 477.247C128.207 478.999 126.955 479.249 125.953 479.249Z" fill="#343B43"/>
<path d="M120.444 454.974C129.709 418.186 121.947 395.912 121.947 395.912C123.199 395.662 131.212 418.436 121.196 454.724C120.945 454.974 120.695 454.974 120.444 454.974Z" fill="#343B43"/>
<path d="M269.187 385.401C268.937 385.401 260.423 380.396 260.423 380.396C260.924 379.395 269.688 384.15 269.688 384.15C269.688 385.401 269.437 385.401 269.187 385.401Z" fill="#343B43"/>
<path d="M210.592 365.381H158.507C158.007 364.63 167.021 338.853 167.021 338.853C168.023 339.353 159.259 364.129 159.259 364.129H210.592C211.343 365.13 211.093 365.381 210.592 365.381Z" fill="#343B43"/>
<path d="M223.864 328.592H182.046C182.046 327.341 223.864 327.341 223.864 327.341C224.365 328.342 224.114 328.592 223.864 328.592Z" fill="#343B43"/>
<path d="M210.591 365.381C210.09 365.13 209.84 364.88 210.09 364.63L223.111 327.841C224.113 328.342 211.092 365.13 211.092 365.13C211.092 365.13 210.842 365.381 210.591 365.381Z" fill="#343B43"/>
<path d="M92.9007 340.855C89.8958 340.855 87.1413 336.601 87.1413 331.345C86.8909 325.839 89.395 321.585 92.3998 321.335C95.6551 321.335 98.1592 325.589 98.4096 330.845C98.4096 336.35 96.1559 340.855 92.9007 340.855ZM92.3998 322.586C89.8958 322.586 87.8925 326.59 88.1429 331.345C88.3933 335.85 90.3966 339.854 92.9007 339.854C95.4047 339.854 97.408 335.85 97.1576 331.095C96.9072 326.34 94.9039 322.586 92.3998 322.586Z" fill="#343B43"/>
<path d="M107.674 340.855C106.672 340.855 105.921 340.605 105.17 339.854C106.672 339.604 107.173 339.854 107.924 339.854C110.429 339.854 112.181 335.85 112.181 331.095C111.931 326.59 109.928 322.586 107.424 322.586C104.92 322.586 102.916 326.59 103.167 331.345C103.167 333.097 103.417 334.348 103.918 335.85C102.165 334.849 101.915 333.347 101.915 331.345C101.664 325.839 104.168 321.585 107.173 321.335C110.429 321.335 112.933 325.589 113.183 330.845C113.183 336.35 110.929 340.855 107.674 340.855Z" fill="#343B43"/>
<path d="M101.915 332.596C101.414 332.096 99.9115 330.845 97.9082 332.346C99.661 329.593 101.664 330.845 102.416 331.595C102.165 332.346 102.165 332.596 101.915 332.596Z" fill="#343B43"/>
<path d="M267.183 77.8311C266.683 77.3306 266.683 73.3264 266.683 73.3264C271.941 73.8269 276.949 73.8269 281.707 72.3254C282.458 73.3264 282.458 75.3285 282.458 75.3285C281.206 75.3285 281.206 73.5767 281.206 73.5767C276.949 74.828 272.192 74.828 267.935 73.5767V77.0803C267.935 77.5809 267.684 77.8311 267.183 77.8311Z" fill="#343B43"/>
<path d="M274.696 74.5777C272.192 74.5777 269.687 74.0772 267.183 73.3264C257.167 70.073 250.406 60.8133 250.406 50.3024C250.406 36.7883 261.424 26.0271 274.696 26.0271C288.218 26.0271 298.985 37.0386 298.985 50.3024C298.985 60.8133 292.224 70.3232 282.208 73.3264C279.704 74.0772 277.2 74.5777 274.696 74.5777ZM274.696 27.2784C261.925 27.2784 251.658 37.5391 251.658 50.3024C251.658 60.3128 258.169 69.3222 267.684 72.3253C272.192 73.8269 277.2 73.8269 281.707 72.3253C291.222 69.3222 297.733 60.3128 297.733 50.3024C297.733 37.5391 287.216 27.2784 274.696 27.2784Z" fill="#343B43"/>
<path d="M260.422 60.8134C261.173 59.5621 263.176 59.5621 264.428 58.561C264.428 57.3097 264.178 57.0595 263.677 56.3087C262.425 54.8071 261.924 52.805 262.175 51.0532C262.175 50.3024 262.926 47.7998 264.178 47.049C264.679 46.7988 265.18 46.7988 265.68 47.049C266.682 47.5495 266.932 48.8008 267.183 49.5516C267.433 50.8029 267.684 51.804 267.684 52.805C267.684 53.8061 267.433 55.5579 266.682 57.3097C268.435 58.3108 270.939 58.561 274.194 58.561C276.197 58.561 277.7 58.3108 278.952 57.8102C280.454 57.3097 281.957 56.3087 282.708 55.0574C281.206 54.0563 280.204 52.805 279.954 51.5537C279.954 50.8029 279.954 49.8019 280.454 49.0511C280.955 48.0501 281.456 47.5495 282.207 47.2993C282.958 47.049 283.459 47.2993 283.96 47.5495C285.212 48.5506 285.212 50.8029 285.212 51.3035C285.212 52.5548 284.962 53.5558 284.461 54.5568C286.965 55.5579 289.97 55.5579 291.973 55.5579C289.219 56.8092 286.214 56.5589 283.71 55.5579C282.708 57.0595 281.206 58.3108 279.202 59.0615C277.7 59.5621 275.947 59.8123 273.944 60.0626C270.438 60.0626 267.684 59.5621 265.68 58.561C265.43 58.8113 265.18 59.3118 264.679 59.5621C263.677 60.5631 261.924 60.8134 260.422 60.8134ZM264.929 47.7998C263.928 48.3003 263.427 50.0522 263.176 51.0532C262.926 52.5548 263.427 54.3066 264.428 55.5579C264.679 56.0584 265.18 56.3087 265.68 56.8092C266.181 55.8082 266.432 54.3066 266.432 52.805C266.432 51.804 266.432 51.0532 266.181 50.0522C265.931 49.0511 265.43 48.3003 264.929 47.7998C264.929 48.0501 264.929 47.7998 264.929 47.7998ZM282.958 48.3003C282.207 48.5506 281.706 49.0511 281.706 49.5516C281.456 50.0522 281.206 50.8029 281.456 51.3035C281.456 52.3045 282.207 53.3055 283.459 53.8061C283.96 53.0553 284.21 52.0542 284.21 51.0532C284.21 50.0522 283.96 48.5506 283.459 48.3003C283.209 48.3003 283.209 48.3003 282.958 48.3003Z" fill="#343B43"/>
<path d="M248.153 37.2888C247.652 37.2888 221.359 17.5182 221.359 17.5182C222.111 16.5172 248.403 36.2878 248.403 36.2878C248.403 37.2888 248.153 37.2888 248.153 37.2888Z" fill="#343B43"/>
<path d="M225.115 79.3326C224.865 78.3316 249.655 62.0646 249.655 62.0646C250.406 63.0657 225.366 79.0824 225.366 79.0824C225.366 79.0824 225.366 79.3326 225.115 79.3326Z" fill="#343B43"/>
<path d="M274.445 20.5214C273.944 20.0209 273.944 0 273.944 0C275.196 0 275.196 20.0209 275.196 20.0209C275.196 20.2711 274.946 20.5214 274.445 20.5214Z" fill="#343B43"/>
<path d="M298.734 37.2888C298.483 36.2878 312.005 28.78 312.005 28.78C312.506 29.781 298.984 37.0386 298.984 37.0386C298.984 37.2888 298.734 37.2888 298.734 37.2888Z" fill="#343B43"/>
<path d="M323.774 91.8457C323.273 91.5954 296.73 68.0709 296.73 68.0709C297.482 67.0699 324.275 90.8446 324.275 90.8446C324.025 91.8457 323.774 91.8457 323.774 91.8457Z" fill="#343B43"/>
<path d="M360.584 62.8154C358.581 59.8123 355.826 60.563 355.826 60.8133C356.828 59.3117 359.582 59.3117 361.085 62.0646C360.834 62.8154 360.834 62.8154 360.584 62.8154Z" fill="#343B43"/>
<path d="M356.828 65.0677C356.327 65.0677 356.077 65.0678 355.826 66.8196C355.576 68.8217 356.077 69.0719 356.578 69.0719C357.078 69.0719 357.329 68.5714 357.329 67.0698C357.329 65.8185 357.329 65.318 356.828 65.0677Z" fill="#343B43"/>
<path d="M357.83 100.855C357.329 100.355 357.329 95.3493 357.329 95.3493C358.581 95.3493 358.331 100.104 358.331 100.104C358.581 100.605 358.331 100.855 357.83 100.855Z" fill="#343B43"/>
<path d="M412.668 169.176C412.168 152.158 411.416 137.894 411.416 137.894C411.166 133.389 408.912 127.633 406.408 122.377C404.405 118.123 402.151 114.87 399.397 112.617C395.891 109.614 392.385 107.862 388.629 107.612C380.116 106.611 362.337 106.611 362.337 106.611C358.581 106.861 355.325 107.362 351.82 108.863C346.561 111.116 342.054 115.62 338.548 122.377C336.044 127.132 333.791 132.388 331.787 137.393C331.036 138.895 330.535 140.646 329.784 142.148C328.532 145.401 327.03 148.655 324.275 150.907C321.27 153.41 317.264 153.66 314.259 151.908C311.004 150.156 310.002 146.903 309 143.65L304.743 130.386C303.491 126.131 301.989 121.877 300.737 117.623C299.485 113.368 297.982 108.863 296.73 104.609C299.235 108.363 300.487 112.868 301.989 117.122C303.241 121.376 304.743 125.631 305.995 129.885L310.252 143.149C311.254 146.152 312.256 149.155 315.01 150.657C317.765 152.158 321.27 151.908 323.774 149.656C326.278 147.654 327.781 144.4 329.033 141.397C329.784 139.896 330.285 138.144 331.036 136.642C333.039 131.637 335.293 126.382 337.797 121.376C341.553 114.369 346.311 109.614 351.569 107.362C355.325 105.61 358.581 105.36 362.587 105.109C362.838 105.109 380.366 105.109 389.13 106.111C393.387 106.611 396.893 108.363 400.649 111.616C403.403 114.119 405.907 117.372 407.911 121.877C410.415 127.383 412.919 132.888 413.169 137.894C413.169 138.144 413.92 152.409 413.92 168.676C413.169 168.926 412.919 169.176 412.668 169.176Z" fill="#343B43"/>
<path d="M314.761 194.202C304.244 194.202 293.977 190.949 285.714 182.69C276.198 172.93 271.441 159.666 268.185 147.904C264.93 136.142 263.177 125.381 261.174 114.119L260.423 110.115C261.675 109.864 262.176 113.869 262.176 113.869C264.179 125.13 265.932 135.892 269.187 147.654C272.442 159.166 276.95 172.43 286.465 181.939C300.989 196.705 323.024 195.203 338.549 187.445L340.302 186.694C363.089 172.93 369.349 142.398 369.349 142.148C370.351 142.649 364.091 173.681 340.803 187.946L339.05 188.697C332.039 191.7 323.275 194.202 314.761 194.202Z" fill="#343B43"/>
<path d="M430.948 169.176C424.938 150.657 413.169 128.634 400.899 114.119C413.921 128.133 425.94 150.156 431.449 168.425C430.948 169.176 430.948 169.176 430.948 169.176Z" fill="#343B43"/>
<path d="M357.58 95.5996C349.317 95.5996 347.063 91.3451 346.562 89.0928C345.811 86.3399 347.314 79.5829 347.814 77.8311C346.813 77.3306 344.309 75.5787 343.307 73.5766C342.806 72.3253 343.057 70.8238 344.058 70.073C345.561 68.8217 349.567 66.5693 350.569 65.8186C350.819 64.0667 352.822 55.3076 353.824 53.5558C354.074 55.5579 352.322 63.5662 351.821 66.3191C351.57 66.8196 346.562 69.5725 345.06 71.074C344.559 71.5746 344.309 72.5756 344.559 73.3264C345.561 75.3285 348.816 77.3306 349.066 77.3306C349.317 78.0813 347.314 86.3399 348.065 89.0928C348.816 91.8457 351.821 96.3504 364.341 93.8478C361.587 95.3493 359.583 95.5996 357.58 95.5996Z" fill="#343B43"/>
<path d="M376.61 81.0845C374.357 81.0845 372.103 80.0834 370.601 78.0814C373.355 79.8332 376.61 80.584 379.365 79.3327C380.867 78.5819 382.119 77.3306 382.87 75.5788C383.371 73.8269 383.371 72.0751 382.62 70.5735C381.118 67.3202 377.111 65.8186 373.856 67.3202C372.854 67.8207 371.853 68.5715 371.352 69.5725C371.101 67.8207 372.353 66.8196 373.355 66.3191C377.362 64.5673 381.869 66.3191 383.622 70.073C384.373 72.0751 384.623 74.0772 383.872 76.0793C383.121 78.0814 381.618 79.5829 379.866 80.3337C378.864 80.8342 377.612 81.0845 376.61 81.0845Z" fill="#343B43"/>
<path d="M377.863 78.0814C377.362 77.8311 372.854 73.827 372.854 73.827C372.854 72.8259 379.115 69.072 379.115 69.072C379.615 70.0731 374.107 73.3264 374.107 73.3264L378.113 76.8301C378.113 78.0814 378.113 78.0814 377.863 78.0814Z" fill="#343B43"/>
<path d="M270.438 112.367C268.935 112.367 267.683 112.367 266.431 112.117C262.425 111.616 260.422 110.865 260.171 109.364C259.921 107.362 262.675 106.111 264.678 105.109C262.425 107.362 261.173 108.363 261.173 109.114C261.173 109.864 262.675 110.615 266.431 110.865C269.937 111.116 274.444 111.116 279.202 110.365C289.969 108.863 296.48 105.61 296.23 104.108C296.23 103.358 294.477 102.357 289.969 102.106C294.727 101.105 297.231 102.106 297.482 103.858C297.982 107.112 288.717 110.115 279.452 111.366C276.448 112.367 273.443 112.367 270.438 112.367Z" fill="#343B43"/>
<path d="M290.221 109.114C288.719 104.859 288.719 101.105 288.719 97.6016C288.719 94.5985 288.719 91.5954 288.719 88.5922C288.719 87.5912 288.719 86.5901 288.719 85.8394C288.719 82.586 289.47 79.3326 290.973 75.8289C291.223 75.3284 291.473 74.5776 291.473 74.0771C291.223 73.0761 289.47 72.3253 288.218 72.3253C286.966 72.3253 285.464 72.8258 283.961 73.8269C281.207 76.0792 279.955 81.0844 279.204 84.3378C278.953 85.8394 278.703 86.5901 278.452 86.8404C276.95 89.0928 273.945 88.8425 272.443 88.342C270.94 87.8414 270.69 87.3409 270.189 85.8394C269.688 84.5881 268.937 82.586 267.184 78.8321C263.428 71.5745 258.921 68.0709 254.413 69.0719C253.662 69.3222 252.41 70.0729 251.909 71.5745C251.408 72.8258 251.909 74.5776 252.911 76.0792C254.413 78.0813 256.917 82.586 259.421 86.8404C261.926 91.3451 264.93 96.6006 265.932 97.3514C264.179 97.6016 261.926 93.8477 258.42 87.5912C255.916 83.3368 253.412 78.8321 251.909 76.83C250.156 74.5776 250.156 72.5755 250.657 71.3242C251.158 69.5724 252.911 68.3211 253.913 68.0709C256.917 67.3201 262.426 67.8206 267.935 78.3315C269.939 82.0854 270.69 84.0875 271.191 85.3388C271.691 86.5901 271.691 86.5901 272.693 87.0907C273.695 87.5912 276.199 87.8414 277.2 86.0896C277.451 85.8394 277.451 84.8383 277.701 83.8373C278.452 80.5839 279.704 75.0782 282.96 72.5755C284.712 71.3242 286.465 70.8237 287.968 70.8237C289.47 70.8237 291.724 71.5745 292.225 73.3263C292.475 74.3274 291.974 75.0782 291.724 75.8289C290.221 79.0823 289.47 82.0854 289.47 85.3388C289.47 86.3399 289.47 87.3409 289.47 88.0917C289.47 91.0948 289.721 94.098 289.47 97.1011C289.47 100.605 289.22 104.359 290.221 107.862C290.472 109.114 290.221 109.114 290.221 109.114Z" fill="#343B43"/>
<path d="M269.187 112.117C268.186 109.114 267.435 106.111 265.181 105.109C261.425 103.107 257.168 97.3514 254.413 90.0938C253.161 87.0907 251.409 84.5881 249.906 82.586C247.903 79.8332 246.15 77.3306 246.651 75.0782C247.402 72.0751 250.157 71.074 251.659 71.074C251.659 72.3253 248.654 72.3253 247.903 75.3285C247.402 77.0803 248.905 79.0824 250.908 81.8352C252.661 84.0876 254.413 86.5902 255.666 89.8436C258.42 96.8509 262.426 102.607 265.932 104.359C268.687 105.61 269.688 109.114 269.939 111.867C269.187 112.117 269.187 112.117 269.187 112.117Z" fill="#343B43"/>
<path d="M382.119 98.853C381.618 98.3524 380.867 88.8425 380.867 88.8425C382.119 88.8425 382.62 98.3524 382.62 98.3524C382.119 98.853 382.119 98.853 382.119 98.853Z" fill="#343B43"/>
<path d="M378.364 90.0938C377.863 90.0938 377.612 90.0938 377.112 89.8436C374.107 88.8425 373.856 84.3378 374.107 82.3358C374.107 80.0834 374.607 80.0834 374.858 79.8332C375.359 81.3347 374.858 85.0886 376.11 87.0907C376.611 87.8415 376.861 88.342 377.612 88.5923C379.866 89.3431 383.121 86.3399 388.63 81.0845L389.882 79.8332C396.643 73.5766 399.898 64.5673 397.645 58.3107C396.393 54.8071 393.638 52.5547 389.632 52.0542C394.139 51.3034 397.394 53.806 398.646 57.8102C400.9 64.8175 397.645 73.8269 390.633 80.5839L389.381 81.8352C383.872 87.0907 380.868 90.0938 378.364 90.0938Z" fill="#343B43"/>
<path d="M350.318 83.5871C348.315 83.5871 347.062 82.8363 347.062 82.586C347.814 81.585 350.318 83.3368 354.074 81.0845C353.072 83.3368 351.57 83.5871 350.318 83.5871Z" fill="#343B43"/>
<path d="M350.066 109.364C350.317 106.611 353.322 100.855 354.574 100.104C356.076 99.3535 381.868 97.6017 386.375 97.6017C388.379 97.6017 392.135 104.609 393.387 107.612C389.881 103.107 387.126 98.853 386.375 98.853C381.117 98.853 356.827 100.605 355.325 101.356C354.824 101.606 352.57 105.61 350.818 109.114C350.567 109.114 350.317 109.364 350.066 109.364Z" fill="#343B43"/>
<path d="M162.513 198.707C160.259 198.707 157.755 198.206 155.251 196.955C150.994 194.953 147.238 191.95 143.732 187.445C139.726 182.19 136.721 176.184 134.217 168.425C133.466 166.423 132.965 164.421 132.464 162.419C132.214 161.418 131.963 160.417 131.713 159.666C132.214 158.916 139.976 156.663 139.976 156.663C140.978 156.413 141.729 156.163 142.731 155.912C143.482 155.662 143.732 155.912 144.233 156.413C147.989 161.668 152.997 166.423 159.258 171.429C160.76 172.68 162.513 172.93 164.516 172.43C166.269 171.929 168.022 171.178 170.275 169.677C175.033 166.674 179.29 162.92 182.545 159.416C188.805 153.16 195.316 145.902 202.077 137.393C202.578 136.642 203.079 136.642 203.83 136.893C206.584 137.643 209.589 138.394 212.344 139.145L215.348 139.896C207.836 155.662 199.573 167.424 191.31 177.435C187.053 182.44 182.044 188.196 175.534 192.951C173.781 194.202 171.778 195.454 169.274 196.705C167.521 197.956 165.017 198.707 162.513 198.707ZM133.215 159.917C133.466 160.667 133.716 161.418 133.967 162.169C134.467 164.171 134.968 166.173 135.719 168.175C138.223 175.933 141.228 181.94 144.984 186.945C148.24 191.199 151.745 194.202 156.002 196.204C160.51 198.206 165.017 198.206 169.274 195.954C171.527 194.703 173.531 193.452 175.284 192.2C181.544 187.696 186.552 181.94 190.809 176.934C199.072 166.924 207.085 155.412 215.348 141.397L212.594 140.647C209.84 139.896 206.835 139.145 204.08 138.394C196.568 147.404 190.308 154.661 183.797 160.918C180.292 164.421 176.035 168.175 171.277 171.429C169.023 172.93 167.02 173.681 165.017 174.181C162.513 174.682 160.51 174.432 158.757 172.93C152.497 167.925 147.488 162.92 143.482 157.664C142.23 157.914 141.479 158.165 140.477 158.415L133.215 159.917Z" fill="#343B43"/>
<path d="M174.532 238.749C135.219 238.749 103.417 206.966 103.417 167.675C103.417 128.634 135.219 96.8509 174.282 96.8509C210.34 96.8509 240.639 123.629 244.646 159.416C239.387 124.38 209.589 98.1022 174.282 98.1022C135.719 98.1022 104.419 129.385 104.419 167.925C104.419 206.465 135.719 237.748 174.282 237.748C184.298 237.748 194.064 235.746 203.079 231.491C194.565 236.496 184.549 238.749 174.532 238.749Z" fill="#343B43"/>
<path d="M582.194 479.75H0C0 478.498 582.194 478.498 582.194 478.498C582.694 479.499 582.444 479.75 582.194 479.75Z" fill="#343B43"/>
<path d="M380.868 288.3C380.116 288.3 379.616 288.3 378.864 288.3C375.609 288.05 373.355 286.799 371.603 284.046C368.598 279.791 366.845 274.786 366.595 269.531C366.344 264.025 366.595 258.269 374.107 256.267C368.347 259.02 367.346 263.024 367.596 269.531C367.847 274.536 369.599 279.291 372.354 283.295C374.107 285.798 375.86 286.799 378.614 287.049C382.37 287.299 385.375 286.799 387.879 285.798C392.386 283.796 394.64 281.543 394.39 279.291C394.139 277.539 392.637 276.288 392.386 276.288C393.638 275.287 395.391 276.788 395.642 279.041C395.892 281.043 394.89 284.046 388.38 286.799C386.377 288.05 383.873 288.3 380.868 288.3Z" fill="#343B43"/>
<path d="M379.365 281.293C381.368 280.042 383.622 279.541 386.126 278.54C388.38 277.789 390.383 276.788 392.136 275.537C393.138 274.536 393.889 273.285 393.638 272.033C393.388 270.282 392.386 268.78 390.634 267.779C393.388 268.029 394.64 270.031 394.89 272.033C395.141 273.785 394.39 275.287 392.887 276.538C391.134 278.04 388.881 279.041 386.877 279.791C384.123 280.542 381.619 281.043 379.365 281.293Z" fill="#343B43"/>
<path d="M375.858 272.784C377.862 271.533 380.366 271.032 383.12 269.781C380.616 272.033 378.112 272.784 375.858 272.784Z" fill="#343B43"/>
<path d="M444.47 332.847C443.969 332.346 443.969 249.26 443.969 249.26C445.221 249.26 445.221 332.096 445.221 332.096C444.97 332.596 444.72 332.847 444.47 332.847Z" fill="#343B43"/>
<path d="M444.471 214.724C443.97 214.223 443.97 176.684 443.97 176.684C443.97 172.43 439.964 169.176 435.206 169.176H412.92C412.92 167.925 435.206 167.925 435.206 167.925C440.715 167.925 445.222 171.929 445.222 176.684V214.223C444.972 214.473 444.721 214.724 444.471 214.724Z" fill="#343B43"/>
<path d="M412.67 169.176H358.582C358.582 167.925 412.67 167.925 412.67 167.925C413.171 168.926 412.92 169.176 412.67 169.176Z" fill="#343B43"/>
<path d="M209.089 325.339C208.588 324.838 208.588 176.684 208.588 176.684C208.588 171.929 213.095 167.925 218.604 167.925H276.698C276.698 169.176 218.604 169.176 218.604 169.176C213.846 169.176 209.84 172.68 209.84 176.684V324.838C209.59 325.089 209.339 325.339 209.089 325.339Z" fill="#343B43"/>
<path d="M394.64 291.804C393.137 291.554 392.386 291.053 392.136 290.302L389.882 286.298C390.883 285.798 393.137 289.802 393.137 289.802C393.388 290.302 393.638 290.553 394.139 290.553C394.64 290.803 395.14 290.553 395.391 290.302C396.142 289.802 396.643 288.801 396.142 287.8L393.388 282.795C394.389 282.294 397.144 287.049 397.144 287.049C397.895 288.551 397.394 290.302 395.892 291.053C395.641 291.804 395.14 291.804 394.64 291.804Z" fill="#343B43"/>
<path d="M377.112 262.774C376.611 262.523 352.572 219.228 352.572 219.228C351.82 217.727 352.321 215.975 353.824 215.224C355.326 214.473 357.079 214.974 357.83 216.475L381.869 260.021C380.868 260.521 356.578 217.226 356.578 217.226C356.077 216.225 355.076 215.975 354.074 216.475C353.323 216.976 352.822 217.977 353.323 218.978L377.362 262.273C377.362 262.774 377.362 262.774 377.112 262.774Z" fill="#343B43"/>
<path d="M388.63 257.018C383.121 254.265 379.615 256.017 379.615 256.017C379.115 254.765 383.121 253.014 388.88 256.017C389.131 256.767 388.88 257.018 388.63 257.018Z" fill="#343B43"/>
<path d="M343.055 455.975H263.677C263.677 454.724 343.055 454.724 343.055 454.724C343.556 455.725 343.306 455.975 343.055 455.975Z" fill="#343B43"/>
<path d="M436.708 455.975H403.654C403.654 454.724 436.708 454.724 436.708 454.724C437.209 455.725 436.958 455.975 436.708 455.975Z" fill="#343B43"/>
<path d="M103.918 341.856C105.421 338.603 105.421 337.852 105.17 337.602C105.17 337.351 104.419 337.101 103.668 336.851C102.916 336.601 101.915 336.35 101.664 335.85C100.663 334.348 101.414 328.843 101.664 327.842C102.416 330.344 102.165 334.348 102.666 335.349C102.916 335.6 103.417 335.85 103.918 335.85C104.669 336.1 105.921 336.35 106.172 337.351C106.422 338.352 105.921 339.854 104.168 341.856C104.419 341.856 104.168 341.856 103.918 341.856Z" fill="#343B43"/>
<path d="M373.855 263.525C373.855 262.273 379.114 261.773 380.867 259.771C379.615 262.774 374.356 263.274 373.855 263.525C374.106 263.525 374.106 263.525 373.855 263.525Z" fill="#343B43"/>
<path d="M352.072 62.8155C351.571 62.5652 345.561 57.56 345.311 50.8029C345.311 47.049 347.063 43.5454 350.569 40.292C353.073 38.2899 355.577 37.2889 358.582 37.5391C364.842 38.0397 369.85 44.0459 370.101 44.2962C369.099 45.047 364.341 39.0407 358.582 38.5402C356.078 38.2899 353.824 39.0407 351.571 41.0428C348.315 44.0459 346.563 47.049 346.563 50.5527C346.563 56.5589 352.322 61.3139 352.572 61.3139C352.322 62.8155 352.072 62.8155 352.072 62.8155Z" fill="#343B43"/>
<path d="M389.631 52.0542C389.13 51.5537 383.872 40.7925 374.857 39.2909C366.093 37.7894 364.841 40.5422 364.841 40.5422C363.839 39.7914 365.342 36.2878 375.107 38.0396C384.873 39.7914 389.881 50.8029 390.132 51.3034C389.881 52.0542 389.881 52.0542 389.631 52.0542Z" fill="#343B43"/>
<path d="M371.352 69.3222C369.6 69.072 368.347 68.3212 367.847 67.0699C366.595 64.8175 367.596 61.3139 368.097 60.5631C365.092 55.0574 352.822 53.5558 352.822 53.3055C353.573 52.3045 366.344 53.8061 369.349 60.0626C369.349 60.5631 367.847 64.317 369.099 66.3191C369.599 67.0699 370.351 67.8207 371.853 67.8207C371.853 69.072 371.603 69.3222 371.352 69.3222Z" fill="#343B43"/>
<path d="M541.378 298.561C541.879 295.808 542.88 293.806 543.882 291.554C543.882 294.307 542.88 296.309 541.879 298.06C541.628 298.561 541.628 298.561 541.378 298.561ZM547.388 286.298C547.638 283.545 548.64 281.293 549.641 279.291C549.892 282.044 548.89 284.046 548.139 286.048C547.889 286.298 547.638 286.298 547.388 286.298ZM552.646 273.785C552.145 273.535 551.895 273.285 552.145 273.034C552.897 270.782 553.648 268.78 554.399 266.528C554.9 269.03 554.149 271.283 553.147 273.285C553.147 273.535 552.897 273.785 552.646 273.785ZM556.903 260.772C556.402 260.772 556.152 260.271 556.402 260.021C557.154 257.769 557.654 255.516 558.155 253.514C558.656 256.017 558.155 258.269 557.404 260.521C557.404 260.521 557.154 260.772 556.903 260.772ZM560.158 247.508C560.158 244.505 560.409 242.252 560.91 240C561.661 242.252 561.16 244.505 560.659 247.007C560.91 247.258 560.659 247.508 560.158 247.508ZM562.663 233.994C562.412 230.991 562.663 228.738 562.663 226.486C563.664 228.989 563.414 231.241 563.163 233.493C563.163 233.743 562.913 233.994 562.663 233.994ZM563.664 220.48C563.163 218.478 563.163 217.226 563.163 215.975C563.163 214.974 563.163 213.973 563.163 212.972C564.415 213.973 564.415 214.974 564.415 215.975C564.415 217.226 564.415 218.478 564.415 219.979C564.165 220.229 563.915 220.48 563.664 220.48ZM563.414 206.715C562.663 203.962 562.412 201.71 562.162 199.458C563.664 201.46 563.915 203.712 564.165 206.215C563.414 206.715 563.414 206.715 563.414 206.715ZM561.41 193.201C560.409 190.448 559.908 188.196 559.157 186.194C560.91 188.196 561.41 190.448 561.911 192.45C561.41 193.201 561.41 193.201 561.41 193.201ZM557.905 180.188C556.653 177.685 555.651 175.433 554.9 173.431C556.903 174.932 557.654 177.185 558.406 179.437C557.905 180.188 557.905 180.188 557.905 180.188Z" fill="#343B43"/>
<path d="M542.63 151.908C541.879 151.408 541.628 150.907 541.378 150.657C542.63 150.407 542.88 150.657 543.131 150.907C542.88 151.908 542.63 151.908 542.63 151.908ZM537.371 145.401C535.368 143.399 533.866 141.898 532.363 140.396C534.867 141.147 536.37 142.899 537.872 144.4C537.622 145.401 537.371 145.401 537.371 145.401ZM527.606 136.142C525.602 134.64 523.599 133.139 521.846 131.887C524.35 132.138 526.354 133.639 527.856 135.141C527.856 135.892 527.606 136.142 527.606 136.142ZM516.337 128.133C514.084 126.882 512.08 125.881 510.077 124.88C512.581 124.88 514.585 125.881 516.588 127.132C516.838 128.133 516.588 128.133 516.337 128.133ZM504.318 122.127C502.064 121.126 499.811 120.375 497.807 119.875C500.311 119.374 502.565 120.125 504.568 121.126C504.568 121.877 504.568 122.127 504.318 122.127ZM491.297 117.873C489.043 117.372 486.79 116.872 484.536 116.621C487.04 115.871 489.294 116.371 491.547 116.872C491.798 117.622 491.547 117.873 491.297 117.873ZM443.72 117.622C443.72 116.371 445.973 115.871 450.23 115.12C446.474 117.122 443.97 117.622 443.72 117.622C443.97 117.622 443.97 117.622 443.72 117.622ZM477.775 115.62C475.521 115.37 473.268 115.12 471.014 115.12C473.268 114.119 475.772 114.119 478.025 114.369C478.276 115.37 478.025 115.62 477.775 115.62ZM457.242 115.62C459.495 114.119 461.749 114.119 464.003 114.119C461.749 115.12 459.495 115.37 457.242 115.62Z" fill="#343B43"/>
<path d="M361.085 426.694C344.809 426.694 331.287 413.431 331.287 396.913C331.287 380.647 344.559 367.132 361.085 367.132C377.362 367.132 390.884 380.396 390.884 396.913C390.884 399.416 390.633 401.919 389.882 404.421C389.381 401.919 389.632 399.416 389.632 396.913C389.632 381.147 376.861 368.384 361.085 368.384C345.31 368.384 332.539 381.147 332.539 396.913C332.539 412.68 345.31 425.443 361.085 425.443C365.843 425.443 370.601 424.192 374.858 421.94C371.102 425.443 366.344 426.694 361.085 426.694Z" fill="#343B43"/>
<path d="M49.8319 343.858C48.5799 343.107 47.5783 342.607 46.5767 341.856C48.0791 341.606 49.0807 342.106 50.0823 342.857C50.3327 343.608 50.0823 343.858 49.8319 343.858ZM41.8189 337.351C39.8157 335.6 38.3133 333.848 37.0612 331.846C39.3149 333.097 40.8173 334.849 42.3198 336.35C42.0693 337.351 41.8189 337.351 41.8189 337.351ZM34.0564 326.34C32.5539 324.088 31.5523 322.086 30.8011 319.833C32.8043 321.585 33.806 323.587 34.8076 325.589C34.0564 326.34 34.0564 326.34 34.0564 326.34ZM28.7978 313.577C27.5458 311.074 27.045 308.822 26.5442 306.569C28.297 308.571 28.7978 310.824 29.5491 312.826C29.0482 313.577 29.0482 313.577 28.7978 313.577ZM25.793 300.313C25.0418 298.311 24.7913 296.809 24.5409 295.308C24.5409 294.557 24.2905 293.806 24.2905 293.055C25.5426 293.556 25.793 294.307 25.793 295.057C26.0434 296.559 26.2938 298.06 26.5442 299.562C25.793 300.313 25.793 300.313 25.793 300.313ZM24.0401 286.799C23.2889 284.046 23.0385 281.794 23.0385 279.541C24.2905 281.794 24.5409 284.046 24.7913 286.298C24.0401 286.799 24.0401 286.799 24.0401 286.799ZM23.2889 273.285C22.7881 270.532 22.7881 268.029 23.0385 265.777C24.0401 268.029 24.0401 270.282 24.0401 272.534C24.0401 273.034 23.7897 273.285 23.2889 273.285ZM24.2905 259.52C24.0401 256.517 24.2905 254.265 24.7913 252.013C25.5426 254.515 25.2922 256.767 25.0418 259.02C24.7913 259.27 24.5409 259.52 24.2905 259.52ZM26.5442 246.006C26.5442 243.003 27.045 240.751 27.7962 238.749C28.297 241.251 27.5458 243.504 27.045 245.756C27.045 246.006 26.7946 246.006 26.5442 246.006Z" fill="#343B43"/>
<path d="M39.3145 216.475C40.0657 213.973 41.3177 212.221 42.3193 210.719C42.0689 212.972 40.8169 214.724 39.5649 216.225C39.8153 216.475 39.5649 216.475 39.3145 216.475ZM47.3274 206.465C48.3291 203.712 50.0819 202.211 51.5843 200.459C50.8331 202.961 49.0803 204.463 47.8283 206.215C47.5778 206.215 47.5778 206.465 47.3274 206.465ZM57.0933 196.955C58.3453 194.453 60.3485 192.951 62.1014 191.7C61.0998 193.952 59.0965 195.454 57.5941 196.955C57.3437 196.705 57.3437 196.955 57.0933 196.955ZM68.1111 188.697C69.6136 186.444 71.6168 185.193 73.6201 183.942C72.368 186.194 70.3648 187.195 68.3615 188.446C68.3615 188.697 68.1111 188.697 68.1111 188.697ZM79.8802 181.939C81.633 179.937 83.8867 178.936 85.8899 177.935C84.1371 179.937 82.1339 180.688 80.1306 181.689C80.1306 181.939 80.1306 181.939 79.8802 181.939ZM92.6509 176.934C94.6541 175.182 96.9078 174.432 99.1614 173.931C97.1582 175.683 94.9046 176.183 92.6509 176.934Z" fill="#343B43"/>
<path d="M280.455 79.0824H267.935C267.935 77.8311 280.455 77.8311 280.455 77.8311C280.956 78.8321 280.705 79.0824 280.455 79.0824Z" fill="#343B43"/>
<path d="M278.451 84.8383H270.438C270.438 83.587 278.451 83.587 278.451 83.587C279.203 84.5881 278.952 84.8383 278.451 84.8383Z" fill="#343B43"/>
<path d="M335.294 189.698C332.54 180.938 324.026 175.182 314.511 175.182C305.496 175.182 297.483 180.438 294.729 188.196C296.481 179.437 304.995 173.931 314.511 173.931C324.527 173.931 333.291 180.188 335.795 188.947C335.545 189.698 335.545 189.698 335.294 189.698Z" fill="#343B43"/>
<path d="M549.391 170.928C544.132 170.928 539.625 166.674 539.625 161.168C539.625 155.912 543.882 151.408 549.391 151.408C554.649 151.408 559.157 155.662 559.157 161.168C558.906 166.674 554.649 170.928 549.391 170.928ZM549.391 152.909C544.633 152.909 540.877 156.663 540.877 161.418C540.877 166.173 544.633 169.927 549.391 169.927C554.149 169.927 557.905 166.173 557.905 161.418C557.905 156.663 553.898 152.909 549.391 152.909Z" fill="#343B43"/>
<path d="M31.801 235.996C26.5425 235.996 22.0352 231.741 22.0352 226.236C22.0352 220.98 26.2921 216.475 31.801 216.475C37.0595 216.475 41.5668 220.73 41.5668 226.236C41.5668 231.741 37.3099 235.996 31.801 235.996ZM31.801 217.977C27.0433 217.977 23.2872 221.731 23.2872 226.486C23.2872 231.241 27.0433 234.995 31.801 234.995C36.5587 234.995 40.3148 231.241 40.3148 226.486C40.3148 221.731 36.5587 217.977 31.801 217.977Z" fill="#343B43"/>
<defs>
<linearGradient id="paint0_linear_322_1814" x1="111.681" y1="220.413" x2="246.25" y2="132.409" gradientUnits="userSpaceOnUse">
<stop stop-color="#234DAE"/>
<stop offset="1" stop-color="#347BCE"/>
</linearGradient>
<linearGradient id="paint1_linear_322_1814" x1="14.4551" y1="455.54" x2="127.891" y2="373.526" gradientUnits="userSpaceOnUse">
<stop stop-color="#234DAE"/>
<stop offset="1" stop-color="#347BCE"/>
</linearGradient>
<linearGradient id="paint2_linear_322_1814" x1="345.915" y1="79.1793" x2="395.474" y2="45.5866" gradientUnits="userSpaceOnUse">
<stop stop-color="#234DAE"/>
<stop offset="1" stop-color="#347BCE"/>
</linearGradient>
<linearGradient id="paint3_linear_322_1814" x1="369.321" y1="437.97" x2="556.312" y2="323.778" gradientUnits="userSpaceOnUse">
<stop stop-color="#234DAE"/>
<stop offset="1" stop-color="#347BCE"/>
</linearGradient>
<linearGradient id="paint4_linear_322_1814" x1="326.726" y1="387.498" x2="355.487" y2="368.663" gradientUnits="userSpaceOnUse">
<stop stop-color="#234DAE"/>
<stop offset="1" stop-color="#347BCE"/>
</linearGradient>
<linearGradient id="paint5_linear_322_1814" x1="209.974" y1="444.588" x2="204.57" y2="424.565" gradientUnits="userSpaceOnUse">
<stop stop-color="#234DAE"/>
<stop offset="1" stop-color="#347BCE"/>
</linearGradient>
<linearGradient id="paint6_linear_322_1814" x1="361.211" y1="94.5986" x2="361.211" y2="99.8541" gradientUnits="userSpaceOnUse">
<stop stop-color="#F0F0F0"/>
<stop offset="1" stop-color="#F0F0F0" stop-opacity="0"/>
</linearGradient>
<linearGradient id="paint7_linear_322_1814" x1="240.891" y1="58.7935" x2="291.175" y2="25.9093" gradientUnits="userSpaceOnUse">
<stop stop-color="#234DAE"/>
<stop offset="1" stop-color="#347BCE"/>
</linearGradient>
<linearGradient id="paint8_linear_322_1814" x1="279.953" y1="242.112" x2="295.074" y2="234.312" gradientUnits="userSpaceOnUse">
<stop stop-color="#234DAE"/>
<stop offset="1" stop-color="#347BCE"/>
</linearGradient>
<linearGradient id="paint9_linear_322_1814" x1="294.228" y1="189.869" x2="312.787" y2="163.606" gradientUnits="userSpaceOnUse">
<stop stop-color="#234DAE"/>
<stop offset="1" stop-color="#347BCE"/>
</linearGradient>
</defs>
</svg>
